%TF.GenerationSoftware,KiCad,Pcbnew,9.0.1*%
%TF.CreationDate,2026-02-28T19:10:04+07:00*%
%TF.ProjectId,BMP_Bluepill,424d505f-426c-4756-9570-696c6c2e6b69,rev?*%
%TF.SameCoordinates,Original*%
%TF.FileFunction,Plated,1,2,PTH,Mixed*%
%TF.FilePolarity,Positive*%
%FSLAX46Y46*%
G04 Gerber Fmt 4.6, Leading zero omitted, Abs format (unit mm)*
G04 Created by KiCad (PCBNEW 9.0.1) date 2026-02-28 19:10:04*
%MOMM*%
%LPD*%
G01*
G04 APERTURE LIST*
%TA.AperFunction,ViaDrill*%
%ADD10C,0.300000*%
%TD*%
G04 aperture for slot hole*
%TA.AperFunction,ComponentDrill*%
%ADD11C,0.600000*%
%TD*%
%TA.AperFunction,ComponentDrill*%
%ADD12C,0.800000*%
%TD*%
%TA.AperFunction,ComponentDrill*%
%ADD13C,0.950000*%
%TD*%
%TA.AperFunction,ComponentDrill*%
%ADD14C,1.000000*%
%TD*%
G04 APERTURE END LIST*
D10*
X66520000Y-107530000D03*
X66520000Y-129530000D03*
X66520000Y-151530000D03*
X68837500Y-106052500D03*
X68837500Y-128052500D03*
X68837500Y-150052500D03*
X70610000Y-98510000D03*
X70610000Y-100142497D03*
X70610000Y-120510000D03*
X70610000Y-122142497D03*
X70610000Y-142510000D03*
X70610000Y-144142497D03*
X72480000Y-98860000D03*
X72480000Y-120860000D03*
X72480000Y-142860000D03*
X73150000Y-105857499D03*
X73150000Y-107582501D03*
X73150000Y-127857499D03*
X73150000Y-129582501D03*
X73150000Y-149857499D03*
X73150000Y-151582501D03*
X74307499Y-102630000D03*
X74307499Y-124630000D03*
X74307499Y-146630000D03*
X77054998Y-99680000D03*
X77054998Y-121680000D03*
X77054998Y-143680000D03*
X77240000Y-111840000D03*
X77240000Y-133840000D03*
X77240000Y-155840000D03*
X77607101Y-105965000D03*
X77607101Y-127965000D03*
X77607101Y-149965000D03*
X77610000Y-104420000D03*
X77610000Y-126420000D03*
X77610000Y-148420000D03*
X77880000Y-107464999D03*
X77880000Y-129464999D03*
X77880000Y-151464999D03*
X78780000Y-99680000D03*
X78780000Y-121680000D03*
X78780000Y-143680000D03*
X80360000Y-99680000D03*
X80360000Y-121680000D03*
X80360000Y-143680000D03*
X80920000Y-111520000D03*
X80920000Y-133520000D03*
X80920000Y-155520000D03*
X82495000Y-111520000D03*
X82495000Y-133520000D03*
X82495000Y-155520000D03*
X82750000Y-103240000D03*
X82750000Y-125240000D03*
X82750000Y-147240000D03*
X84220002Y-111520000D03*
X84220002Y-133520000D03*
X84220002Y-155520000D03*
X85617434Y-106225961D03*
X85617434Y-128225961D03*
X85617434Y-150225961D03*
X85992501Y-102960000D03*
X85992501Y-124960000D03*
X85992501Y-146960000D03*
X86700000Y-98710000D03*
X86700000Y-120710000D03*
X86700000Y-142710000D03*
X87290000Y-104950000D03*
X87290000Y-126950000D03*
X87290000Y-148950000D03*
X87870000Y-93970000D03*
X87870000Y-115970000D03*
X87870000Y-137970000D03*
X88577500Y-105760000D03*
X88577500Y-107290000D03*
X88577500Y-127760000D03*
X88577500Y-129290000D03*
X88577500Y-149760000D03*
X88577500Y-151290000D03*
X88984998Y-99465002D03*
X88984998Y-121465002D03*
X88984998Y-143465002D03*
X91720000Y-105530000D03*
X91720000Y-127530000D03*
X91720000Y-149530000D03*
X94010000Y-106030000D03*
X94010000Y-128030000D03*
X94010000Y-150030000D03*
X94140000Y-102580000D03*
X94140000Y-124580000D03*
X94140000Y-146580000D03*
X94150000Y-108980000D03*
X94150000Y-130980000D03*
X94150000Y-152980000D03*
X95637500Y-104010000D03*
X95637500Y-107110000D03*
X95637500Y-126010000D03*
X95637500Y-129110000D03*
X95637500Y-148010000D03*
X95637500Y-151110000D03*
D11*
%TO.C,J2*%
X93995000Y-101460000D02*
X92895000Y-101460000D01*
X93995000Y-110100000D02*
X92895000Y-110100000D01*
X93995000Y-123460000D02*
X92895000Y-123460000D01*
X93995000Y-132100000D02*
X92895000Y-132100000D01*
X93995000Y-145460000D02*
X92895000Y-145460000D01*
X93995000Y-154100000D02*
X92895000Y-154100000D01*
X98025000Y-101460000D02*
X97225000Y-101460000D01*
X98025000Y-110100000D02*
X97225000Y-110100000D01*
X98025000Y-123460000D02*
X97225000Y-123460000D01*
X98025000Y-132100000D02*
X97225000Y-132100000D01*
X98025000Y-145460000D02*
X97225000Y-145460000D01*
X98025000Y-154100000D02*
X97225000Y-154100000D01*
D12*
%TO.C,Y1*%
X68530000Y-96880000D03*
X68530000Y-101760000D03*
X68530000Y-118880000D03*
X68530000Y-123760000D03*
X68530000Y-140880000D03*
X68530000Y-145760000D03*
D13*
%TO.C,J1*%
X61675000Y-96390000D03*
X61675000Y-98890000D03*
X61675000Y-101390000D03*
X61675000Y-103890000D03*
X61675000Y-106390000D03*
X61675000Y-108890000D03*
X61675000Y-118390000D03*
X61675000Y-120890000D03*
X61675000Y-123390000D03*
X61675000Y-125890000D03*
X61675000Y-128390000D03*
X61675000Y-130890000D03*
X61675000Y-140390000D03*
X61675000Y-142890000D03*
X61675000Y-145390000D03*
X61675000Y-147890000D03*
X61675000Y-150390000D03*
X61675000Y-152890000D03*
D14*
%TO.C,J3*%
X76660001Y-95050000D03*
X76660001Y-117050000D03*
X76660001Y-139050000D03*
X79200001Y-95050000D03*
X79200001Y-117050000D03*
X79200001Y-139050000D03*
X81740000Y-95050000D03*
X81740000Y-117050000D03*
X81740000Y-139050000D03*
X84280001Y-95050000D03*
X84280001Y-117050000D03*
X84280001Y-139050000D03*
M02*
