%TF.GenerationSoftware,KiCad,Pcbnew,9.0.1*%
%TF.CreationDate,2026-02-28T19:10:03+07:00*%
%TF.ProjectId,BMP_Bluepill,424d505f-426c-4756-9570-696c6c2e6b69,rev?*%
%TF.SameCoordinates,Original*%
%TF.FileFunction,Legend,Top*%
%TF.FilePolarity,Positive*%
%FSLAX46Y46*%
G04 Gerber Fmt 4.6, Leading zero omitted, Abs format (unit mm)*
G04 Created by KiCad (PCBNEW 9.0.1) date 2026-02-28 19:10:03*
%MOMM*%
%LPD*%
G01*
G04 APERTURE LIST*
%ADD10C,0.160000*%
%ADD11C,0.100000*%
%ADD12C,0.150000*%
%ADD13C,0.152400*%
%ADD14C,0.120000*%
%ADD15C,0.000000*%
G04 APERTURE END LIST*
D10*
G36*
X74861509Y-110047176D02*
G01*
X74902967Y-110071380D01*
X74928943Y-110110424D01*
X74939985Y-110169853D01*
X74930651Y-110259422D01*
X74552746Y-110259422D01*
X74578374Y-110199093D01*
X74611800Y-110146743D01*
X74653222Y-110101427D01*
X74701887Y-110065083D01*
X74749798Y-110044670D01*
X74798302Y-110038046D01*
X74861509Y-110047176D01*
G37*
G36*
X75405705Y-111463633D02*
G01*
X65964738Y-111463633D01*
X65964738Y-111193519D01*
X74430903Y-111193519D01*
X74438546Y-111226355D01*
X74456484Y-111255566D01*
X74482456Y-111278001D01*
X74515740Y-111291943D01*
X74558608Y-111296966D01*
X74621932Y-111286785D01*
X74676669Y-111256574D01*
X74718285Y-111210827D01*
X74740416Y-111155274D01*
X74743523Y-111115548D01*
X74736051Y-111082785D01*
X74718618Y-111054890D01*
X74693200Y-111033720D01*
X74660163Y-111020424D01*
X74617135Y-111015598D01*
X74554281Y-111025328D01*
X74498707Y-111054341D01*
X74456313Y-111099150D01*
X74433769Y-111155274D01*
X74430903Y-111193519D01*
X65964738Y-111193519D01*
X65964738Y-110892500D01*
X66131405Y-110892500D01*
X66423031Y-110892500D01*
X66592200Y-110078896D01*
X66658512Y-109697144D01*
X66667580Y-109697144D01*
X66669961Y-109902400D01*
X66806890Y-110892500D01*
X67071496Y-110892500D01*
X67616280Y-109892142D01*
X67649969Y-109822516D01*
X67701918Y-109697144D01*
X67709886Y-109697144D01*
X67632308Y-110012126D01*
X67449309Y-110892500D01*
X67769054Y-110892500D01*
X68109406Y-110892500D01*
X68426128Y-110892500D01*
X68705847Y-110892500D01*
X69022569Y-110892500D01*
X69146675Y-110295601D01*
X69165948Y-110232332D01*
X69194944Y-110178305D01*
X69233778Y-110132110D01*
X69281092Y-110095600D01*
X69330165Y-110074664D01*
X69382430Y-110067722D01*
X69440631Y-110077020D01*
X69479398Y-110102149D01*
X69504044Y-110144059D01*
X69513879Y-110209863D01*
X69502323Y-110310988D01*
X69381423Y-110892500D01*
X69697137Y-110892500D01*
X69974933Y-110892500D01*
X70291655Y-110892500D01*
X70415761Y-110295601D01*
X70434947Y-110232262D01*
X70463624Y-110178235D01*
X70501856Y-110132110D01*
X70548631Y-110095745D01*
X70598019Y-110074739D01*
X70651516Y-110067722D01*
X70707955Y-110076610D01*
X70745465Y-110100563D01*
X70769266Y-110140317D01*
X70778865Y-110202463D01*
X70768112Y-110297707D01*
X70644464Y-110892500D01*
X70960178Y-110892500D01*
X71093901Y-110249255D01*
X71111482Y-110118411D01*
X71106555Y-110020480D01*
X71084599Y-109947621D01*
X71048328Y-109893608D01*
X70997288Y-109854474D01*
X70927971Y-109829171D01*
X70834424Y-109819785D01*
X70739645Y-109830610D01*
X70650447Y-109863021D01*
X70564706Y-109918603D01*
X70481065Y-110001044D01*
X70477035Y-110001044D01*
X70541546Y-109690642D01*
X71964657Y-109690642D01*
X72372604Y-109690642D01*
X72122744Y-110892500D01*
X72447525Y-110892500D01*
X72506344Y-110609572D01*
X72954099Y-110609572D01*
X72959113Y-110710111D01*
X72981575Y-110784882D01*
X73018688Y-110840283D01*
X73070896Y-110880402D01*
X73141775Y-110906331D01*
X73237407Y-110915947D01*
X73330346Y-110905026D01*
X73418748Y-110872145D01*
X73504734Y-110815364D01*
X73589666Y-110730566D01*
X73594704Y-110730566D01*
X73560998Y-110892500D01*
X73876621Y-110892500D01*
X73955657Y-110512385D01*
X74198608Y-110512385D01*
X74204494Y-110617271D01*
X74229129Y-110703705D01*
X74271012Y-110775629D01*
X74330010Y-110834133D01*
X74406204Y-110877579D01*
X74503626Y-110905684D01*
X74627851Y-110915947D01*
X74777947Y-110906519D01*
X74905391Y-110879992D01*
X75013724Y-110838278D01*
X75062176Y-110605270D01*
X74962829Y-110650325D01*
X74858496Y-110677304D01*
X74747652Y-110686420D01*
X74658812Y-110678461D01*
X74596377Y-110657593D01*
X74553454Y-110626511D01*
X74525588Y-110585145D01*
X74511513Y-110530683D01*
X74513454Y-110458175D01*
X75182893Y-110458175D01*
X75211011Y-110322803D01*
X75226673Y-110204213D01*
X75222359Y-110106022D01*
X75201219Y-110024154D01*
X75164666Y-109955248D01*
X75112194Y-109898371D01*
X75044196Y-109856532D01*
X74957083Y-109829605D01*
X74845654Y-109819785D01*
X74740549Y-109829134D01*
X74640406Y-109857003D01*
X74543675Y-109904011D01*
X74449157Y-109971918D01*
X74368222Y-110053277D01*
X74302458Y-110147861D01*
X74251308Y-110257371D01*
X74250723Y-110259422D01*
X74215142Y-110384169D01*
X74198608Y-110512385D01*
X73955657Y-110512385D01*
X74094791Y-109843232D01*
X73779168Y-109843232D01*
X73654604Y-110442146D01*
X73634658Y-110508912D01*
X73606073Y-110563245D01*
X73569150Y-110607193D01*
X73523743Y-110641281D01*
X73474608Y-110661257D01*
X73420223Y-110668010D01*
X73359723Y-110659041D01*
X73319877Y-110635146D01*
X73294805Y-110596273D01*
X73284284Y-110536624D01*
X73293919Y-110446268D01*
X73419307Y-109843232D01*
X73103592Y-109843232D01*
X72972159Y-110475211D01*
X72954099Y-110609572D01*
X72506344Y-110609572D01*
X72697386Y-109690642D01*
X73107348Y-109690642D01*
X73110968Y-109673239D01*
X74518308Y-109673239D01*
X74725853Y-109673239D01*
X74913340Y-109479433D01*
X75031493Y-109673239D01*
X75239038Y-109673239D01*
X75071793Y-109339115D01*
X74823306Y-109339115D01*
X74518308Y-109673239D01*
X73110968Y-109673239D01*
X73163401Y-109421181D01*
X72020711Y-109421181D01*
X71964657Y-109690642D01*
X70541546Y-109690642D01*
X70614605Y-109339115D01*
X70297883Y-109339115D01*
X69974933Y-110892500D01*
X69697137Y-110892500D01*
X69830402Y-110251362D01*
X69848382Y-110119090D01*
X69843917Y-110020328D01*
X69822556Y-109947117D01*
X69787147Y-109893102D01*
X69737424Y-109854159D01*
X69670079Y-109829073D01*
X69579351Y-109819785D01*
X69496104Y-109827297D01*
X69418739Y-109849472D01*
X69345850Y-109886544D01*
X69276398Y-109939759D01*
X69209781Y-110011302D01*
X69205751Y-110011302D01*
X69240739Y-109843232D01*
X68924017Y-109843232D01*
X68705847Y-110892500D01*
X68426128Y-110892500D01*
X68644298Y-109843232D01*
X68327576Y-109843232D01*
X68109406Y-110892500D01*
X67769054Y-110892500D01*
X68048023Y-109550773D01*
X68372376Y-109550773D01*
X68381250Y-109589975D01*
X68402131Y-109624421D01*
X68432646Y-109650820D01*
X68472104Y-109667286D01*
X68523306Y-109673239D01*
X68575829Y-109667842D01*
X68622602Y-109652115D01*
X68664906Y-109625978D01*
X68700416Y-109591179D01*
X68725440Y-109551077D01*
X68740743Y-109504620D01*
X68744522Y-109457150D01*
X68735646Y-109418258D01*
X68714915Y-109385368D01*
X68684636Y-109360532D01*
X68644897Y-109344837D01*
X68592732Y-109339115D01*
X68540871Y-109344379D01*
X68494315Y-109359760D01*
X68451865Y-109385368D01*
X68416177Y-109419495D01*
X68391145Y-109458895D01*
X68375936Y-109504620D01*
X68372376Y-109550773D01*
X68048023Y-109550773D01*
X68074968Y-109421181D01*
X67612983Y-109421181D01*
X67138449Y-110291204D01*
X67037150Y-110503604D01*
X67031105Y-110503604D01*
X67032180Y-110398200D01*
X67023686Y-110293311D01*
X66911303Y-109421181D01*
X66437320Y-109421181D01*
X66131405Y-110892500D01*
X65964738Y-110892500D01*
X65964738Y-109172448D01*
X75405705Y-109172448D01*
X75405705Y-111463633D01*
G37*
G36*
X89727148Y-107996071D02*
G01*
X89723024Y-108043243D01*
X89711990Y-108078092D01*
X89695263Y-108103540D01*
X89672884Y-108121571D01*
X89643708Y-108132953D01*
X89605613Y-108137097D01*
X89566444Y-108132906D01*
X89536530Y-108121418D01*
X89513673Y-108103284D01*
X89496657Y-108077796D01*
X89485468Y-108043020D01*
X89481293Y-107996071D01*
X89481293Y-107926657D01*
X89727148Y-107926657D01*
X89727148Y-107996071D01*
G37*
G36*
X89415787Y-106215247D02*
G01*
X89415787Y-106234347D01*
X89412403Y-106274353D01*
X89403156Y-106305506D01*
X89388872Y-106329700D01*
X89368819Y-106348592D01*
X89344535Y-106359922D01*
X89314671Y-106363894D01*
X89283355Y-106359847D01*
X89257811Y-106348315D01*
X89236660Y-106329162D01*
X89221413Y-106304507D01*
X89211638Y-106273150D01*
X89208083Y-106233273D01*
X89208083Y-106137627D01*
X89415787Y-106137627D01*
X89415787Y-106215247D01*
G37*
G36*
X89732619Y-106203768D02*
G01*
X89727993Y-106256579D01*
X89716126Y-106291889D01*
X89698864Y-106314644D01*
X89676218Y-106328003D01*
X89646353Y-106332728D01*
X89616846Y-106329030D01*
X89592979Y-106318548D01*
X89573422Y-106301270D01*
X89559243Y-106278909D01*
X89550214Y-106250756D01*
X89546946Y-106215247D01*
X89546946Y-106137627D01*
X89732619Y-106137627D01*
X89732619Y-106203768D01*
G37*
G36*
X89951592Y-108411757D02*
G01*
X88989111Y-108411757D01*
X88989111Y-107926657D01*
X89078000Y-107926657D01*
X89347399Y-107926657D01*
X89347399Y-107996071D01*
X89347399Y-108010823D01*
X89352478Y-108081730D01*
X89366832Y-108142102D01*
X89389599Y-108193687D01*
X89420575Y-108237871D01*
X89460038Y-108275094D01*
X89504377Y-108301315D01*
X89554587Y-108317316D01*
X89612159Y-108322868D01*
X89672716Y-108317924D01*
X89722332Y-108304136D01*
X89763106Y-108282431D01*
X89796582Y-108252834D01*
X89823609Y-108214468D01*
X89844248Y-108165645D01*
X89857766Y-108104014D01*
X89862703Y-108026699D01*
X89862703Y-107750167D01*
X89078000Y-107750167D01*
X89078000Y-107926657D01*
X88989111Y-107926657D01*
X88989111Y-106837627D01*
X89078000Y-106837627D01*
X89511921Y-106837627D01*
X89715522Y-106830544D01*
X89715522Y-106835478D01*
X89606053Y-106860049D01*
X89078000Y-107046943D01*
X89078000Y-107191242D01*
X89611524Y-107374864D01*
X89648522Y-107385319D01*
X89715522Y-107399483D01*
X89715522Y-107403831D01*
X89625487Y-107398805D01*
X89547532Y-107397236D01*
X89078000Y-107397236D01*
X89078000Y-107571577D01*
X89862703Y-107571577D01*
X89862703Y-107319665D01*
X89398690Y-107159539D01*
X89348265Y-107144087D01*
X89285411Y-107128374D01*
X89285411Y-107125101D01*
X89341375Y-107113814D01*
X89397567Y-107097208D01*
X89862703Y-106937083D01*
X89862703Y-106678625D01*
X89078000Y-106678625D01*
X89078000Y-106837627D01*
X88989111Y-106837627D01*
X88989111Y-106233273D01*
X89078000Y-106233273D01*
X89078000Y-106262240D01*
X89082476Y-106329206D01*
X89095033Y-106385475D01*
X89114749Y-106432806D01*
X89141258Y-106472631D01*
X89175588Y-106506265D01*
X89214835Y-106530038D01*
X89259983Y-106544623D01*
X89312521Y-106549714D01*
X89359832Y-106544036D01*
X89401175Y-106527489D01*
X89438013Y-106499693D01*
X89467220Y-106463572D01*
X89487936Y-106419621D01*
X89499953Y-106366092D01*
X89502152Y-106366092D01*
X89518044Y-106408520D01*
X89540029Y-106444762D01*
X89568244Y-106475659D01*
X89601926Y-106499615D01*
X89638526Y-106513752D01*
X89679130Y-106518548D01*
X89721171Y-106513963D01*
X89756950Y-106500809D01*
X89787841Y-106479172D01*
X89814636Y-106448060D01*
X89834228Y-106412370D01*
X89849284Y-106368075D01*
X89859129Y-106313432D01*
X89862703Y-106246413D01*
X89862703Y-105961137D01*
X89078000Y-105961137D01*
X89078000Y-106233273D01*
X88989111Y-106233273D01*
X88989111Y-105796029D01*
X89315599Y-105796029D01*
X89437525Y-105796029D01*
X89437525Y-105497125D01*
X89315599Y-105497125D01*
X89315599Y-105796029D01*
X88989111Y-105796029D01*
X88989111Y-105002582D01*
X89078000Y-105002582D01*
X89078000Y-105179658D01*
X89718990Y-105179658D01*
X89718990Y-105403189D01*
X89862703Y-105403189D01*
X89862703Y-104780174D01*
X89718990Y-104780174D01*
X89718990Y-105002582D01*
X89078000Y-105002582D01*
X88989111Y-105002582D01*
X88989111Y-103940321D01*
X89078000Y-103940321D01*
X89511921Y-103940321D01*
X89715522Y-103933238D01*
X89715522Y-103938171D01*
X89606053Y-103962742D01*
X89078000Y-104149637D01*
X89078000Y-104293936D01*
X89611524Y-104477557D01*
X89648522Y-104488013D01*
X89715522Y-104502177D01*
X89715522Y-104506524D01*
X89625487Y-104501498D01*
X89547532Y-104499930D01*
X89078000Y-104499930D01*
X89078000Y-104674270D01*
X89862703Y-104674270D01*
X89862703Y-104422358D01*
X89398690Y-104262233D01*
X89348265Y-104246781D01*
X89285411Y-104231067D01*
X89285411Y-104227795D01*
X89341375Y-104216508D01*
X89397567Y-104199902D01*
X89862703Y-104039776D01*
X89862703Y-103781319D01*
X89078000Y-103781319D01*
X89078000Y-103940321D01*
X88989111Y-103940321D01*
X88989111Y-103692430D01*
X89951592Y-103692430D01*
X89951592Y-108411757D01*
G37*
D11*
X98486265Y-95666895D02*
X98486265Y-94866895D01*
X98486265Y-94866895D02*
X98791027Y-94866895D01*
X98791027Y-94866895D02*
X98867217Y-94904990D01*
X98867217Y-94904990D02*
X98905312Y-94943085D01*
X98905312Y-94943085D02*
X98943408Y-95019276D01*
X98943408Y-95019276D02*
X98943408Y-95133561D01*
X98943408Y-95133561D02*
X98905312Y-95209752D01*
X98905312Y-95209752D02*
X98867217Y-95247847D01*
X98867217Y-95247847D02*
X98791027Y-95285942D01*
X98791027Y-95285942D02*
X98486265Y-95285942D01*
X99210074Y-94866895D02*
X99400550Y-95666895D01*
X99400550Y-95666895D02*
X99552931Y-95095466D01*
X99552931Y-95095466D02*
X99705312Y-95666895D01*
X99705312Y-95666895D02*
X99895789Y-94866895D01*
X100657694Y-95666895D02*
X100391027Y-95285942D01*
X100200551Y-95666895D02*
X100200551Y-94866895D01*
X100200551Y-94866895D02*
X100505313Y-94866895D01*
X100505313Y-94866895D02*
X100581503Y-94904990D01*
X100581503Y-94904990D02*
X100619598Y-94943085D01*
X100619598Y-94943085D02*
X100657694Y-95019276D01*
X100657694Y-95019276D02*
X100657694Y-95133561D01*
X100657694Y-95133561D02*
X100619598Y-95209752D01*
X100619598Y-95209752D02*
X100581503Y-95247847D01*
X100581503Y-95247847D02*
X100505313Y-95285942D01*
X100505313Y-95285942D02*
X100200551Y-95285942D01*
X98486265Y-139666895D02*
X98486265Y-138866895D01*
X98486265Y-138866895D02*
X98791027Y-138866895D01*
X98791027Y-138866895D02*
X98867217Y-138904990D01*
X98867217Y-138904990D02*
X98905312Y-138943085D01*
X98905312Y-138943085D02*
X98943408Y-139019276D01*
X98943408Y-139019276D02*
X98943408Y-139133561D01*
X98943408Y-139133561D02*
X98905312Y-139209752D01*
X98905312Y-139209752D02*
X98867217Y-139247847D01*
X98867217Y-139247847D02*
X98791027Y-139285942D01*
X98791027Y-139285942D02*
X98486265Y-139285942D01*
X99210074Y-138866895D02*
X99400550Y-139666895D01*
X99400550Y-139666895D02*
X99552931Y-139095466D01*
X99552931Y-139095466D02*
X99705312Y-139666895D01*
X99705312Y-139666895D02*
X99895789Y-138866895D01*
X100657694Y-139666895D02*
X100391027Y-139285942D01*
X100200551Y-139666895D02*
X100200551Y-138866895D01*
X100200551Y-138866895D02*
X100505313Y-138866895D01*
X100505313Y-138866895D02*
X100581503Y-138904990D01*
X100581503Y-138904990D02*
X100619598Y-138943085D01*
X100619598Y-138943085D02*
X100657694Y-139019276D01*
X100657694Y-139019276D02*
X100657694Y-139133561D01*
X100657694Y-139133561D02*
X100619598Y-139209752D01*
X100619598Y-139209752D02*
X100581503Y-139247847D01*
X100581503Y-139247847D02*
X100505313Y-139285942D01*
X100505313Y-139285942D02*
X100200551Y-139285942D01*
D10*
G36*
X74861509Y-154047176D02*
G01*
X74902967Y-154071380D01*
X74928943Y-154110424D01*
X74939985Y-154169853D01*
X74930651Y-154259422D01*
X74552746Y-154259422D01*
X74578374Y-154199093D01*
X74611800Y-154146743D01*
X74653222Y-154101427D01*
X74701887Y-154065083D01*
X74749798Y-154044670D01*
X74798302Y-154038046D01*
X74861509Y-154047176D01*
G37*
G36*
X75405705Y-155463633D02*
G01*
X65964738Y-155463633D01*
X65964738Y-155193519D01*
X74430903Y-155193519D01*
X74438546Y-155226355D01*
X74456484Y-155255566D01*
X74482456Y-155278001D01*
X74515740Y-155291943D01*
X74558608Y-155296966D01*
X74621932Y-155286785D01*
X74676669Y-155256574D01*
X74718285Y-155210827D01*
X74740416Y-155155274D01*
X74743523Y-155115548D01*
X74736051Y-155082785D01*
X74718618Y-155054890D01*
X74693200Y-155033720D01*
X74660163Y-155020424D01*
X74617135Y-155015598D01*
X74554281Y-155025328D01*
X74498707Y-155054341D01*
X74456313Y-155099150D01*
X74433769Y-155155274D01*
X74430903Y-155193519D01*
X65964738Y-155193519D01*
X65964738Y-154892500D01*
X66131405Y-154892500D01*
X66423031Y-154892500D01*
X66592200Y-154078896D01*
X66658512Y-153697144D01*
X66667580Y-153697144D01*
X66669961Y-153902400D01*
X66806890Y-154892500D01*
X67071496Y-154892500D01*
X67616280Y-153892142D01*
X67649969Y-153822516D01*
X67701918Y-153697144D01*
X67709886Y-153697144D01*
X67632308Y-154012126D01*
X67449309Y-154892500D01*
X67769054Y-154892500D01*
X68109406Y-154892500D01*
X68426128Y-154892500D01*
X68705847Y-154892500D01*
X69022569Y-154892500D01*
X69146675Y-154295601D01*
X69165948Y-154232332D01*
X69194944Y-154178305D01*
X69233778Y-154132110D01*
X69281092Y-154095600D01*
X69330165Y-154074664D01*
X69382430Y-154067722D01*
X69440631Y-154077020D01*
X69479398Y-154102149D01*
X69504044Y-154144059D01*
X69513879Y-154209863D01*
X69502323Y-154310988D01*
X69381423Y-154892500D01*
X69697137Y-154892500D01*
X69974933Y-154892500D01*
X70291655Y-154892500D01*
X70415761Y-154295601D01*
X70434947Y-154232262D01*
X70463624Y-154178235D01*
X70501856Y-154132110D01*
X70548631Y-154095745D01*
X70598019Y-154074739D01*
X70651516Y-154067722D01*
X70707955Y-154076610D01*
X70745465Y-154100563D01*
X70769266Y-154140317D01*
X70778865Y-154202463D01*
X70768112Y-154297707D01*
X70644464Y-154892500D01*
X70960178Y-154892500D01*
X71093901Y-154249255D01*
X71111482Y-154118411D01*
X71106555Y-154020480D01*
X71084599Y-153947621D01*
X71048328Y-153893608D01*
X70997288Y-153854474D01*
X70927971Y-153829171D01*
X70834424Y-153819785D01*
X70739645Y-153830610D01*
X70650447Y-153863021D01*
X70564706Y-153918603D01*
X70481065Y-154001044D01*
X70477035Y-154001044D01*
X70541546Y-153690642D01*
X71964657Y-153690642D01*
X72372604Y-153690642D01*
X72122744Y-154892500D01*
X72447525Y-154892500D01*
X72506344Y-154609572D01*
X72954099Y-154609572D01*
X72959113Y-154710111D01*
X72981575Y-154784882D01*
X73018688Y-154840283D01*
X73070896Y-154880402D01*
X73141775Y-154906331D01*
X73237407Y-154915947D01*
X73330346Y-154905026D01*
X73418748Y-154872145D01*
X73504734Y-154815364D01*
X73589666Y-154730566D01*
X73594704Y-154730566D01*
X73560998Y-154892500D01*
X73876621Y-154892500D01*
X73955657Y-154512385D01*
X74198608Y-154512385D01*
X74204494Y-154617271D01*
X74229129Y-154703705D01*
X74271012Y-154775629D01*
X74330010Y-154834133D01*
X74406204Y-154877579D01*
X74503626Y-154905684D01*
X74627851Y-154915947D01*
X74777947Y-154906519D01*
X74905391Y-154879992D01*
X75013724Y-154838278D01*
X75062176Y-154605270D01*
X74962829Y-154650325D01*
X74858496Y-154677304D01*
X74747652Y-154686420D01*
X74658812Y-154678461D01*
X74596377Y-154657593D01*
X74553454Y-154626511D01*
X74525588Y-154585145D01*
X74511513Y-154530683D01*
X74513454Y-154458175D01*
X75182893Y-154458175D01*
X75211011Y-154322803D01*
X75226673Y-154204213D01*
X75222359Y-154106022D01*
X75201219Y-154024154D01*
X75164666Y-153955248D01*
X75112194Y-153898371D01*
X75044196Y-153856532D01*
X74957083Y-153829605D01*
X74845654Y-153819785D01*
X74740549Y-153829134D01*
X74640406Y-153857003D01*
X74543675Y-153904011D01*
X74449157Y-153971918D01*
X74368222Y-154053277D01*
X74302458Y-154147861D01*
X74251308Y-154257371D01*
X74250723Y-154259422D01*
X74215142Y-154384169D01*
X74198608Y-154512385D01*
X73955657Y-154512385D01*
X74094791Y-153843232D01*
X73779168Y-153843232D01*
X73654604Y-154442146D01*
X73634658Y-154508912D01*
X73606073Y-154563245D01*
X73569150Y-154607193D01*
X73523743Y-154641281D01*
X73474608Y-154661257D01*
X73420223Y-154668010D01*
X73359723Y-154659041D01*
X73319877Y-154635146D01*
X73294805Y-154596273D01*
X73284284Y-154536624D01*
X73293919Y-154446268D01*
X73419307Y-153843232D01*
X73103592Y-153843232D01*
X72972159Y-154475211D01*
X72954099Y-154609572D01*
X72506344Y-154609572D01*
X72697386Y-153690642D01*
X73107348Y-153690642D01*
X73110968Y-153673239D01*
X74518308Y-153673239D01*
X74725853Y-153673239D01*
X74913340Y-153479433D01*
X75031493Y-153673239D01*
X75239038Y-153673239D01*
X75071793Y-153339115D01*
X74823306Y-153339115D01*
X74518308Y-153673239D01*
X73110968Y-153673239D01*
X73163401Y-153421181D01*
X72020711Y-153421181D01*
X71964657Y-153690642D01*
X70541546Y-153690642D01*
X70614605Y-153339115D01*
X70297883Y-153339115D01*
X69974933Y-154892500D01*
X69697137Y-154892500D01*
X69830402Y-154251362D01*
X69848382Y-154119090D01*
X69843917Y-154020328D01*
X69822556Y-153947117D01*
X69787147Y-153893102D01*
X69737424Y-153854159D01*
X69670079Y-153829073D01*
X69579351Y-153819785D01*
X69496104Y-153827297D01*
X69418739Y-153849472D01*
X69345850Y-153886544D01*
X69276398Y-153939759D01*
X69209781Y-154011302D01*
X69205751Y-154011302D01*
X69240739Y-153843232D01*
X68924017Y-153843232D01*
X68705847Y-154892500D01*
X68426128Y-154892500D01*
X68644298Y-153843232D01*
X68327576Y-153843232D01*
X68109406Y-154892500D01*
X67769054Y-154892500D01*
X68048023Y-153550773D01*
X68372376Y-153550773D01*
X68381250Y-153589975D01*
X68402131Y-153624421D01*
X68432646Y-153650820D01*
X68472104Y-153667286D01*
X68523306Y-153673239D01*
X68575829Y-153667842D01*
X68622602Y-153652115D01*
X68664906Y-153625978D01*
X68700416Y-153591179D01*
X68725440Y-153551077D01*
X68740743Y-153504620D01*
X68744522Y-153457150D01*
X68735646Y-153418258D01*
X68714915Y-153385368D01*
X68684636Y-153360532D01*
X68644897Y-153344837D01*
X68592732Y-153339115D01*
X68540871Y-153344379D01*
X68494315Y-153359760D01*
X68451865Y-153385368D01*
X68416177Y-153419495D01*
X68391145Y-153458895D01*
X68375936Y-153504620D01*
X68372376Y-153550773D01*
X68048023Y-153550773D01*
X68074968Y-153421181D01*
X67612983Y-153421181D01*
X67138449Y-154291204D01*
X67037150Y-154503604D01*
X67031105Y-154503604D01*
X67032180Y-154398200D01*
X67023686Y-154293311D01*
X66911303Y-153421181D01*
X66437320Y-153421181D01*
X66131405Y-154892500D01*
X65964738Y-154892500D01*
X65964738Y-153172448D01*
X75405705Y-153172448D01*
X75405705Y-155463633D01*
G37*
G36*
X89727148Y-151996071D02*
G01*
X89723024Y-152043243D01*
X89711990Y-152078092D01*
X89695263Y-152103540D01*
X89672884Y-152121571D01*
X89643708Y-152132953D01*
X89605613Y-152137097D01*
X89566444Y-152132906D01*
X89536530Y-152121418D01*
X89513673Y-152103284D01*
X89496657Y-152077796D01*
X89485468Y-152043020D01*
X89481293Y-151996071D01*
X89481293Y-151926657D01*
X89727148Y-151926657D01*
X89727148Y-151996071D01*
G37*
G36*
X89415787Y-150215247D02*
G01*
X89415787Y-150234347D01*
X89412403Y-150274353D01*
X89403156Y-150305506D01*
X89388872Y-150329700D01*
X89368819Y-150348592D01*
X89344535Y-150359922D01*
X89314671Y-150363894D01*
X89283355Y-150359847D01*
X89257811Y-150348315D01*
X89236660Y-150329162D01*
X89221413Y-150304507D01*
X89211638Y-150273150D01*
X89208083Y-150233273D01*
X89208083Y-150137627D01*
X89415787Y-150137627D01*
X89415787Y-150215247D01*
G37*
G36*
X89732619Y-150203768D02*
G01*
X89727993Y-150256579D01*
X89716126Y-150291889D01*
X89698864Y-150314644D01*
X89676218Y-150328003D01*
X89646353Y-150332728D01*
X89616846Y-150329030D01*
X89592979Y-150318548D01*
X89573422Y-150301270D01*
X89559243Y-150278909D01*
X89550214Y-150250756D01*
X89546946Y-150215247D01*
X89546946Y-150137627D01*
X89732619Y-150137627D01*
X89732619Y-150203768D01*
G37*
G36*
X89951592Y-152411757D02*
G01*
X88989111Y-152411757D01*
X88989111Y-151926657D01*
X89078000Y-151926657D01*
X89347399Y-151926657D01*
X89347399Y-151996071D01*
X89347399Y-152010823D01*
X89352478Y-152081730D01*
X89366832Y-152142102D01*
X89389599Y-152193687D01*
X89420575Y-152237871D01*
X89460038Y-152275094D01*
X89504377Y-152301315D01*
X89554587Y-152317316D01*
X89612159Y-152322868D01*
X89672716Y-152317924D01*
X89722332Y-152304136D01*
X89763106Y-152282431D01*
X89796582Y-152252834D01*
X89823609Y-152214468D01*
X89844248Y-152165645D01*
X89857766Y-152104014D01*
X89862703Y-152026699D01*
X89862703Y-151750167D01*
X89078000Y-151750167D01*
X89078000Y-151926657D01*
X88989111Y-151926657D01*
X88989111Y-150837627D01*
X89078000Y-150837627D01*
X89511921Y-150837627D01*
X89715522Y-150830544D01*
X89715522Y-150835478D01*
X89606053Y-150860049D01*
X89078000Y-151046943D01*
X89078000Y-151191242D01*
X89611524Y-151374864D01*
X89648522Y-151385319D01*
X89715522Y-151399483D01*
X89715522Y-151403831D01*
X89625487Y-151398805D01*
X89547532Y-151397236D01*
X89078000Y-151397236D01*
X89078000Y-151571577D01*
X89862703Y-151571577D01*
X89862703Y-151319665D01*
X89398690Y-151159539D01*
X89348265Y-151144087D01*
X89285411Y-151128374D01*
X89285411Y-151125101D01*
X89341375Y-151113814D01*
X89397567Y-151097208D01*
X89862703Y-150937083D01*
X89862703Y-150678625D01*
X89078000Y-150678625D01*
X89078000Y-150837627D01*
X88989111Y-150837627D01*
X88989111Y-150233273D01*
X89078000Y-150233273D01*
X89078000Y-150262240D01*
X89082476Y-150329206D01*
X89095033Y-150385475D01*
X89114749Y-150432806D01*
X89141258Y-150472631D01*
X89175588Y-150506265D01*
X89214835Y-150530038D01*
X89259983Y-150544623D01*
X89312521Y-150549714D01*
X89359832Y-150544036D01*
X89401175Y-150527489D01*
X89438013Y-150499693D01*
X89467220Y-150463572D01*
X89487936Y-150419621D01*
X89499953Y-150366092D01*
X89502152Y-150366092D01*
X89518044Y-150408520D01*
X89540029Y-150444762D01*
X89568244Y-150475659D01*
X89601926Y-150499615D01*
X89638526Y-150513752D01*
X89679130Y-150518548D01*
X89721171Y-150513963D01*
X89756950Y-150500809D01*
X89787841Y-150479172D01*
X89814636Y-150448060D01*
X89834228Y-150412370D01*
X89849284Y-150368075D01*
X89859129Y-150313432D01*
X89862703Y-150246413D01*
X89862703Y-149961137D01*
X89078000Y-149961137D01*
X89078000Y-150233273D01*
X88989111Y-150233273D01*
X88989111Y-149796029D01*
X89315599Y-149796029D01*
X89437525Y-149796029D01*
X89437525Y-149497125D01*
X89315599Y-149497125D01*
X89315599Y-149796029D01*
X88989111Y-149796029D01*
X88989111Y-149002582D01*
X89078000Y-149002582D01*
X89078000Y-149179658D01*
X89718990Y-149179658D01*
X89718990Y-149403189D01*
X89862703Y-149403189D01*
X89862703Y-148780174D01*
X89718990Y-148780174D01*
X89718990Y-149002582D01*
X89078000Y-149002582D01*
X88989111Y-149002582D01*
X88989111Y-147940321D01*
X89078000Y-147940321D01*
X89511921Y-147940321D01*
X89715522Y-147933238D01*
X89715522Y-147938171D01*
X89606053Y-147962742D01*
X89078000Y-148149637D01*
X89078000Y-148293936D01*
X89611524Y-148477557D01*
X89648522Y-148488013D01*
X89715522Y-148502177D01*
X89715522Y-148506524D01*
X89625487Y-148501498D01*
X89547532Y-148499930D01*
X89078000Y-148499930D01*
X89078000Y-148674270D01*
X89862703Y-148674270D01*
X89862703Y-148422358D01*
X89398690Y-148262233D01*
X89348265Y-148246781D01*
X89285411Y-148231067D01*
X89285411Y-148227795D01*
X89341375Y-148216508D01*
X89397567Y-148199902D01*
X89862703Y-148039776D01*
X89862703Y-147781319D01*
X89078000Y-147781319D01*
X89078000Y-147940321D01*
X88989111Y-147940321D01*
X88989111Y-147692430D01*
X89951592Y-147692430D01*
X89951592Y-152411757D01*
G37*
D11*
X98486265Y-117666895D02*
X98486265Y-116866895D01*
X98486265Y-116866895D02*
X98791027Y-116866895D01*
X98791027Y-116866895D02*
X98867217Y-116904990D01*
X98867217Y-116904990D02*
X98905312Y-116943085D01*
X98905312Y-116943085D02*
X98943408Y-117019276D01*
X98943408Y-117019276D02*
X98943408Y-117133561D01*
X98943408Y-117133561D02*
X98905312Y-117209752D01*
X98905312Y-117209752D02*
X98867217Y-117247847D01*
X98867217Y-117247847D02*
X98791027Y-117285942D01*
X98791027Y-117285942D02*
X98486265Y-117285942D01*
X99210074Y-116866895D02*
X99400550Y-117666895D01*
X99400550Y-117666895D02*
X99552931Y-117095466D01*
X99552931Y-117095466D02*
X99705312Y-117666895D01*
X99705312Y-117666895D02*
X99895789Y-116866895D01*
X100657694Y-117666895D02*
X100391027Y-117285942D01*
X100200551Y-117666895D02*
X100200551Y-116866895D01*
X100200551Y-116866895D02*
X100505313Y-116866895D01*
X100505313Y-116866895D02*
X100581503Y-116904990D01*
X100581503Y-116904990D02*
X100619598Y-116943085D01*
X100619598Y-116943085D02*
X100657694Y-117019276D01*
X100657694Y-117019276D02*
X100657694Y-117133561D01*
X100657694Y-117133561D02*
X100619598Y-117209752D01*
X100619598Y-117209752D02*
X100581503Y-117247847D01*
X100581503Y-117247847D02*
X100505313Y-117285942D01*
X100505313Y-117285942D02*
X100200551Y-117285942D01*
D10*
G36*
X74861509Y-132047176D02*
G01*
X74902967Y-132071380D01*
X74928943Y-132110424D01*
X74939985Y-132169853D01*
X74930651Y-132259422D01*
X74552746Y-132259422D01*
X74578374Y-132199093D01*
X74611800Y-132146743D01*
X74653222Y-132101427D01*
X74701887Y-132065083D01*
X74749798Y-132044670D01*
X74798302Y-132038046D01*
X74861509Y-132047176D01*
G37*
G36*
X75405705Y-133463633D02*
G01*
X65964738Y-133463633D01*
X65964738Y-133193519D01*
X74430903Y-133193519D01*
X74438546Y-133226355D01*
X74456484Y-133255566D01*
X74482456Y-133278001D01*
X74515740Y-133291943D01*
X74558608Y-133296966D01*
X74621932Y-133286785D01*
X74676669Y-133256574D01*
X74718285Y-133210827D01*
X74740416Y-133155274D01*
X74743523Y-133115548D01*
X74736051Y-133082785D01*
X74718618Y-133054890D01*
X74693200Y-133033720D01*
X74660163Y-133020424D01*
X74617135Y-133015598D01*
X74554281Y-133025328D01*
X74498707Y-133054341D01*
X74456313Y-133099150D01*
X74433769Y-133155274D01*
X74430903Y-133193519D01*
X65964738Y-133193519D01*
X65964738Y-132892500D01*
X66131405Y-132892500D01*
X66423031Y-132892500D01*
X66592200Y-132078896D01*
X66658512Y-131697144D01*
X66667580Y-131697144D01*
X66669961Y-131902400D01*
X66806890Y-132892500D01*
X67071496Y-132892500D01*
X67616280Y-131892142D01*
X67649969Y-131822516D01*
X67701918Y-131697144D01*
X67709886Y-131697144D01*
X67632308Y-132012126D01*
X67449309Y-132892500D01*
X67769054Y-132892500D01*
X68109406Y-132892500D01*
X68426128Y-132892500D01*
X68705847Y-132892500D01*
X69022569Y-132892500D01*
X69146675Y-132295601D01*
X69165948Y-132232332D01*
X69194944Y-132178305D01*
X69233778Y-132132110D01*
X69281092Y-132095600D01*
X69330165Y-132074664D01*
X69382430Y-132067722D01*
X69440631Y-132077020D01*
X69479398Y-132102149D01*
X69504044Y-132144059D01*
X69513879Y-132209863D01*
X69502323Y-132310988D01*
X69381423Y-132892500D01*
X69697137Y-132892500D01*
X69974933Y-132892500D01*
X70291655Y-132892500D01*
X70415761Y-132295601D01*
X70434947Y-132232262D01*
X70463624Y-132178235D01*
X70501856Y-132132110D01*
X70548631Y-132095745D01*
X70598019Y-132074739D01*
X70651516Y-132067722D01*
X70707955Y-132076610D01*
X70745465Y-132100563D01*
X70769266Y-132140317D01*
X70778865Y-132202463D01*
X70768112Y-132297707D01*
X70644464Y-132892500D01*
X70960178Y-132892500D01*
X71093901Y-132249255D01*
X71111482Y-132118411D01*
X71106555Y-132020480D01*
X71084599Y-131947621D01*
X71048328Y-131893608D01*
X70997288Y-131854474D01*
X70927971Y-131829171D01*
X70834424Y-131819785D01*
X70739645Y-131830610D01*
X70650447Y-131863021D01*
X70564706Y-131918603D01*
X70481065Y-132001044D01*
X70477035Y-132001044D01*
X70541546Y-131690642D01*
X71964657Y-131690642D01*
X72372604Y-131690642D01*
X72122744Y-132892500D01*
X72447525Y-132892500D01*
X72506344Y-132609572D01*
X72954099Y-132609572D01*
X72959113Y-132710111D01*
X72981575Y-132784882D01*
X73018688Y-132840283D01*
X73070896Y-132880402D01*
X73141775Y-132906331D01*
X73237407Y-132915947D01*
X73330346Y-132905026D01*
X73418748Y-132872145D01*
X73504734Y-132815364D01*
X73589666Y-132730566D01*
X73594704Y-132730566D01*
X73560998Y-132892500D01*
X73876621Y-132892500D01*
X73955657Y-132512385D01*
X74198608Y-132512385D01*
X74204494Y-132617271D01*
X74229129Y-132703705D01*
X74271012Y-132775629D01*
X74330010Y-132834133D01*
X74406204Y-132877579D01*
X74503626Y-132905684D01*
X74627851Y-132915947D01*
X74777947Y-132906519D01*
X74905391Y-132879992D01*
X75013724Y-132838278D01*
X75062176Y-132605270D01*
X74962829Y-132650325D01*
X74858496Y-132677304D01*
X74747652Y-132686420D01*
X74658812Y-132678461D01*
X74596377Y-132657593D01*
X74553454Y-132626511D01*
X74525588Y-132585145D01*
X74511513Y-132530683D01*
X74513454Y-132458175D01*
X75182893Y-132458175D01*
X75211011Y-132322803D01*
X75226673Y-132204213D01*
X75222359Y-132106022D01*
X75201219Y-132024154D01*
X75164666Y-131955248D01*
X75112194Y-131898371D01*
X75044196Y-131856532D01*
X74957083Y-131829605D01*
X74845654Y-131819785D01*
X74740549Y-131829134D01*
X74640406Y-131857003D01*
X74543675Y-131904011D01*
X74449157Y-131971918D01*
X74368222Y-132053277D01*
X74302458Y-132147861D01*
X74251308Y-132257371D01*
X74250723Y-132259422D01*
X74215142Y-132384169D01*
X74198608Y-132512385D01*
X73955657Y-132512385D01*
X74094791Y-131843232D01*
X73779168Y-131843232D01*
X73654604Y-132442146D01*
X73634658Y-132508912D01*
X73606073Y-132563245D01*
X73569150Y-132607193D01*
X73523743Y-132641281D01*
X73474608Y-132661257D01*
X73420223Y-132668010D01*
X73359723Y-132659041D01*
X73319877Y-132635146D01*
X73294805Y-132596273D01*
X73284284Y-132536624D01*
X73293919Y-132446268D01*
X73419307Y-131843232D01*
X73103592Y-131843232D01*
X72972159Y-132475211D01*
X72954099Y-132609572D01*
X72506344Y-132609572D01*
X72697386Y-131690642D01*
X73107348Y-131690642D01*
X73110968Y-131673239D01*
X74518308Y-131673239D01*
X74725853Y-131673239D01*
X74913340Y-131479433D01*
X75031493Y-131673239D01*
X75239038Y-131673239D01*
X75071793Y-131339115D01*
X74823306Y-131339115D01*
X74518308Y-131673239D01*
X73110968Y-131673239D01*
X73163401Y-131421181D01*
X72020711Y-131421181D01*
X71964657Y-131690642D01*
X70541546Y-131690642D01*
X70614605Y-131339115D01*
X70297883Y-131339115D01*
X69974933Y-132892500D01*
X69697137Y-132892500D01*
X69830402Y-132251362D01*
X69848382Y-132119090D01*
X69843917Y-132020328D01*
X69822556Y-131947117D01*
X69787147Y-131893102D01*
X69737424Y-131854159D01*
X69670079Y-131829073D01*
X69579351Y-131819785D01*
X69496104Y-131827297D01*
X69418739Y-131849472D01*
X69345850Y-131886544D01*
X69276398Y-131939759D01*
X69209781Y-132011302D01*
X69205751Y-132011302D01*
X69240739Y-131843232D01*
X68924017Y-131843232D01*
X68705847Y-132892500D01*
X68426128Y-132892500D01*
X68644298Y-131843232D01*
X68327576Y-131843232D01*
X68109406Y-132892500D01*
X67769054Y-132892500D01*
X68048023Y-131550773D01*
X68372376Y-131550773D01*
X68381250Y-131589975D01*
X68402131Y-131624421D01*
X68432646Y-131650820D01*
X68472104Y-131667286D01*
X68523306Y-131673239D01*
X68575829Y-131667842D01*
X68622602Y-131652115D01*
X68664906Y-131625978D01*
X68700416Y-131591179D01*
X68725440Y-131551077D01*
X68740743Y-131504620D01*
X68744522Y-131457150D01*
X68735646Y-131418258D01*
X68714915Y-131385368D01*
X68684636Y-131360532D01*
X68644897Y-131344837D01*
X68592732Y-131339115D01*
X68540871Y-131344379D01*
X68494315Y-131359760D01*
X68451865Y-131385368D01*
X68416177Y-131419495D01*
X68391145Y-131458895D01*
X68375936Y-131504620D01*
X68372376Y-131550773D01*
X68048023Y-131550773D01*
X68074968Y-131421181D01*
X67612983Y-131421181D01*
X67138449Y-132291204D01*
X67037150Y-132503604D01*
X67031105Y-132503604D01*
X67032180Y-132398200D01*
X67023686Y-132293311D01*
X66911303Y-131421181D01*
X66437320Y-131421181D01*
X66131405Y-132892500D01*
X65964738Y-132892500D01*
X65964738Y-131172448D01*
X75405705Y-131172448D01*
X75405705Y-133463633D01*
G37*
G36*
X89727148Y-129996071D02*
G01*
X89723024Y-130043243D01*
X89711990Y-130078092D01*
X89695263Y-130103540D01*
X89672884Y-130121571D01*
X89643708Y-130132953D01*
X89605613Y-130137097D01*
X89566444Y-130132906D01*
X89536530Y-130121418D01*
X89513673Y-130103284D01*
X89496657Y-130077796D01*
X89485468Y-130043020D01*
X89481293Y-129996071D01*
X89481293Y-129926657D01*
X89727148Y-129926657D01*
X89727148Y-129996071D01*
G37*
G36*
X89415787Y-128215247D02*
G01*
X89415787Y-128234347D01*
X89412403Y-128274353D01*
X89403156Y-128305506D01*
X89388872Y-128329700D01*
X89368819Y-128348592D01*
X89344535Y-128359922D01*
X89314671Y-128363894D01*
X89283355Y-128359847D01*
X89257811Y-128348315D01*
X89236660Y-128329162D01*
X89221413Y-128304507D01*
X89211638Y-128273150D01*
X89208083Y-128233273D01*
X89208083Y-128137627D01*
X89415787Y-128137627D01*
X89415787Y-128215247D01*
G37*
G36*
X89732619Y-128203768D02*
G01*
X89727993Y-128256579D01*
X89716126Y-128291889D01*
X89698864Y-128314644D01*
X89676218Y-128328003D01*
X89646353Y-128332728D01*
X89616846Y-128329030D01*
X89592979Y-128318548D01*
X89573422Y-128301270D01*
X89559243Y-128278909D01*
X89550214Y-128250756D01*
X89546946Y-128215247D01*
X89546946Y-128137627D01*
X89732619Y-128137627D01*
X89732619Y-128203768D01*
G37*
G36*
X89951592Y-130411757D02*
G01*
X88989111Y-130411757D01*
X88989111Y-129926657D01*
X89078000Y-129926657D01*
X89347399Y-129926657D01*
X89347399Y-129996071D01*
X89347399Y-130010823D01*
X89352478Y-130081730D01*
X89366832Y-130142102D01*
X89389599Y-130193687D01*
X89420575Y-130237871D01*
X89460038Y-130275094D01*
X89504377Y-130301315D01*
X89554587Y-130317316D01*
X89612159Y-130322868D01*
X89672716Y-130317924D01*
X89722332Y-130304136D01*
X89763106Y-130282431D01*
X89796582Y-130252834D01*
X89823609Y-130214468D01*
X89844248Y-130165645D01*
X89857766Y-130104014D01*
X89862703Y-130026699D01*
X89862703Y-129750167D01*
X89078000Y-129750167D01*
X89078000Y-129926657D01*
X88989111Y-129926657D01*
X88989111Y-128837627D01*
X89078000Y-128837627D01*
X89511921Y-128837627D01*
X89715522Y-128830544D01*
X89715522Y-128835478D01*
X89606053Y-128860049D01*
X89078000Y-129046943D01*
X89078000Y-129191242D01*
X89611524Y-129374864D01*
X89648522Y-129385319D01*
X89715522Y-129399483D01*
X89715522Y-129403831D01*
X89625487Y-129398805D01*
X89547532Y-129397236D01*
X89078000Y-129397236D01*
X89078000Y-129571577D01*
X89862703Y-129571577D01*
X89862703Y-129319665D01*
X89398690Y-129159539D01*
X89348265Y-129144087D01*
X89285411Y-129128374D01*
X89285411Y-129125101D01*
X89341375Y-129113814D01*
X89397567Y-129097208D01*
X89862703Y-128937083D01*
X89862703Y-128678625D01*
X89078000Y-128678625D01*
X89078000Y-128837627D01*
X88989111Y-128837627D01*
X88989111Y-128233273D01*
X89078000Y-128233273D01*
X89078000Y-128262240D01*
X89082476Y-128329206D01*
X89095033Y-128385475D01*
X89114749Y-128432806D01*
X89141258Y-128472631D01*
X89175588Y-128506265D01*
X89214835Y-128530038D01*
X89259983Y-128544623D01*
X89312521Y-128549714D01*
X89359832Y-128544036D01*
X89401175Y-128527489D01*
X89438013Y-128499693D01*
X89467220Y-128463572D01*
X89487936Y-128419621D01*
X89499953Y-128366092D01*
X89502152Y-128366092D01*
X89518044Y-128408520D01*
X89540029Y-128444762D01*
X89568244Y-128475659D01*
X89601926Y-128499615D01*
X89638526Y-128513752D01*
X89679130Y-128518548D01*
X89721171Y-128513963D01*
X89756950Y-128500809D01*
X89787841Y-128479172D01*
X89814636Y-128448060D01*
X89834228Y-128412370D01*
X89849284Y-128368075D01*
X89859129Y-128313432D01*
X89862703Y-128246413D01*
X89862703Y-127961137D01*
X89078000Y-127961137D01*
X89078000Y-128233273D01*
X88989111Y-128233273D01*
X88989111Y-127796029D01*
X89315599Y-127796029D01*
X89437525Y-127796029D01*
X89437525Y-127497125D01*
X89315599Y-127497125D01*
X89315599Y-127796029D01*
X88989111Y-127796029D01*
X88989111Y-127002582D01*
X89078000Y-127002582D01*
X89078000Y-127179658D01*
X89718990Y-127179658D01*
X89718990Y-127403189D01*
X89862703Y-127403189D01*
X89862703Y-126780174D01*
X89718990Y-126780174D01*
X89718990Y-127002582D01*
X89078000Y-127002582D01*
X88989111Y-127002582D01*
X88989111Y-125940321D01*
X89078000Y-125940321D01*
X89511921Y-125940321D01*
X89715522Y-125933238D01*
X89715522Y-125938171D01*
X89606053Y-125962742D01*
X89078000Y-126149637D01*
X89078000Y-126293936D01*
X89611524Y-126477557D01*
X89648522Y-126488013D01*
X89715522Y-126502177D01*
X89715522Y-126506524D01*
X89625487Y-126501498D01*
X89547532Y-126499930D01*
X89078000Y-126499930D01*
X89078000Y-126674270D01*
X89862703Y-126674270D01*
X89862703Y-126422358D01*
X89398690Y-126262233D01*
X89348265Y-126246781D01*
X89285411Y-126231067D01*
X89285411Y-126227795D01*
X89341375Y-126216508D01*
X89397567Y-126199902D01*
X89862703Y-126039776D01*
X89862703Y-125781319D01*
X89078000Y-125781319D01*
X89078000Y-125940321D01*
X88989111Y-125940321D01*
X88989111Y-125692430D01*
X89951592Y-125692430D01*
X89951592Y-130411757D01*
G37*
D12*
X94495180Y-95898095D02*
X93685657Y-95898095D01*
X93685657Y-95898095D02*
X93590419Y-95945714D01*
X93590419Y-95945714D02*
X93542800Y-95993333D01*
X93542800Y-95993333D02*
X93495180Y-96088571D01*
X93495180Y-96088571D02*
X93495180Y-96279047D01*
X93495180Y-96279047D02*
X93542800Y-96374285D01*
X93542800Y-96374285D02*
X93590419Y-96421904D01*
X93590419Y-96421904D02*
X93685657Y-96469523D01*
X93685657Y-96469523D02*
X94495180Y-96469523D01*
X94399942Y-96898095D02*
X94447561Y-96945714D01*
X94447561Y-96945714D02*
X94495180Y-97040952D01*
X94495180Y-97040952D02*
X94495180Y-97279047D01*
X94495180Y-97279047D02*
X94447561Y-97374285D01*
X94447561Y-97374285D02*
X94399942Y-97421904D01*
X94399942Y-97421904D02*
X94304704Y-97469523D01*
X94304704Y-97469523D02*
X94209466Y-97469523D01*
X94209466Y-97469523D02*
X94066609Y-97421904D01*
X94066609Y-97421904D02*
X93495180Y-96850476D01*
X93495180Y-96850476D02*
X93495180Y-97469523D01*
D11*
X71946667Y-102364895D02*
X71680000Y-101983942D01*
X71489524Y-102364895D02*
X71489524Y-101564895D01*
X71489524Y-101564895D02*
X71794286Y-101564895D01*
X71794286Y-101564895D02*
X71870476Y-101602990D01*
X71870476Y-101602990D02*
X71908571Y-101641085D01*
X71908571Y-101641085D02*
X71946667Y-101717276D01*
X71946667Y-101717276D02*
X71946667Y-101831561D01*
X71946667Y-101831561D02*
X71908571Y-101907752D01*
X71908571Y-101907752D02*
X71870476Y-101945847D01*
X71870476Y-101945847D02*
X71794286Y-101983942D01*
X71794286Y-101983942D02*
X71489524Y-101983942D01*
X72632381Y-101831561D02*
X72632381Y-102364895D01*
X72441905Y-101526800D02*
X72251428Y-102098228D01*
X72251428Y-102098228D02*
X72746667Y-102098228D01*
X74929524Y-99154895D02*
X74929524Y-98354895D01*
X74929524Y-98354895D02*
X75120000Y-98354895D01*
X75120000Y-98354895D02*
X75234286Y-98392990D01*
X75234286Y-98392990D02*
X75310476Y-98469180D01*
X75310476Y-98469180D02*
X75348571Y-98545371D01*
X75348571Y-98545371D02*
X75386667Y-98697752D01*
X75386667Y-98697752D02*
X75386667Y-98812038D01*
X75386667Y-98812038D02*
X75348571Y-98964419D01*
X75348571Y-98964419D02*
X75310476Y-99040609D01*
X75310476Y-99040609D02*
X75234286Y-99116800D01*
X75234286Y-99116800D02*
X75120000Y-99154895D01*
X75120000Y-99154895D02*
X74929524Y-99154895D01*
X75691428Y-98431085D02*
X75729524Y-98392990D01*
X75729524Y-98392990D02*
X75805714Y-98354895D01*
X75805714Y-98354895D02*
X75996190Y-98354895D01*
X75996190Y-98354895D02*
X76072381Y-98392990D01*
X76072381Y-98392990D02*
X76110476Y-98431085D01*
X76110476Y-98431085D02*
X76148571Y-98507276D01*
X76148571Y-98507276D02*
X76148571Y-98583466D01*
X76148571Y-98583466D02*
X76110476Y-98697752D01*
X76110476Y-98697752D02*
X75653333Y-99154895D01*
X75653333Y-99154895D02*
X76148571Y-99154895D01*
X100564895Y-99643332D02*
X100183942Y-99909999D01*
X100564895Y-100100475D02*
X99764895Y-100100475D01*
X99764895Y-100100475D02*
X99764895Y-99795713D01*
X99764895Y-99795713D02*
X99802990Y-99719523D01*
X99802990Y-99719523D02*
X99841085Y-99681428D01*
X99841085Y-99681428D02*
X99917276Y-99643332D01*
X99917276Y-99643332D02*
X100031561Y-99643332D01*
X100031561Y-99643332D02*
X100107752Y-99681428D01*
X100107752Y-99681428D02*
X100145847Y-99719523D01*
X100145847Y-99719523D02*
X100183942Y-99795713D01*
X100183942Y-99795713D02*
X100183942Y-100100475D01*
X99841085Y-99338571D02*
X99802990Y-99300475D01*
X99802990Y-99300475D02*
X99764895Y-99224285D01*
X99764895Y-99224285D02*
X99764895Y-99033809D01*
X99764895Y-99033809D02*
X99802990Y-98957618D01*
X99802990Y-98957618D02*
X99841085Y-98919523D01*
X99841085Y-98919523D02*
X99917276Y-98881428D01*
X99917276Y-98881428D02*
X99993466Y-98881428D01*
X99993466Y-98881428D02*
X100107752Y-98919523D01*
X100107752Y-98919523D02*
X100564895Y-99376666D01*
X100564895Y-99376666D02*
X100564895Y-98881428D01*
X89965714Y-102278704D02*
X89927618Y-102316800D01*
X89927618Y-102316800D02*
X89813333Y-102354895D01*
X89813333Y-102354895D02*
X89737142Y-102354895D01*
X89737142Y-102354895D02*
X89622856Y-102316800D01*
X89622856Y-102316800D02*
X89546666Y-102240609D01*
X89546666Y-102240609D02*
X89508571Y-102164419D01*
X89508571Y-102164419D02*
X89470475Y-102012038D01*
X89470475Y-102012038D02*
X89470475Y-101897752D01*
X89470475Y-101897752D02*
X89508571Y-101745371D01*
X89508571Y-101745371D02*
X89546666Y-101669180D01*
X89546666Y-101669180D02*
X89622856Y-101592990D01*
X89622856Y-101592990D02*
X89737142Y-101554895D01*
X89737142Y-101554895D02*
X89813333Y-101554895D01*
X89813333Y-101554895D02*
X89927618Y-101592990D01*
X89927618Y-101592990D02*
X89965714Y-101631085D01*
X90727618Y-102354895D02*
X90270475Y-102354895D01*
X90499047Y-102354895D02*
X90499047Y-101554895D01*
X90499047Y-101554895D02*
X90422856Y-101669180D01*
X90422856Y-101669180D02*
X90346666Y-101745371D01*
X90346666Y-101745371D02*
X90270475Y-101783466D01*
X91451428Y-101554895D02*
X91070476Y-101554895D01*
X91070476Y-101554895D02*
X91032380Y-101935847D01*
X91032380Y-101935847D02*
X91070476Y-101897752D01*
X91070476Y-101897752D02*
X91146666Y-101859657D01*
X91146666Y-101859657D02*
X91337142Y-101859657D01*
X91337142Y-101859657D02*
X91413333Y-101897752D01*
X91413333Y-101897752D02*
X91451428Y-101935847D01*
X91451428Y-101935847D02*
X91489523Y-102012038D01*
X91489523Y-102012038D02*
X91489523Y-102202514D01*
X91489523Y-102202514D02*
X91451428Y-102278704D01*
X91451428Y-102278704D02*
X91413333Y-102316800D01*
X91413333Y-102316800D02*
X91337142Y-102354895D01*
X91337142Y-102354895D02*
X91146666Y-102354895D01*
X91146666Y-102354895D02*
X91070476Y-102316800D01*
X91070476Y-102316800D02*
X91032380Y-102278704D01*
D12*
X79418096Y-105169819D02*
X79418096Y-105979342D01*
X79418096Y-105979342D02*
X79465715Y-106074580D01*
X79465715Y-106074580D02*
X79513334Y-106122200D01*
X79513334Y-106122200D02*
X79608572Y-106169819D01*
X79608572Y-106169819D02*
X79799048Y-106169819D01*
X79799048Y-106169819D02*
X79894286Y-106122200D01*
X79894286Y-106122200D02*
X79941905Y-106074580D01*
X79941905Y-106074580D02*
X79989524Y-105979342D01*
X79989524Y-105979342D02*
X79989524Y-105169819D01*
X80989524Y-106169819D02*
X80418096Y-106169819D01*
X80703810Y-106169819D02*
X80703810Y-105169819D01*
X80703810Y-105169819D02*
X80608572Y-105312676D01*
X80608572Y-105312676D02*
X80513334Y-105407914D01*
X80513334Y-105407914D02*
X80418096Y-105455533D01*
X77650001Y-102479819D02*
X77650001Y-102717914D01*
X77411906Y-102622676D02*
X77650001Y-102717914D01*
X77650001Y-102717914D02*
X77888096Y-102622676D01*
X77507144Y-102908390D02*
X77650001Y-102717914D01*
X77650001Y-102717914D02*
X77792858Y-102908390D01*
X77160001Y-102919819D02*
X77160001Y-103157914D01*
X76921906Y-103062676D02*
X77160001Y-103157914D01*
X77160001Y-103157914D02*
X77398096Y-103062676D01*
X77017144Y-103348390D02*
X77160001Y-103157914D01*
X77160001Y-103157914D02*
X77302858Y-103348390D01*
D11*
X88116667Y-102354895D02*
X87850000Y-101973942D01*
X87659524Y-102354895D02*
X87659524Y-101554895D01*
X87659524Y-101554895D02*
X87964286Y-101554895D01*
X87964286Y-101554895D02*
X88040476Y-101592990D01*
X88040476Y-101592990D02*
X88078571Y-101631085D01*
X88078571Y-101631085D02*
X88116667Y-101707276D01*
X88116667Y-101707276D02*
X88116667Y-101821561D01*
X88116667Y-101821561D02*
X88078571Y-101897752D01*
X88078571Y-101897752D02*
X88040476Y-101935847D01*
X88040476Y-101935847D02*
X87964286Y-101973942D01*
X87964286Y-101973942D02*
X87659524Y-101973942D01*
X88802381Y-101554895D02*
X88650000Y-101554895D01*
X88650000Y-101554895D02*
X88573809Y-101592990D01*
X88573809Y-101592990D02*
X88535714Y-101631085D01*
X88535714Y-101631085D02*
X88459524Y-101745371D01*
X88459524Y-101745371D02*
X88421428Y-101897752D01*
X88421428Y-101897752D02*
X88421428Y-102202514D01*
X88421428Y-102202514D02*
X88459524Y-102278704D01*
X88459524Y-102278704D02*
X88497619Y-102316800D01*
X88497619Y-102316800D02*
X88573809Y-102354895D01*
X88573809Y-102354895D02*
X88726190Y-102354895D01*
X88726190Y-102354895D02*
X88802381Y-102316800D01*
X88802381Y-102316800D02*
X88840476Y-102278704D01*
X88840476Y-102278704D02*
X88878571Y-102202514D01*
X88878571Y-102202514D02*
X88878571Y-102012038D01*
X88878571Y-102012038D02*
X88840476Y-101935847D01*
X88840476Y-101935847D02*
X88802381Y-101897752D01*
X88802381Y-101897752D02*
X88726190Y-101859657D01*
X88726190Y-101859657D02*
X88573809Y-101859657D01*
X88573809Y-101859657D02*
X88497619Y-101897752D01*
X88497619Y-101897752D02*
X88459524Y-101935847D01*
X88459524Y-101935847D02*
X88421428Y-102012038D01*
X84189524Y-99174895D02*
X84189524Y-98374895D01*
X84189524Y-98374895D02*
X84380000Y-98374895D01*
X84380000Y-98374895D02*
X84494286Y-98412990D01*
X84494286Y-98412990D02*
X84570476Y-98489180D01*
X84570476Y-98489180D02*
X84608571Y-98565371D01*
X84608571Y-98565371D02*
X84646667Y-98717752D01*
X84646667Y-98717752D02*
X84646667Y-98832038D01*
X84646667Y-98832038D02*
X84608571Y-98984419D01*
X84608571Y-98984419D02*
X84570476Y-99060609D01*
X84570476Y-99060609D02*
X84494286Y-99136800D01*
X84494286Y-99136800D02*
X84380000Y-99174895D01*
X84380000Y-99174895D02*
X84189524Y-99174895D01*
X84913333Y-98374895D02*
X85408571Y-98374895D01*
X85408571Y-98374895D02*
X85141905Y-98679657D01*
X85141905Y-98679657D02*
X85256190Y-98679657D01*
X85256190Y-98679657D02*
X85332381Y-98717752D01*
X85332381Y-98717752D02*
X85370476Y-98755847D01*
X85370476Y-98755847D02*
X85408571Y-98832038D01*
X85408571Y-98832038D02*
X85408571Y-99022514D01*
X85408571Y-99022514D02*
X85370476Y-99098704D01*
X85370476Y-99098704D02*
X85332381Y-99136800D01*
X85332381Y-99136800D02*
X85256190Y-99174895D01*
X85256190Y-99174895D02*
X85027619Y-99174895D01*
X85027619Y-99174895D02*
X84951428Y-99136800D01*
X84951428Y-99136800D02*
X84913333Y-99098704D01*
X100579894Y-94400475D02*
X99779894Y-94400475D01*
X99779894Y-94400475D02*
X99779894Y-94209999D01*
X99779894Y-94209999D02*
X99817989Y-94095713D01*
X99817989Y-94095713D02*
X99894179Y-94019523D01*
X99894179Y-94019523D02*
X99970370Y-93981428D01*
X99970370Y-93981428D02*
X100122751Y-93943332D01*
X100122751Y-93943332D02*
X100237037Y-93943332D01*
X100237037Y-93943332D02*
X100389418Y-93981428D01*
X100389418Y-93981428D02*
X100465608Y-94019523D01*
X100465608Y-94019523D02*
X100541799Y-94095713D01*
X100541799Y-94095713D02*
X100579894Y-94209999D01*
X100579894Y-94209999D02*
X100579894Y-94400475D01*
X100579894Y-93181428D02*
X100579894Y-93638571D01*
X100579894Y-93409999D02*
X99779894Y-93409999D01*
X99779894Y-93409999D02*
X99894179Y-93486190D01*
X99894179Y-93486190D02*
X99970370Y-93562380D01*
X99970370Y-93562380D02*
X100008465Y-93638571D01*
X87858704Y-96294285D02*
X87896800Y-96332381D01*
X87896800Y-96332381D02*
X87934895Y-96446666D01*
X87934895Y-96446666D02*
X87934895Y-96522857D01*
X87934895Y-96522857D02*
X87896800Y-96637143D01*
X87896800Y-96637143D02*
X87820609Y-96713333D01*
X87820609Y-96713333D02*
X87744419Y-96751428D01*
X87744419Y-96751428D02*
X87592038Y-96789524D01*
X87592038Y-96789524D02*
X87477752Y-96789524D01*
X87477752Y-96789524D02*
X87325371Y-96751428D01*
X87325371Y-96751428D02*
X87249180Y-96713333D01*
X87249180Y-96713333D02*
X87172990Y-96637143D01*
X87172990Y-96637143D02*
X87134895Y-96522857D01*
X87134895Y-96522857D02*
X87134895Y-96446666D01*
X87134895Y-96446666D02*
X87172990Y-96332381D01*
X87172990Y-96332381D02*
X87211085Y-96294285D01*
X87934895Y-95532381D02*
X87934895Y-95989524D01*
X87934895Y-95760952D02*
X87134895Y-95760952D01*
X87134895Y-95760952D02*
X87249180Y-95837143D01*
X87249180Y-95837143D02*
X87325371Y-95913333D01*
X87325371Y-95913333D02*
X87363466Y-95989524D01*
X87134895Y-94846666D02*
X87134895Y-94999047D01*
X87134895Y-94999047D02*
X87172990Y-95075238D01*
X87172990Y-95075238D02*
X87211085Y-95113333D01*
X87211085Y-95113333D02*
X87325371Y-95189523D01*
X87325371Y-95189523D02*
X87477752Y-95227619D01*
X87477752Y-95227619D02*
X87782514Y-95227619D01*
X87782514Y-95227619D02*
X87858704Y-95189523D01*
X87858704Y-95189523D02*
X87896800Y-95151428D01*
X87896800Y-95151428D02*
X87934895Y-95075238D01*
X87934895Y-95075238D02*
X87934895Y-94922857D01*
X87934895Y-94922857D02*
X87896800Y-94846666D01*
X87896800Y-94846666D02*
X87858704Y-94808571D01*
X87858704Y-94808571D02*
X87782514Y-94770476D01*
X87782514Y-94770476D02*
X87592038Y-94770476D01*
X87592038Y-94770476D02*
X87515847Y-94808571D01*
X87515847Y-94808571D02*
X87477752Y-94846666D01*
X87477752Y-94846666D02*
X87439657Y-94922857D01*
X87439657Y-94922857D02*
X87439657Y-95075238D01*
X87439657Y-95075238D02*
X87477752Y-95151428D01*
X87477752Y-95151428D02*
X87515847Y-95189523D01*
X87515847Y-95189523D02*
X87592038Y-95227619D01*
X88116667Y-146354895D02*
X87850000Y-145973942D01*
X87659524Y-146354895D02*
X87659524Y-145554895D01*
X87659524Y-145554895D02*
X87964286Y-145554895D01*
X87964286Y-145554895D02*
X88040476Y-145592990D01*
X88040476Y-145592990D02*
X88078571Y-145631085D01*
X88078571Y-145631085D02*
X88116667Y-145707276D01*
X88116667Y-145707276D02*
X88116667Y-145821561D01*
X88116667Y-145821561D02*
X88078571Y-145897752D01*
X88078571Y-145897752D02*
X88040476Y-145935847D01*
X88040476Y-145935847D02*
X87964286Y-145973942D01*
X87964286Y-145973942D02*
X87659524Y-145973942D01*
X88802381Y-145554895D02*
X88650000Y-145554895D01*
X88650000Y-145554895D02*
X88573809Y-145592990D01*
X88573809Y-145592990D02*
X88535714Y-145631085D01*
X88535714Y-145631085D02*
X88459524Y-145745371D01*
X88459524Y-145745371D02*
X88421428Y-145897752D01*
X88421428Y-145897752D02*
X88421428Y-146202514D01*
X88421428Y-146202514D02*
X88459524Y-146278704D01*
X88459524Y-146278704D02*
X88497619Y-146316800D01*
X88497619Y-146316800D02*
X88573809Y-146354895D01*
X88573809Y-146354895D02*
X88726190Y-146354895D01*
X88726190Y-146354895D02*
X88802381Y-146316800D01*
X88802381Y-146316800D02*
X88840476Y-146278704D01*
X88840476Y-146278704D02*
X88878571Y-146202514D01*
X88878571Y-146202514D02*
X88878571Y-146012038D01*
X88878571Y-146012038D02*
X88840476Y-145935847D01*
X88840476Y-145935847D02*
X88802381Y-145897752D01*
X88802381Y-145897752D02*
X88726190Y-145859657D01*
X88726190Y-145859657D02*
X88573809Y-145859657D01*
X88573809Y-145859657D02*
X88497619Y-145897752D01*
X88497619Y-145897752D02*
X88459524Y-145935847D01*
X88459524Y-145935847D02*
X88421428Y-146012038D01*
X89965714Y-146278704D02*
X89927618Y-146316800D01*
X89927618Y-146316800D02*
X89813333Y-146354895D01*
X89813333Y-146354895D02*
X89737142Y-146354895D01*
X89737142Y-146354895D02*
X89622856Y-146316800D01*
X89622856Y-146316800D02*
X89546666Y-146240609D01*
X89546666Y-146240609D02*
X89508571Y-146164419D01*
X89508571Y-146164419D02*
X89470475Y-146012038D01*
X89470475Y-146012038D02*
X89470475Y-145897752D01*
X89470475Y-145897752D02*
X89508571Y-145745371D01*
X89508571Y-145745371D02*
X89546666Y-145669180D01*
X89546666Y-145669180D02*
X89622856Y-145592990D01*
X89622856Y-145592990D02*
X89737142Y-145554895D01*
X89737142Y-145554895D02*
X89813333Y-145554895D01*
X89813333Y-145554895D02*
X89927618Y-145592990D01*
X89927618Y-145592990D02*
X89965714Y-145631085D01*
X90727618Y-146354895D02*
X90270475Y-146354895D01*
X90499047Y-146354895D02*
X90499047Y-145554895D01*
X90499047Y-145554895D02*
X90422856Y-145669180D01*
X90422856Y-145669180D02*
X90346666Y-145745371D01*
X90346666Y-145745371D02*
X90270475Y-145783466D01*
X91451428Y-145554895D02*
X91070476Y-145554895D01*
X91070476Y-145554895D02*
X91032380Y-145935847D01*
X91032380Y-145935847D02*
X91070476Y-145897752D01*
X91070476Y-145897752D02*
X91146666Y-145859657D01*
X91146666Y-145859657D02*
X91337142Y-145859657D01*
X91337142Y-145859657D02*
X91413333Y-145897752D01*
X91413333Y-145897752D02*
X91451428Y-145935847D01*
X91451428Y-145935847D02*
X91489523Y-146012038D01*
X91489523Y-146012038D02*
X91489523Y-146202514D01*
X91489523Y-146202514D02*
X91451428Y-146278704D01*
X91451428Y-146278704D02*
X91413333Y-146316800D01*
X91413333Y-146316800D02*
X91337142Y-146354895D01*
X91337142Y-146354895D02*
X91146666Y-146354895D01*
X91146666Y-146354895D02*
X91070476Y-146316800D01*
X91070476Y-146316800D02*
X91032380Y-146278704D01*
X84189524Y-143174895D02*
X84189524Y-142374895D01*
X84189524Y-142374895D02*
X84380000Y-142374895D01*
X84380000Y-142374895D02*
X84494286Y-142412990D01*
X84494286Y-142412990D02*
X84570476Y-142489180D01*
X84570476Y-142489180D02*
X84608571Y-142565371D01*
X84608571Y-142565371D02*
X84646667Y-142717752D01*
X84646667Y-142717752D02*
X84646667Y-142832038D01*
X84646667Y-142832038D02*
X84608571Y-142984419D01*
X84608571Y-142984419D02*
X84570476Y-143060609D01*
X84570476Y-143060609D02*
X84494286Y-143136800D01*
X84494286Y-143136800D02*
X84380000Y-143174895D01*
X84380000Y-143174895D02*
X84189524Y-143174895D01*
X84913333Y-142374895D02*
X85408571Y-142374895D01*
X85408571Y-142374895D02*
X85141905Y-142679657D01*
X85141905Y-142679657D02*
X85256190Y-142679657D01*
X85256190Y-142679657D02*
X85332381Y-142717752D01*
X85332381Y-142717752D02*
X85370476Y-142755847D01*
X85370476Y-142755847D02*
X85408571Y-142832038D01*
X85408571Y-142832038D02*
X85408571Y-143022514D01*
X85408571Y-143022514D02*
X85370476Y-143098704D01*
X85370476Y-143098704D02*
X85332381Y-143136800D01*
X85332381Y-143136800D02*
X85256190Y-143174895D01*
X85256190Y-143174895D02*
X85027619Y-143174895D01*
X85027619Y-143174895D02*
X84951428Y-143136800D01*
X84951428Y-143136800D02*
X84913333Y-143098704D01*
X100564895Y-143643332D02*
X100183942Y-143909999D01*
X100564895Y-144100475D02*
X99764895Y-144100475D01*
X99764895Y-144100475D02*
X99764895Y-143795713D01*
X99764895Y-143795713D02*
X99802990Y-143719523D01*
X99802990Y-143719523D02*
X99841085Y-143681428D01*
X99841085Y-143681428D02*
X99917276Y-143643332D01*
X99917276Y-143643332D02*
X100031561Y-143643332D01*
X100031561Y-143643332D02*
X100107752Y-143681428D01*
X100107752Y-143681428D02*
X100145847Y-143719523D01*
X100145847Y-143719523D02*
X100183942Y-143795713D01*
X100183942Y-143795713D02*
X100183942Y-144100475D01*
X99841085Y-143338571D02*
X99802990Y-143300475D01*
X99802990Y-143300475D02*
X99764895Y-143224285D01*
X99764895Y-143224285D02*
X99764895Y-143033809D01*
X99764895Y-143033809D02*
X99802990Y-142957618D01*
X99802990Y-142957618D02*
X99841085Y-142919523D01*
X99841085Y-142919523D02*
X99917276Y-142881428D01*
X99917276Y-142881428D02*
X99993466Y-142881428D01*
X99993466Y-142881428D02*
X100107752Y-142919523D01*
X100107752Y-142919523D02*
X100564895Y-143376666D01*
X100564895Y-143376666D02*
X100564895Y-142881428D01*
X87858704Y-140294285D02*
X87896800Y-140332381D01*
X87896800Y-140332381D02*
X87934895Y-140446666D01*
X87934895Y-140446666D02*
X87934895Y-140522857D01*
X87934895Y-140522857D02*
X87896800Y-140637143D01*
X87896800Y-140637143D02*
X87820609Y-140713333D01*
X87820609Y-140713333D02*
X87744419Y-140751428D01*
X87744419Y-140751428D02*
X87592038Y-140789524D01*
X87592038Y-140789524D02*
X87477752Y-140789524D01*
X87477752Y-140789524D02*
X87325371Y-140751428D01*
X87325371Y-140751428D02*
X87249180Y-140713333D01*
X87249180Y-140713333D02*
X87172990Y-140637143D01*
X87172990Y-140637143D02*
X87134895Y-140522857D01*
X87134895Y-140522857D02*
X87134895Y-140446666D01*
X87134895Y-140446666D02*
X87172990Y-140332381D01*
X87172990Y-140332381D02*
X87211085Y-140294285D01*
X87934895Y-139532381D02*
X87934895Y-139989524D01*
X87934895Y-139760952D02*
X87134895Y-139760952D01*
X87134895Y-139760952D02*
X87249180Y-139837143D01*
X87249180Y-139837143D02*
X87325371Y-139913333D01*
X87325371Y-139913333D02*
X87363466Y-139989524D01*
X87134895Y-138846666D02*
X87134895Y-138999047D01*
X87134895Y-138999047D02*
X87172990Y-139075238D01*
X87172990Y-139075238D02*
X87211085Y-139113333D01*
X87211085Y-139113333D02*
X87325371Y-139189523D01*
X87325371Y-139189523D02*
X87477752Y-139227619D01*
X87477752Y-139227619D02*
X87782514Y-139227619D01*
X87782514Y-139227619D02*
X87858704Y-139189523D01*
X87858704Y-139189523D02*
X87896800Y-139151428D01*
X87896800Y-139151428D02*
X87934895Y-139075238D01*
X87934895Y-139075238D02*
X87934895Y-138922857D01*
X87934895Y-138922857D02*
X87896800Y-138846666D01*
X87896800Y-138846666D02*
X87858704Y-138808571D01*
X87858704Y-138808571D02*
X87782514Y-138770476D01*
X87782514Y-138770476D02*
X87592038Y-138770476D01*
X87592038Y-138770476D02*
X87515847Y-138808571D01*
X87515847Y-138808571D02*
X87477752Y-138846666D01*
X87477752Y-138846666D02*
X87439657Y-138922857D01*
X87439657Y-138922857D02*
X87439657Y-139075238D01*
X87439657Y-139075238D02*
X87477752Y-139151428D01*
X87477752Y-139151428D02*
X87515847Y-139189523D01*
X87515847Y-139189523D02*
X87592038Y-139227619D01*
X100579894Y-138400475D02*
X99779894Y-138400475D01*
X99779894Y-138400475D02*
X99779894Y-138209999D01*
X99779894Y-138209999D02*
X99817989Y-138095713D01*
X99817989Y-138095713D02*
X99894179Y-138019523D01*
X99894179Y-138019523D02*
X99970370Y-137981428D01*
X99970370Y-137981428D02*
X100122751Y-137943332D01*
X100122751Y-137943332D02*
X100237037Y-137943332D01*
X100237037Y-137943332D02*
X100389418Y-137981428D01*
X100389418Y-137981428D02*
X100465608Y-138019523D01*
X100465608Y-138019523D02*
X100541799Y-138095713D01*
X100541799Y-138095713D02*
X100579894Y-138209999D01*
X100579894Y-138209999D02*
X100579894Y-138400475D01*
X100579894Y-137181428D02*
X100579894Y-137638571D01*
X100579894Y-137409999D02*
X99779894Y-137409999D01*
X99779894Y-137409999D02*
X99894179Y-137486190D01*
X99894179Y-137486190D02*
X99970370Y-137562380D01*
X99970370Y-137562380D02*
X100008465Y-137638571D01*
X89965714Y-124278704D02*
X89927618Y-124316800D01*
X89927618Y-124316800D02*
X89813333Y-124354895D01*
X89813333Y-124354895D02*
X89737142Y-124354895D01*
X89737142Y-124354895D02*
X89622856Y-124316800D01*
X89622856Y-124316800D02*
X89546666Y-124240609D01*
X89546666Y-124240609D02*
X89508571Y-124164419D01*
X89508571Y-124164419D02*
X89470475Y-124012038D01*
X89470475Y-124012038D02*
X89470475Y-123897752D01*
X89470475Y-123897752D02*
X89508571Y-123745371D01*
X89508571Y-123745371D02*
X89546666Y-123669180D01*
X89546666Y-123669180D02*
X89622856Y-123592990D01*
X89622856Y-123592990D02*
X89737142Y-123554895D01*
X89737142Y-123554895D02*
X89813333Y-123554895D01*
X89813333Y-123554895D02*
X89927618Y-123592990D01*
X89927618Y-123592990D02*
X89965714Y-123631085D01*
X90727618Y-124354895D02*
X90270475Y-124354895D01*
X90499047Y-124354895D02*
X90499047Y-123554895D01*
X90499047Y-123554895D02*
X90422856Y-123669180D01*
X90422856Y-123669180D02*
X90346666Y-123745371D01*
X90346666Y-123745371D02*
X90270475Y-123783466D01*
X91451428Y-123554895D02*
X91070476Y-123554895D01*
X91070476Y-123554895D02*
X91032380Y-123935847D01*
X91032380Y-123935847D02*
X91070476Y-123897752D01*
X91070476Y-123897752D02*
X91146666Y-123859657D01*
X91146666Y-123859657D02*
X91337142Y-123859657D01*
X91337142Y-123859657D02*
X91413333Y-123897752D01*
X91413333Y-123897752D02*
X91451428Y-123935847D01*
X91451428Y-123935847D02*
X91489523Y-124012038D01*
X91489523Y-124012038D02*
X91489523Y-124202514D01*
X91489523Y-124202514D02*
X91451428Y-124278704D01*
X91451428Y-124278704D02*
X91413333Y-124316800D01*
X91413333Y-124316800D02*
X91337142Y-124354895D01*
X91337142Y-124354895D02*
X91146666Y-124354895D01*
X91146666Y-124354895D02*
X91070476Y-124316800D01*
X91070476Y-124316800D02*
X91032380Y-124278704D01*
X71946667Y-124364895D02*
X71680000Y-123983942D01*
X71489524Y-124364895D02*
X71489524Y-123564895D01*
X71489524Y-123564895D02*
X71794286Y-123564895D01*
X71794286Y-123564895D02*
X71870476Y-123602990D01*
X71870476Y-123602990D02*
X71908571Y-123641085D01*
X71908571Y-123641085D02*
X71946667Y-123717276D01*
X71946667Y-123717276D02*
X71946667Y-123831561D01*
X71946667Y-123831561D02*
X71908571Y-123907752D01*
X71908571Y-123907752D02*
X71870476Y-123945847D01*
X71870476Y-123945847D02*
X71794286Y-123983942D01*
X71794286Y-123983942D02*
X71489524Y-123983942D01*
X72632381Y-123831561D02*
X72632381Y-124364895D01*
X72441905Y-123526800D02*
X72251428Y-124098228D01*
X72251428Y-124098228D02*
X72746667Y-124098228D01*
D12*
X94495180Y-117898095D02*
X93685657Y-117898095D01*
X93685657Y-117898095D02*
X93590419Y-117945714D01*
X93590419Y-117945714D02*
X93542800Y-117993333D01*
X93542800Y-117993333D02*
X93495180Y-118088571D01*
X93495180Y-118088571D02*
X93495180Y-118279047D01*
X93495180Y-118279047D02*
X93542800Y-118374285D01*
X93542800Y-118374285D02*
X93590419Y-118421904D01*
X93590419Y-118421904D02*
X93685657Y-118469523D01*
X93685657Y-118469523D02*
X94495180Y-118469523D01*
X94399942Y-118898095D02*
X94447561Y-118945714D01*
X94447561Y-118945714D02*
X94495180Y-119040952D01*
X94495180Y-119040952D02*
X94495180Y-119279047D01*
X94495180Y-119279047D02*
X94447561Y-119374285D01*
X94447561Y-119374285D02*
X94399942Y-119421904D01*
X94399942Y-119421904D02*
X94304704Y-119469523D01*
X94304704Y-119469523D02*
X94209466Y-119469523D01*
X94209466Y-119469523D02*
X94066609Y-119421904D01*
X94066609Y-119421904D02*
X93495180Y-118850476D01*
X93495180Y-118850476D02*
X93495180Y-119469523D01*
D11*
X84189524Y-121174895D02*
X84189524Y-120374895D01*
X84189524Y-120374895D02*
X84380000Y-120374895D01*
X84380000Y-120374895D02*
X84494286Y-120412990D01*
X84494286Y-120412990D02*
X84570476Y-120489180D01*
X84570476Y-120489180D02*
X84608571Y-120565371D01*
X84608571Y-120565371D02*
X84646667Y-120717752D01*
X84646667Y-120717752D02*
X84646667Y-120832038D01*
X84646667Y-120832038D02*
X84608571Y-120984419D01*
X84608571Y-120984419D02*
X84570476Y-121060609D01*
X84570476Y-121060609D02*
X84494286Y-121136800D01*
X84494286Y-121136800D02*
X84380000Y-121174895D01*
X84380000Y-121174895D02*
X84189524Y-121174895D01*
X84913333Y-120374895D02*
X85408571Y-120374895D01*
X85408571Y-120374895D02*
X85141905Y-120679657D01*
X85141905Y-120679657D02*
X85256190Y-120679657D01*
X85256190Y-120679657D02*
X85332381Y-120717752D01*
X85332381Y-120717752D02*
X85370476Y-120755847D01*
X85370476Y-120755847D02*
X85408571Y-120832038D01*
X85408571Y-120832038D02*
X85408571Y-121022514D01*
X85408571Y-121022514D02*
X85370476Y-121098704D01*
X85370476Y-121098704D02*
X85332381Y-121136800D01*
X85332381Y-121136800D02*
X85256190Y-121174895D01*
X85256190Y-121174895D02*
X85027619Y-121174895D01*
X85027619Y-121174895D02*
X84951428Y-121136800D01*
X84951428Y-121136800D02*
X84913333Y-121098704D01*
X100564895Y-121643332D02*
X100183942Y-121909999D01*
X100564895Y-122100475D02*
X99764895Y-122100475D01*
X99764895Y-122100475D02*
X99764895Y-121795713D01*
X99764895Y-121795713D02*
X99802990Y-121719523D01*
X99802990Y-121719523D02*
X99841085Y-121681428D01*
X99841085Y-121681428D02*
X99917276Y-121643332D01*
X99917276Y-121643332D02*
X100031561Y-121643332D01*
X100031561Y-121643332D02*
X100107752Y-121681428D01*
X100107752Y-121681428D02*
X100145847Y-121719523D01*
X100145847Y-121719523D02*
X100183942Y-121795713D01*
X100183942Y-121795713D02*
X100183942Y-122100475D01*
X99841085Y-121338571D02*
X99802990Y-121300475D01*
X99802990Y-121300475D02*
X99764895Y-121224285D01*
X99764895Y-121224285D02*
X99764895Y-121033809D01*
X99764895Y-121033809D02*
X99802990Y-120957618D01*
X99802990Y-120957618D02*
X99841085Y-120919523D01*
X99841085Y-120919523D02*
X99917276Y-120881428D01*
X99917276Y-120881428D02*
X99993466Y-120881428D01*
X99993466Y-120881428D02*
X100107752Y-120919523D01*
X100107752Y-120919523D02*
X100564895Y-121376666D01*
X100564895Y-121376666D02*
X100564895Y-120881428D01*
X74929524Y-121154895D02*
X74929524Y-120354895D01*
X74929524Y-120354895D02*
X75120000Y-120354895D01*
X75120000Y-120354895D02*
X75234286Y-120392990D01*
X75234286Y-120392990D02*
X75310476Y-120469180D01*
X75310476Y-120469180D02*
X75348571Y-120545371D01*
X75348571Y-120545371D02*
X75386667Y-120697752D01*
X75386667Y-120697752D02*
X75386667Y-120812038D01*
X75386667Y-120812038D02*
X75348571Y-120964419D01*
X75348571Y-120964419D02*
X75310476Y-121040609D01*
X75310476Y-121040609D02*
X75234286Y-121116800D01*
X75234286Y-121116800D02*
X75120000Y-121154895D01*
X75120000Y-121154895D02*
X74929524Y-121154895D01*
X75691428Y-120431085D02*
X75729524Y-120392990D01*
X75729524Y-120392990D02*
X75805714Y-120354895D01*
X75805714Y-120354895D02*
X75996190Y-120354895D01*
X75996190Y-120354895D02*
X76072381Y-120392990D01*
X76072381Y-120392990D02*
X76110476Y-120431085D01*
X76110476Y-120431085D02*
X76148571Y-120507276D01*
X76148571Y-120507276D02*
X76148571Y-120583466D01*
X76148571Y-120583466D02*
X76110476Y-120697752D01*
X76110476Y-120697752D02*
X75653333Y-121154895D01*
X75653333Y-121154895D02*
X76148571Y-121154895D01*
X100579894Y-116400475D02*
X99779894Y-116400475D01*
X99779894Y-116400475D02*
X99779894Y-116209999D01*
X99779894Y-116209999D02*
X99817989Y-116095713D01*
X99817989Y-116095713D02*
X99894179Y-116019523D01*
X99894179Y-116019523D02*
X99970370Y-115981428D01*
X99970370Y-115981428D02*
X100122751Y-115943332D01*
X100122751Y-115943332D02*
X100237037Y-115943332D01*
X100237037Y-115943332D02*
X100389418Y-115981428D01*
X100389418Y-115981428D02*
X100465608Y-116019523D01*
X100465608Y-116019523D02*
X100541799Y-116095713D01*
X100541799Y-116095713D02*
X100579894Y-116209999D01*
X100579894Y-116209999D02*
X100579894Y-116400475D01*
X100579894Y-115181428D02*
X100579894Y-115638571D01*
X100579894Y-115409999D02*
X99779894Y-115409999D01*
X99779894Y-115409999D02*
X99894179Y-115486190D01*
X99894179Y-115486190D02*
X99970370Y-115562380D01*
X99970370Y-115562380D02*
X100008465Y-115638571D01*
X74929524Y-143154895D02*
X74929524Y-142354895D01*
X74929524Y-142354895D02*
X75120000Y-142354895D01*
X75120000Y-142354895D02*
X75234286Y-142392990D01*
X75234286Y-142392990D02*
X75310476Y-142469180D01*
X75310476Y-142469180D02*
X75348571Y-142545371D01*
X75348571Y-142545371D02*
X75386667Y-142697752D01*
X75386667Y-142697752D02*
X75386667Y-142812038D01*
X75386667Y-142812038D02*
X75348571Y-142964419D01*
X75348571Y-142964419D02*
X75310476Y-143040609D01*
X75310476Y-143040609D02*
X75234286Y-143116800D01*
X75234286Y-143116800D02*
X75120000Y-143154895D01*
X75120000Y-143154895D02*
X74929524Y-143154895D01*
X75691428Y-142431085D02*
X75729524Y-142392990D01*
X75729524Y-142392990D02*
X75805714Y-142354895D01*
X75805714Y-142354895D02*
X75996190Y-142354895D01*
X75996190Y-142354895D02*
X76072381Y-142392990D01*
X76072381Y-142392990D02*
X76110476Y-142431085D01*
X76110476Y-142431085D02*
X76148571Y-142507276D01*
X76148571Y-142507276D02*
X76148571Y-142583466D01*
X76148571Y-142583466D02*
X76110476Y-142697752D01*
X76110476Y-142697752D02*
X75653333Y-143154895D01*
X75653333Y-143154895D02*
X76148571Y-143154895D01*
X88116667Y-124354895D02*
X87850000Y-123973942D01*
X87659524Y-124354895D02*
X87659524Y-123554895D01*
X87659524Y-123554895D02*
X87964286Y-123554895D01*
X87964286Y-123554895D02*
X88040476Y-123592990D01*
X88040476Y-123592990D02*
X88078571Y-123631085D01*
X88078571Y-123631085D02*
X88116667Y-123707276D01*
X88116667Y-123707276D02*
X88116667Y-123821561D01*
X88116667Y-123821561D02*
X88078571Y-123897752D01*
X88078571Y-123897752D02*
X88040476Y-123935847D01*
X88040476Y-123935847D02*
X87964286Y-123973942D01*
X87964286Y-123973942D02*
X87659524Y-123973942D01*
X88802381Y-123554895D02*
X88650000Y-123554895D01*
X88650000Y-123554895D02*
X88573809Y-123592990D01*
X88573809Y-123592990D02*
X88535714Y-123631085D01*
X88535714Y-123631085D02*
X88459524Y-123745371D01*
X88459524Y-123745371D02*
X88421428Y-123897752D01*
X88421428Y-123897752D02*
X88421428Y-124202514D01*
X88421428Y-124202514D02*
X88459524Y-124278704D01*
X88459524Y-124278704D02*
X88497619Y-124316800D01*
X88497619Y-124316800D02*
X88573809Y-124354895D01*
X88573809Y-124354895D02*
X88726190Y-124354895D01*
X88726190Y-124354895D02*
X88802381Y-124316800D01*
X88802381Y-124316800D02*
X88840476Y-124278704D01*
X88840476Y-124278704D02*
X88878571Y-124202514D01*
X88878571Y-124202514D02*
X88878571Y-124012038D01*
X88878571Y-124012038D02*
X88840476Y-123935847D01*
X88840476Y-123935847D02*
X88802381Y-123897752D01*
X88802381Y-123897752D02*
X88726190Y-123859657D01*
X88726190Y-123859657D02*
X88573809Y-123859657D01*
X88573809Y-123859657D02*
X88497619Y-123897752D01*
X88497619Y-123897752D02*
X88459524Y-123935847D01*
X88459524Y-123935847D02*
X88421428Y-124012038D01*
X71946667Y-146364895D02*
X71680000Y-145983942D01*
X71489524Y-146364895D02*
X71489524Y-145564895D01*
X71489524Y-145564895D02*
X71794286Y-145564895D01*
X71794286Y-145564895D02*
X71870476Y-145602990D01*
X71870476Y-145602990D02*
X71908571Y-145641085D01*
X71908571Y-145641085D02*
X71946667Y-145717276D01*
X71946667Y-145717276D02*
X71946667Y-145831561D01*
X71946667Y-145831561D02*
X71908571Y-145907752D01*
X71908571Y-145907752D02*
X71870476Y-145945847D01*
X71870476Y-145945847D02*
X71794286Y-145983942D01*
X71794286Y-145983942D02*
X71489524Y-145983942D01*
X72632381Y-145831561D02*
X72632381Y-146364895D01*
X72441905Y-145526800D02*
X72251428Y-146098228D01*
X72251428Y-146098228D02*
X72746667Y-146098228D01*
D12*
X79418096Y-149169819D02*
X79418096Y-149979342D01*
X79418096Y-149979342D02*
X79465715Y-150074580D01*
X79465715Y-150074580D02*
X79513334Y-150122200D01*
X79513334Y-150122200D02*
X79608572Y-150169819D01*
X79608572Y-150169819D02*
X79799048Y-150169819D01*
X79799048Y-150169819D02*
X79894286Y-150122200D01*
X79894286Y-150122200D02*
X79941905Y-150074580D01*
X79941905Y-150074580D02*
X79989524Y-149979342D01*
X79989524Y-149979342D02*
X79989524Y-149169819D01*
X80989524Y-150169819D02*
X80418096Y-150169819D01*
X80703810Y-150169819D02*
X80703810Y-149169819D01*
X80703810Y-149169819D02*
X80608572Y-149312676D01*
X80608572Y-149312676D02*
X80513334Y-149407914D01*
X80513334Y-149407914D02*
X80418096Y-149455533D01*
X77650001Y-146479819D02*
X77650001Y-146717914D01*
X77411906Y-146622676D02*
X77650001Y-146717914D01*
X77650001Y-146717914D02*
X77888096Y-146622676D01*
X77507144Y-146908390D02*
X77650001Y-146717914D01*
X77650001Y-146717914D02*
X77792858Y-146908390D01*
X77160001Y-146919819D02*
X77160001Y-147157914D01*
X76921906Y-147062676D02*
X77160001Y-147157914D01*
X77160001Y-147157914D02*
X77398096Y-147062676D01*
X77017144Y-147348390D02*
X77160001Y-147157914D01*
X77160001Y-147157914D02*
X77302858Y-147348390D01*
X94495180Y-139898095D02*
X93685657Y-139898095D01*
X93685657Y-139898095D02*
X93590419Y-139945714D01*
X93590419Y-139945714D02*
X93542800Y-139993333D01*
X93542800Y-139993333D02*
X93495180Y-140088571D01*
X93495180Y-140088571D02*
X93495180Y-140279047D01*
X93495180Y-140279047D02*
X93542800Y-140374285D01*
X93542800Y-140374285D02*
X93590419Y-140421904D01*
X93590419Y-140421904D02*
X93685657Y-140469523D01*
X93685657Y-140469523D02*
X94495180Y-140469523D01*
X94399942Y-140898095D02*
X94447561Y-140945714D01*
X94447561Y-140945714D02*
X94495180Y-141040952D01*
X94495180Y-141040952D02*
X94495180Y-141279047D01*
X94495180Y-141279047D02*
X94447561Y-141374285D01*
X94447561Y-141374285D02*
X94399942Y-141421904D01*
X94399942Y-141421904D02*
X94304704Y-141469523D01*
X94304704Y-141469523D02*
X94209466Y-141469523D01*
X94209466Y-141469523D02*
X94066609Y-141421904D01*
X94066609Y-141421904D02*
X93495180Y-140850476D01*
X93495180Y-140850476D02*
X93495180Y-141469523D01*
D11*
X87858704Y-118294285D02*
X87896800Y-118332381D01*
X87896800Y-118332381D02*
X87934895Y-118446666D01*
X87934895Y-118446666D02*
X87934895Y-118522857D01*
X87934895Y-118522857D02*
X87896800Y-118637143D01*
X87896800Y-118637143D02*
X87820609Y-118713333D01*
X87820609Y-118713333D02*
X87744419Y-118751428D01*
X87744419Y-118751428D02*
X87592038Y-118789524D01*
X87592038Y-118789524D02*
X87477752Y-118789524D01*
X87477752Y-118789524D02*
X87325371Y-118751428D01*
X87325371Y-118751428D02*
X87249180Y-118713333D01*
X87249180Y-118713333D02*
X87172990Y-118637143D01*
X87172990Y-118637143D02*
X87134895Y-118522857D01*
X87134895Y-118522857D02*
X87134895Y-118446666D01*
X87134895Y-118446666D02*
X87172990Y-118332381D01*
X87172990Y-118332381D02*
X87211085Y-118294285D01*
X87934895Y-117532381D02*
X87934895Y-117989524D01*
X87934895Y-117760952D02*
X87134895Y-117760952D01*
X87134895Y-117760952D02*
X87249180Y-117837143D01*
X87249180Y-117837143D02*
X87325371Y-117913333D01*
X87325371Y-117913333D02*
X87363466Y-117989524D01*
X87134895Y-116846666D02*
X87134895Y-116999047D01*
X87134895Y-116999047D02*
X87172990Y-117075238D01*
X87172990Y-117075238D02*
X87211085Y-117113333D01*
X87211085Y-117113333D02*
X87325371Y-117189523D01*
X87325371Y-117189523D02*
X87477752Y-117227619D01*
X87477752Y-117227619D02*
X87782514Y-117227619D01*
X87782514Y-117227619D02*
X87858704Y-117189523D01*
X87858704Y-117189523D02*
X87896800Y-117151428D01*
X87896800Y-117151428D02*
X87934895Y-117075238D01*
X87934895Y-117075238D02*
X87934895Y-116922857D01*
X87934895Y-116922857D02*
X87896800Y-116846666D01*
X87896800Y-116846666D02*
X87858704Y-116808571D01*
X87858704Y-116808571D02*
X87782514Y-116770476D01*
X87782514Y-116770476D02*
X87592038Y-116770476D01*
X87592038Y-116770476D02*
X87515847Y-116808571D01*
X87515847Y-116808571D02*
X87477752Y-116846666D01*
X87477752Y-116846666D02*
X87439657Y-116922857D01*
X87439657Y-116922857D02*
X87439657Y-117075238D01*
X87439657Y-117075238D02*
X87477752Y-117151428D01*
X87477752Y-117151428D02*
X87515847Y-117189523D01*
X87515847Y-117189523D02*
X87592038Y-117227619D01*
D12*
X79418096Y-127169819D02*
X79418096Y-127979342D01*
X79418096Y-127979342D02*
X79465715Y-128074580D01*
X79465715Y-128074580D02*
X79513334Y-128122200D01*
X79513334Y-128122200D02*
X79608572Y-128169819D01*
X79608572Y-128169819D02*
X79799048Y-128169819D01*
X79799048Y-128169819D02*
X79894286Y-128122200D01*
X79894286Y-128122200D02*
X79941905Y-128074580D01*
X79941905Y-128074580D02*
X79989524Y-127979342D01*
X79989524Y-127979342D02*
X79989524Y-127169819D01*
X80989524Y-128169819D02*
X80418096Y-128169819D01*
X80703810Y-128169819D02*
X80703810Y-127169819D01*
X80703810Y-127169819D02*
X80608572Y-127312676D01*
X80608572Y-127312676D02*
X80513334Y-127407914D01*
X80513334Y-127407914D02*
X80418096Y-127455533D01*
X77650001Y-124479819D02*
X77650001Y-124717914D01*
X77411906Y-124622676D02*
X77650001Y-124717914D01*
X77650001Y-124717914D02*
X77888096Y-124622676D01*
X77507144Y-124908390D02*
X77650001Y-124717914D01*
X77650001Y-124717914D02*
X77792858Y-124908390D01*
X77160001Y-124919819D02*
X77160001Y-125157914D01*
X76921906Y-125062676D02*
X77160001Y-125157914D01*
X77160001Y-125157914D02*
X77398096Y-125062676D01*
X77017144Y-125348390D02*
X77160001Y-125157914D01*
X77160001Y-125157914D02*
X77302858Y-125348390D01*
D13*
%TO.C,U2*%
X91968800Y-93180200D02*
X91968800Y-93592760D01*
X91968800Y-95147240D02*
X91968800Y-95882760D01*
X91968800Y-97437240D02*
X91968800Y-98172760D01*
X91968800Y-99727241D02*
X91968800Y-100139800D01*
X91968800Y-100139800D02*
X95931200Y-100139800D01*
X95931200Y-93180200D02*
X91968800Y-93180200D01*
X95931200Y-94727060D02*
X95931200Y-93180200D01*
X95931200Y-100139800D02*
X95931200Y-98592940D01*
X93237000Y-93850000D02*
G75*
G02*
X92983000Y-93850000I-127000J0D01*
G01*
X92983000Y-93850000D02*
G75*
G02*
X93237000Y-93850000I127000J0D01*
G01*
D14*
%TO.C,R4*%
X74225275Y-101122500D02*
X74734723Y-101122500D01*
X74225275Y-102167500D02*
X74734723Y-102167500D01*
%TO.C,D2*%
X72864999Y-99295000D02*
X72864999Y-100765000D01*
X72864999Y-100765000D02*
X75324999Y-100765000D01*
X75324999Y-99295000D02*
X72864999Y-99295000D01*
%TO.C,R2*%
X97712776Y-98967500D02*
X98222224Y-98967500D01*
X97712776Y-100012500D02*
X98222224Y-100012500D01*
%TO.C,C15*%
X89993766Y-100180000D02*
X89701232Y-100180000D01*
X89993766Y-101200000D02*
X89701232Y-101200000D01*
%TO.C,J1*%
X58925000Y-110490000D02*
X58925000Y-111740000D01*
X58925000Y-111740000D02*
X60175000Y-111740000D01*
X59215000Y-93830000D02*
X59215000Y-111450000D01*
X59215000Y-111450000D02*
X65185000Y-111450000D01*
X59224999Y-93840000D02*
X59225000Y-95640000D01*
X59224999Y-108140000D02*
X59975000Y-108139999D01*
X59224999Y-109640000D02*
X59225000Y-111440000D01*
X59225000Y-95640000D02*
X59975000Y-95640000D01*
X59225000Y-97140000D02*
X59224999Y-108140000D01*
X59225000Y-111440000D02*
X59975000Y-111440000D01*
X59975000Y-93839999D02*
X59224999Y-93840000D01*
X59975000Y-95640000D02*
X59975000Y-93839999D01*
X59975000Y-97140000D02*
X59225000Y-97140000D01*
X59975000Y-108139999D02*
X59975000Y-97140000D01*
X59975000Y-109640001D02*
X59224999Y-109640000D01*
X59975000Y-111440000D02*
X59975000Y-109640001D01*
X61475000Y-110690000D02*
X64425000Y-110690000D01*
X61475000Y-111440000D02*
X61475000Y-110690000D01*
X61475001Y-93840000D02*
X61475001Y-94590000D01*
X61475001Y-94590000D02*
X64425000Y-94590000D01*
X64425000Y-94590000D02*
X64425000Y-102640000D01*
X64425000Y-110690000D02*
X64425000Y-102640000D01*
X65185000Y-93830000D02*
X59215000Y-93830000D01*
X65185000Y-111450000D02*
X65185000Y-93830000D01*
D13*
%TO.C,U1*%
X76458901Y-101993900D02*
X76458901Y-102492560D01*
X76458901Y-108937440D02*
X76458901Y-109436100D01*
X76458901Y-109436100D02*
X76957561Y-109436100D01*
X76957561Y-101993900D02*
X76458901Y-101993900D01*
X83402441Y-109436100D02*
X83901101Y-109436100D01*
X83901101Y-101993900D02*
X83402441Y-101993900D01*
X83901101Y-102492560D02*
X83901101Y-101993900D01*
X83901101Y-109436100D02*
X83901101Y-108937440D01*
D15*
G36*
X74978602Y-107655499D02*
G01*
X74724602Y-107655499D01*
X74724602Y-107274499D01*
X74978602Y-107274499D01*
X74978602Y-107655499D01*
G37*
G36*
X81120502Y-111170399D02*
G01*
X80739502Y-111170399D01*
X80739502Y-110916399D01*
X81120502Y-110916399D01*
X81120502Y-111170399D01*
G37*
G36*
X81620501Y-100513601D02*
G01*
X81239501Y-100513601D01*
X81239501Y-100259601D01*
X81620501Y-100259601D01*
X81620501Y-100513601D01*
G37*
G36*
X85635400Y-106155500D02*
G01*
X85381400Y-106155500D01*
X85381400Y-105774499D01*
X85635400Y-105774499D01*
X85635400Y-106155500D01*
G37*
D14*
%TO.C,J2*%
X96450000Y-101110000D02*
X94750000Y-101110000D01*
X96450000Y-110450000D02*
X94750000Y-110450000D01*
%TO.C,R6*%
X86119724Y-101137500D02*
X85610276Y-101137500D01*
X86119724Y-102182500D02*
X85610276Y-102182500D01*
%TO.C,J3*%
X75330001Y-93720000D02*
X76660001Y-93720000D01*
X75330001Y-95050000D02*
X75330001Y-93720000D01*
X77930002Y-93720000D02*
X85610001Y-93720000D01*
X77930002Y-96380000D02*
X77930002Y-93720000D01*
X77930002Y-96380000D02*
X85610001Y-96380000D01*
X85610001Y-96380000D02*
X85610001Y-93720000D01*
%TO.C,D3*%
X85020000Y-100765000D02*
X87480000Y-100765000D01*
X87480000Y-99295000D02*
X85020000Y-99295000D01*
X87480000Y-100765000D02*
X87480000Y-99295000D01*
%TO.C,Y1*%
X66005000Y-96120000D02*
X66005000Y-102520000D01*
X71055000Y-96120000D02*
X71055000Y-102520000D01*
X71055000Y-102520000D02*
G75*
G02*
X66005000Y-102520000I-2525000J0D01*
G01*
X66005000Y-96120000D02*
G75*
G02*
X71055000Y-96120000I2525000J0D01*
G01*
%TO.C,D1*%
X96330000Y-93085000D02*
X96330000Y-94555000D01*
X96330000Y-94555000D02*
X98790000Y-94555000D01*
X98790000Y-93085000D02*
X96330000Y-93085000D01*
%TO.C,C16*%
X88300000Y-95926267D02*
X88300000Y-95633733D01*
X89320000Y-95926267D02*
X89320000Y-95633733D01*
%TO.C,Y1*%
X66005000Y-140120000D02*
X66005000Y-146520000D01*
X71055000Y-140120000D02*
X71055000Y-146520000D01*
X66005000Y-140120000D02*
G75*
G02*
X71055000Y-140120000I2525000J0D01*
G01*
X71055000Y-146520000D02*
G75*
G02*
X66005000Y-146520000I-2525000J0D01*
G01*
%TO.C,R6*%
X86119724Y-145137500D02*
X85610276Y-145137500D01*
X86119724Y-146182500D02*
X85610276Y-146182500D01*
%TO.C,J2*%
X96450000Y-145110000D02*
X94750000Y-145110000D01*
X96450000Y-154450000D02*
X94750000Y-154450000D01*
%TO.C,C15*%
X89993766Y-144180000D02*
X89701232Y-144180000D01*
X89993766Y-145200000D02*
X89701232Y-145200000D01*
%TO.C,D3*%
X85020000Y-144765000D02*
X87480000Y-144765000D01*
X87480000Y-143295000D02*
X85020000Y-143295000D01*
X87480000Y-144765000D02*
X87480000Y-143295000D01*
%TO.C,R2*%
X97712776Y-142967500D02*
X98222224Y-142967500D01*
X97712776Y-144012500D02*
X98222224Y-144012500D01*
%TO.C,C16*%
X88300000Y-139926267D02*
X88300000Y-139633733D01*
X89320000Y-139926267D02*
X89320000Y-139633733D01*
%TO.C,Y1*%
X66005000Y-118120000D02*
X66005000Y-124520000D01*
X71055000Y-118120000D02*
X71055000Y-124520000D01*
X66005000Y-118120000D02*
G75*
G02*
X71055000Y-118120000I2525000J0D01*
G01*
X71055000Y-124520000D02*
G75*
G02*
X66005000Y-124520000I-2525000J0D01*
G01*
%TO.C,D1*%
X96330000Y-137085000D02*
X96330000Y-138555000D01*
X96330000Y-138555000D02*
X98790000Y-138555000D01*
X98790000Y-137085000D02*
X96330000Y-137085000D01*
%TO.C,J1*%
X58925000Y-132490000D02*
X58925000Y-133740000D01*
X58925000Y-133740000D02*
X60175000Y-133740000D01*
X59215000Y-115830000D02*
X59215000Y-133450000D01*
X59215000Y-133450000D02*
X65185000Y-133450000D01*
X59224999Y-115840000D02*
X59225000Y-117640000D01*
X59224999Y-130140000D02*
X59975000Y-130139999D01*
X59224999Y-131640000D02*
X59225000Y-133440000D01*
X59225000Y-117640000D02*
X59975000Y-117640000D01*
X59225000Y-119140000D02*
X59224999Y-130140000D01*
X59225000Y-133440000D02*
X59975000Y-133440000D01*
X59975000Y-115839999D02*
X59224999Y-115840000D01*
X59975000Y-117640000D02*
X59975000Y-115839999D01*
X59975000Y-119140000D02*
X59225000Y-119140000D01*
X59975000Y-130139999D02*
X59975000Y-119140000D01*
X59975000Y-131640001D02*
X59224999Y-131640000D01*
X59975000Y-133440000D02*
X59975000Y-131640001D01*
X61475000Y-132690000D02*
X64425000Y-132690000D01*
X61475000Y-133440000D02*
X61475000Y-132690000D01*
X61475001Y-115840000D02*
X61475001Y-116590000D01*
X61475001Y-116590000D02*
X64425000Y-116590000D01*
X64425000Y-116590000D02*
X64425000Y-124640000D01*
X64425000Y-132690000D02*
X64425000Y-124640000D01*
X65185000Y-115830000D02*
X59215000Y-115830000D01*
X65185000Y-133450000D02*
X65185000Y-115830000D01*
%TO.C,C15*%
X89993766Y-122180000D02*
X89701232Y-122180000D01*
X89993766Y-123200000D02*
X89701232Y-123200000D01*
%TO.C,J2*%
X96450000Y-123110000D02*
X94750000Y-123110000D01*
X96450000Y-132450000D02*
X94750000Y-132450000D01*
%TO.C,R4*%
X74225275Y-123122500D02*
X74734723Y-123122500D01*
X74225275Y-124167500D02*
X74734723Y-124167500D01*
D13*
%TO.C,U2*%
X91968800Y-115180200D02*
X91968800Y-115592760D01*
X91968800Y-117147240D02*
X91968800Y-117882760D01*
X91968800Y-119437240D02*
X91968800Y-120172760D01*
X91968800Y-121727241D02*
X91968800Y-122139800D01*
X91968800Y-122139800D02*
X95931200Y-122139800D01*
X95931200Y-115180200D02*
X91968800Y-115180200D01*
X95931200Y-116727060D02*
X95931200Y-115180200D01*
X95931200Y-122139800D02*
X95931200Y-120592940D01*
X93237000Y-115850000D02*
G75*
G02*
X92983000Y-115850000I-127000J0D01*
G01*
X92983000Y-115850000D02*
G75*
G02*
X93237000Y-115850000I127000J0D01*
G01*
D14*
%TO.C,D3*%
X85020000Y-122765000D02*
X87480000Y-122765000D01*
X87480000Y-121295000D02*
X85020000Y-121295000D01*
X87480000Y-122765000D02*
X87480000Y-121295000D01*
%TO.C,R2*%
X97712776Y-120967500D02*
X98222224Y-120967500D01*
X97712776Y-122012500D02*
X98222224Y-122012500D01*
%TO.C,D2*%
X72864999Y-121295000D02*
X72864999Y-122765000D01*
X72864999Y-122765000D02*
X75324999Y-122765000D01*
X75324999Y-121295000D02*
X72864999Y-121295000D01*
%TO.C,D1*%
X96330000Y-115085000D02*
X96330000Y-116555000D01*
X96330000Y-116555000D02*
X98790000Y-116555000D01*
X98790000Y-115085000D02*
X96330000Y-115085000D01*
%TO.C,D2*%
X72864999Y-143295000D02*
X72864999Y-144765000D01*
X72864999Y-144765000D02*
X75324999Y-144765000D01*
X75324999Y-143295000D02*
X72864999Y-143295000D01*
%TO.C,J3*%
X75330001Y-137720000D02*
X76660001Y-137720000D01*
X75330001Y-139050000D02*
X75330001Y-137720000D01*
X77930002Y-137720000D02*
X85610001Y-137720000D01*
X77930002Y-140380000D02*
X77930002Y-137720000D01*
X77930002Y-140380000D02*
X85610001Y-140380000D01*
X85610001Y-140380000D02*
X85610001Y-137720000D01*
%TO.C,R6*%
X86119724Y-123137500D02*
X85610276Y-123137500D01*
X86119724Y-124182500D02*
X85610276Y-124182500D01*
%TO.C,R4*%
X74225275Y-145122500D02*
X74734723Y-145122500D01*
X74225275Y-146167500D02*
X74734723Y-146167500D01*
D13*
%TO.C,U1*%
X76458901Y-145993900D02*
X76458901Y-146492560D01*
X76458901Y-152937440D02*
X76458901Y-153436100D01*
X76458901Y-153436100D02*
X76957561Y-153436100D01*
X76957561Y-145993900D02*
X76458901Y-145993900D01*
X83402441Y-153436100D02*
X83901101Y-153436100D01*
X83901101Y-145993900D02*
X83402441Y-145993900D01*
X83901101Y-146492560D02*
X83901101Y-145993900D01*
X83901101Y-153436100D02*
X83901101Y-152937440D01*
D15*
G36*
X74978602Y-151655499D02*
G01*
X74724602Y-151655499D01*
X74724602Y-151274499D01*
X74978602Y-151274499D01*
X74978602Y-151655499D01*
G37*
G36*
X81120502Y-155170399D02*
G01*
X80739502Y-155170399D01*
X80739502Y-154916399D01*
X81120502Y-154916399D01*
X81120502Y-155170399D01*
G37*
G36*
X81620501Y-144513601D02*
G01*
X81239501Y-144513601D01*
X81239501Y-144259601D01*
X81620501Y-144259601D01*
X81620501Y-144513601D01*
G37*
G36*
X85635400Y-150155500D02*
G01*
X85381400Y-150155500D01*
X85381400Y-149774499D01*
X85635400Y-149774499D01*
X85635400Y-150155500D01*
G37*
D13*
%TO.C,U2*%
X91968800Y-137180200D02*
X91968800Y-137592760D01*
X91968800Y-139147240D02*
X91968800Y-139882760D01*
X91968800Y-141437240D02*
X91968800Y-142172760D01*
X91968800Y-143727241D02*
X91968800Y-144139800D01*
X91968800Y-144139800D02*
X95931200Y-144139800D01*
X95931200Y-137180200D02*
X91968800Y-137180200D01*
X95931200Y-138727060D02*
X95931200Y-137180200D01*
X95931200Y-144139800D02*
X95931200Y-142592940D01*
X93237000Y-137850000D02*
G75*
G02*
X92983000Y-137850000I-127000J0D01*
G01*
X92983000Y-137850000D02*
G75*
G02*
X93237000Y-137850000I127000J0D01*
G01*
D14*
%TO.C,C16*%
X88300000Y-117926267D02*
X88300000Y-117633733D01*
X89320000Y-117926267D02*
X89320000Y-117633733D01*
%TO.C,J1*%
X58925000Y-154490000D02*
X58925000Y-155740000D01*
X58925000Y-155740000D02*
X60175000Y-155740000D01*
X59215000Y-137830000D02*
X59215000Y-155450000D01*
X59215000Y-155450000D02*
X65185000Y-155450000D01*
X59224999Y-137840000D02*
X59225000Y-139640000D01*
X59224999Y-152140000D02*
X59975000Y-152139999D01*
X59224999Y-153640000D02*
X59225000Y-155440000D01*
X59225000Y-139640000D02*
X59975000Y-139640000D01*
X59225000Y-141140000D02*
X59224999Y-152140000D01*
X59225000Y-155440000D02*
X59975000Y-155440000D01*
X59975000Y-137839999D02*
X59224999Y-137840000D01*
X59975000Y-139640000D02*
X59975000Y-137839999D01*
X59975000Y-141140000D02*
X59225000Y-141140000D01*
X59975000Y-152139999D02*
X59975000Y-141140000D01*
X59975000Y-153640001D02*
X59224999Y-153640000D01*
X59975000Y-155440000D02*
X59975000Y-153640001D01*
X61475000Y-154690000D02*
X64425000Y-154690000D01*
X61475000Y-155440000D02*
X61475000Y-154690000D01*
X61475001Y-137840000D02*
X61475001Y-138590000D01*
X61475001Y-138590000D02*
X64425000Y-138590000D01*
X64425000Y-138590000D02*
X64425000Y-146640000D01*
X64425000Y-154690000D02*
X64425000Y-146640000D01*
X65185000Y-137830000D02*
X59215000Y-137830000D01*
X65185000Y-155450000D02*
X65185000Y-137830000D01*
D13*
%TO.C,U1*%
X76458901Y-123993900D02*
X76458901Y-124492560D01*
X76458901Y-130937440D02*
X76458901Y-131436100D01*
X76458901Y-131436100D02*
X76957561Y-131436100D01*
X76957561Y-123993900D02*
X76458901Y-123993900D01*
X83402441Y-131436100D02*
X83901101Y-131436100D01*
X83901101Y-123993900D02*
X83402441Y-123993900D01*
X83901101Y-124492560D02*
X83901101Y-123993900D01*
X83901101Y-131436100D02*
X83901101Y-130937440D01*
D15*
G36*
X74978602Y-129655499D02*
G01*
X74724602Y-129655499D01*
X74724602Y-129274499D01*
X74978602Y-129274499D01*
X74978602Y-129655499D01*
G37*
G36*
X81120502Y-133170399D02*
G01*
X80739502Y-133170399D01*
X80739502Y-132916399D01*
X81120502Y-132916399D01*
X81120502Y-133170399D01*
G37*
G36*
X81620501Y-122513601D02*
G01*
X81239501Y-122513601D01*
X81239501Y-122259601D01*
X81620501Y-122259601D01*
X81620501Y-122513601D01*
G37*
G36*
X85635400Y-128155500D02*
G01*
X85381400Y-128155500D01*
X85381400Y-127774499D01*
X85635400Y-127774499D01*
X85635400Y-128155500D01*
G37*
D14*
%TO.C,J3*%
X75330001Y-115720000D02*
X76660001Y-115720000D01*
X75330001Y-117050000D02*
X75330001Y-115720000D01*
X77930002Y-115720000D02*
X85610001Y-115720000D01*
X77930002Y-118380000D02*
X77930002Y-115720000D01*
X77930002Y-118380000D02*
X85610001Y-118380000D01*
X85610001Y-118380000D02*
X85610001Y-115720000D01*
%TD*%
M02*
