%TF.GenerationSoftware,KiCad,Pcbnew,9.0.1*%
%TF.CreationDate,2026-03-03T23:35:58+07:00*%
%TF.ProjectId,BMP_Bluepill,424d505f-426c-4756-9570-696c6c2e6b69,rev?*%
%TF.SameCoordinates,Original*%
%TF.FileFunction,Copper,L1,Top*%
%TF.FilePolarity,Positive*%
%FSLAX46Y46*%
G04 Gerber Fmt 4.6, Leading zero omitted, Abs format (unit mm)*
G04 Created by KiCad (PCBNEW 9.0.1) date 2026-03-03 23:35:58*
%MOMM*%
%LPD*%
G01*
G04 APERTURE LIST*
G04 Aperture macros list*
%AMRoundRect*
0 Rectangle with rounded corners*
0 $1 Rounding radius*
0 $2 $3 $4 $5 $6 $7 $8 $9 X,Y pos of 4 corners*
0 Add a 4 corners polygon primitive as box body*
4,1,4,$2,$3,$4,$5,$6,$7,$8,$9,$2,$3,0*
0 Add four circle primitives for the rounded corners*
1,1,$1+$1,$2,$3*
1,1,$1+$1,$4,$5*
1,1,$1+$1,$6,$7*
1,1,$1+$1,$8,$9*
0 Add four rect primitives between the rounded corners*
20,1,$1+$1,$2,$3,$4,$5,0*
20,1,$1+$1,$4,$5,$6,$7,0*
20,1,$1+$1,$6,$7,$8,$9,0*
20,1,$1+$1,$8,$9,$2,$3,0*%
G04 Aperture macros list end*
%TA.AperFunction,SMDPad,CuDef*%
%ADD10RoundRect,0.237500X-0.287500X-0.237500X0.287500X-0.237500X0.287500X0.237500X-0.287500X0.237500X0*%
%TD*%
%TA.AperFunction,SMDPad,CuDef*%
%ADD11RoundRect,0.237500X0.250000X0.237500X-0.250000X0.237500X-0.250000X-0.237500X0.250000X-0.237500X0*%
%TD*%
%TA.AperFunction,ComponentPad*%
%ADD12RoundRect,0.250000X0.725000X-0.600000X0.725000X0.600000X-0.725000X0.600000X-0.725000X-0.600000X0*%
%TD*%
%TA.AperFunction,ComponentPad*%
%ADD13O,1.950000X1.700000*%
%TD*%
%TA.AperFunction,SMDPad,CuDef*%
%ADD14R,2.489200X0.889000*%
%TD*%
%TA.AperFunction,SMDPad,CuDef*%
%ADD15R,2.489200X3.200400*%
%TD*%
%TA.AperFunction,SMDPad,CuDef*%
%ADD16RoundRect,0.237500X-0.250000X-0.237500X0.250000X-0.237500X0.250000X0.237500X-0.250000X0.237500X0*%
%TD*%
%TA.AperFunction,SMDPad,CuDef*%
%ADD17RoundRect,0.150000X0.425000X-0.150000X0.425000X0.150000X-0.425000X0.150000X-0.425000X-0.150000X0*%
%TD*%
%TA.AperFunction,SMDPad,CuDef*%
%ADD18RoundRect,0.075000X0.500000X-0.075000X0.500000X0.075000X-0.500000X0.075000X-0.500000X-0.075000X0*%
%TD*%
%TA.AperFunction,HeatsinkPad*%
%ADD19O,2.100000X1.000000*%
%TD*%
%TA.AperFunction,HeatsinkPad*%
%ADD20O,1.800000X1.000000*%
%TD*%
%TA.AperFunction,SMDPad,CuDef*%
%ADD21RoundRect,0.237500X0.237500X-0.300000X0.237500X0.300000X-0.237500X0.300000X-0.237500X-0.300000X0*%
%TD*%
%TA.AperFunction,SMDPad,CuDef*%
%ADD22R,1.461999X0.279400*%
%TD*%
%TA.AperFunction,SMDPad,CuDef*%
%ADD23R,0.279400X1.461999*%
%TD*%
%TA.AperFunction,SMDPad,CuDef*%
%ADD24RoundRect,0.237500X0.300000X0.237500X-0.300000X0.237500X-0.300000X-0.237500X0.300000X-0.237500X0*%
%TD*%
%TA.AperFunction,ComponentPad*%
%ADD25R,1.700000X1.700000*%
%TD*%
%TA.AperFunction,ComponentPad*%
%ADD26C,1.700000*%
%TD*%
%TA.AperFunction,ComponentPad*%
%ADD27C,1.500000*%
%TD*%
%TA.AperFunction,SMDPad,CuDef*%
%ADD28RoundRect,0.237500X0.287500X0.237500X-0.287500X0.237500X-0.287500X-0.237500X0.287500X-0.237500X0*%
%TD*%
%TA.AperFunction,ViaPad*%
%ADD29C,0.600000*%
%TD*%
%TA.AperFunction,Conductor*%
%ADD30C,0.450000*%
%TD*%
%TA.AperFunction,Conductor*%
%ADD31C,0.280000*%
%TD*%
%TA.AperFunction,Conductor*%
%ADD32C,0.200000*%
%TD*%
%TA.AperFunction,Conductor*%
%ADD33C,0.550000*%
%TD*%
G04 APERTURE END LIST*
D10*
%TO.P,D2,1,K*%
%TO.N,GND*%
X115120000Y-151390000D03*
%TO.P,D2,2,A*%
%TO.N,Net-(D2-A)*%
X116869998Y-151390000D03*
%TD*%
D11*
%TO.P,R6,1*%
%TO.N,LED_UART*%
X128247500Y-153020000D03*
%TO.P,R6,2*%
%TO.N,Net-(D3-A)*%
X126422500Y-153020000D03*
%TD*%
D12*
%TO.P,J1,1,Pin_1*%
%TO.N,BMP_RX*%
X103145000Y-160250000D03*
D13*
%TO.P,J1,2,Pin_2*%
%TO.N,BMP_TX*%
X103145000Y-157750000D03*
%TO.P,J1,3,Pin_3*%
%TO.N,GND*%
X103145000Y-155250000D03*
%TO.P,J1,4,Pin_4*%
%TO.N,BMP_CLK*%
X103145000Y-152750000D03*
%TO.P,J1,5,Pin_5*%
%TO.N,BMP_IO*%
X103145000Y-150250000D03*
%TO.P,J1,6,Pin_6*%
%TO.N,+3V3*%
X103145000Y-147750000D03*
%TD*%
D14*
%TO.P,U2,1,GROUND/ADJUST*%
%TO.N,GND*%
X132664100Y-101730000D03*
%TO.P,U2,2,VOUT*%
%TO.N,+3V3*%
X132664099Y-104020000D03*
%TO.P,U2,3,VIN*%
%TO.N,+5V*%
X132664100Y-106310000D03*
D15*
%TO.P,U2,4,EPAD*%
%TO.N,unconnected-(U2-EPAD-Pad4)*%
X138175901Y-104020000D03*
%TD*%
D16*
%TO.P,R2,1*%
%TO.N,+3V3*%
X138525000Y-128850000D03*
%TO.P,R2,2*%
%TO.N,Net-(D1-A)*%
X140350000Y-128850000D03*
%TD*%
D10*
%TO.P,D1,1,K*%
%TO.N,GND*%
X138585001Y-123180000D03*
%TO.P,D1,2,A*%
%TO.N,Net-(D1-A)*%
X140334999Y-123180000D03*
%TD*%
D12*
%TO.P,J1,1,Pin_1*%
%TO.N,BMP_RX*%
X103145000Y-138250000D03*
D13*
%TO.P,J1,2,Pin_2*%
%TO.N,BMP_TX*%
X103145000Y-135750000D03*
%TO.P,J1,3,Pin_3*%
%TO.N,GND*%
X103145000Y-133250000D03*
%TO.P,J1,4,Pin_4*%
%TO.N,BMP_CLK*%
X103145000Y-130750000D03*
%TO.P,J1,5,Pin_5*%
%TO.N,BMP_IO*%
X103145000Y-128250000D03*
%TO.P,J1,6,Pin_6*%
%TO.N,+3V3*%
X103145000Y-125750000D03*
%TD*%
D17*
%TO.P,J2,A1,GND*%
%TO.N,GND*%
X134340000Y-138340000D03*
%TO.P,J2,A4,VBUS*%
%TO.N,+5V*%
X134340000Y-137540000D03*
D18*
%TO.P,J2,A5,CC1*%
%TO.N,Net-(J2-CC1)*%
X134340001Y-136390000D03*
%TO.P,J2,A6,D+*%
%TO.N,Net-(J2-D+-PadA6)*%
X134340000Y-135390000D03*
%TO.P,J2,A7,D-*%
%TO.N,Net-(J2-D--PadA7)*%
X134340000Y-134890000D03*
%TO.P,J2,A8,SBU1*%
%TO.N,unconnected-(J2-SBU1-PadA8)*%
X134340001Y-133890000D03*
D17*
%TO.P,J2,A9,VBUS*%
%TO.N,+5V*%
X134340000Y-132740000D03*
%TO.P,J2,A12,GND*%
%TO.N,GND*%
X134340000Y-131940000D03*
%TO.P,J2,B1,GND*%
X134340000Y-131940000D03*
%TO.P,J2,B4,VBUS*%
%TO.N,+5V*%
X134340000Y-132740000D03*
D18*
%TO.P,J2,B5,CC2*%
%TO.N,Net-(J2-CC2)*%
X134340000Y-133390000D03*
%TO.P,J2,B6,D+*%
%TO.N,Net-(J2-D+-PadA6)*%
X134340000Y-134390000D03*
%TO.P,J2,B7,D-*%
%TO.N,Net-(J2-D--PadA7)*%
X134340000Y-135890000D03*
%TO.P,J2,B8,SBU2*%
%TO.N,unconnected-(J2-SBU2-PadB8)*%
X134340000Y-136890000D03*
D17*
%TO.P,J2,B9,VBUS*%
%TO.N,+5V*%
X134340000Y-137540000D03*
%TO.P,J2,B12,GND*%
%TO.N,GND*%
X134340000Y-138340000D03*
D19*
%TO.P,J2,S1,SHIELD*%
%TO.N,unconnected-(J2-SHIELD-PadS1)*%
X134915000Y-139460000D03*
D20*
%TO.N,unconnected-(J2-SHIELD-PadS1)_1*%
X139095000Y-139460000D03*
D19*
%TO.N,unconnected-(J2-SHIELD-PadS1)_2*%
X134915000Y-130820000D03*
D20*
%TO.N,unconnected-(J2-SHIELD-PadS1)_3*%
X139095000Y-130820000D03*
%TD*%
D16*
%TO.P,R4,1*%
%TO.N,LED_IDLE*%
X115037499Y-109005000D03*
%TO.P,R4,2*%
%TO.N,Net-(D2-A)*%
X116862499Y-109005000D03*
%TD*%
D10*
%TO.P,D2,1,K*%
%TO.N,GND*%
X115120000Y-107390000D03*
%TO.P,D2,2,A*%
%TO.N,Net-(D2-A)*%
X116869998Y-107390000D03*
%TD*%
D21*
%TO.P,C16,1*%
%TO.N,+3V3*%
X130280000Y-148002501D03*
%TO.P,C16,2*%
%TO.N,GND*%
X130280000Y-146277499D03*
%TD*%
D16*
%TO.P,R2,1*%
%TO.N,+3V3*%
X138525000Y-150850000D03*
%TO.P,R2,2*%
%TO.N,Net-(D1-A)*%
X140350000Y-150850000D03*
%TD*%
%TO.P,R2,1*%
%TO.N,+3V3*%
X138525000Y-106850000D03*
%TO.P,R2,2*%
%TO.N,Net-(D1-A)*%
X140350000Y-106850000D03*
%TD*%
D14*
%TO.P,U2,1,GROUND/ADJUST*%
%TO.N,GND*%
X132664100Y-123730000D03*
%TO.P,U2,2,VOUT*%
%TO.N,+3V3*%
X132664099Y-126020000D03*
%TO.P,U2,3,VIN*%
%TO.N,+5V*%
X132664100Y-128310000D03*
D15*
%TO.P,U2,4,EPAD*%
%TO.N,unconnected-(U2-EPAD-Pad4)*%
X138175901Y-126020000D03*
%TD*%
D21*
%TO.P,C16,1*%
%TO.N,+3V3*%
X130280000Y-126002501D03*
%TO.P,C16,2*%
%TO.N,GND*%
X130280000Y-124277499D03*
%TD*%
D22*
%TO.P,U1,1,VBAT*%
%TO.N,+3V3*%
X117433601Y-154325000D03*
%TO.P,U1,2,PC13*%
%TO.N,LED_IDLE*%
X117433601Y-154824999D03*
%TO.P,U1,3,PC14-OSC32_IN*%
%TO.N,Net-(U1A-PC14-OSC32_IN)*%
X117433601Y-155325001D03*
%TO.P,U1,4,PC15-OSC32_OUT*%
%TO.N,unconnected-(U1A-PC15-OSC32_OUT-Pad4)*%
X117433601Y-155825000D03*
%TO.P,U1,5,OSC_IN*%
%TO.N,Net-(U1A-OSC_IN)*%
X117433601Y-156324999D03*
%TO.P,U1,6,OSC_OUT*%
%TO.N,Net-(U1A-OSC_OUT)*%
X117433601Y-156825000D03*
%TO.P,U1,7,NRST*%
%TO.N,RESET*%
X117433601Y-157325000D03*
%TO.P,U1,8,VSSA*%
%TO.N,GND*%
X117433601Y-157825001D03*
%TO.P,U1,9,VDDA*%
%TO.N,+3V3*%
X117433601Y-158325000D03*
%TO.P,U1,10,PA0-WKUP*%
%TO.N,unconnected-(U1A-PA0-WKUP-Pad10)*%
X117433601Y-158824999D03*
%TO.P,U1,11,PA1*%
%TO.N,unconnected-(U1A-PA1-Pad11)*%
X117433601Y-159325001D03*
%TO.P,U1,12,PA2*%
%TO.N,BMP_TX*%
X117433601Y-159825000D03*
D23*
%TO.P,U1,13,PA3*%
%TO.N,BMP_RX*%
X118900001Y-161291400D03*
%TO.P,U1,14,PA4*%
%TO.N,unconnected-(U1A-PA4-Pad14)*%
X119400000Y-161291400D03*
%TO.P,U1,15,PA5*%
%TO.N,BMP_CLK*%
X119900002Y-161291400D03*
%TO.P,U1,16,PA6*%
%TO.N,unconnected-(U1A-PA6-Pad16)*%
X120400001Y-161291400D03*
%TO.P,U1,17,PA7*%
%TO.N,unconnected-(U1A-PA7-Pad17)*%
X120900000Y-161291400D03*
%TO.P,U1,18,PB0*%
%TO.N,unconnected-(U1A-PB0-Pad18)*%
X121400001Y-161291400D03*
%TO.P,U1,19,PB1*%
%TO.N,unconnected-(U1A-PB1-Pad19)*%
X121900001Y-161291400D03*
%TO.P,U1,20,PB2*%
%TO.N,BOOT1*%
X122400002Y-161291400D03*
%TO.P,U1,21,PB10*%
%TO.N,unconnected-(U1A-PB10-Pad21)*%
X122900001Y-161291400D03*
%TO.P,U1,22,PB11*%
%TO.N,unconnected-(U1A-PB11-Pad22)*%
X123400000Y-161291400D03*
%TO.P,U1,23,VSS_1*%
%TO.N,GND*%
X123900002Y-161291400D03*
%TO.P,U1,24,VDD_1*%
%TO.N,+3V3*%
X124400001Y-161291400D03*
D22*
%TO.P,U1,25,PB12*%
%TO.N,unconnected-(U1A-PB12-Pad25)*%
X125866401Y-159825000D03*
%TO.P,U1,26,PB13*%
%TO.N,unconnected-(U1A-PB13-Pad26)*%
X125866401Y-159325001D03*
%TO.P,U1,27,PB14*%
%TO.N,BMP_IO*%
X125866401Y-158824999D03*
%TO.P,U1,28,PB15*%
%TO.N,unconnected-(U1A-PB15-Pad28)*%
X125866401Y-158325000D03*
%TO.P,U1,29,PA8*%
%TO.N,unconnected-(U1A-PA8-Pad29)*%
X125866401Y-157825001D03*
%TO.P,U1,30,PA9*%
%TO.N,LED_UART*%
X125866401Y-157325000D03*
%TO.P,U1,31,PA10*%
%TO.N,unconnected-(U1A-PA10-Pad31)*%
X125866401Y-156825000D03*
%TO.P,U1,32,PA11*%
%TO.N,USB-*%
X125866401Y-156324999D03*
%TO.P,U1,33,PA12*%
%TO.N,USB+*%
X125866401Y-155825000D03*
%TO.P,U1,34,PA13*%
%TO.N,SWD_IO*%
X125866401Y-155325001D03*
%TO.P,U1,35,VSS_2*%
%TO.N,GND*%
X125866401Y-154824999D03*
%TO.P,U1,36,VDD_2*%
%TO.N,+3V3*%
X125866401Y-154325000D03*
D23*
%TO.P,U1,37,PA14*%
%TO.N,SWD_CLK*%
X124400001Y-152858600D03*
%TO.P,U1,38,PA15*%
%TO.N,unconnected-(U1A-PA15-Pad38)*%
X123900002Y-152858600D03*
%TO.P,U1,39,PB3*%
%TO.N,unconnected-(U1A-PB3-Pad39)*%
X123400000Y-152858600D03*
%TO.P,U1,40,PB4*%
%TO.N,unconnected-(U1A-PB4-Pad40)*%
X122900001Y-152858600D03*
%TO.P,U1,41,PB5*%
%TO.N,unconnected-(U1A-PB5-Pad41)*%
X122400002Y-152858600D03*
%TO.P,U1,42,PB6*%
%TO.N,unconnected-(U1A-PB6-Pad42)*%
X121900001Y-152858600D03*
%TO.P,U1,43,PB7*%
%TO.N,unconnected-(U1A-PB7-Pad43)*%
X121400001Y-152858600D03*
%TO.P,U1,44,BOOT0*%
%TO.N,Net-(U1A-BOOT0)*%
X120900000Y-152858600D03*
%TO.P,U1,45,PB8*%
%TO.N,unconnected-(U1A-PB8-Pad45)*%
X120400001Y-152858600D03*
%TO.P,U1,46,PB9*%
%TO.N,unconnected-(U1A-PB9-Pad46)*%
X119900002Y-152858600D03*
%TO.P,U1,47,VSS_3*%
%TO.N,GND*%
X119400000Y-152858600D03*
%TO.P,U1,48,VDD_3*%
%TO.N,+3V3*%
X118900001Y-152858600D03*
%TD*%
D24*
%TO.P,C15,1*%
%TO.N,+5V*%
X132180000Y-108050000D03*
%TO.P,C15,2*%
%TO.N,GND*%
X130454998Y-108050000D03*
%TD*%
D12*
%TO.P,J1,1,Pin_1*%
%TO.N,BMP_RX*%
X103145000Y-116250000D03*
D13*
%TO.P,J1,2,Pin_2*%
%TO.N,BMP_TX*%
X103145000Y-113750000D03*
%TO.P,J1,3,Pin_3*%
%TO.N,GND*%
X103145000Y-111250000D03*
%TO.P,J1,4,Pin_4*%
%TO.N,BMP_CLK*%
X103145000Y-108750000D03*
%TO.P,J1,5,Pin_5*%
%TO.N,BMP_IO*%
X103145000Y-106250000D03*
%TO.P,J1,6,Pin_6*%
%TO.N,+3V3*%
X103145000Y-103750000D03*
%TD*%
D25*
%TO.P,J3,1,Pin_1*%
%TO.N,SWD_CLK*%
X118130001Y-146410000D03*
D26*
%TO.P,J3,2,Pin_2*%
%TO.N,GND*%
X120670001Y-146410000D03*
%TO.P,J3,3,Pin_3*%
%TO.N,SWD_IO*%
X123210000Y-146410000D03*
%TO.P,J3,4,Pin_4*%
%TO.N,+3V3*%
X125750001Y-146410000D03*
%TD*%
D22*
%TO.P,U1,1,VBAT*%
%TO.N,+3V3*%
X117433601Y-110325000D03*
%TO.P,U1,2,PC13*%
%TO.N,LED_IDLE*%
X117433601Y-110824999D03*
%TO.P,U1,3,PC14-OSC32_IN*%
%TO.N,Net-(U1A-PC14-OSC32_IN)*%
X117433601Y-111325001D03*
%TO.P,U1,4,PC15-OSC32_OUT*%
%TO.N,unconnected-(U1A-PC15-OSC32_OUT-Pad4)*%
X117433601Y-111825000D03*
%TO.P,U1,5,OSC_IN*%
%TO.N,Net-(U1A-OSC_IN)*%
X117433601Y-112324999D03*
%TO.P,U1,6,OSC_OUT*%
%TO.N,Net-(U1A-OSC_OUT)*%
X117433601Y-112825000D03*
%TO.P,U1,7,NRST*%
%TO.N,RESET*%
X117433601Y-113325000D03*
%TO.P,U1,8,VSSA*%
%TO.N,GND*%
X117433601Y-113825001D03*
%TO.P,U1,9,VDDA*%
%TO.N,+3V3*%
X117433601Y-114325000D03*
%TO.P,U1,10,PA0-WKUP*%
%TO.N,unconnected-(U1A-PA0-WKUP-Pad10)*%
X117433601Y-114824999D03*
%TO.P,U1,11,PA1*%
%TO.N,unconnected-(U1A-PA1-Pad11)*%
X117433601Y-115325001D03*
%TO.P,U1,12,PA2*%
%TO.N,BMP_TX*%
X117433601Y-115825000D03*
D23*
%TO.P,U1,13,PA3*%
%TO.N,BMP_RX*%
X118900001Y-117291400D03*
%TO.P,U1,14,PA4*%
%TO.N,unconnected-(U1A-PA4-Pad14)*%
X119400000Y-117291400D03*
%TO.P,U1,15,PA5*%
%TO.N,BMP_CLK*%
X119900002Y-117291400D03*
%TO.P,U1,16,PA6*%
%TO.N,unconnected-(U1A-PA6-Pad16)*%
X120400001Y-117291400D03*
%TO.P,U1,17,PA7*%
%TO.N,unconnected-(U1A-PA7-Pad17)*%
X120900000Y-117291400D03*
%TO.P,U1,18,PB0*%
%TO.N,unconnected-(U1A-PB0-Pad18)*%
X121400001Y-117291400D03*
%TO.P,U1,19,PB1*%
%TO.N,unconnected-(U1A-PB1-Pad19)*%
X121900001Y-117291400D03*
%TO.P,U1,20,PB2*%
%TO.N,BOOT1*%
X122400002Y-117291400D03*
%TO.P,U1,21,PB10*%
%TO.N,unconnected-(U1A-PB10-Pad21)*%
X122900001Y-117291400D03*
%TO.P,U1,22,PB11*%
%TO.N,unconnected-(U1A-PB11-Pad22)*%
X123400000Y-117291400D03*
%TO.P,U1,23,VSS_1*%
%TO.N,GND*%
X123900002Y-117291400D03*
%TO.P,U1,24,VDD_1*%
%TO.N,+3V3*%
X124400001Y-117291400D03*
D22*
%TO.P,U1,25,PB12*%
%TO.N,unconnected-(U1A-PB12-Pad25)*%
X125866401Y-115825000D03*
%TO.P,U1,26,PB13*%
%TO.N,unconnected-(U1A-PB13-Pad26)*%
X125866401Y-115325001D03*
%TO.P,U1,27,PB14*%
%TO.N,BMP_IO*%
X125866401Y-114824999D03*
%TO.P,U1,28,PB15*%
%TO.N,unconnected-(U1A-PB15-Pad28)*%
X125866401Y-114325000D03*
%TO.P,U1,29,PA8*%
%TO.N,unconnected-(U1A-PA8-Pad29)*%
X125866401Y-113825001D03*
%TO.P,U1,30,PA9*%
%TO.N,LED_UART*%
X125866401Y-113325000D03*
%TO.P,U1,31,PA10*%
%TO.N,unconnected-(U1A-PA10-Pad31)*%
X125866401Y-112825000D03*
%TO.P,U1,32,PA11*%
%TO.N,USB-*%
X125866401Y-112324999D03*
%TO.P,U1,33,PA12*%
%TO.N,USB+*%
X125866401Y-111825000D03*
%TO.P,U1,34,PA13*%
%TO.N,SWD_IO*%
X125866401Y-111325001D03*
%TO.P,U1,35,VSS_2*%
%TO.N,GND*%
X125866401Y-110824999D03*
%TO.P,U1,36,VDD_2*%
%TO.N,+3V3*%
X125866401Y-110325000D03*
D23*
%TO.P,U1,37,PA14*%
%TO.N,SWD_CLK*%
X124400001Y-108858600D03*
%TO.P,U1,38,PA15*%
%TO.N,unconnected-(U1A-PA15-Pad38)*%
X123900002Y-108858600D03*
%TO.P,U1,39,PB3*%
%TO.N,unconnected-(U1A-PB3-Pad39)*%
X123400000Y-108858600D03*
%TO.P,U1,40,PB4*%
%TO.N,unconnected-(U1A-PB4-Pad40)*%
X122900001Y-108858600D03*
%TO.P,U1,41,PB5*%
%TO.N,unconnected-(U1A-PB5-Pad41)*%
X122400002Y-108858600D03*
%TO.P,U1,42,PB6*%
%TO.N,unconnected-(U1A-PB6-Pad42)*%
X121900001Y-108858600D03*
%TO.P,U1,43,PB7*%
%TO.N,unconnected-(U1A-PB7-Pad43)*%
X121400001Y-108858600D03*
%TO.P,U1,44,BOOT0*%
%TO.N,Net-(U1A-BOOT0)*%
X120900000Y-108858600D03*
%TO.P,U1,45,PB8*%
%TO.N,unconnected-(U1A-PB8-Pad45)*%
X120400001Y-108858600D03*
%TO.P,U1,46,PB9*%
%TO.N,unconnected-(U1A-PB9-Pad46)*%
X119900002Y-108858600D03*
%TO.P,U1,47,VSS_3*%
%TO.N,GND*%
X119400000Y-108858600D03*
%TO.P,U1,48,VDD_3*%
%TO.N,+3V3*%
X118900001Y-108858600D03*
%TD*%
D14*
%TO.P,U2,1,GROUND/ADJUST*%
%TO.N,GND*%
X132664100Y-145730000D03*
%TO.P,U2,2,VOUT*%
%TO.N,+3V3*%
X132664099Y-148020000D03*
%TO.P,U2,3,VIN*%
%TO.N,+5V*%
X132664100Y-150310000D03*
D15*
%TO.P,U2,4,EPAD*%
%TO.N,unconnected-(U2-EPAD-Pad4)*%
X138175901Y-148020000D03*
%TD*%
D11*
%TO.P,R6,1*%
%TO.N,LED_UART*%
X128247500Y-131020000D03*
%TO.P,R6,2*%
%TO.N,Net-(D3-A)*%
X126422500Y-131020000D03*
%TD*%
D24*
%TO.P,C15,1*%
%TO.N,+5V*%
X132180000Y-130050000D03*
%TO.P,C15,2*%
%TO.N,GND*%
X130454998Y-130050000D03*
%TD*%
D27*
%TO.P,Y1,1,1*%
%TO.N,Net-(U1A-OSC_IN)*%
X110000000Y-148240000D03*
%TO.P,Y1,2,2*%
%TO.N,Net-(U1A-OSC_OUT)*%
X110000000Y-153120000D03*
%TD*%
D22*
%TO.P,U1,1,VBAT*%
%TO.N,+3V3*%
X117433601Y-132325000D03*
%TO.P,U1,2,PC13*%
%TO.N,LED_IDLE*%
X117433601Y-132824999D03*
%TO.P,U1,3,PC14-OSC32_IN*%
%TO.N,Net-(U1A-PC14-OSC32_IN)*%
X117433601Y-133325001D03*
%TO.P,U1,4,PC15-OSC32_OUT*%
%TO.N,unconnected-(U1A-PC15-OSC32_OUT-Pad4)*%
X117433601Y-133825000D03*
%TO.P,U1,5,OSC_IN*%
%TO.N,Net-(U1A-OSC_IN)*%
X117433601Y-134324999D03*
%TO.P,U1,6,OSC_OUT*%
%TO.N,Net-(U1A-OSC_OUT)*%
X117433601Y-134825000D03*
%TO.P,U1,7,NRST*%
%TO.N,RESET*%
X117433601Y-135325000D03*
%TO.P,U1,8,VSSA*%
%TO.N,GND*%
X117433601Y-135825001D03*
%TO.P,U1,9,VDDA*%
%TO.N,+3V3*%
X117433601Y-136325000D03*
%TO.P,U1,10,PA0-WKUP*%
%TO.N,unconnected-(U1A-PA0-WKUP-Pad10)*%
X117433601Y-136824999D03*
%TO.P,U1,11,PA1*%
%TO.N,unconnected-(U1A-PA1-Pad11)*%
X117433601Y-137325001D03*
%TO.P,U1,12,PA2*%
%TO.N,BMP_TX*%
X117433601Y-137825000D03*
D23*
%TO.P,U1,13,PA3*%
%TO.N,BMP_RX*%
X118900001Y-139291400D03*
%TO.P,U1,14,PA4*%
%TO.N,unconnected-(U1A-PA4-Pad14)*%
X119400000Y-139291400D03*
%TO.P,U1,15,PA5*%
%TO.N,BMP_CLK*%
X119900002Y-139291400D03*
%TO.P,U1,16,PA6*%
%TO.N,unconnected-(U1A-PA6-Pad16)*%
X120400001Y-139291400D03*
%TO.P,U1,17,PA7*%
%TO.N,unconnected-(U1A-PA7-Pad17)*%
X120900000Y-139291400D03*
%TO.P,U1,18,PB0*%
%TO.N,unconnected-(U1A-PB0-Pad18)*%
X121400001Y-139291400D03*
%TO.P,U1,19,PB1*%
%TO.N,unconnected-(U1A-PB1-Pad19)*%
X121900001Y-139291400D03*
%TO.P,U1,20,PB2*%
%TO.N,BOOT1*%
X122400002Y-139291400D03*
%TO.P,U1,21,PB10*%
%TO.N,unconnected-(U1A-PB10-Pad21)*%
X122900001Y-139291400D03*
%TO.P,U1,22,PB11*%
%TO.N,unconnected-(U1A-PB11-Pad22)*%
X123400000Y-139291400D03*
%TO.P,U1,23,VSS_1*%
%TO.N,GND*%
X123900002Y-139291400D03*
%TO.P,U1,24,VDD_1*%
%TO.N,+3V3*%
X124400001Y-139291400D03*
D22*
%TO.P,U1,25,PB12*%
%TO.N,unconnected-(U1A-PB12-Pad25)*%
X125866401Y-137825000D03*
%TO.P,U1,26,PB13*%
%TO.N,unconnected-(U1A-PB13-Pad26)*%
X125866401Y-137325001D03*
%TO.P,U1,27,PB14*%
%TO.N,BMP_IO*%
X125866401Y-136824999D03*
%TO.P,U1,28,PB15*%
%TO.N,unconnected-(U1A-PB15-Pad28)*%
X125866401Y-136325000D03*
%TO.P,U1,29,PA8*%
%TO.N,unconnected-(U1A-PA8-Pad29)*%
X125866401Y-135825001D03*
%TO.P,U1,30,PA9*%
%TO.N,LED_UART*%
X125866401Y-135325000D03*
%TO.P,U1,31,PA10*%
%TO.N,unconnected-(U1A-PA10-Pad31)*%
X125866401Y-134825000D03*
%TO.P,U1,32,PA11*%
%TO.N,USB-*%
X125866401Y-134324999D03*
%TO.P,U1,33,PA12*%
%TO.N,USB+*%
X125866401Y-133825000D03*
%TO.P,U1,34,PA13*%
%TO.N,SWD_IO*%
X125866401Y-133325001D03*
%TO.P,U1,35,VSS_2*%
%TO.N,GND*%
X125866401Y-132824999D03*
%TO.P,U1,36,VDD_2*%
%TO.N,+3V3*%
X125866401Y-132325000D03*
D23*
%TO.P,U1,37,PA14*%
%TO.N,SWD_CLK*%
X124400001Y-130858600D03*
%TO.P,U1,38,PA15*%
%TO.N,unconnected-(U1A-PA15-Pad38)*%
X123900002Y-130858600D03*
%TO.P,U1,39,PB3*%
%TO.N,unconnected-(U1A-PB3-Pad39)*%
X123400000Y-130858600D03*
%TO.P,U1,40,PB4*%
%TO.N,unconnected-(U1A-PB4-Pad40)*%
X122900001Y-130858600D03*
%TO.P,U1,41,PB5*%
%TO.N,unconnected-(U1A-PB5-Pad41)*%
X122400002Y-130858600D03*
%TO.P,U1,42,PB6*%
%TO.N,unconnected-(U1A-PB6-Pad42)*%
X121900001Y-130858600D03*
%TO.P,U1,43,PB7*%
%TO.N,unconnected-(U1A-PB7-Pad43)*%
X121400001Y-130858600D03*
%TO.P,U1,44,BOOT0*%
%TO.N,Net-(U1A-BOOT0)*%
X120900000Y-130858600D03*
%TO.P,U1,45,PB8*%
%TO.N,unconnected-(U1A-PB8-Pad45)*%
X120400001Y-130858600D03*
%TO.P,U1,46,PB9*%
%TO.N,unconnected-(U1A-PB9-Pad46)*%
X119900002Y-130858600D03*
%TO.P,U1,47,VSS_3*%
%TO.N,GND*%
X119400000Y-130858600D03*
%TO.P,U1,48,VDD_3*%
%TO.N,+3V3*%
X118900001Y-130858600D03*
%TD*%
D17*
%TO.P,J2,A1,GND*%
%TO.N,GND*%
X134340000Y-116340000D03*
%TO.P,J2,A4,VBUS*%
%TO.N,+5V*%
X134340000Y-115540000D03*
D18*
%TO.P,J2,A5,CC1*%
%TO.N,Net-(J2-CC1)*%
X134340001Y-114390000D03*
%TO.P,J2,A6,D+*%
%TO.N,Net-(J2-D+-PadA6)*%
X134340000Y-113390000D03*
%TO.P,J2,A7,D-*%
%TO.N,Net-(J2-D--PadA7)*%
X134340000Y-112890000D03*
%TO.P,J2,A8,SBU1*%
%TO.N,unconnected-(J2-SBU1-PadA8)*%
X134340001Y-111890000D03*
D17*
%TO.P,J2,A9,VBUS*%
%TO.N,+5V*%
X134340000Y-110740000D03*
%TO.P,J2,A12,GND*%
%TO.N,GND*%
X134340000Y-109940000D03*
%TO.P,J2,B1,GND*%
X134340000Y-109940000D03*
%TO.P,J2,B4,VBUS*%
%TO.N,+5V*%
X134340000Y-110740000D03*
D18*
%TO.P,J2,B5,CC2*%
%TO.N,Net-(J2-CC2)*%
X134340000Y-111390000D03*
%TO.P,J2,B6,D+*%
%TO.N,Net-(J2-D+-PadA6)*%
X134340000Y-112390000D03*
%TO.P,J2,B7,D-*%
%TO.N,Net-(J2-D--PadA7)*%
X134340000Y-113890000D03*
%TO.P,J2,B8,SBU2*%
%TO.N,unconnected-(J2-SBU2-PadB8)*%
X134340000Y-114890000D03*
D17*
%TO.P,J2,B9,VBUS*%
%TO.N,+5V*%
X134340000Y-115540000D03*
%TO.P,J2,B12,GND*%
%TO.N,GND*%
X134340000Y-116340000D03*
D19*
%TO.P,J2,S1,SHIELD*%
%TO.N,unconnected-(J2-SHIELD-PadS1)*%
X134915000Y-117460000D03*
D20*
%TO.N,unconnected-(J2-SHIELD-PadS1)_1*%
X139095000Y-117460000D03*
D19*
%TO.N,unconnected-(J2-SHIELD-PadS1)_2*%
X134915000Y-108820000D03*
D20*
%TO.N,unconnected-(J2-SHIELD-PadS1)_3*%
X139095000Y-108820000D03*
%TD*%
D11*
%TO.P,R6,1*%
%TO.N,LED_UART*%
X128247500Y-109020000D03*
%TO.P,R6,2*%
%TO.N,Net-(D3-A)*%
X126422500Y-109020000D03*
%TD*%
D28*
%TO.P,D3,1,K*%
%TO.N,GND*%
X128164999Y-151390000D03*
%TO.P,D3,2,A*%
%TO.N,Net-(D3-A)*%
X126415001Y-151390000D03*
%TD*%
D27*
%TO.P,Y1,1,1*%
%TO.N,Net-(U1A-OSC_IN)*%
X110000000Y-126240000D03*
%TO.P,Y1,2,2*%
%TO.N,Net-(U1A-OSC_OUT)*%
X110000000Y-131120000D03*
%TD*%
D10*
%TO.P,D1,1,K*%
%TO.N,GND*%
X138585001Y-145180000D03*
%TO.P,D1,2,A*%
%TO.N,Net-(D1-A)*%
X140334999Y-145180000D03*
%TD*%
D25*
%TO.P,J3,1,Pin_1*%
%TO.N,SWD_CLK*%
X118130001Y-102410000D03*
D26*
%TO.P,J3,2,Pin_2*%
%TO.N,GND*%
X120670001Y-102410000D03*
%TO.P,J3,3,Pin_3*%
%TO.N,SWD_IO*%
X123210000Y-102410000D03*
%TO.P,J3,4,Pin_4*%
%TO.N,+3V3*%
X125750001Y-102410000D03*
%TD*%
D24*
%TO.P,C15,1*%
%TO.N,+5V*%
X132180000Y-152050000D03*
%TO.P,C15,2*%
%TO.N,GND*%
X130454998Y-152050000D03*
%TD*%
D16*
%TO.P,R4,1*%
%TO.N,LED_IDLE*%
X115037499Y-131005000D03*
%TO.P,R4,2*%
%TO.N,Net-(D2-A)*%
X116862499Y-131005000D03*
%TD*%
D10*
%TO.P,D2,1,K*%
%TO.N,GND*%
X115120000Y-129390000D03*
%TO.P,D2,2,A*%
%TO.N,Net-(D2-A)*%
X116869998Y-129390000D03*
%TD*%
D28*
%TO.P,D3,1,K*%
%TO.N,GND*%
X128164999Y-107390000D03*
%TO.P,D3,2,A*%
%TO.N,Net-(D3-A)*%
X126415001Y-107390000D03*
%TD*%
D17*
%TO.P,J2,A1,GND*%
%TO.N,GND*%
X134340000Y-160340000D03*
%TO.P,J2,A4,VBUS*%
%TO.N,+5V*%
X134340000Y-159540000D03*
D18*
%TO.P,J2,A5,CC1*%
%TO.N,Net-(J2-CC1)*%
X134340001Y-158390000D03*
%TO.P,J2,A6,D+*%
%TO.N,Net-(J2-D+-PadA6)*%
X134340000Y-157390000D03*
%TO.P,J2,A7,D-*%
%TO.N,Net-(J2-D--PadA7)*%
X134340000Y-156890000D03*
%TO.P,J2,A8,SBU1*%
%TO.N,unconnected-(J2-SBU1-PadA8)*%
X134340001Y-155890000D03*
D17*
%TO.P,J2,A9,VBUS*%
%TO.N,+5V*%
X134340000Y-154740000D03*
%TO.P,J2,A12,GND*%
%TO.N,GND*%
X134340000Y-153940000D03*
%TO.P,J2,B1,GND*%
X134340000Y-153940000D03*
%TO.P,J2,B4,VBUS*%
%TO.N,+5V*%
X134340000Y-154740000D03*
D18*
%TO.P,J2,B5,CC2*%
%TO.N,Net-(J2-CC2)*%
X134340000Y-155390000D03*
%TO.P,J2,B6,D+*%
%TO.N,Net-(J2-D+-PadA6)*%
X134340000Y-156390000D03*
%TO.P,J2,B7,D-*%
%TO.N,Net-(J2-D--PadA7)*%
X134340000Y-157890000D03*
%TO.P,J2,B8,SBU2*%
%TO.N,unconnected-(J2-SBU2-PadB8)*%
X134340000Y-158890000D03*
D17*
%TO.P,J2,B9,VBUS*%
%TO.N,+5V*%
X134340000Y-159540000D03*
%TO.P,J2,B12,GND*%
%TO.N,GND*%
X134340000Y-160340000D03*
D19*
%TO.P,J2,S1,SHIELD*%
%TO.N,unconnected-(J2-SHIELD-PadS1)*%
X134915000Y-161460000D03*
D20*
%TO.N,unconnected-(J2-SHIELD-PadS1)_1*%
X139095000Y-161460000D03*
D19*
%TO.N,unconnected-(J2-SHIELD-PadS1)_2*%
X134915000Y-152820000D03*
D20*
%TO.N,unconnected-(J2-SHIELD-PadS1)_3*%
X139095000Y-152820000D03*
%TD*%
D28*
%TO.P,D3,1,K*%
%TO.N,GND*%
X128164999Y-129390000D03*
%TO.P,D3,2,A*%
%TO.N,Net-(D3-A)*%
X126415001Y-129390000D03*
%TD*%
D21*
%TO.P,C16,1*%
%TO.N,+3V3*%
X130280000Y-104002501D03*
%TO.P,C16,2*%
%TO.N,GND*%
X130280000Y-102277499D03*
%TD*%
D25*
%TO.P,J3,1,Pin_1*%
%TO.N,SWD_CLK*%
X118130001Y-124410000D03*
D26*
%TO.P,J3,2,Pin_2*%
%TO.N,GND*%
X120670001Y-124410000D03*
%TO.P,J3,3,Pin_3*%
%TO.N,SWD_IO*%
X123210000Y-124410000D03*
%TO.P,J3,4,Pin_4*%
%TO.N,+3V3*%
X125750001Y-124410000D03*
%TD*%
D16*
%TO.P,R4,1*%
%TO.N,LED_IDLE*%
X115037499Y-153005000D03*
%TO.P,R4,2*%
%TO.N,Net-(D2-A)*%
X116862499Y-153005000D03*
%TD*%
D27*
%TO.P,Y1,1,1*%
%TO.N,Net-(U1A-OSC_IN)*%
X110000000Y-104240000D03*
%TO.P,Y1,2,2*%
%TO.N,Net-(U1A-OSC_OUT)*%
X110000000Y-109120000D03*
%TD*%
D10*
%TO.P,D1,1,K*%
%TO.N,GND*%
X138585001Y-101180000D03*
%TO.P,D1,2,A*%
%TO.N,Net-(D1-A)*%
X140334999Y-101180000D03*
%TD*%
D29*
%TO.N,+3V3*%
X115777499Y-109990000D03*
X125690002Y-140880000D03*
X115777499Y-153990000D03*
X118524998Y-129040000D03*
X118524998Y-151040000D03*
X127462501Y-110320000D03*
X127462501Y-154320000D03*
X115777499Y-131990000D03*
X114620000Y-114942501D03*
X125690002Y-118880000D03*
X127462501Y-132320000D03*
X118524998Y-107040000D03*
X114620000Y-158942501D03*
X125690002Y-162880000D03*
X114620000Y-136942501D03*
%TO.N,GND*%
X135620000Y-138340000D03*
X114620000Y-113217499D03*
X135610000Y-131940000D03*
X113950000Y-150220000D03*
X114620000Y-157217499D03*
X124220000Y-110600000D03*
X120250000Y-151040000D03*
X135620000Y-160340000D03*
X123965000Y-162880000D03*
X130454998Y-128825002D03*
X135610000Y-153940000D03*
X123965000Y-140880000D03*
X128170000Y-128070000D03*
X124220000Y-132600000D03*
X123965000Y-118880000D03*
X128170000Y-106070000D03*
X113950000Y-106220000D03*
X114620000Y-135217499D03*
X120250000Y-129040000D03*
X129340000Y-101330000D03*
X130454998Y-150825002D03*
X135620000Y-116340000D03*
X120250000Y-107040000D03*
X129340000Y-123330000D03*
X124220000Y-154600000D03*
X135610000Y-109940000D03*
X129340000Y-145330000D03*
X128170000Y-150070000D03*
X113950000Y-128220000D03*
X130454998Y-106825002D03*
%TO.N,RESET*%
X119077101Y-157325000D03*
X119077101Y-113325000D03*
X119077101Y-135325000D03*
%TO.N,Net-(U1A-OSC_IN)*%
X112080000Y-105870000D03*
X112080000Y-149870000D03*
X112080000Y-127870000D03*
%TO.N,Net-(U1A-OSC_OUT)*%
X112080000Y-107502497D03*
X112080000Y-129502497D03*
X112080000Y-151502497D03*
%TO.N,BMP_IO*%
X119350000Y-158824999D03*
X110307500Y-113412500D03*
X119350000Y-136824999D03*
X119350000Y-114824999D03*
X110307500Y-135412500D03*
X110307500Y-157412500D03*
%TO.N,BMP_CLK*%
X107990000Y-114890000D03*
X107990000Y-136890000D03*
X107990000Y-158890000D03*
X118710000Y-119200000D03*
X118710000Y-141200000D03*
X118710000Y-163200000D03*
%TO.N,BOOT1*%
X122390000Y-118880000D03*
X122390000Y-140880000D03*
X122390000Y-162880000D03*
%TO.N,Net-(J2-D+-PadA6)*%
X133190000Y-156890000D03*
X133190000Y-134890000D03*
X133190000Y-112890000D03*
%TO.N,Net-(J2-D--PadA7)*%
X135480000Y-157390000D03*
X135480000Y-135390000D03*
X135480000Y-113390000D03*
%TO.N,Net-(J2-CC1)*%
X137107500Y-158470000D03*
X137107500Y-114470000D03*
X137107500Y-136470000D03*
%TO.N,Net-(J2-CC2)*%
X137107500Y-155370000D03*
X137107500Y-111370000D03*
X137107500Y-133370000D03*
%TO.N,Net-(U1A-PC14-OSC32_IN)*%
X119080000Y-133780000D03*
X119080000Y-111780000D03*
X119080000Y-155780000D03*
%TO.N,USB+*%
X130047500Y-157120000D03*
X130047500Y-135120000D03*
X130047500Y-113120000D03*
%TO.N,USB-*%
X130047500Y-158650000D03*
X130047500Y-136650000D03*
X130047500Y-114650000D03*
%TO.N,Net-(U1A-BOOT0)*%
X121830000Y-129040000D03*
X121830000Y-107040000D03*
X121830000Y-151040000D03*
%TO.N,LED_UART*%
X128760000Y-112310000D03*
X127087434Y-113585961D03*
X127087434Y-135585961D03*
X127087434Y-157585961D03*
X128760000Y-156310000D03*
X128760000Y-134310000D03*
%TD*%
D30*
%TO.N,+3V3*%
X130280000Y-148002501D02*
X127342502Y-148002501D01*
D31*
X124400001Y-139291400D02*
X124971400Y-139291400D01*
D30*
X127342502Y-104002501D02*
X125750001Y-102410000D01*
X132664099Y-104020000D02*
X130297499Y-104020000D01*
D32*
X137020000Y-128850000D02*
X138525000Y-128850000D01*
D30*
X130297499Y-148020000D02*
X130280000Y-148002501D01*
D31*
X124971400Y-161291400D02*
X125690002Y-162010002D01*
D32*
X132664099Y-126020000D02*
X134190000Y-126020000D01*
X134190000Y-104020000D02*
X137020000Y-106850000D01*
D31*
X116112499Y-132325000D02*
X115777499Y-131990000D01*
X116112499Y-154325000D02*
X115777499Y-153990000D01*
D30*
X130280000Y-126002501D02*
X127342502Y-126002501D01*
D31*
X118900001Y-108858600D02*
X118524998Y-108483597D01*
X117433601Y-136325000D02*
X115237501Y-136325000D01*
X118524998Y-130483597D02*
X118524998Y-129040000D01*
D32*
X134190000Y-148020000D02*
X137020000Y-150850000D01*
D31*
X118900001Y-152858600D02*
X118524998Y-152483597D01*
X125866401Y-154325000D02*
X127457501Y-154325000D01*
D30*
X132664099Y-126020000D02*
X130297499Y-126020000D01*
D31*
X125866401Y-110325000D02*
X127457501Y-110325000D01*
X124400001Y-161291400D02*
X124971400Y-161291400D01*
X118524998Y-108483597D02*
X118524998Y-107040000D01*
D30*
X130297499Y-104020000D02*
X130280000Y-104002501D01*
D31*
X117433601Y-132325000D02*
X116112499Y-132325000D01*
D32*
X134190000Y-126020000D02*
X137020000Y-128850000D01*
X127457501Y-110325000D02*
X127462501Y-110320000D01*
X132664099Y-104020000D02*
X134190000Y-104020000D01*
D31*
X124971400Y-117291400D02*
X125690002Y-118010002D01*
X125690002Y-140010002D02*
X125690002Y-140880000D01*
D32*
X137020000Y-150850000D02*
X138525000Y-150850000D01*
D31*
X125866401Y-132325000D02*
X127457501Y-132325000D01*
X125690002Y-162010002D02*
X125690002Y-162880000D01*
D32*
X137020000Y-106850000D02*
X138525000Y-106850000D01*
X132664099Y-148020000D02*
X134190000Y-148020000D01*
D31*
X118524998Y-152483597D02*
X118524998Y-151040000D01*
D30*
X132664099Y-148020000D02*
X130297499Y-148020000D01*
D31*
X125690002Y-118010002D02*
X125690002Y-118880000D01*
X124400001Y-117291400D02*
X124971400Y-117291400D01*
X115237501Y-114325000D02*
X114620000Y-114942501D01*
X117433601Y-110325000D02*
X116112499Y-110325000D01*
X115237501Y-136325000D02*
X114620000Y-136942501D01*
D30*
X127342502Y-126002501D02*
X125750001Y-124410000D01*
D31*
X117433601Y-158325000D02*
X115237501Y-158325000D01*
X118900001Y-130858600D02*
X118524998Y-130483597D01*
X117433601Y-154325000D02*
X116112499Y-154325000D01*
X115237501Y-158325000D02*
X114620000Y-158942501D01*
D32*
X127457501Y-132325000D02*
X127462501Y-132320000D01*
X127457501Y-154325000D02*
X127462501Y-154320000D01*
D30*
X127342502Y-148002501D02*
X125750001Y-146410000D01*
D31*
X124400001Y-117291400D02*
X124400001Y-117814999D01*
X116112499Y-110325000D02*
X115777499Y-109990000D01*
X124400001Y-161291400D02*
X124400001Y-161814999D01*
X124971400Y-139291400D02*
X125690002Y-140010002D01*
D30*
X130297499Y-126020000D02*
X130280000Y-126002501D01*
D31*
X124400001Y-139291400D02*
X124400001Y-139814999D01*
D30*
X130280000Y-104002501D02*
X127342502Y-104002501D01*
D31*
X117433601Y-114325000D02*
X115237501Y-114325000D01*
D30*
%TO.N,GND*%
X130280000Y-146270000D02*
X129340000Y-145330000D01*
X130827499Y-101730000D02*
X130280000Y-102277499D01*
D32*
X124444999Y-110824999D02*
X125866401Y-110824999D01*
D31*
X119400000Y-151890000D02*
X120250000Y-151040000D01*
X119400000Y-108858600D02*
X119400000Y-107890000D01*
D32*
X138585001Y-123180000D02*
X138035001Y-123730000D01*
X138585001Y-101180000D02*
X138035001Y-101730000D01*
D30*
X130280000Y-102270000D02*
X129340000Y-101330000D01*
X130280000Y-146277499D02*
X130280000Y-146270000D01*
D32*
X138035001Y-101730000D02*
X132664100Y-101730000D01*
X123900002Y-162815002D02*
X123965000Y-162880000D01*
D31*
X123900002Y-139291400D02*
X123900002Y-140815002D01*
D30*
X130827499Y-123730000D02*
X130280000Y-124277499D01*
D31*
X115227502Y-135825001D02*
X114620000Y-135217499D01*
D30*
X132664100Y-101730000D02*
X130827499Y-101730000D01*
D32*
X124444999Y-154824999D02*
X125866401Y-154824999D01*
X128164999Y-106075001D02*
X128164999Y-107390000D01*
D33*
X130454998Y-130050000D02*
X130454998Y-128825002D01*
D32*
X124220000Y-132600000D02*
X124444999Y-132824999D01*
X115120000Y-129390000D02*
X113950000Y-128220000D01*
D31*
X123900002Y-117291400D02*
X123900002Y-118815002D01*
X117433601Y-135825001D02*
X115227502Y-135825001D01*
X123900002Y-161291400D02*
X123900002Y-162815002D01*
D33*
X134340000Y-131940000D02*
X135610000Y-131940000D01*
D31*
X115227502Y-157825001D02*
X114620000Y-157217499D01*
D32*
X138035001Y-123730000D02*
X132664100Y-123730000D01*
X123900002Y-140815002D02*
X123965000Y-140880000D01*
X128164999Y-128075001D02*
X128164999Y-129390000D01*
D33*
X134340000Y-116340000D02*
X135620000Y-116340000D01*
X134340000Y-160340000D02*
X135620000Y-160340000D01*
D31*
X117433601Y-113825001D02*
X115227502Y-113825001D01*
X119400000Y-129890000D02*
X120250000Y-129040000D01*
X119400000Y-107890000D02*
X120250000Y-107040000D01*
X119400000Y-130858600D02*
X119400000Y-129890000D01*
D33*
X134340000Y-138340000D02*
X135620000Y-138340000D01*
D32*
X124444999Y-132824999D02*
X125866401Y-132824999D01*
X124220000Y-110600000D02*
X124444999Y-110824999D01*
X115120000Y-107390000D02*
X113950000Y-106220000D01*
D33*
X130454998Y-152050000D02*
X130454998Y-150825002D01*
X134340000Y-153940000D02*
X135610000Y-153940000D01*
D31*
X119400000Y-152858600D02*
X119400000Y-151890000D01*
D32*
X128170000Y-150070000D02*
X128164999Y-150075001D01*
D30*
X130280000Y-124277499D02*
X130280000Y-124270000D01*
D31*
X115227502Y-113825001D02*
X114620000Y-113217499D01*
D32*
X115120000Y-151390000D02*
X113950000Y-150220000D01*
D30*
X130280000Y-124270000D02*
X129340000Y-123330000D01*
D32*
X138035001Y-145730000D02*
X132664100Y-145730000D01*
X124220000Y-154600000D02*
X124444999Y-154824999D01*
X138585001Y-145180000D02*
X138035001Y-145730000D01*
D33*
X130454998Y-108050000D02*
X130454998Y-106825002D01*
D30*
X130827499Y-145730000D02*
X130280000Y-146277499D01*
D32*
X128170000Y-128070000D02*
X128164999Y-128075001D01*
D31*
X117433601Y-157825001D02*
X115227502Y-157825001D01*
D30*
X132664100Y-145730000D02*
X130827499Y-145730000D01*
X132664100Y-123730000D02*
X130827499Y-123730000D01*
X130280000Y-102277499D02*
X130280000Y-102270000D01*
D32*
X128170000Y-106070000D02*
X128164999Y-106075001D01*
X128164999Y-150075001D02*
X128164999Y-151390000D01*
D33*
X134340000Y-109940000D02*
X135610000Y-109940000D01*
D32*
X123900002Y-118815002D02*
X123965000Y-118880000D01*
%TO.N,RESET*%
X117433601Y-157325000D02*
X119077101Y-157325000D01*
X117433601Y-135325000D02*
X119077101Y-135325000D01*
X117433601Y-113325000D02*
X119077101Y-113325000D01*
D33*
%TO.N,+5V*%
X134340000Y-132740000D02*
X133260000Y-132740000D01*
X133260000Y-132740000D02*
X132180000Y-131660000D01*
X133020000Y-159540000D02*
X132180000Y-158700000D01*
X132180000Y-128794100D02*
X132664100Y-128310000D01*
X133260000Y-154740000D02*
X132180000Y-153660000D01*
X134340000Y-115540000D02*
X133020000Y-115540000D01*
X132180000Y-158700000D02*
X132180000Y-152050000D01*
X132180000Y-152050000D02*
X132180000Y-150794100D01*
X133020000Y-137540000D02*
X132180000Y-136700000D01*
X134340000Y-154740000D02*
X133260000Y-154740000D01*
X132180000Y-109660000D02*
X132180000Y-109154999D01*
X132180000Y-108050000D02*
X132180000Y-106794100D01*
X132180000Y-130050000D02*
X132180000Y-128794100D01*
X133260000Y-110740000D02*
X132180000Y-109660000D01*
X132180000Y-131660000D02*
X132180000Y-131154999D01*
X132180000Y-114700000D02*
X132180000Y-108050000D01*
X134340000Y-137540000D02*
X133020000Y-137540000D01*
X132180000Y-153660000D02*
X132180000Y-153154999D01*
X132180000Y-136700000D02*
X132180000Y-130050000D01*
X133020000Y-115540000D02*
X132180000Y-114700000D01*
X134340000Y-110740000D02*
X133260000Y-110740000D01*
X132180000Y-106794100D02*
X132664100Y-106310000D01*
X132180000Y-150794100D02*
X132664100Y-150310000D01*
X134340000Y-159540000D02*
X133020000Y-159540000D01*
D32*
%TO.N,Net-(U1A-OSC_IN)*%
X113270000Y-107060000D02*
X112080000Y-105870000D01*
X117433601Y-134324999D02*
X115774999Y-134324999D01*
X113270000Y-153820000D02*
X113270000Y-151060000D01*
X113270000Y-151060000D02*
X112080000Y-149870000D01*
X117433601Y-156324999D02*
X115774999Y-156324999D01*
X115774999Y-112324999D02*
X113270000Y-109820000D01*
X115774999Y-156324999D02*
X113270000Y-153820000D01*
X113270000Y-129060000D02*
X112080000Y-127870000D01*
X117433601Y-112324999D02*
X115774999Y-112324999D01*
X113270000Y-131820000D02*
X113270000Y-129060000D01*
X113270000Y-109820000D02*
X113270000Y-107060000D01*
X115774999Y-134324999D02*
X113270000Y-131820000D01*
%TO.N,Net-(U1A-OSC_OUT)*%
X115375000Y-112825000D02*
X112080000Y-109530000D01*
X112080000Y-153530000D02*
X112080000Y-151502497D01*
X115375000Y-156825000D02*
X112080000Y-153530000D01*
X117433601Y-112825000D02*
X115375000Y-112825000D01*
X115375000Y-134825000D02*
X112080000Y-131530000D01*
X117433601Y-156825000D02*
X115375000Y-156825000D01*
X112080000Y-131530000D02*
X112080000Y-129502497D01*
X112080000Y-109530000D02*
X112080000Y-107502497D01*
X117433601Y-134825000D02*
X115375000Y-134825000D01*
%TO.N,Net-(D1-A)*%
X140350000Y-101195001D02*
X140334999Y-101180000D01*
X140350000Y-123195001D02*
X140334999Y-123180000D01*
X140350000Y-106850000D02*
X140350000Y-101195001D01*
X140350000Y-145195001D02*
X140334999Y-145180000D01*
X140350000Y-128850000D02*
X140350000Y-123195001D01*
X140350000Y-150850000D02*
X140350000Y-145195001D01*
%TO.N,BMP_IO*%
X110307500Y-135412500D02*
X103145000Y-128250000D01*
X119350000Y-136824999D02*
X125866401Y-136824999D01*
X119350000Y-114824999D02*
X125866401Y-114824999D01*
X119350000Y-158824999D02*
X125866401Y-158824999D01*
X110307500Y-157412500D02*
X103145000Y-150250000D01*
X110307500Y-113412500D02*
X103145000Y-106250000D01*
%TO.N,BMP_CLK*%
X119900002Y-117291400D02*
X119900002Y-118569998D01*
X107990000Y-136890000D02*
X107990000Y-135595000D01*
X107990000Y-157595000D02*
X103145000Y-152750000D01*
X107990000Y-135595000D02*
X103145000Y-130750000D01*
X119270000Y-163200000D02*
X118710000Y-163200000D01*
X119900002Y-140569998D02*
X119270000Y-141200000D01*
X119900002Y-161291400D02*
X119900002Y-162569998D01*
X119270000Y-141200000D02*
X118710000Y-141200000D01*
X119900002Y-139291400D02*
X119900002Y-140569998D01*
X119900002Y-118569998D02*
X119270000Y-119200000D01*
X107990000Y-114890000D02*
X107990000Y-113595000D01*
X119900002Y-162569998D02*
X119270000Y-163200000D01*
X107990000Y-158890000D02*
X107990000Y-157595000D01*
X119270000Y-119200000D02*
X118710000Y-119200000D01*
X107990000Y-113595000D02*
X103145000Y-108750000D01*
%TO.N,BMP_RX*%
X103145000Y-138250000D02*
X104186400Y-139291400D01*
X104186400Y-161291400D02*
X118900001Y-161291400D01*
X103145000Y-116250000D02*
X104186400Y-117291400D01*
X104186400Y-117291400D02*
X118900001Y-117291400D01*
X104186400Y-139291400D02*
X118900001Y-139291400D01*
X103145000Y-160250000D02*
X104186400Y-161291400D01*
%TO.N,BMP_TX*%
X117433601Y-159825000D02*
X105220000Y-159825000D01*
X105220000Y-115825000D02*
X103145000Y-113750000D01*
X117433601Y-137825000D02*
X105220000Y-137825000D01*
X105220000Y-159825000D02*
X103145000Y-157750000D01*
X117433601Y-115825000D02*
X105220000Y-115825000D01*
X105220000Y-137825000D02*
X103145000Y-135750000D01*
%TO.N,BOOT1*%
X122400002Y-140869998D02*
X122390000Y-140880000D01*
X122400002Y-139291400D02*
X122400002Y-140869998D01*
X122400002Y-117291400D02*
X122400002Y-118869998D01*
X122400002Y-161291400D02*
X122400002Y-162869998D01*
X122400002Y-162869998D02*
X122390000Y-162880000D01*
X122400002Y-118869998D02*
X122390000Y-118880000D01*
%TO.N,Net-(J2-D+-PadA6)*%
X133190000Y-113050000D02*
X133530000Y-113390000D01*
X133530000Y-135390000D02*
X134340000Y-135390000D01*
X133190000Y-112890000D02*
X133190000Y-113050000D01*
X134340000Y-112390000D02*
X133520000Y-112390000D01*
X134340000Y-156390000D02*
X133520000Y-156390000D01*
X133520000Y-156390000D02*
X133190000Y-156720000D01*
X133190000Y-134720000D02*
X133190000Y-134890000D01*
X133520000Y-112390000D02*
X133190000Y-112720000D01*
X133190000Y-156890000D02*
X133190000Y-157050000D01*
X133530000Y-113390000D02*
X134340000Y-113390000D01*
X133190000Y-112720000D02*
X133190000Y-112890000D01*
X133190000Y-134890000D02*
X133190000Y-135050000D01*
X133530000Y-157390000D02*
X134340000Y-157390000D01*
X134340000Y-134390000D02*
X133520000Y-134390000D01*
X133190000Y-135050000D02*
X133530000Y-135390000D01*
X133190000Y-156720000D02*
X133190000Y-156890000D01*
X133520000Y-134390000D02*
X133190000Y-134720000D01*
X133190000Y-157050000D02*
X133530000Y-157390000D01*
%TO.N,Net-(J2-D--PadA7)*%
X135150000Y-156890000D02*
X135480000Y-157220000D01*
X135480000Y-157560000D02*
X135150000Y-157890000D01*
X135480000Y-135220000D02*
X135480000Y-135390000D01*
X135150000Y-113890000D02*
X134340000Y-113890000D01*
X134340000Y-112890000D02*
X135150000Y-112890000D01*
X135480000Y-113220000D02*
X135480000Y-113390000D01*
X135480000Y-157220000D02*
X135480000Y-157390000D01*
X135480000Y-157390000D02*
X135480000Y-157560000D01*
X135150000Y-157890000D02*
X134340000Y-157890000D01*
X135480000Y-113560000D02*
X135150000Y-113890000D01*
X135150000Y-112890000D02*
X135480000Y-113220000D01*
X135150000Y-135890000D02*
X134340000Y-135890000D01*
X135150000Y-134890000D02*
X135480000Y-135220000D01*
X135480000Y-135560000D02*
X135150000Y-135890000D01*
X135480000Y-135390000D02*
X135480000Y-135560000D01*
X134340000Y-134890000D02*
X135150000Y-134890000D01*
X134340000Y-156890000D02*
X135150000Y-156890000D01*
X135480000Y-113390000D02*
X135480000Y-113560000D01*
%TO.N,Net-(J2-CC1)*%
X134340001Y-114390000D02*
X137027500Y-114390000D01*
X137027500Y-114390000D02*
X137107500Y-114470000D01*
X137027500Y-158390000D02*
X137107500Y-158470000D01*
X134340001Y-158390000D02*
X137027500Y-158390000D01*
X137027500Y-136390000D02*
X137107500Y-136470000D01*
X134340001Y-136390000D02*
X137027500Y-136390000D01*
%TO.N,Net-(J2-CC2)*%
X137087500Y-111390000D02*
X137107500Y-111370000D01*
X137087500Y-133390000D02*
X137107500Y-133370000D01*
X134340000Y-133390000D02*
X137087500Y-133390000D01*
X137087500Y-155390000D02*
X137107500Y-155370000D01*
X134340000Y-155390000D02*
X137087500Y-155390000D01*
X134340000Y-111390000D02*
X137087500Y-111390000D01*
%TO.N,Net-(U1A-PC14-OSC32_IN)*%
X117433601Y-133325001D02*
X118625001Y-133325001D01*
X118625001Y-155325001D02*
X119080000Y-155780000D01*
X118625001Y-133325001D02*
X119080000Y-133780000D01*
X117433601Y-111325001D02*
X118625001Y-111325001D01*
X117433601Y-155325001D02*
X118625001Y-155325001D01*
X118625001Y-111325001D02*
X119080000Y-111780000D01*
%TO.N,USB+*%
X126839101Y-155825000D02*
X128134101Y-157120000D01*
X125866401Y-111825000D02*
X126839101Y-111825000D01*
X128134101Y-157120000D02*
X130047500Y-157120000D01*
X126839101Y-111825000D02*
X128134101Y-113120000D01*
X128134101Y-113120000D02*
X130047500Y-113120000D01*
X125866401Y-133825000D02*
X126839101Y-133825000D01*
X125866401Y-155825000D02*
X126839101Y-155825000D01*
X126839101Y-133825000D02*
X128134101Y-135120000D01*
X128134101Y-135120000D02*
X130047500Y-135120000D01*
%TO.N,USB-*%
X126674999Y-156324999D02*
X129000000Y-158650000D01*
X129000000Y-114650000D02*
X130047500Y-114650000D01*
X126674999Y-112324999D02*
X129000000Y-114650000D01*
X125866401Y-134324999D02*
X126674999Y-134324999D01*
X125866401Y-156324999D02*
X126674999Y-156324999D01*
X125866401Y-112324999D02*
X126674999Y-112324999D01*
X129000000Y-136650000D02*
X130047500Y-136650000D01*
X129000000Y-158650000D02*
X130047500Y-158650000D01*
X126674999Y-134324999D02*
X129000000Y-136650000D01*
%TO.N,Net-(D3-A)*%
X126422500Y-131020000D02*
X126422500Y-129397499D01*
X126422500Y-151397499D02*
X126415001Y-151390000D01*
X126422500Y-129397499D02*
X126415001Y-129390000D01*
X126422500Y-153020000D02*
X126422500Y-151397499D01*
X126422500Y-107397499D02*
X126415001Y-107390000D01*
X126422500Y-109020000D02*
X126422500Y-107397499D01*
%TO.N,Net-(U1A-BOOT0)*%
X120900000Y-108858600D02*
X120900000Y-107970000D01*
X120900000Y-130858600D02*
X120900000Y-129970000D01*
X120900000Y-151970000D02*
X121830000Y-151040000D01*
X120900000Y-129970000D02*
X121830000Y-129040000D01*
X120900000Y-107970000D02*
X121830000Y-107040000D01*
X120900000Y-152858600D02*
X120900000Y-151970000D01*
%TO.N,SWD_CLK*%
X124400001Y-149297101D02*
X123172900Y-148070000D01*
X118700000Y-126070000D02*
X118130001Y-125500001D01*
X118130001Y-103500001D02*
X118130001Y-102410000D01*
X123172900Y-126070000D02*
X118700000Y-126070000D01*
X123172900Y-148070000D02*
X118700000Y-148070000D01*
X118130001Y-125500001D02*
X118130001Y-124410000D01*
X118700000Y-148070000D02*
X118130001Y-147500001D01*
X124400001Y-127297101D02*
X123172900Y-126070000D01*
X124400001Y-105297101D02*
X123172900Y-104070000D01*
X118130001Y-147500001D02*
X118130001Y-146410000D01*
X118700000Y-104070000D02*
X118130001Y-103500001D01*
X123172900Y-104070000D02*
X118700000Y-104070000D01*
X124400001Y-130858600D02*
X124400001Y-127297101D01*
X124400001Y-108858600D02*
X124400001Y-105297101D01*
X124400001Y-152858600D02*
X124400001Y-149297101D01*
%TO.N,SWD_IO*%
X123200000Y-132320000D02*
X123200000Y-132960000D01*
X123210000Y-124410000D02*
X123210000Y-125540000D01*
X125000000Y-131720000D02*
X124740000Y-131980000D01*
X123200000Y-132960000D02*
X123565001Y-133325001D01*
X123565001Y-155325001D02*
X125866401Y-155325001D01*
X125000000Y-109720000D02*
X124740000Y-109980000D01*
X123200000Y-154320000D02*
X123200000Y-154960000D01*
X125000000Y-153720000D02*
X124740000Y-153980000D01*
X124740000Y-153980000D02*
X123540000Y-153980000D01*
X123210000Y-103540000D02*
X125000000Y-105330000D01*
X123200000Y-154960000D02*
X123565001Y-155325001D01*
X123540000Y-109980000D02*
X123200000Y-110320000D01*
X123210000Y-102410000D02*
X123210000Y-103540000D01*
X123210000Y-146410000D02*
X123210000Y-147540000D01*
X123540000Y-153980000D02*
X123200000Y-154320000D01*
X123565001Y-133325001D02*
X125866401Y-133325001D01*
X123540000Y-131980000D02*
X123200000Y-132320000D01*
X125000000Y-105330000D02*
X125000000Y-109720000D01*
X123200000Y-110320000D02*
X123200000Y-110960000D01*
X123210000Y-147540000D02*
X125000000Y-149330000D01*
X125000000Y-149330000D02*
X125000000Y-153720000D01*
X124740000Y-131980000D02*
X123540000Y-131980000D01*
X123210000Y-125540000D02*
X125000000Y-127330000D01*
X123565001Y-111325001D02*
X125866401Y-111325001D01*
X124740000Y-109980000D02*
X123540000Y-109980000D01*
X123200000Y-110960000D02*
X123565001Y-111325001D01*
X125000000Y-127330000D02*
X125000000Y-131720000D01*
%TO.N,LED_IDLE*%
X115544999Y-132824999D02*
X115037499Y-132317499D01*
X115544999Y-110824999D02*
X115037499Y-110317499D01*
X117433601Y-154824999D02*
X115544999Y-154824999D01*
X115037499Y-154317499D02*
X115037499Y-153005000D01*
X117433601Y-110824999D02*
X115544999Y-110824999D01*
X115037499Y-132317499D02*
X115037499Y-131005000D01*
X115544999Y-154824999D02*
X115037499Y-154317499D01*
X115037499Y-110317499D02*
X115037499Y-109005000D01*
X117433601Y-132824999D02*
X115544999Y-132824999D01*
%TO.N,LED_UART*%
X126826473Y-113325000D02*
X127087434Y-113585961D01*
X126826473Y-157325000D02*
X127087434Y-157585961D01*
X126826473Y-135325000D02*
X127087434Y-135585961D01*
X128760000Y-134310000D02*
X128760000Y-131532500D01*
X128760000Y-131532500D02*
X128247500Y-131020000D01*
X128760000Y-156310000D02*
X128760000Y-153532500D01*
X128760000Y-153532500D02*
X128247500Y-153020000D01*
X128760000Y-109532500D02*
X128247500Y-109020000D01*
X125866401Y-113325000D02*
X126826473Y-113325000D01*
X125866401Y-157325000D02*
X126826473Y-157325000D01*
X128760000Y-112310000D02*
X128760000Y-109532500D01*
X125866401Y-135325000D02*
X126826473Y-135325000D01*
%TO.N,Net-(D2-A)*%
X116862499Y-109005000D02*
X116862499Y-107397499D01*
X116862499Y-129397499D02*
X116869998Y-129390000D01*
X116862499Y-131005000D02*
X116862499Y-129397499D01*
X116862499Y-153005000D02*
X116862499Y-151397499D01*
X116862499Y-107397499D02*
X116869998Y-107390000D01*
X116862499Y-151397499D02*
X116869998Y-151390000D01*
%TD*%
M02*
