%TF.GenerationSoftware,KiCad,Pcbnew,9.0.1*%
%TF.CreationDate,2026-02-28T19:10:04+07:00*%
%TF.ProjectId,BMP_Bluepill,424d505f-426c-4756-9570-696c6c2e6b69,rev?*%
%TF.SameCoordinates,Original*%
%TF.FileFunction,Drillmap*%
%TF.FilePolarity,Positive*%
%FSLAX45Y45*%
G04 Gerber Fmt 4.5, Leading zero omitted, Abs format (unit mm)*
G04 Created by KiCad (PCBNEW 9.0.1) date 2026-02-28 19:10:04*
%MOMM*%
%LPD*%
G01*
G04 APERTURE LIST*
%ADD10C,0.050000*%
%ADD11C,0.200000*%
G04 APERTURE END LIST*
D10*
X5853000Y-9264000D02*
X10082000Y-9264000D01*
X10082000Y-15664000D01*
X5853000Y-15664000D01*
X5853000Y-9264000D01*
X6053000Y-11264000D02*
X9882000Y-11264000D01*
X9882000Y-11464000D01*
X6053000Y-11464000D01*
X6053000Y-11264000D01*
X6053000Y-13464000D02*
X9882000Y-13464000D01*
X9882000Y-13664000D01*
X6053000Y-13664000D01*
X6053000Y-13464000D01*
D11*
X6111277Y-15977984D02*
X6111277Y-15777984D01*
X6111277Y-15777984D02*
X6158896Y-15777984D01*
X6158896Y-15777984D02*
X6187467Y-15787508D01*
X6187467Y-15787508D02*
X6206515Y-15806555D01*
X6206515Y-15806555D02*
X6216039Y-15825603D01*
X6216039Y-15825603D02*
X6225562Y-15863698D01*
X6225562Y-15863698D02*
X6225562Y-15892269D01*
X6225562Y-15892269D02*
X6216039Y-15930365D01*
X6216039Y-15930365D02*
X6206515Y-15949412D01*
X6206515Y-15949412D02*
X6187467Y-15968460D01*
X6187467Y-15968460D02*
X6158896Y-15977984D01*
X6158896Y-15977984D02*
X6111277Y-15977984D01*
X6311277Y-15977984D02*
X6311277Y-15844650D01*
X6311277Y-15882746D02*
X6320801Y-15863698D01*
X6320801Y-15863698D02*
X6330324Y-15854174D01*
X6330324Y-15854174D02*
X6349372Y-15844650D01*
X6349372Y-15844650D02*
X6368420Y-15844650D01*
X6435086Y-15977984D02*
X6435086Y-15844650D01*
X6435086Y-15777984D02*
X6425562Y-15787508D01*
X6425562Y-15787508D02*
X6435086Y-15797031D01*
X6435086Y-15797031D02*
X6444610Y-15787508D01*
X6444610Y-15787508D02*
X6435086Y-15777984D01*
X6435086Y-15777984D02*
X6435086Y-15797031D01*
X6558896Y-15977984D02*
X6539848Y-15968460D01*
X6539848Y-15968460D02*
X6530324Y-15949412D01*
X6530324Y-15949412D02*
X6530324Y-15777984D01*
X6663658Y-15977984D02*
X6644610Y-15968460D01*
X6644610Y-15968460D02*
X6635086Y-15949412D01*
X6635086Y-15949412D02*
X6635086Y-15777984D01*
X6892229Y-15977984D02*
X6892229Y-15777984D01*
X6892229Y-15777984D02*
X6958896Y-15920841D01*
X6958896Y-15920841D02*
X7025562Y-15777984D01*
X7025562Y-15777984D02*
X7025562Y-15977984D01*
X7206515Y-15977984D02*
X7206515Y-15873222D01*
X7206515Y-15873222D02*
X7196991Y-15854174D01*
X7196991Y-15854174D02*
X7177943Y-15844650D01*
X7177943Y-15844650D02*
X7139848Y-15844650D01*
X7139848Y-15844650D02*
X7120801Y-15854174D01*
X7206515Y-15968460D02*
X7187467Y-15977984D01*
X7187467Y-15977984D02*
X7139848Y-15977984D01*
X7139848Y-15977984D02*
X7120801Y-15968460D01*
X7120801Y-15968460D02*
X7111277Y-15949412D01*
X7111277Y-15949412D02*
X7111277Y-15930365D01*
X7111277Y-15930365D02*
X7120801Y-15911317D01*
X7120801Y-15911317D02*
X7139848Y-15901793D01*
X7139848Y-15901793D02*
X7187467Y-15901793D01*
X7187467Y-15901793D02*
X7206515Y-15892269D01*
X7301753Y-15844650D02*
X7301753Y-16044650D01*
X7301753Y-15854174D02*
X7320801Y-15844650D01*
X7320801Y-15844650D02*
X7358896Y-15844650D01*
X7358896Y-15844650D02*
X7377943Y-15854174D01*
X7377943Y-15854174D02*
X7387467Y-15863698D01*
X7387467Y-15863698D02*
X7396991Y-15882746D01*
X7396991Y-15882746D02*
X7396991Y-15939888D01*
X7396991Y-15939888D02*
X7387467Y-15958936D01*
X7387467Y-15958936D02*
X7377943Y-15968460D01*
X7377943Y-15968460D02*
X7358896Y-15977984D01*
X7358896Y-15977984D02*
X7320801Y-15977984D01*
X7320801Y-15977984D02*
X7301753Y-15968460D01*
X7482705Y-15958936D02*
X7492229Y-15968460D01*
X7492229Y-15968460D02*
X7482705Y-15977984D01*
X7482705Y-15977984D02*
X7473182Y-15968460D01*
X7473182Y-15968460D02*
X7482705Y-15958936D01*
X7482705Y-15958936D02*
X7482705Y-15977984D01*
X7482705Y-15854174D02*
X7492229Y-15863698D01*
X7492229Y-15863698D02*
X7482705Y-15873222D01*
X7482705Y-15873222D02*
X7473182Y-15863698D01*
X7473182Y-15863698D02*
X7482705Y-15854174D01*
X7482705Y-15854174D02*
X7482705Y-15873222D01*
M02*
