%TF.GenerationSoftware,KiCad,Pcbnew,9.0.1*%
%TF.CreationDate,2026-03-03T23:35:58+07:00*%
%TF.ProjectId,BMP_Bluepill,424d505f-426c-4756-9570-696c6c2e6b69,rev?*%
%TF.SameCoordinates,Original*%
%TF.FileFunction,Soldermask,Bot*%
%TF.FilePolarity,Negative*%
%FSLAX46Y46*%
G04 Gerber Fmt 4.6, Leading zero omitted, Abs format (unit mm)*
G04 Created by KiCad (PCBNEW 9.0.1) date 2026-03-03 23:35:58*
%MOMM*%
%LPD*%
G01*
G04 APERTURE LIST*
G04 Aperture macros list*
%AMRoundRect*
0 Rectangle with rounded corners*
0 $1 Rounding radius*
0 $2 $3 $4 $5 $6 $7 $8 $9 X,Y pos of 4 corners*
0 Add a 4 corners polygon primitive as box body*
4,1,4,$2,$3,$4,$5,$6,$7,$8,$9,$2,$3,0*
0 Add four circle primitives for the rounded corners*
1,1,$1+$1,$2,$3*
1,1,$1+$1,$4,$5*
1,1,$1+$1,$6,$7*
1,1,$1+$1,$8,$9*
0 Add four rect primitives between the rounded corners*
20,1,$1+$1,$2,$3,$4,$5,0*
20,1,$1+$1,$4,$5,$6,$7,0*
20,1,$1+$1,$6,$7,$8,$9,0*
20,1,$1+$1,$8,$9,$2,$3,0*%
G04 Aperture macros list end*
%ADD10RoundRect,0.250000X0.725000X-0.600000X0.725000X0.600000X-0.725000X0.600000X-0.725000X-0.600000X0*%
%ADD11O,1.950000X1.700000*%
%ADD12O,2.100000X1.000000*%
%ADD13O,1.800000X1.000000*%
%ADD14R,1.700000X1.700000*%
%ADD15C,1.700000*%
%ADD16C,1.500000*%
%ADD17RoundRect,0.237500X-0.237500X0.300000X-0.237500X-0.300000X0.237500X-0.300000X0.237500X0.300000X0*%
%ADD18RoundRect,0.237500X-0.250000X-0.237500X0.250000X-0.237500X0.250000X0.237500X-0.250000X0.237500X0*%
%ADD19RoundRect,0.237500X0.250000X0.237500X-0.250000X0.237500X-0.250000X-0.237500X0.250000X-0.237500X0*%
%ADD20RoundRect,0.237500X0.237500X-0.300000X0.237500X0.300000X-0.237500X0.300000X-0.237500X-0.300000X0*%
%ADD21RoundRect,0.237500X-0.300000X-0.237500X0.300000X-0.237500X0.300000X0.237500X-0.300000X0.237500X0*%
%ADD22RoundRect,0.237500X0.300000X0.237500X-0.300000X0.237500X-0.300000X-0.237500X0.300000X-0.237500X0*%
G04 APERTURE END LIST*
D10*
%TO.C,J1*%
X103145000Y-160250000D03*
D11*
X103145000Y-157750000D03*
X103145000Y-155250000D03*
X103145000Y-152750000D03*
X103145000Y-150250000D03*
X103145000Y-147750000D03*
%TD*%
D10*
%TO.C,J1*%
X103145000Y-138250000D03*
D11*
X103145000Y-135750000D03*
X103145000Y-133250000D03*
X103145000Y-130750000D03*
X103145000Y-128250000D03*
X103145000Y-125750000D03*
%TD*%
D12*
%TO.C,J2*%
X134915000Y-139460000D03*
D13*
X139095000Y-139460000D03*
D12*
X134915000Y-130820000D03*
D13*
X139095000Y-130820000D03*
%TD*%
D10*
%TO.C,J1*%
X103145000Y-116250000D03*
D11*
X103145000Y-113750000D03*
X103145000Y-111250000D03*
X103145000Y-108750000D03*
X103145000Y-106250000D03*
X103145000Y-103750000D03*
%TD*%
D14*
%TO.C,J3*%
X118130001Y-146410000D03*
D15*
X120670001Y-146410000D03*
X123210000Y-146410000D03*
X125750001Y-146410000D03*
%TD*%
D16*
%TO.C,Y1*%
X110000000Y-148240000D03*
X110000000Y-153120000D03*
%TD*%
D12*
%TO.C,J2*%
X134915000Y-117460000D03*
D13*
X139095000Y-117460000D03*
D12*
X134915000Y-108820000D03*
D13*
X139095000Y-108820000D03*
%TD*%
D16*
%TO.C,Y1*%
X110000000Y-126240000D03*
X110000000Y-131120000D03*
%TD*%
D14*
%TO.C,J3*%
X118130001Y-102410000D03*
D15*
X120670001Y-102410000D03*
X123210000Y-102410000D03*
X125750001Y-102410000D03*
%TD*%
D12*
%TO.C,J2*%
X134915000Y-161460000D03*
D13*
X139095000Y-161460000D03*
D12*
X134915000Y-152820000D03*
D13*
X139095000Y-152820000D03*
%TD*%
D14*
%TO.C,J3*%
X118130001Y-124410000D03*
D15*
X120670001Y-124410000D03*
X123210000Y-124410000D03*
X125750001Y-124410000D03*
%TD*%
D16*
%TO.C,Y1*%
X110000000Y-104240000D03*
X110000000Y-109120000D03*
%TD*%
D17*
%TO.C,C14*%
X112080000Y-151502497D03*
X112080000Y-153227499D03*
%TD*%
D18*
%TO.C,R5*%
X117255000Y-133780000D03*
X119080000Y-133780000D03*
%TD*%
D19*
%TO.C,R17*%
X131872500Y-158650000D03*
X130047500Y-158650000D03*
%TD*%
D18*
%TO.C,R12*%
X130047500Y-133590000D03*
X131872500Y-133590000D03*
%TD*%
D19*
%TO.C,R19*%
X138932500Y-111370000D03*
X137107500Y-111370000D03*
%TD*%
D20*
%TO.C,C5*%
X114620000Y-158942501D03*
X114620000Y-157217499D03*
%TD*%
D19*
%TO.C,R19*%
X138932500Y-155370000D03*
X137107500Y-155370000D03*
%TD*%
D20*
%TO.C,C13*%
X112080000Y-149870000D03*
X112080000Y-148144998D03*
%TD*%
D19*
%TO.C,R16*%
X131872500Y-113120000D03*
X130047500Y-113120000D03*
%TD*%
D21*
%TO.C,C2*%
X115777499Y-131990000D03*
X117502501Y-131990000D03*
%TD*%
D18*
%TO.C,R12*%
X130047500Y-111590000D03*
X131872500Y-111590000D03*
%TD*%
D22*
%TO.C,C4*%
X125690002Y-140880000D03*
X123965000Y-140880000D03*
%TD*%
D19*
%TO.C,R18*%
X138932500Y-136470000D03*
X137107500Y-136470000D03*
%TD*%
D20*
%TO.C,C13*%
X112080000Y-127870000D03*
X112080000Y-126144998D03*
%TD*%
D21*
%TO.C,C3*%
X118524998Y-129040000D03*
X120250000Y-129040000D03*
%TD*%
D19*
%TO.C,R16*%
X131872500Y-157120000D03*
X130047500Y-157120000D03*
%TD*%
D21*
%TO.C,C3*%
X118524998Y-151040000D03*
X120250000Y-151040000D03*
%TD*%
D19*
%TO.C,R8*%
X123655000Y-151040000D03*
X121830000Y-151040000D03*
%TD*%
%TO.C,R8*%
X123655000Y-129040000D03*
X121830000Y-129040000D03*
%TD*%
D22*
%TO.C,C1*%
X127462501Y-132320000D03*
X125737499Y-132320000D03*
%TD*%
D20*
%TO.C,C13*%
X112080000Y-105870000D03*
X112080000Y-104144998D03*
%TD*%
D22*
%TO.C,C1*%
X127462501Y-110320000D03*
X125737499Y-110320000D03*
%TD*%
D19*
%TO.C,R18*%
X138932500Y-158470000D03*
X137107500Y-158470000D03*
%TD*%
%TO.C,R17*%
X131872500Y-114650000D03*
X130047500Y-114650000D03*
%TD*%
D20*
%TO.C,C5*%
X114620000Y-114942501D03*
X114620000Y-113217499D03*
%TD*%
D19*
%TO.C,R3*%
X119077101Y-157325000D03*
X117252101Y-157325000D03*
%TD*%
D18*
%TO.C,R7*%
X120565000Y-118880000D03*
X122390000Y-118880000D03*
%TD*%
D17*
%TO.C,C14*%
X112080000Y-107502497D03*
X112080000Y-109227499D03*
%TD*%
%TO.C,C14*%
X112080000Y-129502497D03*
X112080000Y-131227499D03*
%TD*%
D19*
%TO.C,R17*%
X131872500Y-136650000D03*
X130047500Y-136650000D03*
%TD*%
D18*
%TO.C,R5*%
X117255000Y-111780000D03*
X119080000Y-111780000D03*
%TD*%
D19*
%TO.C,R3*%
X119077101Y-113325000D03*
X117252101Y-113325000D03*
%TD*%
D22*
%TO.C,C4*%
X125690002Y-162880000D03*
X123965000Y-162880000D03*
%TD*%
D21*
%TO.C,C3*%
X118524998Y-107040000D03*
X120250000Y-107040000D03*
%TD*%
D18*
%TO.C,R12*%
X130047500Y-155590000D03*
X131872500Y-155590000D03*
%TD*%
D21*
%TO.C,C2*%
X115777499Y-153990000D03*
X117502501Y-153990000D03*
%TD*%
D18*
%TO.C,R7*%
X120565000Y-162880000D03*
X122390000Y-162880000D03*
%TD*%
D19*
%TO.C,R3*%
X119077101Y-135325000D03*
X117252101Y-135325000D03*
%TD*%
D21*
%TO.C,C2*%
X115777499Y-109990000D03*
X117502501Y-109990000D03*
%TD*%
D19*
%TO.C,R19*%
X138932500Y-133370000D03*
X137107500Y-133370000D03*
%TD*%
D22*
%TO.C,C4*%
X125690002Y-118880000D03*
X123965000Y-118880000D03*
%TD*%
D18*
%TO.C,R5*%
X117255000Y-155780000D03*
X119080000Y-155780000D03*
%TD*%
D19*
%TO.C,R16*%
X131872500Y-135120000D03*
X130047500Y-135120000D03*
%TD*%
D18*
%TO.C,R7*%
X120565000Y-140880000D03*
X122390000Y-140880000D03*
%TD*%
D22*
%TO.C,C1*%
X127462501Y-154320000D03*
X125737499Y-154320000D03*
%TD*%
D19*
%TO.C,R8*%
X123655000Y-107040000D03*
X121830000Y-107040000D03*
%TD*%
%TO.C,R18*%
X138932500Y-114470000D03*
X137107500Y-114470000D03*
%TD*%
D20*
%TO.C,C5*%
X114620000Y-136942501D03*
X114620000Y-135217499D03*
%TD*%
M02*
