%TF.GenerationSoftware,KiCad,Pcbnew,9.0.1*%
%TF.CreationDate,2026-03-03T23:35:58+07:00*%
%TF.ProjectId,BMP_Bluepill,424d505f-426c-4756-9570-696c6c2e6b69,rev?*%
%TF.SameCoordinates,Original*%
%TF.FileFunction,Copper,L2,Bot*%
%TF.FilePolarity,Positive*%
%FSLAX46Y46*%
G04 Gerber Fmt 4.6, Leading zero omitted, Abs format (unit mm)*
G04 Created by KiCad (PCBNEW 9.0.1) date 2026-03-03 23:35:58*
%MOMM*%
%LPD*%
G01*
G04 APERTURE LIST*
G04 Aperture macros list*
%AMRoundRect*
0 Rectangle with rounded corners*
0 $1 Rounding radius*
0 $2 $3 $4 $5 $6 $7 $8 $9 X,Y pos of 4 corners*
0 Add a 4 corners polygon primitive as box body*
4,1,4,$2,$3,$4,$5,$6,$7,$8,$9,$2,$3,0*
0 Add four circle primitives for the rounded corners*
1,1,$1+$1,$2,$3*
1,1,$1+$1,$4,$5*
1,1,$1+$1,$6,$7*
1,1,$1+$1,$8,$9*
0 Add four rect primitives between the rounded corners*
20,1,$1+$1,$2,$3,$4,$5,0*
20,1,$1+$1,$4,$5,$6,$7,0*
20,1,$1+$1,$6,$7,$8,$9,0*
20,1,$1+$1,$8,$9,$2,$3,0*%
G04 Aperture macros list end*
%TA.AperFunction,ComponentPad*%
%ADD10RoundRect,0.250000X0.725000X-0.600000X0.725000X0.600000X-0.725000X0.600000X-0.725000X-0.600000X0*%
%TD*%
%TA.AperFunction,ComponentPad*%
%ADD11O,1.950000X1.700000*%
%TD*%
%TA.AperFunction,HeatsinkPad*%
%ADD12O,2.100000X1.000000*%
%TD*%
%TA.AperFunction,HeatsinkPad*%
%ADD13O,1.800000X1.000000*%
%TD*%
%TA.AperFunction,ComponentPad*%
%ADD14R,1.700000X1.700000*%
%TD*%
%TA.AperFunction,ComponentPad*%
%ADD15C,1.700000*%
%TD*%
%TA.AperFunction,ComponentPad*%
%ADD16C,1.500000*%
%TD*%
%TA.AperFunction,SMDPad,CuDef*%
%ADD17RoundRect,0.237500X-0.237500X0.300000X-0.237500X-0.300000X0.237500X-0.300000X0.237500X0.300000X0*%
%TD*%
%TA.AperFunction,SMDPad,CuDef*%
%ADD18RoundRect,0.237500X-0.250000X-0.237500X0.250000X-0.237500X0.250000X0.237500X-0.250000X0.237500X0*%
%TD*%
%TA.AperFunction,SMDPad,CuDef*%
%ADD19RoundRect,0.237500X0.250000X0.237500X-0.250000X0.237500X-0.250000X-0.237500X0.250000X-0.237500X0*%
%TD*%
%TA.AperFunction,SMDPad,CuDef*%
%ADD20RoundRect,0.237500X0.237500X-0.300000X0.237500X0.300000X-0.237500X0.300000X-0.237500X-0.300000X0*%
%TD*%
%TA.AperFunction,SMDPad,CuDef*%
%ADD21RoundRect,0.237500X-0.300000X-0.237500X0.300000X-0.237500X0.300000X0.237500X-0.300000X0.237500X0*%
%TD*%
%TA.AperFunction,SMDPad,CuDef*%
%ADD22RoundRect,0.237500X0.300000X0.237500X-0.300000X0.237500X-0.300000X-0.237500X0.300000X-0.237500X0*%
%TD*%
%TA.AperFunction,ViaPad*%
%ADD23C,0.600000*%
%TD*%
%TA.AperFunction,Conductor*%
%ADD24C,0.450000*%
%TD*%
%TA.AperFunction,Conductor*%
%ADD25C,0.280000*%
%TD*%
%TA.AperFunction,Conductor*%
%ADD26C,0.200000*%
%TD*%
G04 APERTURE END LIST*
D10*
%TO.P,J1,1,Pin_1*%
%TO.N,BMP_RX*%
X103145000Y-160250000D03*
D11*
%TO.P,J1,2,Pin_2*%
%TO.N,BMP_TX*%
X103145000Y-157750000D03*
%TO.P,J1,3,Pin_3*%
%TO.N,GND*%
X103145000Y-155250000D03*
%TO.P,J1,4,Pin_4*%
%TO.N,BMP_CLK*%
X103145000Y-152750000D03*
%TO.P,J1,5,Pin_5*%
%TO.N,BMP_IO*%
X103145000Y-150250000D03*
%TO.P,J1,6,Pin_6*%
%TO.N,+3V3*%
X103145000Y-147750000D03*
%TD*%
D10*
%TO.P,J1,1,Pin_1*%
%TO.N,BMP_RX*%
X103145000Y-138250000D03*
D11*
%TO.P,J1,2,Pin_2*%
%TO.N,BMP_TX*%
X103145000Y-135750000D03*
%TO.P,J1,3,Pin_3*%
%TO.N,GND*%
X103145000Y-133250000D03*
%TO.P,J1,4,Pin_4*%
%TO.N,BMP_CLK*%
X103145000Y-130750000D03*
%TO.P,J1,5,Pin_5*%
%TO.N,BMP_IO*%
X103145000Y-128250000D03*
%TO.P,J1,6,Pin_6*%
%TO.N,+3V3*%
X103145000Y-125750000D03*
%TD*%
D12*
%TO.P,J2,S1,SHIELD*%
%TO.N,unconnected-(J2-SHIELD-PadS1)*%
X134915000Y-139460000D03*
D13*
%TO.N,unconnected-(J2-SHIELD-PadS1)_1*%
X139095000Y-139460000D03*
D12*
%TO.N,unconnected-(J2-SHIELD-PadS1)_2*%
X134915000Y-130820000D03*
D13*
%TO.N,unconnected-(J2-SHIELD-PadS1)_3*%
X139095000Y-130820000D03*
%TD*%
D10*
%TO.P,J1,1,Pin_1*%
%TO.N,BMP_RX*%
X103145000Y-116250000D03*
D11*
%TO.P,J1,2,Pin_2*%
%TO.N,BMP_TX*%
X103145000Y-113750000D03*
%TO.P,J1,3,Pin_3*%
%TO.N,GND*%
X103145000Y-111250000D03*
%TO.P,J1,4,Pin_4*%
%TO.N,BMP_CLK*%
X103145000Y-108750000D03*
%TO.P,J1,5,Pin_5*%
%TO.N,BMP_IO*%
X103145000Y-106250000D03*
%TO.P,J1,6,Pin_6*%
%TO.N,+3V3*%
X103145000Y-103750000D03*
%TD*%
D14*
%TO.P,J3,1,Pin_1*%
%TO.N,SWD_CLK*%
X118130001Y-146410000D03*
D15*
%TO.P,J3,2,Pin_2*%
%TO.N,GND*%
X120670001Y-146410000D03*
%TO.P,J3,3,Pin_3*%
%TO.N,SWD_IO*%
X123210000Y-146410000D03*
%TO.P,J3,4,Pin_4*%
%TO.N,+3V3*%
X125750001Y-146410000D03*
%TD*%
D16*
%TO.P,Y1,1,1*%
%TO.N,Net-(U1A-OSC_IN)*%
X110000000Y-148240000D03*
%TO.P,Y1,2,2*%
%TO.N,Net-(U1A-OSC_OUT)*%
X110000000Y-153120000D03*
%TD*%
D12*
%TO.P,J2,S1,SHIELD*%
%TO.N,unconnected-(J2-SHIELD-PadS1)*%
X134915000Y-117460000D03*
D13*
%TO.N,unconnected-(J2-SHIELD-PadS1)_1*%
X139095000Y-117460000D03*
D12*
%TO.N,unconnected-(J2-SHIELD-PadS1)_2*%
X134915000Y-108820000D03*
D13*
%TO.N,unconnected-(J2-SHIELD-PadS1)_3*%
X139095000Y-108820000D03*
%TD*%
D16*
%TO.P,Y1,1,1*%
%TO.N,Net-(U1A-OSC_IN)*%
X110000000Y-126240000D03*
%TO.P,Y1,2,2*%
%TO.N,Net-(U1A-OSC_OUT)*%
X110000000Y-131120000D03*
%TD*%
D14*
%TO.P,J3,1,Pin_1*%
%TO.N,SWD_CLK*%
X118130001Y-102410000D03*
D15*
%TO.P,J3,2,Pin_2*%
%TO.N,GND*%
X120670001Y-102410000D03*
%TO.P,J3,3,Pin_3*%
%TO.N,SWD_IO*%
X123210000Y-102410000D03*
%TO.P,J3,4,Pin_4*%
%TO.N,+3V3*%
X125750001Y-102410000D03*
%TD*%
D12*
%TO.P,J2,S1,SHIELD*%
%TO.N,unconnected-(J2-SHIELD-PadS1)*%
X134915000Y-161460000D03*
D13*
%TO.N,unconnected-(J2-SHIELD-PadS1)_1*%
X139095000Y-161460000D03*
D12*
%TO.N,unconnected-(J2-SHIELD-PadS1)_2*%
X134915000Y-152820000D03*
D13*
%TO.N,unconnected-(J2-SHIELD-PadS1)_3*%
X139095000Y-152820000D03*
%TD*%
D14*
%TO.P,J3,1,Pin_1*%
%TO.N,SWD_CLK*%
X118130001Y-124410000D03*
D15*
%TO.P,J3,2,Pin_2*%
%TO.N,GND*%
X120670001Y-124410000D03*
%TO.P,J3,3,Pin_3*%
%TO.N,SWD_IO*%
X123210000Y-124410000D03*
%TO.P,J3,4,Pin_4*%
%TO.N,+3V3*%
X125750001Y-124410000D03*
%TD*%
D16*
%TO.P,Y1,1,1*%
%TO.N,Net-(U1A-OSC_IN)*%
X110000000Y-104240000D03*
%TO.P,Y1,2,2*%
%TO.N,Net-(U1A-OSC_OUT)*%
X110000000Y-109120000D03*
%TD*%
D17*
%TO.P,C14,1*%
%TO.N,Net-(U1A-OSC_OUT)*%
X112080000Y-151502497D03*
%TO.P,C14,2*%
%TO.N,GND*%
X112080000Y-153227499D03*
%TD*%
D18*
%TO.P,R5,1*%
%TO.N,GND*%
X117255000Y-133780000D03*
%TO.P,R5,2*%
%TO.N,Net-(U1A-PC14-OSC32_IN)*%
X119080000Y-133780000D03*
%TD*%
D19*
%TO.P,R17,1*%
%TO.N,Net-(J2-D--PadA7)*%
X131872500Y-158650000D03*
%TO.P,R17,2*%
%TO.N,USB-*%
X130047500Y-158650000D03*
%TD*%
D18*
%TO.P,R12,1*%
%TO.N,+3V3*%
X130047500Y-133590000D03*
%TO.P,R12,2*%
%TO.N,USB+*%
X131872500Y-133590000D03*
%TD*%
D19*
%TO.P,R19,1*%
%TO.N,GND*%
X138932500Y-111370000D03*
%TO.P,R19,2*%
%TO.N,Net-(J2-CC2)*%
X137107500Y-111370000D03*
%TD*%
D20*
%TO.P,C5,1*%
%TO.N,+3V3*%
X114620000Y-158942501D03*
%TO.P,C5,2*%
%TO.N,GND*%
X114620000Y-157217499D03*
%TD*%
D19*
%TO.P,R19,1*%
%TO.N,GND*%
X138932500Y-155370000D03*
%TO.P,R19,2*%
%TO.N,Net-(J2-CC2)*%
X137107500Y-155370000D03*
%TD*%
D20*
%TO.P,C13,1*%
%TO.N,Net-(U1A-OSC_IN)*%
X112080000Y-149870000D03*
%TO.P,C13,2*%
%TO.N,GND*%
X112080000Y-148144998D03*
%TD*%
D19*
%TO.P,R16,1*%
%TO.N,Net-(J2-D+-PadA6)*%
X131872500Y-113120000D03*
%TO.P,R16,2*%
%TO.N,USB+*%
X130047500Y-113120000D03*
%TD*%
D21*
%TO.P,C2,1*%
%TO.N,+3V3*%
X115777499Y-131990000D03*
%TO.P,C2,2*%
%TO.N,GND*%
X117502501Y-131990000D03*
%TD*%
D18*
%TO.P,R12,1*%
%TO.N,+3V3*%
X130047500Y-111590000D03*
%TO.P,R12,2*%
%TO.N,USB+*%
X131872500Y-111590000D03*
%TD*%
D22*
%TO.P,C4,1*%
%TO.N,+3V3*%
X125690002Y-140880000D03*
%TO.P,C4,2*%
%TO.N,GND*%
X123965000Y-140880000D03*
%TD*%
D19*
%TO.P,R18,1*%
%TO.N,GND*%
X138932500Y-136470000D03*
%TO.P,R18,2*%
%TO.N,Net-(J2-CC1)*%
X137107500Y-136470000D03*
%TD*%
D20*
%TO.P,C13,1*%
%TO.N,Net-(U1A-OSC_IN)*%
X112080000Y-127870000D03*
%TO.P,C13,2*%
%TO.N,GND*%
X112080000Y-126144998D03*
%TD*%
D21*
%TO.P,C3,1*%
%TO.N,+3V3*%
X118524998Y-129040000D03*
%TO.P,C3,2*%
%TO.N,GND*%
X120250000Y-129040000D03*
%TD*%
D19*
%TO.P,R16,1*%
%TO.N,Net-(J2-D+-PadA6)*%
X131872500Y-157120000D03*
%TO.P,R16,2*%
%TO.N,USB+*%
X130047500Y-157120000D03*
%TD*%
D21*
%TO.P,C3,1*%
%TO.N,+3V3*%
X118524998Y-151040000D03*
%TO.P,C3,2*%
%TO.N,GND*%
X120250000Y-151040000D03*
%TD*%
D19*
%TO.P,R8,1*%
%TO.N,GND*%
X123655000Y-151040000D03*
%TO.P,R8,2*%
%TO.N,Net-(U1A-BOOT0)*%
X121830000Y-151040000D03*
%TD*%
%TO.P,R8,1*%
%TO.N,GND*%
X123655000Y-129040000D03*
%TO.P,R8,2*%
%TO.N,Net-(U1A-BOOT0)*%
X121830000Y-129040000D03*
%TD*%
D22*
%TO.P,C1,1*%
%TO.N,+3V3*%
X127462501Y-132320000D03*
%TO.P,C1,2*%
%TO.N,GND*%
X125737499Y-132320000D03*
%TD*%
D20*
%TO.P,C13,1*%
%TO.N,Net-(U1A-OSC_IN)*%
X112080000Y-105870000D03*
%TO.P,C13,2*%
%TO.N,GND*%
X112080000Y-104144998D03*
%TD*%
D22*
%TO.P,C1,1*%
%TO.N,+3V3*%
X127462501Y-110320000D03*
%TO.P,C1,2*%
%TO.N,GND*%
X125737499Y-110320000D03*
%TD*%
D19*
%TO.P,R18,1*%
%TO.N,GND*%
X138932500Y-158470000D03*
%TO.P,R18,2*%
%TO.N,Net-(J2-CC1)*%
X137107500Y-158470000D03*
%TD*%
%TO.P,R17,1*%
%TO.N,Net-(J2-D--PadA7)*%
X131872500Y-114650000D03*
%TO.P,R17,2*%
%TO.N,USB-*%
X130047500Y-114650000D03*
%TD*%
D20*
%TO.P,C5,1*%
%TO.N,+3V3*%
X114620000Y-114942501D03*
%TO.P,C5,2*%
%TO.N,GND*%
X114620000Y-113217499D03*
%TD*%
D19*
%TO.P,R3,1*%
%TO.N,RESET*%
X119077101Y-157325000D03*
%TO.P,R3,2*%
%TO.N,+3V3*%
X117252101Y-157325000D03*
%TD*%
D18*
%TO.P,R7,1*%
%TO.N,GND*%
X120565000Y-118880000D03*
%TO.P,R7,2*%
%TO.N,BOOT1*%
X122390000Y-118880000D03*
%TD*%
D17*
%TO.P,C14,1*%
%TO.N,Net-(U1A-OSC_OUT)*%
X112080000Y-107502497D03*
%TO.P,C14,2*%
%TO.N,GND*%
X112080000Y-109227499D03*
%TD*%
%TO.P,C14,1*%
%TO.N,Net-(U1A-OSC_OUT)*%
X112080000Y-129502497D03*
%TO.P,C14,2*%
%TO.N,GND*%
X112080000Y-131227499D03*
%TD*%
D19*
%TO.P,R17,1*%
%TO.N,Net-(J2-D--PadA7)*%
X131872500Y-136650000D03*
%TO.P,R17,2*%
%TO.N,USB-*%
X130047500Y-136650000D03*
%TD*%
D18*
%TO.P,R5,1*%
%TO.N,GND*%
X117255000Y-111780000D03*
%TO.P,R5,2*%
%TO.N,Net-(U1A-PC14-OSC32_IN)*%
X119080000Y-111780000D03*
%TD*%
D19*
%TO.P,R3,1*%
%TO.N,RESET*%
X119077101Y-113325000D03*
%TO.P,R3,2*%
%TO.N,+3V3*%
X117252101Y-113325000D03*
%TD*%
D22*
%TO.P,C4,1*%
%TO.N,+3V3*%
X125690002Y-162880000D03*
%TO.P,C4,2*%
%TO.N,GND*%
X123965000Y-162880000D03*
%TD*%
D21*
%TO.P,C3,1*%
%TO.N,+3V3*%
X118524998Y-107040000D03*
%TO.P,C3,2*%
%TO.N,GND*%
X120250000Y-107040000D03*
%TD*%
D18*
%TO.P,R12,1*%
%TO.N,+3V3*%
X130047500Y-155590000D03*
%TO.P,R12,2*%
%TO.N,USB+*%
X131872500Y-155590000D03*
%TD*%
D21*
%TO.P,C2,1*%
%TO.N,+3V3*%
X115777499Y-153990000D03*
%TO.P,C2,2*%
%TO.N,GND*%
X117502501Y-153990000D03*
%TD*%
D18*
%TO.P,R7,1*%
%TO.N,GND*%
X120565000Y-162880000D03*
%TO.P,R7,2*%
%TO.N,BOOT1*%
X122390000Y-162880000D03*
%TD*%
D19*
%TO.P,R3,1*%
%TO.N,RESET*%
X119077101Y-135325000D03*
%TO.P,R3,2*%
%TO.N,+3V3*%
X117252101Y-135325000D03*
%TD*%
D21*
%TO.P,C2,1*%
%TO.N,+3V3*%
X115777499Y-109990000D03*
%TO.P,C2,2*%
%TO.N,GND*%
X117502501Y-109990000D03*
%TD*%
D19*
%TO.P,R19,1*%
%TO.N,GND*%
X138932500Y-133370000D03*
%TO.P,R19,2*%
%TO.N,Net-(J2-CC2)*%
X137107500Y-133370000D03*
%TD*%
D22*
%TO.P,C4,1*%
%TO.N,+3V3*%
X125690002Y-118880000D03*
%TO.P,C4,2*%
%TO.N,GND*%
X123965000Y-118880000D03*
%TD*%
D18*
%TO.P,R5,1*%
%TO.N,GND*%
X117255000Y-155780000D03*
%TO.P,R5,2*%
%TO.N,Net-(U1A-PC14-OSC32_IN)*%
X119080000Y-155780000D03*
%TD*%
D19*
%TO.P,R16,1*%
%TO.N,Net-(J2-D+-PadA6)*%
X131872500Y-135120000D03*
%TO.P,R16,2*%
%TO.N,USB+*%
X130047500Y-135120000D03*
%TD*%
D18*
%TO.P,R7,1*%
%TO.N,GND*%
X120565000Y-140880000D03*
%TO.P,R7,2*%
%TO.N,BOOT1*%
X122390000Y-140880000D03*
%TD*%
D22*
%TO.P,C1,1*%
%TO.N,+3V3*%
X127462501Y-154320000D03*
%TO.P,C1,2*%
%TO.N,GND*%
X125737499Y-154320000D03*
%TD*%
D19*
%TO.P,R8,1*%
%TO.N,GND*%
X123655000Y-107040000D03*
%TO.P,R8,2*%
%TO.N,Net-(U1A-BOOT0)*%
X121830000Y-107040000D03*
%TD*%
%TO.P,R18,1*%
%TO.N,GND*%
X138932500Y-114470000D03*
%TO.P,R18,2*%
%TO.N,Net-(J2-CC1)*%
X137107500Y-114470000D03*
%TD*%
D20*
%TO.P,C5,1*%
%TO.N,+3V3*%
X114620000Y-136942501D03*
%TO.P,C5,2*%
%TO.N,GND*%
X114620000Y-135217499D03*
%TD*%
D23*
%TO.N,+3V3*%
X115777499Y-109990000D03*
X125690002Y-140880000D03*
X115777499Y-153990000D03*
X118524998Y-129040000D03*
X118524998Y-151040000D03*
X127462501Y-110320000D03*
X127462501Y-154320000D03*
X115777499Y-131990000D03*
X114620000Y-114942501D03*
X125690002Y-118880000D03*
X127462501Y-132320000D03*
X118524998Y-107040000D03*
X114620000Y-158942501D03*
X125690002Y-162880000D03*
X114620000Y-136942501D03*
%TO.N,GND*%
X135620000Y-138340000D03*
X114620000Y-113217499D03*
X135610000Y-131940000D03*
X113950000Y-150220000D03*
X114620000Y-157217499D03*
X124220000Y-110600000D03*
X120250000Y-151040000D03*
X135620000Y-160340000D03*
X123965000Y-162880000D03*
X130454998Y-128825002D03*
X135610000Y-153940000D03*
X123965000Y-140880000D03*
X128170000Y-128070000D03*
X124220000Y-132600000D03*
X123965000Y-118880000D03*
X128170000Y-106070000D03*
X113950000Y-106220000D03*
X114620000Y-135217499D03*
X120250000Y-129040000D03*
X129340000Y-101330000D03*
X130454998Y-150825002D03*
X135620000Y-116340000D03*
X120250000Y-107040000D03*
X129340000Y-123330000D03*
X124220000Y-154600000D03*
X135610000Y-109940000D03*
X129340000Y-145330000D03*
X128170000Y-150070000D03*
X113950000Y-128220000D03*
X130454998Y-106825002D03*
%TO.N,RESET*%
X119077101Y-157325000D03*
X119077101Y-113325000D03*
X119077101Y-135325000D03*
%TO.N,Net-(U1A-OSC_IN)*%
X112080000Y-105870000D03*
X112080000Y-149870000D03*
X112080000Y-127870000D03*
%TO.N,Net-(U1A-OSC_OUT)*%
X112080000Y-107502497D03*
X112080000Y-129502497D03*
X112080000Y-151502497D03*
%TO.N,BMP_IO*%
X119350000Y-158824999D03*
X110307500Y-113412500D03*
X119350000Y-136824999D03*
X119350000Y-114824999D03*
X110307500Y-135412500D03*
X110307500Y-157412500D03*
%TO.N,BMP_CLK*%
X107990000Y-114890000D03*
X107990000Y-136890000D03*
X107990000Y-158890000D03*
X118710000Y-119200000D03*
X118710000Y-141200000D03*
X118710000Y-163200000D03*
%TO.N,BOOT1*%
X122390000Y-118880000D03*
X122390000Y-140880000D03*
X122390000Y-162880000D03*
%TO.N,Net-(J2-D+-PadA6)*%
X133190000Y-156890000D03*
X133190000Y-134890000D03*
X133190000Y-112890000D03*
%TO.N,Net-(J2-D--PadA7)*%
X135480000Y-157390000D03*
X135480000Y-135390000D03*
X135480000Y-113390000D03*
%TO.N,Net-(J2-CC1)*%
X137107500Y-158470000D03*
X137107500Y-114470000D03*
X137107500Y-136470000D03*
%TO.N,Net-(J2-CC2)*%
X137107500Y-155370000D03*
X137107500Y-111370000D03*
X137107500Y-133370000D03*
%TO.N,Net-(U1A-PC14-OSC32_IN)*%
X119080000Y-133780000D03*
X119080000Y-111780000D03*
X119080000Y-155780000D03*
%TO.N,USB+*%
X130047500Y-157120000D03*
X130047500Y-135120000D03*
X130047500Y-113120000D03*
%TO.N,USB-*%
X130047500Y-158650000D03*
X130047500Y-136650000D03*
X130047500Y-114650000D03*
%TO.N,Net-(U1A-BOOT0)*%
X121830000Y-129040000D03*
X121830000Y-107040000D03*
X121830000Y-151040000D03*
%TO.N,LED_UART*%
X128760000Y-112310000D03*
X127087434Y-113585961D03*
X127087434Y-135585961D03*
X127087434Y-157585961D03*
X128760000Y-156310000D03*
X128760000Y-134310000D03*
%TD*%
D24*
%TO.N,+3V3*%
X125750001Y-102410000D02*
X125750001Y-107887500D01*
X128777500Y-110320000D02*
X130047500Y-111590000D01*
X119380000Y-149340000D02*
X116470000Y-149340000D01*
X127462501Y-154320000D02*
X128777500Y-154320000D01*
X113870000Y-146740000D02*
X104155000Y-146740000D01*
D25*
X117260000Y-129040000D02*
X115777499Y-130522501D01*
X115777499Y-152522501D02*
X115777499Y-153990000D01*
D24*
X125750001Y-146410000D02*
X122820001Y-149340000D01*
D25*
X115777499Y-135785002D02*
X114620000Y-136942501D01*
X117260000Y-107040000D02*
X115777499Y-108522501D01*
D24*
X122820001Y-105340000D02*
X119380000Y-105340000D01*
D25*
X115777499Y-155850398D02*
X117252101Y-157325000D01*
D24*
X127462501Y-153600000D02*
X127462501Y-154320000D01*
X127462501Y-133327501D02*
X125690002Y-135100000D01*
X125690002Y-140880000D02*
X125690002Y-135100000D01*
X127462501Y-155327501D02*
X125690002Y-157100000D01*
X125750001Y-129887500D02*
X127462501Y-131600000D01*
X125750001Y-124410000D02*
X125750001Y-129887500D01*
D25*
X115777499Y-111850398D02*
X115777499Y-113785002D01*
D24*
X125750001Y-107887500D02*
X127462501Y-109600000D01*
X116470000Y-149340000D02*
X113870000Y-146740000D01*
X116470000Y-105340000D02*
X113870000Y-102740000D01*
X127462501Y-110320000D02*
X127462501Y-111327501D01*
X125750001Y-146410000D02*
X125750001Y-151887500D01*
X125690002Y-118880000D02*
X125690002Y-113100000D01*
D25*
X115777499Y-113785002D02*
X114620000Y-114942501D01*
D24*
X128777500Y-132320000D02*
X130047500Y-133590000D01*
X128777500Y-154320000D02*
X130047500Y-155590000D01*
D25*
X118524998Y-129040000D02*
X117260000Y-129040000D01*
D24*
X113870000Y-124740000D02*
X104155000Y-124740000D01*
X116470000Y-127340000D02*
X113870000Y-124740000D01*
X113870000Y-102740000D02*
X104155000Y-102740000D01*
X127462501Y-110320000D02*
X128777500Y-110320000D01*
X127462501Y-154320000D02*
X127462501Y-155327501D01*
X119380000Y-105340000D02*
X116470000Y-105340000D01*
D25*
X115777499Y-111850398D02*
X117252101Y-113325000D01*
X115777499Y-130522501D02*
X115777499Y-131990000D01*
D24*
X119380000Y-149340000D02*
X118524998Y-150195002D01*
X104155000Y-146740000D02*
X103145000Y-147750000D01*
X122820001Y-149340000D02*
X119380000Y-149340000D01*
X125750001Y-124410000D02*
X122820001Y-127340000D01*
D25*
X115777499Y-108522501D02*
X115777499Y-109990000D01*
X115777499Y-153990000D02*
X115777499Y-155850398D01*
X118524998Y-107040000D02*
X117260000Y-107040000D01*
D24*
X127462501Y-132320000D02*
X128777500Y-132320000D01*
D25*
X115777499Y-155850398D02*
X115777499Y-157785002D01*
D24*
X104155000Y-124740000D02*
X103145000Y-125750000D01*
X125750001Y-151887500D02*
X127462501Y-153600000D01*
D25*
X117260000Y-151040000D02*
X115777499Y-152522501D01*
D24*
X118524998Y-106195002D02*
X118524998Y-107040000D01*
X127462501Y-109600000D02*
X127462501Y-110320000D01*
X125750001Y-102410000D02*
X122820001Y-105340000D01*
X127462501Y-131600000D02*
X127462501Y-132320000D01*
D25*
X118524998Y-151040000D02*
X117260000Y-151040000D01*
X115777499Y-109990000D02*
X115777499Y-111850398D01*
D24*
X125690002Y-162880000D02*
X125690002Y-157100000D01*
X104155000Y-102740000D02*
X103145000Y-103750000D01*
X119380000Y-105340000D02*
X118524998Y-106195002D01*
X118524998Y-150195002D02*
X118524998Y-151040000D01*
X127462501Y-111327501D02*
X125690002Y-113100000D01*
X118524998Y-128195002D02*
X118524998Y-129040000D01*
D25*
X115777499Y-133850398D02*
X115777499Y-135785002D01*
D24*
X119380000Y-127340000D02*
X116470000Y-127340000D01*
X122820001Y-127340000D02*
X119380000Y-127340000D01*
X119380000Y-127340000D02*
X118524998Y-128195002D01*
D25*
X115777499Y-131990000D02*
X115777499Y-133850398D01*
D24*
X127462501Y-132320000D02*
X127462501Y-133327501D01*
D25*
X115777499Y-157785002D02*
X114620000Y-158942501D01*
X115777499Y-133850398D02*
X117252101Y-135325000D01*
D26*
%TO.N,Net-(U1A-OSC_IN)*%
X110000000Y-148240000D02*
X111630000Y-149870000D01*
X110000000Y-126240000D02*
X111630000Y-127870000D01*
X110000000Y-104240000D02*
X111630000Y-105870000D01*
X111630000Y-105870000D02*
X112080000Y-105870000D01*
X111630000Y-149870000D02*
X112080000Y-149870000D01*
X111630000Y-127870000D02*
X112080000Y-127870000D01*
%TO.N,Net-(U1A-OSC_OUT)*%
X110000000Y-109120000D02*
X111617503Y-107502497D01*
X111617503Y-151502497D02*
X112080000Y-151502497D01*
X111617503Y-129502497D02*
X112080000Y-129502497D01*
X110000000Y-153120000D02*
X111617503Y-151502497D01*
X111617503Y-107502497D02*
X112080000Y-107502497D01*
X110000000Y-131120000D02*
X111617503Y-129502497D01*
%TO.N,BMP_IO*%
X113595000Y-160700000D02*
X110307500Y-157412500D01*
X119350000Y-136824999D02*
X117474999Y-138700000D01*
X117474999Y-160700000D02*
X113595000Y-160700000D01*
X119350000Y-158824999D02*
X117474999Y-160700000D01*
X113595000Y-116700000D02*
X110307500Y-113412500D01*
X117474999Y-138700000D02*
X113595000Y-138700000D01*
X119350000Y-114824999D02*
X117474999Y-116700000D01*
X113595000Y-138700000D02*
X110307500Y-135412500D01*
X117474999Y-116700000D02*
X113595000Y-116700000D01*
%TO.N,BMP_CLK*%
X107990000Y-158890000D02*
X112300000Y-163200000D01*
X112300000Y-141200000D02*
X118710000Y-141200000D01*
X107990000Y-114890000D02*
X112300000Y-119200000D01*
X107990000Y-136890000D02*
X112300000Y-141200000D01*
X112300000Y-119200000D02*
X118710000Y-119200000D01*
X112300000Y-163200000D02*
X118710000Y-163200000D01*
%TO.N,Net-(J2-D+-PadA6)*%
X132960000Y-113120000D02*
X133190000Y-112890000D01*
X131872500Y-113120000D02*
X132960000Y-113120000D01*
X131872500Y-135120000D02*
X132960000Y-135120000D01*
X132960000Y-135120000D02*
X133190000Y-134890000D01*
X131872500Y-157120000D02*
X132960000Y-157120000D01*
X132960000Y-157120000D02*
X133190000Y-156890000D01*
%TO.N,Net-(J2-D--PadA7)*%
X134220000Y-114650000D02*
X135480000Y-113390000D01*
X131872500Y-158650000D02*
X134220000Y-158650000D01*
X134220000Y-136650000D02*
X135480000Y-135390000D01*
X131872500Y-114650000D02*
X134220000Y-114650000D01*
X131872500Y-136650000D02*
X134220000Y-136650000D01*
X134220000Y-158650000D02*
X135480000Y-157390000D01*
%TO.N,USB+*%
X130250000Y-135120000D02*
X130047500Y-135120000D01*
X131780000Y-111590000D02*
X130250000Y-113120000D01*
X130250000Y-113120000D02*
X130047500Y-113120000D01*
X131780000Y-155590000D02*
X130250000Y-157120000D01*
X131872500Y-111590000D02*
X131780000Y-111590000D01*
X131872500Y-133590000D02*
X131780000Y-133590000D01*
X131872500Y-155590000D02*
X131780000Y-155590000D01*
X130250000Y-157120000D02*
X130047500Y-157120000D01*
X131780000Y-133590000D02*
X130250000Y-135120000D01*
%TO.N,LED_UART*%
X128760000Y-156850000D02*
X128024039Y-157585961D01*
X128760000Y-156310000D02*
X128760000Y-156850000D01*
X128760000Y-112310000D02*
X128760000Y-112850000D01*
X128760000Y-134850000D02*
X128024039Y-135585961D01*
X128760000Y-112850000D02*
X128024039Y-113585961D01*
X128760000Y-134310000D02*
X128760000Y-134850000D01*
X128024039Y-113585961D02*
X127087434Y-113585961D01*
X128024039Y-157585961D02*
X127087434Y-157585961D01*
X128024039Y-135585961D02*
X127087434Y-135585961D01*
%TD*%
%TA.AperFunction,Conductor*%
%TO.N,GND*%
G36*
X101598735Y-122019685D02*
G01*
X101644490Y-122072489D01*
X101651471Y-122091907D01*
X101678608Y-122193187D01*
X101711554Y-122250250D01*
X101744500Y-122307314D01*
X101837686Y-122400500D01*
X101951814Y-122466392D01*
X102079108Y-122500500D01*
X102079110Y-122500500D01*
X140210890Y-122500500D01*
X140210892Y-122500500D01*
X140338186Y-122466392D01*
X140452314Y-122400500D01*
X140545500Y-122307314D01*
X140611392Y-122193186D01*
X140638529Y-122091905D01*
X140674894Y-122032246D01*
X140737741Y-122001717D01*
X140758304Y-122000000D01*
X141665500Y-122000000D01*
X141732539Y-122019685D01*
X141778294Y-122072489D01*
X141789500Y-122124000D01*
X141789500Y-141876000D01*
X141769815Y-141943039D01*
X141717011Y-141988794D01*
X141665500Y-142000000D01*
X140758304Y-142000000D01*
X140691265Y-141980315D01*
X140645510Y-141927511D01*
X140638529Y-141908093D01*
X140611391Y-141806812D01*
X140602563Y-141791521D01*
X140545500Y-141692686D01*
X140452314Y-141599500D01*
X140395250Y-141566554D01*
X140338187Y-141533608D01*
X140274539Y-141516554D01*
X140210892Y-141499500D01*
X140210891Y-141499500D01*
X126812602Y-141499500D01*
X126745563Y-141479815D01*
X126699808Y-141427011D01*
X126689864Y-141357853D01*
X126694893Y-141336505D01*
X126717676Y-141267753D01*
X126728002Y-141166677D01*
X126728001Y-140593324D01*
X126726457Y-140578213D01*
X126717676Y-140492247D01*
X126707156Y-140460500D01*
X126663410Y-140328484D01*
X126572842Y-140181650D01*
X126451820Y-140060628D01*
X126418336Y-139999305D01*
X126415502Y-139972947D01*
X126415502Y-139558543D01*
X133364499Y-139558543D01*
X133402947Y-139751829D01*
X133402950Y-139751839D01*
X133478364Y-139933907D01*
X133478371Y-139933920D01*
X133587860Y-140097781D01*
X133587863Y-140097785D01*
X133727214Y-140237136D01*
X133727218Y-140237139D01*
X133891079Y-140346628D01*
X133891092Y-140346635D01*
X134073160Y-140422049D01*
X134073165Y-140422051D01*
X134073169Y-140422051D01*
X134073170Y-140422052D01*
X134266456Y-140460500D01*
X134266459Y-140460500D01*
X135563543Y-140460500D01*
X135715561Y-140430261D01*
X135756835Y-140422051D01*
X135938914Y-140346632D01*
X136102782Y-140237139D01*
X136242139Y-140097782D01*
X136351632Y-139933914D01*
X136359539Y-139914826D01*
X136427049Y-139751839D01*
X136427051Y-139751835D01*
X136465500Y-139558543D01*
X137694499Y-139558543D01*
X137732947Y-139751829D01*
X137732950Y-139751839D01*
X137808364Y-139933907D01*
X137808371Y-139933920D01*
X137917860Y-140097781D01*
X137917863Y-140097785D01*
X138057214Y-140237136D01*
X138057218Y-140237139D01*
X138221079Y-140346628D01*
X138221092Y-140346635D01*
X138403160Y-140422049D01*
X138403165Y-140422051D01*
X138403169Y-140422051D01*
X138403170Y-140422052D01*
X138596456Y-140460500D01*
X138596459Y-140460500D01*
X139593543Y-140460500D01*
X139745561Y-140430261D01*
X139786835Y-140422051D01*
X139968914Y-140346632D01*
X140132782Y-140237139D01*
X140272139Y-140097782D01*
X140381632Y-139933914D01*
X140389539Y-139914826D01*
X140457049Y-139751839D01*
X140457051Y-139751835D01*
X140495500Y-139558541D01*
X140495500Y-139361459D01*
X140495500Y-139361456D01*
X140457052Y-139168170D01*
X140457051Y-139168169D01*
X140457051Y-139168165D01*
X140457049Y-139168160D01*
X140381635Y-138986092D01*
X140381628Y-138986079D01*
X140272139Y-138822218D01*
X140272136Y-138822214D01*
X140132785Y-138682863D01*
X140132781Y-138682860D01*
X139968920Y-138573371D01*
X139968907Y-138573364D01*
X139786839Y-138497950D01*
X139786829Y-138497947D01*
X139593543Y-138459500D01*
X139593541Y-138459500D01*
X138596459Y-138459500D01*
X138596457Y-138459500D01*
X138403170Y-138497947D01*
X138403160Y-138497950D01*
X138221092Y-138573364D01*
X138221079Y-138573371D01*
X138057218Y-138682860D01*
X138057214Y-138682863D01*
X137917863Y-138822214D01*
X137917860Y-138822218D01*
X137808371Y-138986079D01*
X137808364Y-138986092D01*
X137732950Y-139168160D01*
X137732947Y-139168170D01*
X137694500Y-139361456D01*
X137694500Y-139361459D01*
X137694500Y-139558541D01*
X137694500Y-139558543D01*
X137694499Y-139558543D01*
X136465500Y-139558543D01*
X136465500Y-139558541D01*
X136465500Y-139361459D01*
X136465500Y-139361456D01*
X136427052Y-139168170D01*
X136427051Y-139168169D01*
X136427051Y-139168165D01*
X136427049Y-139168160D01*
X136351635Y-138986092D01*
X136351628Y-138986079D01*
X136242139Y-138822218D01*
X136242136Y-138822214D01*
X136102785Y-138682863D01*
X136102781Y-138682860D01*
X135938920Y-138573371D01*
X135938907Y-138573364D01*
X135756839Y-138497950D01*
X135756829Y-138497947D01*
X135563543Y-138459500D01*
X135563541Y-138459500D01*
X134266459Y-138459500D01*
X134266457Y-138459500D01*
X134073170Y-138497947D01*
X134073160Y-138497950D01*
X133891092Y-138573364D01*
X133891079Y-138573371D01*
X133727218Y-138682860D01*
X133727214Y-138682863D01*
X133587863Y-138822214D01*
X133587860Y-138822218D01*
X133478371Y-138986079D01*
X133478364Y-138986092D01*
X133402950Y-139168160D01*
X133402947Y-139168170D01*
X133364500Y-139361456D01*
X133364500Y-139361459D01*
X133364500Y-139558541D01*
X133364500Y-139558543D01*
X133364499Y-139558543D01*
X126415502Y-139558543D01*
X126415502Y-136331731D01*
X126435187Y-136264692D01*
X126487991Y-136218937D01*
X126557149Y-136208993D01*
X126608392Y-136228628D01*
X126708255Y-136295355D01*
X126708257Y-136295356D01*
X126708261Y-136295358D01*
X126788243Y-136328487D01*
X126853937Y-136355698D01*
X126974638Y-136379707D01*
X127008587Y-136386460D01*
X127008590Y-136386461D01*
X127008592Y-136386461D01*
X127166278Y-136386461D01*
X127166279Y-136386460D01*
X127320931Y-136355698D01*
X127466613Y-136295355D01*
X127507237Y-136268211D01*
X127598309Y-136207359D01*
X127664987Y-136186481D01*
X127667200Y-136186461D01*
X127937370Y-136186461D01*
X127937386Y-136186462D01*
X127944982Y-136186462D01*
X128103093Y-136186462D01*
X128103096Y-136186462D01*
X128255824Y-136145538D01*
X128335747Y-136099394D01*
X128392755Y-136066481D01*
X128504559Y-135954677D01*
X128504559Y-135954675D01*
X128514763Y-135944472D01*
X128514767Y-135944467D01*
X128898220Y-135561013D01*
X128959541Y-135527530D01*
X129029233Y-135532514D01*
X129085166Y-135574386D01*
X129103604Y-135609691D01*
X129124088Y-135671507D01*
X129124093Y-135671518D01*
X129215618Y-135819903D01*
X129234058Y-135887296D01*
X129215618Y-135950097D01*
X129124093Y-136098481D01*
X129124091Y-136098486D01*
X129113457Y-136130579D01*
X129069826Y-136262247D01*
X129069826Y-136262248D01*
X129069825Y-136262248D01*
X129059500Y-136363315D01*
X129059500Y-136936669D01*
X129059501Y-136936687D01*
X129069825Y-137037752D01*
X129098236Y-137123489D01*
X129115636Y-137175999D01*
X129124092Y-137201515D01*
X129124093Y-137201518D01*
X129154306Y-137250500D01*
X129214660Y-137348350D01*
X129336650Y-137470340D01*
X129483484Y-137560908D01*
X129647247Y-137615174D01*
X129748323Y-137625500D01*
X130346676Y-137625499D01*
X130346684Y-137625498D01*
X130346687Y-137625498D01*
X130402030Y-137619844D01*
X130447753Y-137615174D01*
X130611516Y-137560908D01*
X130758350Y-137470340D01*
X130872319Y-137356371D01*
X130933642Y-137322886D01*
X131003334Y-137327870D01*
X131047681Y-137356371D01*
X131161650Y-137470340D01*
X131308484Y-137560908D01*
X131472247Y-137615174D01*
X131573323Y-137625500D01*
X132171676Y-137625499D01*
X132171684Y-137625498D01*
X132171687Y-137625498D01*
X132227030Y-137619844D01*
X132272753Y-137615174D01*
X132436516Y-137560908D01*
X132583350Y-137470340D01*
X132705340Y-137348350D01*
X132729362Y-137309404D01*
X132781310Y-137262679D01*
X132834901Y-137250500D01*
X134133331Y-137250500D01*
X134133347Y-137250501D01*
X134140943Y-137250501D01*
X134299054Y-137250501D01*
X134299057Y-137250501D01*
X134451785Y-137209577D01*
X134451787Y-137209575D01*
X134451789Y-137209575D01*
X134451790Y-137209574D01*
X134509944Y-137175999D01*
X134509945Y-137175998D01*
X134588716Y-137130520D01*
X134700520Y-137018716D01*
X134700520Y-137018714D01*
X134710724Y-137008511D01*
X134710727Y-137008506D01*
X135494662Y-136224572D01*
X135555983Y-136191089D01*
X135558150Y-136190638D01*
X135616085Y-136179113D01*
X135713497Y-136159737D01*
X135859179Y-136099394D01*
X135928754Y-136052905D01*
X135995429Y-136032027D01*
X136062809Y-136050510D01*
X136109500Y-136102489D01*
X136121003Y-136168603D01*
X136119500Y-136183317D01*
X136119500Y-136756669D01*
X136119501Y-136756687D01*
X136129825Y-136857752D01*
X136184092Y-137021515D01*
X136184093Y-137021518D01*
X136206901Y-137058496D01*
X136274660Y-137168350D01*
X136396650Y-137290340D01*
X136543484Y-137380908D01*
X136707247Y-137435174D01*
X136808323Y-137445500D01*
X137406676Y-137445499D01*
X137406684Y-137445498D01*
X137406687Y-137445498D01*
X137462030Y-137439844D01*
X137507753Y-137435174D01*
X137671516Y-137380908D01*
X137818350Y-137290340D01*
X137940340Y-137168350D01*
X138030908Y-137021516D01*
X138085174Y-136857753D01*
X138095500Y-136756677D01*
X138095499Y-136183324D01*
X138095221Y-136180606D01*
X138085174Y-136082247D01*
X138084694Y-136080799D01*
X138030908Y-135918484D01*
X137940340Y-135771650D01*
X137818350Y-135649660D01*
X137674634Y-135561015D01*
X137671518Y-135559093D01*
X137671513Y-135559091D01*
X137647298Y-135551067D01*
X137507753Y-135504826D01*
X137507751Y-135504825D01*
X137406678Y-135494500D01*
X136808330Y-135494500D01*
X136808312Y-135494501D01*
X136707247Y-135504825D01*
X136543484Y-135559092D01*
X136543477Y-135559096D01*
X136465498Y-135607193D01*
X136398105Y-135625633D01*
X136331442Y-135604710D01*
X136286673Y-135551067D01*
X136278012Y-135481737D01*
X136278780Y-135477486D01*
X136280500Y-135468842D01*
X136280500Y-135311158D01*
X136280500Y-135311155D01*
X136280499Y-135311153D01*
X136254214Y-135179010D01*
X136249737Y-135156503D01*
X136200781Y-135038312D01*
X136189397Y-135010827D01*
X136189390Y-135010814D01*
X136101789Y-134879711D01*
X136101786Y-134879707D01*
X135990292Y-134768213D01*
X135990288Y-134768210D01*
X135859185Y-134680609D01*
X135859172Y-134680602D01*
X135713501Y-134620264D01*
X135713489Y-134620261D01*
X135558845Y-134589500D01*
X135558842Y-134589500D01*
X135401158Y-134589500D01*
X135401155Y-134589500D01*
X135246510Y-134620261D01*
X135246498Y-134620264D01*
X135100827Y-134680602D01*
X135100814Y-134680609D01*
X134969711Y-134768210D01*
X134969707Y-134768213D01*
X134858213Y-134879707D01*
X134858210Y-134879711D01*
X134770609Y-135010814D01*
X134770602Y-135010827D01*
X134710264Y-135156498D01*
X134710261Y-135156508D01*
X134679361Y-135311850D01*
X134646976Y-135373761D01*
X134645425Y-135375339D01*
X134007584Y-136013181D01*
X133946261Y-136046666D01*
X133919903Y-136049500D01*
X132834901Y-136049500D01*
X132825110Y-136046625D01*
X132814986Y-136047890D01*
X132792154Y-136036947D01*
X132767862Y-136029815D01*
X132759503Y-136021300D01*
X132751978Y-136017694D01*
X132729363Y-135990598D01*
X132716099Y-135969094D01*
X132705340Y-135951650D01*
X132705338Y-135951648D01*
X132704382Y-135950098D01*
X132685941Y-135882705D01*
X132704382Y-135819902D01*
X132705338Y-135818351D01*
X132705340Y-135818350D01*
X132729363Y-135779401D01*
X132781311Y-135732678D01*
X132834901Y-135720500D01*
X132873331Y-135720500D01*
X132873347Y-135720501D01*
X132880943Y-135720501D01*
X133039055Y-135720501D01*
X133039057Y-135720501D01*
X133135252Y-135694724D01*
X133167346Y-135690500D01*
X133268844Y-135690500D01*
X133268845Y-135690499D01*
X133423497Y-135659737D01*
X133544320Y-135609691D01*
X133569172Y-135599397D01*
X133569172Y-135599396D01*
X133569179Y-135599394D01*
X133700289Y-135511789D01*
X133811789Y-135400289D01*
X133899394Y-135269179D01*
X133959737Y-135123497D01*
X133990500Y-134968842D01*
X133990500Y-134811158D01*
X133990500Y-134811155D01*
X133990499Y-134811153D01*
X133986433Y-134790710D01*
X133959737Y-134656503D01*
X133959735Y-134656498D01*
X133899397Y-134510827D01*
X133899390Y-134510814D01*
X133811789Y-134379711D01*
X133811786Y-134379707D01*
X133700292Y-134268213D01*
X133700288Y-134268210D01*
X133569185Y-134180609D01*
X133569172Y-134180602D01*
X133423501Y-134120264D01*
X133423489Y-134120261D01*
X133268845Y-134089500D01*
X133268842Y-134089500D01*
X133111158Y-134089500D01*
X133111155Y-134089500D01*
X132997713Y-134112065D01*
X132928122Y-134105838D01*
X132872944Y-134062975D01*
X132849700Y-133997085D01*
X132850164Y-133977845D01*
X132850173Y-133977755D01*
X132850174Y-133977753D01*
X132860500Y-133876677D01*
X132860499Y-133303324D01*
X132850174Y-133202247D01*
X132810764Y-133083315D01*
X136119500Y-133083315D01*
X136119500Y-133656669D01*
X136119501Y-133656687D01*
X136129825Y-133757752D01*
X136166109Y-133867249D01*
X136184092Y-133921516D01*
X136274660Y-134068350D01*
X136396650Y-134190340D01*
X136543484Y-134280908D01*
X136707247Y-134335174D01*
X136808323Y-134345500D01*
X137406676Y-134345499D01*
X137406684Y-134345498D01*
X137406687Y-134345498D01*
X137462030Y-134339844D01*
X137507753Y-134335174D01*
X137671516Y-134280908D01*
X137818350Y-134190340D01*
X137940340Y-134068350D01*
X138030908Y-133921516D01*
X138085174Y-133757753D01*
X138095500Y-133656677D01*
X138095499Y-133083324D01*
X138085174Y-132982247D01*
X138030908Y-132818484D01*
X137940340Y-132671650D01*
X137818350Y-132549660D01*
X137671516Y-132459092D01*
X137507753Y-132404826D01*
X137507751Y-132404825D01*
X137406678Y-132394500D01*
X136808330Y-132394500D01*
X136808312Y-132394501D01*
X136707247Y-132404825D01*
X136543484Y-132459092D01*
X136543481Y-132459093D01*
X136396648Y-132549661D01*
X136274661Y-132671648D01*
X136184093Y-132818481D01*
X136184092Y-132818484D01*
X136129826Y-132982247D01*
X136129826Y-132982248D01*
X136129825Y-132982248D01*
X136119500Y-133083315D01*
X132810764Y-133083315D01*
X132795908Y-133038484D01*
X132705340Y-132891650D01*
X132583350Y-132769660D01*
X132436516Y-132679092D01*
X132272753Y-132624826D01*
X132272751Y-132624825D01*
X132171678Y-132614500D01*
X131573330Y-132614500D01*
X131573312Y-132614501D01*
X131472247Y-132624825D01*
X131308484Y-132679092D01*
X131308481Y-132679093D01*
X131161648Y-132769661D01*
X131047681Y-132883629D01*
X130986358Y-132917114D01*
X130916666Y-132912130D01*
X130872319Y-132883629D01*
X130758351Y-132769661D01*
X130758350Y-132769660D01*
X130611516Y-132679092D01*
X130447753Y-132624826D01*
X130447751Y-132624825D01*
X130346684Y-132614500D01*
X130346677Y-132614500D01*
X130149374Y-132614500D01*
X130082335Y-132594815D01*
X130061693Y-132578181D01*
X129239983Y-131756470D01*
X129239982Y-131756469D01*
X129165399Y-131706635D01*
X129121153Y-131677071D01*
X128989120Y-131622381D01*
X128985449Y-131621650D01*
X128985445Y-131621648D01*
X128985445Y-131621650D01*
X128848957Y-131594500D01*
X128848955Y-131594500D01*
X128369553Y-131594500D01*
X128341934Y-131586390D01*
X128313618Y-131581168D01*
X128306433Y-131575965D01*
X128302514Y-131574815D01*
X128284706Y-131560926D01*
X128283263Y-131559572D01*
X128223351Y-131499660D01*
X128211854Y-131492568D01*
X128202738Y-131484015D01*
X128191107Y-131464238D01*
X128175763Y-131447178D01*
X128168819Y-131426340D01*
X128167319Y-131423788D01*
X128167388Y-131422042D01*
X128165968Y-131417783D01*
X128160120Y-131388380D01*
X128110428Y-131268414D01*
X128105431Y-131256349D01*
X128105426Y-131256340D01*
X128026034Y-131137522D01*
X127981771Y-131093259D01*
X127924980Y-131036468D01*
X127807055Y-130918543D01*
X133364499Y-130918543D01*
X133402947Y-131111829D01*
X133402950Y-131111839D01*
X133478364Y-131293907D01*
X133478371Y-131293920D01*
X133587860Y-131457781D01*
X133587863Y-131457785D01*
X133727214Y-131597136D01*
X133727218Y-131597139D01*
X133891079Y-131706628D01*
X133891092Y-131706635D01*
X134073160Y-131782049D01*
X134073165Y-131782051D01*
X134073169Y-131782051D01*
X134073170Y-131782052D01*
X134266456Y-131820500D01*
X134266459Y-131820500D01*
X135563543Y-131820500D01*
X135693582Y-131794632D01*
X135756835Y-131782051D01*
X135938914Y-131706632D01*
X136102782Y-131597139D01*
X136242139Y-131457782D01*
X136351632Y-131293914D01*
X136427051Y-131111835D01*
X136444081Y-131026220D01*
X136465500Y-130918543D01*
X137694499Y-130918543D01*
X137732947Y-131111829D01*
X137732950Y-131111839D01*
X137808364Y-131293907D01*
X137808371Y-131293920D01*
X137917860Y-131457781D01*
X137917863Y-131457785D01*
X138057214Y-131597136D01*
X138057218Y-131597139D01*
X138221079Y-131706628D01*
X138221092Y-131706635D01*
X138403160Y-131782049D01*
X138403165Y-131782051D01*
X138403169Y-131782051D01*
X138403170Y-131782052D01*
X138596456Y-131820500D01*
X138596459Y-131820500D01*
X139593543Y-131820500D01*
X139723582Y-131794632D01*
X139786835Y-131782051D01*
X139968914Y-131706632D01*
X140132782Y-131597139D01*
X140272139Y-131457782D01*
X140381632Y-131293914D01*
X140457051Y-131111835D01*
X140474081Y-131026220D01*
X140495500Y-130918543D01*
X140495500Y-130721456D01*
X140457052Y-130528170D01*
X140457051Y-130528169D01*
X140457051Y-130528165D01*
X140440312Y-130487753D01*
X140381635Y-130346092D01*
X140381628Y-130346079D01*
X140272139Y-130182218D01*
X140272136Y-130182214D01*
X140132785Y-130042863D01*
X140132781Y-130042860D01*
X139968920Y-129933371D01*
X139968907Y-129933364D01*
X139786839Y-129857950D01*
X139786829Y-129857947D01*
X139593543Y-129819500D01*
X139593541Y-129819500D01*
X138596459Y-129819500D01*
X138596457Y-129819500D01*
X138403170Y-129857947D01*
X138403160Y-129857950D01*
X138221092Y-129933364D01*
X138221079Y-129933371D01*
X138057218Y-130042860D01*
X138057214Y-130042863D01*
X137917863Y-130182214D01*
X137917860Y-130182218D01*
X137808371Y-130346079D01*
X137808364Y-130346092D01*
X137732950Y-130528160D01*
X137732947Y-130528170D01*
X137694500Y-130721456D01*
X137694500Y-130721459D01*
X137694500Y-130918541D01*
X137694500Y-130918543D01*
X137694499Y-130918543D01*
X136465500Y-130918543D01*
X136465500Y-130721456D01*
X136427052Y-130528170D01*
X136427051Y-130528169D01*
X136427051Y-130528165D01*
X136410312Y-130487753D01*
X136351635Y-130346092D01*
X136351628Y-130346079D01*
X136242139Y-130182218D01*
X136242136Y-130182214D01*
X136102785Y-130042863D01*
X136102781Y-130042860D01*
X135938920Y-129933371D01*
X135938907Y-129933364D01*
X135756839Y-129857950D01*
X135756829Y-129857947D01*
X135563543Y-129819500D01*
X135563541Y-129819500D01*
X134266459Y-129819500D01*
X134266457Y-129819500D01*
X134073170Y-129857947D01*
X134073160Y-129857950D01*
X133891092Y-129933364D01*
X133891079Y-129933371D01*
X133727218Y-130042860D01*
X133727214Y-130042863D01*
X133587863Y-130182214D01*
X133587860Y-130182218D01*
X133478371Y-130346079D01*
X133478364Y-130346092D01*
X133402950Y-130528160D01*
X133402947Y-130528170D01*
X133364500Y-130721456D01*
X133364500Y-130721459D01*
X133364500Y-130918541D01*
X133364500Y-130918543D01*
X133364499Y-130918543D01*
X127807055Y-130918543D01*
X126511820Y-129623307D01*
X126478335Y-129561984D01*
X126475501Y-129535626D01*
X126475501Y-125615384D01*
X126495186Y-125548345D01*
X126526616Y-125515066D01*
X126629789Y-125440107D01*
X126629789Y-125440106D01*
X126629793Y-125440104D01*
X126780105Y-125289792D01*
X126780107Y-125289788D01*
X126780110Y-125289786D01*
X126905049Y-125117820D01*
X126905048Y-125117820D01*
X126905052Y-125117816D01*
X127001558Y-124928412D01*
X127067247Y-124726243D01*
X127100501Y-124516287D01*
X127100501Y-124303713D01*
X127067247Y-124093757D01*
X127001558Y-123891588D01*
X126905052Y-123702184D01*
X126905050Y-123702181D01*
X126905049Y-123702179D01*
X126780110Y-123530213D01*
X126629787Y-123379890D01*
X126457821Y-123254951D01*
X126268415Y-123158444D01*
X126268414Y-123158443D01*
X126268413Y-123158443D01*
X126066244Y-123092754D01*
X126066242Y-123092753D01*
X126066241Y-123092753D01*
X125904958Y-123067208D01*
X125856288Y-123059500D01*
X125643714Y-123059500D01*
X125595043Y-123067208D01*
X125433761Y-123092753D01*
X125231586Y-123158444D01*
X125042180Y-123254951D01*
X124870214Y-123379890D01*
X124719891Y-123530213D01*
X124594949Y-123702184D01*
X124594947Y-123702187D01*
X124590482Y-123710950D01*
X124542506Y-123761744D01*
X124474684Y-123778537D01*
X124408550Y-123755997D01*
X124369514Y-123710944D01*
X124365051Y-123702184D01*
X124365049Y-123702181D01*
X124365048Y-123702179D01*
X124240109Y-123530213D01*
X124089786Y-123379890D01*
X123917820Y-123254951D01*
X123728414Y-123158444D01*
X123728413Y-123158443D01*
X123728412Y-123158443D01*
X123526243Y-123092754D01*
X123526241Y-123092753D01*
X123526240Y-123092753D01*
X123364957Y-123067208D01*
X123316287Y-123059500D01*
X123103713Y-123059500D01*
X123055042Y-123067208D01*
X122893760Y-123092753D01*
X122691585Y-123158444D01*
X122502179Y-123254951D01*
X122330213Y-123379890D01*
X122179890Y-123530213D01*
X122054951Y-123702179D01*
X121958444Y-123891585D01*
X121892753Y-124093760D01*
X121859500Y-124303713D01*
X121859500Y-124516286D01*
X121891748Y-124719896D01*
X121892754Y-124726243D01*
X121939531Y-124870208D01*
X121958444Y-124928414D01*
X122054951Y-125117820D01*
X122179890Y-125289786D01*
X122330213Y-125440109D01*
X122502179Y-125565048D01*
X122502181Y-125565049D01*
X122502184Y-125565051D01*
X122691588Y-125661557D01*
X122893757Y-125727246D01*
X123096236Y-125759315D01*
X123159369Y-125789244D01*
X123196301Y-125848555D01*
X123195303Y-125918418D01*
X123164518Y-125969469D01*
X122555808Y-126578181D01*
X122494485Y-126611666D01*
X122468127Y-126614500D01*
X116821874Y-126614500D01*
X116754835Y-126594815D01*
X116734193Y-126578181D01*
X114332483Y-124176470D01*
X114332482Y-124176469D01*
X114213657Y-124097074D01*
X114213653Y-124097071D01*
X114213648Y-124097069D01*
X114081620Y-124042381D01*
X114081614Y-124042379D01*
X113941457Y-124014500D01*
X113941455Y-124014500D01*
X104226455Y-124014500D01*
X104083545Y-124014500D01*
X104083543Y-124014500D01*
X103943385Y-124042379D01*
X103943379Y-124042381D01*
X103811349Y-124097069D01*
X103811340Y-124097074D01*
X103692521Y-124176467D01*
X103692517Y-124176470D01*
X103501421Y-124367566D01*
X103440098Y-124401051D01*
X103394346Y-124402359D01*
X103376291Y-124399500D01*
X103376287Y-124399500D01*
X102913713Y-124399500D01*
X102865042Y-124407208D01*
X102703760Y-124432753D01*
X102501585Y-124498444D01*
X102312179Y-124594951D01*
X102140213Y-124719890D01*
X101989890Y-124870213D01*
X101864951Y-125042179D01*
X101768444Y-125231585D01*
X101702753Y-125433760D01*
X101669500Y-125643713D01*
X101669500Y-125856286D01*
X101702753Y-126066239D01*
X101768444Y-126268414D01*
X101864951Y-126457820D01*
X101989890Y-126629786D01*
X102140209Y-126780105D01*
X102140214Y-126780109D01*
X102304793Y-126899682D01*
X102347459Y-126955011D01*
X102353438Y-127024625D01*
X102320833Y-127086420D01*
X102304793Y-127100318D01*
X102140214Y-127219890D01*
X102140209Y-127219894D01*
X101989890Y-127370213D01*
X101864951Y-127542179D01*
X101768444Y-127731585D01*
X101702753Y-127933760D01*
X101674419Y-128112655D01*
X101669500Y-128143713D01*
X101669500Y-128356287D01*
X101670261Y-128361090D01*
X101690437Y-128488481D01*
X101702754Y-128566243D01*
X101763540Y-128753323D01*
X101768444Y-128768414D01*
X101864951Y-128957820D01*
X101989890Y-129129786D01*
X102140209Y-129280105D01*
X102140214Y-129280109D01*
X102304793Y-129399682D01*
X102347459Y-129455011D01*
X102353438Y-129524625D01*
X102320833Y-129586420D01*
X102304793Y-129600318D01*
X102140214Y-129719890D01*
X102140209Y-129719894D01*
X101989890Y-129870213D01*
X101864951Y-130042179D01*
X101768444Y-130231585D01*
X101702753Y-130433760D01*
X101669500Y-130643713D01*
X101669500Y-130856286D01*
X101695680Y-131021583D01*
X101702754Y-131066243D01*
X101764523Y-131256349D01*
X101768444Y-131268414D01*
X101864951Y-131457820D01*
X101989890Y-131629786D01*
X102140213Y-131780109D01*
X102312179Y-131905048D01*
X102312181Y-131905049D01*
X102312184Y-131905051D01*
X102501588Y-132001557D01*
X102703757Y-132067246D01*
X102913713Y-132100500D01*
X102913714Y-132100500D01*
X103376286Y-132100500D01*
X103376287Y-132100500D01*
X103586243Y-132067246D01*
X103788412Y-132001557D01*
X103977816Y-131905051D01*
X103999789Y-131889086D01*
X104149786Y-131780109D01*
X104149788Y-131780106D01*
X104149792Y-131780104D01*
X104300104Y-131629792D01*
X104300106Y-131629788D01*
X104300109Y-131629786D01*
X104425048Y-131457820D01*
X104425047Y-131457820D01*
X104425051Y-131457816D01*
X104521557Y-131268412D01*
X104587246Y-131066243D01*
X104620500Y-130856287D01*
X104620500Y-130643713D01*
X104587246Y-130433757D01*
X104521557Y-130231588D01*
X104425051Y-130042184D01*
X104425049Y-130042181D01*
X104425048Y-130042179D01*
X104300109Y-129870213D01*
X104149792Y-129719896D01*
X104129556Y-129705194D01*
X103985204Y-129600316D01*
X103942540Y-129544989D01*
X103936561Y-129475376D01*
X103969166Y-129413580D01*
X103985199Y-129399686D01*
X104149792Y-129280104D01*
X104300104Y-129129792D01*
X104300106Y-129129788D01*
X104300109Y-129129786D01*
X104425048Y-128957820D01*
X104425047Y-128957820D01*
X104425051Y-128957816D01*
X104521557Y-128768412D01*
X104587246Y-128566243D01*
X104620500Y-128356287D01*
X104620500Y-128143713D01*
X104587246Y-127933757D01*
X104521557Y-127731588D01*
X104425051Y-127542184D01*
X104425049Y-127542181D01*
X104425048Y-127542179D01*
X104300109Y-127370213D01*
X104149792Y-127219896D01*
X104113908Y-127193825D01*
X103985204Y-127100316D01*
X103942540Y-127044989D01*
X103936561Y-126975376D01*
X103969166Y-126913580D01*
X103985199Y-126899686D01*
X104149792Y-126780104D01*
X104300104Y-126629792D01*
X104300106Y-126629788D01*
X104300109Y-126629786D01*
X104425048Y-126457820D01*
X104425047Y-126457820D01*
X104425051Y-126457816D01*
X104521557Y-126268412D01*
X104587246Y-126066243D01*
X104620500Y-125856287D01*
X104620500Y-125643713D01*
X104620500Y-125643706D01*
X104614987Y-125608897D01*
X104623942Y-125539604D01*
X104668939Y-125486152D01*
X104735690Y-125465513D01*
X104737460Y-125465500D01*
X108788808Y-125465500D01*
X108855847Y-125485185D01*
X108901602Y-125537989D01*
X108911546Y-125607147D01*
X108899293Y-125645794D01*
X108841118Y-125759967D01*
X108780290Y-125947173D01*
X108749500Y-126141577D01*
X108749500Y-126338422D01*
X108780290Y-126532826D01*
X108841117Y-126720029D01*
X108906397Y-126848147D01*
X108930476Y-126895405D01*
X109046172Y-127054646D01*
X109185354Y-127193828D01*
X109344595Y-127309524D01*
X109427455Y-127351743D01*
X109519970Y-127398882D01*
X109519972Y-127398882D01*
X109519975Y-127398884D01*
X109620317Y-127431487D01*
X109707173Y-127459709D01*
X109901578Y-127490500D01*
X109901583Y-127490500D01*
X110098422Y-127490500D01*
X110297454Y-127458976D01*
X110366747Y-127467930D01*
X110404533Y-127493768D01*
X111070412Y-128159647D01*
X111103897Y-128220970D01*
X111106089Y-128234726D01*
X111114826Y-128320253D01*
X111165241Y-128472396D01*
X111169092Y-128484015D01*
X111169093Y-128484018D01*
X111253678Y-128621151D01*
X111272118Y-128688544D01*
X111253678Y-128751344D01*
X111169095Y-128888474D01*
X111169091Y-128888483D01*
X111114826Y-129052245D01*
X111114825Y-129052246D01*
X111107510Y-129123852D01*
X111081113Y-129188544D01*
X111071833Y-129198930D01*
X110404532Y-129866231D01*
X110343209Y-129899716D01*
X110297453Y-129901023D01*
X110098422Y-129869500D01*
X110098417Y-129869500D01*
X109901583Y-129869500D01*
X109901578Y-129869500D01*
X109707173Y-129900290D01*
X109519970Y-129961117D01*
X109344594Y-130050476D01*
X109277640Y-130099122D01*
X109185354Y-130166172D01*
X109185352Y-130166174D01*
X109185351Y-130166174D01*
X109046174Y-130305351D01*
X109046174Y-130305352D01*
X109046172Y-130305354D01*
X109013750Y-130349979D01*
X108930476Y-130464594D01*
X108841117Y-130639970D01*
X108780290Y-130827173D01*
X108749500Y-131021577D01*
X108749500Y-131218422D01*
X108780290Y-131412826D01*
X108841117Y-131600029D01*
X108926950Y-131768484D01*
X108930476Y-131775405D01*
X109046172Y-131934646D01*
X109185354Y-132073828D01*
X109344595Y-132189524D01*
X109427455Y-132231743D01*
X109519970Y-132278882D01*
X109519972Y-132278882D01*
X109519975Y-132278884D01*
X109620317Y-132311487D01*
X109707173Y-132339709D01*
X109901578Y-132370500D01*
X109901583Y-132370500D01*
X110098422Y-132370500D01*
X110292826Y-132339709D01*
X110480025Y-132278884D01*
X110655405Y-132189524D01*
X110814646Y-132073828D01*
X110953828Y-131934646D01*
X111069524Y-131775405D01*
X111158884Y-131600025D01*
X111219709Y-131412826D01*
X111238544Y-131293907D01*
X111250500Y-131218422D01*
X111250500Y-131021577D01*
X111218976Y-130822545D01*
X111227930Y-130753252D01*
X111253768Y-130715466D01*
X111329264Y-130639970D01*
X111447997Y-130521237D01*
X111509319Y-130487753D01*
X111574680Y-130491212D01*
X111692247Y-130530171D01*
X111793323Y-130540497D01*
X112366676Y-130540496D01*
X112366684Y-130540495D01*
X112366687Y-130540495D01*
X112422030Y-130534841D01*
X112467753Y-130530171D01*
X112631516Y-130475905D01*
X112778350Y-130385337D01*
X112900340Y-130263347D01*
X112990908Y-130116513D01*
X113045174Y-129952750D01*
X113055500Y-129851674D01*
X113055499Y-129153321D01*
X113045174Y-129052244D01*
X112990908Y-128888481D01*
X112906320Y-128751342D01*
X112887881Y-128683953D01*
X112906322Y-128621151D01*
X112990903Y-128484024D01*
X112990902Y-128484024D01*
X112990908Y-128484016D01*
X113045174Y-128320253D01*
X113055500Y-128219177D01*
X113055499Y-127520824D01*
X113052401Y-127490500D01*
X113045174Y-127419747D01*
X113028758Y-127370208D01*
X112990908Y-127255984D01*
X112900340Y-127109150D01*
X112778350Y-126987160D01*
X112631516Y-126896592D01*
X112467753Y-126842326D01*
X112467751Y-126842325D01*
X112366678Y-126832000D01*
X111793330Y-126832000D01*
X111793312Y-126832001D01*
X111692247Y-126842325D01*
X111692240Y-126842327D01*
X111584066Y-126878172D01*
X111514238Y-126880573D01*
X111457382Y-126848147D01*
X111253768Y-126644533D01*
X111220283Y-126583210D01*
X111218976Y-126537454D01*
X111250500Y-126338422D01*
X111250500Y-126141577D01*
X111219709Y-125947173D01*
X111190178Y-125856287D01*
X111158884Y-125759975D01*
X111158882Y-125759972D01*
X111158881Y-125759967D01*
X111100707Y-125645794D01*
X111087811Y-125577125D01*
X111114088Y-125512385D01*
X111171194Y-125472128D01*
X111211192Y-125465500D01*
X113518126Y-125465500D01*
X113585165Y-125485185D01*
X113605807Y-125501819D01*
X116007514Y-127903527D01*
X116007517Y-127903530D01*
X116007520Y-127903532D01*
X116075332Y-127948842D01*
X116126347Y-127982929D01*
X116258380Y-128037619D01*
X116258384Y-128037619D01*
X116258385Y-128037620D01*
X116398542Y-128065500D01*
X116398545Y-128065500D01*
X117618945Y-128065500D01*
X117638701Y-128071301D01*
X117659269Y-128072240D01*
X117671545Y-128080945D01*
X117685984Y-128085185D01*
X117699466Y-128100744D01*
X117716263Y-128112655D01*
X117721884Y-128126616D01*
X117731739Y-128137989D01*
X117734669Y-128158367D01*
X117742360Y-128177468D01*
X117739541Y-128192251D01*
X117741683Y-128207147D01*
X117733129Y-128225876D01*
X117729273Y-128246102D01*
X117714858Y-128265883D01*
X117712658Y-128270703D01*
X117708857Y-128274892D01*
X117707742Y-128276065D01*
X117642158Y-128341650D01*
X117636048Y-128351554D01*
X117627181Y-128360892D01*
X117607648Y-128372220D01*
X117590860Y-128387321D01*
X117575655Y-128390776D01*
X117566742Y-128395946D01*
X117555221Y-128395420D01*
X117537269Y-128399500D01*
X117196911Y-128399500D01*
X117073179Y-128424112D01*
X117073167Y-128424115D01*
X116956613Y-128472393D01*
X116956611Y-128472394D01*
X116851704Y-128542490D01*
X115279989Y-130114205D01*
X115209893Y-130219112D01*
X115209892Y-130219114D01*
X115161613Y-130335670D01*
X115161612Y-130335673D01*
X115158768Y-130349977D01*
X115158767Y-130349979D01*
X115136999Y-130459412D01*
X115136999Y-131026220D01*
X115117314Y-131093259D01*
X115078097Y-131131758D01*
X115016649Y-131169659D01*
X114894660Y-131291648D01*
X114804092Y-131438481D01*
X114804090Y-131438486D01*
X114795557Y-131464238D01*
X114749825Y-131602247D01*
X114749825Y-131602248D01*
X114749824Y-131602248D01*
X114739499Y-131703315D01*
X114739499Y-132276669D01*
X114739500Y-132276687D01*
X114749824Y-132377752D01*
X114786108Y-132487249D01*
X114804091Y-132541516D01*
X114894659Y-132688350D01*
X115016649Y-132810340D01*
X115078096Y-132848241D01*
X115124820Y-132900186D01*
X115136999Y-132953778D01*
X115136999Y-135468335D01*
X115117314Y-135535374D01*
X115100680Y-135556016D01*
X114788513Y-135868182D01*
X114727190Y-135901667D01*
X114700832Y-135904501D01*
X114333330Y-135904501D01*
X114333312Y-135904502D01*
X114232247Y-135914826D01*
X114068484Y-135969093D01*
X114068481Y-135969094D01*
X113921648Y-136059662D01*
X113799661Y-136181649D01*
X113709093Y-136328482D01*
X113709091Y-136328487D01*
X113681719Y-136411089D01*
X113654826Y-136492248D01*
X113654826Y-136492249D01*
X113654825Y-136492249D01*
X113644500Y-136593316D01*
X113644500Y-137291670D01*
X113644501Y-137291688D01*
X113654825Y-137392753D01*
X113691109Y-137502250D01*
X113709092Y-137556517D01*
X113799660Y-137703351D01*
X113921650Y-137825341D01*
X113993991Y-137869961D01*
X114040716Y-137921909D01*
X114051937Y-137990872D01*
X114024094Y-138054954D01*
X113966025Y-138093810D01*
X113928894Y-138099500D01*
X113895097Y-138099500D01*
X113828058Y-138079815D01*
X113807416Y-138063181D01*
X111142074Y-135397839D01*
X111108589Y-135336516D01*
X111108138Y-135334349D01*
X111077238Y-135179010D01*
X111077237Y-135179003D01*
X111067915Y-135156498D01*
X111016897Y-135033327D01*
X111016890Y-135033314D01*
X110929289Y-134902211D01*
X110929286Y-134902207D01*
X110817792Y-134790713D01*
X110817788Y-134790710D01*
X110686685Y-134703109D01*
X110686672Y-134703102D01*
X110541001Y-134642764D01*
X110540989Y-134642761D01*
X110386345Y-134612000D01*
X110386342Y-134612000D01*
X110228658Y-134612000D01*
X110228655Y-134612000D01*
X110074010Y-134642761D01*
X110073998Y-134642764D01*
X109928327Y-134703102D01*
X109928314Y-134703109D01*
X109797211Y-134790710D01*
X109797207Y-134790713D01*
X109685713Y-134902207D01*
X109685710Y-134902211D01*
X109598109Y-135033314D01*
X109598102Y-135033327D01*
X109537764Y-135178998D01*
X109537761Y-135179010D01*
X109507000Y-135333653D01*
X109507000Y-135491346D01*
X109537761Y-135645989D01*
X109537764Y-135646001D01*
X109598102Y-135791672D01*
X109598109Y-135791685D01*
X109685710Y-135922788D01*
X109685713Y-135922792D01*
X109797207Y-136034286D01*
X109797211Y-136034289D01*
X109928314Y-136121890D01*
X109928327Y-136121897D01*
X110072583Y-136181649D01*
X110074003Y-136182237D01*
X110118505Y-136191089D01*
X110229349Y-136213138D01*
X110291260Y-136245523D01*
X110292839Y-136247074D01*
X113110139Y-139064374D01*
X113110149Y-139064385D01*
X113114479Y-139068715D01*
X113114480Y-139068716D01*
X113226284Y-139180520D01*
X113305930Y-139226503D01*
X113363215Y-139259577D01*
X113515943Y-139300500D01*
X113674057Y-139300500D01*
X117388330Y-139300500D01*
X117388346Y-139300501D01*
X117395942Y-139300501D01*
X117554053Y-139300501D01*
X117554056Y-139300501D01*
X117706784Y-139259577D01*
X117764069Y-139226503D01*
X117843715Y-139180520D01*
X117955519Y-139068716D01*
X117955519Y-139068714D01*
X117965723Y-139058511D01*
X117965726Y-139058506D01*
X119364662Y-137659571D01*
X119425983Y-137626088D01*
X119428150Y-137625637D01*
X119486085Y-137614112D01*
X119583497Y-137594736D01*
X119729179Y-137534393D01*
X119860289Y-137446788D01*
X119971789Y-137335288D01*
X120059394Y-137204178D01*
X120119737Y-137058496D01*
X120150500Y-136903841D01*
X120150500Y-136746157D01*
X120150500Y-136746154D01*
X120150499Y-136746152D01*
X120132668Y-136656510D01*
X120119737Y-136591502D01*
X120086318Y-136510821D01*
X120059397Y-136445826D01*
X120059390Y-136445813D01*
X119971789Y-136314710D01*
X119971786Y-136314706D01*
X119882866Y-136225786D01*
X119849381Y-136164463D01*
X119854365Y-136094771D01*
X119882863Y-136050427D01*
X119909941Y-136023350D01*
X120000509Y-135876516D01*
X120054775Y-135712753D01*
X120065101Y-135611677D01*
X120065100Y-135038324D01*
X120054775Y-134937247D01*
X120000509Y-134773484D01*
X119909941Y-134626650D01*
X119909939Y-134626648D01*
X119906149Y-134620503D01*
X119908629Y-134618972D01*
X119887436Y-134566487D01*
X119900455Y-134497841D01*
X119909515Y-134483739D01*
X119912837Y-134478352D01*
X119912840Y-134478350D01*
X120003408Y-134331516D01*
X120057674Y-134167753D01*
X120068000Y-134066677D01*
X120067999Y-133493324D01*
X120057674Y-133392247D01*
X120003408Y-133228484D01*
X119912840Y-133081650D01*
X119790850Y-132959660D01*
X119680585Y-132891648D01*
X119644018Y-132869093D01*
X119644013Y-132869091D01*
X119642569Y-132868612D01*
X119480253Y-132814826D01*
X119480251Y-132814825D01*
X119379178Y-132804500D01*
X118780830Y-132804500D01*
X118780812Y-132804501D01*
X118679747Y-132814825D01*
X118515984Y-132869092D01*
X118515981Y-132869093D01*
X118369148Y-132959661D01*
X118247161Y-133081648D01*
X118156593Y-133228481D01*
X118156592Y-133228484D01*
X118102326Y-133392247D01*
X118102326Y-133392248D01*
X118102325Y-133392248D01*
X118092000Y-133493315D01*
X118092000Y-134066669D01*
X118092001Y-134066687D01*
X118102325Y-134167752D01*
X118121283Y-134224961D01*
X118156028Y-134329815D01*
X118156592Y-134331515D01*
X118156595Y-134331522D01*
X118190052Y-134385764D01*
X118208492Y-134453156D01*
X118187569Y-134519820D01*
X118133927Y-134564589D01*
X118064596Y-134573250D01*
X118001589Y-134543053D01*
X117996832Y-134538541D01*
X117962952Y-134504661D01*
X117962951Y-134504660D01*
X117816117Y-134414092D01*
X117652354Y-134359826D01*
X117652352Y-134359825D01*
X117551285Y-134349500D01*
X117551278Y-134349500D01*
X117233767Y-134349500D01*
X117166728Y-134329815D01*
X117146086Y-134313181D01*
X116454318Y-133621413D01*
X116420833Y-133560090D01*
X116417999Y-133533732D01*
X116417999Y-132953778D01*
X116437684Y-132886739D01*
X116476900Y-132848241D01*
X116538349Y-132810340D01*
X116660339Y-132688350D01*
X116750907Y-132541516D01*
X116805173Y-132377753D01*
X116815499Y-132276677D01*
X116815498Y-131703324D01*
X116805173Y-131602247D01*
X116750907Y-131438484D01*
X116660339Y-131291650D01*
X116538349Y-131169660D01*
X116538348Y-131169659D01*
X116476901Y-131131758D01*
X116470077Y-131124171D01*
X116460796Y-131119933D01*
X116447108Y-131098634D01*
X116430177Y-131079810D01*
X116427532Y-131068173D01*
X116423022Y-131061155D01*
X116417999Y-131026220D01*
X116417999Y-130839167D01*
X116437684Y-130772128D01*
X116454318Y-130751486D01*
X117467125Y-129738679D01*
X117528448Y-129705194D01*
X117598140Y-129710178D01*
X117642487Y-129738679D01*
X117764148Y-129860340D01*
X117910982Y-129950908D01*
X118074745Y-130005174D01*
X118175821Y-130015500D01*
X118874174Y-130015499D01*
X118874182Y-130015498D01*
X118874185Y-130015498D01*
X118929528Y-130009844D01*
X118975251Y-130005174D01*
X119139014Y-129950908D01*
X119285848Y-129860340D01*
X119407838Y-129738350D01*
X119498406Y-129591516D01*
X119552672Y-129427753D01*
X119562998Y-129326677D01*
X119562997Y-128753324D01*
X119552672Y-128652247D01*
X119498406Y-128488484D01*
X119495655Y-128484024D01*
X119457983Y-128422947D01*
X119450174Y-128394411D01*
X119439838Y-128366697D01*
X119441057Y-128361090D01*
X119439543Y-128355555D01*
X119448402Y-128327327D01*
X119454690Y-128298424D01*
X119459483Y-128292019D01*
X119460466Y-128288891D01*
X119475831Y-128270180D01*
X119644195Y-128101816D01*
X119705516Y-128068334D01*
X119731874Y-128065500D01*
X120973948Y-128065500D01*
X121040987Y-128085185D01*
X121086742Y-128137989D01*
X121096686Y-128207147D01*
X121067661Y-128270703D01*
X121061629Y-128277181D01*
X120997161Y-128341648D01*
X120906593Y-128488481D01*
X120906592Y-128488484D01*
X120852326Y-128652247D01*
X120852326Y-128652248D01*
X120852325Y-128652248D01*
X120842000Y-128753315D01*
X120842000Y-129326669D01*
X120842001Y-129326687D01*
X120852325Y-129427752D01*
X120876266Y-129500000D01*
X120906592Y-129591516D01*
X120997160Y-129738350D01*
X121119150Y-129860340D01*
X121265984Y-129950908D01*
X121429747Y-130005174D01*
X121530823Y-130015500D01*
X122129176Y-130015499D01*
X122129184Y-130015498D01*
X122129187Y-130015498D01*
X122184530Y-130009844D01*
X122230253Y-130005174D01*
X122394016Y-129950908D01*
X122540850Y-129860340D01*
X122662840Y-129738350D01*
X122753408Y-129591516D01*
X122807674Y-129427753D01*
X122818000Y-129326677D01*
X122817999Y-128753324D01*
X122807674Y-128652247D01*
X122753408Y-128488484D01*
X122662840Y-128341650D01*
X122598371Y-128277181D01*
X122564886Y-128215858D01*
X122569870Y-128146166D01*
X122611742Y-128090233D01*
X122677206Y-128065816D01*
X122686052Y-128065500D01*
X122891458Y-128065500D01*
X122985752Y-128046742D01*
X123031621Y-128037619D01*
X123163654Y-127982929D01*
X123214669Y-127948842D01*
X123282481Y-127903532D01*
X124812820Y-126373191D01*
X124874143Y-126339707D01*
X124943834Y-126344691D01*
X124999768Y-126386563D01*
X125024185Y-126452027D01*
X125024501Y-126460873D01*
X125024501Y-129958955D01*
X125042664Y-130050263D01*
X125052382Y-130099120D01*
X125059587Y-130116515D01*
X125107071Y-130231151D01*
X125186468Y-130349979D01*
X125186471Y-130349983D01*
X126464549Y-131628059D01*
X126498034Y-131689382D01*
X126493050Y-131759073D01*
X126489260Y-131768124D01*
X126489096Y-131768474D01*
X126462705Y-131848116D01*
X126434827Y-131932247D01*
X126434827Y-131932248D01*
X126434826Y-131932248D01*
X126424501Y-132033315D01*
X126424501Y-132606669D01*
X126424502Y-132606687D01*
X126434826Y-132707752D01*
X126468821Y-132810340D01*
X126488289Y-132869091D01*
X126489093Y-132871515D01*
X126489094Y-132871518D01*
X126579662Y-133018352D01*
X126584139Y-133024013D01*
X126581683Y-133025954D01*
X126608454Y-133074981D01*
X126603470Y-133144673D01*
X126574969Y-133189020D01*
X125126474Y-134637514D01*
X125126471Y-134637517D01*
X125052292Y-134748536D01*
X125052291Y-134748537D01*
X125047075Y-134756342D01*
X125047072Y-134756348D01*
X124992383Y-134888379D01*
X124992381Y-134888385D01*
X124964502Y-135028542D01*
X124964502Y-139972947D01*
X124944817Y-140039986D01*
X124928184Y-140060628D01*
X124807161Y-140181651D01*
X124716595Y-140328481D01*
X124716593Y-140328486D01*
X124710580Y-140346632D01*
X124662328Y-140492247D01*
X124662328Y-140492248D01*
X124662327Y-140492248D01*
X124652002Y-140593315D01*
X124652002Y-141166669D01*
X124652003Y-141166687D01*
X124662327Y-141267752D01*
X124662328Y-141267755D01*
X124685107Y-141336496D01*
X124687509Y-141406324D01*
X124651777Y-141466366D01*
X124589257Y-141497559D01*
X124567401Y-141499500D01*
X123462600Y-141499500D01*
X123395561Y-141479815D01*
X123349806Y-141427011D01*
X123339862Y-141357853D01*
X123344891Y-141336505D01*
X123367674Y-141267753D01*
X123378000Y-141166677D01*
X123377999Y-140593324D01*
X123376455Y-140578213D01*
X123367674Y-140492247D01*
X123357154Y-140460500D01*
X123313408Y-140328484D01*
X123222840Y-140181650D01*
X123100850Y-140059660D01*
X122954016Y-139969092D01*
X122790253Y-139914826D01*
X122790251Y-139914825D01*
X122689178Y-139904500D01*
X122090830Y-139904500D01*
X122090812Y-139904501D01*
X121989747Y-139914825D01*
X121825984Y-139969092D01*
X121825981Y-139969093D01*
X121679148Y-140059661D01*
X121557161Y-140181648D01*
X121466593Y-140328481D01*
X121466591Y-140328486D01*
X121460578Y-140346632D01*
X121412326Y-140492247D01*
X121412326Y-140492248D01*
X121412325Y-140492248D01*
X121402000Y-140593315D01*
X121402000Y-141166669D01*
X121402001Y-141166687D01*
X121412325Y-141267752D01*
X121412326Y-141267755D01*
X121435105Y-141336496D01*
X121437507Y-141406324D01*
X121401775Y-141466366D01*
X121339255Y-141497559D01*
X121317399Y-141499500D01*
X119617703Y-141499500D01*
X119550664Y-141479815D01*
X119504909Y-141427011D01*
X119494965Y-141357853D01*
X119496086Y-141351309D01*
X119510499Y-141278846D01*
X119510500Y-141278844D01*
X119510500Y-141121155D01*
X119510499Y-141121153D01*
X119479738Y-140966510D01*
X119479737Y-140966503D01*
X119479735Y-140966498D01*
X119419397Y-140820827D01*
X119419390Y-140820814D01*
X119331789Y-140689711D01*
X119331786Y-140689707D01*
X119220292Y-140578213D01*
X119220288Y-140578210D01*
X119089185Y-140490609D01*
X119089172Y-140490602D01*
X118943501Y-140430264D01*
X118943489Y-140430261D01*
X118788845Y-140399500D01*
X118788842Y-140399500D01*
X118631158Y-140399500D01*
X118631155Y-140399500D01*
X118476510Y-140430261D01*
X118476498Y-140430264D01*
X118330827Y-140490602D01*
X118330814Y-140490609D01*
X118199125Y-140578602D01*
X118132447Y-140599480D01*
X118130234Y-140599500D01*
X112600097Y-140599500D01*
X112533058Y-140579815D01*
X112512416Y-140563181D01*
X108824574Y-136875339D01*
X108791089Y-136814016D01*
X108790638Y-136811849D01*
X108759738Y-136656510D01*
X108759737Y-136656503D01*
X108733568Y-136593324D01*
X108699397Y-136510827D01*
X108699390Y-136510814D01*
X108611789Y-136379711D01*
X108611786Y-136379707D01*
X108500292Y-136268213D01*
X108500288Y-136268210D01*
X108369185Y-136180609D01*
X108369172Y-136180602D01*
X108223501Y-136120264D01*
X108223489Y-136120261D01*
X108068845Y-136089500D01*
X108068842Y-136089500D01*
X107911158Y-136089500D01*
X107911155Y-136089500D01*
X107756510Y-136120261D01*
X107756498Y-136120264D01*
X107610827Y-136180602D01*
X107610814Y-136180609D01*
X107479711Y-136268210D01*
X107479707Y-136268213D01*
X107368213Y-136379707D01*
X107368210Y-136379711D01*
X107280609Y-136510814D01*
X107280602Y-136510827D01*
X107220264Y-136656498D01*
X107220261Y-136656510D01*
X107189500Y-136811153D01*
X107189500Y-136968846D01*
X107220261Y-137123489D01*
X107220264Y-137123501D01*
X107280602Y-137269172D01*
X107280609Y-137269185D01*
X107368210Y-137400288D01*
X107368213Y-137400292D01*
X107479707Y-137511786D01*
X107479711Y-137511789D01*
X107610814Y-137599390D01*
X107610827Y-137599397D01*
X107756107Y-137659573D01*
X107756503Y-137659737D01*
X107821147Y-137672595D01*
X107911849Y-137690638D01*
X107973760Y-137723023D01*
X107975339Y-137724574D01*
X111538584Y-141287819D01*
X111572069Y-141349142D01*
X111567085Y-141418834D01*
X111525213Y-141474767D01*
X111459749Y-141499184D01*
X111450903Y-141499500D01*
X102079108Y-141499500D01*
X101951812Y-141533608D01*
X101837686Y-141599500D01*
X101837683Y-141599502D01*
X101744502Y-141692683D01*
X101744500Y-141692686D01*
X101678608Y-141806812D01*
X101651471Y-141908093D01*
X101615106Y-141967754D01*
X101552259Y-141998283D01*
X101531696Y-142000000D01*
X100624500Y-142000000D01*
X100557461Y-141980315D01*
X100511706Y-141927511D01*
X100500500Y-141876000D01*
X100500500Y-135643713D01*
X101669500Y-135643713D01*
X101669500Y-135856286D01*
X101701711Y-136059662D01*
X101702754Y-136066243D01*
X101768378Y-136268213D01*
X101768444Y-136268414D01*
X101864951Y-136457820D01*
X101989890Y-136629786D01*
X102128705Y-136768601D01*
X102162190Y-136829924D01*
X102157206Y-136899616D01*
X102115334Y-136955549D01*
X102106121Y-136961821D01*
X101951342Y-137057289D01*
X101827289Y-137181342D01*
X101735187Y-137330663D01*
X101735185Y-137330668D01*
X101712115Y-137400289D01*
X101680001Y-137497203D01*
X101680001Y-137497204D01*
X101680000Y-137497204D01*
X101669500Y-137599983D01*
X101669500Y-138900001D01*
X101669501Y-138900018D01*
X101680000Y-139002796D01*
X101680001Y-139002799D01*
X101735185Y-139169331D01*
X101735187Y-139169336D01*
X101742087Y-139180522D01*
X101827288Y-139318656D01*
X101951344Y-139442712D01*
X102100666Y-139534814D01*
X102267203Y-139589999D01*
X102369991Y-139600500D01*
X103920008Y-139600499D01*
X104022797Y-139589999D01*
X104189334Y-139534814D01*
X104338656Y-139442712D01*
X104462712Y-139318656D01*
X104554814Y-139169334D01*
X104609999Y-139002797D01*
X104620500Y-138900009D01*
X104620499Y-137599992D01*
X104616506Y-137560907D01*
X104609999Y-137497203D01*
X104609998Y-137497200D01*
X104592866Y-137445499D01*
X104554814Y-137330666D01*
X104462712Y-137181344D01*
X104338656Y-137057288D01*
X104189334Y-136965186D01*
X104189333Y-136965185D01*
X104183878Y-136961821D01*
X104137154Y-136909873D01*
X104125931Y-136840910D01*
X104153775Y-136776828D01*
X104161272Y-136768623D01*
X104300104Y-136629792D01*
X104327920Y-136591507D01*
X104425048Y-136457820D01*
X104425047Y-136457820D01*
X104425051Y-136457816D01*
X104521557Y-136268412D01*
X104587246Y-136066243D01*
X104620500Y-135856287D01*
X104620500Y-135643713D01*
X104587246Y-135433757D01*
X104521557Y-135231588D01*
X104425051Y-135042184D01*
X104425049Y-135042181D01*
X104425048Y-135042179D01*
X104300109Y-134870213D01*
X104149786Y-134719890D01*
X103977820Y-134594951D01*
X103788414Y-134498444D01*
X103788413Y-134498443D01*
X103788412Y-134498443D01*
X103586243Y-134432754D01*
X103586241Y-134432753D01*
X103586240Y-134432753D01*
X103424957Y-134407208D01*
X103376287Y-134399500D01*
X102913713Y-134399500D01*
X102865042Y-134407208D01*
X102703760Y-134432753D01*
X102501585Y-134498444D01*
X102312179Y-134594951D01*
X102140213Y-134719890D01*
X101989890Y-134870213D01*
X101864951Y-135042179D01*
X101768444Y-135231585D01*
X101702753Y-135433760D01*
X101669500Y-135643713D01*
X100500500Y-135643713D01*
X100500500Y-123512135D01*
X116779501Y-123512135D01*
X116779501Y-125307870D01*
X116779502Y-125307876D01*
X116785909Y-125367483D01*
X116836203Y-125502328D01*
X116836207Y-125502335D01*
X116922453Y-125617544D01*
X116922456Y-125617547D01*
X117037665Y-125703793D01*
X117037672Y-125703797D01*
X117172518Y-125754091D01*
X117172517Y-125754091D01*
X117179445Y-125754835D01*
X117232128Y-125760500D01*
X119027873Y-125760499D01*
X119087484Y-125754091D01*
X119222332Y-125703796D01*
X119337547Y-125617546D01*
X119423797Y-125502331D01*
X119474092Y-125367483D01*
X119480501Y-125307873D01*
X119480500Y-123512128D01*
X119474092Y-123452517D01*
X119423797Y-123317669D01*
X119423796Y-123317668D01*
X119423794Y-123317664D01*
X119337548Y-123202455D01*
X119337545Y-123202452D01*
X119222336Y-123116206D01*
X119222329Y-123116202D01*
X119087483Y-123065908D01*
X119087484Y-123065908D01*
X119027884Y-123059501D01*
X119027882Y-123059500D01*
X119027874Y-123059500D01*
X119027865Y-123059500D01*
X117232130Y-123059500D01*
X117232124Y-123059501D01*
X117172517Y-123065908D01*
X117037672Y-123116202D01*
X117037665Y-123116206D01*
X116922456Y-123202452D01*
X116922453Y-123202455D01*
X116836207Y-123317664D01*
X116836203Y-123317671D01*
X116785909Y-123452517D01*
X116779502Y-123512116D01*
X116779502Y-123512123D01*
X116779501Y-123512135D01*
X100500500Y-123512135D01*
X100500500Y-122124000D01*
X100520185Y-122056961D01*
X100572989Y-122011206D01*
X100624500Y-122000000D01*
X101531696Y-122000000D01*
X101598735Y-122019685D01*
G37*
%TD.AperFunction*%
%TD*%
%TA.AperFunction,Conductor*%
%TO.N,GND*%
G36*
X101598735Y-144019685D02*
G01*
X101644490Y-144072489D01*
X101651471Y-144091907D01*
X101678608Y-144193187D01*
X101711554Y-144250250D01*
X101744500Y-144307314D01*
X101837686Y-144400500D01*
X101951814Y-144466392D01*
X102079108Y-144500500D01*
X102079110Y-144500500D01*
X140210890Y-144500500D01*
X140210892Y-144500500D01*
X140338186Y-144466392D01*
X140452314Y-144400500D01*
X140545500Y-144307314D01*
X140611392Y-144193186D01*
X140638529Y-144091905D01*
X140674894Y-144032246D01*
X140737741Y-144001717D01*
X140758304Y-144000000D01*
X141665500Y-144000000D01*
X141732539Y-144019685D01*
X141778294Y-144072489D01*
X141789500Y-144124000D01*
X141789500Y-163375500D01*
X141769815Y-163442539D01*
X141717011Y-163488294D01*
X141665500Y-163499500D01*
X126812602Y-163499500D01*
X126745563Y-163479815D01*
X126699808Y-163427011D01*
X126689864Y-163357853D01*
X126694893Y-163336505D01*
X126717676Y-163267753D01*
X126728002Y-163166677D01*
X126728001Y-162593324D01*
X126726457Y-162578213D01*
X126717676Y-162492247D01*
X126707156Y-162460500D01*
X126663410Y-162328484D01*
X126572842Y-162181650D01*
X126451820Y-162060628D01*
X126418336Y-161999305D01*
X126415502Y-161972947D01*
X126415502Y-161558543D01*
X133364499Y-161558543D01*
X133402947Y-161751829D01*
X133402950Y-161751839D01*
X133478364Y-161933907D01*
X133478371Y-161933920D01*
X133587860Y-162097781D01*
X133587863Y-162097785D01*
X133727214Y-162237136D01*
X133727218Y-162237139D01*
X133891079Y-162346628D01*
X133891092Y-162346635D01*
X134073160Y-162422049D01*
X134073165Y-162422051D01*
X134073169Y-162422051D01*
X134073170Y-162422052D01*
X134266456Y-162460500D01*
X134266459Y-162460500D01*
X135563543Y-162460500D01*
X135715561Y-162430261D01*
X135756835Y-162422051D01*
X135938914Y-162346632D01*
X136102782Y-162237139D01*
X136242139Y-162097782D01*
X136351632Y-161933914D01*
X136359539Y-161914826D01*
X136427049Y-161751839D01*
X136427051Y-161751835D01*
X136465500Y-161558543D01*
X137694499Y-161558543D01*
X137732947Y-161751829D01*
X137732950Y-161751839D01*
X137808364Y-161933907D01*
X137808371Y-161933920D01*
X137917860Y-162097781D01*
X137917863Y-162097785D01*
X138057214Y-162237136D01*
X138057218Y-162237139D01*
X138221079Y-162346628D01*
X138221092Y-162346635D01*
X138403160Y-162422049D01*
X138403165Y-162422051D01*
X138403169Y-162422051D01*
X138403170Y-162422052D01*
X138596456Y-162460500D01*
X138596459Y-162460500D01*
X139593543Y-162460500D01*
X139745561Y-162430261D01*
X139786835Y-162422051D01*
X139968914Y-162346632D01*
X140132782Y-162237139D01*
X140272139Y-162097782D01*
X140381632Y-161933914D01*
X140389539Y-161914826D01*
X140457049Y-161751839D01*
X140457051Y-161751835D01*
X140495500Y-161558541D01*
X140495500Y-161361459D01*
X140495500Y-161361456D01*
X140457052Y-161168170D01*
X140457051Y-161168169D01*
X140457051Y-161168165D01*
X140457049Y-161168160D01*
X140381635Y-160986092D01*
X140381628Y-160986079D01*
X140272139Y-160822218D01*
X140272136Y-160822214D01*
X140132785Y-160682863D01*
X140132781Y-160682860D01*
X139968920Y-160573371D01*
X139968907Y-160573364D01*
X139786839Y-160497950D01*
X139786829Y-160497947D01*
X139593543Y-160459500D01*
X139593541Y-160459500D01*
X138596459Y-160459500D01*
X138596457Y-160459500D01*
X138403170Y-160497947D01*
X138403160Y-160497950D01*
X138221092Y-160573364D01*
X138221079Y-160573371D01*
X138057218Y-160682860D01*
X138057214Y-160682863D01*
X137917863Y-160822214D01*
X137917860Y-160822218D01*
X137808371Y-160986079D01*
X137808364Y-160986092D01*
X137732950Y-161168160D01*
X137732947Y-161168170D01*
X137694500Y-161361456D01*
X137694500Y-161361459D01*
X137694500Y-161558541D01*
X137694500Y-161558543D01*
X137694499Y-161558543D01*
X136465500Y-161558543D01*
X136465500Y-161558541D01*
X136465500Y-161361459D01*
X136465500Y-161361456D01*
X136427052Y-161168170D01*
X136427051Y-161168169D01*
X136427051Y-161168165D01*
X136427049Y-161168160D01*
X136351635Y-160986092D01*
X136351628Y-160986079D01*
X136242139Y-160822218D01*
X136242136Y-160822214D01*
X136102785Y-160682863D01*
X136102781Y-160682860D01*
X135938920Y-160573371D01*
X135938907Y-160573364D01*
X135756839Y-160497950D01*
X135756829Y-160497947D01*
X135563543Y-160459500D01*
X135563541Y-160459500D01*
X134266459Y-160459500D01*
X134266457Y-160459500D01*
X134073170Y-160497947D01*
X134073160Y-160497950D01*
X133891092Y-160573364D01*
X133891079Y-160573371D01*
X133727218Y-160682860D01*
X133727214Y-160682863D01*
X133587863Y-160822214D01*
X133587860Y-160822218D01*
X133478371Y-160986079D01*
X133478364Y-160986092D01*
X133402950Y-161168160D01*
X133402947Y-161168170D01*
X133364500Y-161361456D01*
X133364500Y-161361459D01*
X133364500Y-161558541D01*
X133364500Y-161558543D01*
X133364499Y-161558543D01*
X126415502Y-161558543D01*
X126415502Y-158331731D01*
X126435187Y-158264692D01*
X126487991Y-158218937D01*
X126557149Y-158208993D01*
X126608392Y-158228628D01*
X126708255Y-158295355D01*
X126708257Y-158295356D01*
X126708261Y-158295358D01*
X126788243Y-158328487D01*
X126853937Y-158355698D01*
X126974638Y-158379707D01*
X127008587Y-158386460D01*
X127008590Y-158386461D01*
X127008592Y-158386461D01*
X127166278Y-158386461D01*
X127166279Y-158386460D01*
X127320931Y-158355698D01*
X127466613Y-158295355D01*
X127507237Y-158268211D01*
X127598309Y-158207359D01*
X127664987Y-158186481D01*
X127667200Y-158186461D01*
X127937370Y-158186461D01*
X127937386Y-158186462D01*
X127944982Y-158186462D01*
X128103093Y-158186462D01*
X128103096Y-158186462D01*
X128255824Y-158145538D01*
X128335747Y-158099394D01*
X128392755Y-158066481D01*
X128504559Y-157954677D01*
X128504559Y-157954675D01*
X128514763Y-157944472D01*
X128514767Y-157944467D01*
X128898220Y-157561013D01*
X128959541Y-157527530D01*
X129029233Y-157532514D01*
X129085166Y-157574386D01*
X129103604Y-157609691D01*
X129124088Y-157671507D01*
X129124093Y-157671518D01*
X129215618Y-157819903D01*
X129234058Y-157887296D01*
X129215618Y-157950097D01*
X129124093Y-158098481D01*
X129124091Y-158098486D01*
X129113457Y-158130579D01*
X129069826Y-158262247D01*
X129069826Y-158262248D01*
X129069825Y-158262248D01*
X129059500Y-158363315D01*
X129059500Y-158936669D01*
X129059501Y-158936687D01*
X129069825Y-159037752D01*
X129098236Y-159123489D01*
X129115636Y-159175999D01*
X129124092Y-159201515D01*
X129124093Y-159201518D01*
X129154306Y-159250500D01*
X129214660Y-159348350D01*
X129336650Y-159470340D01*
X129483484Y-159560908D01*
X129647247Y-159615174D01*
X129748323Y-159625500D01*
X130346676Y-159625499D01*
X130346684Y-159625498D01*
X130346687Y-159625498D01*
X130402030Y-159619844D01*
X130447753Y-159615174D01*
X130611516Y-159560908D01*
X130758350Y-159470340D01*
X130872319Y-159356371D01*
X130933642Y-159322886D01*
X131003334Y-159327870D01*
X131047681Y-159356371D01*
X131161650Y-159470340D01*
X131308484Y-159560908D01*
X131472247Y-159615174D01*
X131573323Y-159625500D01*
X132171676Y-159625499D01*
X132171684Y-159625498D01*
X132171687Y-159625498D01*
X132227030Y-159619844D01*
X132272753Y-159615174D01*
X132436516Y-159560908D01*
X132583350Y-159470340D01*
X132705340Y-159348350D01*
X132729362Y-159309404D01*
X132781310Y-159262679D01*
X132834901Y-159250500D01*
X134133331Y-159250500D01*
X134133347Y-159250501D01*
X134140943Y-159250501D01*
X134299054Y-159250501D01*
X134299057Y-159250501D01*
X134451785Y-159209577D01*
X134451787Y-159209575D01*
X134451789Y-159209575D01*
X134451790Y-159209574D01*
X134509944Y-159175999D01*
X134509945Y-159175998D01*
X134588716Y-159130520D01*
X134700520Y-159018716D01*
X134700520Y-159018714D01*
X134710724Y-159008511D01*
X134710727Y-159008506D01*
X135494662Y-158224572D01*
X135555983Y-158191089D01*
X135558150Y-158190638D01*
X135616085Y-158179113D01*
X135713497Y-158159737D01*
X135859179Y-158099394D01*
X135928754Y-158052905D01*
X135995429Y-158032027D01*
X136062809Y-158050510D01*
X136109500Y-158102489D01*
X136121003Y-158168603D01*
X136119500Y-158183317D01*
X136119500Y-158756669D01*
X136119501Y-158756687D01*
X136129825Y-158857752D01*
X136184092Y-159021515D01*
X136184093Y-159021518D01*
X136206901Y-159058496D01*
X136274660Y-159168350D01*
X136396650Y-159290340D01*
X136543484Y-159380908D01*
X136707247Y-159435174D01*
X136808323Y-159445500D01*
X137406676Y-159445499D01*
X137406684Y-159445498D01*
X137406687Y-159445498D01*
X137462030Y-159439844D01*
X137507753Y-159435174D01*
X137671516Y-159380908D01*
X137818350Y-159290340D01*
X137940340Y-159168350D01*
X138030908Y-159021516D01*
X138085174Y-158857753D01*
X138095500Y-158756677D01*
X138095499Y-158183324D01*
X138095221Y-158180606D01*
X138085174Y-158082247D01*
X138084694Y-158080799D01*
X138030908Y-157918484D01*
X137940340Y-157771650D01*
X137818350Y-157649660D01*
X137674634Y-157561015D01*
X137671518Y-157559093D01*
X137671513Y-157559091D01*
X137647298Y-157551067D01*
X137507753Y-157504826D01*
X137507751Y-157504825D01*
X137406678Y-157494500D01*
X136808330Y-157494500D01*
X136808312Y-157494501D01*
X136707247Y-157504825D01*
X136543484Y-157559092D01*
X136543477Y-157559096D01*
X136465498Y-157607193D01*
X136398105Y-157625633D01*
X136331442Y-157604710D01*
X136286673Y-157551067D01*
X136278012Y-157481737D01*
X136278780Y-157477486D01*
X136280500Y-157468842D01*
X136280500Y-157311158D01*
X136280500Y-157311155D01*
X136280499Y-157311153D01*
X136254214Y-157179010D01*
X136249737Y-157156503D01*
X136200781Y-157038312D01*
X136189397Y-157010827D01*
X136189390Y-157010814D01*
X136101789Y-156879711D01*
X136101786Y-156879707D01*
X135990292Y-156768213D01*
X135990288Y-156768210D01*
X135859185Y-156680609D01*
X135859172Y-156680602D01*
X135713501Y-156620264D01*
X135713489Y-156620261D01*
X135558845Y-156589500D01*
X135558842Y-156589500D01*
X135401158Y-156589500D01*
X135401155Y-156589500D01*
X135246510Y-156620261D01*
X135246498Y-156620264D01*
X135100827Y-156680602D01*
X135100814Y-156680609D01*
X134969711Y-156768210D01*
X134969707Y-156768213D01*
X134858213Y-156879707D01*
X134858210Y-156879711D01*
X134770609Y-157010814D01*
X134770602Y-157010827D01*
X134710264Y-157156498D01*
X134710261Y-157156508D01*
X134679361Y-157311850D01*
X134646976Y-157373761D01*
X134645425Y-157375339D01*
X134007584Y-158013181D01*
X133946261Y-158046666D01*
X133919903Y-158049500D01*
X132834901Y-158049500D01*
X132825110Y-158046625D01*
X132814986Y-158047890D01*
X132792154Y-158036947D01*
X132767862Y-158029815D01*
X132759503Y-158021300D01*
X132751978Y-158017694D01*
X132729363Y-157990598D01*
X132716099Y-157969094D01*
X132705340Y-157951650D01*
X132705338Y-157951648D01*
X132704382Y-157950098D01*
X132685941Y-157882705D01*
X132704382Y-157819902D01*
X132705338Y-157818351D01*
X132705340Y-157818350D01*
X132729363Y-157779401D01*
X132781311Y-157732678D01*
X132834901Y-157720500D01*
X132873331Y-157720500D01*
X132873347Y-157720501D01*
X132880943Y-157720501D01*
X133039055Y-157720501D01*
X133039057Y-157720501D01*
X133135252Y-157694724D01*
X133167346Y-157690500D01*
X133268844Y-157690500D01*
X133268845Y-157690499D01*
X133423497Y-157659737D01*
X133544320Y-157609691D01*
X133569172Y-157599397D01*
X133569172Y-157599396D01*
X133569179Y-157599394D01*
X133700289Y-157511789D01*
X133811789Y-157400289D01*
X133899394Y-157269179D01*
X133959737Y-157123497D01*
X133990500Y-156968842D01*
X133990500Y-156811158D01*
X133990500Y-156811155D01*
X133990499Y-156811153D01*
X133986433Y-156790710D01*
X133959737Y-156656503D01*
X133959735Y-156656498D01*
X133899397Y-156510827D01*
X133899390Y-156510814D01*
X133811789Y-156379711D01*
X133811786Y-156379707D01*
X133700292Y-156268213D01*
X133700288Y-156268210D01*
X133569185Y-156180609D01*
X133569172Y-156180602D01*
X133423501Y-156120264D01*
X133423489Y-156120261D01*
X133268845Y-156089500D01*
X133268842Y-156089500D01*
X133111158Y-156089500D01*
X133111155Y-156089500D01*
X132997713Y-156112065D01*
X132928122Y-156105838D01*
X132872944Y-156062975D01*
X132849700Y-155997085D01*
X132850164Y-155977845D01*
X132850173Y-155977755D01*
X132850174Y-155977753D01*
X132860500Y-155876677D01*
X132860499Y-155303324D01*
X132850174Y-155202247D01*
X132810764Y-155083315D01*
X136119500Y-155083315D01*
X136119500Y-155656669D01*
X136119501Y-155656687D01*
X136129825Y-155757752D01*
X136166109Y-155867249D01*
X136184092Y-155921516D01*
X136274660Y-156068350D01*
X136396650Y-156190340D01*
X136543484Y-156280908D01*
X136707247Y-156335174D01*
X136808323Y-156345500D01*
X137406676Y-156345499D01*
X137406684Y-156345498D01*
X137406687Y-156345498D01*
X137462030Y-156339844D01*
X137507753Y-156335174D01*
X137671516Y-156280908D01*
X137818350Y-156190340D01*
X137940340Y-156068350D01*
X138030908Y-155921516D01*
X138085174Y-155757753D01*
X138095500Y-155656677D01*
X138095499Y-155083324D01*
X138085174Y-154982247D01*
X138030908Y-154818484D01*
X137940340Y-154671650D01*
X137818350Y-154549660D01*
X137671516Y-154459092D01*
X137507753Y-154404826D01*
X137507751Y-154404825D01*
X137406678Y-154394500D01*
X136808330Y-154394500D01*
X136808312Y-154394501D01*
X136707247Y-154404825D01*
X136543484Y-154459092D01*
X136543481Y-154459093D01*
X136396648Y-154549661D01*
X136274661Y-154671648D01*
X136184093Y-154818481D01*
X136184092Y-154818484D01*
X136129826Y-154982247D01*
X136129826Y-154982248D01*
X136129825Y-154982248D01*
X136119500Y-155083315D01*
X132810764Y-155083315D01*
X132795908Y-155038484D01*
X132705340Y-154891650D01*
X132583350Y-154769660D01*
X132436516Y-154679092D01*
X132272753Y-154624826D01*
X132272751Y-154624825D01*
X132171678Y-154614500D01*
X131573330Y-154614500D01*
X131573312Y-154614501D01*
X131472247Y-154624825D01*
X131308484Y-154679092D01*
X131308481Y-154679093D01*
X131161648Y-154769661D01*
X131047681Y-154883629D01*
X130986358Y-154917114D01*
X130916666Y-154912130D01*
X130872319Y-154883629D01*
X130758351Y-154769661D01*
X130758350Y-154769660D01*
X130611516Y-154679092D01*
X130447753Y-154624826D01*
X130447751Y-154624825D01*
X130346684Y-154614500D01*
X130346677Y-154614500D01*
X130149374Y-154614500D01*
X130082335Y-154594815D01*
X130061693Y-154578181D01*
X129239983Y-153756470D01*
X129239982Y-153756469D01*
X129165399Y-153706635D01*
X129121153Y-153677071D01*
X128989120Y-153622381D01*
X128985449Y-153621650D01*
X128985445Y-153621648D01*
X128985445Y-153621650D01*
X128848957Y-153594500D01*
X128848955Y-153594500D01*
X128369553Y-153594500D01*
X128341934Y-153586390D01*
X128313618Y-153581168D01*
X128306433Y-153575965D01*
X128302514Y-153574815D01*
X128284706Y-153560926D01*
X128283263Y-153559572D01*
X128223351Y-153499660D01*
X128211854Y-153492568D01*
X128202738Y-153484015D01*
X128191107Y-153464238D01*
X128175763Y-153447178D01*
X128168819Y-153426340D01*
X128167319Y-153423788D01*
X128167388Y-153422042D01*
X128165968Y-153417783D01*
X128160120Y-153388380D01*
X128110428Y-153268414D01*
X128105431Y-153256349D01*
X128105426Y-153256340D01*
X128026034Y-153137522D01*
X127981771Y-153093259D01*
X127924980Y-153036468D01*
X127807055Y-152918543D01*
X133364499Y-152918543D01*
X133402947Y-153111829D01*
X133402950Y-153111839D01*
X133478364Y-153293907D01*
X133478371Y-153293920D01*
X133587860Y-153457781D01*
X133587863Y-153457785D01*
X133727214Y-153597136D01*
X133727218Y-153597139D01*
X133891079Y-153706628D01*
X133891092Y-153706635D01*
X134073160Y-153782049D01*
X134073165Y-153782051D01*
X134073169Y-153782051D01*
X134073170Y-153782052D01*
X134266456Y-153820500D01*
X134266459Y-153820500D01*
X135563543Y-153820500D01*
X135693582Y-153794632D01*
X135756835Y-153782051D01*
X135938914Y-153706632D01*
X136102782Y-153597139D01*
X136242139Y-153457782D01*
X136351632Y-153293914D01*
X136427051Y-153111835D01*
X136444081Y-153026220D01*
X136465500Y-152918543D01*
X137694499Y-152918543D01*
X137732947Y-153111829D01*
X137732950Y-153111839D01*
X137808364Y-153293907D01*
X137808371Y-153293920D01*
X137917860Y-153457781D01*
X137917863Y-153457785D01*
X138057214Y-153597136D01*
X138057218Y-153597139D01*
X138221079Y-153706628D01*
X138221092Y-153706635D01*
X138403160Y-153782049D01*
X138403165Y-153782051D01*
X138403169Y-153782051D01*
X138403170Y-153782052D01*
X138596456Y-153820500D01*
X138596459Y-153820500D01*
X139593543Y-153820500D01*
X139723582Y-153794632D01*
X139786835Y-153782051D01*
X139968914Y-153706632D01*
X140132782Y-153597139D01*
X140272139Y-153457782D01*
X140381632Y-153293914D01*
X140457051Y-153111835D01*
X140474081Y-153026220D01*
X140495500Y-152918543D01*
X140495500Y-152721456D01*
X140457052Y-152528170D01*
X140457051Y-152528169D01*
X140457051Y-152528165D01*
X140440312Y-152487753D01*
X140381635Y-152346092D01*
X140381628Y-152346079D01*
X140272139Y-152182218D01*
X140272136Y-152182214D01*
X140132785Y-152042863D01*
X140132781Y-152042860D01*
X139968920Y-151933371D01*
X139968907Y-151933364D01*
X139786839Y-151857950D01*
X139786829Y-151857947D01*
X139593543Y-151819500D01*
X139593541Y-151819500D01*
X138596459Y-151819500D01*
X138596457Y-151819500D01*
X138403170Y-151857947D01*
X138403160Y-151857950D01*
X138221092Y-151933364D01*
X138221079Y-151933371D01*
X138057218Y-152042860D01*
X138057214Y-152042863D01*
X137917863Y-152182214D01*
X137917860Y-152182218D01*
X137808371Y-152346079D01*
X137808364Y-152346092D01*
X137732950Y-152528160D01*
X137732947Y-152528170D01*
X137694500Y-152721456D01*
X137694500Y-152721459D01*
X137694500Y-152918541D01*
X137694500Y-152918543D01*
X137694499Y-152918543D01*
X136465500Y-152918543D01*
X136465500Y-152721456D01*
X136427052Y-152528170D01*
X136427051Y-152528169D01*
X136427051Y-152528165D01*
X136410312Y-152487753D01*
X136351635Y-152346092D01*
X136351628Y-152346079D01*
X136242139Y-152182218D01*
X136242136Y-152182214D01*
X136102785Y-152042863D01*
X136102781Y-152042860D01*
X135938920Y-151933371D01*
X135938907Y-151933364D01*
X135756839Y-151857950D01*
X135756829Y-151857947D01*
X135563543Y-151819500D01*
X135563541Y-151819500D01*
X134266459Y-151819500D01*
X134266457Y-151819500D01*
X134073170Y-151857947D01*
X134073160Y-151857950D01*
X133891092Y-151933364D01*
X133891079Y-151933371D01*
X133727218Y-152042860D01*
X133727214Y-152042863D01*
X133587863Y-152182214D01*
X133587860Y-152182218D01*
X133478371Y-152346079D01*
X133478364Y-152346092D01*
X133402950Y-152528160D01*
X133402947Y-152528170D01*
X133364500Y-152721456D01*
X133364500Y-152721459D01*
X133364500Y-152918541D01*
X133364500Y-152918543D01*
X133364499Y-152918543D01*
X127807055Y-152918543D01*
X126511820Y-151623307D01*
X126478335Y-151561984D01*
X126475501Y-151535626D01*
X126475501Y-147615384D01*
X126495186Y-147548345D01*
X126526616Y-147515066D01*
X126629789Y-147440107D01*
X126629789Y-147440106D01*
X126629793Y-147440104D01*
X126780105Y-147289792D01*
X126780107Y-147289788D01*
X126780110Y-147289786D01*
X126905049Y-147117820D01*
X126905048Y-147117820D01*
X126905052Y-147117816D01*
X127001558Y-146928412D01*
X127067247Y-146726243D01*
X127100501Y-146516287D01*
X127100501Y-146303713D01*
X127067247Y-146093757D01*
X127001558Y-145891588D01*
X126905052Y-145702184D01*
X126905050Y-145702181D01*
X126905049Y-145702179D01*
X126780110Y-145530213D01*
X126629787Y-145379890D01*
X126457821Y-145254951D01*
X126268415Y-145158444D01*
X126268414Y-145158443D01*
X126268413Y-145158443D01*
X126066244Y-145092754D01*
X126066242Y-145092753D01*
X126066241Y-145092753D01*
X125904958Y-145067208D01*
X125856288Y-145059500D01*
X125643714Y-145059500D01*
X125595043Y-145067208D01*
X125433761Y-145092753D01*
X125231586Y-145158444D01*
X125042180Y-145254951D01*
X124870214Y-145379890D01*
X124719891Y-145530213D01*
X124594949Y-145702184D01*
X124594947Y-145702187D01*
X124590482Y-145710950D01*
X124542506Y-145761744D01*
X124474684Y-145778537D01*
X124408550Y-145755997D01*
X124369514Y-145710944D01*
X124365051Y-145702184D01*
X124365049Y-145702181D01*
X124365048Y-145702179D01*
X124240109Y-145530213D01*
X124089786Y-145379890D01*
X123917820Y-145254951D01*
X123728414Y-145158444D01*
X123728413Y-145158443D01*
X123728412Y-145158443D01*
X123526243Y-145092754D01*
X123526241Y-145092753D01*
X123526240Y-145092753D01*
X123364957Y-145067208D01*
X123316287Y-145059500D01*
X123103713Y-145059500D01*
X123055042Y-145067208D01*
X122893760Y-145092753D01*
X122691585Y-145158444D01*
X122502179Y-145254951D01*
X122330213Y-145379890D01*
X122179890Y-145530213D01*
X122054951Y-145702179D01*
X121958444Y-145891585D01*
X121892753Y-146093760D01*
X121859500Y-146303713D01*
X121859500Y-146516286D01*
X121891748Y-146719896D01*
X121892754Y-146726243D01*
X121939531Y-146870208D01*
X121958444Y-146928414D01*
X122054951Y-147117820D01*
X122179890Y-147289786D01*
X122330213Y-147440109D01*
X122502179Y-147565048D01*
X122502181Y-147565049D01*
X122502184Y-147565051D01*
X122691588Y-147661557D01*
X122893757Y-147727246D01*
X123096236Y-147759315D01*
X123159369Y-147789244D01*
X123196301Y-147848555D01*
X123195303Y-147918418D01*
X123164518Y-147969469D01*
X122555808Y-148578181D01*
X122494485Y-148611666D01*
X122468127Y-148614500D01*
X116821874Y-148614500D01*
X116754835Y-148594815D01*
X116734193Y-148578181D01*
X114332483Y-146176470D01*
X114332482Y-146176469D01*
X114213657Y-146097074D01*
X114213653Y-146097071D01*
X114213648Y-146097069D01*
X114081620Y-146042381D01*
X114081614Y-146042379D01*
X113941457Y-146014500D01*
X113941455Y-146014500D01*
X104226455Y-146014500D01*
X104083545Y-146014500D01*
X104083543Y-146014500D01*
X103943385Y-146042379D01*
X103943379Y-146042381D01*
X103811349Y-146097069D01*
X103811340Y-146097074D01*
X103692521Y-146176467D01*
X103692517Y-146176470D01*
X103501421Y-146367566D01*
X103440098Y-146401051D01*
X103394346Y-146402359D01*
X103376291Y-146399500D01*
X103376287Y-146399500D01*
X102913713Y-146399500D01*
X102865042Y-146407208D01*
X102703760Y-146432753D01*
X102501585Y-146498444D01*
X102312179Y-146594951D01*
X102140213Y-146719890D01*
X101989890Y-146870213D01*
X101864951Y-147042179D01*
X101768444Y-147231585D01*
X101702753Y-147433760D01*
X101669500Y-147643713D01*
X101669500Y-147856286D01*
X101702753Y-148066239D01*
X101768444Y-148268414D01*
X101864951Y-148457820D01*
X101989890Y-148629786D01*
X102140209Y-148780105D01*
X102140214Y-148780109D01*
X102304793Y-148899682D01*
X102347459Y-148955011D01*
X102353438Y-149024625D01*
X102320833Y-149086420D01*
X102304793Y-149100318D01*
X102140214Y-149219890D01*
X102140209Y-149219894D01*
X101989890Y-149370213D01*
X101864951Y-149542179D01*
X101768444Y-149731585D01*
X101702753Y-149933760D01*
X101674419Y-150112655D01*
X101669500Y-150143713D01*
X101669500Y-150356287D01*
X101670261Y-150361090D01*
X101690437Y-150488481D01*
X101702754Y-150566243D01*
X101763540Y-150753323D01*
X101768444Y-150768414D01*
X101864951Y-150957820D01*
X101989890Y-151129786D01*
X102140209Y-151280105D01*
X102140214Y-151280109D01*
X102304793Y-151399682D01*
X102347459Y-151455011D01*
X102353438Y-151524625D01*
X102320833Y-151586420D01*
X102304793Y-151600318D01*
X102140214Y-151719890D01*
X102140209Y-151719894D01*
X101989890Y-151870213D01*
X101864951Y-152042179D01*
X101768444Y-152231585D01*
X101702753Y-152433760D01*
X101669500Y-152643713D01*
X101669500Y-152856286D01*
X101695680Y-153021583D01*
X101702754Y-153066243D01*
X101764523Y-153256349D01*
X101768444Y-153268414D01*
X101864951Y-153457820D01*
X101989890Y-153629786D01*
X102140213Y-153780109D01*
X102312179Y-153905048D01*
X102312181Y-153905049D01*
X102312184Y-153905051D01*
X102501588Y-154001557D01*
X102703757Y-154067246D01*
X102913713Y-154100500D01*
X102913714Y-154100500D01*
X103376286Y-154100500D01*
X103376287Y-154100500D01*
X103586243Y-154067246D01*
X103788412Y-154001557D01*
X103977816Y-153905051D01*
X103999789Y-153889086D01*
X104149786Y-153780109D01*
X104149788Y-153780106D01*
X104149792Y-153780104D01*
X104300104Y-153629792D01*
X104300106Y-153629788D01*
X104300109Y-153629786D01*
X104425048Y-153457820D01*
X104425047Y-153457820D01*
X104425051Y-153457816D01*
X104521557Y-153268412D01*
X104587246Y-153066243D01*
X104620500Y-152856287D01*
X104620500Y-152643713D01*
X104587246Y-152433757D01*
X104521557Y-152231588D01*
X104425051Y-152042184D01*
X104425049Y-152042181D01*
X104425048Y-152042179D01*
X104300109Y-151870213D01*
X104149792Y-151719896D01*
X104129556Y-151705194D01*
X103985204Y-151600316D01*
X103942540Y-151544989D01*
X103936561Y-151475376D01*
X103969166Y-151413580D01*
X103985199Y-151399686D01*
X104149792Y-151280104D01*
X104300104Y-151129792D01*
X104300106Y-151129788D01*
X104300109Y-151129786D01*
X104425048Y-150957820D01*
X104425047Y-150957820D01*
X104425051Y-150957816D01*
X104521557Y-150768412D01*
X104587246Y-150566243D01*
X104620500Y-150356287D01*
X104620500Y-150143713D01*
X104587246Y-149933757D01*
X104521557Y-149731588D01*
X104425051Y-149542184D01*
X104425049Y-149542181D01*
X104425048Y-149542179D01*
X104300109Y-149370213D01*
X104149792Y-149219896D01*
X104113908Y-149193825D01*
X103985204Y-149100316D01*
X103942540Y-149044989D01*
X103936561Y-148975376D01*
X103969166Y-148913580D01*
X103985199Y-148899686D01*
X104149792Y-148780104D01*
X104300104Y-148629792D01*
X104300106Y-148629788D01*
X104300109Y-148629786D01*
X104425048Y-148457820D01*
X104425047Y-148457820D01*
X104425051Y-148457816D01*
X104521557Y-148268412D01*
X104587246Y-148066243D01*
X104620500Y-147856287D01*
X104620500Y-147643713D01*
X104620500Y-147643706D01*
X104614987Y-147608897D01*
X104623942Y-147539604D01*
X104668939Y-147486152D01*
X104735690Y-147465513D01*
X104737460Y-147465500D01*
X108788808Y-147465500D01*
X108855847Y-147485185D01*
X108901602Y-147537989D01*
X108911546Y-147607147D01*
X108899293Y-147645794D01*
X108841118Y-147759967D01*
X108780290Y-147947173D01*
X108749500Y-148141577D01*
X108749500Y-148338422D01*
X108780290Y-148532826D01*
X108841117Y-148720029D01*
X108906397Y-148848147D01*
X108930476Y-148895405D01*
X109046172Y-149054646D01*
X109185354Y-149193828D01*
X109344595Y-149309524D01*
X109427455Y-149351743D01*
X109519970Y-149398882D01*
X109519972Y-149398882D01*
X109519975Y-149398884D01*
X109620317Y-149431487D01*
X109707173Y-149459709D01*
X109901578Y-149490500D01*
X109901583Y-149490500D01*
X110098422Y-149490500D01*
X110297454Y-149458976D01*
X110366747Y-149467930D01*
X110404533Y-149493768D01*
X111070412Y-150159647D01*
X111103897Y-150220970D01*
X111106089Y-150234726D01*
X111114826Y-150320253D01*
X111165241Y-150472396D01*
X111169092Y-150484015D01*
X111169093Y-150484018D01*
X111253678Y-150621151D01*
X111272118Y-150688544D01*
X111253678Y-150751344D01*
X111169095Y-150888474D01*
X111169091Y-150888483D01*
X111114826Y-151052245D01*
X111114825Y-151052246D01*
X111107510Y-151123852D01*
X111081113Y-151188544D01*
X111071833Y-151198930D01*
X110404532Y-151866231D01*
X110343209Y-151899716D01*
X110297453Y-151901023D01*
X110098422Y-151869500D01*
X110098417Y-151869500D01*
X109901583Y-151869500D01*
X109901578Y-151869500D01*
X109707173Y-151900290D01*
X109519970Y-151961117D01*
X109344594Y-152050476D01*
X109277640Y-152099122D01*
X109185354Y-152166172D01*
X109185352Y-152166174D01*
X109185351Y-152166174D01*
X109046174Y-152305351D01*
X109046174Y-152305352D01*
X109046172Y-152305354D01*
X109013750Y-152349979D01*
X108930476Y-152464594D01*
X108841117Y-152639970D01*
X108780290Y-152827173D01*
X108749500Y-153021577D01*
X108749500Y-153218422D01*
X108780290Y-153412826D01*
X108841117Y-153600029D01*
X108926950Y-153768484D01*
X108930476Y-153775405D01*
X109046172Y-153934646D01*
X109185354Y-154073828D01*
X109344595Y-154189524D01*
X109427455Y-154231743D01*
X109519970Y-154278882D01*
X109519972Y-154278882D01*
X109519975Y-154278884D01*
X109620317Y-154311487D01*
X109707173Y-154339709D01*
X109901578Y-154370500D01*
X109901583Y-154370500D01*
X110098422Y-154370500D01*
X110292826Y-154339709D01*
X110480025Y-154278884D01*
X110655405Y-154189524D01*
X110814646Y-154073828D01*
X110953828Y-153934646D01*
X111069524Y-153775405D01*
X111158884Y-153600025D01*
X111219709Y-153412826D01*
X111238544Y-153293907D01*
X111250500Y-153218422D01*
X111250500Y-153021577D01*
X111218976Y-152822545D01*
X111227930Y-152753252D01*
X111253768Y-152715466D01*
X111329264Y-152639970D01*
X111447997Y-152521237D01*
X111509319Y-152487753D01*
X111574680Y-152491212D01*
X111692247Y-152530171D01*
X111793323Y-152540497D01*
X112366676Y-152540496D01*
X112366684Y-152540495D01*
X112366687Y-152540495D01*
X112422030Y-152534841D01*
X112467753Y-152530171D01*
X112631516Y-152475905D01*
X112778350Y-152385337D01*
X112900340Y-152263347D01*
X112990908Y-152116513D01*
X113045174Y-151952750D01*
X113055500Y-151851674D01*
X113055499Y-151153321D01*
X113045174Y-151052244D01*
X112990908Y-150888481D01*
X112906320Y-150751342D01*
X112887881Y-150683953D01*
X112906322Y-150621151D01*
X112990903Y-150484024D01*
X112990902Y-150484024D01*
X112990908Y-150484016D01*
X113045174Y-150320253D01*
X113055500Y-150219177D01*
X113055499Y-149520824D01*
X113052401Y-149490500D01*
X113045174Y-149419747D01*
X113028758Y-149370208D01*
X112990908Y-149255984D01*
X112900340Y-149109150D01*
X112778350Y-148987160D01*
X112631516Y-148896592D01*
X112467753Y-148842326D01*
X112467751Y-148842325D01*
X112366678Y-148832000D01*
X111793330Y-148832000D01*
X111793312Y-148832001D01*
X111692247Y-148842325D01*
X111692240Y-148842327D01*
X111584066Y-148878172D01*
X111514238Y-148880573D01*
X111457382Y-148848147D01*
X111253768Y-148644533D01*
X111220283Y-148583210D01*
X111218976Y-148537454D01*
X111250500Y-148338422D01*
X111250500Y-148141577D01*
X111219709Y-147947173D01*
X111190178Y-147856287D01*
X111158884Y-147759975D01*
X111158882Y-147759972D01*
X111158881Y-147759967D01*
X111100707Y-147645794D01*
X111087811Y-147577125D01*
X111114088Y-147512385D01*
X111171194Y-147472128D01*
X111211192Y-147465500D01*
X113518126Y-147465500D01*
X113585165Y-147485185D01*
X113605807Y-147501819D01*
X116007514Y-149903527D01*
X116007517Y-149903530D01*
X116007520Y-149903532D01*
X116075332Y-149948842D01*
X116126347Y-149982929D01*
X116258380Y-150037619D01*
X116258384Y-150037619D01*
X116258385Y-150037620D01*
X116398542Y-150065500D01*
X116398545Y-150065500D01*
X117618945Y-150065500D01*
X117638701Y-150071301D01*
X117659269Y-150072240D01*
X117671545Y-150080945D01*
X117685984Y-150085185D01*
X117699466Y-150100744D01*
X117716263Y-150112655D01*
X117721884Y-150126616D01*
X117731739Y-150137989D01*
X117734669Y-150158367D01*
X117742360Y-150177468D01*
X117739541Y-150192251D01*
X117741683Y-150207147D01*
X117733129Y-150225876D01*
X117729273Y-150246102D01*
X117714858Y-150265883D01*
X117712658Y-150270703D01*
X117708857Y-150274892D01*
X117707742Y-150276065D01*
X117642158Y-150341650D01*
X117636048Y-150351554D01*
X117627181Y-150360892D01*
X117607648Y-150372220D01*
X117590860Y-150387321D01*
X117575655Y-150390776D01*
X117566742Y-150395946D01*
X117555221Y-150395420D01*
X117537269Y-150399500D01*
X117196911Y-150399500D01*
X117073179Y-150424112D01*
X117073167Y-150424115D01*
X116956613Y-150472393D01*
X116956611Y-150472394D01*
X116851704Y-150542490D01*
X115279989Y-152114205D01*
X115209893Y-152219112D01*
X115209892Y-152219114D01*
X115161613Y-152335670D01*
X115161612Y-152335673D01*
X115158768Y-152349977D01*
X115158767Y-152349979D01*
X115136999Y-152459412D01*
X115136999Y-153026220D01*
X115117314Y-153093259D01*
X115078097Y-153131758D01*
X115016649Y-153169659D01*
X114894660Y-153291648D01*
X114804092Y-153438481D01*
X114804090Y-153438486D01*
X114795557Y-153464238D01*
X114749825Y-153602247D01*
X114749825Y-153602248D01*
X114749824Y-153602248D01*
X114739499Y-153703315D01*
X114739499Y-154276669D01*
X114739500Y-154276687D01*
X114749824Y-154377752D01*
X114786108Y-154487249D01*
X114804091Y-154541516D01*
X114894659Y-154688350D01*
X115016649Y-154810340D01*
X115078096Y-154848241D01*
X115124820Y-154900186D01*
X115136999Y-154953778D01*
X115136999Y-157468335D01*
X115117314Y-157535374D01*
X115100680Y-157556016D01*
X114788513Y-157868182D01*
X114727190Y-157901667D01*
X114700832Y-157904501D01*
X114333330Y-157904501D01*
X114333312Y-157904502D01*
X114232247Y-157914826D01*
X114068484Y-157969093D01*
X114068481Y-157969094D01*
X113921648Y-158059662D01*
X113799661Y-158181649D01*
X113709093Y-158328482D01*
X113709091Y-158328487D01*
X113681719Y-158411089D01*
X113654826Y-158492248D01*
X113654826Y-158492249D01*
X113654825Y-158492249D01*
X113644500Y-158593316D01*
X113644500Y-159291670D01*
X113644501Y-159291688D01*
X113654825Y-159392753D01*
X113691109Y-159502250D01*
X113709092Y-159556517D01*
X113799660Y-159703351D01*
X113921650Y-159825341D01*
X113993991Y-159869961D01*
X114040716Y-159921909D01*
X114051937Y-159990872D01*
X114024094Y-160054954D01*
X113966025Y-160093810D01*
X113928894Y-160099500D01*
X113895097Y-160099500D01*
X113828058Y-160079815D01*
X113807416Y-160063181D01*
X111142074Y-157397839D01*
X111108589Y-157336516D01*
X111108138Y-157334349D01*
X111077238Y-157179010D01*
X111077237Y-157179003D01*
X111067915Y-157156498D01*
X111016897Y-157033327D01*
X111016890Y-157033314D01*
X110929289Y-156902211D01*
X110929286Y-156902207D01*
X110817792Y-156790713D01*
X110817788Y-156790710D01*
X110686685Y-156703109D01*
X110686672Y-156703102D01*
X110541001Y-156642764D01*
X110540989Y-156642761D01*
X110386345Y-156612000D01*
X110386342Y-156612000D01*
X110228658Y-156612000D01*
X110228655Y-156612000D01*
X110074010Y-156642761D01*
X110073998Y-156642764D01*
X109928327Y-156703102D01*
X109928314Y-156703109D01*
X109797211Y-156790710D01*
X109797207Y-156790713D01*
X109685713Y-156902207D01*
X109685710Y-156902211D01*
X109598109Y-157033314D01*
X109598102Y-157033327D01*
X109537764Y-157178998D01*
X109537761Y-157179010D01*
X109507000Y-157333653D01*
X109507000Y-157491346D01*
X109537761Y-157645989D01*
X109537764Y-157646001D01*
X109598102Y-157791672D01*
X109598109Y-157791685D01*
X109685710Y-157922788D01*
X109685713Y-157922792D01*
X109797207Y-158034286D01*
X109797211Y-158034289D01*
X109928314Y-158121890D01*
X109928327Y-158121897D01*
X110072583Y-158181649D01*
X110074003Y-158182237D01*
X110118505Y-158191089D01*
X110229349Y-158213138D01*
X110291260Y-158245523D01*
X110292839Y-158247074D01*
X113110139Y-161064374D01*
X113110149Y-161064385D01*
X113114479Y-161068715D01*
X113114480Y-161068716D01*
X113226284Y-161180520D01*
X113305930Y-161226503D01*
X113363215Y-161259577D01*
X113515943Y-161300500D01*
X117388330Y-161300500D01*
X117388346Y-161300501D01*
X117395942Y-161300501D01*
X117554053Y-161300501D01*
X117554056Y-161300501D01*
X117706784Y-161259577D01*
X117764069Y-161226503D01*
X117843715Y-161180520D01*
X117955519Y-161068716D01*
X117955519Y-161068714D01*
X117965723Y-161058511D01*
X117965726Y-161058506D01*
X119364662Y-159659571D01*
X119425983Y-159626088D01*
X119428150Y-159625637D01*
X119486085Y-159614112D01*
X119583497Y-159594736D01*
X119729179Y-159534393D01*
X119860289Y-159446788D01*
X119971789Y-159335288D01*
X120059394Y-159204178D01*
X120119737Y-159058496D01*
X120150500Y-158903841D01*
X120150500Y-158746157D01*
X120150500Y-158746154D01*
X120150499Y-158746152D01*
X120132668Y-158656510D01*
X120119737Y-158591502D01*
X120086318Y-158510821D01*
X120059397Y-158445826D01*
X120059390Y-158445813D01*
X119971789Y-158314710D01*
X119971786Y-158314706D01*
X119882866Y-158225786D01*
X119849381Y-158164463D01*
X119854365Y-158094771D01*
X119882863Y-158050427D01*
X119909941Y-158023350D01*
X120000509Y-157876516D01*
X120054775Y-157712753D01*
X120065101Y-157611677D01*
X120065100Y-157038324D01*
X120054775Y-156937247D01*
X120000509Y-156773484D01*
X119909941Y-156626650D01*
X119909939Y-156626648D01*
X119906149Y-156620503D01*
X119908629Y-156618972D01*
X119887436Y-156566487D01*
X119900455Y-156497841D01*
X119909515Y-156483739D01*
X119912837Y-156478352D01*
X119912840Y-156478350D01*
X120003408Y-156331516D01*
X120057674Y-156167753D01*
X120068000Y-156066677D01*
X120067999Y-155493324D01*
X120057674Y-155392247D01*
X120003408Y-155228484D01*
X119912840Y-155081650D01*
X119790850Y-154959660D01*
X119680585Y-154891648D01*
X119644018Y-154869093D01*
X119644013Y-154869091D01*
X119642569Y-154868612D01*
X119480253Y-154814826D01*
X119480251Y-154814825D01*
X119379178Y-154804500D01*
X118780830Y-154804500D01*
X118780812Y-154804501D01*
X118679747Y-154814825D01*
X118515984Y-154869092D01*
X118515981Y-154869093D01*
X118369148Y-154959661D01*
X118247161Y-155081648D01*
X118156593Y-155228481D01*
X118156592Y-155228484D01*
X118102326Y-155392247D01*
X118102326Y-155392248D01*
X118102325Y-155392248D01*
X118092000Y-155493315D01*
X118092000Y-156066669D01*
X118092001Y-156066687D01*
X118102325Y-156167752D01*
X118121283Y-156224961D01*
X118156028Y-156329815D01*
X118156592Y-156331515D01*
X118156595Y-156331522D01*
X118190052Y-156385764D01*
X118208492Y-156453156D01*
X118187569Y-156519820D01*
X118133927Y-156564589D01*
X118064596Y-156573250D01*
X118001589Y-156543053D01*
X117996832Y-156538541D01*
X117962952Y-156504661D01*
X117962951Y-156504660D01*
X117816117Y-156414092D01*
X117652354Y-156359826D01*
X117652352Y-156359825D01*
X117551285Y-156349500D01*
X117551278Y-156349500D01*
X117233767Y-156349500D01*
X117166728Y-156329815D01*
X117146086Y-156313181D01*
X116454318Y-155621413D01*
X116420833Y-155560090D01*
X116417999Y-155533732D01*
X116417999Y-154953778D01*
X116437684Y-154886739D01*
X116476900Y-154848241D01*
X116538349Y-154810340D01*
X116660339Y-154688350D01*
X116750907Y-154541516D01*
X116805173Y-154377753D01*
X116815499Y-154276677D01*
X116815498Y-153703324D01*
X116805173Y-153602247D01*
X116750907Y-153438484D01*
X116660339Y-153291650D01*
X116538349Y-153169660D01*
X116538348Y-153169659D01*
X116476901Y-153131758D01*
X116470077Y-153124171D01*
X116460796Y-153119933D01*
X116447108Y-153098634D01*
X116430177Y-153079810D01*
X116427532Y-153068173D01*
X116423022Y-153061155D01*
X116417999Y-153026220D01*
X116417999Y-152839167D01*
X116437684Y-152772128D01*
X116454318Y-152751486D01*
X117467125Y-151738679D01*
X117528448Y-151705194D01*
X117598140Y-151710178D01*
X117642487Y-151738679D01*
X117764148Y-151860340D01*
X117910982Y-151950908D01*
X118074745Y-152005174D01*
X118175821Y-152015500D01*
X118874174Y-152015499D01*
X118874182Y-152015498D01*
X118874185Y-152015498D01*
X118929528Y-152009844D01*
X118975251Y-152005174D01*
X119139014Y-151950908D01*
X119285848Y-151860340D01*
X119407838Y-151738350D01*
X119498406Y-151591516D01*
X119552672Y-151427753D01*
X119562998Y-151326677D01*
X119562997Y-150753324D01*
X119552672Y-150652247D01*
X119498406Y-150488484D01*
X119495655Y-150484024D01*
X119457983Y-150422947D01*
X119450174Y-150394411D01*
X119439838Y-150366697D01*
X119441057Y-150361090D01*
X119439543Y-150355555D01*
X119448402Y-150327327D01*
X119454690Y-150298424D01*
X119459483Y-150292019D01*
X119460466Y-150288891D01*
X119475831Y-150270180D01*
X119644195Y-150101816D01*
X119705516Y-150068334D01*
X119731874Y-150065500D01*
X120973948Y-150065500D01*
X121040987Y-150085185D01*
X121086742Y-150137989D01*
X121096686Y-150207147D01*
X121067661Y-150270703D01*
X121061629Y-150277181D01*
X120997161Y-150341648D01*
X120906593Y-150488481D01*
X120906592Y-150488484D01*
X120852326Y-150652247D01*
X120852326Y-150652248D01*
X120852325Y-150652248D01*
X120842000Y-150753315D01*
X120842000Y-151326669D01*
X120842001Y-151326687D01*
X120852325Y-151427752D01*
X120876266Y-151500000D01*
X120906592Y-151591516D01*
X120997160Y-151738350D01*
X121119150Y-151860340D01*
X121265984Y-151950908D01*
X121429747Y-152005174D01*
X121530823Y-152015500D01*
X122129176Y-152015499D01*
X122129184Y-152015498D01*
X122129187Y-152015498D01*
X122184530Y-152009844D01*
X122230253Y-152005174D01*
X122394016Y-151950908D01*
X122540850Y-151860340D01*
X122662840Y-151738350D01*
X122753408Y-151591516D01*
X122807674Y-151427753D01*
X122818000Y-151326677D01*
X122817999Y-150753324D01*
X122807674Y-150652247D01*
X122753408Y-150488484D01*
X122662840Y-150341650D01*
X122598371Y-150277181D01*
X122564886Y-150215858D01*
X122569870Y-150146166D01*
X122611742Y-150090233D01*
X122677206Y-150065816D01*
X122686052Y-150065500D01*
X122891458Y-150065500D01*
X122985752Y-150046742D01*
X123031621Y-150037619D01*
X123163654Y-149982929D01*
X123214669Y-149948842D01*
X123282481Y-149903532D01*
X124812820Y-148373191D01*
X124874143Y-148339707D01*
X124943834Y-148344691D01*
X124999768Y-148386563D01*
X125024185Y-148452027D01*
X125024501Y-148460873D01*
X125024501Y-151958955D01*
X125042664Y-152050263D01*
X125052382Y-152099120D01*
X125059587Y-152116515D01*
X125107071Y-152231151D01*
X125186468Y-152349979D01*
X125186471Y-152349983D01*
X126464549Y-153628059D01*
X126498034Y-153689382D01*
X126493050Y-153759073D01*
X126489260Y-153768124D01*
X126489096Y-153768474D01*
X126462705Y-153848116D01*
X126434827Y-153932247D01*
X126434827Y-153932248D01*
X126434826Y-153932248D01*
X126424501Y-154033315D01*
X126424501Y-154606669D01*
X126424502Y-154606687D01*
X126434826Y-154707752D01*
X126468821Y-154810340D01*
X126488289Y-154869091D01*
X126489093Y-154871515D01*
X126489094Y-154871518D01*
X126579662Y-155018352D01*
X126584139Y-155024013D01*
X126581683Y-155025954D01*
X126608454Y-155074981D01*
X126603470Y-155144673D01*
X126574969Y-155189020D01*
X125126474Y-156637514D01*
X125126471Y-156637517D01*
X125052292Y-156748536D01*
X125052291Y-156748537D01*
X125047075Y-156756342D01*
X125047072Y-156756348D01*
X124992383Y-156888379D01*
X124992381Y-156888385D01*
X124964502Y-157028542D01*
X124964502Y-161972947D01*
X124944817Y-162039986D01*
X124928184Y-162060628D01*
X124807161Y-162181651D01*
X124716595Y-162328481D01*
X124716593Y-162328486D01*
X124710580Y-162346632D01*
X124662328Y-162492247D01*
X124662328Y-162492248D01*
X124662327Y-162492248D01*
X124652002Y-162593315D01*
X124652002Y-163166669D01*
X124652003Y-163166687D01*
X124662327Y-163267752D01*
X124662328Y-163267755D01*
X124685107Y-163336496D01*
X124687509Y-163406324D01*
X124651777Y-163466366D01*
X124589257Y-163497559D01*
X124567401Y-163499500D01*
X123462600Y-163499500D01*
X123395561Y-163479815D01*
X123349806Y-163427011D01*
X123339862Y-163357853D01*
X123344891Y-163336505D01*
X123367674Y-163267753D01*
X123378000Y-163166677D01*
X123377999Y-162593324D01*
X123376455Y-162578213D01*
X123367674Y-162492247D01*
X123357154Y-162460500D01*
X123313408Y-162328484D01*
X123222840Y-162181650D01*
X123100850Y-162059660D01*
X122954016Y-161969092D01*
X122790253Y-161914826D01*
X122790251Y-161914825D01*
X122689178Y-161904500D01*
X122090830Y-161904500D01*
X122090812Y-161904501D01*
X121989747Y-161914825D01*
X121825984Y-161969092D01*
X121825981Y-161969093D01*
X121679148Y-162059661D01*
X121557161Y-162181648D01*
X121466593Y-162328481D01*
X121466591Y-162328486D01*
X121460578Y-162346632D01*
X121412326Y-162492247D01*
X121412326Y-162492248D01*
X121412325Y-162492248D01*
X121402000Y-162593315D01*
X121402000Y-163166669D01*
X121402001Y-163166687D01*
X121412325Y-163267752D01*
X121412326Y-163267755D01*
X121435105Y-163336496D01*
X121437507Y-163406324D01*
X121401775Y-163466366D01*
X121339255Y-163497559D01*
X121317399Y-163499500D01*
X119617703Y-163499500D01*
X119550664Y-163479815D01*
X119504909Y-163427011D01*
X119494965Y-163357853D01*
X119496086Y-163351309D01*
X119510499Y-163278846D01*
X119510500Y-163278844D01*
X119510500Y-163121155D01*
X119510499Y-163121153D01*
X119479738Y-162966510D01*
X119479737Y-162966503D01*
X119479735Y-162966498D01*
X119419397Y-162820827D01*
X119419390Y-162820814D01*
X119331789Y-162689711D01*
X119331786Y-162689707D01*
X119220292Y-162578213D01*
X119220288Y-162578210D01*
X119089185Y-162490609D01*
X119089172Y-162490602D01*
X118943501Y-162430264D01*
X118943489Y-162430261D01*
X118788845Y-162399500D01*
X118788842Y-162399500D01*
X118631158Y-162399500D01*
X118631155Y-162399500D01*
X118476510Y-162430261D01*
X118476498Y-162430264D01*
X118330827Y-162490602D01*
X118330814Y-162490609D01*
X118199125Y-162578602D01*
X118132447Y-162599480D01*
X118130234Y-162599500D01*
X112600097Y-162599500D01*
X112533058Y-162579815D01*
X112512416Y-162563181D01*
X108824574Y-158875339D01*
X108791089Y-158814016D01*
X108790638Y-158811849D01*
X108759738Y-158656510D01*
X108759737Y-158656503D01*
X108733568Y-158593324D01*
X108699397Y-158510827D01*
X108699390Y-158510814D01*
X108611789Y-158379711D01*
X108611786Y-158379707D01*
X108500292Y-158268213D01*
X108500288Y-158268210D01*
X108369185Y-158180609D01*
X108369172Y-158180602D01*
X108223501Y-158120264D01*
X108223489Y-158120261D01*
X108068845Y-158089500D01*
X108068842Y-158089500D01*
X107911158Y-158089500D01*
X107911155Y-158089500D01*
X107756510Y-158120261D01*
X107756498Y-158120264D01*
X107610827Y-158180602D01*
X107610814Y-158180609D01*
X107479711Y-158268210D01*
X107479707Y-158268213D01*
X107368213Y-158379707D01*
X107368210Y-158379711D01*
X107280609Y-158510814D01*
X107280602Y-158510827D01*
X107220264Y-158656498D01*
X107220261Y-158656510D01*
X107189500Y-158811153D01*
X107189500Y-158968846D01*
X107220261Y-159123489D01*
X107220264Y-159123501D01*
X107280602Y-159269172D01*
X107280609Y-159269185D01*
X107368210Y-159400288D01*
X107368213Y-159400292D01*
X107479707Y-159511786D01*
X107479711Y-159511789D01*
X107610814Y-159599390D01*
X107610827Y-159599397D01*
X107756107Y-159659573D01*
X107756503Y-159659737D01*
X107821147Y-159672595D01*
X107911849Y-159690638D01*
X107973760Y-159723023D01*
X107975339Y-159724574D01*
X111538584Y-163287819D01*
X111572069Y-163349142D01*
X111567085Y-163418834D01*
X111525213Y-163474767D01*
X111459749Y-163499184D01*
X111450903Y-163499500D01*
X100624500Y-163499500D01*
X100557461Y-163479815D01*
X100511706Y-163427011D01*
X100500500Y-163375500D01*
X100500500Y-157643713D01*
X101669500Y-157643713D01*
X101669500Y-157856286D01*
X101701711Y-158059662D01*
X101702754Y-158066243D01*
X101768378Y-158268213D01*
X101768444Y-158268414D01*
X101864951Y-158457820D01*
X101989890Y-158629786D01*
X102128705Y-158768601D01*
X102162190Y-158829924D01*
X102157206Y-158899616D01*
X102115334Y-158955549D01*
X102106121Y-158961821D01*
X101951342Y-159057289D01*
X101827289Y-159181342D01*
X101735187Y-159330663D01*
X101735185Y-159330668D01*
X101712115Y-159400289D01*
X101680001Y-159497203D01*
X101680001Y-159497204D01*
X101680000Y-159497204D01*
X101669500Y-159599983D01*
X101669500Y-160900001D01*
X101669501Y-160900018D01*
X101680000Y-161002796D01*
X101680001Y-161002799D01*
X101735185Y-161169331D01*
X101735187Y-161169336D01*
X101742087Y-161180522D01*
X101827288Y-161318656D01*
X101951344Y-161442712D01*
X102100666Y-161534814D01*
X102267203Y-161589999D01*
X102369991Y-161600500D01*
X103920008Y-161600499D01*
X104022797Y-161589999D01*
X104189334Y-161534814D01*
X104338656Y-161442712D01*
X104462712Y-161318656D01*
X104554814Y-161169334D01*
X104609999Y-161002797D01*
X104620500Y-160900009D01*
X104620499Y-159599992D01*
X104616506Y-159560907D01*
X104609999Y-159497203D01*
X104609998Y-159497200D01*
X104592866Y-159445499D01*
X104554814Y-159330666D01*
X104462712Y-159181344D01*
X104338656Y-159057288D01*
X104189334Y-158965186D01*
X104189333Y-158965185D01*
X104183878Y-158961821D01*
X104137154Y-158909873D01*
X104125931Y-158840910D01*
X104153775Y-158776828D01*
X104161272Y-158768623D01*
X104300104Y-158629792D01*
X104327920Y-158591507D01*
X104425048Y-158457820D01*
X104425047Y-158457820D01*
X104425051Y-158457816D01*
X104521557Y-158268412D01*
X104587246Y-158066243D01*
X104620500Y-157856287D01*
X104620500Y-157643713D01*
X104587246Y-157433757D01*
X104521557Y-157231588D01*
X104425051Y-157042184D01*
X104425049Y-157042181D01*
X104425048Y-157042179D01*
X104300109Y-156870213D01*
X104149786Y-156719890D01*
X103977820Y-156594951D01*
X103788414Y-156498444D01*
X103788413Y-156498443D01*
X103788412Y-156498443D01*
X103586243Y-156432754D01*
X103586241Y-156432753D01*
X103586240Y-156432753D01*
X103424957Y-156407208D01*
X103376287Y-156399500D01*
X102913713Y-156399500D01*
X102865042Y-156407208D01*
X102703760Y-156432753D01*
X102501585Y-156498444D01*
X102312179Y-156594951D01*
X102140213Y-156719890D01*
X101989890Y-156870213D01*
X101864951Y-157042179D01*
X101768444Y-157231585D01*
X101702753Y-157433760D01*
X101669500Y-157643713D01*
X100500500Y-157643713D01*
X100500500Y-145512135D01*
X116779501Y-145512135D01*
X116779501Y-147307870D01*
X116779502Y-147307876D01*
X116785909Y-147367483D01*
X116836203Y-147502328D01*
X116836207Y-147502335D01*
X116922453Y-147617544D01*
X116922456Y-147617547D01*
X117037665Y-147703793D01*
X117037672Y-147703797D01*
X117172518Y-147754091D01*
X117172517Y-147754091D01*
X117179445Y-147754835D01*
X117232128Y-147760500D01*
X119027873Y-147760499D01*
X119087484Y-147754091D01*
X119222332Y-147703796D01*
X119337547Y-147617546D01*
X119423797Y-147502331D01*
X119474092Y-147367483D01*
X119480501Y-147307873D01*
X119480500Y-145512128D01*
X119474092Y-145452517D01*
X119423797Y-145317669D01*
X119423796Y-145317668D01*
X119423794Y-145317664D01*
X119337548Y-145202455D01*
X119337545Y-145202452D01*
X119222336Y-145116206D01*
X119222329Y-145116202D01*
X119087483Y-145065908D01*
X119087484Y-145065908D01*
X119027884Y-145059501D01*
X119027882Y-145059500D01*
X119027874Y-145059500D01*
X119027865Y-145059500D01*
X117232130Y-145059500D01*
X117232124Y-145059501D01*
X117172517Y-145065908D01*
X117037672Y-145116202D01*
X117037665Y-145116206D01*
X116922456Y-145202452D01*
X116922453Y-145202455D01*
X116836207Y-145317664D01*
X116836203Y-145317671D01*
X116785909Y-145452517D01*
X116779502Y-145512116D01*
X116779502Y-145512123D01*
X116779501Y-145512135D01*
X100500500Y-145512135D01*
X100500500Y-144124000D01*
X100520185Y-144056961D01*
X100572989Y-144011206D01*
X100624500Y-144000000D01*
X101531696Y-144000000D01*
X101598735Y-144019685D01*
G37*
%TD.AperFunction*%
%TD*%
%TA.AperFunction,Conductor*%
%TO.N,GND*%
G36*
X141732539Y-100520185D02*
G01*
X141778294Y-100572989D01*
X141789500Y-100624500D01*
X141789500Y-119876000D01*
X141769815Y-119943039D01*
X141717011Y-119988794D01*
X141665500Y-120000000D01*
X140758304Y-120000000D01*
X140691265Y-119980315D01*
X140645510Y-119927511D01*
X140638529Y-119908093D01*
X140611391Y-119806812D01*
X140602563Y-119791521D01*
X140545500Y-119692686D01*
X140452314Y-119599500D01*
X140395250Y-119566554D01*
X140338187Y-119533608D01*
X140274539Y-119516554D01*
X140210892Y-119499500D01*
X140210891Y-119499500D01*
X126812602Y-119499500D01*
X126745563Y-119479815D01*
X126699808Y-119427011D01*
X126689864Y-119357853D01*
X126694893Y-119336505D01*
X126717676Y-119267753D01*
X126728002Y-119166677D01*
X126728001Y-118593324D01*
X126726457Y-118578213D01*
X126717676Y-118492247D01*
X126707156Y-118460500D01*
X126663410Y-118328484D01*
X126572842Y-118181650D01*
X126451820Y-118060628D01*
X126418336Y-117999305D01*
X126415502Y-117972947D01*
X126415502Y-117558543D01*
X133364499Y-117558543D01*
X133402947Y-117751829D01*
X133402950Y-117751839D01*
X133478364Y-117933907D01*
X133478371Y-117933920D01*
X133587860Y-118097781D01*
X133587863Y-118097785D01*
X133727214Y-118237136D01*
X133727218Y-118237139D01*
X133891079Y-118346628D01*
X133891092Y-118346635D01*
X134073160Y-118422049D01*
X134073165Y-118422051D01*
X134073169Y-118422051D01*
X134073170Y-118422052D01*
X134266456Y-118460500D01*
X134266459Y-118460500D01*
X135563543Y-118460500D01*
X135715561Y-118430261D01*
X135756835Y-118422051D01*
X135938914Y-118346632D01*
X136102782Y-118237139D01*
X136242139Y-118097782D01*
X136351632Y-117933914D01*
X136359539Y-117914826D01*
X136427049Y-117751839D01*
X136427051Y-117751835D01*
X136465500Y-117558543D01*
X137694499Y-117558543D01*
X137732947Y-117751829D01*
X137732950Y-117751839D01*
X137808364Y-117933907D01*
X137808371Y-117933920D01*
X137917860Y-118097781D01*
X137917863Y-118097785D01*
X138057214Y-118237136D01*
X138057218Y-118237139D01*
X138221079Y-118346628D01*
X138221092Y-118346635D01*
X138403160Y-118422049D01*
X138403165Y-118422051D01*
X138403169Y-118422051D01*
X138403170Y-118422052D01*
X138596456Y-118460500D01*
X138596459Y-118460500D01*
X139593543Y-118460500D01*
X139745561Y-118430261D01*
X139786835Y-118422051D01*
X139968914Y-118346632D01*
X140132782Y-118237139D01*
X140272139Y-118097782D01*
X140381632Y-117933914D01*
X140389539Y-117914826D01*
X140457049Y-117751839D01*
X140457051Y-117751835D01*
X140495500Y-117558541D01*
X140495500Y-117361459D01*
X140495500Y-117361456D01*
X140457052Y-117168170D01*
X140457051Y-117168169D01*
X140457051Y-117168165D01*
X140457049Y-117168160D01*
X140381635Y-116986092D01*
X140381628Y-116986079D01*
X140272139Y-116822218D01*
X140272136Y-116822214D01*
X140132785Y-116682863D01*
X140132781Y-116682860D01*
X139968920Y-116573371D01*
X139968907Y-116573364D01*
X139786839Y-116497950D01*
X139786829Y-116497947D01*
X139593543Y-116459500D01*
X139593541Y-116459500D01*
X138596459Y-116459500D01*
X138596457Y-116459500D01*
X138403170Y-116497947D01*
X138403160Y-116497950D01*
X138221092Y-116573364D01*
X138221079Y-116573371D01*
X138057218Y-116682860D01*
X138057214Y-116682863D01*
X137917863Y-116822214D01*
X137917860Y-116822218D01*
X137808371Y-116986079D01*
X137808364Y-116986092D01*
X137732950Y-117168160D01*
X137732947Y-117168170D01*
X137694500Y-117361456D01*
X137694500Y-117361459D01*
X137694500Y-117558541D01*
X137694500Y-117558543D01*
X137694499Y-117558543D01*
X136465500Y-117558543D01*
X136465500Y-117558541D01*
X136465500Y-117361459D01*
X136465500Y-117361456D01*
X136427052Y-117168170D01*
X136427051Y-117168169D01*
X136427051Y-117168165D01*
X136427049Y-117168160D01*
X136351635Y-116986092D01*
X136351628Y-116986079D01*
X136242139Y-116822218D01*
X136242136Y-116822214D01*
X136102785Y-116682863D01*
X136102781Y-116682860D01*
X135938920Y-116573371D01*
X135938907Y-116573364D01*
X135756839Y-116497950D01*
X135756829Y-116497947D01*
X135563543Y-116459500D01*
X135563541Y-116459500D01*
X134266459Y-116459500D01*
X134266457Y-116459500D01*
X134073170Y-116497947D01*
X134073160Y-116497950D01*
X133891092Y-116573364D01*
X133891079Y-116573371D01*
X133727218Y-116682860D01*
X133727214Y-116682863D01*
X133587863Y-116822214D01*
X133587860Y-116822218D01*
X133478371Y-116986079D01*
X133478364Y-116986092D01*
X133402950Y-117168160D01*
X133402947Y-117168170D01*
X133364500Y-117361456D01*
X133364500Y-117361459D01*
X133364500Y-117558541D01*
X133364500Y-117558543D01*
X133364499Y-117558543D01*
X126415502Y-117558543D01*
X126415502Y-114331731D01*
X126435187Y-114264692D01*
X126487991Y-114218937D01*
X126557149Y-114208993D01*
X126608392Y-114228628D01*
X126708255Y-114295355D01*
X126708257Y-114295356D01*
X126708261Y-114295358D01*
X126788243Y-114328487D01*
X126853937Y-114355698D01*
X126974638Y-114379707D01*
X127008587Y-114386460D01*
X127008590Y-114386461D01*
X127008592Y-114386461D01*
X127166278Y-114386461D01*
X127166279Y-114386460D01*
X127320931Y-114355698D01*
X127466613Y-114295355D01*
X127507237Y-114268211D01*
X127598309Y-114207359D01*
X127664987Y-114186481D01*
X127667200Y-114186461D01*
X127937370Y-114186461D01*
X127937386Y-114186462D01*
X127944982Y-114186462D01*
X128103093Y-114186462D01*
X128103096Y-114186462D01*
X128255824Y-114145538D01*
X128335747Y-114099394D01*
X128392755Y-114066481D01*
X128504559Y-113954677D01*
X128504559Y-113954675D01*
X128514763Y-113944472D01*
X128514767Y-113944467D01*
X128898220Y-113561013D01*
X128959541Y-113527530D01*
X129029233Y-113532514D01*
X129085166Y-113574386D01*
X129103604Y-113609691D01*
X129124088Y-113671507D01*
X129124093Y-113671518D01*
X129215618Y-113819903D01*
X129234058Y-113887296D01*
X129215618Y-113950097D01*
X129124093Y-114098481D01*
X129124091Y-114098486D01*
X129113457Y-114130579D01*
X129069826Y-114262247D01*
X129069826Y-114262248D01*
X129069825Y-114262248D01*
X129059500Y-114363315D01*
X129059500Y-114936669D01*
X129059501Y-114936687D01*
X129069825Y-115037752D01*
X129098236Y-115123489D01*
X129115636Y-115175999D01*
X129124092Y-115201515D01*
X129124093Y-115201518D01*
X129154306Y-115250500D01*
X129214660Y-115348350D01*
X129336650Y-115470340D01*
X129483484Y-115560908D01*
X129647247Y-115615174D01*
X129748323Y-115625500D01*
X130346676Y-115625499D01*
X130346684Y-115625498D01*
X130346687Y-115625498D01*
X130402030Y-115619844D01*
X130447753Y-115615174D01*
X130611516Y-115560908D01*
X130758350Y-115470340D01*
X130872319Y-115356371D01*
X130933642Y-115322886D01*
X131003334Y-115327870D01*
X131047681Y-115356371D01*
X131161650Y-115470340D01*
X131308484Y-115560908D01*
X131472247Y-115615174D01*
X131573323Y-115625500D01*
X132171676Y-115625499D01*
X132171684Y-115625498D01*
X132171687Y-115625498D01*
X132227030Y-115619844D01*
X132272753Y-115615174D01*
X132436516Y-115560908D01*
X132583350Y-115470340D01*
X132705340Y-115348350D01*
X132729362Y-115309404D01*
X132781310Y-115262679D01*
X132834901Y-115250500D01*
X134133331Y-115250500D01*
X134133347Y-115250501D01*
X134140943Y-115250501D01*
X134299054Y-115250501D01*
X134299057Y-115250501D01*
X134451785Y-115209577D01*
X134451787Y-115209575D01*
X134451789Y-115209575D01*
X134451790Y-115209574D01*
X134509944Y-115175999D01*
X134509945Y-115175998D01*
X134588716Y-115130520D01*
X134700520Y-115018716D01*
X134700520Y-115018714D01*
X134710724Y-115008511D01*
X134710727Y-115008506D01*
X135494662Y-114224572D01*
X135555983Y-114191089D01*
X135558150Y-114190638D01*
X135616085Y-114179113D01*
X135713497Y-114159737D01*
X135859179Y-114099394D01*
X135928754Y-114052905D01*
X135995429Y-114032027D01*
X136062809Y-114050510D01*
X136109500Y-114102489D01*
X136121003Y-114168603D01*
X136119500Y-114183317D01*
X136119500Y-114756669D01*
X136119501Y-114756687D01*
X136129825Y-114857752D01*
X136184092Y-115021515D01*
X136184093Y-115021518D01*
X136206901Y-115058496D01*
X136274660Y-115168350D01*
X136396650Y-115290340D01*
X136543484Y-115380908D01*
X136707247Y-115435174D01*
X136808323Y-115445500D01*
X137406676Y-115445499D01*
X137406684Y-115445498D01*
X137406687Y-115445498D01*
X137462030Y-115439844D01*
X137507753Y-115435174D01*
X137671516Y-115380908D01*
X137818350Y-115290340D01*
X137940340Y-115168350D01*
X138030908Y-115021516D01*
X138085174Y-114857753D01*
X138095500Y-114756677D01*
X138095499Y-114183324D01*
X138095221Y-114180606D01*
X138085174Y-114082247D01*
X138084694Y-114080799D01*
X138030908Y-113918484D01*
X137940340Y-113771650D01*
X137818350Y-113649660D01*
X137674634Y-113561015D01*
X137671518Y-113559093D01*
X137671513Y-113559091D01*
X137647298Y-113551067D01*
X137507753Y-113504826D01*
X137507751Y-113504825D01*
X137406678Y-113494500D01*
X136808330Y-113494500D01*
X136808312Y-113494501D01*
X136707247Y-113504825D01*
X136543484Y-113559092D01*
X136543477Y-113559096D01*
X136465498Y-113607193D01*
X136398105Y-113625633D01*
X136331442Y-113604710D01*
X136286673Y-113551067D01*
X136278012Y-113481737D01*
X136278780Y-113477486D01*
X136280500Y-113468842D01*
X136280500Y-113311158D01*
X136280500Y-113311155D01*
X136280499Y-113311153D01*
X136254214Y-113179010D01*
X136249737Y-113156503D01*
X136200781Y-113038312D01*
X136189397Y-113010827D01*
X136189390Y-113010814D01*
X136101789Y-112879711D01*
X136101786Y-112879707D01*
X135990292Y-112768213D01*
X135990288Y-112768210D01*
X135859185Y-112680609D01*
X135859172Y-112680602D01*
X135713501Y-112620264D01*
X135713489Y-112620261D01*
X135558845Y-112589500D01*
X135558842Y-112589500D01*
X135401158Y-112589500D01*
X135401155Y-112589500D01*
X135246510Y-112620261D01*
X135246498Y-112620264D01*
X135100827Y-112680602D01*
X135100814Y-112680609D01*
X134969711Y-112768210D01*
X134969707Y-112768213D01*
X134858213Y-112879707D01*
X134858210Y-112879711D01*
X134770609Y-113010814D01*
X134770602Y-113010827D01*
X134710264Y-113156498D01*
X134710261Y-113156508D01*
X134679361Y-113311850D01*
X134646976Y-113373761D01*
X134645425Y-113375339D01*
X134007584Y-114013181D01*
X133946261Y-114046666D01*
X133919903Y-114049500D01*
X132834901Y-114049500D01*
X132825110Y-114046625D01*
X132814986Y-114047890D01*
X132792154Y-114036947D01*
X132767862Y-114029815D01*
X132759503Y-114021300D01*
X132751978Y-114017694D01*
X132729363Y-113990598D01*
X132716099Y-113969094D01*
X132705340Y-113951650D01*
X132705338Y-113951648D01*
X132704382Y-113950098D01*
X132685941Y-113882705D01*
X132704382Y-113819902D01*
X132705338Y-113818351D01*
X132705340Y-113818350D01*
X132729363Y-113779401D01*
X132781311Y-113732678D01*
X132834901Y-113720500D01*
X132873331Y-113720500D01*
X132873347Y-113720501D01*
X132880943Y-113720501D01*
X133039055Y-113720501D01*
X133039057Y-113720501D01*
X133135252Y-113694724D01*
X133167346Y-113690500D01*
X133268844Y-113690500D01*
X133268845Y-113690499D01*
X133423497Y-113659737D01*
X133544320Y-113609691D01*
X133569172Y-113599397D01*
X133569172Y-113599396D01*
X133569179Y-113599394D01*
X133700289Y-113511789D01*
X133811789Y-113400289D01*
X133899394Y-113269179D01*
X133959737Y-113123497D01*
X133990500Y-112968842D01*
X133990500Y-112811158D01*
X133990500Y-112811155D01*
X133990499Y-112811153D01*
X133986433Y-112790710D01*
X133959737Y-112656503D01*
X133959735Y-112656498D01*
X133899397Y-112510827D01*
X133899390Y-112510814D01*
X133811789Y-112379711D01*
X133811786Y-112379707D01*
X133700292Y-112268213D01*
X133700288Y-112268210D01*
X133569185Y-112180609D01*
X133569172Y-112180602D01*
X133423501Y-112120264D01*
X133423489Y-112120261D01*
X133268845Y-112089500D01*
X133268842Y-112089500D01*
X133111158Y-112089500D01*
X133111155Y-112089500D01*
X132997713Y-112112065D01*
X132928122Y-112105838D01*
X132872944Y-112062975D01*
X132849700Y-111997085D01*
X132850164Y-111977845D01*
X132850173Y-111977755D01*
X132850174Y-111977753D01*
X132860500Y-111876677D01*
X132860499Y-111303324D01*
X132850174Y-111202247D01*
X132810764Y-111083315D01*
X136119500Y-111083315D01*
X136119500Y-111656669D01*
X136119501Y-111656687D01*
X136129825Y-111757752D01*
X136166109Y-111867249D01*
X136184092Y-111921516D01*
X136274660Y-112068350D01*
X136396650Y-112190340D01*
X136543484Y-112280908D01*
X136707247Y-112335174D01*
X136808323Y-112345500D01*
X137406676Y-112345499D01*
X137406684Y-112345498D01*
X137406687Y-112345498D01*
X137462030Y-112339844D01*
X137507753Y-112335174D01*
X137671516Y-112280908D01*
X137818350Y-112190340D01*
X137940340Y-112068350D01*
X138030908Y-111921516D01*
X138085174Y-111757753D01*
X138095500Y-111656677D01*
X138095499Y-111083324D01*
X138085174Y-110982247D01*
X138030908Y-110818484D01*
X137940340Y-110671650D01*
X137818350Y-110549660D01*
X137671516Y-110459092D01*
X137507753Y-110404826D01*
X137507751Y-110404825D01*
X137406678Y-110394500D01*
X136808330Y-110394500D01*
X136808312Y-110394501D01*
X136707247Y-110404825D01*
X136543484Y-110459092D01*
X136543481Y-110459093D01*
X136396648Y-110549661D01*
X136274661Y-110671648D01*
X136184093Y-110818481D01*
X136184092Y-110818484D01*
X136129826Y-110982247D01*
X136129826Y-110982248D01*
X136129825Y-110982248D01*
X136119500Y-111083315D01*
X132810764Y-111083315D01*
X132795908Y-111038484D01*
X132705340Y-110891650D01*
X132583350Y-110769660D01*
X132436516Y-110679092D01*
X132272753Y-110624826D01*
X132272751Y-110624825D01*
X132171678Y-110614500D01*
X131573330Y-110614500D01*
X131573312Y-110614501D01*
X131472247Y-110624825D01*
X131308484Y-110679092D01*
X131308481Y-110679093D01*
X131161648Y-110769661D01*
X131047681Y-110883629D01*
X130986358Y-110917114D01*
X130916666Y-110912130D01*
X130872319Y-110883629D01*
X130758351Y-110769661D01*
X130758350Y-110769660D01*
X130611516Y-110679092D01*
X130447753Y-110624826D01*
X130447751Y-110624825D01*
X130346684Y-110614500D01*
X130346677Y-110614500D01*
X130149374Y-110614500D01*
X130082335Y-110594815D01*
X130061693Y-110578181D01*
X129239983Y-109756470D01*
X129239982Y-109756469D01*
X129165399Y-109706635D01*
X129121153Y-109677071D01*
X128989120Y-109622381D01*
X128985449Y-109621650D01*
X128985445Y-109621648D01*
X128985445Y-109621650D01*
X128848957Y-109594500D01*
X128848955Y-109594500D01*
X128369553Y-109594500D01*
X128341934Y-109586390D01*
X128313618Y-109581168D01*
X128306433Y-109575965D01*
X128302514Y-109574815D01*
X128284706Y-109560926D01*
X128283263Y-109559572D01*
X128223351Y-109499660D01*
X128211854Y-109492568D01*
X128202738Y-109484015D01*
X128191107Y-109464238D01*
X128175763Y-109447178D01*
X128168819Y-109426340D01*
X128167319Y-109423788D01*
X128167388Y-109422042D01*
X128165968Y-109417783D01*
X128160120Y-109388380D01*
X128110428Y-109268414D01*
X128105431Y-109256349D01*
X128105426Y-109256340D01*
X128026034Y-109137522D01*
X127981771Y-109093259D01*
X127924980Y-109036468D01*
X127807055Y-108918543D01*
X133364499Y-108918543D01*
X133402947Y-109111829D01*
X133402950Y-109111839D01*
X133478364Y-109293907D01*
X133478371Y-109293920D01*
X133587860Y-109457781D01*
X133587863Y-109457785D01*
X133727214Y-109597136D01*
X133727218Y-109597139D01*
X133891079Y-109706628D01*
X133891092Y-109706635D01*
X134073160Y-109782049D01*
X134073165Y-109782051D01*
X134073169Y-109782051D01*
X134073170Y-109782052D01*
X134266456Y-109820500D01*
X134266459Y-109820500D01*
X135563543Y-109820500D01*
X135693582Y-109794632D01*
X135756835Y-109782051D01*
X135938914Y-109706632D01*
X136102782Y-109597139D01*
X136242139Y-109457782D01*
X136351632Y-109293914D01*
X136427051Y-109111835D01*
X136444081Y-109026220D01*
X136465500Y-108918543D01*
X137694499Y-108918543D01*
X137732947Y-109111829D01*
X137732950Y-109111839D01*
X137808364Y-109293907D01*
X137808371Y-109293920D01*
X137917860Y-109457781D01*
X137917863Y-109457785D01*
X138057214Y-109597136D01*
X138057218Y-109597139D01*
X138221079Y-109706628D01*
X138221092Y-109706635D01*
X138403160Y-109782049D01*
X138403165Y-109782051D01*
X138403169Y-109782051D01*
X138403170Y-109782052D01*
X138596456Y-109820500D01*
X138596459Y-109820500D01*
X139593543Y-109820500D01*
X139723582Y-109794632D01*
X139786835Y-109782051D01*
X139968914Y-109706632D01*
X140132782Y-109597139D01*
X140272139Y-109457782D01*
X140381632Y-109293914D01*
X140457051Y-109111835D01*
X140474081Y-109026220D01*
X140495500Y-108918543D01*
X140495500Y-108721456D01*
X140457052Y-108528170D01*
X140457051Y-108528169D01*
X140457051Y-108528165D01*
X140440312Y-108487753D01*
X140381635Y-108346092D01*
X140381628Y-108346079D01*
X140272139Y-108182218D01*
X140272136Y-108182214D01*
X140132785Y-108042863D01*
X140132781Y-108042860D01*
X139968920Y-107933371D01*
X139968907Y-107933364D01*
X139786839Y-107857950D01*
X139786829Y-107857947D01*
X139593543Y-107819500D01*
X139593541Y-107819500D01*
X138596459Y-107819500D01*
X138596457Y-107819500D01*
X138403170Y-107857947D01*
X138403160Y-107857950D01*
X138221092Y-107933364D01*
X138221079Y-107933371D01*
X138057218Y-108042860D01*
X138057214Y-108042863D01*
X137917863Y-108182214D01*
X137917860Y-108182218D01*
X137808371Y-108346079D01*
X137808364Y-108346092D01*
X137732950Y-108528160D01*
X137732947Y-108528170D01*
X137694500Y-108721456D01*
X137694500Y-108721459D01*
X137694500Y-108918541D01*
X137694500Y-108918543D01*
X137694499Y-108918543D01*
X136465500Y-108918543D01*
X136465500Y-108721456D01*
X136427052Y-108528170D01*
X136427051Y-108528169D01*
X136427051Y-108528165D01*
X136410312Y-108487753D01*
X136351635Y-108346092D01*
X136351628Y-108346079D01*
X136242139Y-108182218D01*
X136242136Y-108182214D01*
X136102785Y-108042863D01*
X136102781Y-108042860D01*
X135938920Y-107933371D01*
X135938907Y-107933364D01*
X135756839Y-107857950D01*
X135756829Y-107857947D01*
X135563543Y-107819500D01*
X135563541Y-107819500D01*
X134266459Y-107819500D01*
X134266457Y-107819500D01*
X134073170Y-107857947D01*
X134073160Y-107857950D01*
X133891092Y-107933364D01*
X133891079Y-107933371D01*
X133727218Y-108042860D01*
X133727214Y-108042863D01*
X133587863Y-108182214D01*
X133587860Y-108182218D01*
X133478371Y-108346079D01*
X133478364Y-108346092D01*
X133402950Y-108528160D01*
X133402947Y-108528170D01*
X133364500Y-108721456D01*
X133364500Y-108721459D01*
X133364500Y-108918541D01*
X133364500Y-108918543D01*
X133364499Y-108918543D01*
X127807055Y-108918543D01*
X126511820Y-107623307D01*
X126478335Y-107561984D01*
X126475501Y-107535626D01*
X126475501Y-103615384D01*
X126495186Y-103548345D01*
X126526616Y-103515066D01*
X126629789Y-103440107D01*
X126629789Y-103440106D01*
X126629793Y-103440104D01*
X126780105Y-103289792D01*
X126780107Y-103289788D01*
X126780110Y-103289786D01*
X126905049Y-103117820D01*
X126905048Y-103117820D01*
X126905052Y-103117816D01*
X127001558Y-102928412D01*
X127067247Y-102726243D01*
X127100501Y-102516287D01*
X127100501Y-102303713D01*
X127067247Y-102093757D01*
X127001558Y-101891588D01*
X126905052Y-101702184D01*
X126905050Y-101702181D01*
X126905049Y-101702179D01*
X126780110Y-101530213D01*
X126629787Y-101379890D01*
X126457821Y-101254951D01*
X126268415Y-101158444D01*
X126268414Y-101158443D01*
X126268413Y-101158443D01*
X126066244Y-101092754D01*
X126066242Y-101092753D01*
X126066241Y-101092753D01*
X125904958Y-101067208D01*
X125856288Y-101059500D01*
X125643714Y-101059500D01*
X125595043Y-101067208D01*
X125433761Y-101092753D01*
X125231586Y-101158444D01*
X125042180Y-101254951D01*
X124870214Y-101379890D01*
X124719891Y-101530213D01*
X124594949Y-101702184D01*
X124594947Y-101702187D01*
X124590482Y-101710950D01*
X124542506Y-101761744D01*
X124474684Y-101778537D01*
X124408550Y-101755997D01*
X124369514Y-101710944D01*
X124365051Y-101702184D01*
X124365049Y-101702181D01*
X124365048Y-101702179D01*
X124240109Y-101530213D01*
X124089786Y-101379890D01*
X123917820Y-101254951D01*
X123728414Y-101158444D01*
X123728413Y-101158443D01*
X123728412Y-101158443D01*
X123526243Y-101092754D01*
X123526241Y-101092753D01*
X123526240Y-101092753D01*
X123364957Y-101067208D01*
X123316287Y-101059500D01*
X123103713Y-101059500D01*
X123055042Y-101067208D01*
X122893760Y-101092753D01*
X122691585Y-101158444D01*
X122502179Y-101254951D01*
X122330213Y-101379890D01*
X122179890Y-101530213D01*
X122054951Y-101702179D01*
X121958444Y-101891585D01*
X121892753Y-102093760D01*
X121859500Y-102303713D01*
X121859500Y-102516286D01*
X121891748Y-102719896D01*
X121892754Y-102726243D01*
X121939531Y-102870208D01*
X121958444Y-102928414D01*
X122054951Y-103117820D01*
X122179890Y-103289786D01*
X122330213Y-103440109D01*
X122502179Y-103565048D01*
X122502181Y-103565049D01*
X122502184Y-103565051D01*
X122691588Y-103661557D01*
X122893757Y-103727246D01*
X123096236Y-103759315D01*
X123159369Y-103789244D01*
X123196301Y-103848555D01*
X123195303Y-103918418D01*
X123164518Y-103969469D01*
X122555808Y-104578181D01*
X122494485Y-104611666D01*
X122468127Y-104614500D01*
X116821874Y-104614500D01*
X116754835Y-104594815D01*
X116734193Y-104578181D01*
X114332483Y-102176470D01*
X114332482Y-102176469D01*
X114213657Y-102097074D01*
X114213653Y-102097071D01*
X114213648Y-102097069D01*
X114081620Y-102042381D01*
X114081614Y-102042379D01*
X113941457Y-102014500D01*
X113941455Y-102014500D01*
X104226455Y-102014500D01*
X104083545Y-102014500D01*
X104083543Y-102014500D01*
X103943385Y-102042379D01*
X103943379Y-102042381D01*
X103811349Y-102097069D01*
X103811340Y-102097074D01*
X103692521Y-102176467D01*
X103692517Y-102176470D01*
X103501421Y-102367566D01*
X103440098Y-102401051D01*
X103394346Y-102402359D01*
X103376291Y-102399500D01*
X103376287Y-102399500D01*
X102913713Y-102399500D01*
X102865042Y-102407208D01*
X102703760Y-102432753D01*
X102501585Y-102498444D01*
X102312179Y-102594951D01*
X102140213Y-102719890D01*
X101989890Y-102870213D01*
X101864951Y-103042179D01*
X101768444Y-103231585D01*
X101702753Y-103433760D01*
X101669500Y-103643713D01*
X101669500Y-103856286D01*
X101702753Y-104066239D01*
X101768444Y-104268414D01*
X101864951Y-104457820D01*
X101989890Y-104629786D01*
X102140209Y-104780105D01*
X102140214Y-104780109D01*
X102304793Y-104899682D01*
X102347459Y-104955011D01*
X102353438Y-105024625D01*
X102320833Y-105086420D01*
X102304793Y-105100318D01*
X102140214Y-105219890D01*
X102140209Y-105219894D01*
X101989890Y-105370213D01*
X101864951Y-105542179D01*
X101768444Y-105731585D01*
X101702753Y-105933760D01*
X101674419Y-106112655D01*
X101669500Y-106143713D01*
X101669500Y-106356287D01*
X101670261Y-106361090D01*
X101690437Y-106488481D01*
X101702754Y-106566243D01*
X101763540Y-106753323D01*
X101768444Y-106768414D01*
X101864951Y-106957820D01*
X101989890Y-107129786D01*
X102140209Y-107280105D01*
X102140214Y-107280109D01*
X102304793Y-107399682D01*
X102347459Y-107455011D01*
X102353438Y-107524625D01*
X102320833Y-107586420D01*
X102304793Y-107600318D01*
X102140214Y-107719890D01*
X102140209Y-107719894D01*
X101989890Y-107870213D01*
X101864951Y-108042179D01*
X101768444Y-108231585D01*
X101702753Y-108433760D01*
X101669500Y-108643713D01*
X101669500Y-108856286D01*
X101695680Y-109021583D01*
X101702754Y-109066243D01*
X101764523Y-109256349D01*
X101768444Y-109268414D01*
X101864951Y-109457820D01*
X101989890Y-109629786D01*
X102140213Y-109780109D01*
X102312179Y-109905048D01*
X102312181Y-109905049D01*
X102312184Y-109905051D01*
X102501588Y-110001557D01*
X102703757Y-110067246D01*
X102913713Y-110100500D01*
X102913714Y-110100500D01*
X103376286Y-110100500D01*
X103376287Y-110100500D01*
X103586243Y-110067246D01*
X103788412Y-110001557D01*
X103977816Y-109905051D01*
X103999789Y-109889086D01*
X104149786Y-109780109D01*
X104149788Y-109780106D01*
X104149792Y-109780104D01*
X104300104Y-109629792D01*
X104300106Y-109629788D01*
X104300109Y-109629786D01*
X104425048Y-109457820D01*
X104425047Y-109457820D01*
X104425051Y-109457816D01*
X104521557Y-109268412D01*
X104587246Y-109066243D01*
X104620500Y-108856287D01*
X104620500Y-108643713D01*
X104587246Y-108433757D01*
X104521557Y-108231588D01*
X104425051Y-108042184D01*
X104425049Y-108042181D01*
X104425048Y-108042179D01*
X104300109Y-107870213D01*
X104149792Y-107719896D01*
X104129556Y-107705194D01*
X103985204Y-107600316D01*
X103942540Y-107544989D01*
X103936561Y-107475376D01*
X103969166Y-107413580D01*
X103985199Y-107399686D01*
X104149792Y-107280104D01*
X104300104Y-107129792D01*
X104300106Y-107129788D01*
X104300109Y-107129786D01*
X104425048Y-106957820D01*
X104425047Y-106957820D01*
X104425051Y-106957816D01*
X104521557Y-106768412D01*
X104587246Y-106566243D01*
X104620500Y-106356287D01*
X104620500Y-106143713D01*
X104587246Y-105933757D01*
X104521557Y-105731588D01*
X104425051Y-105542184D01*
X104425049Y-105542181D01*
X104425048Y-105542179D01*
X104300109Y-105370213D01*
X104149792Y-105219896D01*
X104113908Y-105193825D01*
X103985204Y-105100316D01*
X103942540Y-105044989D01*
X103936561Y-104975376D01*
X103969166Y-104913580D01*
X103985199Y-104899686D01*
X104149792Y-104780104D01*
X104300104Y-104629792D01*
X104300106Y-104629788D01*
X104300109Y-104629786D01*
X104425048Y-104457820D01*
X104425047Y-104457820D01*
X104425051Y-104457816D01*
X104521557Y-104268412D01*
X104587246Y-104066243D01*
X104620500Y-103856287D01*
X104620500Y-103643713D01*
X104620500Y-103643706D01*
X104614987Y-103608897D01*
X104623942Y-103539604D01*
X104668939Y-103486152D01*
X104735690Y-103465513D01*
X104737460Y-103465500D01*
X108788808Y-103465500D01*
X108855847Y-103485185D01*
X108901602Y-103537989D01*
X108911546Y-103607147D01*
X108899293Y-103645794D01*
X108841118Y-103759967D01*
X108780290Y-103947173D01*
X108749500Y-104141577D01*
X108749500Y-104338422D01*
X108780290Y-104532826D01*
X108841117Y-104720029D01*
X108906397Y-104848147D01*
X108930476Y-104895405D01*
X109046172Y-105054646D01*
X109185354Y-105193828D01*
X109344595Y-105309524D01*
X109427455Y-105351743D01*
X109519970Y-105398882D01*
X109519972Y-105398882D01*
X109519975Y-105398884D01*
X109620317Y-105431487D01*
X109707173Y-105459709D01*
X109901578Y-105490500D01*
X109901583Y-105490500D01*
X110098422Y-105490500D01*
X110297454Y-105458976D01*
X110366747Y-105467930D01*
X110404533Y-105493768D01*
X111070412Y-106159647D01*
X111103897Y-106220970D01*
X111106089Y-106234726D01*
X111114826Y-106320253D01*
X111165241Y-106472396D01*
X111169092Y-106484015D01*
X111169093Y-106484018D01*
X111253678Y-106621151D01*
X111272118Y-106688544D01*
X111253678Y-106751344D01*
X111169095Y-106888474D01*
X111169091Y-106888483D01*
X111114826Y-107052245D01*
X111114825Y-107052246D01*
X111107510Y-107123852D01*
X111081113Y-107188544D01*
X111071833Y-107198930D01*
X110404532Y-107866231D01*
X110343209Y-107899716D01*
X110297453Y-107901023D01*
X110098422Y-107869500D01*
X110098417Y-107869500D01*
X109901583Y-107869500D01*
X109901578Y-107869500D01*
X109707173Y-107900290D01*
X109519970Y-107961117D01*
X109344594Y-108050476D01*
X109277640Y-108099122D01*
X109185354Y-108166172D01*
X109185352Y-108166174D01*
X109185351Y-108166174D01*
X109046174Y-108305351D01*
X109046174Y-108305352D01*
X109046172Y-108305354D01*
X109013750Y-108349979D01*
X108930476Y-108464594D01*
X108841117Y-108639970D01*
X108780290Y-108827173D01*
X108749500Y-109021577D01*
X108749500Y-109218422D01*
X108780290Y-109412826D01*
X108841117Y-109600029D01*
X108926950Y-109768484D01*
X108930476Y-109775405D01*
X109046172Y-109934646D01*
X109185354Y-110073828D01*
X109344595Y-110189524D01*
X109427455Y-110231743D01*
X109519970Y-110278882D01*
X109519972Y-110278882D01*
X109519975Y-110278884D01*
X109620317Y-110311487D01*
X109707173Y-110339709D01*
X109901578Y-110370500D01*
X109901583Y-110370500D01*
X110098422Y-110370500D01*
X110292826Y-110339709D01*
X110480025Y-110278884D01*
X110655405Y-110189524D01*
X110814646Y-110073828D01*
X110953828Y-109934646D01*
X111069524Y-109775405D01*
X111158884Y-109600025D01*
X111219709Y-109412826D01*
X111238544Y-109293907D01*
X111250500Y-109218422D01*
X111250500Y-109021577D01*
X111218976Y-108822545D01*
X111227930Y-108753252D01*
X111253768Y-108715466D01*
X111329264Y-108639970D01*
X111447997Y-108521237D01*
X111509319Y-108487753D01*
X111574680Y-108491212D01*
X111692247Y-108530171D01*
X111793323Y-108540497D01*
X112366676Y-108540496D01*
X112366684Y-108540495D01*
X112366687Y-108540495D01*
X112422030Y-108534841D01*
X112467753Y-108530171D01*
X112631516Y-108475905D01*
X112778350Y-108385337D01*
X112900340Y-108263347D01*
X112990908Y-108116513D01*
X113045174Y-107952750D01*
X113055500Y-107851674D01*
X113055499Y-107153321D01*
X113045174Y-107052244D01*
X112990908Y-106888481D01*
X112906320Y-106751342D01*
X112887881Y-106683953D01*
X112906322Y-106621151D01*
X112990903Y-106484024D01*
X112990902Y-106484024D01*
X112990908Y-106484016D01*
X113045174Y-106320253D01*
X113055500Y-106219177D01*
X113055499Y-105520824D01*
X113052401Y-105490500D01*
X113045174Y-105419747D01*
X113028758Y-105370208D01*
X112990908Y-105255984D01*
X112900340Y-105109150D01*
X112778350Y-104987160D01*
X112631516Y-104896592D01*
X112467753Y-104842326D01*
X112467751Y-104842325D01*
X112366678Y-104832000D01*
X111793330Y-104832000D01*
X111793312Y-104832001D01*
X111692247Y-104842325D01*
X111692240Y-104842327D01*
X111584066Y-104878172D01*
X111514238Y-104880573D01*
X111457382Y-104848147D01*
X111253768Y-104644533D01*
X111220283Y-104583210D01*
X111218976Y-104537454D01*
X111250500Y-104338422D01*
X111250500Y-104141577D01*
X111219709Y-103947173D01*
X111190178Y-103856287D01*
X111158884Y-103759975D01*
X111158882Y-103759972D01*
X111158881Y-103759967D01*
X111100707Y-103645794D01*
X111087811Y-103577125D01*
X111114088Y-103512385D01*
X111171194Y-103472128D01*
X111211192Y-103465500D01*
X113518126Y-103465500D01*
X113585165Y-103485185D01*
X113605807Y-103501819D01*
X116007514Y-105903527D01*
X116007517Y-105903530D01*
X116007520Y-105903532D01*
X116075332Y-105948842D01*
X116126347Y-105982929D01*
X116258380Y-106037619D01*
X116258384Y-106037619D01*
X116258385Y-106037620D01*
X116398542Y-106065500D01*
X116398545Y-106065500D01*
X117618945Y-106065500D01*
X117638701Y-106071301D01*
X117659269Y-106072240D01*
X117671545Y-106080945D01*
X117685984Y-106085185D01*
X117699466Y-106100744D01*
X117716263Y-106112655D01*
X117721884Y-106126616D01*
X117731739Y-106137989D01*
X117734669Y-106158367D01*
X117742360Y-106177468D01*
X117739541Y-106192251D01*
X117741683Y-106207147D01*
X117733129Y-106225876D01*
X117729273Y-106246102D01*
X117714858Y-106265883D01*
X117712658Y-106270703D01*
X117708857Y-106274892D01*
X117707742Y-106276065D01*
X117642158Y-106341650D01*
X117636048Y-106351554D01*
X117627181Y-106360892D01*
X117607648Y-106372220D01*
X117590860Y-106387321D01*
X117575655Y-106390776D01*
X117566742Y-106395946D01*
X117555221Y-106395420D01*
X117537269Y-106399500D01*
X117196911Y-106399500D01*
X117073179Y-106424112D01*
X117073167Y-106424115D01*
X116956613Y-106472393D01*
X116956611Y-106472394D01*
X116851704Y-106542490D01*
X115279989Y-108114205D01*
X115209893Y-108219112D01*
X115209892Y-108219114D01*
X115161613Y-108335670D01*
X115161612Y-108335673D01*
X115158768Y-108349977D01*
X115158767Y-108349979D01*
X115136999Y-108459412D01*
X115136999Y-109026220D01*
X115117314Y-109093259D01*
X115078097Y-109131758D01*
X115016649Y-109169659D01*
X114894660Y-109291648D01*
X114804092Y-109438481D01*
X114804090Y-109438486D01*
X114795557Y-109464238D01*
X114749825Y-109602247D01*
X114749825Y-109602248D01*
X114749824Y-109602248D01*
X114739499Y-109703315D01*
X114739499Y-110276669D01*
X114739500Y-110276687D01*
X114749824Y-110377752D01*
X114786108Y-110487249D01*
X114804091Y-110541516D01*
X114894659Y-110688350D01*
X115016649Y-110810340D01*
X115078096Y-110848241D01*
X115124820Y-110900186D01*
X115136999Y-110953778D01*
X115136999Y-113468335D01*
X115117314Y-113535374D01*
X115100680Y-113556016D01*
X114788513Y-113868182D01*
X114727190Y-113901667D01*
X114700832Y-113904501D01*
X114333330Y-113904501D01*
X114333312Y-113904502D01*
X114232247Y-113914826D01*
X114068484Y-113969093D01*
X114068481Y-113969094D01*
X113921648Y-114059662D01*
X113799661Y-114181649D01*
X113709093Y-114328482D01*
X113709091Y-114328487D01*
X113681719Y-114411089D01*
X113654826Y-114492248D01*
X113654826Y-114492249D01*
X113654825Y-114492249D01*
X113644500Y-114593316D01*
X113644500Y-115291670D01*
X113644501Y-115291688D01*
X113654825Y-115392753D01*
X113691109Y-115502250D01*
X113709092Y-115556517D01*
X113799660Y-115703351D01*
X113921650Y-115825341D01*
X113993991Y-115869961D01*
X114040716Y-115921909D01*
X114051937Y-115990872D01*
X114024094Y-116054954D01*
X113966025Y-116093810D01*
X113928894Y-116099500D01*
X113895097Y-116099500D01*
X113828058Y-116079815D01*
X113807416Y-116063181D01*
X111142074Y-113397839D01*
X111108589Y-113336516D01*
X111108138Y-113334349D01*
X111077238Y-113179010D01*
X111077237Y-113179003D01*
X111067915Y-113156498D01*
X111016897Y-113033327D01*
X111016890Y-113033314D01*
X110929289Y-112902211D01*
X110929286Y-112902207D01*
X110817792Y-112790713D01*
X110817788Y-112790710D01*
X110686685Y-112703109D01*
X110686672Y-112703102D01*
X110541001Y-112642764D01*
X110540989Y-112642761D01*
X110386345Y-112612000D01*
X110386342Y-112612000D01*
X110228658Y-112612000D01*
X110228655Y-112612000D01*
X110074010Y-112642761D01*
X110073998Y-112642764D01*
X109928327Y-112703102D01*
X109928314Y-112703109D01*
X109797211Y-112790710D01*
X109797207Y-112790713D01*
X109685713Y-112902207D01*
X109685710Y-112902211D01*
X109598109Y-113033314D01*
X109598102Y-113033327D01*
X109537764Y-113178998D01*
X109537761Y-113179010D01*
X109507000Y-113333653D01*
X109507000Y-113491346D01*
X109537761Y-113645989D01*
X109537764Y-113646001D01*
X109598102Y-113791672D01*
X109598109Y-113791685D01*
X109685710Y-113922788D01*
X109685713Y-113922792D01*
X109797207Y-114034286D01*
X109797211Y-114034289D01*
X109928314Y-114121890D01*
X109928327Y-114121897D01*
X110072583Y-114181649D01*
X110074003Y-114182237D01*
X110118505Y-114191089D01*
X110229349Y-114213138D01*
X110291260Y-114245523D01*
X110292839Y-114247074D01*
X113110139Y-117064374D01*
X113110149Y-117064385D01*
X113114479Y-117068715D01*
X113114480Y-117068716D01*
X113226284Y-117180520D01*
X113305930Y-117226503D01*
X113363215Y-117259577D01*
X113515943Y-117300500D01*
X117388330Y-117300500D01*
X117388346Y-117300501D01*
X117395942Y-117300501D01*
X117554053Y-117300501D01*
X117554056Y-117300501D01*
X117706784Y-117259577D01*
X117764069Y-117226503D01*
X117843715Y-117180520D01*
X117955519Y-117068716D01*
X117955519Y-117068714D01*
X117965723Y-117058511D01*
X117965726Y-117058506D01*
X119364662Y-115659571D01*
X119425983Y-115626088D01*
X119428150Y-115625637D01*
X119486085Y-115614112D01*
X119583497Y-115594736D01*
X119729179Y-115534393D01*
X119860289Y-115446788D01*
X119971789Y-115335288D01*
X120059394Y-115204178D01*
X120119737Y-115058496D01*
X120150500Y-114903841D01*
X120150500Y-114746157D01*
X120150500Y-114746154D01*
X120150499Y-114746152D01*
X120132668Y-114656510D01*
X120119737Y-114591502D01*
X120086318Y-114510821D01*
X120059397Y-114445826D01*
X120059390Y-114445813D01*
X119971789Y-114314710D01*
X119971786Y-114314706D01*
X119882866Y-114225786D01*
X119849381Y-114164463D01*
X119854365Y-114094771D01*
X119882863Y-114050427D01*
X119909941Y-114023350D01*
X120000509Y-113876516D01*
X120054775Y-113712753D01*
X120065101Y-113611677D01*
X120065100Y-113038324D01*
X120054775Y-112937247D01*
X120000509Y-112773484D01*
X119909941Y-112626650D01*
X119909939Y-112626648D01*
X119906149Y-112620503D01*
X119908629Y-112618972D01*
X119887436Y-112566487D01*
X119900455Y-112497841D01*
X119909515Y-112483739D01*
X119912837Y-112478352D01*
X119912840Y-112478350D01*
X120003408Y-112331516D01*
X120057674Y-112167753D01*
X120068000Y-112066677D01*
X120067999Y-111493324D01*
X120057674Y-111392247D01*
X120003408Y-111228484D01*
X119912840Y-111081650D01*
X119790850Y-110959660D01*
X119680585Y-110891648D01*
X119644018Y-110869093D01*
X119644013Y-110869091D01*
X119642569Y-110868612D01*
X119480253Y-110814826D01*
X119480251Y-110814825D01*
X119379178Y-110804500D01*
X118780830Y-110804500D01*
X118780812Y-110804501D01*
X118679747Y-110814825D01*
X118515984Y-110869092D01*
X118515981Y-110869093D01*
X118369148Y-110959661D01*
X118247161Y-111081648D01*
X118156593Y-111228481D01*
X118156592Y-111228484D01*
X118102326Y-111392247D01*
X118102326Y-111392248D01*
X118102325Y-111392248D01*
X118092000Y-111493315D01*
X118092000Y-112066669D01*
X118092001Y-112066687D01*
X118102325Y-112167752D01*
X118121283Y-112224961D01*
X118156028Y-112329815D01*
X118156592Y-112331515D01*
X118156595Y-112331522D01*
X118190052Y-112385764D01*
X118208492Y-112453156D01*
X118187569Y-112519820D01*
X118133927Y-112564589D01*
X118064596Y-112573250D01*
X118001589Y-112543053D01*
X117996832Y-112538541D01*
X117962952Y-112504661D01*
X117962951Y-112504660D01*
X117816117Y-112414092D01*
X117652354Y-112359826D01*
X117652352Y-112359825D01*
X117551285Y-112349500D01*
X117551278Y-112349500D01*
X117233767Y-112349500D01*
X117166728Y-112329815D01*
X117146086Y-112313181D01*
X116454318Y-111621413D01*
X116420833Y-111560090D01*
X116417999Y-111533732D01*
X116417999Y-110953778D01*
X116437684Y-110886739D01*
X116476900Y-110848241D01*
X116538349Y-110810340D01*
X116660339Y-110688350D01*
X116750907Y-110541516D01*
X116805173Y-110377753D01*
X116815499Y-110276677D01*
X116815498Y-109703324D01*
X116805173Y-109602247D01*
X116750907Y-109438484D01*
X116660339Y-109291650D01*
X116538349Y-109169660D01*
X116538348Y-109169659D01*
X116476901Y-109131758D01*
X116470077Y-109124171D01*
X116460796Y-109119933D01*
X116447108Y-109098634D01*
X116430177Y-109079810D01*
X116427532Y-109068173D01*
X116423022Y-109061155D01*
X116417999Y-109026220D01*
X116417999Y-108839167D01*
X116437684Y-108772128D01*
X116454318Y-108751486D01*
X117467125Y-107738679D01*
X117528448Y-107705194D01*
X117598140Y-107710178D01*
X117642487Y-107738679D01*
X117764148Y-107860340D01*
X117910982Y-107950908D01*
X118074745Y-108005174D01*
X118175821Y-108015500D01*
X118874174Y-108015499D01*
X118874182Y-108015498D01*
X118874185Y-108015498D01*
X118929528Y-108009844D01*
X118975251Y-108005174D01*
X119139014Y-107950908D01*
X119285848Y-107860340D01*
X119407838Y-107738350D01*
X119498406Y-107591516D01*
X119552672Y-107427753D01*
X119562998Y-107326677D01*
X119562997Y-106753324D01*
X119552672Y-106652247D01*
X119498406Y-106488484D01*
X119495655Y-106484024D01*
X119457983Y-106422947D01*
X119450174Y-106394411D01*
X119439838Y-106366697D01*
X119441057Y-106361090D01*
X119439543Y-106355555D01*
X119448402Y-106327327D01*
X119454690Y-106298424D01*
X119459483Y-106292019D01*
X119460466Y-106288891D01*
X119475831Y-106270180D01*
X119644195Y-106101816D01*
X119705516Y-106068334D01*
X119731874Y-106065500D01*
X120973948Y-106065500D01*
X121040987Y-106085185D01*
X121086742Y-106137989D01*
X121096686Y-106207147D01*
X121067661Y-106270703D01*
X121061629Y-106277181D01*
X120997161Y-106341648D01*
X120906593Y-106488481D01*
X120906592Y-106488484D01*
X120852326Y-106652247D01*
X120852326Y-106652248D01*
X120852325Y-106652248D01*
X120842000Y-106753315D01*
X120842000Y-107326669D01*
X120842001Y-107326687D01*
X120852325Y-107427752D01*
X120876266Y-107500000D01*
X120906592Y-107591516D01*
X120997160Y-107738350D01*
X121119150Y-107860340D01*
X121265984Y-107950908D01*
X121429747Y-108005174D01*
X121530823Y-108015500D01*
X122129176Y-108015499D01*
X122129184Y-108015498D01*
X122129187Y-108015498D01*
X122184530Y-108009844D01*
X122230253Y-108005174D01*
X122394016Y-107950908D01*
X122540850Y-107860340D01*
X122662840Y-107738350D01*
X122753408Y-107591516D01*
X122807674Y-107427753D01*
X122818000Y-107326677D01*
X122817999Y-106753324D01*
X122807674Y-106652247D01*
X122753408Y-106488484D01*
X122662840Y-106341650D01*
X122598371Y-106277181D01*
X122564886Y-106215858D01*
X122569870Y-106146166D01*
X122611742Y-106090233D01*
X122677206Y-106065816D01*
X122686052Y-106065500D01*
X122891458Y-106065500D01*
X122985752Y-106046742D01*
X123031621Y-106037619D01*
X123163654Y-105982929D01*
X123214669Y-105948842D01*
X123282481Y-105903532D01*
X124812820Y-104373191D01*
X124874143Y-104339707D01*
X124943834Y-104344691D01*
X124999768Y-104386563D01*
X125024185Y-104452027D01*
X125024501Y-104460873D01*
X125024501Y-107958955D01*
X125042664Y-108050263D01*
X125052382Y-108099120D01*
X125059587Y-108116515D01*
X125107071Y-108231151D01*
X125186468Y-108349979D01*
X125186471Y-108349983D01*
X126464549Y-109628059D01*
X126498034Y-109689382D01*
X126493050Y-109759073D01*
X126489260Y-109768124D01*
X126489096Y-109768474D01*
X126462705Y-109848116D01*
X126434827Y-109932247D01*
X126434827Y-109932248D01*
X126434826Y-109932248D01*
X126424501Y-110033315D01*
X126424501Y-110606669D01*
X126424502Y-110606687D01*
X126434826Y-110707752D01*
X126468821Y-110810340D01*
X126488289Y-110869091D01*
X126489093Y-110871515D01*
X126489094Y-110871518D01*
X126579662Y-111018352D01*
X126584139Y-111024013D01*
X126581683Y-111025954D01*
X126608454Y-111074981D01*
X126603470Y-111144673D01*
X126574969Y-111189020D01*
X125126474Y-112637514D01*
X125126471Y-112637517D01*
X125052292Y-112748536D01*
X125052291Y-112748537D01*
X125047075Y-112756342D01*
X125047072Y-112756348D01*
X124992383Y-112888379D01*
X124992381Y-112888385D01*
X124964502Y-113028542D01*
X124964502Y-117972947D01*
X124944817Y-118039986D01*
X124928184Y-118060628D01*
X124807161Y-118181651D01*
X124716595Y-118328481D01*
X124716593Y-118328486D01*
X124710580Y-118346632D01*
X124662328Y-118492247D01*
X124662328Y-118492248D01*
X124662327Y-118492248D01*
X124652002Y-118593315D01*
X124652002Y-119166669D01*
X124652003Y-119166687D01*
X124662327Y-119267752D01*
X124662328Y-119267755D01*
X124685107Y-119336496D01*
X124687509Y-119406324D01*
X124651777Y-119466366D01*
X124589257Y-119497559D01*
X124567401Y-119499500D01*
X123462600Y-119499500D01*
X123395561Y-119479815D01*
X123349806Y-119427011D01*
X123339862Y-119357853D01*
X123344891Y-119336505D01*
X123367674Y-119267753D01*
X123378000Y-119166677D01*
X123377999Y-118593324D01*
X123376455Y-118578213D01*
X123367674Y-118492247D01*
X123357154Y-118460500D01*
X123313408Y-118328484D01*
X123222840Y-118181650D01*
X123100850Y-118059660D01*
X122954016Y-117969092D01*
X122790253Y-117914826D01*
X122790251Y-117914825D01*
X122689178Y-117904500D01*
X122090830Y-117904500D01*
X122090812Y-117904501D01*
X121989747Y-117914825D01*
X121825984Y-117969092D01*
X121825981Y-117969093D01*
X121679148Y-118059661D01*
X121557161Y-118181648D01*
X121466593Y-118328481D01*
X121466591Y-118328486D01*
X121460578Y-118346632D01*
X121412326Y-118492247D01*
X121412326Y-118492248D01*
X121412325Y-118492248D01*
X121402000Y-118593315D01*
X121402000Y-119166669D01*
X121402001Y-119166687D01*
X121412325Y-119267752D01*
X121412326Y-119267755D01*
X121435105Y-119336496D01*
X121437507Y-119406324D01*
X121401775Y-119466366D01*
X121339255Y-119497559D01*
X121317399Y-119499500D01*
X119617703Y-119499500D01*
X119550664Y-119479815D01*
X119504909Y-119427011D01*
X119494965Y-119357853D01*
X119496086Y-119351309D01*
X119510499Y-119278846D01*
X119510500Y-119278844D01*
X119510500Y-119121155D01*
X119510499Y-119121153D01*
X119479738Y-118966510D01*
X119479737Y-118966503D01*
X119479735Y-118966498D01*
X119419397Y-118820827D01*
X119419390Y-118820814D01*
X119331789Y-118689711D01*
X119331786Y-118689707D01*
X119220292Y-118578213D01*
X119220288Y-118578210D01*
X119089185Y-118490609D01*
X119089172Y-118490602D01*
X118943501Y-118430264D01*
X118943489Y-118430261D01*
X118788845Y-118399500D01*
X118788842Y-118399500D01*
X118631158Y-118399500D01*
X118631155Y-118399500D01*
X118476510Y-118430261D01*
X118476498Y-118430264D01*
X118330827Y-118490602D01*
X118330814Y-118490609D01*
X118199125Y-118578602D01*
X118132447Y-118599480D01*
X118130234Y-118599500D01*
X112600097Y-118599500D01*
X112533058Y-118579815D01*
X112512416Y-118563181D01*
X108824574Y-114875339D01*
X108791089Y-114814016D01*
X108790638Y-114811849D01*
X108759738Y-114656510D01*
X108759737Y-114656503D01*
X108733568Y-114593324D01*
X108699397Y-114510827D01*
X108699390Y-114510814D01*
X108611789Y-114379711D01*
X108611786Y-114379707D01*
X108500292Y-114268213D01*
X108500288Y-114268210D01*
X108369185Y-114180609D01*
X108369172Y-114180602D01*
X108223501Y-114120264D01*
X108223489Y-114120261D01*
X108068845Y-114089500D01*
X108068842Y-114089500D01*
X107911158Y-114089500D01*
X107911155Y-114089500D01*
X107756510Y-114120261D01*
X107756498Y-114120264D01*
X107610827Y-114180602D01*
X107610814Y-114180609D01*
X107479711Y-114268210D01*
X107479707Y-114268213D01*
X107368213Y-114379707D01*
X107368210Y-114379711D01*
X107280609Y-114510814D01*
X107280602Y-114510827D01*
X107220264Y-114656498D01*
X107220261Y-114656510D01*
X107189500Y-114811153D01*
X107189500Y-114968846D01*
X107220261Y-115123489D01*
X107220264Y-115123501D01*
X107280602Y-115269172D01*
X107280609Y-115269185D01*
X107368210Y-115400288D01*
X107368213Y-115400292D01*
X107479707Y-115511786D01*
X107479711Y-115511789D01*
X107610814Y-115599390D01*
X107610827Y-115599397D01*
X107756107Y-115659573D01*
X107756503Y-115659737D01*
X107821147Y-115672595D01*
X107911849Y-115690638D01*
X107973760Y-115723023D01*
X107975339Y-115724574D01*
X111538584Y-119287819D01*
X111572069Y-119349142D01*
X111567085Y-119418834D01*
X111525213Y-119474767D01*
X111459749Y-119499184D01*
X111450903Y-119499500D01*
X102079108Y-119499500D01*
X101951812Y-119533608D01*
X101837686Y-119599500D01*
X101837683Y-119599502D01*
X101744502Y-119692683D01*
X101744500Y-119692686D01*
X101678608Y-119806812D01*
X101651471Y-119908093D01*
X101615106Y-119967754D01*
X101552259Y-119998283D01*
X101531696Y-120000000D01*
X100624500Y-120000000D01*
X100557461Y-119980315D01*
X100511706Y-119927511D01*
X100500500Y-119876000D01*
X100500500Y-113643713D01*
X101669500Y-113643713D01*
X101669500Y-113856286D01*
X101701711Y-114059662D01*
X101702754Y-114066243D01*
X101768378Y-114268213D01*
X101768444Y-114268414D01*
X101864951Y-114457820D01*
X101989890Y-114629786D01*
X102128705Y-114768601D01*
X102162190Y-114829924D01*
X102157206Y-114899616D01*
X102115334Y-114955549D01*
X102106121Y-114961821D01*
X101951342Y-115057289D01*
X101827289Y-115181342D01*
X101735187Y-115330663D01*
X101735185Y-115330668D01*
X101712115Y-115400289D01*
X101680001Y-115497203D01*
X101680001Y-115497204D01*
X101680000Y-115497204D01*
X101669500Y-115599983D01*
X101669500Y-116900001D01*
X101669501Y-116900018D01*
X101680000Y-117002796D01*
X101680001Y-117002799D01*
X101735185Y-117169331D01*
X101735187Y-117169336D01*
X101742087Y-117180522D01*
X101827288Y-117318656D01*
X101951344Y-117442712D01*
X102100666Y-117534814D01*
X102267203Y-117589999D01*
X102369991Y-117600500D01*
X103920008Y-117600499D01*
X104022797Y-117589999D01*
X104189334Y-117534814D01*
X104338656Y-117442712D01*
X104462712Y-117318656D01*
X104554814Y-117169334D01*
X104609999Y-117002797D01*
X104620500Y-116900009D01*
X104620499Y-115599992D01*
X104616506Y-115560907D01*
X104609999Y-115497203D01*
X104609998Y-115497200D01*
X104592866Y-115445499D01*
X104554814Y-115330666D01*
X104462712Y-115181344D01*
X104338656Y-115057288D01*
X104189334Y-114965186D01*
X104189333Y-114965185D01*
X104183878Y-114961821D01*
X104137154Y-114909873D01*
X104125931Y-114840910D01*
X104153775Y-114776828D01*
X104161272Y-114768623D01*
X104300104Y-114629792D01*
X104327920Y-114591507D01*
X104425048Y-114457820D01*
X104425047Y-114457820D01*
X104425051Y-114457816D01*
X104521557Y-114268412D01*
X104587246Y-114066243D01*
X104620500Y-113856287D01*
X104620500Y-113643713D01*
X104587246Y-113433757D01*
X104521557Y-113231588D01*
X104425051Y-113042184D01*
X104425049Y-113042181D01*
X104425048Y-113042179D01*
X104300109Y-112870213D01*
X104149786Y-112719890D01*
X103977820Y-112594951D01*
X103788414Y-112498444D01*
X103788413Y-112498443D01*
X103788412Y-112498443D01*
X103586243Y-112432754D01*
X103586241Y-112432753D01*
X103586240Y-112432753D01*
X103424957Y-112407208D01*
X103376287Y-112399500D01*
X102913713Y-112399500D01*
X102865042Y-112407208D01*
X102703760Y-112432753D01*
X102501585Y-112498444D01*
X102312179Y-112594951D01*
X102140213Y-112719890D01*
X101989890Y-112870213D01*
X101864951Y-113042179D01*
X101768444Y-113231585D01*
X101702753Y-113433760D01*
X101669500Y-113643713D01*
X100500500Y-113643713D01*
X100500500Y-101512135D01*
X116779501Y-101512135D01*
X116779501Y-103307870D01*
X116779502Y-103307876D01*
X116785909Y-103367483D01*
X116836203Y-103502328D01*
X116836207Y-103502335D01*
X116922453Y-103617544D01*
X116922456Y-103617547D01*
X117037665Y-103703793D01*
X117037672Y-103703797D01*
X117172518Y-103754091D01*
X117172517Y-103754091D01*
X117179445Y-103754835D01*
X117232128Y-103760500D01*
X119027873Y-103760499D01*
X119087484Y-103754091D01*
X119222332Y-103703796D01*
X119337547Y-103617546D01*
X119423797Y-103502331D01*
X119474092Y-103367483D01*
X119480501Y-103307873D01*
X119480500Y-101512128D01*
X119474092Y-101452517D01*
X119423797Y-101317669D01*
X119423796Y-101317668D01*
X119423794Y-101317664D01*
X119337548Y-101202455D01*
X119337545Y-101202452D01*
X119222336Y-101116206D01*
X119222329Y-101116202D01*
X119087483Y-101065908D01*
X119087484Y-101065908D01*
X119027884Y-101059501D01*
X119027882Y-101059500D01*
X119027874Y-101059500D01*
X119027865Y-101059500D01*
X117232130Y-101059500D01*
X117232124Y-101059501D01*
X117172517Y-101065908D01*
X117037672Y-101116202D01*
X117037665Y-101116206D01*
X116922456Y-101202452D01*
X116922453Y-101202455D01*
X116836207Y-101317664D01*
X116836203Y-101317671D01*
X116785909Y-101452517D01*
X116779502Y-101512116D01*
X116779502Y-101512123D01*
X116779501Y-101512135D01*
X100500500Y-101512135D01*
X100500500Y-100624500D01*
X100520185Y-100557461D01*
X100572989Y-100511706D01*
X100624500Y-100500500D01*
X141665500Y-100500500D01*
X141732539Y-100520185D01*
G37*
%TD.AperFunction*%
%TD*%
M02*
