%TF.GenerationSoftware,KiCad,Pcbnew,9.0.1*%
%TF.CreationDate,2026-02-28T19:10:03+07:00*%
%TF.ProjectId,BMP_Bluepill,424d505f-426c-4756-9570-696c6c2e6b69,rev?*%
%TF.SameCoordinates,Original*%
%TF.FileFunction,Copper,L1,Top*%
%TF.FilePolarity,Positive*%
%FSLAX46Y46*%
G04 Gerber Fmt 4.6, Leading zero omitted, Abs format (unit mm)*
G04 Created by KiCad (PCBNEW 9.0.1) date 2026-02-28 19:10:03*
%MOMM*%
%LPD*%
G01*
G04 APERTURE LIST*
G04 Aperture macros list*
%AMRoundRect*
0 Rectangle with rounded corners*
0 $1 Rounding radius*
0 $2 $3 $4 $5 $6 $7 $8 $9 X,Y pos of 4 corners*
0 Add a 4 corners polygon primitive as box body*
4,1,4,$2,$3,$4,$5,$6,$7,$8,$9,$2,$3,0*
0 Add four circle primitives for the rounded corners*
1,1,$1+$1,$2,$3*
1,1,$1+$1,$4,$5*
1,1,$1+$1,$6,$7*
1,1,$1+$1,$8,$9*
0 Add four rect primitives between the rounded corners*
20,1,$1+$1,$2,$3,$4,$5,0*
20,1,$1+$1,$4,$5,$6,$7,0*
20,1,$1+$1,$6,$7,$8,$9,0*
20,1,$1+$1,$8,$9,$2,$3,0*%
G04 Aperture macros list end*
%TA.AperFunction,SMDPad,CuDef*%
%ADD10R,2.489200X0.889000*%
%TD*%
%TA.AperFunction,SMDPad,CuDef*%
%ADD11R,2.489200X3.200400*%
%TD*%
%TA.AperFunction,SMDPad,CuDef*%
%ADD12RoundRect,0.237500X-0.250000X-0.237500X0.250000X-0.237500X0.250000X0.237500X-0.250000X0.237500X0*%
%TD*%
%TA.AperFunction,SMDPad,CuDef*%
%ADD13RoundRect,0.237500X-0.287500X-0.237500X0.287500X-0.237500X0.287500X0.237500X-0.287500X0.237500X0*%
%TD*%
%TA.AperFunction,SMDPad,CuDef*%
%ADD14RoundRect,0.237500X0.300000X0.237500X-0.300000X0.237500X-0.300000X-0.237500X0.300000X-0.237500X0*%
%TD*%
%TA.AperFunction,ComponentPad*%
%ADD15RoundRect,0.250000X0.725000X-0.600000X0.725000X0.600000X-0.725000X0.600000X-0.725000X-0.600000X0*%
%TD*%
%TA.AperFunction,ComponentPad*%
%ADD16O,1.950000X1.700000*%
%TD*%
%TA.AperFunction,SMDPad,CuDef*%
%ADD17R,1.461999X0.279400*%
%TD*%
%TA.AperFunction,SMDPad,CuDef*%
%ADD18R,0.279400X1.461999*%
%TD*%
%TA.AperFunction,SMDPad,CuDef*%
%ADD19RoundRect,0.150000X0.425000X-0.150000X0.425000X0.150000X-0.425000X0.150000X-0.425000X-0.150000X0*%
%TD*%
%TA.AperFunction,SMDPad,CuDef*%
%ADD20RoundRect,0.075000X0.500000X-0.075000X0.500000X0.075000X-0.500000X0.075000X-0.500000X-0.075000X0*%
%TD*%
%TA.AperFunction,HeatsinkPad*%
%ADD21O,2.100000X1.000000*%
%TD*%
%TA.AperFunction,HeatsinkPad*%
%ADD22O,1.800000X1.000000*%
%TD*%
%TA.AperFunction,SMDPad,CuDef*%
%ADD23RoundRect,0.237500X0.250000X0.237500X-0.250000X0.237500X-0.250000X-0.237500X0.250000X-0.237500X0*%
%TD*%
%TA.AperFunction,ComponentPad*%
%ADD24R,1.700000X1.700000*%
%TD*%
%TA.AperFunction,ComponentPad*%
%ADD25C,1.700000*%
%TD*%
%TA.AperFunction,SMDPad,CuDef*%
%ADD26RoundRect,0.237500X0.287500X0.237500X-0.287500X0.237500X-0.287500X-0.237500X0.287500X-0.237500X0*%
%TD*%
%TA.AperFunction,ComponentPad*%
%ADD27C,1.500000*%
%TD*%
%TA.AperFunction,SMDPad,CuDef*%
%ADD28RoundRect,0.237500X0.237500X-0.300000X0.237500X0.300000X-0.237500X0.300000X-0.237500X-0.300000X0*%
%TD*%
%TA.AperFunction,ViaPad*%
%ADD29C,0.600000*%
%TD*%
%TA.AperFunction,Conductor*%
%ADD30C,0.200000*%
%TD*%
%TA.AperFunction,Conductor*%
%ADD31C,0.280000*%
%TD*%
%TA.AperFunction,Conductor*%
%ADD32C,0.550000*%
%TD*%
%TA.AperFunction,Conductor*%
%ADD33C,0.450000*%
%TD*%
G04 APERTURE END LIST*
D10*
%TO.P,U2,1,GROUND/ADJUST*%
%TO.N,GND*%
X91194100Y-94370000D03*
%TO.P,U2,2,VOUT*%
%TO.N,+3V3*%
X91194099Y-96660000D03*
%TO.P,U2,3,VIN*%
%TO.N,+5V*%
X91194100Y-98950000D03*
D11*
%TO.P,U2,4,EPAD*%
%TO.N,unconnected-(U2-EPAD-Pad4)*%
X96705901Y-96660000D03*
%TD*%
D12*
%TO.P,R4,1*%
%TO.N,LED_IDLE*%
X73567499Y-101645000D03*
%TO.P,R4,2*%
%TO.N,Net-(D2-A)*%
X75392499Y-101645000D03*
%TD*%
D13*
%TO.P,D2,1,K*%
%TO.N,GND*%
X73650000Y-100030000D03*
%TO.P,D2,2,A*%
%TO.N,Net-(D2-A)*%
X75399998Y-100030000D03*
%TD*%
D12*
%TO.P,R2,1*%
%TO.N,+3V3*%
X97055000Y-99490000D03*
%TO.P,R2,2*%
%TO.N,Net-(D1-A)*%
X98880000Y-99490000D03*
%TD*%
D14*
%TO.P,C15,1*%
%TO.N,+5V*%
X90710000Y-100690000D03*
%TO.P,C15,2*%
%TO.N,GND*%
X88984998Y-100690000D03*
%TD*%
D15*
%TO.P,J1,1,Pin_1*%
%TO.N,BMP_RX*%
X61675000Y-108890000D03*
D16*
%TO.P,J1,2,Pin_2*%
%TO.N,BMP_TX*%
X61675000Y-106390000D03*
%TO.P,J1,3,Pin_3*%
%TO.N,GND*%
X61675000Y-103890000D03*
%TO.P,J1,4,Pin_4*%
%TO.N,BMP_CLK*%
X61675000Y-101390000D03*
%TO.P,J1,5,Pin_5*%
%TO.N,BMP_IO*%
X61675000Y-98890000D03*
%TO.P,J1,6,Pin_6*%
%TO.N,+3V3*%
X61675000Y-96390000D03*
%TD*%
D17*
%TO.P,U1,1,VBAT*%
%TO.N,+3V3*%
X75963601Y-102965000D03*
%TO.P,U1,2,PC13*%
%TO.N,LED_IDLE*%
X75963601Y-103464999D03*
%TO.P,U1,3,PC14-OSC32_IN*%
%TO.N,Net-(U1A-PC14-OSC32_IN)*%
X75963601Y-103965001D03*
%TO.P,U1,4,PC15-OSC32_OUT*%
%TO.N,unconnected-(U1A-PC15-OSC32_OUT-Pad4)*%
X75963601Y-104465000D03*
%TO.P,U1,5,OSC_IN*%
%TO.N,Net-(U1A-OSC_IN)*%
X75963601Y-104964999D03*
%TO.P,U1,6,OSC_OUT*%
%TO.N,Net-(U1A-OSC_OUT)*%
X75963601Y-105465000D03*
%TO.P,U1,7,NRST*%
%TO.N,RESET*%
X75963601Y-105965000D03*
%TO.P,U1,8,VSSA*%
%TO.N,GND*%
X75963601Y-106465001D03*
%TO.P,U1,9,VDDA*%
%TO.N,+3V3*%
X75963601Y-106965000D03*
%TO.P,U1,10,PA0-WKUP*%
%TO.N,unconnected-(U1A-PA0-WKUP-Pad10)*%
X75963601Y-107464999D03*
%TO.P,U1,11,PA1*%
%TO.N,unconnected-(U1A-PA1-Pad11)*%
X75963601Y-107965001D03*
%TO.P,U1,12,PA2*%
%TO.N,BMP_TX*%
X75963601Y-108465000D03*
D18*
%TO.P,U1,13,PA3*%
%TO.N,BMP_RX*%
X77430001Y-109931400D03*
%TO.P,U1,14,PA4*%
%TO.N,unconnected-(U1A-PA4-Pad14)*%
X77930000Y-109931400D03*
%TO.P,U1,15,PA5*%
%TO.N,BMP_CLK*%
X78430002Y-109931400D03*
%TO.P,U1,16,PA6*%
%TO.N,unconnected-(U1A-PA6-Pad16)*%
X78930001Y-109931400D03*
%TO.P,U1,17,PA7*%
%TO.N,unconnected-(U1A-PA7-Pad17)*%
X79430000Y-109931400D03*
%TO.P,U1,18,PB0*%
%TO.N,unconnected-(U1A-PB0-Pad18)*%
X79930001Y-109931400D03*
%TO.P,U1,19,PB1*%
%TO.N,unconnected-(U1A-PB1-Pad19)*%
X80430001Y-109931400D03*
%TO.P,U1,20,PB2*%
%TO.N,BOOT1*%
X80930002Y-109931400D03*
%TO.P,U1,21,PB10*%
%TO.N,unconnected-(U1A-PB10-Pad21)*%
X81430001Y-109931400D03*
%TO.P,U1,22,PB11*%
%TO.N,unconnected-(U1A-PB11-Pad22)*%
X81930000Y-109931400D03*
%TO.P,U1,23,VSS_1*%
%TO.N,GND*%
X82430002Y-109931400D03*
%TO.P,U1,24,VDD_1*%
%TO.N,+3V3*%
X82930001Y-109931400D03*
D17*
%TO.P,U1,25,PB12*%
%TO.N,unconnected-(U1A-PB12-Pad25)*%
X84396401Y-108465000D03*
%TO.P,U1,26,PB13*%
%TO.N,unconnected-(U1A-PB13-Pad26)*%
X84396401Y-107965001D03*
%TO.P,U1,27,PB14*%
%TO.N,BMP_IO*%
X84396401Y-107464999D03*
%TO.P,U1,28,PB15*%
%TO.N,unconnected-(U1A-PB15-Pad28)*%
X84396401Y-106965000D03*
%TO.P,U1,29,PA8*%
%TO.N,unconnected-(U1A-PA8-Pad29)*%
X84396401Y-106465001D03*
%TO.P,U1,30,PA9*%
%TO.N,LED_UART*%
X84396401Y-105965000D03*
%TO.P,U1,31,PA10*%
%TO.N,unconnected-(U1A-PA10-Pad31)*%
X84396401Y-105465000D03*
%TO.P,U1,32,PA11*%
%TO.N,USB-*%
X84396401Y-104964999D03*
%TO.P,U1,33,PA12*%
%TO.N,USB+*%
X84396401Y-104465000D03*
%TO.P,U1,34,PA13*%
%TO.N,SWD_IO*%
X84396401Y-103965001D03*
%TO.P,U1,35,VSS_2*%
%TO.N,GND*%
X84396401Y-103464999D03*
%TO.P,U1,36,VDD_2*%
%TO.N,+3V3*%
X84396401Y-102965000D03*
D18*
%TO.P,U1,37,PA14*%
%TO.N,SWD_CLK*%
X82930001Y-101498600D03*
%TO.P,U1,38,PA15*%
%TO.N,unconnected-(U1A-PA15-Pad38)*%
X82430002Y-101498600D03*
%TO.P,U1,39,PB3*%
%TO.N,unconnected-(U1A-PB3-Pad39)*%
X81930000Y-101498600D03*
%TO.P,U1,40,PB4*%
%TO.N,unconnected-(U1A-PB4-Pad40)*%
X81430001Y-101498600D03*
%TO.P,U1,41,PB5*%
%TO.N,unconnected-(U1A-PB5-Pad41)*%
X80930002Y-101498600D03*
%TO.P,U1,42,PB6*%
%TO.N,unconnected-(U1A-PB6-Pad42)*%
X80430001Y-101498600D03*
%TO.P,U1,43,PB7*%
%TO.N,unconnected-(U1A-PB7-Pad43)*%
X79930001Y-101498600D03*
%TO.P,U1,44,BOOT0*%
%TO.N,Net-(U1A-BOOT0)*%
X79430000Y-101498600D03*
%TO.P,U1,45,PB8*%
%TO.N,unconnected-(U1A-PB8-Pad45)*%
X78930001Y-101498600D03*
%TO.P,U1,46,PB9*%
%TO.N,unconnected-(U1A-PB9-Pad46)*%
X78430002Y-101498600D03*
%TO.P,U1,47,VSS_3*%
%TO.N,GND*%
X77930000Y-101498600D03*
%TO.P,U1,48,VDD_3*%
%TO.N,+3V3*%
X77430001Y-101498600D03*
%TD*%
D19*
%TO.P,J2,A1,GND*%
%TO.N,GND*%
X92870000Y-108980000D03*
%TO.P,J2,A4,VBUS*%
%TO.N,+5V*%
X92870000Y-108180000D03*
D20*
%TO.P,J2,A5,CC1*%
%TO.N,Net-(J2-CC1)*%
X92870001Y-107030000D03*
%TO.P,J2,A6,D+*%
%TO.N,Net-(J2-D+-PadA6)*%
X92870000Y-106030000D03*
%TO.P,J2,A7,D-*%
%TO.N,Net-(J2-D--PadA7)*%
X92870000Y-105530000D03*
%TO.P,J2,A8,SBU1*%
%TO.N,unconnected-(J2-SBU1-PadA8)*%
X92870001Y-104530000D03*
D19*
%TO.P,J2,A9,VBUS*%
%TO.N,+5V*%
X92870000Y-103380000D03*
%TO.P,J2,A12,GND*%
%TO.N,GND*%
X92870000Y-102580000D03*
%TO.P,J2,B1,GND*%
X92870000Y-102580000D03*
%TO.P,J2,B4,VBUS*%
%TO.N,+5V*%
X92870000Y-103380000D03*
D20*
%TO.P,J2,B5,CC2*%
%TO.N,Net-(J2-CC2)*%
X92870000Y-104030000D03*
%TO.P,J2,B6,D+*%
%TO.N,Net-(J2-D+-PadA6)*%
X92870000Y-105030000D03*
%TO.P,J2,B7,D-*%
%TO.N,Net-(J2-D--PadA7)*%
X92870000Y-106530000D03*
%TO.P,J2,B8,SBU2*%
%TO.N,unconnected-(J2-SBU2-PadB8)*%
X92870000Y-107530000D03*
D19*
%TO.P,J2,B9,VBUS*%
%TO.N,+5V*%
X92870000Y-108180000D03*
%TO.P,J2,B12,GND*%
%TO.N,GND*%
X92870000Y-108980000D03*
D21*
%TO.P,J2,S1,SHIELD*%
%TO.N,unconnected-(J2-SHIELD-PadS1)*%
X93445000Y-110100000D03*
D22*
%TO.N,unconnected-(J2-SHIELD-PadS1)_1*%
X97625000Y-110100000D03*
D21*
%TO.N,unconnected-(J2-SHIELD-PadS1)_2*%
X93445000Y-101460000D03*
D22*
%TO.N,unconnected-(J2-SHIELD-PadS1)_3*%
X97625000Y-101460000D03*
%TD*%
D23*
%TO.P,R6,1*%
%TO.N,LED_UART*%
X86777500Y-101660000D03*
%TO.P,R6,2*%
%TO.N,Net-(D3-A)*%
X84952500Y-101660000D03*
%TD*%
D24*
%TO.P,J3,1,Pin_1*%
%TO.N,SWD_CLK*%
X76660001Y-95050000D03*
D25*
%TO.P,J3,2,Pin_2*%
%TO.N,GND*%
X79200001Y-95050000D03*
%TO.P,J3,3,Pin_3*%
%TO.N,SWD_IO*%
X81740000Y-95050000D03*
%TO.P,J3,4,Pin_4*%
%TO.N,+3V3*%
X84280001Y-95050000D03*
%TD*%
D26*
%TO.P,D3,1,K*%
%TO.N,GND*%
X86694999Y-100030000D03*
%TO.P,D3,2,A*%
%TO.N,Net-(D3-A)*%
X84945001Y-100030000D03*
%TD*%
D27*
%TO.P,Y1,1,1*%
%TO.N,Net-(U1A-OSC_IN)*%
X68530000Y-96880000D03*
%TO.P,Y1,2,2*%
%TO.N,Net-(U1A-OSC_OUT)*%
X68530000Y-101760000D03*
%TD*%
D13*
%TO.P,D1,1,K*%
%TO.N,GND*%
X97115001Y-93820000D03*
%TO.P,D1,2,A*%
%TO.N,Net-(D1-A)*%
X98864999Y-93820000D03*
%TD*%
D28*
%TO.P,C16,1*%
%TO.N,+3V3*%
X88810000Y-96642501D03*
%TO.P,C16,2*%
%TO.N,GND*%
X88810000Y-94917499D03*
%TD*%
D27*
%TO.P,Y1,1,1*%
%TO.N,Net-(U1A-OSC_IN)*%
X68530000Y-140880000D03*
%TO.P,Y1,2,2*%
%TO.N,Net-(U1A-OSC_OUT)*%
X68530000Y-145760000D03*
%TD*%
D23*
%TO.P,R6,1*%
%TO.N,LED_UART*%
X86777500Y-145660000D03*
%TO.P,R6,2*%
%TO.N,Net-(D3-A)*%
X84952500Y-145660000D03*
%TD*%
D19*
%TO.P,J2,A1,GND*%
%TO.N,GND*%
X92870000Y-152980000D03*
%TO.P,J2,A4,VBUS*%
%TO.N,+5V*%
X92870000Y-152180000D03*
D20*
%TO.P,J2,A5,CC1*%
%TO.N,Net-(J2-CC1)*%
X92870001Y-151030000D03*
%TO.P,J2,A6,D+*%
%TO.N,Net-(J2-D+-PadA6)*%
X92870000Y-150030000D03*
%TO.P,J2,A7,D-*%
%TO.N,Net-(J2-D--PadA7)*%
X92870000Y-149530000D03*
%TO.P,J2,A8,SBU1*%
%TO.N,unconnected-(J2-SBU1-PadA8)*%
X92870001Y-148530000D03*
D19*
%TO.P,J2,A9,VBUS*%
%TO.N,+5V*%
X92870000Y-147380000D03*
%TO.P,J2,A12,GND*%
%TO.N,GND*%
X92870000Y-146580000D03*
%TO.P,J2,B1,GND*%
X92870000Y-146580000D03*
%TO.P,J2,B4,VBUS*%
%TO.N,+5V*%
X92870000Y-147380000D03*
D20*
%TO.P,J2,B5,CC2*%
%TO.N,Net-(J2-CC2)*%
X92870000Y-148030000D03*
%TO.P,J2,B6,D+*%
%TO.N,Net-(J2-D+-PadA6)*%
X92870000Y-149030000D03*
%TO.P,J2,B7,D-*%
%TO.N,Net-(J2-D--PadA7)*%
X92870000Y-150530000D03*
%TO.P,J2,B8,SBU2*%
%TO.N,unconnected-(J2-SBU2-PadB8)*%
X92870000Y-151530000D03*
D19*
%TO.P,J2,B9,VBUS*%
%TO.N,+5V*%
X92870000Y-152180000D03*
%TO.P,J2,B12,GND*%
%TO.N,GND*%
X92870000Y-152980000D03*
D21*
%TO.P,J2,S1,SHIELD*%
%TO.N,unconnected-(J2-SHIELD-PadS1)*%
X93445000Y-154100000D03*
D22*
%TO.N,unconnected-(J2-SHIELD-PadS1)_1*%
X97625000Y-154100000D03*
D21*
%TO.N,unconnected-(J2-SHIELD-PadS1)_2*%
X93445000Y-145460000D03*
D22*
%TO.N,unconnected-(J2-SHIELD-PadS1)_3*%
X97625000Y-145460000D03*
%TD*%
D14*
%TO.P,C15,1*%
%TO.N,+5V*%
X90710000Y-144690000D03*
%TO.P,C15,2*%
%TO.N,GND*%
X88984998Y-144690000D03*
%TD*%
D26*
%TO.P,D3,1,K*%
%TO.N,GND*%
X86694999Y-144030000D03*
%TO.P,D3,2,A*%
%TO.N,Net-(D3-A)*%
X84945001Y-144030000D03*
%TD*%
D12*
%TO.P,R2,1*%
%TO.N,+3V3*%
X97055000Y-143490000D03*
%TO.P,R2,2*%
%TO.N,Net-(D1-A)*%
X98880000Y-143490000D03*
%TD*%
D28*
%TO.P,C16,1*%
%TO.N,+3V3*%
X88810000Y-140642501D03*
%TO.P,C16,2*%
%TO.N,GND*%
X88810000Y-138917499D03*
%TD*%
D27*
%TO.P,Y1,1,1*%
%TO.N,Net-(U1A-OSC_IN)*%
X68530000Y-118880000D03*
%TO.P,Y1,2,2*%
%TO.N,Net-(U1A-OSC_OUT)*%
X68530000Y-123760000D03*
%TD*%
D13*
%TO.P,D1,1,K*%
%TO.N,GND*%
X97115001Y-137820000D03*
%TO.P,D1,2,A*%
%TO.N,Net-(D1-A)*%
X98864999Y-137820000D03*
%TD*%
D15*
%TO.P,J1,1,Pin_1*%
%TO.N,BMP_RX*%
X61675000Y-130890000D03*
D16*
%TO.P,J1,2,Pin_2*%
%TO.N,BMP_TX*%
X61675000Y-128390000D03*
%TO.P,J1,3,Pin_3*%
%TO.N,GND*%
X61675000Y-125890000D03*
%TO.P,J1,4,Pin_4*%
%TO.N,BMP_CLK*%
X61675000Y-123390000D03*
%TO.P,J1,5,Pin_5*%
%TO.N,BMP_IO*%
X61675000Y-120890000D03*
%TO.P,J1,6,Pin_6*%
%TO.N,+3V3*%
X61675000Y-118390000D03*
%TD*%
D14*
%TO.P,C15,1*%
%TO.N,+5V*%
X90710000Y-122690000D03*
%TO.P,C15,2*%
%TO.N,GND*%
X88984998Y-122690000D03*
%TD*%
D19*
%TO.P,J2,A1,GND*%
%TO.N,GND*%
X92870000Y-130980000D03*
%TO.P,J2,A4,VBUS*%
%TO.N,+5V*%
X92870000Y-130180000D03*
D20*
%TO.P,J2,A5,CC1*%
%TO.N,Net-(J2-CC1)*%
X92870001Y-129030000D03*
%TO.P,J2,A6,D+*%
%TO.N,Net-(J2-D+-PadA6)*%
X92870000Y-128030000D03*
%TO.P,J2,A7,D-*%
%TO.N,Net-(J2-D--PadA7)*%
X92870000Y-127530000D03*
%TO.P,J2,A8,SBU1*%
%TO.N,unconnected-(J2-SBU1-PadA8)*%
X92870001Y-126530000D03*
D19*
%TO.P,J2,A9,VBUS*%
%TO.N,+5V*%
X92870000Y-125380000D03*
%TO.P,J2,A12,GND*%
%TO.N,GND*%
X92870000Y-124580000D03*
%TO.P,J2,B1,GND*%
X92870000Y-124580000D03*
%TO.P,J2,B4,VBUS*%
%TO.N,+5V*%
X92870000Y-125380000D03*
D20*
%TO.P,J2,B5,CC2*%
%TO.N,Net-(J2-CC2)*%
X92870000Y-126030000D03*
%TO.P,J2,B6,D+*%
%TO.N,Net-(J2-D+-PadA6)*%
X92870000Y-127030000D03*
%TO.P,J2,B7,D-*%
%TO.N,Net-(J2-D--PadA7)*%
X92870000Y-128530000D03*
%TO.P,J2,B8,SBU2*%
%TO.N,unconnected-(J2-SBU2-PadB8)*%
X92870000Y-129530000D03*
D19*
%TO.P,J2,B9,VBUS*%
%TO.N,+5V*%
X92870000Y-130180000D03*
%TO.P,J2,B12,GND*%
%TO.N,GND*%
X92870000Y-130980000D03*
D21*
%TO.P,J2,S1,SHIELD*%
%TO.N,unconnected-(J2-SHIELD-PadS1)*%
X93445000Y-132100000D03*
D22*
%TO.N,unconnected-(J2-SHIELD-PadS1)_1*%
X97625000Y-132100000D03*
D21*
%TO.N,unconnected-(J2-SHIELD-PadS1)_2*%
X93445000Y-123460000D03*
D22*
%TO.N,unconnected-(J2-SHIELD-PadS1)_3*%
X97625000Y-123460000D03*
%TD*%
D12*
%TO.P,R4,1*%
%TO.N,LED_IDLE*%
X73567499Y-123645000D03*
%TO.P,R4,2*%
%TO.N,Net-(D2-A)*%
X75392499Y-123645000D03*
%TD*%
D10*
%TO.P,U2,1,GROUND/ADJUST*%
%TO.N,GND*%
X91194100Y-116370000D03*
%TO.P,U2,2,VOUT*%
%TO.N,+3V3*%
X91194099Y-118660000D03*
%TO.P,U2,3,VIN*%
%TO.N,+5V*%
X91194100Y-120950000D03*
D11*
%TO.P,U2,4,EPAD*%
%TO.N,unconnected-(U2-EPAD-Pad4)*%
X96705901Y-118660000D03*
%TD*%
D26*
%TO.P,D3,1,K*%
%TO.N,GND*%
X86694999Y-122030000D03*
%TO.P,D3,2,A*%
%TO.N,Net-(D3-A)*%
X84945001Y-122030000D03*
%TD*%
D12*
%TO.P,R2,1*%
%TO.N,+3V3*%
X97055000Y-121490000D03*
%TO.P,R2,2*%
%TO.N,Net-(D1-A)*%
X98880000Y-121490000D03*
%TD*%
D13*
%TO.P,D2,1,K*%
%TO.N,GND*%
X73650000Y-122030000D03*
%TO.P,D2,2,A*%
%TO.N,Net-(D2-A)*%
X75399998Y-122030000D03*
%TD*%
%TO.P,D1,1,K*%
%TO.N,GND*%
X97115001Y-115820000D03*
%TO.P,D1,2,A*%
%TO.N,Net-(D1-A)*%
X98864999Y-115820000D03*
%TD*%
%TO.P,D2,1,K*%
%TO.N,GND*%
X73650000Y-144030000D03*
%TO.P,D2,2,A*%
%TO.N,Net-(D2-A)*%
X75399998Y-144030000D03*
%TD*%
D24*
%TO.P,J3,1,Pin_1*%
%TO.N,SWD_CLK*%
X76660001Y-139050000D03*
D25*
%TO.P,J3,2,Pin_2*%
%TO.N,GND*%
X79200001Y-139050000D03*
%TO.P,J3,3,Pin_3*%
%TO.N,SWD_IO*%
X81740000Y-139050000D03*
%TO.P,J3,4,Pin_4*%
%TO.N,+3V3*%
X84280001Y-139050000D03*
%TD*%
D23*
%TO.P,R6,1*%
%TO.N,LED_UART*%
X86777500Y-123660000D03*
%TO.P,R6,2*%
%TO.N,Net-(D3-A)*%
X84952500Y-123660000D03*
%TD*%
D12*
%TO.P,R4,1*%
%TO.N,LED_IDLE*%
X73567499Y-145645000D03*
%TO.P,R4,2*%
%TO.N,Net-(D2-A)*%
X75392499Y-145645000D03*
%TD*%
D17*
%TO.P,U1,1,VBAT*%
%TO.N,+3V3*%
X75963601Y-146965000D03*
%TO.P,U1,2,PC13*%
%TO.N,LED_IDLE*%
X75963601Y-147464999D03*
%TO.P,U1,3,PC14-OSC32_IN*%
%TO.N,Net-(U1A-PC14-OSC32_IN)*%
X75963601Y-147965001D03*
%TO.P,U1,4,PC15-OSC32_OUT*%
%TO.N,unconnected-(U1A-PC15-OSC32_OUT-Pad4)*%
X75963601Y-148465000D03*
%TO.P,U1,5,OSC_IN*%
%TO.N,Net-(U1A-OSC_IN)*%
X75963601Y-148964999D03*
%TO.P,U1,6,OSC_OUT*%
%TO.N,Net-(U1A-OSC_OUT)*%
X75963601Y-149465000D03*
%TO.P,U1,7,NRST*%
%TO.N,RESET*%
X75963601Y-149965000D03*
%TO.P,U1,8,VSSA*%
%TO.N,GND*%
X75963601Y-150465001D03*
%TO.P,U1,9,VDDA*%
%TO.N,+3V3*%
X75963601Y-150965000D03*
%TO.P,U1,10,PA0-WKUP*%
%TO.N,unconnected-(U1A-PA0-WKUP-Pad10)*%
X75963601Y-151464999D03*
%TO.P,U1,11,PA1*%
%TO.N,unconnected-(U1A-PA1-Pad11)*%
X75963601Y-151965001D03*
%TO.P,U1,12,PA2*%
%TO.N,BMP_TX*%
X75963601Y-152465000D03*
D18*
%TO.P,U1,13,PA3*%
%TO.N,BMP_RX*%
X77430001Y-153931400D03*
%TO.P,U1,14,PA4*%
%TO.N,unconnected-(U1A-PA4-Pad14)*%
X77930000Y-153931400D03*
%TO.P,U1,15,PA5*%
%TO.N,BMP_CLK*%
X78430002Y-153931400D03*
%TO.P,U1,16,PA6*%
%TO.N,unconnected-(U1A-PA6-Pad16)*%
X78930001Y-153931400D03*
%TO.P,U1,17,PA7*%
%TO.N,unconnected-(U1A-PA7-Pad17)*%
X79430000Y-153931400D03*
%TO.P,U1,18,PB0*%
%TO.N,unconnected-(U1A-PB0-Pad18)*%
X79930001Y-153931400D03*
%TO.P,U1,19,PB1*%
%TO.N,unconnected-(U1A-PB1-Pad19)*%
X80430001Y-153931400D03*
%TO.P,U1,20,PB2*%
%TO.N,BOOT1*%
X80930002Y-153931400D03*
%TO.P,U1,21,PB10*%
%TO.N,unconnected-(U1A-PB10-Pad21)*%
X81430001Y-153931400D03*
%TO.P,U1,22,PB11*%
%TO.N,unconnected-(U1A-PB11-Pad22)*%
X81930000Y-153931400D03*
%TO.P,U1,23,VSS_1*%
%TO.N,GND*%
X82430002Y-153931400D03*
%TO.P,U1,24,VDD_1*%
%TO.N,+3V3*%
X82930001Y-153931400D03*
D17*
%TO.P,U1,25,PB12*%
%TO.N,unconnected-(U1A-PB12-Pad25)*%
X84396401Y-152465000D03*
%TO.P,U1,26,PB13*%
%TO.N,unconnected-(U1A-PB13-Pad26)*%
X84396401Y-151965001D03*
%TO.P,U1,27,PB14*%
%TO.N,BMP_IO*%
X84396401Y-151464999D03*
%TO.P,U1,28,PB15*%
%TO.N,unconnected-(U1A-PB15-Pad28)*%
X84396401Y-150965000D03*
%TO.P,U1,29,PA8*%
%TO.N,unconnected-(U1A-PA8-Pad29)*%
X84396401Y-150465001D03*
%TO.P,U1,30,PA9*%
%TO.N,LED_UART*%
X84396401Y-149965000D03*
%TO.P,U1,31,PA10*%
%TO.N,unconnected-(U1A-PA10-Pad31)*%
X84396401Y-149465000D03*
%TO.P,U1,32,PA11*%
%TO.N,USB-*%
X84396401Y-148964999D03*
%TO.P,U1,33,PA12*%
%TO.N,USB+*%
X84396401Y-148465000D03*
%TO.P,U1,34,PA13*%
%TO.N,SWD_IO*%
X84396401Y-147965001D03*
%TO.P,U1,35,VSS_2*%
%TO.N,GND*%
X84396401Y-147464999D03*
%TO.P,U1,36,VDD_2*%
%TO.N,+3V3*%
X84396401Y-146965000D03*
D18*
%TO.P,U1,37,PA14*%
%TO.N,SWD_CLK*%
X82930001Y-145498600D03*
%TO.P,U1,38,PA15*%
%TO.N,unconnected-(U1A-PA15-Pad38)*%
X82430002Y-145498600D03*
%TO.P,U1,39,PB3*%
%TO.N,unconnected-(U1A-PB3-Pad39)*%
X81930000Y-145498600D03*
%TO.P,U1,40,PB4*%
%TO.N,unconnected-(U1A-PB4-Pad40)*%
X81430001Y-145498600D03*
%TO.P,U1,41,PB5*%
%TO.N,unconnected-(U1A-PB5-Pad41)*%
X80930002Y-145498600D03*
%TO.P,U1,42,PB6*%
%TO.N,unconnected-(U1A-PB6-Pad42)*%
X80430001Y-145498600D03*
%TO.P,U1,43,PB7*%
%TO.N,unconnected-(U1A-PB7-Pad43)*%
X79930001Y-145498600D03*
%TO.P,U1,44,BOOT0*%
%TO.N,Net-(U1A-BOOT0)*%
X79430000Y-145498600D03*
%TO.P,U1,45,PB8*%
%TO.N,unconnected-(U1A-PB8-Pad45)*%
X78930001Y-145498600D03*
%TO.P,U1,46,PB9*%
%TO.N,unconnected-(U1A-PB9-Pad46)*%
X78430002Y-145498600D03*
%TO.P,U1,47,VSS_3*%
%TO.N,GND*%
X77930000Y-145498600D03*
%TO.P,U1,48,VDD_3*%
%TO.N,+3V3*%
X77430001Y-145498600D03*
%TD*%
D10*
%TO.P,U2,1,GROUND/ADJUST*%
%TO.N,GND*%
X91194100Y-138370000D03*
%TO.P,U2,2,VOUT*%
%TO.N,+3V3*%
X91194099Y-140660000D03*
%TO.P,U2,3,VIN*%
%TO.N,+5V*%
X91194100Y-142950000D03*
D11*
%TO.P,U2,4,EPAD*%
%TO.N,unconnected-(U2-EPAD-Pad4)*%
X96705901Y-140660000D03*
%TD*%
D28*
%TO.P,C16,1*%
%TO.N,+3V3*%
X88810000Y-118642501D03*
%TO.P,C16,2*%
%TO.N,GND*%
X88810000Y-116917499D03*
%TD*%
D15*
%TO.P,J1,1,Pin_1*%
%TO.N,BMP_RX*%
X61675000Y-152890000D03*
D16*
%TO.P,J1,2,Pin_2*%
%TO.N,BMP_TX*%
X61675000Y-150390000D03*
%TO.P,J1,3,Pin_3*%
%TO.N,GND*%
X61675000Y-147890000D03*
%TO.P,J1,4,Pin_4*%
%TO.N,BMP_CLK*%
X61675000Y-145390000D03*
%TO.P,J1,5,Pin_5*%
%TO.N,BMP_IO*%
X61675000Y-142890000D03*
%TO.P,J1,6,Pin_6*%
%TO.N,+3V3*%
X61675000Y-140390000D03*
%TD*%
D17*
%TO.P,U1,1,VBAT*%
%TO.N,+3V3*%
X75963601Y-124965000D03*
%TO.P,U1,2,PC13*%
%TO.N,LED_IDLE*%
X75963601Y-125464999D03*
%TO.P,U1,3,PC14-OSC32_IN*%
%TO.N,Net-(U1A-PC14-OSC32_IN)*%
X75963601Y-125965001D03*
%TO.P,U1,4,PC15-OSC32_OUT*%
%TO.N,unconnected-(U1A-PC15-OSC32_OUT-Pad4)*%
X75963601Y-126465000D03*
%TO.P,U1,5,OSC_IN*%
%TO.N,Net-(U1A-OSC_IN)*%
X75963601Y-126964999D03*
%TO.P,U1,6,OSC_OUT*%
%TO.N,Net-(U1A-OSC_OUT)*%
X75963601Y-127465000D03*
%TO.P,U1,7,NRST*%
%TO.N,RESET*%
X75963601Y-127965000D03*
%TO.P,U1,8,VSSA*%
%TO.N,GND*%
X75963601Y-128465001D03*
%TO.P,U1,9,VDDA*%
%TO.N,+3V3*%
X75963601Y-128965000D03*
%TO.P,U1,10,PA0-WKUP*%
%TO.N,unconnected-(U1A-PA0-WKUP-Pad10)*%
X75963601Y-129464999D03*
%TO.P,U1,11,PA1*%
%TO.N,unconnected-(U1A-PA1-Pad11)*%
X75963601Y-129965001D03*
%TO.P,U1,12,PA2*%
%TO.N,BMP_TX*%
X75963601Y-130465000D03*
D18*
%TO.P,U1,13,PA3*%
%TO.N,BMP_RX*%
X77430001Y-131931400D03*
%TO.P,U1,14,PA4*%
%TO.N,unconnected-(U1A-PA4-Pad14)*%
X77930000Y-131931400D03*
%TO.P,U1,15,PA5*%
%TO.N,BMP_CLK*%
X78430002Y-131931400D03*
%TO.P,U1,16,PA6*%
%TO.N,unconnected-(U1A-PA6-Pad16)*%
X78930001Y-131931400D03*
%TO.P,U1,17,PA7*%
%TO.N,unconnected-(U1A-PA7-Pad17)*%
X79430000Y-131931400D03*
%TO.P,U1,18,PB0*%
%TO.N,unconnected-(U1A-PB0-Pad18)*%
X79930001Y-131931400D03*
%TO.P,U1,19,PB1*%
%TO.N,unconnected-(U1A-PB1-Pad19)*%
X80430001Y-131931400D03*
%TO.P,U1,20,PB2*%
%TO.N,BOOT1*%
X80930002Y-131931400D03*
%TO.P,U1,21,PB10*%
%TO.N,unconnected-(U1A-PB10-Pad21)*%
X81430001Y-131931400D03*
%TO.P,U1,22,PB11*%
%TO.N,unconnected-(U1A-PB11-Pad22)*%
X81930000Y-131931400D03*
%TO.P,U1,23,VSS_1*%
%TO.N,GND*%
X82430002Y-131931400D03*
%TO.P,U1,24,VDD_1*%
%TO.N,+3V3*%
X82930001Y-131931400D03*
D17*
%TO.P,U1,25,PB12*%
%TO.N,unconnected-(U1A-PB12-Pad25)*%
X84396401Y-130465000D03*
%TO.P,U1,26,PB13*%
%TO.N,unconnected-(U1A-PB13-Pad26)*%
X84396401Y-129965001D03*
%TO.P,U1,27,PB14*%
%TO.N,BMP_IO*%
X84396401Y-129464999D03*
%TO.P,U1,28,PB15*%
%TO.N,unconnected-(U1A-PB15-Pad28)*%
X84396401Y-128965000D03*
%TO.P,U1,29,PA8*%
%TO.N,unconnected-(U1A-PA8-Pad29)*%
X84396401Y-128465001D03*
%TO.P,U1,30,PA9*%
%TO.N,LED_UART*%
X84396401Y-127965000D03*
%TO.P,U1,31,PA10*%
%TO.N,unconnected-(U1A-PA10-Pad31)*%
X84396401Y-127465000D03*
%TO.P,U1,32,PA11*%
%TO.N,USB-*%
X84396401Y-126964999D03*
%TO.P,U1,33,PA12*%
%TO.N,USB+*%
X84396401Y-126465000D03*
%TO.P,U1,34,PA13*%
%TO.N,SWD_IO*%
X84396401Y-125965001D03*
%TO.P,U1,35,VSS_2*%
%TO.N,GND*%
X84396401Y-125464999D03*
%TO.P,U1,36,VDD_2*%
%TO.N,+3V3*%
X84396401Y-124965000D03*
D18*
%TO.P,U1,37,PA14*%
%TO.N,SWD_CLK*%
X82930001Y-123498600D03*
%TO.P,U1,38,PA15*%
%TO.N,unconnected-(U1A-PA15-Pad38)*%
X82430002Y-123498600D03*
%TO.P,U1,39,PB3*%
%TO.N,unconnected-(U1A-PB3-Pad39)*%
X81930000Y-123498600D03*
%TO.P,U1,40,PB4*%
%TO.N,unconnected-(U1A-PB4-Pad40)*%
X81430001Y-123498600D03*
%TO.P,U1,41,PB5*%
%TO.N,unconnected-(U1A-PB5-Pad41)*%
X80930002Y-123498600D03*
%TO.P,U1,42,PB6*%
%TO.N,unconnected-(U1A-PB6-Pad42)*%
X80430001Y-123498600D03*
%TO.P,U1,43,PB7*%
%TO.N,unconnected-(U1A-PB7-Pad43)*%
X79930001Y-123498600D03*
%TO.P,U1,44,BOOT0*%
%TO.N,Net-(U1A-BOOT0)*%
X79430000Y-123498600D03*
%TO.P,U1,45,PB8*%
%TO.N,unconnected-(U1A-PB8-Pad45)*%
X78930001Y-123498600D03*
%TO.P,U1,46,PB9*%
%TO.N,unconnected-(U1A-PB9-Pad46)*%
X78430002Y-123498600D03*
%TO.P,U1,47,VSS_3*%
%TO.N,GND*%
X77930000Y-123498600D03*
%TO.P,U1,48,VDD_3*%
%TO.N,+3V3*%
X77430001Y-123498600D03*
%TD*%
D24*
%TO.P,J3,1,Pin_1*%
%TO.N,SWD_CLK*%
X76660001Y-117050000D03*
D25*
%TO.P,J3,2,Pin_2*%
%TO.N,GND*%
X79200001Y-117050000D03*
%TO.P,J3,3,Pin_3*%
%TO.N,SWD_IO*%
X81740000Y-117050000D03*
%TO.P,J3,4,Pin_4*%
%TO.N,+3V3*%
X84280001Y-117050000D03*
%TD*%
D29*
%TO.N,Net-(J2-D--PadA7)*%
X94010000Y-106030000D03*
%TO.N,Net-(J2-D+-PadA6)*%
X91720000Y-105530000D03*
%TO.N,GND*%
X82750000Y-103240000D03*
%TO.N,+3V3*%
X85992501Y-102960000D03*
%TO.N,GND*%
X94150000Y-108980000D03*
X94140000Y-102580000D03*
%TO.N,BMP_CLK*%
X77240000Y-111840000D03*
%TO.N,BMP_IO*%
X77880000Y-107464999D03*
X68837500Y-106052500D03*
%TO.N,BMP_CLK*%
X66520000Y-107530000D03*
%TO.N,+3V3*%
X84220002Y-111520000D03*
%TO.N,GND*%
X82495000Y-111520000D03*
%TO.N,BOOT1*%
X80920000Y-111520000D03*
%TO.N,Net-(U1A-OSC_IN)*%
X70610000Y-98510000D03*
%TO.N,Net-(U1A-OSC_OUT)*%
X70610000Y-100142497D03*
%TO.N,Net-(U1A-PC14-OSC32_IN)*%
X77610000Y-104420000D03*
%TO.N,GND*%
X87870000Y-93970000D03*
X73150000Y-105857499D03*
%TO.N,+3V3*%
X73150000Y-107582501D03*
%TO.N,LED_UART*%
X87290000Y-104950000D03*
%TO.N,GND*%
X86700000Y-98710000D03*
X88984998Y-99465002D03*
%TO.N,LED_UART*%
X85617434Y-106225961D03*
%TO.N,USB-*%
X88577500Y-107290000D03*
%TO.N,USB+*%
X88577500Y-105760000D03*
%TO.N,Net-(J2-CC1)*%
X95637500Y-107110000D03*
%TO.N,Net-(J2-CC2)*%
X95637500Y-104010000D03*
%TO.N,+3V3*%
X74307499Y-102630000D03*
X77054998Y-99680000D03*
%TO.N,GND*%
X72480000Y-98860000D03*
X78780000Y-99680000D03*
%TO.N,RESET*%
X77607101Y-105965000D03*
%TO.N,Net-(U1A-BOOT0)*%
X80360000Y-99680000D03*
%TO.N,+3V3*%
X77054998Y-143680000D03*
%TO.N,GND*%
X78780000Y-143680000D03*
%TO.N,+3V3*%
X74307499Y-146630000D03*
X84220002Y-133520000D03*
%TO.N,LED_UART*%
X87290000Y-126950000D03*
%TO.N,BMP_IO*%
X77880000Y-129464999D03*
%TO.N,GND*%
X82495000Y-133520000D03*
%TO.N,BMP_CLK*%
X77240000Y-133840000D03*
%TO.N,GND*%
X94140000Y-124580000D03*
%TO.N,BOOT1*%
X80920000Y-133520000D03*
%TO.N,LED_UART*%
X85617434Y-128225961D03*
%TO.N,GND*%
X94150000Y-130980000D03*
%TO.N,BMP_CLK*%
X66520000Y-129530000D03*
%TO.N,GND*%
X82750000Y-125240000D03*
%TO.N,Net-(J2-D+-PadA6)*%
X91720000Y-149530000D03*
%TO.N,GND*%
X87870000Y-115970000D03*
%TO.N,Net-(U1A-BOOT0)*%
X80360000Y-143680000D03*
%TO.N,GND*%
X88984998Y-143465002D03*
X82750000Y-147240000D03*
%TO.N,+3V3*%
X85992501Y-146960000D03*
%TO.N,BMP_IO*%
X68837500Y-150052500D03*
%TO.N,BOOT1*%
X80920000Y-155520000D03*
%TO.N,GND*%
X94150000Y-152980000D03*
X82495000Y-155520000D03*
%TO.N,Net-(U1A-OSC_IN)*%
X70610000Y-142510000D03*
%TO.N,USB+*%
X88577500Y-149760000D03*
%TO.N,BMP_CLK*%
X77240000Y-155840000D03*
X66520000Y-151530000D03*
%TO.N,Net-(U1A-OSC_OUT)*%
X70610000Y-144142497D03*
%TO.N,Net-(J2-CC1)*%
X95637500Y-151110000D03*
%TO.N,BMP_IO*%
X77880000Y-151464999D03*
%TO.N,GND*%
X73150000Y-149857499D03*
X86700000Y-142710000D03*
%TO.N,USB+*%
X88577500Y-127760000D03*
%TO.N,+3V3*%
X84220002Y-155520000D03*
%TO.N,Net-(U1A-OSC_OUT)*%
X70610000Y-122142497D03*
%TO.N,Net-(J2-CC1)*%
X95637500Y-129110000D03*
%TO.N,Net-(U1A-OSC_IN)*%
X70610000Y-120510000D03*
%TO.N,Net-(J2-D--PadA7)*%
X94010000Y-150030000D03*
%TO.N,GND*%
X73150000Y-127857499D03*
X86700000Y-120710000D03*
%TO.N,+3V3*%
X73150000Y-151582501D03*
%TO.N,LED_UART*%
X87290000Y-148950000D03*
%TO.N,Net-(U1A-PC14-OSC32_IN)*%
X77610000Y-148420000D03*
%TO.N,Net-(J2-CC2)*%
X95637500Y-126010000D03*
%TO.N,USB-*%
X88577500Y-129290000D03*
%TO.N,GND*%
X88984998Y-121465002D03*
%TO.N,BMP_IO*%
X68837500Y-128052500D03*
%TO.N,GND*%
X72480000Y-142860000D03*
X94140000Y-146580000D03*
%TO.N,Net-(J2-CC2)*%
X95637500Y-148010000D03*
%TO.N,Net-(J2-D--PadA7)*%
X94010000Y-128030000D03*
%TO.N,Net-(J2-D+-PadA6)*%
X91720000Y-127530000D03*
%TO.N,LED_UART*%
X85617434Y-150225961D03*
%TO.N,RESET*%
X77607101Y-149965000D03*
%TO.N,+3V3*%
X74307499Y-124630000D03*
%TO.N,GND*%
X72480000Y-120860000D03*
X87870000Y-137970000D03*
%TO.N,Net-(U1A-PC14-OSC32_IN)*%
X77610000Y-126420000D03*
%TO.N,GND*%
X78780000Y-121680000D03*
%TO.N,USB-*%
X88577500Y-151290000D03*
%TO.N,+3V3*%
X73150000Y-129582501D03*
%TO.N,Net-(U1A-BOOT0)*%
X80360000Y-121680000D03*
%TO.N,+3V3*%
X77054998Y-121680000D03*
X85992501Y-124960000D03*
%TO.N,RESET*%
X77607101Y-127965000D03*
%TD*%
D30*
%TO.N,SWD_IO*%
X82095001Y-103965001D02*
X84396401Y-103965001D01*
X81730000Y-103600000D02*
X82095001Y-103965001D01*
X82070000Y-102620000D02*
X81730000Y-102960000D01*
X83270000Y-102620000D02*
X82070000Y-102620000D01*
X83530000Y-102360000D02*
X83270000Y-102620000D01*
X83530000Y-97970000D02*
X83530000Y-102360000D01*
X81740000Y-96180000D02*
X83530000Y-97970000D01*
X81730000Y-102960000D02*
X81730000Y-103600000D01*
X81740000Y-95050000D02*
X81740000Y-96180000D01*
%TO.N,GND*%
X82974999Y-103464999D02*
X84396401Y-103464999D01*
X82750000Y-103240000D02*
X82974999Y-103464999D01*
%TO.N,Net-(J2-D--PadA7)*%
X94010000Y-106030000D02*
X94010000Y-106200000D01*
%TO.N,Net-(J2-D+-PadA6)*%
X91720000Y-105530000D02*
X91720000Y-105690000D01*
%TO.N,+3V3*%
X85987501Y-102965000D02*
X85992501Y-102960000D01*
D31*
X84396401Y-102965000D02*
X85987501Y-102965000D01*
D32*
%TO.N,GND*%
X92870000Y-108980000D02*
X94150000Y-108980000D01*
X92870000Y-102580000D02*
X94140000Y-102580000D01*
D30*
%TO.N,BMP_IO*%
X77880000Y-107464999D02*
X84396401Y-107464999D01*
%TO.N,BMP_CLK*%
X66520000Y-106235000D02*
X61675000Y-101390000D01*
X66520000Y-107530000D02*
X66520000Y-106235000D01*
%TO.N,BMP_RX*%
X62716400Y-109931400D02*
X77430001Y-109931400D01*
X61675000Y-108890000D02*
X62716400Y-109931400D01*
%TO.N,BMP_IO*%
X68837500Y-106052500D02*
X61675000Y-98890000D01*
%TO.N,BMP_CLK*%
X78430002Y-111209998D02*
X77800000Y-111840000D01*
X77800000Y-111840000D02*
X77240000Y-111840000D01*
X78430002Y-109931400D02*
X78430002Y-111209998D01*
%TO.N,BMP_TX*%
X63750000Y-108465000D02*
X61675000Y-106390000D01*
X75963601Y-108465000D02*
X63750000Y-108465000D01*
D31*
%TO.N,+3V3*%
X84220002Y-110650002D02*
X84220002Y-111520000D01*
X82930001Y-109931400D02*
X83501400Y-109931400D01*
X83501400Y-109931400D02*
X84220002Y-110650002D01*
D30*
%TO.N,GND*%
X82430002Y-111455002D02*
X82495000Y-111520000D01*
D31*
X82430002Y-109931400D02*
X82430002Y-111455002D01*
D30*
%TO.N,BOOT1*%
X80930002Y-111509998D02*
X80920000Y-111520000D01*
X80930002Y-109931400D02*
X80930002Y-111509998D01*
%TO.N,Net-(U1A-OSC_IN)*%
X71800000Y-99700000D02*
X70610000Y-98510000D01*
X71800000Y-102460000D02*
X71800000Y-99700000D01*
X74304999Y-104964999D02*
X71800000Y-102460000D01*
X75963601Y-104964999D02*
X74304999Y-104964999D01*
%TO.N,Net-(U1A-OSC_OUT)*%
X73905000Y-105465000D02*
X70610000Y-102170000D01*
X75963601Y-105465000D02*
X73905000Y-105465000D01*
X70610000Y-102170000D02*
X70610000Y-100142497D01*
%TO.N,Net-(U1A-PC14-OSC32_IN)*%
X77155001Y-103965001D02*
X77610000Y-104420000D01*
X75963601Y-103965001D02*
X77155001Y-103965001D01*
D33*
%TO.N,+3V3*%
X85872502Y-96642501D02*
X84280001Y-95050000D01*
X88810000Y-96642501D02*
X85872502Y-96642501D01*
X88827499Y-96660000D02*
X88810000Y-96642501D01*
X91194099Y-96660000D02*
X88827499Y-96660000D01*
%TO.N,GND*%
X88810000Y-94910000D02*
X87870000Y-93970000D01*
X88810000Y-94917499D02*
X88810000Y-94910000D01*
X89357499Y-94370000D02*
X88810000Y-94917499D01*
X91194100Y-94370000D02*
X89357499Y-94370000D01*
D31*
%TO.N,+3V3*%
X82930001Y-109931400D02*
X82930001Y-110454999D01*
%TO.N,GND*%
X73757502Y-106465001D02*
X73150000Y-105857499D01*
X75963601Y-106465001D02*
X73757502Y-106465001D01*
%TO.N,+3V3*%
X73767501Y-106965000D02*
X73150000Y-107582501D01*
X75963601Y-106965000D02*
X73767501Y-106965000D01*
D30*
%TO.N,LED_UART*%
X87290000Y-102172500D02*
X86777500Y-101660000D01*
X87290000Y-104950000D02*
X87290000Y-102172500D01*
%TO.N,GND*%
X86694999Y-98715001D02*
X86694999Y-100030000D01*
X86700000Y-98710000D02*
X86694999Y-98715001D01*
%TO.N,Net-(D3-A)*%
X84952500Y-100037499D02*
X84945001Y-100030000D01*
X84952500Y-101660000D02*
X84952500Y-100037499D01*
%TO.N,SWD_CLK*%
X76660001Y-96140001D02*
X76660001Y-95050000D01*
X77230000Y-96710000D02*
X76660001Y-96140001D01*
X81702900Y-96710000D02*
X77230000Y-96710000D01*
X82930001Y-97937101D02*
X81702900Y-96710000D01*
X82930001Y-101498600D02*
X82930001Y-97937101D01*
%TO.N,GND*%
X96565001Y-94370000D02*
X91194100Y-94370000D01*
X97115001Y-93820000D02*
X96565001Y-94370000D01*
%TO.N,Net-(D1-A)*%
X98880000Y-93835001D02*
X98864999Y-93820000D01*
X98880000Y-99490000D02*
X98880000Y-93835001D01*
%TO.N,+3V3*%
X95550000Y-99490000D02*
X97055000Y-99490000D01*
X92720000Y-96660000D02*
X95550000Y-99490000D01*
X91194099Y-96660000D02*
X92720000Y-96660000D01*
D32*
%TO.N,GND*%
X88984998Y-100690000D02*
X88984998Y-99465002D01*
%TO.N,+5V*%
X90710000Y-99434100D02*
X91194100Y-98950000D01*
X90710000Y-100690000D02*
X90710000Y-99434100D01*
X90710000Y-102300000D02*
X90710000Y-101794999D01*
X91790000Y-103380000D02*
X90710000Y-102300000D01*
X92870000Y-103380000D02*
X91790000Y-103380000D01*
X90710000Y-107340000D02*
X90710000Y-100690000D01*
X91550000Y-108180000D02*
X90710000Y-107340000D01*
X92870000Y-108180000D02*
X91550000Y-108180000D01*
D30*
%TO.N,LED_UART*%
X85356473Y-105965000D02*
X85617434Y-106225961D01*
X84396401Y-105965000D02*
X85356473Y-105965000D01*
%TO.N,USB-*%
X87530000Y-107290000D02*
X88577500Y-107290000D01*
X85204999Y-104964999D02*
X87530000Y-107290000D01*
X84396401Y-104964999D02*
X85204999Y-104964999D01*
%TO.N,USB+*%
X86664101Y-105760000D02*
X88577500Y-105760000D01*
X85369101Y-104465000D02*
X86664101Y-105760000D01*
X84396401Y-104465000D02*
X85369101Y-104465000D01*
%TO.N,Net-(J2-CC1)*%
X95557500Y-107030000D02*
X95637500Y-107110000D01*
X92870001Y-107030000D02*
X95557500Y-107030000D01*
%TO.N,Net-(J2-CC2)*%
X95617500Y-104030000D02*
X95637500Y-104010000D01*
X92870000Y-104030000D02*
X95617500Y-104030000D01*
%TO.N,Net-(J2-D+-PadA6)*%
X92060000Y-106030000D02*
X92870000Y-106030000D01*
X92050000Y-105030000D02*
X91720000Y-105360000D01*
X92870000Y-105030000D02*
X92050000Y-105030000D01*
X91720000Y-105360000D02*
X91720000Y-105530000D01*
X91720000Y-105690000D02*
X92060000Y-106030000D01*
%TO.N,Net-(J2-D--PadA7)*%
X94010000Y-106200000D02*
X93680000Y-106530000D01*
X94010000Y-105860000D02*
X94010000Y-106030000D01*
X93680000Y-106530000D02*
X92870000Y-106530000D01*
X93680000Y-105530000D02*
X94010000Y-105860000D01*
X92870000Y-105530000D02*
X93680000Y-105530000D01*
D31*
%TO.N,+3V3*%
X77430001Y-101498600D02*
X77054998Y-101123597D01*
X77054998Y-101123597D02*
X77054998Y-99680000D01*
X75963601Y-102965000D02*
X74642499Y-102965000D01*
X74642499Y-102965000D02*
X74307499Y-102630000D01*
%TO.N,GND*%
X77930000Y-101498600D02*
X77930000Y-100530000D01*
X77930000Y-100530000D02*
X78780000Y-99680000D01*
D30*
X73650000Y-100030000D02*
X72480000Y-98860000D01*
%TO.N,RESET*%
X75963601Y-105965000D02*
X77607101Y-105965000D01*
%TO.N,Net-(U1A-BOOT0)*%
X79430000Y-101498600D02*
X79430000Y-100610000D01*
X79430000Y-100610000D02*
X80360000Y-99680000D01*
%TO.N,LED_IDLE*%
X74074999Y-103464999D02*
X73567499Y-102957499D01*
X75963601Y-103464999D02*
X74074999Y-103464999D01*
X73567499Y-102957499D02*
X73567499Y-101645000D01*
%TO.N,Net-(D2-A)*%
X75392499Y-101645000D02*
X75392499Y-100037499D01*
X75392499Y-100037499D02*
X75399998Y-100030000D01*
D31*
%TO.N,+3V3*%
X82930001Y-131931400D02*
X82930001Y-132454999D01*
D30*
X92720000Y-118660000D02*
X95550000Y-121490000D01*
D32*
%TO.N,GND*%
X88984998Y-122690000D02*
X88984998Y-121465002D01*
%TO.N,+5V*%
X90710000Y-121434100D02*
X91194100Y-120950000D01*
D31*
%TO.N,+3V3*%
X75963601Y-128965000D02*
X73767501Y-128965000D01*
D30*
%TO.N,LED_UART*%
X87290000Y-126950000D02*
X87290000Y-124172500D01*
X87290000Y-124172500D02*
X86777500Y-123660000D01*
%TO.N,SWD_IO*%
X82095001Y-125965001D02*
X84396401Y-125965001D01*
%TO.N,GND*%
X82750000Y-125240000D02*
X82974999Y-125464999D01*
%TO.N,SWD_IO*%
X83270000Y-124620000D02*
X82070000Y-124620000D01*
X81740000Y-118180000D02*
X83530000Y-119970000D01*
%TO.N,Net-(U1A-OSC_IN)*%
X75963601Y-126964999D02*
X74304999Y-126964999D01*
%TO.N,Net-(U1A-OSC_OUT)*%
X75963601Y-127465000D02*
X73905000Y-127465000D01*
%TO.N,Net-(U1A-PC14-OSC32_IN)*%
X77155001Y-125965001D02*
X77610000Y-126420000D01*
%TO.N,Net-(U1A-OSC_IN)*%
X71800000Y-121700000D02*
X70610000Y-120510000D01*
X71800000Y-124460000D02*
X71800000Y-121700000D01*
%TO.N,SWD_IO*%
X82095001Y-147965001D02*
X84396401Y-147965001D01*
X81730000Y-146960000D02*
X81730000Y-147600000D01*
%TO.N,GND*%
X82974999Y-125464999D02*
X84396401Y-125464999D01*
%TO.N,SWD_IO*%
X81740000Y-140180000D02*
X83530000Y-141970000D01*
%TO.N,Net-(U1A-OSC_OUT)*%
X73905000Y-149465000D02*
X70610000Y-146170000D01*
%TO.N,SWD_IO*%
X83530000Y-146360000D02*
X83270000Y-146620000D01*
X83530000Y-141970000D02*
X83530000Y-146360000D01*
X83270000Y-146620000D02*
X82070000Y-146620000D01*
D32*
%TO.N,+5V*%
X90710000Y-124300000D02*
X90710000Y-123794999D01*
D30*
%TO.N,BMP_CLK*%
X66520000Y-128235000D02*
X61675000Y-123390000D01*
%TO.N,USB-*%
X84396401Y-126964999D02*
X85204999Y-126964999D01*
%TO.N,+3V3*%
X85987501Y-124965000D02*
X85992501Y-124960000D01*
%TO.N,BMP_CLK*%
X66520000Y-129530000D02*
X66520000Y-128235000D01*
%TO.N,USB+*%
X84396401Y-126465000D02*
X85369101Y-126465000D01*
%TO.N,USB-*%
X85204999Y-126964999D02*
X87530000Y-129290000D01*
%TO.N,Net-(U1A-PC14-OSC32_IN)*%
X75963601Y-125965001D02*
X77155001Y-125965001D01*
D31*
%TO.N,+3V3*%
X84396401Y-124965000D02*
X85987501Y-124965000D01*
D30*
%TO.N,USB-*%
X87530000Y-129290000D02*
X88577500Y-129290000D01*
%TO.N,GND*%
X82750000Y-147240000D02*
X82974999Y-147464999D01*
%TO.N,Net-(U1A-OSC_OUT)*%
X70610000Y-124170000D02*
X70610000Y-122142497D01*
%TO.N,SWD_IO*%
X81730000Y-124960000D02*
X81730000Y-125600000D01*
X81730000Y-125600000D02*
X82095001Y-125965001D01*
%TO.N,LED_IDLE*%
X74074999Y-125464999D02*
X73567499Y-124957499D01*
%TO.N,Net-(D2-A)*%
X75392499Y-123645000D02*
X75392499Y-122037499D01*
%TO.N,Net-(U1A-OSC_OUT)*%
X73905000Y-127465000D02*
X70610000Y-124170000D01*
%TO.N,Net-(D2-A)*%
X75392499Y-122037499D02*
X75399998Y-122030000D01*
%TO.N,LED_IDLE*%
X75963601Y-125464999D02*
X74074999Y-125464999D01*
%TO.N,BMP_TX*%
X63750000Y-130465000D02*
X61675000Y-128390000D01*
D31*
%TO.N,GND*%
X77930000Y-123498600D02*
X77930000Y-122530000D01*
D32*
X92870000Y-124580000D02*
X94140000Y-124580000D01*
X92870000Y-130980000D02*
X94150000Y-130980000D01*
D31*
%TO.N,+3V3*%
X77430001Y-123498600D02*
X77054998Y-123123597D01*
D30*
%TO.N,RESET*%
X75963601Y-127965000D02*
X77607101Y-127965000D01*
%TO.N,SWD_CLK*%
X77230000Y-118710000D02*
X76660001Y-118140001D01*
%TO.N,GND*%
X97115001Y-115820000D02*
X96565001Y-116370000D01*
%TO.N,SWD_CLK*%
X76660001Y-118140001D02*
X76660001Y-117050000D01*
D32*
%TO.N,+5V*%
X92870000Y-125380000D02*
X91790000Y-125380000D01*
D30*
%TO.N,Net-(J2-D--PadA7)*%
X94010000Y-128030000D02*
X94010000Y-128200000D01*
%TO.N,Net-(J2-CC1)*%
X92870001Y-129030000D02*
X95557500Y-129030000D01*
%TO.N,Net-(J2-D--PadA7)*%
X93680000Y-127530000D02*
X94010000Y-127860000D01*
%TO.N,BMP_CLK*%
X78430002Y-133209998D02*
X77800000Y-133840000D01*
%TO.N,Net-(J2-CC1)*%
X95557500Y-129030000D02*
X95637500Y-129110000D01*
%TO.N,Net-(J2-D--PadA7)*%
X94010000Y-127860000D02*
X94010000Y-128030000D01*
%TO.N,+3V3*%
X91194099Y-118660000D02*
X92720000Y-118660000D01*
%TO.N,Net-(J2-D+-PadA6)*%
X91720000Y-127360000D02*
X91720000Y-127530000D01*
%TO.N,GND*%
X82974999Y-147464999D02*
X84396401Y-147464999D01*
D31*
%TO.N,+3V3*%
X74642499Y-124965000D02*
X74307499Y-124630000D01*
D30*
%TO.N,Net-(D3-A)*%
X84952500Y-123660000D02*
X84952500Y-122037499D01*
D31*
%TO.N,+3V3*%
X77054998Y-123123597D02*
X77054998Y-121680000D01*
D30*
%TO.N,SWD_IO*%
X82070000Y-124620000D02*
X81730000Y-124960000D01*
%TO.N,LED_IDLE*%
X73567499Y-146957499D02*
X73567499Y-145645000D01*
%TO.N,Net-(D2-A)*%
X75392499Y-144037499D02*
X75399998Y-144030000D01*
%TO.N,Net-(J2-CC2)*%
X92870000Y-148030000D02*
X95617500Y-148030000D01*
%TO.N,GND*%
X73650000Y-122030000D02*
X72480000Y-120860000D01*
%TO.N,Net-(U1A-PC14-OSC32_IN)*%
X77155001Y-147965001D02*
X77610000Y-148420000D01*
D31*
%TO.N,GND*%
X75963601Y-128465001D02*
X73757502Y-128465001D01*
D33*
X88810000Y-138917499D02*
X88810000Y-138910000D01*
D30*
%TO.N,+3V3*%
X92720000Y-140660000D02*
X95550000Y-143490000D01*
%TO.N,Net-(J2-CC1)*%
X95557500Y-151030000D02*
X95637500Y-151110000D01*
D32*
%TO.N,+5V*%
X91790000Y-147380000D02*
X90710000Y-146300000D01*
D30*
%TO.N,Net-(J2-CC2)*%
X95617500Y-148030000D02*
X95637500Y-148010000D01*
%TO.N,Net-(J2-D+-PadA6)*%
X91720000Y-127530000D02*
X91720000Y-127690000D01*
D32*
%TO.N,+5V*%
X90710000Y-151340000D02*
X90710000Y-144690000D01*
D30*
%TO.N,Net-(D3-A)*%
X84952500Y-145660000D02*
X84952500Y-144037499D01*
%TO.N,LED_IDLE*%
X73567499Y-124957499D02*
X73567499Y-123645000D01*
%TO.N,Net-(U1A-OSC_IN)*%
X74304999Y-126964999D02*
X71800000Y-124460000D01*
D31*
%TO.N,GND*%
X73757502Y-128465001D02*
X73150000Y-127857499D01*
D30*
X97115001Y-137820000D02*
X96565001Y-138370000D01*
%TO.N,SWD_IO*%
X81730000Y-147600000D02*
X82095001Y-147965001D01*
%TO.N,BMP_RX*%
X62716400Y-153931400D02*
X77430001Y-153931400D01*
%TO.N,BMP_CLK*%
X77800000Y-133840000D02*
X77240000Y-133840000D01*
D32*
%TO.N,+5V*%
X91550000Y-152180000D02*
X90710000Y-151340000D01*
X90710000Y-146300000D02*
X90710000Y-145794999D01*
D30*
%TO.N,+3V3*%
X91194099Y-140660000D02*
X92720000Y-140660000D01*
%TO.N,Net-(D3-A)*%
X84952500Y-144037499D02*
X84945001Y-144030000D01*
D33*
%TO.N,GND*%
X89357499Y-138370000D02*
X88810000Y-138917499D01*
D30*
%TO.N,Net-(J2-D+-PadA6)*%
X91720000Y-127690000D02*
X92060000Y-128030000D01*
D33*
%TO.N,+3V3*%
X88810000Y-140642501D02*
X85872502Y-140642501D01*
X88827499Y-140660000D02*
X88810000Y-140642501D01*
D32*
%TO.N,+5V*%
X92870000Y-152180000D02*
X91550000Y-152180000D01*
D30*
%TO.N,BMP_IO*%
X77880000Y-151464999D02*
X84396401Y-151464999D01*
%TO.N,USB+*%
X86664101Y-149760000D02*
X88577500Y-149760000D01*
%TO.N,Net-(D1-A)*%
X98880000Y-137835001D02*
X98864999Y-137820000D01*
%TO.N,Net-(J2-D+-PadA6)*%
X92870000Y-127030000D02*
X92050000Y-127030000D01*
%TO.N,USB-*%
X84396401Y-148964999D02*
X85204999Y-148964999D01*
%TO.N,+3V3*%
X85987501Y-146965000D02*
X85992501Y-146960000D01*
%TO.N,BMP_CLK*%
X78430002Y-153931400D02*
X78430002Y-155209998D01*
%TO.N,SWD_IO*%
X83530000Y-119970000D02*
X83530000Y-124360000D01*
%TO.N,LED_UART*%
X85356473Y-149965000D02*
X85617434Y-150225961D01*
%TO.N,BMP_CLK*%
X78430002Y-131931400D02*
X78430002Y-133209998D01*
%TO.N,LED_UART*%
X84396401Y-149965000D02*
X85356473Y-149965000D01*
%TO.N,USB-*%
X87530000Y-151290000D02*
X88577500Y-151290000D01*
D33*
%TO.N,+3V3*%
X85872502Y-140642501D02*
X84280001Y-139050000D01*
D30*
%TO.N,BMP_CLK*%
X66520000Y-150235000D02*
X61675000Y-145390000D01*
%TO.N,GND*%
X96565001Y-138370000D02*
X91194100Y-138370000D01*
D31*
%TO.N,+3V3*%
X75963601Y-124965000D02*
X74642499Y-124965000D01*
D30*
%TO.N,USB+*%
X84396401Y-148465000D02*
X85369101Y-148465000D01*
%TO.N,SWD_CLK*%
X81702900Y-118710000D02*
X77230000Y-118710000D01*
D31*
%TO.N,+3V3*%
X84396401Y-146965000D02*
X85987501Y-146965000D01*
D30*
%TO.N,USB+*%
X85369101Y-148465000D02*
X86664101Y-149760000D01*
%TO.N,+3V3*%
X95550000Y-143490000D02*
X97055000Y-143490000D01*
%TO.N,USB-*%
X85204999Y-148964999D02*
X87530000Y-151290000D01*
%TO.N,Net-(J2-D--PadA7)*%
X92870000Y-149530000D02*
X93680000Y-149530000D01*
X93680000Y-150530000D02*
X92870000Y-150530000D01*
%TO.N,BMP_CLK*%
X77800000Y-155840000D02*
X77240000Y-155840000D01*
%TO.N,SWD_IO*%
X82070000Y-146620000D02*
X81730000Y-146960000D01*
%TO.N,Net-(J2-CC1)*%
X92870001Y-151030000D02*
X95557500Y-151030000D01*
D32*
%TO.N,+5V*%
X90710000Y-144690000D02*
X90710000Y-143434100D01*
D30*
%TO.N,Net-(J2-D+-PadA6)*%
X92050000Y-149030000D02*
X91720000Y-149360000D01*
%TO.N,BMP_RX*%
X61675000Y-152890000D02*
X62716400Y-153931400D01*
%TO.N,Net-(J2-D+-PadA6)*%
X91720000Y-149360000D02*
X91720000Y-149530000D01*
D32*
%TO.N,+5V*%
X90710000Y-143434100D02*
X91194100Y-142950000D01*
D31*
%TO.N,GND*%
X77930000Y-122530000D02*
X78780000Y-121680000D01*
D30*
%TO.N,BMP_CLK*%
X78430002Y-155209998D02*
X77800000Y-155840000D01*
D33*
%TO.N,GND*%
X88810000Y-138910000D02*
X87870000Y-137970000D01*
X91194100Y-138370000D02*
X89357499Y-138370000D01*
D31*
%TO.N,+3V3*%
X75963601Y-150965000D02*
X73767501Y-150965000D01*
D30*
%TO.N,LED_UART*%
X87290000Y-146172500D02*
X86777500Y-145660000D01*
D32*
%TO.N,GND*%
X88984998Y-144690000D02*
X88984998Y-143465002D01*
D30*
%TO.N,BMP_IO*%
X68837500Y-150052500D02*
X61675000Y-142890000D01*
%TO.N,Net-(D1-A)*%
X98880000Y-143490000D02*
X98880000Y-137835001D01*
%TO.N,BOOT1*%
X80930002Y-153931400D02*
X80930002Y-155509998D01*
%TO.N,LED_UART*%
X87290000Y-148950000D02*
X87290000Y-146172500D01*
D31*
%TO.N,GND*%
X73757502Y-150465001D02*
X73150000Y-149857499D01*
D30*
%TO.N,Net-(U1A-BOOT0)*%
X79430000Y-145498600D02*
X79430000Y-144610000D01*
%TO.N,SWD_CLK*%
X76660001Y-140140001D02*
X76660001Y-139050000D01*
%TO.N,Net-(U1A-OSC_OUT)*%
X70610000Y-146170000D02*
X70610000Y-144142497D01*
%TO.N,BMP_TX*%
X63750000Y-152465000D02*
X61675000Y-150390000D01*
%TO.N,Net-(U1A-BOOT0)*%
X79430000Y-123498600D02*
X79430000Y-122610000D01*
%TO.N,RESET*%
X75963601Y-149965000D02*
X77607101Y-149965000D01*
D31*
%TO.N,+3V3*%
X82930001Y-153931400D02*
X83501400Y-153931400D01*
D32*
%TO.N,+5V*%
X90710000Y-122690000D02*
X90710000Y-121434100D01*
D31*
%TO.N,+3V3*%
X84220002Y-154650002D02*
X84220002Y-155520000D01*
X83501400Y-153931400D02*
X84220002Y-154650002D01*
D30*
%TO.N,Net-(U1A-BOOT0)*%
X79430000Y-122610000D02*
X80360000Y-121680000D01*
D31*
%TO.N,+3V3*%
X75963601Y-146965000D02*
X74642499Y-146965000D01*
D30*
%TO.N,SWD_CLK*%
X81702900Y-140710000D02*
X77230000Y-140710000D01*
%TO.N,LED_IDLE*%
X75963601Y-147464999D02*
X74074999Y-147464999D01*
%TO.N,Net-(J2-D+-PadA6)*%
X92050000Y-127030000D02*
X91720000Y-127360000D01*
D31*
%TO.N,+3V3*%
X77054998Y-145123597D02*
X77054998Y-143680000D01*
D30*
%TO.N,Net-(D2-A)*%
X75392499Y-145645000D02*
X75392499Y-144037499D01*
D31*
%TO.N,GND*%
X77930000Y-145498600D02*
X77930000Y-144530000D01*
%TO.N,+3V3*%
X82930001Y-153931400D02*
X82930001Y-154454999D01*
D30*
%TO.N,BOOT1*%
X80930002Y-155509998D02*
X80920000Y-155520000D01*
%TO.N,BMP_IO*%
X68837500Y-128052500D02*
X61675000Y-120890000D01*
%TO.N,SWD_CLK*%
X82930001Y-145498600D02*
X82930001Y-141937101D01*
D31*
%TO.N,+3V3*%
X74642499Y-146965000D02*
X74307499Y-146630000D01*
D30*
%TO.N,GND*%
X86700000Y-142710000D02*
X86694999Y-142715001D01*
%TO.N,BMP_TX*%
X75963601Y-152465000D02*
X63750000Y-152465000D01*
D31*
%TO.N,+3V3*%
X73767501Y-150965000D02*
X73150000Y-151582501D01*
D30*
%TO.N,Net-(J2-D--PadA7)*%
X92870000Y-127530000D02*
X93680000Y-127530000D01*
%TO.N,SWD_CLK*%
X77230000Y-140710000D02*
X76660001Y-140140001D01*
%TO.N,GND*%
X86694999Y-142715001D02*
X86694999Y-144030000D01*
%TO.N,LED_UART*%
X84396401Y-127965000D02*
X85356473Y-127965000D01*
%TO.N,GND*%
X82430002Y-155455002D02*
X82495000Y-155520000D01*
%TO.N,SWD_CLK*%
X82930001Y-141937101D02*
X81702900Y-140710000D01*
D32*
%TO.N,GND*%
X92870000Y-146580000D02*
X94140000Y-146580000D01*
D30*
%TO.N,Net-(J2-D--PadA7)*%
X93680000Y-128530000D02*
X92870000Y-128530000D01*
%TO.N,Net-(U1A-BOOT0)*%
X79430000Y-144610000D02*
X80360000Y-143680000D01*
D32*
%TO.N,GND*%
X92870000Y-152980000D02*
X94150000Y-152980000D01*
D30*
%TO.N,SWD_IO*%
X81740000Y-139050000D02*
X81740000Y-140180000D01*
%TO.N,GND*%
X73650000Y-144030000D02*
X72480000Y-142860000D01*
%TO.N,LED_IDLE*%
X74074999Y-147464999D02*
X73567499Y-146957499D01*
D33*
%TO.N,GND*%
X88810000Y-116910000D02*
X87870000Y-115970000D01*
D32*
%TO.N,+5V*%
X92870000Y-130180000D02*
X91550000Y-130180000D01*
D30*
%TO.N,Net-(J2-D+-PadA6)*%
X92060000Y-150030000D02*
X92870000Y-150030000D01*
%TO.N,GND*%
X96565001Y-116370000D02*
X91194100Y-116370000D01*
D33*
X91194100Y-116370000D02*
X89357499Y-116370000D01*
D32*
%TO.N,+5V*%
X91550000Y-130180000D02*
X90710000Y-129340000D01*
D33*
%TO.N,GND*%
X88810000Y-116917499D02*
X88810000Y-116910000D01*
%TO.N,+3V3*%
X88827499Y-118660000D02*
X88810000Y-118642501D01*
D30*
%TO.N,Net-(D1-A)*%
X98880000Y-115835001D02*
X98864999Y-115820000D01*
%TO.N,BMP_RX*%
X62716400Y-131931400D02*
X77430001Y-131931400D01*
D31*
%TO.N,+3V3*%
X77430001Y-145498600D02*
X77054998Y-145123597D01*
D30*
%TO.N,Net-(J2-CC2)*%
X92870000Y-126030000D02*
X95617500Y-126030000D01*
%TO.N,SWD_IO*%
X81740000Y-117050000D02*
X81740000Y-118180000D01*
%TO.N,Net-(J2-CC2)*%
X95617500Y-126030000D02*
X95637500Y-126010000D01*
D33*
%TO.N,+3V3*%
X85872502Y-118642501D02*
X84280001Y-117050000D01*
%TO.N,GND*%
X89357499Y-116370000D02*
X88810000Y-116917499D01*
D30*
%TO.N,LED_UART*%
X85356473Y-127965000D02*
X85617434Y-128225961D01*
%TO.N,+3V3*%
X95550000Y-121490000D02*
X97055000Y-121490000D01*
%TO.N,BMP_CLK*%
X66520000Y-151530000D02*
X66520000Y-150235000D01*
D31*
%TO.N,+3V3*%
X84220002Y-132650002D02*
X84220002Y-133520000D01*
D30*
%TO.N,SWD_CLK*%
X82930001Y-119937101D02*
X81702900Y-118710000D01*
%TO.N,USB+*%
X86664101Y-127760000D02*
X88577500Y-127760000D01*
%TO.N,GND*%
X86694999Y-120715001D02*
X86694999Y-122030000D01*
%TO.N,BOOT1*%
X80930002Y-131931400D02*
X80930002Y-133509998D01*
D33*
%TO.N,+3V3*%
X91194099Y-118660000D02*
X88827499Y-118660000D01*
D30*
%TO.N,BMP_IO*%
X77880000Y-129464999D02*
X84396401Y-129464999D01*
D31*
%TO.N,+3V3*%
X73767501Y-128965000D02*
X73150000Y-129582501D01*
D30*
%TO.N,GND*%
X82430002Y-133455002D02*
X82495000Y-133520000D01*
%TO.N,BMP_TX*%
X75963601Y-130465000D02*
X63750000Y-130465000D01*
%TO.N,Net-(D1-A)*%
X98880000Y-121490000D02*
X98880000Y-115835001D01*
D32*
%TO.N,+5V*%
X92870000Y-147380000D02*
X91790000Y-147380000D01*
D33*
%TO.N,+3V3*%
X91194099Y-140660000D02*
X88827499Y-140660000D01*
D31*
%TO.N,GND*%
X75963601Y-150465001D02*
X73757502Y-150465001D01*
D30*
%TO.N,SWD_CLK*%
X82930001Y-123498600D02*
X82930001Y-119937101D01*
%TO.N,Net-(J2-D+-PadA6)*%
X92060000Y-128030000D02*
X92870000Y-128030000D01*
%TO.N,Net-(J2-D--PadA7)*%
X94010000Y-150200000D02*
X93680000Y-150530000D01*
D31*
%TO.N,GND*%
X82430002Y-153931400D02*
X82430002Y-155455002D01*
D30*
X86700000Y-120710000D02*
X86694999Y-120715001D01*
%TO.N,Net-(J2-D--PadA7)*%
X93680000Y-149530000D02*
X94010000Y-149860000D01*
%TO.N,Net-(J2-D+-PadA6)*%
X92870000Y-149030000D02*
X92050000Y-149030000D01*
%TO.N,Net-(J2-D--PadA7)*%
X94010000Y-150030000D02*
X94010000Y-150200000D01*
%TO.N,Net-(J2-D+-PadA6)*%
X91720000Y-149530000D02*
X91720000Y-149690000D01*
D32*
%TO.N,+5V*%
X91790000Y-125380000D02*
X90710000Y-124300000D01*
D31*
%TO.N,+3V3*%
X83501400Y-131931400D02*
X84220002Y-132650002D01*
D30*
%TO.N,Net-(J2-D--PadA7)*%
X94010000Y-149860000D02*
X94010000Y-150030000D01*
D31*
%TO.N,GND*%
X77930000Y-144530000D02*
X78780000Y-143680000D01*
D30*
%TO.N,Net-(U1A-OSC_OUT)*%
X75963601Y-149465000D02*
X73905000Y-149465000D01*
%TO.N,Net-(J2-D--PadA7)*%
X94010000Y-128200000D02*
X93680000Y-128530000D01*
%TO.N,Net-(U1A-PC14-OSC32_IN)*%
X75963601Y-147965001D02*
X77155001Y-147965001D01*
D31*
%TO.N,+3V3*%
X82930001Y-131931400D02*
X83501400Y-131931400D01*
D30*
%TO.N,SWD_IO*%
X83530000Y-124360000D02*
X83270000Y-124620000D01*
%TO.N,Net-(U1A-OSC_IN)*%
X74304999Y-148964999D02*
X71800000Y-146460000D01*
X75963601Y-148964999D02*
X74304999Y-148964999D01*
%TO.N,USB+*%
X85369101Y-126465000D02*
X86664101Y-127760000D01*
%TO.N,Net-(U1A-OSC_IN)*%
X71800000Y-143700000D02*
X70610000Y-142510000D01*
%TO.N,BMP_RX*%
X61675000Y-130890000D02*
X62716400Y-131931400D01*
%TO.N,Net-(J2-D+-PadA6)*%
X91720000Y-149690000D02*
X92060000Y-150030000D01*
%TO.N,Net-(U1A-OSC_IN)*%
X71800000Y-146460000D02*
X71800000Y-143700000D01*
%TO.N,BOOT1*%
X80930002Y-133509998D02*
X80920000Y-133520000D01*
D32*
%TO.N,+5V*%
X90710000Y-129340000D02*
X90710000Y-122690000D01*
D31*
%TO.N,GND*%
X82430002Y-131931400D02*
X82430002Y-133455002D01*
D30*
%TO.N,Net-(D3-A)*%
X84952500Y-122037499D02*
X84945001Y-122030000D01*
D33*
%TO.N,+3V3*%
X88810000Y-118642501D02*
X85872502Y-118642501D01*
%TD*%
M02*
