%TF.GenerationSoftware,KiCad,Pcbnew,9.0.1*%
%TF.CreationDate,2026-03-03T23:36:01+07:00*%
%TF.ProjectId,BMP_Bluepill,424d505f-426c-4756-9570-696c6c2e6b69,rev?*%
%TF.SameCoordinates,Original*%
%TF.FileFunction,Drillmap*%
%TF.FilePolarity,Positive*%
%FSLAX45Y45*%
G04 Gerber Fmt 4.5, Leading zero omitted, Abs format (unit mm)*
G04 Created by KiCad (PCBNEW 9.0.1) date 2026-03-03 23:36:01*
%MOMM*%
%LPD*%
G01*
G04 APERTURE LIST*
%ADD10C,0.050000*%
%ADD11C,0.200000*%
G04 APERTURE END LIST*
D10*
X10214500Y-14200000D02*
X14014500Y-14200000D01*
X14014500Y-14400000D01*
X10214500Y-14400000D01*
X10214500Y-14200000D01*
X10214500Y-12000000D02*
X14014500Y-12000000D01*
X14014500Y-12200000D01*
X10214500Y-12200000D01*
X10214500Y-12000000D01*
X10000000Y-10000000D02*
X14229000Y-10000000D01*
X14229000Y-16400000D01*
X10000000Y-16400000D01*
X10000000Y-10000000D01*
D11*
X10258277Y-16713984D02*
X10258277Y-16513984D01*
X10258277Y-16513984D02*
X10305896Y-16513984D01*
X10305896Y-16513984D02*
X10334467Y-16523508D01*
X10334467Y-16523508D02*
X10353515Y-16542555D01*
X10353515Y-16542555D02*
X10363039Y-16561603D01*
X10363039Y-16561603D02*
X10372563Y-16599698D01*
X10372563Y-16599698D02*
X10372563Y-16628269D01*
X10372563Y-16628269D02*
X10363039Y-16666365D01*
X10363039Y-16666365D02*
X10353515Y-16685412D01*
X10353515Y-16685412D02*
X10334467Y-16704460D01*
X10334467Y-16704460D02*
X10305896Y-16713984D01*
X10305896Y-16713984D02*
X10258277Y-16713984D01*
X10458277Y-16713984D02*
X10458277Y-16580650D01*
X10458277Y-16618746D02*
X10467801Y-16599698D01*
X10467801Y-16599698D02*
X10477324Y-16590174D01*
X10477324Y-16590174D02*
X10496372Y-16580650D01*
X10496372Y-16580650D02*
X10515420Y-16580650D01*
X10582086Y-16713984D02*
X10582086Y-16580650D01*
X10582086Y-16513984D02*
X10572563Y-16523508D01*
X10572563Y-16523508D02*
X10582086Y-16533031D01*
X10582086Y-16533031D02*
X10591610Y-16523508D01*
X10591610Y-16523508D02*
X10582086Y-16513984D01*
X10582086Y-16513984D02*
X10582086Y-16533031D01*
X10705896Y-16713984D02*
X10686848Y-16704460D01*
X10686848Y-16704460D02*
X10677324Y-16685412D01*
X10677324Y-16685412D02*
X10677324Y-16513984D01*
X10810658Y-16713984D02*
X10791610Y-16704460D01*
X10791610Y-16704460D02*
X10782086Y-16685412D01*
X10782086Y-16685412D02*
X10782086Y-16513984D01*
X11039229Y-16713984D02*
X11039229Y-16513984D01*
X11039229Y-16513984D02*
X11105896Y-16656841D01*
X11105896Y-16656841D02*
X11172563Y-16513984D01*
X11172563Y-16513984D02*
X11172563Y-16713984D01*
X11353515Y-16713984D02*
X11353515Y-16609222D01*
X11353515Y-16609222D02*
X11343991Y-16590174D01*
X11343991Y-16590174D02*
X11324943Y-16580650D01*
X11324943Y-16580650D02*
X11286848Y-16580650D01*
X11286848Y-16580650D02*
X11267801Y-16590174D01*
X11353515Y-16704460D02*
X11334467Y-16713984D01*
X11334467Y-16713984D02*
X11286848Y-16713984D01*
X11286848Y-16713984D02*
X11267801Y-16704460D01*
X11267801Y-16704460D02*
X11258277Y-16685412D01*
X11258277Y-16685412D02*
X11258277Y-16666365D01*
X11258277Y-16666365D02*
X11267801Y-16647317D01*
X11267801Y-16647317D02*
X11286848Y-16637793D01*
X11286848Y-16637793D02*
X11334467Y-16637793D01*
X11334467Y-16637793D02*
X11353515Y-16628269D01*
X11448753Y-16580650D02*
X11448753Y-16780650D01*
X11448753Y-16590174D02*
X11467801Y-16580650D01*
X11467801Y-16580650D02*
X11505896Y-16580650D01*
X11505896Y-16580650D02*
X11524943Y-16590174D01*
X11524943Y-16590174D02*
X11534467Y-16599698D01*
X11534467Y-16599698D02*
X11543991Y-16618746D01*
X11543991Y-16618746D02*
X11543991Y-16675888D01*
X11543991Y-16675888D02*
X11534467Y-16694936D01*
X11534467Y-16694936D02*
X11524943Y-16704460D01*
X11524943Y-16704460D02*
X11505896Y-16713984D01*
X11505896Y-16713984D02*
X11467801Y-16713984D01*
X11467801Y-16713984D02*
X11448753Y-16704460D01*
X11629705Y-16694936D02*
X11639229Y-16704460D01*
X11639229Y-16704460D02*
X11629705Y-16713984D01*
X11629705Y-16713984D02*
X11620182Y-16704460D01*
X11620182Y-16704460D02*
X11629705Y-16694936D01*
X11629705Y-16694936D02*
X11629705Y-16713984D01*
X11629705Y-16590174D02*
X11639229Y-16599698D01*
X11639229Y-16599698D02*
X11629705Y-16609222D01*
X11629705Y-16609222D02*
X11620182Y-16599698D01*
X11620182Y-16599698D02*
X11629705Y-16590174D01*
X11629705Y-16590174D02*
X11629705Y-16609222D01*
M02*
