%TF.GenerationSoftware,KiCad,Pcbnew,9.0.1*%
%TF.CreationDate,2026-03-03T23:35:58+07:00*%
%TF.ProjectId,BMP_Bluepill,424d505f-426c-4756-9570-696c6c2e6b69,rev?*%
%TF.SameCoordinates,Original*%
%TF.FileFunction,Legend,Top*%
%TF.FilePolarity,Positive*%
%FSLAX46Y46*%
G04 Gerber Fmt 4.6, Leading zero omitted, Abs format (unit mm)*
G04 Created by KiCad (PCBNEW 9.0.1) date 2026-03-03 23:35:58*
%MOMM*%
%LPD*%
G01*
G04 APERTURE LIST*
%ADD10C,0.160000*%
%ADD11C,0.150000*%
%ADD12C,0.120000*%
%ADD13C,0.152400*%
%ADD14C,0.000000*%
G04 APERTURE END LIST*
D10*
G36*
X116331509Y-139407176D02*
G01*
X116372967Y-139431380D01*
X116398943Y-139470424D01*
X116409985Y-139529853D01*
X116400651Y-139619422D01*
X116022746Y-139619422D01*
X116048374Y-139559093D01*
X116081800Y-139506743D01*
X116123222Y-139461427D01*
X116171887Y-139425083D01*
X116219798Y-139404670D01*
X116268302Y-139398046D01*
X116331509Y-139407176D01*
G37*
G36*
X116875705Y-140823633D02*
G01*
X107434738Y-140823633D01*
X107434738Y-140553519D01*
X115900903Y-140553519D01*
X115908546Y-140586355D01*
X115926484Y-140615566D01*
X115952456Y-140638001D01*
X115985740Y-140651943D01*
X116028608Y-140656966D01*
X116091932Y-140646785D01*
X116146669Y-140616574D01*
X116188285Y-140570827D01*
X116210416Y-140515274D01*
X116213523Y-140475548D01*
X116206051Y-140442785D01*
X116188618Y-140414890D01*
X116163200Y-140393720D01*
X116130163Y-140380424D01*
X116087135Y-140375598D01*
X116024281Y-140385328D01*
X115968707Y-140414341D01*
X115926313Y-140459150D01*
X115903769Y-140515274D01*
X115900903Y-140553519D01*
X107434738Y-140553519D01*
X107434738Y-140252500D01*
X107601405Y-140252500D01*
X107893031Y-140252500D01*
X108062200Y-139438896D01*
X108128512Y-139057144D01*
X108137580Y-139057144D01*
X108139961Y-139262400D01*
X108276890Y-140252500D01*
X108541496Y-140252500D01*
X109086280Y-139252142D01*
X109119969Y-139182516D01*
X109171918Y-139057144D01*
X109179886Y-139057144D01*
X109102308Y-139372126D01*
X108919309Y-140252500D01*
X109239054Y-140252500D01*
X109579406Y-140252500D01*
X109896128Y-140252500D01*
X110175847Y-140252500D01*
X110492569Y-140252500D01*
X110616675Y-139655601D01*
X110635948Y-139592332D01*
X110664944Y-139538305D01*
X110703778Y-139492110D01*
X110751092Y-139455600D01*
X110800165Y-139434664D01*
X110852430Y-139427722D01*
X110910631Y-139437020D01*
X110949398Y-139462149D01*
X110974044Y-139504059D01*
X110983879Y-139569863D01*
X110972323Y-139670988D01*
X110851423Y-140252500D01*
X111167137Y-140252500D01*
X111444933Y-140252500D01*
X111761655Y-140252500D01*
X111885761Y-139655601D01*
X111904947Y-139592262D01*
X111933624Y-139538235D01*
X111971856Y-139492110D01*
X112018631Y-139455745D01*
X112068019Y-139434739D01*
X112121516Y-139427722D01*
X112177955Y-139436610D01*
X112215465Y-139460563D01*
X112239266Y-139500317D01*
X112248865Y-139562463D01*
X112238112Y-139657707D01*
X112114464Y-140252500D01*
X112430178Y-140252500D01*
X112563901Y-139609255D01*
X112581482Y-139478411D01*
X112576555Y-139380480D01*
X112554599Y-139307621D01*
X112518328Y-139253608D01*
X112467288Y-139214474D01*
X112397971Y-139189171D01*
X112304424Y-139179785D01*
X112209645Y-139190610D01*
X112120447Y-139223021D01*
X112034706Y-139278603D01*
X111951065Y-139361044D01*
X111947035Y-139361044D01*
X112011546Y-139050642D01*
X113434657Y-139050642D01*
X113842604Y-139050642D01*
X113592744Y-140252500D01*
X113917525Y-140252500D01*
X113976344Y-139969572D01*
X114424099Y-139969572D01*
X114429113Y-140070111D01*
X114451575Y-140144882D01*
X114488688Y-140200283D01*
X114540896Y-140240402D01*
X114611775Y-140266331D01*
X114707407Y-140275947D01*
X114800346Y-140265026D01*
X114888748Y-140232145D01*
X114974734Y-140175364D01*
X115059666Y-140090566D01*
X115064704Y-140090566D01*
X115030998Y-140252500D01*
X115346621Y-140252500D01*
X115425657Y-139872385D01*
X115668608Y-139872385D01*
X115674494Y-139977271D01*
X115699129Y-140063705D01*
X115741012Y-140135629D01*
X115800010Y-140194133D01*
X115876204Y-140237579D01*
X115973626Y-140265684D01*
X116097851Y-140275947D01*
X116247947Y-140266519D01*
X116375391Y-140239992D01*
X116483724Y-140198278D01*
X116532176Y-139965270D01*
X116432829Y-140010325D01*
X116328496Y-140037304D01*
X116217652Y-140046420D01*
X116128812Y-140038461D01*
X116066377Y-140017593D01*
X116023454Y-139986511D01*
X115995588Y-139945145D01*
X115981513Y-139890683D01*
X115983454Y-139818175D01*
X116652893Y-139818175D01*
X116681011Y-139682803D01*
X116696673Y-139564213D01*
X116692359Y-139466022D01*
X116671219Y-139384154D01*
X116634666Y-139315248D01*
X116582194Y-139258371D01*
X116514196Y-139216532D01*
X116427083Y-139189605D01*
X116315654Y-139179785D01*
X116210549Y-139189134D01*
X116110406Y-139217003D01*
X116013675Y-139264011D01*
X115919157Y-139331918D01*
X115838222Y-139413277D01*
X115772458Y-139507861D01*
X115721308Y-139617371D01*
X115720723Y-139619422D01*
X115685142Y-139744169D01*
X115668608Y-139872385D01*
X115425657Y-139872385D01*
X115564791Y-139203232D01*
X115249168Y-139203232D01*
X115124604Y-139802146D01*
X115104658Y-139868912D01*
X115076073Y-139923245D01*
X115039150Y-139967193D01*
X114993743Y-140001281D01*
X114944608Y-140021257D01*
X114890223Y-140028010D01*
X114829723Y-140019041D01*
X114789877Y-139995146D01*
X114764805Y-139956273D01*
X114754284Y-139896624D01*
X114763919Y-139806268D01*
X114889307Y-139203232D01*
X114573592Y-139203232D01*
X114442159Y-139835211D01*
X114424099Y-139969572D01*
X113976344Y-139969572D01*
X114167386Y-139050642D01*
X114577348Y-139050642D01*
X114580968Y-139033239D01*
X115988308Y-139033239D01*
X116195853Y-139033239D01*
X116383340Y-138839433D01*
X116501493Y-139033239D01*
X116709038Y-139033239D01*
X116541793Y-138699115D01*
X116293306Y-138699115D01*
X115988308Y-139033239D01*
X114580968Y-139033239D01*
X114633401Y-138781181D01*
X113490711Y-138781181D01*
X113434657Y-139050642D01*
X112011546Y-139050642D01*
X112084605Y-138699115D01*
X111767883Y-138699115D01*
X111444933Y-140252500D01*
X111167137Y-140252500D01*
X111300402Y-139611362D01*
X111318382Y-139479090D01*
X111313917Y-139380328D01*
X111292556Y-139307117D01*
X111257147Y-139253102D01*
X111207424Y-139214159D01*
X111140079Y-139189073D01*
X111049351Y-139179785D01*
X110966104Y-139187297D01*
X110888739Y-139209472D01*
X110815850Y-139246544D01*
X110746398Y-139299759D01*
X110679781Y-139371302D01*
X110675751Y-139371302D01*
X110710739Y-139203232D01*
X110394017Y-139203232D01*
X110175847Y-140252500D01*
X109896128Y-140252500D01*
X110114298Y-139203232D01*
X109797576Y-139203232D01*
X109579406Y-140252500D01*
X109239054Y-140252500D01*
X109518023Y-138910773D01*
X109842376Y-138910773D01*
X109851250Y-138949975D01*
X109872131Y-138984421D01*
X109902646Y-139010820D01*
X109942104Y-139027286D01*
X109993306Y-139033239D01*
X110045829Y-139027842D01*
X110092602Y-139012115D01*
X110134906Y-138985978D01*
X110170416Y-138951179D01*
X110195440Y-138911077D01*
X110210743Y-138864620D01*
X110214522Y-138817150D01*
X110205646Y-138778258D01*
X110184915Y-138745368D01*
X110154636Y-138720532D01*
X110114897Y-138704837D01*
X110062732Y-138699115D01*
X110010871Y-138704379D01*
X109964315Y-138719760D01*
X109921865Y-138745368D01*
X109886177Y-138779495D01*
X109861145Y-138818895D01*
X109845936Y-138864620D01*
X109842376Y-138910773D01*
X109518023Y-138910773D01*
X109544968Y-138781181D01*
X109082983Y-138781181D01*
X108608449Y-139651204D01*
X108507150Y-139863604D01*
X108501105Y-139863604D01*
X108502180Y-139758200D01*
X108493686Y-139653311D01*
X108381303Y-138781181D01*
X107907320Y-138781181D01*
X107601405Y-140252500D01*
X107434738Y-140252500D01*
X107434738Y-138532448D01*
X116875705Y-138532448D01*
X116875705Y-140823633D01*
G37*
G36*
X116331509Y-117407176D02*
G01*
X116372967Y-117431380D01*
X116398943Y-117470424D01*
X116409985Y-117529853D01*
X116400651Y-117619422D01*
X116022746Y-117619422D01*
X116048374Y-117559093D01*
X116081800Y-117506743D01*
X116123222Y-117461427D01*
X116171887Y-117425083D01*
X116219798Y-117404670D01*
X116268302Y-117398046D01*
X116331509Y-117407176D01*
G37*
G36*
X116875705Y-118823633D02*
G01*
X107434738Y-118823633D01*
X107434738Y-118553519D01*
X115900903Y-118553519D01*
X115908546Y-118586355D01*
X115926484Y-118615566D01*
X115952456Y-118638001D01*
X115985740Y-118651943D01*
X116028608Y-118656966D01*
X116091932Y-118646785D01*
X116146669Y-118616574D01*
X116188285Y-118570827D01*
X116210416Y-118515274D01*
X116213523Y-118475548D01*
X116206051Y-118442785D01*
X116188618Y-118414890D01*
X116163200Y-118393720D01*
X116130163Y-118380424D01*
X116087135Y-118375598D01*
X116024281Y-118385328D01*
X115968707Y-118414341D01*
X115926313Y-118459150D01*
X115903769Y-118515274D01*
X115900903Y-118553519D01*
X107434738Y-118553519D01*
X107434738Y-118252500D01*
X107601405Y-118252500D01*
X107893031Y-118252500D01*
X108062200Y-117438896D01*
X108128512Y-117057144D01*
X108137580Y-117057144D01*
X108139961Y-117262400D01*
X108276890Y-118252500D01*
X108541496Y-118252500D01*
X109086280Y-117252142D01*
X109119969Y-117182516D01*
X109171918Y-117057144D01*
X109179886Y-117057144D01*
X109102308Y-117372126D01*
X108919309Y-118252500D01*
X109239054Y-118252500D01*
X109579406Y-118252500D01*
X109896128Y-118252500D01*
X110175847Y-118252500D01*
X110492569Y-118252500D01*
X110616675Y-117655601D01*
X110635948Y-117592332D01*
X110664944Y-117538305D01*
X110703778Y-117492110D01*
X110751092Y-117455600D01*
X110800165Y-117434664D01*
X110852430Y-117427722D01*
X110910631Y-117437020D01*
X110949398Y-117462149D01*
X110974044Y-117504059D01*
X110983879Y-117569863D01*
X110972323Y-117670988D01*
X110851423Y-118252500D01*
X111167137Y-118252500D01*
X111444933Y-118252500D01*
X111761655Y-118252500D01*
X111885761Y-117655601D01*
X111904947Y-117592262D01*
X111933624Y-117538235D01*
X111971856Y-117492110D01*
X112018631Y-117455745D01*
X112068019Y-117434739D01*
X112121516Y-117427722D01*
X112177955Y-117436610D01*
X112215465Y-117460563D01*
X112239266Y-117500317D01*
X112248865Y-117562463D01*
X112238112Y-117657707D01*
X112114464Y-118252500D01*
X112430178Y-118252500D01*
X112563901Y-117609255D01*
X112581482Y-117478411D01*
X112576555Y-117380480D01*
X112554599Y-117307621D01*
X112518328Y-117253608D01*
X112467288Y-117214474D01*
X112397971Y-117189171D01*
X112304424Y-117179785D01*
X112209645Y-117190610D01*
X112120447Y-117223021D01*
X112034706Y-117278603D01*
X111951065Y-117361044D01*
X111947035Y-117361044D01*
X112011546Y-117050642D01*
X113434657Y-117050642D01*
X113842604Y-117050642D01*
X113592744Y-118252500D01*
X113917525Y-118252500D01*
X113976344Y-117969572D01*
X114424099Y-117969572D01*
X114429113Y-118070111D01*
X114451575Y-118144882D01*
X114488688Y-118200283D01*
X114540896Y-118240402D01*
X114611775Y-118266331D01*
X114707407Y-118275947D01*
X114800346Y-118265026D01*
X114888748Y-118232145D01*
X114974734Y-118175364D01*
X115059666Y-118090566D01*
X115064704Y-118090566D01*
X115030998Y-118252500D01*
X115346621Y-118252500D01*
X115425657Y-117872385D01*
X115668608Y-117872385D01*
X115674494Y-117977271D01*
X115699129Y-118063705D01*
X115741012Y-118135629D01*
X115800010Y-118194133D01*
X115876204Y-118237579D01*
X115973626Y-118265684D01*
X116097851Y-118275947D01*
X116247947Y-118266519D01*
X116375391Y-118239992D01*
X116483724Y-118198278D01*
X116532176Y-117965270D01*
X116432829Y-118010325D01*
X116328496Y-118037304D01*
X116217652Y-118046420D01*
X116128812Y-118038461D01*
X116066377Y-118017593D01*
X116023454Y-117986511D01*
X115995588Y-117945145D01*
X115981513Y-117890683D01*
X115983454Y-117818175D01*
X116652893Y-117818175D01*
X116681011Y-117682803D01*
X116696673Y-117564213D01*
X116692359Y-117466022D01*
X116671219Y-117384154D01*
X116634666Y-117315248D01*
X116582194Y-117258371D01*
X116514196Y-117216532D01*
X116427083Y-117189605D01*
X116315654Y-117179785D01*
X116210549Y-117189134D01*
X116110406Y-117217003D01*
X116013675Y-117264011D01*
X115919157Y-117331918D01*
X115838222Y-117413277D01*
X115772458Y-117507861D01*
X115721308Y-117617371D01*
X115720723Y-117619422D01*
X115685142Y-117744169D01*
X115668608Y-117872385D01*
X115425657Y-117872385D01*
X115564791Y-117203232D01*
X115249168Y-117203232D01*
X115124604Y-117802146D01*
X115104658Y-117868912D01*
X115076073Y-117923245D01*
X115039150Y-117967193D01*
X114993743Y-118001281D01*
X114944608Y-118021257D01*
X114890223Y-118028010D01*
X114829723Y-118019041D01*
X114789877Y-117995146D01*
X114764805Y-117956273D01*
X114754284Y-117896624D01*
X114763919Y-117806268D01*
X114889307Y-117203232D01*
X114573592Y-117203232D01*
X114442159Y-117835211D01*
X114424099Y-117969572D01*
X113976344Y-117969572D01*
X114167386Y-117050642D01*
X114577348Y-117050642D01*
X114580968Y-117033239D01*
X115988308Y-117033239D01*
X116195853Y-117033239D01*
X116383340Y-116839433D01*
X116501493Y-117033239D01*
X116709038Y-117033239D01*
X116541793Y-116699115D01*
X116293306Y-116699115D01*
X115988308Y-117033239D01*
X114580968Y-117033239D01*
X114633401Y-116781181D01*
X113490711Y-116781181D01*
X113434657Y-117050642D01*
X112011546Y-117050642D01*
X112084605Y-116699115D01*
X111767883Y-116699115D01*
X111444933Y-118252500D01*
X111167137Y-118252500D01*
X111300402Y-117611362D01*
X111318382Y-117479090D01*
X111313917Y-117380328D01*
X111292556Y-117307117D01*
X111257147Y-117253102D01*
X111207424Y-117214159D01*
X111140079Y-117189073D01*
X111049351Y-117179785D01*
X110966104Y-117187297D01*
X110888739Y-117209472D01*
X110815850Y-117246544D01*
X110746398Y-117299759D01*
X110679781Y-117371302D01*
X110675751Y-117371302D01*
X110710739Y-117203232D01*
X110394017Y-117203232D01*
X110175847Y-118252500D01*
X109896128Y-118252500D01*
X110114298Y-117203232D01*
X109797576Y-117203232D01*
X109579406Y-118252500D01*
X109239054Y-118252500D01*
X109518023Y-116910773D01*
X109842376Y-116910773D01*
X109851250Y-116949975D01*
X109872131Y-116984421D01*
X109902646Y-117010820D01*
X109942104Y-117027286D01*
X109993306Y-117033239D01*
X110045829Y-117027842D01*
X110092602Y-117012115D01*
X110134906Y-116985978D01*
X110170416Y-116951179D01*
X110195440Y-116911077D01*
X110210743Y-116864620D01*
X110214522Y-116817150D01*
X110205646Y-116778258D01*
X110184915Y-116745368D01*
X110154636Y-116720532D01*
X110114897Y-116704837D01*
X110062732Y-116699115D01*
X110010871Y-116704379D01*
X109964315Y-116719760D01*
X109921865Y-116745368D01*
X109886177Y-116779495D01*
X109861145Y-116818895D01*
X109845936Y-116864620D01*
X109842376Y-116910773D01*
X109518023Y-116910773D01*
X109544968Y-116781181D01*
X109082983Y-116781181D01*
X108608449Y-117651204D01*
X108507150Y-117863604D01*
X108501105Y-117863604D01*
X108502180Y-117758200D01*
X108493686Y-117653311D01*
X108381303Y-116781181D01*
X107907320Y-116781181D01*
X107601405Y-118252500D01*
X107434738Y-118252500D01*
X107434738Y-116532448D01*
X116875705Y-116532448D01*
X116875705Y-118823633D01*
G37*
G36*
X131197148Y-159356071D02*
G01*
X131193024Y-159403243D01*
X131181990Y-159438092D01*
X131165263Y-159463540D01*
X131142884Y-159481571D01*
X131113708Y-159492953D01*
X131075613Y-159497097D01*
X131036444Y-159492906D01*
X131006530Y-159481418D01*
X130983673Y-159463284D01*
X130966657Y-159437796D01*
X130955468Y-159403020D01*
X130951293Y-159356071D01*
X130951293Y-159286657D01*
X131197148Y-159286657D01*
X131197148Y-159356071D01*
G37*
G36*
X130885787Y-157575247D02*
G01*
X130885787Y-157594347D01*
X130882403Y-157634353D01*
X130873156Y-157665506D01*
X130858872Y-157689700D01*
X130838819Y-157708592D01*
X130814535Y-157719922D01*
X130784671Y-157723894D01*
X130753355Y-157719847D01*
X130727811Y-157708315D01*
X130706660Y-157689162D01*
X130691413Y-157664507D01*
X130681638Y-157633150D01*
X130678083Y-157593273D01*
X130678083Y-157497627D01*
X130885787Y-157497627D01*
X130885787Y-157575247D01*
G37*
G36*
X131202619Y-157563768D02*
G01*
X131197993Y-157616579D01*
X131186126Y-157651889D01*
X131168864Y-157674644D01*
X131146218Y-157688003D01*
X131116353Y-157692728D01*
X131086846Y-157689030D01*
X131062979Y-157678548D01*
X131043422Y-157661270D01*
X131029243Y-157638909D01*
X131020214Y-157610756D01*
X131016946Y-157575247D01*
X131016946Y-157497627D01*
X131202619Y-157497627D01*
X131202619Y-157563768D01*
G37*
G36*
X131421592Y-159771757D02*
G01*
X130459111Y-159771757D01*
X130459111Y-159286657D01*
X130548000Y-159286657D01*
X130817399Y-159286657D01*
X130817399Y-159356071D01*
X130817399Y-159370823D01*
X130822478Y-159441730D01*
X130836832Y-159502102D01*
X130859599Y-159553687D01*
X130890575Y-159597871D01*
X130930038Y-159635094D01*
X130974377Y-159661315D01*
X131024587Y-159677316D01*
X131082159Y-159682868D01*
X131142716Y-159677924D01*
X131192332Y-159664136D01*
X131233106Y-159642431D01*
X131266582Y-159612834D01*
X131293609Y-159574468D01*
X131314248Y-159525645D01*
X131327766Y-159464014D01*
X131332703Y-159386699D01*
X131332703Y-159110167D01*
X130548000Y-159110167D01*
X130548000Y-159286657D01*
X130459111Y-159286657D01*
X130459111Y-158197627D01*
X130548000Y-158197627D01*
X130981921Y-158197627D01*
X131185522Y-158190544D01*
X131185522Y-158195478D01*
X131076053Y-158220049D01*
X130548000Y-158406943D01*
X130548000Y-158551242D01*
X131081524Y-158734864D01*
X131118522Y-158745319D01*
X131185522Y-158759483D01*
X131185522Y-158763831D01*
X131095487Y-158758805D01*
X131017532Y-158757236D01*
X130548000Y-158757236D01*
X130548000Y-158931577D01*
X131332703Y-158931577D01*
X131332703Y-158679665D01*
X130868690Y-158519539D01*
X130818265Y-158504087D01*
X130755411Y-158488374D01*
X130755411Y-158485101D01*
X130811375Y-158473814D01*
X130867567Y-158457208D01*
X131332703Y-158297083D01*
X131332703Y-158038625D01*
X130548000Y-158038625D01*
X130548000Y-158197627D01*
X130459111Y-158197627D01*
X130459111Y-157593273D01*
X130548000Y-157593273D01*
X130548000Y-157622240D01*
X130552476Y-157689206D01*
X130565033Y-157745475D01*
X130584749Y-157792806D01*
X130611258Y-157832631D01*
X130645588Y-157866265D01*
X130684835Y-157890038D01*
X130729983Y-157904623D01*
X130782521Y-157909714D01*
X130829832Y-157904036D01*
X130871175Y-157887489D01*
X130908013Y-157859693D01*
X130937220Y-157823572D01*
X130957936Y-157779621D01*
X130969953Y-157726092D01*
X130972152Y-157726092D01*
X130988044Y-157768520D01*
X131010029Y-157804762D01*
X131038244Y-157835659D01*
X131071926Y-157859615D01*
X131108526Y-157873752D01*
X131149130Y-157878548D01*
X131191171Y-157873963D01*
X131226950Y-157860809D01*
X131257841Y-157839172D01*
X131284636Y-157808060D01*
X131304228Y-157772370D01*
X131319284Y-157728075D01*
X131329129Y-157673432D01*
X131332703Y-157606413D01*
X131332703Y-157321137D01*
X130548000Y-157321137D01*
X130548000Y-157593273D01*
X130459111Y-157593273D01*
X130459111Y-157156029D01*
X130785599Y-157156029D01*
X130907525Y-157156029D01*
X130907525Y-156857125D01*
X130785599Y-156857125D01*
X130785599Y-157156029D01*
X130459111Y-157156029D01*
X130459111Y-156362582D01*
X130548000Y-156362582D01*
X130548000Y-156539658D01*
X131188990Y-156539658D01*
X131188990Y-156763189D01*
X131332703Y-156763189D01*
X131332703Y-156140174D01*
X131188990Y-156140174D01*
X131188990Y-156362582D01*
X130548000Y-156362582D01*
X130459111Y-156362582D01*
X130459111Y-155300321D01*
X130548000Y-155300321D01*
X130981921Y-155300321D01*
X131185522Y-155293238D01*
X131185522Y-155298171D01*
X131076053Y-155322742D01*
X130548000Y-155509637D01*
X130548000Y-155653936D01*
X131081524Y-155837557D01*
X131118522Y-155848013D01*
X131185522Y-155862177D01*
X131185522Y-155866524D01*
X131095487Y-155861498D01*
X131017532Y-155859930D01*
X130548000Y-155859930D01*
X130548000Y-156034270D01*
X131332703Y-156034270D01*
X131332703Y-155782358D01*
X130868690Y-155622233D01*
X130818265Y-155606781D01*
X130755411Y-155591067D01*
X130755411Y-155587795D01*
X130811375Y-155576508D01*
X130867567Y-155559902D01*
X131332703Y-155399776D01*
X131332703Y-155141319D01*
X130548000Y-155141319D01*
X130548000Y-155300321D01*
X130459111Y-155300321D01*
X130459111Y-155052430D01*
X131421592Y-155052430D01*
X131421592Y-159771757D01*
G37*
G36*
X116331509Y-161407176D02*
G01*
X116372967Y-161431380D01*
X116398943Y-161470424D01*
X116409985Y-161529853D01*
X116400651Y-161619422D01*
X116022746Y-161619422D01*
X116048374Y-161559093D01*
X116081800Y-161506743D01*
X116123222Y-161461427D01*
X116171887Y-161425083D01*
X116219798Y-161404670D01*
X116268302Y-161398046D01*
X116331509Y-161407176D01*
G37*
G36*
X116875705Y-162823633D02*
G01*
X107434738Y-162823633D01*
X107434738Y-162553519D01*
X115900903Y-162553519D01*
X115908546Y-162586355D01*
X115926484Y-162615566D01*
X115952456Y-162638001D01*
X115985740Y-162651943D01*
X116028608Y-162656966D01*
X116091932Y-162646785D01*
X116146669Y-162616574D01*
X116188285Y-162570827D01*
X116210416Y-162515274D01*
X116213523Y-162475548D01*
X116206051Y-162442785D01*
X116188618Y-162414890D01*
X116163200Y-162393720D01*
X116130163Y-162380424D01*
X116087135Y-162375598D01*
X116024281Y-162385328D01*
X115968707Y-162414341D01*
X115926313Y-162459150D01*
X115903769Y-162515274D01*
X115900903Y-162553519D01*
X107434738Y-162553519D01*
X107434738Y-162252500D01*
X107601405Y-162252500D01*
X107893031Y-162252500D01*
X108062200Y-161438896D01*
X108128512Y-161057144D01*
X108137580Y-161057144D01*
X108139961Y-161262400D01*
X108276890Y-162252500D01*
X108541496Y-162252500D01*
X109086280Y-161252142D01*
X109119969Y-161182516D01*
X109171918Y-161057144D01*
X109179886Y-161057144D01*
X109102308Y-161372126D01*
X108919309Y-162252500D01*
X109239054Y-162252500D01*
X109579406Y-162252500D01*
X109896128Y-162252500D01*
X110175847Y-162252500D01*
X110492569Y-162252500D01*
X110616675Y-161655601D01*
X110635948Y-161592332D01*
X110664944Y-161538305D01*
X110703778Y-161492110D01*
X110751092Y-161455600D01*
X110800165Y-161434664D01*
X110852430Y-161427722D01*
X110910631Y-161437020D01*
X110949398Y-161462149D01*
X110974044Y-161504059D01*
X110983879Y-161569863D01*
X110972323Y-161670988D01*
X110851423Y-162252500D01*
X111167137Y-162252500D01*
X111444933Y-162252500D01*
X111761655Y-162252500D01*
X111885761Y-161655601D01*
X111904947Y-161592262D01*
X111933624Y-161538235D01*
X111971856Y-161492110D01*
X112018631Y-161455745D01*
X112068019Y-161434739D01*
X112121516Y-161427722D01*
X112177955Y-161436610D01*
X112215465Y-161460563D01*
X112239266Y-161500317D01*
X112248865Y-161562463D01*
X112238112Y-161657707D01*
X112114464Y-162252500D01*
X112430178Y-162252500D01*
X112563901Y-161609255D01*
X112581482Y-161478411D01*
X112576555Y-161380480D01*
X112554599Y-161307621D01*
X112518328Y-161253608D01*
X112467288Y-161214474D01*
X112397971Y-161189171D01*
X112304424Y-161179785D01*
X112209645Y-161190610D01*
X112120447Y-161223021D01*
X112034706Y-161278603D01*
X111951065Y-161361044D01*
X111947035Y-161361044D01*
X112011546Y-161050642D01*
X113434657Y-161050642D01*
X113842604Y-161050642D01*
X113592744Y-162252500D01*
X113917525Y-162252500D01*
X113976344Y-161969572D01*
X114424099Y-161969572D01*
X114429113Y-162070111D01*
X114451575Y-162144882D01*
X114488688Y-162200283D01*
X114540896Y-162240402D01*
X114611775Y-162266331D01*
X114707407Y-162275947D01*
X114800346Y-162265026D01*
X114888748Y-162232145D01*
X114974734Y-162175364D01*
X115059666Y-162090566D01*
X115064704Y-162090566D01*
X115030998Y-162252500D01*
X115346621Y-162252500D01*
X115425657Y-161872385D01*
X115668608Y-161872385D01*
X115674494Y-161977271D01*
X115699129Y-162063705D01*
X115741012Y-162135629D01*
X115800010Y-162194133D01*
X115876204Y-162237579D01*
X115973626Y-162265684D01*
X116097851Y-162275947D01*
X116247947Y-162266519D01*
X116375391Y-162239992D01*
X116483724Y-162198278D01*
X116532176Y-161965270D01*
X116432829Y-162010325D01*
X116328496Y-162037304D01*
X116217652Y-162046420D01*
X116128812Y-162038461D01*
X116066377Y-162017593D01*
X116023454Y-161986511D01*
X115995588Y-161945145D01*
X115981513Y-161890683D01*
X115983454Y-161818175D01*
X116652893Y-161818175D01*
X116681011Y-161682803D01*
X116696673Y-161564213D01*
X116692359Y-161466022D01*
X116671219Y-161384154D01*
X116634666Y-161315248D01*
X116582194Y-161258371D01*
X116514196Y-161216532D01*
X116427083Y-161189605D01*
X116315654Y-161179785D01*
X116210549Y-161189134D01*
X116110406Y-161217003D01*
X116013675Y-161264011D01*
X115919157Y-161331918D01*
X115838222Y-161413277D01*
X115772458Y-161507861D01*
X115721308Y-161617371D01*
X115720723Y-161619422D01*
X115685142Y-161744169D01*
X115668608Y-161872385D01*
X115425657Y-161872385D01*
X115564791Y-161203232D01*
X115249168Y-161203232D01*
X115124604Y-161802146D01*
X115104658Y-161868912D01*
X115076073Y-161923245D01*
X115039150Y-161967193D01*
X114993743Y-162001281D01*
X114944608Y-162021257D01*
X114890223Y-162028010D01*
X114829723Y-162019041D01*
X114789877Y-161995146D01*
X114764805Y-161956273D01*
X114754284Y-161896624D01*
X114763919Y-161806268D01*
X114889307Y-161203232D01*
X114573592Y-161203232D01*
X114442159Y-161835211D01*
X114424099Y-161969572D01*
X113976344Y-161969572D01*
X114167386Y-161050642D01*
X114577348Y-161050642D01*
X114580968Y-161033239D01*
X115988308Y-161033239D01*
X116195853Y-161033239D01*
X116383340Y-160839433D01*
X116501493Y-161033239D01*
X116709038Y-161033239D01*
X116541793Y-160699115D01*
X116293306Y-160699115D01*
X115988308Y-161033239D01*
X114580968Y-161033239D01*
X114633401Y-160781181D01*
X113490711Y-160781181D01*
X113434657Y-161050642D01*
X112011546Y-161050642D01*
X112084605Y-160699115D01*
X111767883Y-160699115D01*
X111444933Y-162252500D01*
X111167137Y-162252500D01*
X111300402Y-161611362D01*
X111318382Y-161479090D01*
X111313917Y-161380328D01*
X111292556Y-161307117D01*
X111257147Y-161253102D01*
X111207424Y-161214159D01*
X111140079Y-161189073D01*
X111049351Y-161179785D01*
X110966104Y-161187297D01*
X110888739Y-161209472D01*
X110815850Y-161246544D01*
X110746398Y-161299759D01*
X110679781Y-161371302D01*
X110675751Y-161371302D01*
X110710739Y-161203232D01*
X110394017Y-161203232D01*
X110175847Y-162252500D01*
X109896128Y-162252500D01*
X110114298Y-161203232D01*
X109797576Y-161203232D01*
X109579406Y-162252500D01*
X109239054Y-162252500D01*
X109518023Y-160910773D01*
X109842376Y-160910773D01*
X109851250Y-160949975D01*
X109872131Y-160984421D01*
X109902646Y-161010820D01*
X109942104Y-161027286D01*
X109993306Y-161033239D01*
X110045829Y-161027842D01*
X110092602Y-161012115D01*
X110134906Y-160985978D01*
X110170416Y-160951179D01*
X110195440Y-160911077D01*
X110210743Y-160864620D01*
X110214522Y-160817150D01*
X110205646Y-160778258D01*
X110184915Y-160745368D01*
X110154636Y-160720532D01*
X110114897Y-160704837D01*
X110062732Y-160699115D01*
X110010871Y-160704379D01*
X109964315Y-160719760D01*
X109921865Y-160745368D01*
X109886177Y-160779495D01*
X109861145Y-160818895D01*
X109845936Y-160864620D01*
X109842376Y-160910773D01*
X109518023Y-160910773D01*
X109544968Y-160781181D01*
X109082983Y-160781181D01*
X108608449Y-161651204D01*
X108507150Y-161863604D01*
X108501105Y-161863604D01*
X108502180Y-161758200D01*
X108493686Y-161653311D01*
X108381303Y-160781181D01*
X107907320Y-160781181D01*
X107601405Y-162252500D01*
X107434738Y-162252500D01*
X107434738Y-160532448D01*
X116875705Y-160532448D01*
X116875705Y-162823633D01*
G37*
X140693775Y-104294260D02*
X139893775Y-104294260D01*
X139893775Y-104294260D02*
X139893775Y-103989498D01*
X139893775Y-103989498D02*
X139931870Y-103913308D01*
X139931870Y-103913308D02*
X139969965Y-103875213D01*
X139969965Y-103875213D02*
X140046156Y-103837117D01*
X140046156Y-103837117D02*
X140160441Y-103837117D01*
X140160441Y-103837117D02*
X140236632Y-103875213D01*
X140236632Y-103875213D02*
X140274727Y-103913308D01*
X140274727Y-103913308D02*
X140312822Y-103989498D01*
X140312822Y-103989498D02*
X140312822Y-104294260D01*
X139893775Y-103570451D02*
X140693775Y-103379975D01*
X140693775Y-103379975D02*
X140122346Y-103227594D01*
X140122346Y-103227594D02*
X140693775Y-103075213D01*
X140693775Y-103075213D02*
X139893775Y-102884737D01*
X140693775Y-102122831D02*
X140312822Y-102389498D01*
X140693775Y-102579974D02*
X139893775Y-102579974D01*
X139893775Y-102579974D02*
X139893775Y-102275212D01*
X139893775Y-102275212D02*
X139931870Y-102199022D01*
X139931870Y-102199022D02*
X139969965Y-102160927D01*
X139969965Y-102160927D02*
X140046156Y-102122831D01*
X140046156Y-102122831D02*
X140160441Y-102122831D01*
X140160441Y-102122831D02*
X140236632Y-102160927D01*
X140236632Y-102160927D02*
X140274727Y-102199022D01*
X140274727Y-102199022D02*
X140312822Y-102275212D01*
X140312822Y-102275212D02*
X140312822Y-102579974D01*
X140693775Y-126294260D02*
X139893775Y-126294260D01*
X139893775Y-126294260D02*
X139893775Y-125989498D01*
X139893775Y-125989498D02*
X139931870Y-125913308D01*
X139931870Y-125913308D02*
X139969965Y-125875213D01*
X139969965Y-125875213D02*
X140046156Y-125837117D01*
X140046156Y-125837117D02*
X140160441Y-125837117D01*
X140160441Y-125837117D02*
X140236632Y-125875213D01*
X140236632Y-125875213D02*
X140274727Y-125913308D01*
X140274727Y-125913308D02*
X140312822Y-125989498D01*
X140312822Y-125989498D02*
X140312822Y-126294260D01*
X139893775Y-125570451D02*
X140693775Y-125379975D01*
X140693775Y-125379975D02*
X140122346Y-125227594D01*
X140122346Y-125227594D02*
X140693775Y-125075213D01*
X140693775Y-125075213D02*
X139893775Y-124884737D01*
X140693775Y-124122831D02*
X140312822Y-124389498D01*
X140693775Y-124579974D02*
X139893775Y-124579974D01*
X139893775Y-124579974D02*
X139893775Y-124275212D01*
X139893775Y-124275212D02*
X139931870Y-124199022D01*
X139931870Y-124199022D02*
X139969965Y-124160927D01*
X139969965Y-124160927D02*
X140046156Y-124122831D01*
X140046156Y-124122831D02*
X140160441Y-124122831D01*
X140160441Y-124122831D02*
X140236632Y-124160927D01*
X140236632Y-124160927D02*
X140274727Y-124199022D01*
X140274727Y-124199022D02*
X140312822Y-124275212D01*
X140312822Y-124275212D02*
X140312822Y-124579974D01*
X140693775Y-148294260D02*
X139893775Y-148294260D01*
X139893775Y-148294260D02*
X139893775Y-147989498D01*
X139893775Y-147989498D02*
X139931870Y-147913308D01*
X139931870Y-147913308D02*
X139969965Y-147875213D01*
X139969965Y-147875213D02*
X140046156Y-147837117D01*
X140046156Y-147837117D02*
X140160441Y-147837117D01*
X140160441Y-147837117D02*
X140236632Y-147875213D01*
X140236632Y-147875213D02*
X140274727Y-147913308D01*
X140274727Y-147913308D02*
X140312822Y-147989498D01*
X140312822Y-147989498D02*
X140312822Y-148294260D01*
X139893775Y-147570451D02*
X140693775Y-147379975D01*
X140693775Y-147379975D02*
X140122346Y-147227594D01*
X140122346Y-147227594D02*
X140693775Y-147075213D01*
X140693775Y-147075213D02*
X139893775Y-146884737D01*
X140693775Y-146122831D02*
X140312822Y-146389498D01*
X140693775Y-146579974D02*
X139893775Y-146579974D01*
X139893775Y-146579974D02*
X139893775Y-146275212D01*
X139893775Y-146275212D02*
X139931870Y-146199022D01*
X139931870Y-146199022D02*
X139969965Y-146160927D01*
X139969965Y-146160927D02*
X140046156Y-146122831D01*
X140046156Y-146122831D02*
X140160441Y-146122831D01*
X140160441Y-146122831D02*
X140236632Y-146160927D01*
X140236632Y-146160927D02*
X140274727Y-146199022D01*
X140274727Y-146199022D02*
X140312822Y-146275212D01*
X140312822Y-146275212D02*
X140312822Y-146579974D01*
G36*
X131197148Y-137356071D02*
G01*
X131193024Y-137403243D01*
X131181990Y-137438092D01*
X131165263Y-137463540D01*
X131142884Y-137481571D01*
X131113708Y-137492953D01*
X131075613Y-137497097D01*
X131036444Y-137492906D01*
X131006530Y-137481418D01*
X130983673Y-137463284D01*
X130966657Y-137437796D01*
X130955468Y-137403020D01*
X130951293Y-137356071D01*
X130951293Y-137286657D01*
X131197148Y-137286657D01*
X131197148Y-137356071D01*
G37*
G36*
X130885787Y-135575247D02*
G01*
X130885787Y-135594347D01*
X130882403Y-135634353D01*
X130873156Y-135665506D01*
X130858872Y-135689700D01*
X130838819Y-135708592D01*
X130814535Y-135719922D01*
X130784671Y-135723894D01*
X130753355Y-135719847D01*
X130727811Y-135708315D01*
X130706660Y-135689162D01*
X130691413Y-135664507D01*
X130681638Y-135633150D01*
X130678083Y-135593273D01*
X130678083Y-135497627D01*
X130885787Y-135497627D01*
X130885787Y-135575247D01*
G37*
G36*
X131202619Y-135563768D02*
G01*
X131197993Y-135616579D01*
X131186126Y-135651889D01*
X131168864Y-135674644D01*
X131146218Y-135688003D01*
X131116353Y-135692728D01*
X131086846Y-135689030D01*
X131062979Y-135678548D01*
X131043422Y-135661270D01*
X131029243Y-135638909D01*
X131020214Y-135610756D01*
X131016946Y-135575247D01*
X131016946Y-135497627D01*
X131202619Y-135497627D01*
X131202619Y-135563768D01*
G37*
G36*
X131421592Y-137771757D02*
G01*
X130459111Y-137771757D01*
X130459111Y-137286657D01*
X130548000Y-137286657D01*
X130817399Y-137286657D01*
X130817399Y-137356071D01*
X130817399Y-137370823D01*
X130822478Y-137441730D01*
X130836832Y-137502102D01*
X130859599Y-137553687D01*
X130890575Y-137597871D01*
X130930038Y-137635094D01*
X130974377Y-137661315D01*
X131024587Y-137677316D01*
X131082159Y-137682868D01*
X131142716Y-137677924D01*
X131192332Y-137664136D01*
X131233106Y-137642431D01*
X131266582Y-137612834D01*
X131293609Y-137574468D01*
X131314248Y-137525645D01*
X131327766Y-137464014D01*
X131332703Y-137386699D01*
X131332703Y-137110167D01*
X130548000Y-137110167D01*
X130548000Y-137286657D01*
X130459111Y-137286657D01*
X130459111Y-136197627D01*
X130548000Y-136197627D01*
X130981921Y-136197627D01*
X131185522Y-136190544D01*
X131185522Y-136195478D01*
X131076053Y-136220049D01*
X130548000Y-136406943D01*
X130548000Y-136551242D01*
X131081524Y-136734864D01*
X131118522Y-136745319D01*
X131185522Y-136759483D01*
X131185522Y-136763831D01*
X131095487Y-136758805D01*
X131017532Y-136757236D01*
X130548000Y-136757236D01*
X130548000Y-136931577D01*
X131332703Y-136931577D01*
X131332703Y-136679665D01*
X130868690Y-136519539D01*
X130818265Y-136504087D01*
X130755411Y-136488374D01*
X130755411Y-136485101D01*
X130811375Y-136473814D01*
X130867567Y-136457208D01*
X131332703Y-136297083D01*
X131332703Y-136038625D01*
X130548000Y-136038625D01*
X130548000Y-136197627D01*
X130459111Y-136197627D01*
X130459111Y-135593273D01*
X130548000Y-135593273D01*
X130548000Y-135622240D01*
X130552476Y-135689206D01*
X130565033Y-135745475D01*
X130584749Y-135792806D01*
X130611258Y-135832631D01*
X130645588Y-135866265D01*
X130684835Y-135890038D01*
X130729983Y-135904623D01*
X130782521Y-135909714D01*
X130829832Y-135904036D01*
X130871175Y-135887489D01*
X130908013Y-135859693D01*
X130937220Y-135823572D01*
X130957936Y-135779621D01*
X130969953Y-135726092D01*
X130972152Y-135726092D01*
X130988044Y-135768520D01*
X131010029Y-135804762D01*
X131038244Y-135835659D01*
X131071926Y-135859615D01*
X131108526Y-135873752D01*
X131149130Y-135878548D01*
X131191171Y-135873963D01*
X131226950Y-135860809D01*
X131257841Y-135839172D01*
X131284636Y-135808060D01*
X131304228Y-135772370D01*
X131319284Y-135728075D01*
X131329129Y-135673432D01*
X131332703Y-135606413D01*
X131332703Y-135321137D01*
X130548000Y-135321137D01*
X130548000Y-135593273D01*
X130459111Y-135593273D01*
X130459111Y-135156029D01*
X130785599Y-135156029D01*
X130907525Y-135156029D01*
X130907525Y-134857125D01*
X130785599Y-134857125D01*
X130785599Y-135156029D01*
X130459111Y-135156029D01*
X130459111Y-134362582D01*
X130548000Y-134362582D01*
X130548000Y-134539658D01*
X131188990Y-134539658D01*
X131188990Y-134763189D01*
X131332703Y-134763189D01*
X131332703Y-134140174D01*
X131188990Y-134140174D01*
X131188990Y-134362582D01*
X130548000Y-134362582D01*
X130459111Y-134362582D01*
X130459111Y-133300321D01*
X130548000Y-133300321D01*
X130981921Y-133300321D01*
X131185522Y-133293238D01*
X131185522Y-133298171D01*
X131076053Y-133322742D01*
X130548000Y-133509637D01*
X130548000Y-133653936D01*
X131081524Y-133837557D01*
X131118522Y-133848013D01*
X131185522Y-133862177D01*
X131185522Y-133866524D01*
X131095487Y-133861498D01*
X131017532Y-133859930D01*
X130548000Y-133859930D01*
X130548000Y-134034270D01*
X131332703Y-134034270D01*
X131332703Y-133782358D01*
X130868690Y-133622233D01*
X130818265Y-133606781D01*
X130755411Y-133591067D01*
X130755411Y-133587795D01*
X130811375Y-133576508D01*
X130867567Y-133559902D01*
X131332703Y-133399776D01*
X131332703Y-133141319D01*
X130548000Y-133141319D01*
X130548000Y-133300321D01*
X130459111Y-133300321D01*
X130459111Y-133052430D01*
X131421592Y-133052430D01*
X131421592Y-137771757D01*
G37*
G36*
X131197148Y-115356071D02*
G01*
X131193024Y-115403243D01*
X131181990Y-115438092D01*
X131165263Y-115463540D01*
X131142884Y-115481571D01*
X131113708Y-115492953D01*
X131075613Y-115497097D01*
X131036444Y-115492906D01*
X131006530Y-115481418D01*
X130983673Y-115463284D01*
X130966657Y-115437796D01*
X130955468Y-115403020D01*
X130951293Y-115356071D01*
X130951293Y-115286657D01*
X131197148Y-115286657D01*
X131197148Y-115356071D01*
G37*
G36*
X130885787Y-113575247D02*
G01*
X130885787Y-113594347D01*
X130882403Y-113634353D01*
X130873156Y-113665506D01*
X130858872Y-113689700D01*
X130838819Y-113708592D01*
X130814535Y-113719922D01*
X130784671Y-113723894D01*
X130753355Y-113719847D01*
X130727811Y-113708315D01*
X130706660Y-113689162D01*
X130691413Y-113664507D01*
X130681638Y-113633150D01*
X130678083Y-113593273D01*
X130678083Y-113497627D01*
X130885787Y-113497627D01*
X130885787Y-113575247D01*
G37*
G36*
X131202619Y-113563768D02*
G01*
X131197993Y-113616579D01*
X131186126Y-113651889D01*
X131168864Y-113674644D01*
X131146218Y-113688003D01*
X131116353Y-113692728D01*
X131086846Y-113689030D01*
X131062979Y-113678548D01*
X131043422Y-113661270D01*
X131029243Y-113638909D01*
X131020214Y-113610756D01*
X131016946Y-113575247D01*
X131016946Y-113497627D01*
X131202619Y-113497627D01*
X131202619Y-113563768D01*
G37*
G36*
X131421592Y-115771757D02*
G01*
X130459111Y-115771757D01*
X130459111Y-115286657D01*
X130548000Y-115286657D01*
X130817399Y-115286657D01*
X130817399Y-115356071D01*
X130817399Y-115370823D01*
X130822478Y-115441730D01*
X130836832Y-115502102D01*
X130859599Y-115553687D01*
X130890575Y-115597871D01*
X130930038Y-115635094D01*
X130974377Y-115661315D01*
X131024587Y-115677316D01*
X131082159Y-115682868D01*
X131142716Y-115677924D01*
X131192332Y-115664136D01*
X131233106Y-115642431D01*
X131266582Y-115612834D01*
X131293609Y-115574468D01*
X131314248Y-115525645D01*
X131327766Y-115464014D01*
X131332703Y-115386699D01*
X131332703Y-115110167D01*
X130548000Y-115110167D01*
X130548000Y-115286657D01*
X130459111Y-115286657D01*
X130459111Y-114197627D01*
X130548000Y-114197627D01*
X130981921Y-114197627D01*
X131185522Y-114190544D01*
X131185522Y-114195478D01*
X131076053Y-114220049D01*
X130548000Y-114406943D01*
X130548000Y-114551242D01*
X131081524Y-114734864D01*
X131118522Y-114745319D01*
X131185522Y-114759483D01*
X131185522Y-114763831D01*
X131095487Y-114758805D01*
X131017532Y-114757236D01*
X130548000Y-114757236D01*
X130548000Y-114931577D01*
X131332703Y-114931577D01*
X131332703Y-114679665D01*
X130868690Y-114519539D01*
X130818265Y-114504087D01*
X130755411Y-114488374D01*
X130755411Y-114485101D01*
X130811375Y-114473814D01*
X130867567Y-114457208D01*
X131332703Y-114297083D01*
X131332703Y-114038625D01*
X130548000Y-114038625D01*
X130548000Y-114197627D01*
X130459111Y-114197627D01*
X130459111Y-113593273D01*
X130548000Y-113593273D01*
X130548000Y-113622240D01*
X130552476Y-113689206D01*
X130565033Y-113745475D01*
X130584749Y-113792806D01*
X130611258Y-113832631D01*
X130645588Y-113866265D01*
X130684835Y-113890038D01*
X130729983Y-113904623D01*
X130782521Y-113909714D01*
X130829832Y-113904036D01*
X130871175Y-113887489D01*
X130908013Y-113859693D01*
X130937220Y-113823572D01*
X130957936Y-113779621D01*
X130969953Y-113726092D01*
X130972152Y-113726092D01*
X130988044Y-113768520D01*
X131010029Y-113804762D01*
X131038244Y-113835659D01*
X131071926Y-113859615D01*
X131108526Y-113873752D01*
X131149130Y-113878548D01*
X131191171Y-113873963D01*
X131226950Y-113860809D01*
X131257841Y-113839172D01*
X131284636Y-113808060D01*
X131304228Y-113772370D01*
X131319284Y-113728075D01*
X131329129Y-113673432D01*
X131332703Y-113606413D01*
X131332703Y-113321137D01*
X130548000Y-113321137D01*
X130548000Y-113593273D01*
X130459111Y-113593273D01*
X130459111Y-113156029D01*
X130785599Y-113156029D01*
X130907525Y-113156029D01*
X130907525Y-112857125D01*
X130785599Y-112857125D01*
X130785599Y-113156029D01*
X130459111Y-113156029D01*
X130459111Y-112362582D01*
X130548000Y-112362582D01*
X130548000Y-112539658D01*
X131188990Y-112539658D01*
X131188990Y-112763189D01*
X131332703Y-112763189D01*
X131332703Y-112140174D01*
X131188990Y-112140174D01*
X131188990Y-112362582D01*
X130548000Y-112362582D01*
X130459111Y-112362582D01*
X130459111Y-111300321D01*
X130548000Y-111300321D01*
X130981921Y-111300321D01*
X131185522Y-111293238D01*
X131185522Y-111298171D01*
X131076053Y-111322742D01*
X130548000Y-111509637D01*
X130548000Y-111653936D01*
X131081524Y-111837557D01*
X131118522Y-111848013D01*
X131185522Y-111862177D01*
X131185522Y-111866524D01*
X131095487Y-111861498D01*
X131017532Y-111859930D01*
X130548000Y-111859930D01*
X130548000Y-112034270D01*
X131332703Y-112034270D01*
X131332703Y-111782358D01*
X130868690Y-111622233D01*
X130818265Y-111606781D01*
X130755411Y-111591067D01*
X130755411Y-111587795D01*
X130811375Y-111576508D01*
X130867567Y-111559902D01*
X131332703Y-111399776D01*
X131332703Y-111141319D01*
X130548000Y-111141319D01*
X130548000Y-111300321D01*
X130459111Y-111300321D01*
X130459111Y-111052430D01*
X131421592Y-111052430D01*
X131421592Y-115771757D01*
G37*
X116179524Y-150511775D02*
X116179524Y-149711775D01*
X116179524Y-149711775D02*
X116370000Y-149711775D01*
X116370000Y-149711775D02*
X116484286Y-149749870D01*
X116484286Y-149749870D02*
X116560476Y-149826060D01*
X116560476Y-149826060D02*
X116598571Y-149902251D01*
X116598571Y-149902251D02*
X116636667Y-150054632D01*
X116636667Y-150054632D02*
X116636667Y-150168918D01*
X116636667Y-150168918D02*
X116598571Y-150321299D01*
X116598571Y-150321299D02*
X116560476Y-150397489D01*
X116560476Y-150397489D02*
X116484286Y-150473680D01*
X116484286Y-150473680D02*
X116370000Y-150511775D01*
X116370000Y-150511775D02*
X116179524Y-150511775D01*
X116941428Y-149787965D02*
X116979524Y-149749870D01*
X116979524Y-149749870D02*
X117055714Y-149711775D01*
X117055714Y-149711775D02*
X117246190Y-149711775D01*
X117246190Y-149711775D02*
X117322381Y-149749870D01*
X117322381Y-149749870D02*
X117360476Y-149787965D01*
X117360476Y-149787965D02*
X117398571Y-149864156D01*
X117398571Y-149864156D02*
X117398571Y-149940346D01*
X117398571Y-149940346D02*
X117360476Y-150054632D01*
X117360476Y-150054632D02*
X116903333Y-150511775D01*
X116903333Y-150511775D02*
X117398571Y-150511775D01*
X128396667Y-154741775D02*
X128130000Y-154360822D01*
X127939524Y-154741775D02*
X127939524Y-153941775D01*
X127939524Y-153941775D02*
X128244286Y-153941775D01*
X128244286Y-153941775D02*
X128320476Y-153979870D01*
X128320476Y-153979870D02*
X128358571Y-154017965D01*
X128358571Y-154017965D02*
X128396667Y-154094156D01*
X128396667Y-154094156D02*
X128396667Y-154208441D01*
X128396667Y-154208441D02*
X128358571Y-154284632D01*
X128358571Y-154284632D02*
X128320476Y-154322727D01*
X128320476Y-154322727D02*
X128244286Y-154360822D01*
X128244286Y-154360822D02*
X127939524Y-154360822D01*
X129082381Y-153941775D02*
X128930000Y-153941775D01*
X128930000Y-153941775D02*
X128853809Y-153979870D01*
X128853809Y-153979870D02*
X128815714Y-154017965D01*
X128815714Y-154017965D02*
X128739524Y-154132251D01*
X128739524Y-154132251D02*
X128701428Y-154284632D01*
X128701428Y-154284632D02*
X128701428Y-154589394D01*
X128701428Y-154589394D02*
X128739524Y-154665584D01*
X128739524Y-154665584D02*
X128777619Y-154703680D01*
X128777619Y-154703680D02*
X128853809Y-154741775D01*
X128853809Y-154741775D02*
X129006190Y-154741775D01*
X129006190Y-154741775D02*
X129082381Y-154703680D01*
X129082381Y-154703680D02*
X129120476Y-154665584D01*
X129120476Y-154665584D02*
X129158571Y-154589394D01*
X129158571Y-154589394D02*
X129158571Y-154398918D01*
X129158571Y-154398918D02*
X129120476Y-154322727D01*
X129120476Y-154322727D02*
X129082381Y-154284632D01*
X129082381Y-154284632D02*
X129006190Y-154246537D01*
X129006190Y-154246537D02*
X128853809Y-154246537D01*
X128853809Y-154246537D02*
X128777619Y-154284632D01*
X128777619Y-154284632D02*
X128739524Y-154322727D01*
X128739524Y-154322727D02*
X128701428Y-154398918D01*
D11*
X135965180Y-103258095D02*
X135155657Y-103258095D01*
X135155657Y-103258095D02*
X135060419Y-103305714D01*
X135060419Y-103305714D02*
X135012800Y-103353333D01*
X135012800Y-103353333D02*
X134965180Y-103448571D01*
X134965180Y-103448571D02*
X134965180Y-103639047D01*
X134965180Y-103639047D02*
X135012800Y-103734285D01*
X135012800Y-103734285D02*
X135060419Y-103781904D01*
X135060419Y-103781904D02*
X135155657Y-103829523D01*
X135155657Y-103829523D02*
X135965180Y-103829523D01*
X135869942Y-104258095D02*
X135917561Y-104305714D01*
X135917561Y-104305714D02*
X135965180Y-104400952D01*
X135965180Y-104400952D02*
X135965180Y-104639047D01*
X135965180Y-104639047D02*
X135917561Y-104734285D01*
X135917561Y-104734285D02*
X135869942Y-104781904D01*
X135869942Y-104781904D02*
X135774704Y-104829523D01*
X135774704Y-104829523D02*
X135679466Y-104829523D01*
X135679466Y-104829523D02*
X135536609Y-104781904D01*
X135536609Y-104781904D02*
X134965180Y-104210476D01*
X134965180Y-104210476D02*
X134965180Y-104829523D01*
D10*
X140446667Y-127881775D02*
X140180000Y-127500822D01*
X139989524Y-127881775D02*
X139989524Y-127081775D01*
X139989524Y-127081775D02*
X140294286Y-127081775D01*
X140294286Y-127081775D02*
X140370476Y-127119870D01*
X140370476Y-127119870D02*
X140408571Y-127157965D01*
X140408571Y-127157965D02*
X140446667Y-127234156D01*
X140446667Y-127234156D02*
X140446667Y-127348441D01*
X140446667Y-127348441D02*
X140408571Y-127424632D01*
X140408571Y-127424632D02*
X140370476Y-127462727D01*
X140370476Y-127462727D02*
X140294286Y-127500822D01*
X140294286Y-127500822D02*
X139989524Y-127500822D01*
X140751428Y-127157965D02*
X140789524Y-127119870D01*
X140789524Y-127119870D02*
X140865714Y-127081775D01*
X140865714Y-127081775D02*
X141056190Y-127081775D01*
X141056190Y-127081775D02*
X141132381Y-127119870D01*
X141132381Y-127119870D02*
X141170476Y-127157965D01*
X141170476Y-127157965D02*
X141208571Y-127234156D01*
X141208571Y-127234156D02*
X141208571Y-127310346D01*
X141208571Y-127310346D02*
X141170476Y-127424632D01*
X141170476Y-127424632D02*
X140713333Y-127881775D01*
X140713333Y-127881775D02*
X141208571Y-127881775D01*
X114131775Y-109143332D02*
X113750822Y-109409999D01*
X114131775Y-109600475D02*
X113331775Y-109600475D01*
X113331775Y-109600475D02*
X113331775Y-109295713D01*
X113331775Y-109295713D02*
X113369870Y-109219523D01*
X113369870Y-109219523D02*
X113407965Y-109181428D01*
X113407965Y-109181428D02*
X113484156Y-109143332D01*
X113484156Y-109143332D02*
X113598441Y-109143332D01*
X113598441Y-109143332D02*
X113674632Y-109181428D01*
X113674632Y-109181428D02*
X113712727Y-109219523D01*
X113712727Y-109219523D02*
X113750822Y-109295713D01*
X113750822Y-109295713D02*
X113750822Y-109600475D01*
X113598441Y-108457618D02*
X114131775Y-108457618D01*
X113293680Y-108648094D02*
X113865108Y-108838571D01*
X113865108Y-108838571D02*
X113865108Y-108343332D01*
X116179524Y-106511775D02*
X116179524Y-105711775D01*
X116179524Y-105711775D02*
X116370000Y-105711775D01*
X116370000Y-105711775D02*
X116484286Y-105749870D01*
X116484286Y-105749870D02*
X116560476Y-105826060D01*
X116560476Y-105826060D02*
X116598571Y-105902251D01*
X116598571Y-105902251D02*
X116636667Y-106054632D01*
X116636667Y-106054632D02*
X116636667Y-106168918D01*
X116636667Y-106168918D02*
X116598571Y-106321299D01*
X116598571Y-106321299D02*
X116560476Y-106397489D01*
X116560476Y-106397489D02*
X116484286Y-106473680D01*
X116484286Y-106473680D02*
X116370000Y-106511775D01*
X116370000Y-106511775D02*
X116179524Y-106511775D01*
X116941428Y-105787965D02*
X116979524Y-105749870D01*
X116979524Y-105749870D02*
X117055714Y-105711775D01*
X117055714Y-105711775D02*
X117246190Y-105711775D01*
X117246190Y-105711775D02*
X117322381Y-105749870D01*
X117322381Y-105749870D02*
X117360476Y-105787965D01*
X117360476Y-105787965D02*
X117398571Y-105864156D01*
X117398571Y-105864156D02*
X117398571Y-105940346D01*
X117398571Y-105940346D02*
X117360476Y-106054632D01*
X117360476Y-106054632D02*
X116903333Y-106511775D01*
X116903333Y-106511775D02*
X117398571Y-106511775D01*
X129325584Y-147654285D02*
X129363680Y-147692381D01*
X129363680Y-147692381D02*
X129401775Y-147806666D01*
X129401775Y-147806666D02*
X129401775Y-147882857D01*
X129401775Y-147882857D02*
X129363680Y-147997143D01*
X129363680Y-147997143D02*
X129287489Y-148073333D01*
X129287489Y-148073333D02*
X129211299Y-148111428D01*
X129211299Y-148111428D02*
X129058918Y-148149524D01*
X129058918Y-148149524D02*
X128944632Y-148149524D01*
X128944632Y-148149524D02*
X128792251Y-148111428D01*
X128792251Y-148111428D02*
X128716060Y-148073333D01*
X128716060Y-148073333D02*
X128639870Y-147997143D01*
X128639870Y-147997143D02*
X128601775Y-147882857D01*
X128601775Y-147882857D02*
X128601775Y-147806666D01*
X128601775Y-147806666D02*
X128639870Y-147692381D01*
X128639870Y-147692381D02*
X128677965Y-147654285D01*
X129401775Y-146892381D02*
X129401775Y-147349524D01*
X129401775Y-147120952D02*
X128601775Y-147120952D01*
X128601775Y-147120952D02*
X128716060Y-147197143D01*
X128716060Y-147197143D02*
X128792251Y-147273333D01*
X128792251Y-147273333D02*
X128830346Y-147349524D01*
X128601775Y-146206666D02*
X128601775Y-146359047D01*
X128601775Y-146359047D02*
X128639870Y-146435238D01*
X128639870Y-146435238D02*
X128677965Y-146473333D01*
X128677965Y-146473333D02*
X128792251Y-146549523D01*
X128792251Y-146549523D02*
X128944632Y-146587619D01*
X128944632Y-146587619D02*
X129249394Y-146587619D01*
X129249394Y-146587619D02*
X129325584Y-146549523D01*
X129325584Y-146549523D02*
X129363680Y-146511428D01*
X129363680Y-146511428D02*
X129401775Y-146435238D01*
X129401775Y-146435238D02*
X129401775Y-146282857D01*
X129401775Y-146282857D02*
X129363680Y-146206666D01*
X129363680Y-146206666D02*
X129325584Y-146168571D01*
X129325584Y-146168571D02*
X129249394Y-146130476D01*
X129249394Y-146130476D02*
X129058918Y-146130476D01*
X129058918Y-146130476D02*
X128982727Y-146168571D01*
X128982727Y-146168571D02*
X128944632Y-146206666D01*
X128944632Y-146206666D02*
X128906537Y-146282857D01*
X128906537Y-146282857D02*
X128906537Y-146435238D01*
X128906537Y-146435238D02*
X128944632Y-146511428D01*
X128944632Y-146511428D02*
X128982727Y-146549523D01*
X128982727Y-146549523D02*
X129058918Y-146587619D01*
X140446667Y-149881775D02*
X140180000Y-149500822D01*
X139989524Y-149881775D02*
X139989524Y-149081775D01*
X139989524Y-149081775D02*
X140294286Y-149081775D01*
X140294286Y-149081775D02*
X140370476Y-149119870D01*
X140370476Y-149119870D02*
X140408571Y-149157965D01*
X140408571Y-149157965D02*
X140446667Y-149234156D01*
X140446667Y-149234156D02*
X140446667Y-149348441D01*
X140446667Y-149348441D02*
X140408571Y-149424632D01*
X140408571Y-149424632D02*
X140370476Y-149462727D01*
X140370476Y-149462727D02*
X140294286Y-149500822D01*
X140294286Y-149500822D02*
X139989524Y-149500822D01*
X140751428Y-149157965D02*
X140789524Y-149119870D01*
X140789524Y-149119870D02*
X140865714Y-149081775D01*
X140865714Y-149081775D02*
X141056190Y-149081775D01*
X141056190Y-149081775D02*
X141132381Y-149119870D01*
X141132381Y-149119870D02*
X141170476Y-149157965D01*
X141170476Y-149157965D02*
X141208571Y-149234156D01*
X141208571Y-149234156D02*
X141208571Y-149310346D01*
X141208571Y-149310346D02*
X141170476Y-149424632D01*
X141170476Y-149424632D02*
X140713333Y-149881775D01*
X140713333Y-149881775D02*
X141208571Y-149881775D01*
X140446667Y-105881775D02*
X140180000Y-105500822D01*
X139989524Y-105881775D02*
X139989524Y-105081775D01*
X139989524Y-105081775D02*
X140294286Y-105081775D01*
X140294286Y-105081775D02*
X140370476Y-105119870D01*
X140370476Y-105119870D02*
X140408571Y-105157965D01*
X140408571Y-105157965D02*
X140446667Y-105234156D01*
X140446667Y-105234156D02*
X140446667Y-105348441D01*
X140446667Y-105348441D02*
X140408571Y-105424632D01*
X140408571Y-105424632D02*
X140370476Y-105462727D01*
X140370476Y-105462727D02*
X140294286Y-105500822D01*
X140294286Y-105500822D02*
X139989524Y-105500822D01*
X140751428Y-105157965D02*
X140789524Y-105119870D01*
X140789524Y-105119870D02*
X140865714Y-105081775D01*
X140865714Y-105081775D02*
X141056190Y-105081775D01*
X141056190Y-105081775D02*
X141132381Y-105119870D01*
X141132381Y-105119870D02*
X141170476Y-105157965D01*
X141170476Y-105157965D02*
X141208571Y-105234156D01*
X141208571Y-105234156D02*
X141208571Y-105310346D01*
X141208571Y-105310346D02*
X141170476Y-105424632D01*
X141170476Y-105424632D02*
X140713333Y-105881775D01*
X140713333Y-105881775D02*
X141208571Y-105881775D01*
D11*
X135965180Y-125258095D02*
X135155657Y-125258095D01*
X135155657Y-125258095D02*
X135060419Y-125305714D01*
X135060419Y-125305714D02*
X135012800Y-125353333D01*
X135012800Y-125353333D02*
X134965180Y-125448571D01*
X134965180Y-125448571D02*
X134965180Y-125639047D01*
X134965180Y-125639047D02*
X135012800Y-125734285D01*
X135012800Y-125734285D02*
X135060419Y-125781904D01*
X135060419Y-125781904D02*
X135155657Y-125829523D01*
X135155657Y-125829523D02*
X135965180Y-125829523D01*
X135869942Y-126258095D02*
X135917561Y-126305714D01*
X135917561Y-126305714D02*
X135965180Y-126400952D01*
X135965180Y-126400952D02*
X135965180Y-126639047D01*
X135965180Y-126639047D02*
X135917561Y-126734285D01*
X135917561Y-126734285D02*
X135869942Y-126781904D01*
X135869942Y-126781904D02*
X135774704Y-126829523D01*
X135774704Y-126829523D02*
X135679466Y-126829523D01*
X135679466Y-126829523D02*
X135536609Y-126781904D01*
X135536609Y-126781904D02*
X134965180Y-126210476D01*
X134965180Y-126210476D02*
X134965180Y-126829523D01*
D10*
X129325584Y-125654285D02*
X129363680Y-125692381D01*
X129363680Y-125692381D02*
X129401775Y-125806666D01*
X129401775Y-125806666D02*
X129401775Y-125882857D01*
X129401775Y-125882857D02*
X129363680Y-125997143D01*
X129363680Y-125997143D02*
X129287489Y-126073333D01*
X129287489Y-126073333D02*
X129211299Y-126111428D01*
X129211299Y-126111428D02*
X129058918Y-126149524D01*
X129058918Y-126149524D02*
X128944632Y-126149524D01*
X128944632Y-126149524D02*
X128792251Y-126111428D01*
X128792251Y-126111428D02*
X128716060Y-126073333D01*
X128716060Y-126073333D02*
X128639870Y-125997143D01*
X128639870Y-125997143D02*
X128601775Y-125882857D01*
X128601775Y-125882857D02*
X128601775Y-125806666D01*
X128601775Y-125806666D02*
X128639870Y-125692381D01*
X128639870Y-125692381D02*
X128677965Y-125654285D01*
X129401775Y-124892381D02*
X129401775Y-125349524D01*
X129401775Y-125120952D02*
X128601775Y-125120952D01*
X128601775Y-125120952D02*
X128716060Y-125197143D01*
X128716060Y-125197143D02*
X128792251Y-125273333D01*
X128792251Y-125273333D02*
X128830346Y-125349524D01*
X128601775Y-124206666D02*
X128601775Y-124359047D01*
X128601775Y-124359047D02*
X128639870Y-124435238D01*
X128639870Y-124435238D02*
X128677965Y-124473333D01*
X128677965Y-124473333D02*
X128792251Y-124549523D01*
X128792251Y-124549523D02*
X128944632Y-124587619D01*
X128944632Y-124587619D02*
X129249394Y-124587619D01*
X129249394Y-124587619D02*
X129325584Y-124549523D01*
X129325584Y-124549523D02*
X129363680Y-124511428D01*
X129363680Y-124511428D02*
X129401775Y-124435238D01*
X129401775Y-124435238D02*
X129401775Y-124282857D01*
X129401775Y-124282857D02*
X129363680Y-124206666D01*
X129363680Y-124206666D02*
X129325584Y-124168571D01*
X129325584Y-124168571D02*
X129249394Y-124130476D01*
X129249394Y-124130476D02*
X129058918Y-124130476D01*
X129058918Y-124130476D02*
X128982727Y-124168571D01*
X128982727Y-124168571D02*
X128944632Y-124206666D01*
X128944632Y-124206666D02*
X128906537Y-124282857D01*
X128906537Y-124282857D02*
X128906537Y-124435238D01*
X128906537Y-124435238D02*
X128944632Y-124511428D01*
X128944632Y-124511428D02*
X128982727Y-124549523D01*
X128982727Y-124549523D02*
X129058918Y-124587619D01*
X121040477Y-156636775D02*
X121040477Y-157284394D01*
X121040477Y-157284394D02*
X121078572Y-157360584D01*
X121078572Y-157360584D02*
X121116667Y-157398680D01*
X121116667Y-157398680D02*
X121192858Y-157436775D01*
X121192858Y-157436775D02*
X121345239Y-157436775D01*
X121345239Y-157436775D02*
X121421429Y-157398680D01*
X121421429Y-157398680D02*
X121459524Y-157360584D01*
X121459524Y-157360584D02*
X121497620Y-157284394D01*
X121497620Y-157284394D02*
X121497620Y-156636775D01*
X122297619Y-157436775D02*
X121840476Y-157436775D01*
X122069048Y-157436775D02*
X122069048Y-156636775D01*
X122069048Y-156636775D02*
X121992857Y-156751060D01*
X121992857Y-156751060D02*
X121916667Y-156827251D01*
X121916667Y-156827251D02*
X121840476Y-156865346D01*
D11*
X119120001Y-153839819D02*
X119120001Y-154077914D01*
X118881906Y-153982676D02*
X119120001Y-154077914D01*
X119120001Y-154077914D02*
X119358096Y-153982676D01*
X118977144Y-154268390D02*
X119120001Y-154077914D01*
X119120001Y-154077914D02*
X119262858Y-154268390D01*
X118630001Y-154279819D02*
X118630001Y-154517914D01*
X118391906Y-154422676D02*
X118630001Y-154517914D01*
X118630001Y-154517914D02*
X118868096Y-154422676D01*
X118487144Y-154708390D02*
X118630001Y-154517914D01*
X118630001Y-154517914D02*
X118772858Y-154708390D01*
D10*
X131435714Y-109635584D02*
X131397618Y-109673680D01*
X131397618Y-109673680D02*
X131283333Y-109711775D01*
X131283333Y-109711775D02*
X131207142Y-109711775D01*
X131207142Y-109711775D02*
X131092856Y-109673680D01*
X131092856Y-109673680D02*
X131016666Y-109597489D01*
X131016666Y-109597489D02*
X130978571Y-109521299D01*
X130978571Y-109521299D02*
X130940475Y-109368918D01*
X130940475Y-109368918D02*
X130940475Y-109254632D01*
X130940475Y-109254632D02*
X130978571Y-109102251D01*
X130978571Y-109102251D02*
X131016666Y-109026060D01*
X131016666Y-109026060D02*
X131092856Y-108949870D01*
X131092856Y-108949870D02*
X131207142Y-108911775D01*
X131207142Y-108911775D02*
X131283333Y-108911775D01*
X131283333Y-108911775D02*
X131397618Y-108949870D01*
X131397618Y-108949870D02*
X131435714Y-108987965D01*
X132197618Y-109711775D02*
X131740475Y-109711775D01*
X131969047Y-109711775D02*
X131969047Y-108911775D01*
X131969047Y-108911775D02*
X131892856Y-109026060D01*
X131892856Y-109026060D02*
X131816666Y-109102251D01*
X131816666Y-109102251D02*
X131740475Y-109140346D01*
X132921428Y-108911775D02*
X132540476Y-108911775D01*
X132540476Y-108911775D02*
X132502380Y-109292727D01*
X132502380Y-109292727D02*
X132540476Y-109254632D01*
X132540476Y-109254632D02*
X132616666Y-109216537D01*
X132616666Y-109216537D02*
X132807142Y-109216537D01*
X132807142Y-109216537D02*
X132883333Y-109254632D01*
X132883333Y-109254632D02*
X132921428Y-109292727D01*
X132921428Y-109292727D02*
X132959523Y-109368918D01*
X132959523Y-109368918D02*
X132959523Y-109559394D01*
X132959523Y-109559394D02*
X132921428Y-109635584D01*
X132921428Y-109635584D02*
X132883333Y-109673680D01*
X132883333Y-109673680D02*
X132807142Y-109711775D01*
X132807142Y-109711775D02*
X132616666Y-109711775D01*
X132616666Y-109711775D02*
X132540476Y-109673680D01*
X132540476Y-109673680D02*
X132502380Y-109635584D01*
X121040477Y-112636775D02*
X121040477Y-113284394D01*
X121040477Y-113284394D02*
X121078572Y-113360584D01*
X121078572Y-113360584D02*
X121116667Y-113398680D01*
X121116667Y-113398680D02*
X121192858Y-113436775D01*
X121192858Y-113436775D02*
X121345239Y-113436775D01*
X121345239Y-113436775D02*
X121421429Y-113398680D01*
X121421429Y-113398680D02*
X121459524Y-113360584D01*
X121459524Y-113360584D02*
X121497620Y-113284394D01*
X121497620Y-113284394D02*
X121497620Y-112636775D01*
X122297619Y-113436775D02*
X121840476Y-113436775D01*
X122069048Y-113436775D02*
X122069048Y-112636775D01*
X122069048Y-112636775D02*
X121992857Y-112751060D01*
X121992857Y-112751060D02*
X121916667Y-112827251D01*
X121916667Y-112827251D02*
X121840476Y-112865346D01*
D11*
X119120001Y-109839819D02*
X119120001Y-110077914D01*
X118881906Y-109982676D02*
X119120001Y-110077914D01*
X119120001Y-110077914D02*
X119358096Y-109982676D01*
X118977144Y-110268390D02*
X119120001Y-110077914D01*
X119120001Y-110077914D02*
X119262858Y-110268390D01*
X118630001Y-110279819D02*
X118630001Y-110517914D01*
X118391906Y-110422676D02*
X118630001Y-110517914D01*
X118630001Y-110517914D02*
X118868096Y-110422676D01*
X118487144Y-110708390D02*
X118630001Y-110517914D01*
X118630001Y-110517914D02*
X118772858Y-110708390D01*
X135965180Y-147258095D02*
X135155657Y-147258095D01*
X135155657Y-147258095D02*
X135060419Y-147305714D01*
X135060419Y-147305714D02*
X135012800Y-147353333D01*
X135012800Y-147353333D02*
X134965180Y-147448571D01*
X134965180Y-147448571D02*
X134965180Y-147639047D01*
X134965180Y-147639047D02*
X135012800Y-147734285D01*
X135012800Y-147734285D02*
X135060419Y-147781904D01*
X135060419Y-147781904D02*
X135155657Y-147829523D01*
X135155657Y-147829523D02*
X135965180Y-147829523D01*
X135869942Y-148258095D02*
X135917561Y-148305714D01*
X135917561Y-148305714D02*
X135965180Y-148400952D01*
X135965180Y-148400952D02*
X135965180Y-148639047D01*
X135965180Y-148639047D02*
X135917561Y-148734285D01*
X135917561Y-148734285D02*
X135869942Y-148781904D01*
X135869942Y-148781904D02*
X135774704Y-148829523D01*
X135774704Y-148829523D02*
X135679466Y-148829523D01*
X135679466Y-148829523D02*
X135536609Y-148781904D01*
X135536609Y-148781904D02*
X134965180Y-148210476D01*
X134965180Y-148210476D02*
X134965180Y-148829523D01*
D10*
X128396667Y-132741775D02*
X128130000Y-132360822D01*
X127939524Y-132741775D02*
X127939524Y-131941775D01*
X127939524Y-131941775D02*
X128244286Y-131941775D01*
X128244286Y-131941775D02*
X128320476Y-131979870D01*
X128320476Y-131979870D02*
X128358571Y-132017965D01*
X128358571Y-132017965D02*
X128396667Y-132094156D01*
X128396667Y-132094156D02*
X128396667Y-132208441D01*
X128396667Y-132208441D02*
X128358571Y-132284632D01*
X128358571Y-132284632D02*
X128320476Y-132322727D01*
X128320476Y-132322727D02*
X128244286Y-132360822D01*
X128244286Y-132360822D02*
X127939524Y-132360822D01*
X129082381Y-131941775D02*
X128930000Y-131941775D01*
X128930000Y-131941775D02*
X128853809Y-131979870D01*
X128853809Y-131979870D02*
X128815714Y-132017965D01*
X128815714Y-132017965D02*
X128739524Y-132132251D01*
X128739524Y-132132251D02*
X128701428Y-132284632D01*
X128701428Y-132284632D02*
X128701428Y-132589394D01*
X128701428Y-132589394D02*
X128739524Y-132665584D01*
X128739524Y-132665584D02*
X128777619Y-132703680D01*
X128777619Y-132703680D02*
X128853809Y-132741775D01*
X128853809Y-132741775D02*
X129006190Y-132741775D01*
X129006190Y-132741775D02*
X129082381Y-132703680D01*
X129082381Y-132703680D02*
X129120476Y-132665584D01*
X129120476Y-132665584D02*
X129158571Y-132589394D01*
X129158571Y-132589394D02*
X129158571Y-132398918D01*
X129158571Y-132398918D02*
X129120476Y-132322727D01*
X129120476Y-132322727D02*
X129082381Y-132284632D01*
X129082381Y-132284632D02*
X129006190Y-132246537D01*
X129006190Y-132246537D02*
X128853809Y-132246537D01*
X128853809Y-132246537D02*
X128777619Y-132284632D01*
X128777619Y-132284632D02*
X128739524Y-132322727D01*
X128739524Y-132322727D02*
X128701428Y-132398918D01*
X131435714Y-131635584D02*
X131397618Y-131673680D01*
X131397618Y-131673680D02*
X131283333Y-131711775D01*
X131283333Y-131711775D02*
X131207142Y-131711775D01*
X131207142Y-131711775D02*
X131092856Y-131673680D01*
X131092856Y-131673680D02*
X131016666Y-131597489D01*
X131016666Y-131597489D02*
X130978571Y-131521299D01*
X130978571Y-131521299D02*
X130940475Y-131368918D01*
X130940475Y-131368918D02*
X130940475Y-131254632D01*
X130940475Y-131254632D02*
X130978571Y-131102251D01*
X130978571Y-131102251D02*
X131016666Y-131026060D01*
X131016666Y-131026060D02*
X131092856Y-130949870D01*
X131092856Y-130949870D02*
X131207142Y-130911775D01*
X131207142Y-130911775D02*
X131283333Y-130911775D01*
X131283333Y-130911775D02*
X131397618Y-130949870D01*
X131397618Y-130949870D02*
X131435714Y-130987965D01*
X132197618Y-131711775D02*
X131740475Y-131711775D01*
X131969047Y-131711775D02*
X131969047Y-130911775D01*
X131969047Y-130911775D02*
X131892856Y-131026060D01*
X131892856Y-131026060D02*
X131816666Y-131102251D01*
X131816666Y-131102251D02*
X131740475Y-131140346D01*
X132921428Y-130911775D02*
X132540476Y-130911775D01*
X132540476Y-130911775D02*
X132502380Y-131292727D01*
X132502380Y-131292727D02*
X132540476Y-131254632D01*
X132540476Y-131254632D02*
X132616666Y-131216537D01*
X132616666Y-131216537D02*
X132807142Y-131216537D01*
X132807142Y-131216537D02*
X132883333Y-131254632D01*
X132883333Y-131254632D02*
X132921428Y-131292727D01*
X132921428Y-131292727D02*
X132959523Y-131368918D01*
X132959523Y-131368918D02*
X132959523Y-131559394D01*
X132959523Y-131559394D02*
X132921428Y-131635584D01*
X132921428Y-131635584D02*
X132883333Y-131673680D01*
X132883333Y-131673680D02*
X132807142Y-131711775D01*
X132807142Y-131711775D02*
X132616666Y-131711775D01*
X132616666Y-131711775D02*
X132540476Y-131673680D01*
X132540476Y-131673680D02*
X132502380Y-131635584D01*
X121040477Y-134636775D02*
X121040477Y-135284394D01*
X121040477Y-135284394D02*
X121078572Y-135360584D01*
X121078572Y-135360584D02*
X121116667Y-135398680D01*
X121116667Y-135398680D02*
X121192858Y-135436775D01*
X121192858Y-135436775D02*
X121345239Y-135436775D01*
X121345239Y-135436775D02*
X121421429Y-135398680D01*
X121421429Y-135398680D02*
X121459524Y-135360584D01*
X121459524Y-135360584D02*
X121497620Y-135284394D01*
X121497620Y-135284394D02*
X121497620Y-134636775D01*
X122297619Y-135436775D02*
X121840476Y-135436775D01*
X122069048Y-135436775D02*
X122069048Y-134636775D01*
X122069048Y-134636775D02*
X121992857Y-134751060D01*
X121992857Y-134751060D02*
X121916667Y-134827251D01*
X121916667Y-134827251D02*
X121840476Y-134865346D01*
D11*
X119120001Y-131839819D02*
X119120001Y-132077914D01*
X118881906Y-131982676D02*
X119120001Y-132077914D01*
X119120001Y-132077914D02*
X119358096Y-131982676D01*
X118977144Y-132268390D02*
X119120001Y-132077914D01*
X119120001Y-132077914D02*
X119262858Y-132268390D01*
X118630001Y-132279819D02*
X118630001Y-132517914D01*
X118391906Y-132422676D02*
X118630001Y-132517914D01*
X118630001Y-132517914D02*
X118868096Y-132422676D01*
X118487144Y-132708390D02*
X118630001Y-132517914D01*
X118630001Y-132517914D02*
X118772858Y-132708390D01*
D10*
X128396667Y-110741775D02*
X128130000Y-110360822D01*
X127939524Y-110741775D02*
X127939524Y-109941775D01*
X127939524Y-109941775D02*
X128244286Y-109941775D01*
X128244286Y-109941775D02*
X128320476Y-109979870D01*
X128320476Y-109979870D02*
X128358571Y-110017965D01*
X128358571Y-110017965D02*
X128396667Y-110094156D01*
X128396667Y-110094156D02*
X128396667Y-110208441D01*
X128396667Y-110208441D02*
X128358571Y-110284632D01*
X128358571Y-110284632D02*
X128320476Y-110322727D01*
X128320476Y-110322727D02*
X128244286Y-110360822D01*
X128244286Y-110360822D02*
X127939524Y-110360822D01*
X129082381Y-109941775D02*
X128930000Y-109941775D01*
X128930000Y-109941775D02*
X128853809Y-109979870D01*
X128853809Y-109979870D02*
X128815714Y-110017965D01*
X128815714Y-110017965D02*
X128739524Y-110132251D01*
X128739524Y-110132251D02*
X128701428Y-110284632D01*
X128701428Y-110284632D02*
X128701428Y-110589394D01*
X128701428Y-110589394D02*
X128739524Y-110665584D01*
X128739524Y-110665584D02*
X128777619Y-110703680D01*
X128777619Y-110703680D02*
X128853809Y-110741775D01*
X128853809Y-110741775D02*
X129006190Y-110741775D01*
X129006190Y-110741775D02*
X129082381Y-110703680D01*
X129082381Y-110703680D02*
X129120476Y-110665584D01*
X129120476Y-110665584D02*
X129158571Y-110589394D01*
X129158571Y-110589394D02*
X129158571Y-110398918D01*
X129158571Y-110398918D02*
X129120476Y-110322727D01*
X129120476Y-110322727D02*
X129082381Y-110284632D01*
X129082381Y-110284632D02*
X129006190Y-110246537D01*
X129006190Y-110246537D02*
X128853809Y-110246537D01*
X128853809Y-110246537D02*
X128777619Y-110284632D01*
X128777619Y-110284632D02*
X128739524Y-110322727D01*
X128739524Y-110322727D02*
X128701428Y-110398918D01*
X125669524Y-150421775D02*
X125669524Y-149621775D01*
X125669524Y-149621775D02*
X125860000Y-149621775D01*
X125860000Y-149621775D02*
X125974286Y-149659870D01*
X125974286Y-149659870D02*
X126050476Y-149736060D01*
X126050476Y-149736060D02*
X126088571Y-149812251D01*
X126088571Y-149812251D02*
X126126667Y-149964632D01*
X126126667Y-149964632D02*
X126126667Y-150078918D01*
X126126667Y-150078918D02*
X126088571Y-150231299D01*
X126088571Y-150231299D02*
X126050476Y-150307489D01*
X126050476Y-150307489D02*
X125974286Y-150383680D01*
X125974286Y-150383680D02*
X125860000Y-150421775D01*
X125860000Y-150421775D02*
X125669524Y-150421775D01*
X126393333Y-149621775D02*
X126888571Y-149621775D01*
X126888571Y-149621775D02*
X126621905Y-149926537D01*
X126621905Y-149926537D02*
X126736190Y-149926537D01*
X126736190Y-149926537D02*
X126812381Y-149964632D01*
X126812381Y-149964632D02*
X126850476Y-150002727D01*
X126850476Y-150002727D02*
X126888571Y-150078918D01*
X126888571Y-150078918D02*
X126888571Y-150269394D01*
X126888571Y-150269394D02*
X126850476Y-150345584D01*
X126850476Y-150345584D02*
X126812381Y-150383680D01*
X126812381Y-150383680D02*
X126736190Y-150421775D01*
X126736190Y-150421775D02*
X126507619Y-150421775D01*
X126507619Y-150421775D02*
X126431428Y-150383680D01*
X126431428Y-150383680D02*
X126393333Y-150345584D01*
X131435714Y-153635584D02*
X131397618Y-153673680D01*
X131397618Y-153673680D02*
X131283333Y-153711775D01*
X131283333Y-153711775D02*
X131207142Y-153711775D01*
X131207142Y-153711775D02*
X131092856Y-153673680D01*
X131092856Y-153673680D02*
X131016666Y-153597489D01*
X131016666Y-153597489D02*
X130978571Y-153521299D01*
X130978571Y-153521299D02*
X130940475Y-153368918D01*
X130940475Y-153368918D02*
X130940475Y-153254632D01*
X130940475Y-153254632D02*
X130978571Y-153102251D01*
X130978571Y-153102251D02*
X131016666Y-153026060D01*
X131016666Y-153026060D02*
X131092856Y-152949870D01*
X131092856Y-152949870D02*
X131207142Y-152911775D01*
X131207142Y-152911775D02*
X131283333Y-152911775D01*
X131283333Y-152911775D02*
X131397618Y-152949870D01*
X131397618Y-152949870D02*
X131435714Y-152987965D01*
X132197618Y-153711775D02*
X131740475Y-153711775D01*
X131969047Y-153711775D02*
X131969047Y-152911775D01*
X131969047Y-152911775D02*
X131892856Y-153026060D01*
X131892856Y-153026060D02*
X131816666Y-153102251D01*
X131816666Y-153102251D02*
X131740475Y-153140346D01*
X132921428Y-152911775D02*
X132540476Y-152911775D01*
X132540476Y-152911775D02*
X132502380Y-153292727D01*
X132502380Y-153292727D02*
X132540476Y-153254632D01*
X132540476Y-153254632D02*
X132616666Y-153216537D01*
X132616666Y-153216537D02*
X132807142Y-153216537D01*
X132807142Y-153216537D02*
X132883333Y-153254632D01*
X132883333Y-153254632D02*
X132921428Y-153292727D01*
X132921428Y-153292727D02*
X132959523Y-153368918D01*
X132959523Y-153368918D02*
X132959523Y-153559394D01*
X132959523Y-153559394D02*
X132921428Y-153635584D01*
X132921428Y-153635584D02*
X132883333Y-153673680D01*
X132883333Y-153673680D02*
X132807142Y-153711775D01*
X132807142Y-153711775D02*
X132616666Y-153711775D01*
X132616666Y-153711775D02*
X132540476Y-153673680D01*
X132540476Y-153673680D02*
X132502380Y-153635584D01*
X114131775Y-131143332D02*
X113750822Y-131409999D01*
X114131775Y-131600475D02*
X113331775Y-131600475D01*
X113331775Y-131600475D02*
X113331775Y-131295713D01*
X113331775Y-131295713D02*
X113369870Y-131219523D01*
X113369870Y-131219523D02*
X113407965Y-131181428D01*
X113407965Y-131181428D02*
X113484156Y-131143332D01*
X113484156Y-131143332D02*
X113598441Y-131143332D01*
X113598441Y-131143332D02*
X113674632Y-131181428D01*
X113674632Y-131181428D02*
X113712727Y-131219523D01*
X113712727Y-131219523D02*
X113750822Y-131295713D01*
X113750822Y-131295713D02*
X113750822Y-131600475D01*
X113598441Y-130457618D02*
X114131775Y-130457618D01*
X113293680Y-130648094D02*
X113865108Y-130838571D01*
X113865108Y-130838571D02*
X113865108Y-130343332D01*
X116179524Y-128511775D02*
X116179524Y-127711775D01*
X116179524Y-127711775D02*
X116370000Y-127711775D01*
X116370000Y-127711775D02*
X116484286Y-127749870D01*
X116484286Y-127749870D02*
X116560476Y-127826060D01*
X116560476Y-127826060D02*
X116598571Y-127902251D01*
X116598571Y-127902251D02*
X116636667Y-128054632D01*
X116636667Y-128054632D02*
X116636667Y-128168918D01*
X116636667Y-128168918D02*
X116598571Y-128321299D01*
X116598571Y-128321299D02*
X116560476Y-128397489D01*
X116560476Y-128397489D02*
X116484286Y-128473680D01*
X116484286Y-128473680D02*
X116370000Y-128511775D01*
X116370000Y-128511775D02*
X116179524Y-128511775D01*
X116941428Y-127787965D02*
X116979524Y-127749870D01*
X116979524Y-127749870D02*
X117055714Y-127711775D01*
X117055714Y-127711775D02*
X117246190Y-127711775D01*
X117246190Y-127711775D02*
X117322381Y-127749870D01*
X117322381Y-127749870D02*
X117360476Y-127787965D01*
X117360476Y-127787965D02*
X117398571Y-127864156D01*
X117398571Y-127864156D02*
X117398571Y-127940346D01*
X117398571Y-127940346D02*
X117360476Y-128054632D01*
X117360476Y-128054632D02*
X116903333Y-128511775D01*
X116903333Y-128511775D02*
X117398571Y-128511775D01*
X125669524Y-106421775D02*
X125669524Y-105621775D01*
X125669524Y-105621775D02*
X125860000Y-105621775D01*
X125860000Y-105621775D02*
X125974286Y-105659870D01*
X125974286Y-105659870D02*
X126050476Y-105736060D01*
X126050476Y-105736060D02*
X126088571Y-105812251D01*
X126088571Y-105812251D02*
X126126667Y-105964632D01*
X126126667Y-105964632D02*
X126126667Y-106078918D01*
X126126667Y-106078918D02*
X126088571Y-106231299D01*
X126088571Y-106231299D02*
X126050476Y-106307489D01*
X126050476Y-106307489D02*
X125974286Y-106383680D01*
X125974286Y-106383680D02*
X125860000Y-106421775D01*
X125860000Y-106421775D02*
X125669524Y-106421775D01*
X126393333Y-105621775D02*
X126888571Y-105621775D01*
X126888571Y-105621775D02*
X126621905Y-105926537D01*
X126621905Y-105926537D02*
X126736190Y-105926537D01*
X126736190Y-105926537D02*
X126812381Y-105964632D01*
X126812381Y-105964632D02*
X126850476Y-106002727D01*
X126850476Y-106002727D02*
X126888571Y-106078918D01*
X126888571Y-106078918D02*
X126888571Y-106269394D01*
X126888571Y-106269394D02*
X126850476Y-106345584D01*
X126850476Y-106345584D02*
X126812381Y-106383680D01*
X126812381Y-106383680D02*
X126736190Y-106421775D01*
X126736190Y-106421775D02*
X126507619Y-106421775D01*
X126507619Y-106421775D02*
X126431428Y-106383680D01*
X126431428Y-106383680D02*
X126393333Y-106345584D01*
X125669524Y-128421775D02*
X125669524Y-127621775D01*
X125669524Y-127621775D02*
X125860000Y-127621775D01*
X125860000Y-127621775D02*
X125974286Y-127659870D01*
X125974286Y-127659870D02*
X126050476Y-127736060D01*
X126050476Y-127736060D02*
X126088571Y-127812251D01*
X126088571Y-127812251D02*
X126126667Y-127964632D01*
X126126667Y-127964632D02*
X126126667Y-128078918D01*
X126126667Y-128078918D02*
X126088571Y-128231299D01*
X126088571Y-128231299D02*
X126050476Y-128307489D01*
X126050476Y-128307489D02*
X125974286Y-128383680D01*
X125974286Y-128383680D02*
X125860000Y-128421775D01*
X125860000Y-128421775D02*
X125669524Y-128421775D01*
X126393333Y-127621775D02*
X126888571Y-127621775D01*
X126888571Y-127621775D02*
X126621905Y-127926537D01*
X126621905Y-127926537D02*
X126736190Y-127926537D01*
X126736190Y-127926537D02*
X126812381Y-127964632D01*
X126812381Y-127964632D02*
X126850476Y-128002727D01*
X126850476Y-128002727D02*
X126888571Y-128078918D01*
X126888571Y-128078918D02*
X126888571Y-128269394D01*
X126888571Y-128269394D02*
X126850476Y-128345584D01*
X126850476Y-128345584D02*
X126812381Y-128383680D01*
X126812381Y-128383680D02*
X126736190Y-128421775D01*
X126736190Y-128421775D02*
X126507619Y-128421775D01*
X126507619Y-128421775D02*
X126431428Y-128383680D01*
X126431428Y-128383680D02*
X126393333Y-128345584D01*
X129325584Y-103654285D02*
X129363680Y-103692381D01*
X129363680Y-103692381D02*
X129401775Y-103806666D01*
X129401775Y-103806666D02*
X129401775Y-103882857D01*
X129401775Y-103882857D02*
X129363680Y-103997143D01*
X129363680Y-103997143D02*
X129287489Y-104073333D01*
X129287489Y-104073333D02*
X129211299Y-104111428D01*
X129211299Y-104111428D02*
X129058918Y-104149524D01*
X129058918Y-104149524D02*
X128944632Y-104149524D01*
X128944632Y-104149524D02*
X128792251Y-104111428D01*
X128792251Y-104111428D02*
X128716060Y-104073333D01*
X128716060Y-104073333D02*
X128639870Y-103997143D01*
X128639870Y-103997143D02*
X128601775Y-103882857D01*
X128601775Y-103882857D02*
X128601775Y-103806666D01*
X128601775Y-103806666D02*
X128639870Y-103692381D01*
X128639870Y-103692381D02*
X128677965Y-103654285D01*
X129401775Y-102892381D02*
X129401775Y-103349524D01*
X129401775Y-103120952D02*
X128601775Y-103120952D01*
X128601775Y-103120952D02*
X128716060Y-103197143D01*
X128716060Y-103197143D02*
X128792251Y-103273333D01*
X128792251Y-103273333D02*
X128830346Y-103349524D01*
X128601775Y-102206666D02*
X128601775Y-102359047D01*
X128601775Y-102359047D02*
X128639870Y-102435238D01*
X128639870Y-102435238D02*
X128677965Y-102473333D01*
X128677965Y-102473333D02*
X128792251Y-102549523D01*
X128792251Y-102549523D02*
X128944632Y-102587619D01*
X128944632Y-102587619D02*
X129249394Y-102587619D01*
X129249394Y-102587619D02*
X129325584Y-102549523D01*
X129325584Y-102549523D02*
X129363680Y-102511428D01*
X129363680Y-102511428D02*
X129401775Y-102435238D01*
X129401775Y-102435238D02*
X129401775Y-102282857D01*
X129401775Y-102282857D02*
X129363680Y-102206666D01*
X129363680Y-102206666D02*
X129325584Y-102168571D01*
X129325584Y-102168571D02*
X129249394Y-102130476D01*
X129249394Y-102130476D02*
X129058918Y-102130476D01*
X129058918Y-102130476D02*
X128982727Y-102168571D01*
X128982727Y-102168571D02*
X128944632Y-102206666D01*
X128944632Y-102206666D02*
X128906537Y-102282857D01*
X128906537Y-102282857D02*
X128906537Y-102435238D01*
X128906537Y-102435238D02*
X128944632Y-102511428D01*
X128944632Y-102511428D02*
X128982727Y-102549523D01*
X128982727Y-102549523D02*
X129058918Y-102587619D01*
X114131775Y-153143332D02*
X113750822Y-153409999D01*
X114131775Y-153600475D02*
X113331775Y-153600475D01*
X113331775Y-153600475D02*
X113331775Y-153295713D01*
X113331775Y-153295713D02*
X113369870Y-153219523D01*
X113369870Y-153219523D02*
X113407965Y-153181428D01*
X113407965Y-153181428D02*
X113484156Y-153143332D01*
X113484156Y-153143332D02*
X113598441Y-153143332D01*
X113598441Y-153143332D02*
X113674632Y-153181428D01*
X113674632Y-153181428D02*
X113712727Y-153219523D01*
X113712727Y-153219523D02*
X113750822Y-153295713D01*
X113750822Y-153295713D02*
X113750822Y-153600475D01*
X113598441Y-152457618D02*
X114131775Y-152457618D01*
X113293680Y-152648094D02*
X113865108Y-152838571D01*
X113865108Y-152838571D02*
X113865108Y-152343332D01*
D12*
%TO.C,D2*%
X114334999Y-150655000D02*
X114334999Y-152125000D01*
X114334999Y-152125000D02*
X116794999Y-152125000D01*
X116794999Y-150655000D02*
X114334999Y-150655000D01*
%TO.C,R6*%
X127589724Y-152497500D02*
X127080276Y-152497500D01*
X127589724Y-153542500D02*
X127080276Y-153542500D01*
%TO.C,J1*%
X100395000Y-161850000D02*
X100395000Y-163100000D01*
X100395000Y-163100000D02*
X101645000Y-163100000D01*
X100685000Y-145190000D02*
X100685000Y-162810000D01*
X100685000Y-162810000D02*
X106655000Y-162810000D01*
X100694999Y-145200000D02*
X100695000Y-147000000D01*
X100694999Y-159500000D02*
X101445000Y-159499999D01*
X100694999Y-161000000D02*
X100695000Y-162800000D01*
X100695000Y-147000000D02*
X101445000Y-147000000D01*
X100695000Y-148500000D02*
X100694999Y-159500000D01*
X100695000Y-162800000D02*
X101445000Y-162800000D01*
X101445000Y-145199999D02*
X100694999Y-145200000D01*
X101445000Y-147000000D02*
X101445000Y-145199999D01*
X101445000Y-148500000D02*
X100695000Y-148500000D01*
X101445000Y-159499999D02*
X101445000Y-148500000D01*
X101445000Y-161000001D02*
X100694999Y-161000000D01*
X101445000Y-162800000D02*
X101445000Y-161000001D01*
X102945000Y-162050000D02*
X105895000Y-162050000D01*
X102945000Y-162800000D02*
X102945000Y-162050000D01*
X102945001Y-145200000D02*
X102945001Y-145950000D01*
X102945001Y-145950000D02*
X105895000Y-145950000D01*
X105895000Y-145950000D02*
X105895000Y-154000000D01*
X105895000Y-162050000D02*
X105895000Y-154000000D01*
X106655000Y-145190000D02*
X100685000Y-145190000D01*
X106655000Y-162810000D02*
X106655000Y-145190000D01*
D13*
%TO.C,U2*%
X133438800Y-100540200D02*
X133438800Y-100952760D01*
X133438800Y-102507240D02*
X133438800Y-103242760D01*
X133438800Y-104797240D02*
X133438800Y-105532760D01*
X133438800Y-107087241D02*
X133438800Y-107499800D01*
X133438800Y-107499800D02*
X137401200Y-107499800D01*
X137401200Y-100540200D02*
X133438800Y-100540200D01*
X137401200Y-102087060D02*
X137401200Y-100540200D01*
X137401200Y-107499800D02*
X137401200Y-105952940D01*
X134707000Y-101210000D02*
G75*
G02*
X134453000Y-101210000I-127000J0D01*
G01*
X134453000Y-101210000D02*
G75*
G02*
X134707000Y-101210000I127000J0D01*
G01*
D12*
%TO.C,R2*%
X139182776Y-128327500D02*
X139692224Y-128327500D01*
X139182776Y-129372500D02*
X139692224Y-129372500D01*
%TO.C,D1*%
X137800000Y-122445000D02*
X137800000Y-123915000D01*
X137800000Y-123915000D02*
X140260000Y-123915000D01*
X140260000Y-122445000D02*
X137800000Y-122445000D01*
%TO.C,J1*%
X100395000Y-139850000D02*
X100395000Y-141100000D01*
X100395000Y-141100000D02*
X101645000Y-141100000D01*
X100685000Y-123190000D02*
X100685000Y-140810000D01*
X100685000Y-140810000D02*
X106655000Y-140810000D01*
X100694999Y-123200000D02*
X100695000Y-125000000D01*
X100694999Y-137500000D02*
X101445000Y-137499999D01*
X100694999Y-139000000D02*
X100695000Y-140800000D01*
X100695000Y-125000000D02*
X101445000Y-125000000D01*
X100695000Y-126500000D02*
X100694999Y-137500000D01*
X100695000Y-140800000D02*
X101445000Y-140800000D01*
X101445000Y-123199999D02*
X100694999Y-123200000D01*
X101445000Y-125000000D02*
X101445000Y-123199999D01*
X101445000Y-126500000D02*
X100695000Y-126500000D01*
X101445000Y-137499999D02*
X101445000Y-126500000D01*
X101445000Y-139000001D02*
X100694999Y-139000000D01*
X101445000Y-140800000D02*
X101445000Y-139000001D01*
X102945000Y-140050000D02*
X105895000Y-140050000D01*
X102945000Y-140800000D02*
X102945000Y-140050000D01*
X102945001Y-123200000D02*
X102945001Y-123950000D01*
X102945001Y-123950000D02*
X105895000Y-123950000D01*
X105895000Y-123950000D02*
X105895000Y-132000000D01*
X105895000Y-140050000D02*
X105895000Y-132000000D01*
X106655000Y-123190000D02*
X100685000Y-123190000D01*
X106655000Y-140810000D02*
X106655000Y-123190000D01*
%TO.C,J2*%
X137920000Y-130470000D02*
X136220000Y-130470000D01*
X137920000Y-139810000D02*
X136220000Y-139810000D01*
%TO.C,R4*%
X115695275Y-108482500D02*
X116204723Y-108482500D01*
X115695275Y-109527500D02*
X116204723Y-109527500D01*
%TO.C,D2*%
X114334999Y-106655000D02*
X114334999Y-108125000D01*
X114334999Y-108125000D02*
X116794999Y-108125000D01*
X116794999Y-106655000D02*
X114334999Y-106655000D01*
%TO.C,C16*%
X129770000Y-147286267D02*
X129770000Y-146993733D01*
X130790000Y-147286267D02*
X130790000Y-146993733D01*
%TO.C,R2*%
X139182776Y-150327500D02*
X139692224Y-150327500D01*
X139182776Y-151372500D02*
X139692224Y-151372500D01*
X139182776Y-106327500D02*
X139692224Y-106327500D01*
X139182776Y-107372500D02*
X139692224Y-107372500D01*
D13*
%TO.C,U2*%
X133438800Y-122540200D02*
X133438800Y-122952760D01*
X133438800Y-124507240D02*
X133438800Y-125242760D01*
X133438800Y-126797240D02*
X133438800Y-127532760D01*
X133438800Y-129087241D02*
X133438800Y-129499800D01*
X133438800Y-129499800D02*
X137401200Y-129499800D01*
X137401200Y-122540200D02*
X133438800Y-122540200D01*
X137401200Y-124087060D02*
X137401200Y-122540200D01*
X137401200Y-129499800D02*
X137401200Y-127952940D01*
X134707000Y-123210000D02*
G75*
G02*
X134453000Y-123210000I-127000J0D01*
G01*
X134453000Y-123210000D02*
G75*
G02*
X134707000Y-123210000I127000J0D01*
G01*
D12*
%TO.C,C16*%
X129770000Y-125286267D02*
X129770000Y-124993733D01*
X130790000Y-125286267D02*
X130790000Y-124993733D01*
D13*
%TO.C,U1*%
X117928901Y-153353900D02*
X117928901Y-153852560D01*
X117928901Y-160297440D02*
X117928901Y-160796100D01*
X117928901Y-160796100D02*
X118427561Y-160796100D01*
X118427561Y-153353900D02*
X117928901Y-153353900D01*
X124872441Y-160796100D02*
X125371101Y-160796100D01*
X125371101Y-153353900D02*
X124872441Y-153353900D01*
X125371101Y-153852560D02*
X125371101Y-153353900D01*
X125371101Y-160796100D02*
X125371101Y-160297440D01*
D14*
G36*
X116448602Y-159015499D02*
G01*
X116194602Y-159015499D01*
X116194602Y-158634499D01*
X116448602Y-158634499D01*
X116448602Y-159015499D01*
G37*
G36*
X122590502Y-162530399D02*
G01*
X122209502Y-162530399D01*
X122209502Y-162276399D01*
X122590502Y-162276399D01*
X122590502Y-162530399D01*
G37*
G36*
X123090501Y-151873601D02*
G01*
X122709501Y-151873601D01*
X122709501Y-151619601D01*
X123090501Y-151619601D01*
X123090501Y-151873601D01*
G37*
G36*
X127105400Y-157515500D02*
G01*
X126851400Y-157515500D01*
X126851400Y-157134499D01*
X127105400Y-157134499D01*
X127105400Y-157515500D01*
G37*
D12*
%TO.C,C15*%
X131463766Y-107540000D02*
X131171232Y-107540000D01*
X131463766Y-108560000D02*
X131171232Y-108560000D01*
%TO.C,J1*%
X100395000Y-117850000D02*
X100395000Y-119100000D01*
X100395000Y-119100000D02*
X101645000Y-119100000D01*
X100685000Y-101190000D02*
X100685000Y-118810000D01*
X100685000Y-118810000D02*
X106655000Y-118810000D01*
X100694999Y-101200000D02*
X100695000Y-103000000D01*
X100694999Y-115500000D02*
X101445000Y-115499999D01*
X100694999Y-117000000D02*
X100695000Y-118800000D01*
X100695000Y-103000000D02*
X101445000Y-103000000D01*
X100695000Y-104500000D02*
X100694999Y-115500000D01*
X100695000Y-118800000D02*
X101445000Y-118800000D01*
X101445000Y-101199999D02*
X100694999Y-101200000D01*
X101445000Y-103000000D02*
X101445000Y-101199999D01*
X101445000Y-104500000D02*
X100695000Y-104500000D01*
X101445000Y-115499999D02*
X101445000Y-104500000D01*
X101445000Y-117000001D02*
X100694999Y-117000000D01*
X101445000Y-118800000D02*
X101445000Y-117000001D01*
X102945000Y-118050000D02*
X105895000Y-118050000D01*
X102945000Y-118800000D02*
X102945000Y-118050000D01*
X102945001Y-101200000D02*
X102945001Y-101950000D01*
X102945001Y-101950000D02*
X105895000Y-101950000D01*
X105895000Y-101950000D02*
X105895000Y-110000000D01*
X105895000Y-118050000D02*
X105895000Y-110000000D01*
X106655000Y-101190000D02*
X100685000Y-101190000D01*
X106655000Y-118810000D02*
X106655000Y-101190000D01*
%TO.C,J3*%
X116800001Y-145080000D02*
X118130001Y-145080000D01*
X116800001Y-146410000D02*
X116800001Y-145080000D01*
X119400002Y-145080000D02*
X127080001Y-145080000D01*
X119400002Y-147740000D02*
X119400002Y-145080000D01*
X119400002Y-147740000D02*
X127080001Y-147740000D01*
X127080001Y-147740000D02*
X127080001Y-145080000D01*
D13*
%TO.C,U1*%
X117928901Y-109353900D02*
X117928901Y-109852560D01*
X117928901Y-116297440D02*
X117928901Y-116796100D01*
X117928901Y-116796100D02*
X118427561Y-116796100D01*
X118427561Y-109353900D02*
X117928901Y-109353900D01*
X124872441Y-116796100D02*
X125371101Y-116796100D01*
X125371101Y-109353900D02*
X124872441Y-109353900D01*
X125371101Y-109852560D02*
X125371101Y-109353900D01*
X125371101Y-116796100D02*
X125371101Y-116297440D01*
D14*
G36*
X116448602Y-115015499D02*
G01*
X116194602Y-115015499D01*
X116194602Y-114634499D01*
X116448602Y-114634499D01*
X116448602Y-115015499D01*
G37*
G36*
X122590502Y-118530399D02*
G01*
X122209502Y-118530399D01*
X122209502Y-118276399D01*
X122590502Y-118276399D01*
X122590502Y-118530399D01*
G37*
G36*
X123090501Y-107873601D02*
G01*
X122709501Y-107873601D01*
X122709501Y-107619601D01*
X123090501Y-107619601D01*
X123090501Y-107873601D01*
G37*
G36*
X127105400Y-113515500D02*
G01*
X126851400Y-113515500D01*
X126851400Y-113134499D01*
X127105400Y-113134499D01*
X127105400Y-113515500D01*
G37*
D13*
%TO.C,U2*%
X133438800Y-144540200D02*
X133438800Y-144952760D01*
X133438800Y-146507240D02*
X133438800Y-147242760D01*
X133438800Y-148797240D02*
X133438800Y-149532760D01*
X133438800Y-151087241D02*
X133438800Y-151499800D01*
X133438800Y-151499800D02*
X137401200Y-151499800D01*
X137401200Y-144540200D02*
X133438800Y-144540200D01*
X137401200Y-146087060D02*
X137401200Y-144540200D01*
X137401200Y-151499800D02*
X137401200Y-149952940D01*
X134707000Y-145210000D02*
G75*
G02*
X134453000Y-145210000I-127000J0D01*
G01*
X134453000Y-145210000D02*
G75*
G02*
X134707000Y-145210000I127000J0D01*
G01*
D12*
%TO.C,R6*%
X127589724Y-130497500D02*
X127080276Y-130497500D01*
X127589724Y-131542500D02*
X127080276Y-131542500D01*
%TO.C,C15*%
X131463766Y-129540000D02*
X131171232Y-129540000D01*
X131463766Y-130560000D02*
X131171232Y-130560000D01*
%TO.C,Y1*%
X107475000Y-147480000D02*
X107475000Y-153880000D01*
X112525000Y-147480000D02*
X112525000Y-153880000D01*
X107475000Y-147480000D02*
G75*
G02*
X112525000Y-147480000I2525000J0D01*
G01*
X112525000Y-153880000D02*
G75*
G02*
X107475000Y-153880000I-2525000J0D01*
G01*
D13*
%TO.C,U1*%
X117928901Y-131353900D02*
X117928901Y-131852560D01*
X117928901Y-138297440D02*
X117928901Y-138796100D01*
X117928901Y-138796100D02*
X118427561Y-138796100D01*
X118427561Y-131353900D02*
X117928901Y-131353900D01*
X124872441Y-138796100D02*
X125371101Y-138796100D01*
X125371101Y-131353900D02*
X124872441Y-131353900D01*
X125371101Y-131852560D02*
X125371101Y-131353900D01*
X125371101Y-138796100D02*
X125371101Y-138297440D01*
D14*
G36*
X116448602Y-137015499D02*
G01*
X116194602Y-137015499D01*
X116194602Y-136634499D01*
X116448602Y-136634499D01*
X116448602Y-137015499D01*
G37*
G36*
X122590502Y-140530399D02*
G01*
X122209502Y-140530399D01*
X122209502Y-140276399D01*
X122590502Y-140276399D01*
X122590502Y-140530399D01*
G37*
G36*
X123090501Y-129873601D02*
G01*
X122709501Y-129873601D01*
X122709501Y-129619601D01*
X123090501Y-129619601D01*
X123090501Y-129873601D01*
G37*
G36*
X127105400Y-135515500D02*
G01*
X126851400Y-135515500D01*
X126851400Y-135134499D01*
X127105400Y-135134499D01*
X127105400Y-135515500D01*
G37*
D12*
%TO.C,J2*%
X137920000Y-108470000D02*
X136220000Y-108470000D01*
X137920000Y-117810000D02*
X136220000Y-117810000D01*
%TO.C,R6*%
X127589724Y-108497500D02*
X127080276Y-108497500D01*
X127589724Y-109542500D02*
X127080276Y-109542500D01*
%TO.C,D3*%
X126490000Y-152125000D02*
X128950000Y-152125000D01*
X128950000Y-150655000D02*
X126490000Y-150655000D01*
X128950000Y-152125000D02*
X128950000Y-150655000D01*
%TO.C,Y1*%
X107475000Y-125480000D02*
X107475000Y-131880000D01*
X112525000Y-125480000D02*
X112525000Y-131880000D01*
X107475000Y-125480000D02*
G75*
G02*
X112525000Y-125480000I2525000J0D01*
G01*
X112525000Y-131880000D02*
G75*
G02*
X107475000Y-131880000I-2525000J0D01*
G01*
%TO.C,D1*%
X137800000Y-144445000D02*
X137800000Y-145915000D01*
X137800000Y-145915000D02*
X140260000Y-145915000D01*
X140260000Y-144445000D02*
X137800000Y-144445000D01*
%TO.C,J3*%
X116800001Y-101080000D02*
X118130001Y-101080000D01*
X116800001Y-102410000D02*
X116800001Y-101080000D01*
X119400002Y-101080000D02*
X127080001Y-101080000D01*
X119400002Y-103740000D02*
X119400002Y-101080000D01*
X119400002Y-103740000D02*
X127080001Y-103740000D01*
X127080001Y-103740000D02*
X127080001Y-101080000D01*
%TO.C,C15*%
X131463766Y-151540000D02*
X131171232Y-151540000D01*
X131463766Y-152560000D02*
X131171232Y-152560000D01*
%TO.C,R4*%
X115695275Y-130482500D02*
X116204723Y-130482500D01*
X115695275Y-131527500D02*
X116204723Y-131527500D01*
%TO.C,D2*%
X114334999Y-128655000D02*
X114334999Y-130125000D01*
X114334999Y-130125000D02*
X116794999Y-130125000D01*
X116794999Y-128655000D02*
X114334999Y-128655000D01*
%TO.C,D3*%
X126490000Y-108125000D02*
X128950000Y-108125000D01*
X128950000Y-106655000D02*
X126490000Y-106655000D01*
X128950000Y-108125000D02*
X128950000Y-106655000D01*
%TO.C,J2*%
X137920000Y-152470000D02*
X136220000Y-152470000D01*
X137920000Y-161810000D02*
X136220000Y-161810000D01*
%TO.C,D3*%
X126490000Y-130125000D02*
X128950000Y-130125000D01*
X128950000Y-128655000D02*
X126490000Y-128655000D01*
X128950000Y-130125000D02*
X128950000Y-128655000D01*
%TO.C,C16*%
X129770000Y-103286267D02*
X129770000Y-102993733D01*
X130790000Y-103286267D02*
X130790000Y-102993733D01*
%TO.C,J3*%
X116800001Y-123080000D02*
X118130001Y-123080000D01*
X116800001Y-124410000D02*
X116800001Y-123080000D01*
X119400002Y-123080000D02*
X127080001Y-123080000D01*
X119400002Y-125740000D02*
X119400002Y-123080000D01*
X119400002Y-125740000D02*
X127080001Y-125740000D01*
X127080001Y-125740000D02*
X127080001Y-123080000D01*
%TO.C,R4*%
X115695275Y-152482500D02*
X116204723Y-152482500D01*
X115695275Y-153527500D02*
X116204723Y-153527500D01*
%TO.C,Y1*%
X107475000Y-103480000D02*
X107475000Y-109880000D01*
X112525000Y-103480000D02*
X112525000Y-109880000D01*
X107475000Y-103480000D02*
G75*
G02*
X112525000Y-103480000I2525000J0D01*
G01*
X112525000Y-109880000D02*
G75*
G02*
X107475000Y-109880000I-2525000J0D01*
G01*
%TO.C,D1*%
X137800000Y-100445000D02*
X137800000Y-101915000D01*
X137800000Y-101915000D02*
X140260000Y-101915000D01*
X140260000Y-100445000D02*
X137800000Y-100445000D01*
%TD*%
M02*
