%TF.GenerationSoftware,KiCad,Pcbnew,9.0.1*%
%TF.CreationDate,2026-03-03T23:36:01+07:00*%
%TF.ProjectId,BMP_Bluepill,424d505f-426c-4756-9570-696c6c2e6b69,rev?*%
%TF.SameCoordinates,Original*%
%TF.FileFunction,Drillmap*%
%TF.FilePolarity,Positive*%
%FSLAX45Y45*%
G04 Gerber Fmt 4.5, Leading zero omitted, Abs format (unit mm)*
G04 Created by KiCad (PCBNEW 9.0.1) date 2026-03-03 23:36:01*
%MOMM*%
%LPD*%
G01*
G04 APERTURE LIST*
%ADD10C,0.050000*%
%ADD11C,0.200000*%
%ADD12C,0.100000*%
G04 APERTURE END LIST*
D10*
X10214500Y-14200000D02*
X14014500Y-14200000D01*
X14014500Y-14400000D01*
X10214500Y-14400000D01*
X10214500Y-14200000D01*
X10214500Y-12000000D02*
X14014500Y-12000000D01*
X14014500Y-12200000D01*
X10214500Y-12200000D01*
X10214500Y-12000000D01*
X10000000Y-10000000D02*
X14229000Y-10000000D01*
X14229000Y-16400000D01*
X10000000Y-16400000D01*
X10000000Y-10000000D01*
D11*
D12*
X10784000Y-11474000D02*
X10814000Y-11504000D01*
X10814000Y-11474000D02*
X10784000Y-11504000D01*
X10784000Y-13674000D02*
X10814000Y-13704000D01*
X10814000Y-13674000D02*
X10784000Y-13704000D01*
X10784000Y-15874000D02*
X10814000Y-15904000D01*
X10814000Y-15874000D02*
X10784000Y-15904000D01*
X11015750Y-11326250D02*
X11045750Y-11356250D01*
X11045750Y-11326250D02*
X11015750Y-11356250D01*
X11015750Y-13526250D02*
X11045750Y-13556250D01*
X11045750Y-13526250D02*
X11015750Y-13556250D01*
X11015750Y-15726250D02*
X11045750Y-15756250D01*
X11045750Y-15726250D02*
X11015750Y-15756250D01*
X11193000Y-10572000D02*
X11223000Y-10602000D01*
X11223000Y-10572000D02*
X11193000Y-10602000D01*
X11193000Y-10735250D02*
X11223000Y-10765250D01*
X11223000Y-10735250D02*
X11193000Y-10765250D01*
X11193000Y-12772000D02*
X11223000Y-12802000D01*
X11223000Y-12772000D02*
X11193000Y-12802000D01*
X11193000Y-12935250D02*
X11223000Y-12965250D01*
X11223000Y-12935250D02*
X11193000Y-12965250D01*
X11193000Y-14972000D02*
X11223000Y-15002000D01*
X11223000Y-14972000D02*
X11193000Y-15002000D01*
X11193000Y-15135250D02*
X11223000Y-15165250D01*
X11223000Y-15135250D02*
X11193000Y-15165250D01*
X11380000Y-10607000D02*
X11410000Y-10637000D01*
X11410000Y-10607000D02*
X11380000Y-10637000D01*
X11380000Y-12807000D02*
X11410000Y-12837000D01*
X11410000Y-12807000D02*
X11380000Y-12837000D01*
X11380000Y-15007000D02*
X11410000Y-15037000D01*
X11410000Y-15007000D02*
X11380000Y-15037000D01*
X11447000Y-11306750D02*
X11477000Y-11336750D01*
X11477000Y-11306750D02*
X11447000Y-11336750D01*
X11447000Y-11479250D02*
X11477000Y-11509250D01*
X11477000Y-11479250D02*
X11447000Y-11509250D01*
X11447000Y-13506750D02*
X11477000Y-13536750D01*
X11477000Y-13506750D02*
X11447000Y-13536750D01*
X11447000Y-13679250D02*
X11477000Y-13709250D01*
X11477000Y-13679250D02*
X11447000Y-13709250D01*
X11447000Y-15706750D02*
X11477000Y-15736750D01*
X11477000Y-15706750D02*
X11447000Y-15736750D01*
X11447000Y-15879250D02*
X11477000Y-15909250D01*
X11477000Y-15879250D02*
X11447000Y-15909250D01*
X11562750Y-10984000D02*
X11592750Y-11014000D01*
X11592750Y-10984000D02*
X11562750Y-11014000D01*
X11562750Y-13184000D02*
X11592750Y-13214000D01*
X11592750Y-13184000D02*
X11562750Y-13214000D01*
X11562750Y-15384000D02*
X11592750Y-15414000D01*
X11592750Y-15384000D02*
X11562750Y-15414000D01*
X11837500Y-10689000D02*
X11867500Y-10719000D01*
X11867500Y-10689000D02*
X11837500Y-10719000D01*
X11837500Y-12889000D02*
X11867500Y-12919000D01*
X11867500Y-12889000D02*
X11837500Y-12919000D01*
X11837500Y-15089000D02*
X11867500Y-15119000D01*
X11867500Y-15089000D02*
X11837500Y-15119000D01*
X11856000Y-11905000D02*
X11886000Y-11935000D01*
X11886000Y-11905000D02*
X11856000Y-11935000D01*
X11856000Y-14105000D02*
X11886000Y-14135000D01*
X11886000Y-14105000D02*
X11856000Y-14135000D01*
X11856000Y-16305000D02*
X11886000Y-16335000D01*
X11886000Y-16305000D02*
X11856000Y-16335000D01*
X11892710Y-11317500D02*
X11922710Y-11347500D01*
X11922710Y-11317500D02*
X11892710Y-11347500D01*
X11892710Y-13517500D02*
X11922710Y-13547500D01*
X11922710Y-13517500D02*
X11892710Y-13547500D01*
X11892710Y-15717500D02*
X11922710Y-15747500D01*
X11922710Y-15717500D02*
X11892710Y-15747500D01*
X11893000Y-11163000D02*
X11923000Y-11193000D01*
X11923000Y-11163000D02*
X11893000Y-11193000D01*
X11893000Y-13363000D02*
X11923000Y-13393000D01*
X11923000Y-13363000D02*
X11893000Y-13393000D01*
X11893000Y-15563000D02*
X11923000Y-15593000D01*
X11923000Y-15563000D02*
X11893000Y-15593000D01*
X11920000Y-11467500D02*
X11950000Y-11497500D01*
X11950000Y-11467500D02*
X11920000Y-11497500D01*
X11920000Y-13667500D02*
X11950000Y-13697500D01*
X11950000Y-13667500D02*
X11920000Y-13697500D01*
X11920000Y-15867500D02*
X11950000Y-15897500D01*
X11950000Y-15867500D02*
X11920000Y-15897500D01*
X12010000Y-10689000D02*
X12040000Y-10719000D01*
X12040000Y-10689000D02*
X12010000Y-10719000D01*
X12010000Y-12889000D02*
X12040000Y-12919000D01*
X12040000Y-12889000D02*
X12010000Y-12919000D01*
X12010000Y-15089000D02*
X12040000Y-15119000D01*
X12040000Y-15089000D02*
X12010000Y-15119000D01*
X12168000Y-10689000D02*
X12198000Y-10719000D01*
X12198000Y-10689000D02*
X12168000Y-10719000D01*
X12168000Y-12889000D02*
X12198000Y-12919000D01*
X12198000Y-12889000D02*
X12168000Y-12919000D01*
X12168000Y-15089000D02*
X12198000Y-15119000D01*
X12198000Y-15089000D02*
X12168000Y-15119000D01*
X12224000Y-11873000D02*
X12254000Y-11903000D01*
X12254000Y-11873000D02*
X12224000Y-11903000D01*
X12224000Y-14073000D02*
X12254000Y-14103000D01*
X12254000Y-14073000D02*
X12224000Y-14103000D01*
X12224000Y-16273000D02*
X12254000Y-16303000D01*
X12254000Y-16273000D02*
X12224000Y-16303000D01*
X12381500Y-11873000D02*
X12411500Y-11903000D01*
X12411500Y-11873000D02*
X12381500Y-11903000D01*
X12381500Y-14073000D02*
X12411500Y-14103000D01*
X12411500Y-14073000D02*
X12381500Y-14103000D01*
X12381500Y-16273000D02*
X12411500Y-16303000D01*
X12411500Y-16273000D02*
X12381500Y-16303000D01*
X12407000Y-11045000D02*
X12437000Y-11075000D01*
X12437000Y-11045000D02*
X12407000Y-11075000D01*
X12407000Y-13245000D02*
X12437000Y-13275000D01*
X12437000Y-13245000D02*
X12407000Y-13275000D01*
X12407000Y-15445000D02*
X12437000Y-15475000D01*
X12437000Y-15445000D02*
X12407000Y-15475000D01*
X12554000Y-11873000D02*
X12584000Y-11903000D01*
X12584000Y-11873000D02*
X12554000Y-11903000D01*
X12554000Y-14073000D02*
X12584000Y-14103000D01*
X12584000Y-14073000D02*
X12554000Y-14103000D01*
X12554000Y-16273000D02*
X12584000Y-16303000D01*
X12584000Y-16273000D02*
X12554000Y-16303000D01*
X12693743Y-11343596D02*
X12723743Y-11373596D01*
X12723743Y-11343596D02*
X12693743Y-11373596D01*
X12693743Y-13543596D02*
X12723743Y-13573596D01*
X12723743Y-13543596D02*
X12693743Y-13573596D01*
X12693743Y-15743596D02*
X12723743Y-15773596D01*
X12723743Y-15743596D02*
X12693743Y-15773596D01*
X12731250Y-11017000D02*
X12761250Y-11047000D01*
X12761250Y-11017000D02*
X12731250Y-11047000D01*
X12731250Y-13217000D02*
X12761250Y-13247000D01*
X12761250Y-13217000D02*
X12731250Y-13247000D01*
X12731250Y-15417000D02*
X12761250Y-15447000D01*
X12761250Y-15417000D02*
X12731250Y-15447000D01*
X12802000Y-10592000D02*
X12832000Y-10622000D01*
X12832000Y-10592000D02*
X12802000Y-10622000D01*
X12802000Y-12792000D02*
X12832000Y-12822000D01*
X12832000Y-12792000D02*
X12802000Y-12822000D01*
X12802000Y-14992000D02*
X12832000Y-15022000D01*
X12832000Y-14992000D02*
X12802000Y-15022000D01*
X12861000Y-11216000D02*
X12891000Y-11246000D01*
X12891000Y-11216000D02*
X12861000Y-11246000D01*
X12861000Y-13416000D02*
X12891000Y-13446000D01*
X12891000Y-13416000D02*
X12861000Y-13446000D01*
X12861000Y-15616000D02*
X12891000Y-15646000D01*
X12891000Y-15616000D02*
X12861000Y-15646000D01*
X12919000Y-10118000D02*
X12949000Y-10148000D01*
X12949000Y-10118000D02*
X12919000Y-10148000D01*
X12919000Y-12318000D02*
X12949000Y-12348000D01*
X12949000Y-12318000D02*
X12919000Y-12348000D01*
X12919000Y-14518000D02*
X12949000Y-14548000D01*
X12949000Y-14518000D02*
X12919000Y-14548000D01*
X12989750Y-11297000D02*
X13019750Y-11327000D01*
X13019750Y-11297000D02*
X12989750Y-11327000D01*
X12989750Y-11450000D02*
X13019750Y-11480000D01*
X13019750Y-11450000D02*
X12989750Y-11480000D01*
X12989750Y-13497000D02*
X13019750Y-13527000D01*
X13019750Y-13497000D02*
X12989750Y-13527000D01*
X12989750Y-13650000D02*
X13019750Y-13680000D01*
X13019750Y-13650000D02*
X12989750Y-13680000D01*
X12989750Y-15697000D02*
X13019750Y-15727000D01*
X13019750Y-15697000D02*
X12989750Y-15727000D01*
X12989750Y-15850000D02*
X13019750Y-15880000D01*
X13019750Y-15850000D02*
X12989750Y-15880000D01*
X13030500Y-10667500D02*
X13060500Y-10697500D01*
X13060500Y-10667500D02*
X13030500Y-10697500D01*
X13030500Y-12867500D02*
X13060500Y-12897500D01*
X13060500Y-12867500D02*
X13030500Y-12897500D01*
X13030500Y-15067500D02*
X13060500Y-15097500D01*
X13060500Y-15067500D02*
X13030500Y-15097500D01*
X13304000Y-11274000D02*
X13334000Y-11304000D01*
X13334000Y-11274000D02*
X13304000Y-11304000D01*
X13304000Y-13474000D02*
X13334000Y-13504000D01*
X13334000Y-13474000D02*
X13304000Y-13504000D01*
X13304000Y-15674000D02*
X13334000Y-15704000D01*
X13334000Y-15674000D02*
X13304000Y-15704000D01*
X13533000Y-11324000D02*
X13563000Y-11354000D01*
X13563000Y-11324000D02*
X13533000Y-11354000D01*
X13533000Y-13524000D02*
X13563000Y-13554000D01*
X13563000Y-13524000D02*
X13533000Y-13554000D01*
X13533000Y-15724000D02*
X13563000Y-15754000D01*
X13563000Y-15724000D02*
X13533000Y-15754000D01*
X13546000Y-10979000D02*
X13576000Y-11009000D01*
X13576000Y-10979000D02*
X13546000Y-11009000D01*
X13546000Y-13179000D02*
X13576000Y-13209000D01*
X13576000Y-13179000D02*
X13546000Y-13209000D01*
X13546000Y-15379000D02*
X13576000Y-15409000D01*
X13576000Y-15379000D02*
X13546000Y-15409000D01*
X13547000Y-11619000D02*
X13577000Y-11649000D01*
X13577000Y-11619000D02*
X13547000Y-11649000D01*
X13547000Y-13819000D02*
X13577000Y-13849000D01*
X13577000Y-13819000D02*
X13547000Y-13849000D01*
X13547000Y-16019000D02*
X13577000Y-16049000D01*
X13577000Y-16019000D02*
X13547000Y-16049000D01*
X13695750Y-11122000D02*
X13725750Y-11152000D01*
X13725750Y-11122000D02*
X13695750Y-11152000D01*
X13695750Y-11432000D02*
X13725750Y-11462000D01*
X13725750Y-11432000D02*
X13695750Y-11462000D01*
X13695750Y-13322000D02*
X13725750Y-13352000D01*
X13725750Y-13322000D02*
X13695750Y-13352000D01*
X13695750Y-13632000D02*
X13725750Y-13662000D01*
X13725750Y-13632000D02*
X13695750Y-13662000D01*
X13695750Y-15522000D02*
X13725750Y-15552000D01*
X13725750Y-15522000D02*
X13695750Y-15552000D01*
X13695750Y-15832000D02*
X13725750Y-15862000D01*
X13725750Y-15832000D02*
X13695750Y-15862000D01*
X13521500Y-10882000D02*
G75*
G02*
X13461500Y-10882000I-30000J0D01*
G01*
X13461500Y-10882000D02*
G75*
G02*
X13521500Y-10882000I30000J0D01*
G01*
X13436500Y-10912000D02*
X13546500Y-10912000D01*
X13546500Y-10852000D02*
G75*
G02*
X13546500Y-10912000I0J-30000D01*
G01*
X13546500Y-10852000D02*
X13436500Y-10852000D01*
X13436500Y-10852000D02*
G75*
G03*
X13436500Y-10912000I0J-30000D01*
G01*
X13521500Y-11746000D02*
G75*
G02*
X13461500Y-11746000I-30000J0D01*
G01*
X13461500Y-11746000D02*
G75*
G02*
X13521500Y-11746000I30000J0D01*
G01*
X13436500Y-11776000D02*
X13546500Y-11776000D01*
X13546500Y-11716000D02*
G75*
G02*
X13546500Y-11776000I0J-30000D01*
G01*
X13546500Y-11716000D02*
X13436500Y-11716000D01*
X13436500Y-11716000D02*
G75*
G03*
X13436500Y-11776000I0J-30000D01*
G01*
X13521500Y-13082000D02*
G75*
G02*
X13461500Y-13082000I-30000J0D01*
G01*
X13461500Y-13082000D02*
G75*
G02*
X13521500Y-13082000I30000J0D01*
G01*
X13436500Y-13112000D02*
X13546500Y-13112000D01*
X13546500Y-13052000D02*
G75*
G02*
X13546500Y-13112000I0J-30000D01*
G01*
X13546500Y-13052000D02*
X13436500Y-13052000D01*
X13436500Y-13052000D02*
G75*
G03*
X13436500Y-13112000I0J-30000D01*
G01*
X13521500Y-13946000D02*
G75*
G02*
X13461500Y-13946000I-30000J0D01*
G01*
X13461500Y-13946000D02*
G75*
G02*
X13521500Y-13946000I30000J0D01*
G01*
X13436500Y-13976000D02*
X13546500Y-13976000D01*
X13546500Y-13916000D02*
G75*
G02*
X13546500Y-13976000I0J-30000D01*
G01*
X13546500Y-13916000D02*
X13436500Y-13916000D01*
X13436500Y-13916000D02*
G75*
G03*
X13436500Y-13976000I0J-30000D01*
G01*
X13521500Y-15282000D02*
G75*
G02*
X13461500Y-15282000I-30000J0D01*
G01*
X13461500Y-15282000D02*
G75*
G02*
X13521500Y-15282000I30000J0D01*
G01*
X13436500Y-15312000D02*
X13546500Y-15312000D01*
X13546500Y-15252000D02*
G75*
G02*
X13546500Y-15312000I0J-30000D01*
G01*
X13546500Y-15252000D02*
X13436500Y-15252000D01*
X13436500Y-15252000D02*
G75*
G03*
X13436500Y-15312000I0J-30000D01*
G01*
X13521500Y-16146000D02*
G75*
G02*
X13461500Y-16146000I-30000J0D01*
G01*
X13461500Y-16146000D02*
G75*
G02*
X13521500Y-16146000I30000J0D01*
G01*
X13436500Y-16176000D02*
X13546500Y-16176000D01*
X13546500Y-16116000D02*
G75*
G02*
X13546500Y-16176000I0J-30000D01*
G01*
X13546500Y-16116000D02*
X13436500Y-16116000D01*
X13436500Y-16116000D02*
G75*
G03*
X13436500Y-16176000I0J-30000D01*
G01*
X13939500Y-10882000D02*
G75*
G02*
X13879500Y-10882000I-30000J0D01*
G01*
X13879500Y-10882000D02*
G75*
G02*
X13939500Y-10882000I30000J0D01*
G01*
X13869500Y-10912000D02*
X13949500Y-10912000D01*
X13949500Y-10852000D02*
G75*
G02*
X13949500Y-10912000I0J-30000D01*
G01*
X13949500Y-10852000D02*
X13869500Y-10852000D01*
X13869500Y-10852000D02*
G75*
G03*
X13869500Y-10912000I0J-30000D01*
G01*
X13939500Y-11746000D02*
G75*
G02*
X13879500Y-11746000I-30000J0D01*
G01*
X13879500Y-11746000D02*
G75*
G02*
X13939500Y-11746000I30000J0D01*
G01*
X13869500Y-11776000D02*
X13949500Y-11776000D01*
X13949500Y-11716000D02*
G75*
G02*
X13949500Y-11776000I0J-30000D01*
G01*
X13949500Y-11716000D02*
X13869500Y-11716000D01*
X13869500Y-11716000D02*
G75*
G03*
X13869500Y-11776000I0J-30000D01*
G01*
X13939500Y-13082000D02*
G75*
G02*
X13879500Y-13082000I-30000J0D01*
G01*
X13879500Y-13082000D02*
G75*
G02*
X13939500Y-13082000I30000J0D01*
G01*
X13869500Y-13112000D02*
X13949500Y-13112000D01*
X13949500Y-13052000D02*
G75*
G02*
X13949500Y-13112000I0J-30000D01*
G01*
X13949500Y-13052000D02*
X13869500Y-13052000D01*
X13869500Y-13052000D02*
G75*
G03*
X13869500Y-13112000I0J-30000D01*
G01*
X13939500Y-13946000D02*
G75*
G02*
X13879500Y-13946000I-30000J0D01*
G01*
X13879500Y-13946000D02*
G75*
G02*
X13939500Y-13946000I30000J0D01*
G01*
X13869500Y-13976000D02*
X13949500Y-13976000D01*
X13949500Y-13916000D02*
G75*
G02*
X13949500Y-13976000I0J-30000D01*
G01*
X13949500Y-13916000D02*
X13869500Y-13916000D01*
X13869500Y-13916000D02*
G75*
G03*
X13869500Y-13976000I0J-30000D01*
G01*
X13939500Y-15282000D02*
G75*
G02*
X13879500Y-15282000I-30000J0D01*
G01*
X13879500Y-15282000D02*
G75*
G02*
X13939500Y-15282000I30000J0D01*
G01*
X13869500Y-15312000D02*
X13949500Y-15312000D01*
X13949500Y-15252000D02*
G75*
G02*
X13949500Y-15312000I0J-30000D01*
G01*
X13949500Y-15252000D02*
X13869500Y-15252000D01*
X13869500Y-15252000D02*
G75*
G03*
X13869500Y-15312000I0J-30000D01*
G01*
X13939500Y-16146000D02*
G75*
G02*
X13879500Y-16146000I-30000J0D01*
G01*
X13879500Y-16146000D02*
G75*
G02*
X13939500Y-16146000I30000J0D01*
G01*
X13869500Y-16176000D02*
X13949500Y-16176000D01*
X13949500Y-16116000D02*
G75*
G02*
X13949500Y-16176000I0J-30000D01*
G01*
X13949500Y-16116000D02*
X13869500Y-16116000D01*
X13869500Y-16116000D02*
G75*
G03*
X13869500Y-16176000I0J-30000D01*
G01*
X11000000Y-10384000D02*
X11000000Y-10464000D01*
X10960000Y-10424000D02*
X11040000Y-10424000D01*
X11000000Y-10872000D02*
X11000000Y-10952000D01*
X10960000Y-10912000D02*
X11040000Y-10912000D01*
X11000000Y-12584000D02*
X11000000Y-12664000D01*
X10960000Y-12624000D02*
X11040000Y-12624000D01*
X11000000Y-13072000D02*
X11000000Y-13152000D01*
X10960000Y-13112000D02*
X11040000Y-13112000D01*
X11000000Y-14784000D02*
X11000000Y-14864000D01*
X10960000Y-14824000D02*
X11040000Y-14824000D01*
X11000000Y-15272000D02*
X11000000Y-15352000D01*
X10960000Y-15312000D02*
X11040000Y-15312000D01*
X10348088Y-10408588D02*
X10348088Y-10341412D01*
X10280912Y-10341412D01*
X10280912Y-10408588D01*
X10348088Y-10408588D01*
X10348088Y-10658588D02*
X10348088Y-10591412D01*
X10280912Y-10591412D01*
X10280912Y-10658588D01*
X10348088Y-10658588D01*
X10348088Y-10908588D02*
X10348088Y-10841412D01*
X10280912Y-10841412D01*
X10280912Y-10908588D01*
X10348088Y-10908588D01*
X10348088Y-11158588D02*
X10348088Y-11091412D01*
X10280912Y-11091412D01*
X10280912Y-11158588D01*
X10348088Y-11158588D01*
X10348088Y-11408588D02*
X10348088Y-11341412D01*
X10280912Y-11341412D01*
X10280912Y-11408588D01*
X10348088Y-11408588D01*
X10348088Y-11658588D02*
X10348088Y-11591412D01*
X10280912Y-11591412D01*
X10280912Y-11658588D01*
X10348088Y-11658588D01*
X10348088Y-12608588D02*
X10348088Y-12541412D01*
X10280912Y-12541412D01*
X10280912Y-12608588D01*
X10348088Y-12608588D01*
X10348088Y-12858588D02*
X10348088Y-12791412D01*
X10280912Y-12791412D01*
X10280912Y-12858588D01*
X10348088Y-12858588D01*
X10348088Y-13108588D02*
X10348088Y-13041412D01*
X10280912Y-13041412D01*
X10280912Y-13108588D01*
X10348088Y-13108588D01*
X10348088Y-13358588D02*
X10348088Y-13291412D01*
X10280912Y-13291412D01*
X10280912Y-13358588D01*
X10348088Y-13358588D01*
X10348088Y-13608588D02*
X10348088Y-13541412D01*
X10280912Y-13541412D01*
X10280912Y-13608588D01*
X10348088Y-13608588D01*
X10348088Y-13858588D02*
X10348088Y-13791412D01*
X10280912Y-13791412D01*
X10280912Y-13858588D01*
X10348088Y-13858588D01*
X10348088Y-14808588D02*
X10348088Y-14741412D01*
X10280912Y-14741412D01*
X10280912Y-14808588D01*
X10348088Y-14808588D01*
X10348088Y-15058588D02*
X10348088Y-14991412D01*
X10280912Y-14991412D01*
X10280912Y-15058588D01*
X10348088Y-15058588D01*
X10348088Y-15308588D02*
X10348088Y-15241412D01*
X10280912Y-15241412D01*
X10280912Y-15308588D01*
X10348088Y-15308588D01*
X10348088Y-15558588D02*
X10348088Y-15491412D01*
X10280912Y-15491412D01*
X10280912Y-15558588D01*
X10348088Y-15558588D01*
X10348088Y-15808588D02*
X10348088Y-15741412D01*
X10280912Y-15741412D01*
X10280912Y-15808588D01*
X10348088Y-15808588D01*
X10348088Y-16058588D02*
X10348088Y-15991412D01*
X10280912Y-15991412D01*
X10280912Y-16058588D01*
X10348088Y-16058588D01*
X11813000Y-10291000D02*
X11863000Y-10241000D01*
X11813000Y-10191000D01*
X11763000Y-10241000D01*
X11813000Y-10291000D01*
X11813000Y-12491000D02*
X11863000Y-12441000D01*
X11813000Y-12391000D01*
X11763000Y-12441000D01*
X11813000Y-12491000D01*
X11813000Y-14691000D02*
X11863000Y-14641000D01*
X11813000Y-14591000D01*
X11763000Y-14641000D01*
X11813000Y-14691000D01*
X12067000Y-10291000D02*
X12117000Y-10241000D01*
X12067000Y-10191000D01*
X12017000Y-10241000D01*
X12067000Y-10291000D01*
X12067000Y-12491000D02*
X12117000Y-12441000D01*
X12067000Y-12391000D01*
X12017000Y-12441000D01*
X12067000Y-12491000D01*
X12067000Y-14691000D02*
X12117000Y-14641000D01*
X12067000Y-14591000D01*
X12017000Y-14641000D01*
X12067000Y-14691000D01*
X12321000Y-10291000D02*
X12371000Y-10241000D01*
X12321000Y-10191000D01*
X12271000Y-10241000D01*
X12321000Y-10291000D01*
X12321000Y-12491000D02*
X12371000Y-12441000D01*
X12321000Y-12391000D01*
X12271000Y-12441000D01*
X12321000Y-12491000D01*
X12321000Y-14691000D02*
X12371000Y-14641000D01*
X12321000Y-14591000D01*
X12271000Y-14641000D01*
X12321000Y-14691000D01*
X12575000Y-10291000D02*
X12625000Y-10241000D01*
X12575000Y-10191000D01*
X12525000Y-10241000D01*
X12575000Y-10291000D01*
X12575000Y-12491000D02*
X12625000Y-12441000D01*
X12575000Y-12391000D01*
X12525000Y-12441000D01*
X12575000Y-12491000D01*
X12575000Y-14691000D02*
X12625000Y-14641000D01*
X12575000Y-14591000D01*
X12525000Y-14641000D01*
X12575000Y-14691000D01*
D11*
X10258277Y-16713984D02*
X10258277Y-16513984D01*
X10258277Y-16513984D02*
X10305896Y-16513984D01*
X10305896Y-16513984D02*
X10334467Y-16523508D01*
X10334467Y-16523508D02*
X10353515Y-16542555D01*
X10353515Y-16542555D02*
X10363039Y-16561603D01*
X10363039Y-16561603D02*
X10372563Y-16599698D01*
X10372563Y-16599698D02*
X10372563Y-16628269D01*
X10372563Y-16628269D02*
X10363039Y-16666365D01*
X10363039Y-16666365D02*
X10353515Y-16685412D01*
X10353515Y-16685412D02*
X10334467Y-16704460D01*
X10334467Y-16704460D02*
X10305896Y-16713984D01*
X10305896Y-16713984D02*
X10258277Y-16713984D01*
X10458277Y-16713984D02*
X10458277Y-16580650D01*
X10458277Y-16618746D02*
X10467801Y-16599698D01*
X10467801Y-16599698D02*
X10477324Y-16590174D01*
X10477324Y-16590174D02*
X10496372Y-16580650D01*
X10496372Y-16580650D02*
X10515420Y-16580650D01*
X10582086Y-16713984D02*
X10582086Y-16580650D01*
X10582086Y-16513984D02*
X10572563Y-16523508D01*
X10572563Y-16523508D02*
X10582086Y-16533031D01*
X10582086Y-16533031D02*
X10591610Y-16523508D01*
X10591610Y-16523508D02*
X10582086Y-16513984D01*
X10582086Y-16513984D02*
X10582086Y-16533031D01*
X10705896Y-16713984D02*
X10686848Y-16704460D01*
X10686848Y-16704460D02*
X10677324Y-16685412D01*
X10677324Y-16685412D02*
X10677324Y-16513984D01*
X10810658Y-16713984D02*
X10791610Y-16704460D01*
X10791610Y-16704460D02*
X10782086Y-16685412D01*
X10782086Y-16685412D02*
X10782086Y-16513984D01*
X11039229Y-16713984D02*
X11039229Y-16513984D01*
X11039229Y-16513984D02*
X11105896Y-16656841D01*
X11105896Y-16656841D02*
X11172563Y-16513984D01*
X11172563Y-16513984D02*
X11172563Y-16713984D01*
X11353515Y-16713984D02*
X11353515Y-16609222D01*
X11353515Y-16609222D02*
X11343991Y-16590174D01*
X11343991Y-16590174D02*
X11324943Y-16580650D01*
X11324943Y-16580650D02*
X11286848Y-16580650D01*
X11286848Y-16580650D02*
X11267801Y-16590174D01*
X11353515Y-16704460D02*
X11334467Y-16713984D01*
X11334467Y-16713984D02*
X11286848Y-16713984D01*
X11286848Y-16713984D02*
X11267801Y-16704460D01*
X11267801Y-16704460D02*
X11258277Y-16685412D01*
X11258277Y-16685412D02*
X11258277Y-16666365D01*
X11258277Y-16666365D02*
X11267801Y-16647317D01*
X11267801Y-16647317D02*
X11286848Y-16637793D01*
X11286848Y-16637793D02*
X11334467Y-16637793D01*
X11334467Y-16637793D02*
X11353515Y-16628269D01*
X11448753Y-16580650D02*
X11448753Y-16780650D01*
X11448753Y-16590174D02*
X11467801Y-16580650D01*
X11467801Y-16580650D02*
X11505896Y-16580650D01*
X11505896Y-16580650D02*
X11524943Y-16590174D01*
X11524943Y-16590174D02*
X11534467Y-16599698D01*
X11534467Y-16599698D02*
X11543991Y-16618746D01*
X11543991Y-16618746D02*
X11543991Y-16675888D01*
X11543991Y-16675888D02*
X11534467Y-16694936D01*
X11534467Y-16694936D02*
X11524943Y-16704460D01*
X11524943Y-16704460D02*
X11505896Y-16713984D01*
X11505896Y-16713984D02*
X11467801Y-16713984D01*
X11467801Y-16713984D02*
X11448753Y-16704460D01*
X11629705Y-16694936D02*
X11639229Y-16704460D01*
X11639229Y-16704460D02*
X11629705Y-16713984D01*
X11629705Y-16713984D02*
X11620182Y-16704460D01*
X11620182Y-16704460D02*
X11629705Y-16694936D01*
X11629705Y-16694936D02*
X11629705Y-16713984D01*
X11629705Y-16590174D02*
X11639229Y-16599698D01*
X11639229Y-16599698D02*
X11629705Y-16609222D01*
X11629705Y-16609222D02*
X11620182Y-16599698D01*
X11620182Y-16599698D02*
X11629705Y-16590174D01*
X11629705Y-16590174D02*
X11629705Y-16609222D01*
D12*
X9967500Y-17027500D02*
X9997500Y-17057500D01*
X9997500Y-17027500D02*
X9967500Y-17057500D01*
D11*
X10296372Y-16933984D02*
X10315420Y-16933984D01*
X10315420Y-16933984D02*
X10334467Y-16943508D01*
X10334467Y-16943508D02*
X10343991Y-16953031D01*
X10343991Y-16953031D02*
X10353515Y-16972079D01*
X10353515Y-16972079D02*
X10363039Y-17010174D01*
X10363039Y-17010174D02*
X10363039Y-17057793D01*
X10363039Y-17057793D02*
X10353515Y-17095889D01*
X10353515Y-17095889D02*
X10343991Y-17114936D01*
X10343991Y-17114936D02*
X10334467Y-17124460D01*
X10334467Y-17124460D02*
X10315420Y-17133984D01*
X10315420Y-17133984D02*
X10296372Y-17133984D01*
X10296372Y-17133984D02*
X10277324Y-17124460D01*
X10277324Y-17124460D02*
X10267801Y-17114936D01*
X10267801Y-17114936D02*
X10258277Y-17095889D01*
X10258277Y-17095889D02*
X10248753Y-17057793D01*
X10248753Y-17057793D02*
X10248753Y-17010174D01*
X10248753Y-17010174D02*
X10258277Y-16972079D01*
X10258277Y-16972079D02*
X10267801Y-16953031D01*
X10267801Y-16953031D02*
X10277324Y-16943508D01*
X10277324Y-16943508D02*
X10296372Y-16933984D01*
X10448753Y-17114936D02*
X10458277Y-17124460D01*
X10458277Y-17124460D02*
X10448753Y-17133984D01*
X10448753Y-17133984D02*
X10439229Y-17124460D01*
X10439229Y-17124460D02*
X10448753Y-17114936D01*
X10448753Y-17114936D02*
X10448753Y-17133984D01*
X10524944Y-16933984D02*
X10648753Y-16933984D01*
X10648753Y-16933984D02*
X10582086Y-17010174D01*
X10582086Y-17010174D02*
X10610658Y-17010174D01*
X10610658Y-17010174D02*
X10629705Y-17019698D01*
X10629705Y-17019698D02*
X10639229Y-17029222D01*
X10639229Y-17029222D02*
X10648753Y-17048270D01*
X10648753Y-17048270D02*
X10648753Y-17095889D01*
X10648753Y-17095889D02*
X10639229Y-17114936D01*
X10639229Y-17114936D02*
X10629705Y-17124460D01*
X10629705Y-17124460D02*
X10610658Y-17133984D01*
X10610658Y-17133984D02*
X10553515Y-17133984D01*
X10553515Y-17133984D02*
X10534467Y-17124460D01*
X10534467Y-17124460D02*
X10524944Y-17114936D01*
X10772563Y-16933984D02*
X10791610Y-16933984D01*
X10791610Y-16933984D02*
X10810658Y-16943508D01*
X10810658Y-16943508D02*
X10820182Y-16953031D01*
X10820182Y-16953031D02*
X10829705Y-16972079D01*
X10829705Y-16972079D02*
X10839229Y-17010174D01*
X10839229Y-17010174D02*
X10839229Y-17057793D01*
X10839229Y-17057793D02*
X10829705Y-17095889D01*
X10829705Y-17095889D02*
X10820182Y-17114936D01*
X10820182Y-17114936D02*
X10810658Y-17124460D01*
X10810658Y-17124460D02*
X10791610Y-17133984D01*
X10791610Y-17133984D02*
X10772563Y-17133984D01*
X10772563Y-17133984D02*
X10753515Y-17124460D01*
X10753515Y-17124460D02*
X10743991Y-17114936D01*
X10743991Y-17114936D02*
X10734467Y-17095889D01*
X10734467Y-17095889D02*
X10724944Y-17057793D01*
X10724944Y-17057793D02*
X10724944Y-17010174D01*
X10724944Y-17010174D02*
X10734467Y-16972079D01*
X10734467Y-16972079D02*
X10743991Y-16953031D01*
X10743991Y-16953031D02*
X10753515Y-16943508D01*
X10753515Y-16943508D02*
X10772563Y-16933984D01*
X10963039Y-16933984D02*
X10982086Y-16933984D01*
X10982086Y-16933984D02*
X11001134Y-16943508D01*
X11001134Y-16943508D02*
X11010658Y-16953031D01*
X11010658Y-16953031D02*
X11020182Y-16972079D01*
X11020182Y-16972079D02*
X11029705Y-17010174D01*
X11029705Y-17010174D02*
X11029705Y-17057793D01*
X11029705Y-17057793D02*
X11020182Y-17095889D01*
X11020182Y-17095889D02*
X11010658Y-17114936D01*
X11010658Y-17114936D02*
X11001134Y-17124460D01*
X11001134Y-17124460D02*
X10982086Y-17133984D01*
X10982086Y-17133984D02*
X10963039Y-17133984D01*
X10963039Y-17133984D02*
X10943991Y-17124460D01*
X10943991Y-17124460D02*
X10934467Y-17114936D01*
X10934467Y-17114936D02*
X10924944Y-17095889D01*
X10924944Y-17095889D02*
X10915420Y-17057793D01*
X10915420Y-17057793D02*
X10915420Y-17010174D01*
X10915420Y-17010174D02*
X10924944Y-16972079D01*
X10924944Y-16972079D02*
X10934467Y-16953031D01*
X10934467Y-16953031D02*
X10943991Y-16943508D01*
X10943991Y-16943508D02*
X10963039Y-16933984D01*
X11115420Y-17133984D02*
X11115420Y-17000650D01*
X11115420Y-17019698D02*
X11124944Y-17010174D01*
X11124944Y-17010174D02*
X11143991Y-17000650D01*
X11143991Y-17000650D02*
X11172563Y-17000650D01*
X11172563Y-17000650D02*
X11191610Y-17010174D01*
X11191610Y-17010174D02*
X11201134Y-17029222D01*
X11201134Y-17029222D02*
X11201134Y-17133984D01*
X11201134Y-17029222D02*
X11210658Y-17010174D01*
X11210658Y-17010174D02*
X11229705Y-17000650D01*
X11229705Y-17000650D02*
X11258277Y-17000650D01*
X11258277Y-17000650D02*
X11277324Y-17010174D01*
X11277324Y-17010174D02*
X11286848Y-17029222D01*
X11286848Y-17029222D02*
X11286848Y-17133984D01*
X11382086Y-17133984D02*
X11382086Y-17000650D01*
X11382086Y-17019698D02*
X11391610Y-17010174D01*
X11391610Y-17010174D02*
X11410658Y-17000650D01*
X11410658Y-17000650D02*
X11439229Y-17000650D01*
X11439229Y-17000650D02*
X11458277Y-17010174D01*
X11458277Y-17010174D02*
X11467801Y-17029222D01*
X11467801Y-17029222D02*
X11467801Y-17133984D01*
X11467801Y-17029222D02*
X11477324Y-17010174D01*
X11477324Y-17010174D02*
X11496372Y-17000650D01*
X11496372Y-17000650D02*
X11524943Y-17000650D01*
X11524943Y-17000650D02*
X11543991Y-17010174D01*
X11543991Y-17010174D02*
X11553515Y-17029222D01*
X11553515Y-17029222D02*
X11553515Y-17133984D01*
X11943991Y-16924460D02*
X11772563Y-17181603D01*
X12201134Y-16933984D02*
X12220182Y-16933984D01*
X12220182Y-16933984D02*
X12239229Y-16943508D01*
X12239229Y-16943508D02*
X12248753Y-16953031D01*
X12248753Y-16953031D02*
X12258277Y-16972079D01*
X12258277Y-16972079D02*
X12267801Y-17010174D01*
X12267801Y-17010174D02*
X12267801Y-17057793D01*
X12267801Y-17057793D02*
X12258277Y-17095889D01*
X12258277Y-17095889D02*
X12248753Y-17114936D01*
X12248753Y-17114936D02*
X12239229Y-17124460D01*
X12239229Y-17124460D02*
X12220182Y-17133984D01*
X12220182Y-17133984D02*
X12201134Y-17133984D01*
X12201134Y-17133984D02*
X12182086Y-17124460D01*
X12182086Y-17124460D02*
X12172563Y-17114936D01*
X12172563Y-17114936D02*
X12163039Y-17095889D01*
X12163039Y-17095889D02*
X12153515Y-17057793D01*
X12153515Y-17057793D02*
X12153515Y-17010174D01*
X12153515Y-17010174D02*
X12163039Y-16972079D01*
X12163039Y-16972079D02*
X12172563Y-16953031D01*
X12172563Y-16953031D02*
X12182086Y-16943508D01*
X12182086Y-16943508D02*
X12201134Y-16933984D01*
X12353515Y-17114936D02*
X12363039Y-17124460D01*
X12363039Y-17124460D02*
X12353515Y-17133984D01*
X12353515Y-17133984D02*
X12343991Y-17124460D01*
X12343991Y-17124460D02*
X12353515Y-17114936D01*
X12353515Y-17114936D02*
X12353515Y-17133984D01*
X12486848Y-16933984D02*
X12505896Y-16933984D01*
X12505896Y-16933984D02*
X12524944Y-16943508D01*
X12524944Y-16943508D02*
X12534467Y-16953031D01*
X12534467Y-16953031D02*
X12543991Y-16972079D01*
X12543991Y-16972079D02*
X12553515Y-17010174D01*
X12553515Y-17010174D02*
X12553515Y-17057793D01*
X12553515Y-17057793D02*
X12543991Y-17095889D01*
X12543991Y-17095889D02*
X12534467Y-17114936D01*
X12534467Y-17114936D02*
X12524944Y-17124460D01*
X12524944Y-17124460D02*
X12505896Y-17133984D01*
X12505896Y-17133984D02*
X12486848Y-17133984D01*
X12486848Y-17133984D02*
X12467801Y-17124460D01*
X12467801Y-17124460D02*
X12458277Y-17114936D01*
X12458277Y-17114936D02*
X12448753Y-17095889D01*
X12448753Y-17095889D02*
X12439229Y-17057793D01*
X12439229Y-17057793D02*
X12439229Y-17010174D01*
X12439229Y-17010174D02*
X12448753Y-16972079D01*
X12448753Y-16972079D02*
X12458277Y-16953031D01*
X12458277Y-16953031D02*
X12467801Y-16943508D01*
X12467801Y-16943508D02*
X12486848Y-16933984D01*
X12743991Y-17133984D02*
X12629706Y-17133984D01*
X12686848Y-17133984D02*
X12686848Y-16933984D01*
X12686848Y-16933984D02*
X12667801Y-16962555D01*
X12667801Y-16962555D02*
X12648753Y-16981603D01*
X12648753Y-16981603D02*
X12629706Y-16991127D01*
X12934467Y-17133984D02*
X12820182Y-17133984D01*
X12877325Y-17133984D02*
X12877325Y-16933984D01*
X12877325Y-16933984D02*
X12858277Y-16962555D01*
X12858277Y-16962555D02*
X12839229Y-16981603D01*
X12839229Y-16981603D02*
X12820182Y-16991127D01*
X13048753Y-17019698D02*
X13029706Y-17010174D01*
X13029706Y-17010174D02*
X13020182Y-17000650D01*
X13020182Y-17000650D02*
X13010658Y-16981603D01*
X13010658Y-16981603D02*
X13010658Y-16972079D01*
X13010658Y-16972079D02*
X13020182Y-16953031D01*
X13020182Y-16953031D02*
X13029706Y-16943508D01*
X13029706Y-16943508D02*
X13048753Y-16933984D01*
X13048753Y-16933984D02*
X13086848Y-16933984D01*
X13086848Y-16933984D02*
X13105896Y-16943508D01*
X13105896Y-16943508D02*
X13115420Y-16953031D01*
X13115420Y-16953031D02*
X13124944Y-16972079D01*
X13124944Y-16972079D02*
X13124944Y-16981603D01*
X13124944Y-16981603D02*
X13115420Y-17000650D01*
X13115420Y-17000650D02*
X13105896Y-17010174D01*
X13105896Y-17010174D02*
X13086848Y-17019698D01*
X13086848Y-17019698D02*
X13048753Y-17019698D01*
X13048753Y-17019698D02*
X13029706Y-17029222D01*
X13029706Y-17029222D02*
X13020182Y-17038746D01*
X13020182Y-17038746D02*
X13010658Y-17057793D01*
X13010658Y-17057793D02*
X13010658Y-17095889D01*
X13010658Y-17095889D02*
X13020182Y-17114936D01*
X13020182Y-17114936D02*
X13029706Y-17124460D01*
X13029706Y-17124460D02*
X13048753Y-17133984D01*
X13048753Y-17133984D02*
X13086848Y-17133984D01*
X13086848Y-17133984D02*
X13105896Y-17124460D01*
X13105896Y-17124460D02*
X13115420Y-17114936D01*
X13115420Y-17114936D02*
X13124944Y-17095889D01*
X13124944Y-17095889D02*
X13124944Y-17057793D01*
X13124944Y-17057793D02*
X13115420Y-17038746D01*
X13115420Y-17038746D02*
X13105896Y-17029222D01*
X13105896Y-17029222D02*
X13086848Y-17019698D01*
X13201134Y-16933984D02*
X13201134Y-16972079D01*
X13277325Y-16933984D02*
X13277325Y-16972079D01*
X13572563Y-17210174D02*
X13563039Y-17200650D01*
X13563039Y-17200650D02*
X13543991Y-17172079D01*
X13543991Y-17172079D02*
X13534468Y-17153031D01*
X13534468Y-17153031D02*
X13524944Y-17124460D01*
X13524944Y-17124460D02*
X13515420Y-17076841D01*
X13515420Y-17076841D02*
X13515420Y-17038746D01*
X13515420Y-17038746D02*
X13524944Y-16991127D01*
X13524944Y-16991127D02*
X13534468Y-16962555D01*
X13534468Y-16962555D02*
X13543991Y-16943508D01*
X13543991Y-16943508D02*
X13563039Y-16914936D01*
X13563039Y-16914936D02*
X13572563Y-16905412D01*
X13658277Y-17133984D02*
X13696372Y-17133984D01*
X13696372Y-17133984D02*
X13715420Y-17124460D01*
X13715420Y-17124460D02*
X13724944Y-17114936D01*
X13724944Y-17114936D02*
X13743991Y-17086365D01*
X13743991Y-17086365D02*
X13753515Y-17048270D01*
X13753515Y-17048270D02*
X13753515Y-16972079D01*
X13753515Y-16972079D02*
X13743991Y-16953031D01*
X13743991Y-16953031D02*
X13734468Y-16943508D01*
X13734468Y-16943508D02*
X13715420Y-16933984D01*
X13715420Y-16933984D02*
X13677325Y-16933984D01*
X13677325Y-16933984D02*
X13658277Y-16943508D01*
X13658277Y-16943508D02*
X13648753Y-16953031D01*
X13648753Y-16953031D02*
X13639229Y-16972079D01*
X13639229Y-16972079D02*
X13639229Y-17019698D01*
X13639229Y-17019698D02*
X13648753Y-17038746D01*
X13648753Y-17038746D02*
X13658277Y-17048270D01*
X13658277Y-17048270D02*
X13677325Y-17057793D01*
X13677325Y-17057793D02*
X13715420Y-17057793D01*
X13715420Y-17057793D02*
X13734468Y-17048270D01*
X13734468Y-17048270D02*
X13743991Y-17038746D01*
X13743991Y-17038746D02*
X13753515Y-17019698D01*
X13848753Y-17133984D02*
X13886848Y-17133984D01*
X13886848Y-17133984D02*
X13905896Y-17124460D01*
X13905896Y-17124460D02*
X13915420Y-17114936D01*
X13915420Y-17114936D02*
X13934468Y-17086365D01*
X13934468Y-17086365D02*
X13943991Y-17048270D01*
X13943991Y-17048270D02*
X13943991Y-16972079D01*
X13943991Y-16972079D02*
X13934468Y-16953031D01*
X13934468Y-16953031D02*
X13924944Y-16943508D01*
X13924944Y-16943508D02*
X13905896Y-16933984D01*
X13905896Y-16933984D02*
X13867801Y-16933984D01*
X13867801Y-16933984D02*
X13848753Y-16943508D01*
X13848753Y-16943508D02*
X13839229Y-16953031D01*
X13839229Y-16953031D02*
X13829706Y-16972079D01*
X13829706Y-16972079D02*
X13829706Y-17019698D01*
X13829706Y-17019698D02*
X13839229Y-17038746D01*
X13839229Y-17038746D02*
X13848753Y-17048270D01*
X13848753Y-17048270D02*
X13867801Y-17057793D01*
X13867801Y-17057793D02*
X13905896Y-17057793D01*
X13905896Y-17057793D02*
X13924944Y-17048270D01*
X13924944Y-17048270D02*
X13934468Y-17038746D01*
X13934468Y-17038746D02*
X13943991Y-17019698D01*
X14182087Y-17133984D02*
X14182087Y-16933984D01*
X14267801Y-17133984D02*
X14267801Y-17029222D01*
X14267801Y-17029222D02*
X14258277Y-17010174D01*
X14258277Y-17010174D02*
X14239230Y-17000650D01*
X14239230Y-17000650D02*
X14210658Y-17000650D01*
X14210658Y-17000650D02*
X14191610Y-17010174D01*
X14191610Y-17010174D02*
X14182087Y-17019698D01*
X14391610Y-17133984D02*
X14372563Y-17124460D01*
X14372563Y-17124460D02*
X14363039Y-17114936D01*
X14363039Y-17114936D02*
X14353515Y-17095889D01*
X14353515Y-17095889D02*
X14353515Y-17038746D01*
X14353515Y-17038746D02*
X14363039Y-17019698D01*
X14363039Y-17019698D02*
X14372563Y-17010174D01*
X14372563Y-17010174D02*
X14391610Y-17000650D01*
X14391610Y-17000650D02*
X14420182Y-17000650D01*
X14420182Y-17000650D02*
X14439230Y-17010174D01*
X14439230Y-17010174D02*
X14448753Y-17019698D01*
X14448753Y-17019698D02*
X14458277Y-17038746D01*
X14458277Y-17038746D02*
X14458277Y-17095889D01*
X14458277Y-17095889D02*
X14448753Y-17114936D01*
X14448753Y-17114936D02*
X14439230Y-17124460D01*
X14439230Y-17124460D02*
X14420182Y-17133984D01*
X14420182Y-17133984D02*
X14391610Y-17133984D01*
X14572563Y-17133984D02*
X14553515Y-17124460D01*
X14553515Y-17124460D02*
X14543991Y-17105412D01*
X14543991Y-17105412D02*
X14543991Y-16933984D01*
X14724944Y-17124460D02*
X14705896Y-17133984D01*
X14705896Y-17133984D02*
X14667801Y-17133984D01*
X14667801Y-17133984D02*
X14648753Y-17124460D01*
X14648753Y-17124460D02*
X14639230Y-17105412D01*
X14639230Y-17105412D02*
X14639230Y-17029222D01*
X14639230Y-17029222D02*
X14648753Y-17010174D01*
X14648753Y-17010174D02*
X14667801Y-17000650D01*
X14667801Y-17000650D02*
X14705896Y-17000650D01*
X14705896Y-17000650D02*
X14724944Y-17010174D01*
X14724944Y-17010174D02*
X14734468Y-17029222D01*
X14734468Y-17029222D02*
X14734468Y-17048270D01*
X14734468Y-17048270D02*
X14639230Y-17067317D01*
X14810658Y-17124460D02*
X14829706Y-17133984D01*
X14829706Y-17133984D02*
X14867801Y-17133984D01*
X14867801Y-17133984D02*
X14886849Y-17124460D01*
X14886849Y-17124460D02*
X14896372Y-17105412D01*
X14896372Y-17105412D02*
X14896372Y-17095889D01*
X14896372Y-17095889D02*
X14886849Y-17076841D01*
X14886849Y-17076841D02*
X14867801Y-17067317D01*
X14867801Y-17067317D02*
X14839230Y-17067317D01*
X14839230Y-17067317D02*
X14820182Y-17057793D01*
X14820182Y-17057793D02*
X14810658Y-17038746D01*
X14810658Y-17038746D02*
X14810658Y-17029222D01*
X14810658Y-17029222D02*
X14820182Y-17010174D01*
X14820182Y-17010174D02*
X14839230Y-17000650D01*
X14839230Y-17000650D02*
X14867801Y-17000650D01*
X14867801Y-17000650D02*
X14886849Y-17010174D01*
X14963039Y-17210174D02*
X14972563Y-17200650D01*
X14972563Y-17200650D02*
X14991611Y-17172079D01*
X14991611Y-17172079D02*
X15001134Y-17153031D01*
X15001134Y-17153031D02*
X15010658Y-17124460D01*
X15010658Y-17124460D02*
X15020182Y-17076841D01*
X15020182Y-17076841D02*
X15020182Y-17038746D01*
X15020182Y-17038746D02*
X15010658Y-16991127D01*
X15010658Y-16991127D02*
X15001134Y-16962555D01*
X15001134Y-16962555D02*
X14991611Y-16943508D01*
X14991611Y-16943508D02*
X14972563Y-16914936D01*
X14972563Y-16914936D02*
X14963039Y-16905412D01*
D12*
X9997500Y-17306500D02*
G75*
G02*
X9937500Y-17306500I-30000J0D01*
G01*
X9937500Y-17306500D02*
G75*
G02*
X9997500Y-17306500I30000J0D01*
G01*
D11*
X10296372Y-17197984D02*
X10315420Y-17197984D01*
X10315420Y-17197984D02*
X10334467Y-17207508D01*
X10334467Y-17207508D02*
X10343991Y-17217031D01*
X10343991Y-17217031D02*
X10353515Y-17236079D01*
X10353515Y-17236079D02*
X10363039Y-17274174D01*
X10363039Y-17274174D02*
X10363039Y-17321793D01*
X10363039Y-17321793D02*
X10353515Y-17359889D01*
X10353515Y-17359889D02*
X10343991Y-17378936D01*
X10343991Y-17378936D02*
X10334467Y-17388460D01*
X10334467Y-17388460D02*
X10315420Y-17397984D01*
X10315420Y-17397984D02*
X10296372Y-17397984D01*
X10296372Y-17397984D02*
X10277324Y-17388460D01*
X10277324Y-17388460D02*
X10267801Y-17378936D01*
X10267801Y-17378936D02*
X10258277Y-17359889D01*
X10258277Y-17359889D02*
X10248753Y-17321793D01*
X10248753Y-17321793D02*
X10248753Y-17274174D01*
X10248753Y-17274174D02*
X10258277Y-17236079D01*
X10258277Y-17236079D02*
X10267801Y-17217031D01*
X10267801Y-17217031D02*
X10277324Y-17207508D01*
X10277324Y-17207508D02*
X10296372Y-17197984D01*
X10448753Y-17378936D02*
X10458277Y-17388460D01*
X10458277Y-17388460D02*
X10448753Y-17397984D01*
X10448753Y-17397984D02*
X10439229Y-17388460D01*
X10439229Y-17388460D02*
X10448753Y-17378936D01*
X10448753Y-17378936D02*
X10448753Y-17397984D01*
X10629705Y-17197984D02*
X10591610Y-17197984D01*
X10591610Y-17197984D02*
X10572563Y-17207508D01*
X10572563Y-17207508D02*
X10563039Y-17217031D01*
X10563039Y-17217031D02*
X10543991Y-17245603D01*
X10543991Y-17245603D02*
X10534467Y-17283698D01*
X10534467Y-17283698D02*
X10534467Y-17359889D01*
X10534467Y-17359889D02*
X10543991Y-17378936D01*
X10543991Y-17378936D02*
X10553515Y-17388460D01*
X10553515Y-17388460D02*
X10572563Y-17397984D01*
X10572563Y-17397984D02*
X10610658Y-17397984D01*
X10610658Y-17397984D02*
X10629705Y-17388460D01*
X10629705Y-17388460D02*
X10639229Y-17378936D01*
X10639229Y-17378936D02*
X10648753Y-17359889D01*
X10648753Y-17359889D02*
X10648753Y-17312270D01*
X10648753Y-17312270D02*
X10639229Y-17293222D01*
X10639229Y-17293222D02*
X10629705Y-17283698D01*
X10629705Y-17283698D02*
X10610658Y-17274174D01*
X10610658Y-17274174D02*
X10572563Y-17274174D01*
X10572563Y-17274174D02*
X10553515Y-17283698D01*
X10553515Y-17283698D02*
X10543991Y-17293222D01*
X10543991Y-17293222D02*
X10534467Y-17312270D01*
X10772563Y-17197984D02*
X10791610Y-17197984D01*
X10791610Y-17197984D02*
X10810658Y-17207508D01*
X10810658Y-17207508D02*
X10820182Y-17217031D01*
X10820182Y-17217031D02*
X10829705Y-17236079D01*
X10829705Y-17236079D02*
X10839229Y-17274174D01*
X10839229Y-17274174D02*
X10839229Y-17321793D01*
X10839229Y-17321793D02*
X10829705Y-17359889D01*
X10829705Y-17359889D02*
X10820182Y-17378936D01*
X10820182Y-17378936D02*
X10810658Y-17388460D01*
X10810658Y-17388460D02*
X10791610Y-17397984D01*
X10791610Y-17397984D02*
X10772563Y-17397984D01*
X10772563Y-17397984D02*
X10753515Y-17388460D01*
X10753515Y-17388460D02*
X10743991Y-17378936D01*
X10743991Y-17378936D02*
X10734467Y-17359889D01*
X10734467Y-17359889D02*
X10724944Y-17321793D01*
X10724944Y-17321793D02*
X10724944Y-17274174D01*
X10724944Y-17274174D02*
X10734467Y-17236079D01*
X10734467Y-17236079D02*
X10743991Y-17217031D01*
X10743991Y-17217031D02*
X10753515Y-17207508D01*
X10753515Y-17207508D02*
X10772563Y-17197984D01*
X10963039Y-17197984D02*
X10982086Y-17197984D01*
X10982086Y-17197984D02*
X11001134Y-17207508D01*
X11001134Y-17207508D02*
X11010658Y-17217031D01*
X11010658Y-17217031D02*
X11020182Y-17236079D01*
X11020182Y-17236079D02*
X11029705Y-17274174D01*
X11029705Y-17274174D02*
X11029705Y-17321793D01*
X11029705Y-17321793D02*
X11020182Y-17359889D01*
X11020182Y-17359889D02*
X11010658Y-17378936D01*
X11010658Y-17378936D02*
X11001134Y-17388460D01*
X11001134Y-17388460D02*
X10982086Y-17397984D01*
X10982086Y-17397984D02*
X10963039Y-17397984D01*
X10963039Y-17397984D02*
X10943991Y-17388460D01*
X10943991Y-17388460D02*
X10934467Y-17378936D01*
X10934467Y-17378936D02*
X10924944Y-17359889D01*
X10924944Y-17359889D02*
X10915420Y-17321793D01*
X10915420Y-17321793D02*
X10915420Y-17274174D01*
X10915420Y-17274174D02*
X10924944Y-17236079D01*
X10924944Y-17236079D02*
X10934467Y-17217031D01*
X10934467Y-17217031D02*
X10943991Y-17207508D01*
X10943991Y-17207508D02*
X10963039Y-17197984D01*
X11115420Y-17397984D02*
X11115420Y-17264650D01*
X11115420Y-17283698D02*
X11124944Y-17274174D01*
X11124944Y-17274174D02*
X11143991Y-17264650D01*
X11143991Y-17264650D02*
X11172563Y-17264650D01*
X11172563Y-17264650D02*
X11191610Y-17274174D01*
X11191610Y-17274174D02*
X11201134Y-17293222D01*
X11201134Y-17293222D02*
X11201134Y-17397984D01*
X11201134Y-17293222D02*
X11210658Y-17274174D01*
X11210658Y-17274174D02*
X11229705Y-17264650D01*
X11229705Y-17264650D02*
X11258277Y-17264650D01*
X11258277Y-17264650D02*
X11277324Y-17274174D01*
X11277324Y-17274174D02*
X11286848Y-17293222D01*
X11286848Y-17293222D02*
X11286848Y-17397984D01*
X11382086Y-17397984D02*
X11382086Y-17264650D01*
X11382086Y-17283698D02*
X11391610Y-17274174D01*
X11391610Y-17274174D02*
X11410658Y-17264650D01*
X11410658Y-17264650D02*
X11439229Y-17264650D01*
X11439229Y-17264650D02*
X11458277Y-17274174D01*
X11458277Y-17274174D02*
X11467801Y-17293222D01*
X11467801Y-17293222D02*
X11467801Y-17397984D01*
X11467801Y-17293222D02*
X11477324Y-17274174D01*
X11477324Y-17274174D02*
X11496372Y-17264650D01*
X11496372Y-17264650D02*
X11524943Y-17264650D01*
X11524943Y-17264650D02*
X11543991Y-17274174D01*
X11543991Y-17274174D02*
X11553515Y-17293222D01*
X11553515Y-17293222D02*
X11553515Y-17397984D01*
X11943991Y-17188460D02*
X11772563Y-17445603D01*
X12201134Y-17197984D02*
X12220182Y-17197984D01*
X12220182Y-17197984D02*
X12239229Y-17207508D01*
X12239229Y-17207508D02*
X12248753Y-17217031D01*
X12248753Y-17217031D02*
X12258277Y-17236079D01*
X12258277Y-17236079D02*
X12267801Y-17274174D01*
X12267801Y-17274174D02*
X12267801Y-17321793D01*
X12267801Y-17321793D02*
X12258277Y-17359889D01*
X12258277Y-17359889D02*
X12248753Y-17378936D01*
X12248753Y-17378936D02*
X12239229Y-17388460D01*
X12239229Y-17388460D02*
X12220182Y-17397984D01*
X12220182Y-17397984D02*
X12201134Y-17397984D01*
X12201134Y-17397984D02*
X12182086Y-17388460D01*
X12182086Y-17388460D02*
X12172563Y-17378936D01*
X12172563Y-17378936D02*
X12163039Y-17359889D01*
X12163039Y-17359889D02*
X12153515Y-17321793D01*
X12153515Y-17321793D02*
X12153515Y-17274174D01*
X12153515Y-17274174D02*
X12163039Y-17236079D01*
X12163039Y-17236079D02*
X12172563Y-17217031D01*
X12172563Y-17217031D02*
X12182086Y-17207508D01*
X12182086Y-17207508D02*
X12201134Y-17197984D01*
X12353515Y-17378936D02*
X12363039Y-17388460D01*
X12363039Y-17388460D02*
X12353515Y-17397984D01*
X12353515Y-17397984D02*
X12343991Y-17388460D01*
X12343991Y-17388460D02*
X12353515Y-17378936D01*
X12353515Y-17378936D02*
X12353515Y-17397984D01*
X12486848Y-17197984D02*
X12505896Y-17197984D01*
X12505896Y-17197984D02*
X12524944Y-17207508D01*
X12524944Y-17207508D02*
X12534467Y-17217031D01*
X12534467Y-17217031D02*
X12543991Y-17236079D01*
X12543991Y-17236079D02*
X12553515Y-17274174D01*
X12553515Y-17274174D02*
X12553515Y-17321793D01*
X12553515Y-17321793D02*
X12543991Y-17359889D01*
X12543991Y-17359889D02*
X12534467Y-17378936D01*
X12534467Y-17378936D02*
X12524944Y-17388460D01*
X12524944Y-17388460D02*
X12505896Y-17397984D01*
X12505896Y-17397984D02*
X12486848Y-17397984D01*
X12486848Y-17397984D02*
X12467801Y-17388460D01*
X12467801Y-17388460D02*
X12458277Y-17378936D01*
X12458277Y-17378936D02*
X12448753Y-17359889D01*
X12448753Y-17359889D02*
X12439229Y-17321793D01*
X12439229Y-17321793D02*
X12439229Y-17274174D01*
X12439229Y-17274174D02*
X12448753Y-17236079D01*
X12448753Y-17236079D02*
X12458277Y-17217031D01*
X12458277Y-17217031D02*
X12467801Y-17207508D01*
X12467801Y-17207508D02*
X12486848Y-17197984D01*
X12629706Y-17217031D02*
X12639229Y-17207508D01*
X12639229Y-17207508D02*
X12658277Y-17197984D01*
X12658277Y-17197984D02*
X12705896Y-17197984D01*
X12705896Y-17197984D02*
X12724944Y-17207508D01*
X12724944Y-17207508D02*
X12734467Y-17217031D01*
X12734467Y-17217031D02*
X12743991Y-17236079D01*
X12743991Y-17236079D02*
X12743991Y-17255127D01*
X12743991Y-17255127D02*
X12734467Y-17283698D01*
X12734467Y-17283698D02*
X12620182Y-17397984D01*
X12620182Y-17397984D02*
X12743991Y-17397984D01*
X12810658Y-17197984D02*
X12934467Y-17197984D01*
X12934467Y-17197984D02*
X12867801Y-17274174D01*
X12867801Y-17274174D02*
X12896372Y-17274174D01*
X12896372Y-17274174D02*
X12915420Y-17283698D01*
X12915420Y-17283698D02*
X12924944Y-17293222D01*
X12924944Y-17293222D02*
X12934467Y-17312270D01*
X12934467Y-17312270D02*
X12934467Y-17359889D01*
X12934467Y-17359889D02*
X12924944Y-17378936D01*
X12924944Y-17378936D02*
X12915420Y-17388460D01*
X12915420Y-17388460D02*
X12896372Y-17397984D01*
X12896372Y-17397984D02*
X12839229Y-17397984D01*
X12839229Y-17397984D02*
X12820182Y-17388460D01*
X12820182Y-17388460D02*
X12810658Y-17378936D01*
X13105896Y-17197984D02*
X13067801Y-17197984D01*
X13067801Y-17197984D02*
X13048753Y-17207508D01*
X13048753Y-17207508D02*
X13039229Y-17217031D01*
X13039229Y-17217031D02*
X13020182Y-17245603D01*
X13020182Y-17245603D02*
X13010658Y-17283698D01*
X13010658Y-17283698D02*
X13010658Y-17359889D01*
X13010658Y-17359889D02*
X13020182Y-17378936D01*
X13020182Y-17378936D02*
X13029706Y-17388460D01*
X13029706Y-17388460D02*
X13048753Y-17397984D01*
X13048753Y-17397984D02*
X13086848Y-17397984D01*
X13086848Y-17397984D02*
X13105896Y-17388460D01*
X13105896Y-17388460D02*
X13115420Y-17378936D01*
X13115420Y-17378936D02*
X13124944Y-17359889D01*
X13124944Y-17359889D02*
X13124944Y-17312270D01*
X13124944Y-17312270D02*
X13115420Y-17293222D01*
X13115420Y-17293222D02*
X13105896Y-17283698D01*
X13105896Y-17283698D02*
X13086848Y-17274174D01*
X13086848Y-17274174D02*
X13048753Y-17274174D01*
X13048753Y-17274174D02*
X13029706Y-17283698D01*
X13029706Y-17283698D02*
X13020182Y-17293222D01*
X13020182Y-17293222D02*
X13010658Y-17312270D01*
X13201134Y-17197984D02*
X13201134Y-17236079D01*
X13277325Y-17197984D02*
X13277325Y-17236079D01*
X13572563Y-17474174D02*
X13563039Y-17464650D01*
X13563039Y-17464650D02*
X13543991Y-17436079D01*
X13543991Y-17436079D02*
X13534468Y-17417031D01*
X13534468Y-17417031D02*
X13524944Y-17388460D01*
X13524944Y-17388460D02*
X13515420Y-17340841D01*
X13515420Y-17340841D02*
X13515420Y-17302746D01*
X13515420Y-17302746D02*
X13524944Y-17255127D01*
X13524944Y-17255127D02*
X13534468Y-17226555D01*
X13534468Y-17226555D02*
X13543991Y-17207508D01*
X13543991Y-17207508D02*
X13563039Y-17178936D01*
X13563039Y-17178936D02*
X13572563Y-17169412D01*
X13686848Y-17197984D02*
X13705896Y-17197984D01*
X13705896Y-17197984D02*
X13724944Y-17207508D01*
X13724944Y-17207508D02*
X13734468Y-17217031D01*
X13734468Y-17217031D02*
X13743991Y-17236079D01*
X13743991Y-17236079D02*
X13753515Y-17274174D01*
X13753515Y-17274174D02*
X13753515Y-17321793D01*
X13753515Y-17321793D02*
X13743991Y-17359889D01*
X13743991Y-17359889D02*
X13734468Y-17378936D01*
X13734468Y-17378936D02*
X13724944Y-17388460D01*
X13724944Y-17388460D02*
X13705896Y-17397984D01*
X13705896Y-17397984D02*
X13686848Y-17397984D01*
X13686848Y-17397984D02*
X13667801Y-17388460D01*
X13667801Y-17388460D02*
X13658277Y-17378936D01*
X13658277Y-17378936D02*
X13648753Y-17359889D01*
X13648753Y-17359889D02*
X13639229Y-17321793D01*
X13639229Y-17321793D02*
X13639229Y-17274174D01*
X13639229Y-17274174D02*
X13648753Y-17236079D01*
X13648753Y-17236079D02*
X13658277Y-17217031D01*
X13658277Y-17217031D02*
X13667801Y-17207508D01*
X13667801Y-17207508D02*
X13686848Y-17197984D01*
X13991610Y-17397984D02*
X13991610Y-17197984D01*
X14077325Y-17397984D02*
X14077325Y-17293222D01*
X14077325Y-17293222D02*
X14067801Y-17274174D01*
X14067801Y-17274174D02*
X14048753Y-17264650D01*
X14048753Y-17264650D02*
X14020182Y-17264650D01*
X14020182Y-17264650D02*
X14001134Y-17274174D01*
X14001134Y-17274174D02*
X13991610Y-17283698D01*
X14201134Y-17397984D02*
X14182087Y-17388460D01*
X14182087Y-17388460D02*
X14172563Y-17378936D01*
X14172563Y-17378936D02*
X14163039Y-17359889D01*
X14163039Y-17359889D02*
X14163039Y-17302746D01*
X14163039Y-17302746D02*
X14172563Y-17283698D01*
X14172563Y-17283698D02*
X14182087Y-17274174D01*
X14182087Y-17274174D02*
X14201134Y-17264650D01*
X14201134Y-17264650D02*
X14229706Y-17264650D01*
X14229706Y-17264650D02*
X14248753Y-17274174D01*
X14248753Y-17274174D02*
X14258277Y-17283698D01*
X14258277Y-17283698D02*
X14267801Y-17302746D01*
X14267801Y-17302746D02*
X14267801Y-17359889D01*
X14267801Y-17359889D02*
X14258277Y-17378936D01*
X14258277Y-17378936D02*
X14248753Y-17388460D01*
X14248753Y-17388460D02*
X14229706Y-17397984D01*
X14229706Y-17397984D02*
X14201134Y-17397984D01*
X14382087Y-17397984D02*
X14363039Y-17388460D01*
X14363039Y-17388460D02*
X14353515Y-17369412D01*
X14353515Y-17369412D02*
X14353515Y-17197984D01*
X14534468Y-17388460D02*
X14515420Y-17397984D01*
X14515420Y-17397984D02*
X14477325Y-17397984D01*
X14477325Y-17397984D02*
X14458277Y-17388460D01*
X14458277Y-17388460D02*
X14448753Y-17369412D01*
X14448753Y-17369412D02*
X14448753Y-17293222D01*
X14448753Y-17293222D02*
X14458277Y-17274174D01*
X14458277Y-17274174D02*
X14477325Y-17264650D01*
X14477325Y-17264650D02*
X14515420Y-17264650D01*
X14515420Y-17264650D02*
X14534468Y-17274174D01*
X14534468Y-17274174D02*
X14543991Y-17293222D01*
X14543991Y-17293222D02*
X14543991Y-17312270D01*
X14543991Y-17312270D02*
X14448753Y-17331317D01*
X14620182Y-17388460D02*
X14639230Y-17397984D01*
X14639230Y-17397984D02*
X14677325Y-17397984D01*
X14677325Y-17397984D02*
X14696372Y-17388460D01*
X14696372Y-17388460D02*
X14705896Y-17369412D01*
X14705896Y-17369412D02*
X14705896Y-17359889D01*
X14705896Y-17359889D02*
X14696372Y-17340841D01*
X14696372Y-17340841D02*
X14677325Y-17331317D01*
X14677325Y-17331317D02*
X14648753Y-17331317D01*
X14648753Y-17331317D02*
X14629706Y-17321793D01*
X14629706Y-17321793D02*
X14620182Y-17302746D01*
X14620182Y-17302746D02*
X14620182Y-17293222D01*
X14620182Y-17293222D02*
X14629706Y-17274174D01*
X14629706Y-17274174D02*
X14648753Y-17264650D01*
X14648753Y-17264650D02*
X14677325Y-17264650D01*
X14677325Y-17264650D02*
X14696372Y-17274174D01*
X14943992Y-17321793D02*
X15096373Y-17321793D01*
X15020182Y-17397984D02*
X15020182Y-17245603D01*
X15448753Y-17397984D02*
X15334468Y-17397984D01*
X15391611Y-17397984D02*
X15391611Y-17197984D01*
X15391611Y-17197984D02*
X15372563Y-17226555D01*
X15372563Y-17226555D02*
X15353515Y-17245603D01*
X15353515Y-17245603D02*
X15334468Y-17255127D01*
X15524944Y-17217031D02*
X15534468Y-17207508D01*
X15534468Y-17207508D02*
X15553515Y-17197984D01*
X15553515Y-17197984D02*
X15601134Y-17197984D01*
X15601134Y-17197984D02*
X15620182Y-17207508D01*
X15620182Y-17207508D02*
X15629706Y-17217031D01*
X15629706Y-17217031D02*
X15639230Y-17236079D01*
X15639230Y-17236079D02*
X15639230Y-17255127D01*
X15639230Y-17255127D02*
X15629706Y-17283698D01*
X15629706Y-17283698D02*
X15515420Y-17397984D01*
X15515420Y-17397984D02*
X15639230Y-17397984D01*
X15867801Y-17388460D02*
X15886849Y-17397984D01*
X15886849Y-17397984D02*
X15924944Y-17397984D01*
X15924944Y-17397984D02*
X15943992Y-17388460D01*
X15943992Y-17388460D02*
X15953515Y-17369412D01*
X15953515Y-17369412D02*
X15953515Y-17359889D01*
X15953515Y-17359889D02*
X15943992Y-17340841D01*
X15943992Y-17340841D02*
X15924944Y-17331317D01*
X15924944Y-17331317D02*
X15896373Y-17331317D01*
X15896373Y-17331317D02*
X15877325Y-17321793D01*
X15877325Y-17321793D02*
X15867801Y-17302746D01*
X15867801Y-17302746D02*
X15867801Y-17293222D01*
X15867801Y-17293222D02*
X15877325Y-17274174D01*
X15877325Y-17274174D02*
X15896373Y-17264650D01*
X15896373Y-17264650D02*
X15924944Y-17264650D01*
X15924944Y-17264650D02*
X15943992Y-17274174D01*
X16067801Y-17397984D02*
X16048754Y-17388460D01*
X16048754Y-17388460D02*
X16039230Y-17369412D01*
X16039230Y-17369412D02*
X16039230Y-17197984D01*
X16172563Y-17397984D02*
X16153515Y-17388460D01*
X16153515Y-17388460D02*
X16143992Y-17378936D01*
X16143992Y-17378936D02*
X16134468Y-17359889D01*
X16134468Y-17359889D02*
X16134468Y-17302746D01*
X16134468Y-17302746D02*
X16143992Y-17283698D01*
X16143992Y-17283698D02*
X16153515Y-17274174D01*
X16153515Y-17274174D02*
X16172563Y-17264650D01*
X16172563Y-17264650D02*
X16201135Y-17264650D01*
X16201135Y-17264650D02*
X16220182Y-17274174D01*
X16220182Y-17274174D02*
X16229706Y-17283698D01*
X16229706Y-17283698D02*
X16239230Y-17302746D01*
X16239230Y-17302746D02*
X16239230Y-17359889D01*
X16239230Y-17359889D02*
X16229706Y-17378936D01*
X16229706Y-17378936D02*
X16220182Y-17388460D01*
X16220182Y-17388460D02*
X16201135Y-17397984D01*
X16201135Y-17397984D02*
X16172563Y-17397984D01*
X16296373Y-17264650D02*
X16372563Y-17264650D01*
X16324944Y-17197984D02*
X16324944Y-17369412D01*
X16324944Y-17369412D02*
X16334468Y-17388460D01*
X16334468Y-17388460D02*
X16353515Y-17397984D01*
X16353515Y-17397984D02*
X16372563Y-17397984D01*
X16429706Y-17388460D02*
X16448754Y-17397984D01*
X16448754Y-17397984D02*
X16486849Y-17397984D01*
X16486849Y-17397984D02*
X16505896Y-17388460D01*
X16505896Y-17388460D02*
X16515420Y-17369412D01*
X16515420Y-17369412D02*
X16515420Y-17359889D01*
X16515420Y-17359889D02*
X16505896Y-17340841D01*
X16505896Y-17340841D02*
X16486849Y-17331317D01*
X16486849Y-17331317D02*
X16458277Y-17331317D01*
X16458277Y-17331317D02*
X16439230Y-17321793D01*
X16439230Y-17321793D02*
X16429706Y-17302746D01*
X16429706Y-17302746D02*
X16429706Y-17293222D01*
X16429706Y-17293222D02*
X16439230Y-17274174D01*
X16439230Y-17274174D02*
X16458277Y-17264650D01*
X16458277Y-17264650D02*
X16486849Y-17264650D01*
X16486849Y-17264650D02*
X16505896Y-17274174D01*
X16582087Y-17474174D02*
X16591611Y-17464650D01*
X16591611Y-17464650D02*
X16610658Y-17436079D01*
X16610658Y-17436079D02*
X16620182Y-17417031D01*
X16620182Y-17417031D02*
X16629706Y-17388460D01*
X16629706Y-17388460D02*
X16639230Y-17340841D01*
X16639230Y-17340841D02*
X16639230Y-17302746D01*
X16639230Y-17302746D02*
X16629706Y-17255127D01*
X16629706Y-17255127D02*
X16620182Y-17226555D01*
X16620182Y-17226555D02*
X16610658Y-17207508D01*
X16610658Y-17207508D02*
X16591611Y-17178936D01*
X16591611Y-17178936D02*
X16582087Y-17169412D01*
D12*
X9957500Y-17530500D02*
X9957500Y-17610500D01*
X9917500Y-17570500D02*
X9997500Y-17570500D01*
D11*
X10296372Y-17461984D02*
X10315420Y-17461984D01*
X10315420Y-17461984D02*
X10334467Y-17471508D01*
X10334467Y-17471508D02*
X10343991Y-17481031D01*
X10343991Y-17481031D02*
X10353515Y-17500079D01*
X10353515Y-17500079D02*
X10363039Y-17538174D01*
X10363039Y-17538174D02*
X10363039Y-17585793D01*
X10363039Y-17585793D02*
X10353515Y-17623889D01*
X10353515Y-17623889D02*
X10343991Y-17642936D01*
X10343991Y-17642936D02*
X10334467Y-17652460D01*
X10334467Y-17652460D02*
X10315420Y-17661984D01*
X10315420Y-17661984D02*
X10296372Y-17661984D01*
X10296372Y-17661984D02*
X10277324Y-17652460D01*
X10277324Y-17652460D02*
X10267801Y-17642936D01*
X10267801Y-17642936D02*
X10258277Y-17623889D01*
X10258277Y-17623889D02*
X10248753Y-17585793D01*
X10248753Y-17585793D02*
X10248753Y-17538174D01*
X10248753Y-17538174D02*
X10258277Y-17500079D01*
X10258277Y-17500079D02*
X10267801Y-17481031D01*
X10267801Y-17481031D02*
X10277324Y-17471508D01*
X10277324Y-17471508D02*
X10296372Y-17461984D01*
X10448753Y-17642936D02*
X10458277Y-17652460D01*
X10458277Y-17652460D02*
X10448753Y-17661984D01*
X10448753Y-17661984D02*
X10439229Y-17652460D01*
X10439229Y-17652460D02*
X10448753Y-17642936D01*
X10448753Y-17642936D02*
X10448753Y-17661984D01*
X10572563Y-17547698D02*
X10553515Y-17538174D01*
X10553515Y-17538174D02*
X10543991Y-17528650D01*
X10543991Y-17528650D02*
X10534467Y-17509603D01*
X10534467Y-17509603D02*
X10534467Y-17500079D01*
X10534467Y-17500079D02*
X10543991Y-17481031D01*
X10543991Y-17481031D02*
X10553515Y-17471508D01*
X10553515Y-17471508D02*
X10572563Y-17461984D01*
X10572563Y-17461984D02*
X10610658Y-17461984D01*
X10610658Y-17461984D02*
X10629705Y-17471508D01*
X10629705Y-17471508D02*
X10639229Y-17481031D01*
X10639229Y-17481031D02*
X10648753Y-17500079D01*
X10648753Y-17500079D02*
X10648753Y-17509603D01*
X10648753Y-17509603D02*
X10639229Y-17528650D01*
X10639229Y-17528650D02*
X10629705Y-17538174D01*
X10629705Y-17538174D02*
X10610658Y-17547698D01*
X10610658Y-17547698D02*
X10572563Y-17547698D01*
X10572563Y-17547698D02*
X10553515Y-17557222D01*
X10553515Y-17557222D02*
X10543991Y-17566746D01*
X10543991Y-17566746D02*
X10534467Y-17585793D01*
X10534467Y-17585793D02*
X10534467Y-17623889D01*
X10534467Y-17623889D02*
X10543991Y-17642936D01*
X10543991Y-17642936D02*
X10553515Y-17652460D01*
X10553515Y-17652460D02*
X10572563Y-17661984D01*
X10572563Y-17661984D02*
X10610658Y-17661984D01*
X10610658Y-17661984D02*
X10629705Y-17652460D01*
X10629705Y-17652460D02*
X10639229Y-17642936D01*
X10639229Y-17642936D02*
X10648753Y-17623889D01*
X10648753Y-17623889D02*
X10648753Y-17585793D01*
X10648753Y-17585793D02*
X10639229Y-17566746D01*
X10639229Y-17566746D02*
X10629705Y-17557222D01*
X10629705Y-17557222D02*
X10610658Y-17547698D01*
X10772563Y-17461984D02*
X10791610Y-17461984D01*
X10791610Y-17461984D02*
X10810658Y-17471508D01*
X10810658Y-17471508D02*
X10820182Y-17481031D01*
X10820182Y-17481031D02*
X10829705Y-17500079D01*
X10829705Y-17500079D02*
X10839229Y-17538174D01*
X10839229Y-17538174D02*
X10839229Y-17585793D01*
X10839229Y-17585793D02*
X10829705Y-17623889D01*
X10829705Y-17623889D02*
X10820182Y-17642936D01*
X10820182Y-17642936D02*
X10810658Y-17652460D01*
X10810658Y-17652460D02*
X10791610Y-17661984D01*
X10791610Y-17661984D02*
X10772563Y-17661984D01*
X10772563Y-17661984D02*
X10753515Y-17652460D01*
X10753515Y-17652460D02*
X10743991Y-17642936D01*
X10743991Y-17642936D02*
X10734467Y-17623889D01*
X10734467Y-17623889D02*
X10724944Y-17585793D01*
X10724944Y-17585793D02*
X10724944Y-17538174D01*
X10724944Y-17538174D02*
X10734467Y-17500079D01*
X10734467Y-17500079D02*
X10743991Y-17481031D01*
X10743991Y-17481031D02*
X10753515Y-17471508D01*
X10753515Y-17471508D02*
X10772563Y-17461984D01*
X10963039Y-17461984D02*
X10982086Y-17461984D01*
X10982086Y-17461984D02*
X11001134Y-17471508D01*
X11001134Y-17471508D02*
X11010658Y-17481031D01*
X11010658Y-17481031D02*
X11020182Y-17500079D01*
X11020182Y-17500079D02*
X11029705Y-17538174D01*
X11029705Y-17538174D02*
X11029705Y-17585793D01*
X11029705Y-17585793D02*
X11020182Y-17623889D01*
X11020182Y-17623889D02*
X11010658Y-17642936D01*
X11010658Y-17642936D02*
X11001134Y-17652460D01*
X11001134Y-17652460D02*
X10982086Y-17661984D01*
X10982086Y-17661984D02*
X10963039Y-17661984D01*
X10963039Y-17661984D02*
X10943991Y-17652460D01*
X10943991Y-17652460D02*
X10934467Y-17642936D01*
X10934467Y-17642936D02*
X10924944Y-17623889D01*
X10924944Y-17623889D02*
X10915420Y-17585793D01*
X10915420Y-17585793D02*
X10915420Y-17538174D01*
X10915420Y-17538174D02*
X10924944Y-17500079D01*
X10924944Y-17500079D02*
X10934467Y-17481031D01*
X10934467Y-17481031D02*
X10943991Y-17471508D01*
X10943991Y-17471508D02*
X10963039Y-17461984D01*
X11115420Y-17661984D02*
X11115420Y-17528650D01*
X11115420Y-17547698D02*
X11124944Y-17538174D01*
X11124944Y-17538174D02*
X11143991Y-17528650D01*
X11143991Y-17528650D02*
X11172563Y-17528650D01*
X11172563Y-17528650D02*
X11191610Y-17538174D01*
X11191610Y-17538174D02*
X11201134Y-17557222D01*
X11201134Y-17557222D02*
X11201134Y-17661984D01*
X11201134Y-17557222D02*
X11210658Y-17538174D01*
X11210658Y-17538174D02*
X11229705Y-17528650D01*
X11229705Y-17528650D02*
X11258277Y-17528650D01*
X11258277Y-17528650D02*
X11277324Y-17538174D01*
X11277324Y-17538174D02*
X11286848Y-17557222D01*
X11286848Y-17557222D02*
X11286848Y-17661984D01*
X11382086Y-17661984D02*
X11382086Y-17528650D01*
X11382086Y-17547698D02*
X11391610Y-17538174D01*
X11391610Y-17538174D02*
X11410658Y-17528650D01*
X11410658Y-17528650D02*
X11439229Y-17528650D01*
X11439229Y-17528650D02*
X11458277Y-17538174D01*
X11458277Y-17538174D02*
X11467801Y-17557222D01*
X11467801Y-17557222D02*
X11467801Y-17661984D01*
X11467801Y-17557222D02*
X11477324Y-17538174D01*
X11477324Y-17538174D02*
X11496372Y-17528650D01*
X11496372Y-17528650D02*
X11524943Y-17528650D01*
X11524943Y-17528650D02*
X11543991Y-17538174D01*
X11543991Y-17538174D02*
X11553515Y-17557222D01*
X11553515Y-17557222D02*
X11553515Y-17661984D01*
X11943991Y-17452460D02*
X11772563Y-17709603D01*
X12201134Y-17461984D02*
X12220182Y-17461984D01*
X12220182Y-17461984D02*
X12239229Y-17471508D01*
X12239229Y-17471508D02*
X12248753Y-17481031D01*
X12248753Y-17481031D02*
X12258277Y-17500079D01*
X12258277Y-17500079D02*
X12267801Y-17538174D01*
X12267801Y-17538174D02*
X12267801Y-17585793D01*
X12267801Y-17585793D02*
X12258277Y-17623889D01*
X12258277Y-17623889D02*
X12248753Y-17642936D01*
X12248753Y-17642936D02*
X12239229Y-17652460D01*
X12239229Y-17652460D02*
X12220182Y-17661984D01*
X12220182Y-17661984D02*
X12201134Y-17661984D01*
X12201134Y-17661984D02*
X12182086Y-17652460D01*
X12182086Y-17652460D02*
X12172563Y-17642936D01*
X12172563Y-17642936D02*
X12163039Y-17623889D01*
X12163039Y-17623889D02*
X12153515Y-17585793D01*
X12153515Y-17585793D02*
X12153515Y-17538174D01*
X12153515Y-17538174D02*
X12163039Y-17500079D01*
X12163039Y-17500079D02*
X12172563Y-17481031D01*
X12172563Y-17481031D02*
X12182086Y-17471508D01*
X12182086Y-17471508D02*
X12201134Y-17461984D01*
X12353515Y-17642936D02*
X12363039Y-17652460D01*
X12363039Y-17652460D02*
X12353515Y-17661984D01*
X12353515Y-17661984D02*
X12343991Y-17652460D01*
X12343991Y-17652460D02*
X12353515Y-17642936D01*
X12353515Y-17642936D02*
X12353515Y-17661984D01*
X12486848Y-17461984D02*
X12505896Y-17461984D01*
X12505896Y-17461984D02*
X12524944Y-17471508D01*
X12524944Y-17471508D02*
X12534467Y-17481031D01*
X12534467Y-17481031D02*
X12543991Y-17500079D01*
X12543991Y-17500079D02*
X12553515Y-17538174D01*
X12553515Y-17538174D02*
X12553515Y-17585793D01*
X12553515Y-17585793D02*
X12543991Y-17623889D01*
X12543991Y-17623889D02*
X12534467Y-17642936D01*
X12534467Y-17642936D02*
X12524944Y-17652460D01*
X12524944Y-17652460D02*
X12505896Y-17661984D01*
X12505896Y-17661984D02*
X12486848Y-17661984D01*
X12486848Y-17661984D02*
X12467801Y-17652460D01*
X12467801Y-17652460D02*
X12458277Y-17642936D01*
X12458277Y-17642936D02*
X12448753Y-17623889D01*
X12448753Y-17623889D02*
X12439229Y-17585793D01*
X12439229Y-17585793D02*
X12439229Y-17538174D01*
X12439229Y-17538174D02*
X12448753Y-17500079D01*
X12448753Y-17500079D02*
X12458277Y-17481031D01*
X12458277Y-17481031D02*
X12467801Y-17471508D01*
X12467801Y-17471508D02*
X12486848Y-17461984D01*
X12620182Y-17461984D02*
X12743991Y-17461984D01*
X12743991Y-17461984D02*
X12677325Y-17538174D01*
X12677325Y-17538174D02*
X12705896Y-17538174D01*
X12705896Y-17538174D02*
X12724944Y-17547698D01*
X12724944Y-17547698D02*
X12734467Y-17557222D01*
X12734467Y-17557222D02*
X12743991Y-17576270D01*
X12743991Y-17576270D02*
X12743991Y-17623889D01*
X12743991Y-17623889D02*
X12734467Y-17642936D01*
X12734467Y-17642936D02*
X12724944Y-17652460D01*
X12724944Y-17652460D02*
X12705896Y-17661984D01*
X12705896Y-17661984D02*
X12648753Y-17661984D01*
X12648753Y-17661984D02*
X12629706Y-17652460D01*
X12629706Y-17652460D02*
X12620182Y-17642936D01*
X12934467Y-17661984D02*
X12820182Y-17661984D01*
X12877325Y-17661984D02*
X12877325Y-17461984D01*
X12877325Y-17461984D02*
X12858277Y-17490555D01*
X12858277Y-17490555D02*
X12839229Y-17509603D01*
X12839229Y-17509603D02*
X12820182Y-17519127D01*
X13115420Y-17461984D02*
X13020182Y-17461984D01*
X13020182Y-17461984D02*
X13010658Y-17557222D01*
X13010658Y-17557222D02*
X13020182Y-17547698D01*
X13020182Y-17547698D02*
X13039229Y-17538174D01*
X13039229Y-17538174D02*
X13086848Y-17538174D01*
X13086848Y-17538174D02*
X13105896Y-17547698D01*
X13105896Y-17547698D02*
X13115420Y-17557222D01*
X13115420Y-17557222D02*
X13124944Y-17576270D01*
X13124944Y-17576270D02*
X13124944Y-17623889D01*
X13124944Y-17623889D02*
X13115420Y-17642936D01*
X13115420Y-17642936D02*
X13105896Y-17652460D01*
X13105896Y-17652460D02*
X13086848Y-17661984D01*
X13086848Y-17661984D02*
X13039229Y-17661984D01*
X13039229Y-17661984D02*
X13020182Y-17652460D01*
X13020182Y-17652460D02*
X13010658Y-17642936D01*
X13201134Y-17461984D02*
X13201134Y-17500079D01*
X13277325Y-17461984D02*
X13277325Y-17500079D01*
X13572563Y-17738174D02*
X13563039Y-17728650D01*
X13563039Y-17728650D02*
X13543991Y-17700079D01*
X13543991Y-17700079D02*
X13534468Y-17681031D01*
X13534468Y-17681031D02*
X13524944Y-17652460D01*
X13524944Y-17652460D02*
X13515420Y-17604841D01*
X13515420Y-17604841D02*
X13515420Y-17566746D01*
X13515420Y-17566746D02*
X13524944Y-17519127D01*
X13524944Y-17519127D02*
X13534468Y-17490555D01*
X13534468Y-17490555D02*
X13543991Y-17471508D01*
X13543991Y-17471508D02*
X13563039Y-17442936D01*
X13563039Y-17442936D02*
X13572563Y-17433412D01*
X13734468Y-17461984D02*
X13696372Y-17461984D01*
X13696372Y-17461984D02*
X13677325Y-17471508D01*
X13677325Y-17471508D02*
X13667801Y-17481031D01*
X13667801Y-17481031D02*
X13648753Y-17509603D01*
X13648753Y-17509603D02*
X13639229Y-17547698D01*
X13639229Y-17547698D02*
X13639229Y-17623889D01*
X13639229Y-17623889D02*
X13648753Y-17642936D01*
X13648753Y-17642936D02*
X13658277Y-17652460D01*
X13658277Y-17652460D02*
X13677325Y-17661984D01*
X13677325Y-17661984D02*
X13715420Y-17661984D01*
X13715420Y-17661984D02*
X13734468Y-17652460D01*
X13734468Y-17652460D02*
X13743991Y-17642936D01*
X13743991Y-17642936D02*
X13753515Y-17623889D01*
X13753515Y-17623889D02*
X13753515Y-17576270D01*
X13753515Y-17576270D02*
X13743991Y-17557222D01*
X13743991Y-17557222D02*
X13734468Y-17547698D01*
X13734468Y-17547698D02*
X13715420Y-17538174D01*
X13715420Y-17538174D02*
X13677325Y-17538174D01*
X13677325Y-17538174D02*
X13658277Y-17547698D01*
X13658277Y-17547698D02*
X13648753Y-17557222D01*
X13648753Y-17557222D02*
X13639229Y-17576270D01*
X13991610Y-17661984D02*
X13991610Y-17461984D01*
X14077325Y-17661984D02*
X14077325Y-17557222D01*
X14077325Y-17557222D02*
X14067801Y-17538174D01*
X14067801Y-17538174D02*
X14048753Y-17528650D01*
X14048753Y-17528650D02*
X14020182Y-17528650D01*
X14020182Y-17528650D02*
X14001134Y-17538174D01*
X14001134Y-17538174D02*
X13991610Y-17547698D01*
X14201134Y-17661984D02*
X14182087Y-17652460D01*
X14182087Y-17652460D02*
X14172563Y-17642936D01*
X14172563Y-17642936D02*
X14163039Y-17623889D01*
X14163039Y-17623889D02*
X14163039Y-17566746D01*
X14163039Y-17566746D02*
X14172563Y-17547698D01*
X14172563Y-17547698D02*
X14182087Y-17538174D01*
X14182087Y-17538174D02*
X14201134Y-17528650D01*
X14201134Y-17528650D02*
X14229706Y-17528650D01*
X14229706Y-17528650D02*
X14248753Y-17538174D01*
X14248753Y-17538174D02*
X14258277Y-17547698D01*
X14258277Y-17547698D02*
X14267801Y-17566746D01*
X14267801Y-17566746D02*
X14267801Y-17623889D01*
X14267801Y-17623889D02*
X14258277Y-17642936D01*
X14258277Y-17642936D02*
X14248753Y-17652460D01*
X14248753Y-17652460D02*
X14229706Y-17661984D01*
X14229706Y-17661984D02*
X14201134Y-17661984D01*
X14382087Y-17661984D02*
X14363039Y-17652460D01*
X14363039Y-17652460D02*
X14353515Y-17633412D01*
X14353515Y-17633412D02*
X14353515Y-17461984D01*
X14534468Y-17652460D02*
X14515420Y-17661984D01*
X14515420Y-17661984D02*
X14477325Y-17661984D01*
X14477325Y-17661984D02*
X14458277Y-17652460D01*
X14458277Y-17652460D02*
X14448753Y-17633412D01*
X14448753Y-17633412D02*
X14448753Y-17557222D01*
X14448753Y-17557222D02*
X14458277Y-17538174D01*
X14458277Y-17538174D02*
X14477325Y-17528650D01*
X14477325Y-17528650D02*
X14515420Y-17528650D01*
X14515420Y-17528650D02*
X14534468Y-17538174D01*
X14534468Y-17538174D02*
X14543991Y-17557222D01*
X14543991Y-17557222D02*
X14543991Y-17576270D01*
X14543991Y-17576270D02*
X14448753Y-17595317D01*
X14620182Y-17652460D02*
X14639230Y-17661984D01*
X14639230Y-17661984D02*
X14677325Y-17661984D01*
X14677325Y-17661984D02*
X14696372Y-17652460D01*
X14696372Y-17652460D02*
X14705896Y-17633412D01*
X14705896Y-17633412D02*
X14705896Y-17623889D01*
X14705896Y-17623889D02*
X14696372Y-17604841D01*
X14696372Y-17604841D02*
X14677325Y-17595317D01*
X14677325Y-17595317D02*
X14648753Y-17595317D01*
X14648753Y-17595317D02*
X14629706Y-17585793D01*
X14629706Y-17585793D02*
X14620182Y-17566746D01*
X14620182Y-17566746D02*
X14620182Y-17557222D01*
X14620182Y-17557222D02*
X14629706Y-17538174D01*
X14629706Y-17538174D02*
X14648753Y-17528650D01*
X14648753Y-17528650D02*
X14677325Y-17528650D01*
X14677325Y-17528650D02*
X14696372Y-17538174D01*
X14772563Y-17738174D02*
X14782087Y-17728650D01*
X14782087Y-17728650D02*
X14801134Y-17700079D01*
X14801134Y-17700079D02*
X14810658Y-17681031D01*
X14810658Y-17681031D02*
X14820182Y-17652460D01*
X14820182Y-17652460D02*
X14829706Y-17604841D01*
X14829706Y-17604841D02*
X14829706Y-17566746D01*
X14829706Y-17566746D02*
X14820182Y-17519127D01*
X14820182Y-17519127D02*
X14810658Y-17490555D01*
X14810658Y-17490555D02*
X14801134Y-17471508D01*
X14801134Y-17471508D02*
X14782087Y-17442936D01*
X14782087Y-17442936D02*
X14772563Y-17433412D01*
D12*
X9983588Y-17868088D02*
X9983588Y-17800912D01*
X9916412Y-17800912D01*
X9916412Y-17868088D01*
X9983588Y-17868088D01*
D11*
X10296372Y-17725984D02*
X10315420Y-17725984D01*
X10315420Y-17725984D02*
X10334467Y-17735508D01*
X10334467Y-17735508D02*
X10343991Y-17745031D01*
X10343991Y-17745031D02*
X10353515Y-17764079D01*
X10353515Y-17764079D02*
X10363039Y-17802174D01*
X10363039Y-17802174D02*
X10363039Y-17849793D01*
X10363039Y-17849793D02*
X10353515Y-17887889D01*
X10353515Y-17887889D02*
X10343991Y-17906936D01*
X10343991Y-17906936D02*
X10334467Y-17916460D01*
X10334467Y-17916460D02*
X10315420Y-17925984D01*
X10315420Y-17925984D02*
X10296372Y-17925984D01*
X10296372Y-17925984D02*
X10277324Y-17916460D01*
X10277324Y-17916460D02*
X10267801Y-17906936D01*
X10267801Y-17906936D02*
X10258277Y-17887889D01*
X10258277Y-17887889D02*
X10248753Y-17849793D01*
X10248753Y-17849793D02*
X10248753Y-17802174D01*
X10248753Y-17802174D02*
X10258277Y-17764079D01*
X10258277Y-17764079D02*
X10267801Y-17745031D01*
X10267801Y-17745031D02*
X10277324Y-17735508D01*
X10277324Y-17735508D02*
X10296372Y-17725984D01*
X10448753Y-17906936D02*
X10458277Y-17916460D01*
X10458277Y-17916460D02*
X10448753Y-17925984D01*
X10448753Y-17925984D02*
X10439229Y-17916460D01*
X10439229Y-17916460D02*
X10448753Y-17906936D01*
X10448753Y-17906936D02*
X10448753Y-17925984D01*
X10553515Y-17925984D02*
X10591610Y-17925984D01*
X10591610Y-17925984D02*
X10610658Y-17916460D01*
X10610658Y-17916460D02*
X10620182Y-17906936D01*
X10620182Y-17906936D02*
X10639229Y-17878365D01*
X10639229Y-17878365D02*
X10648753Y-17840270D01*
X10648753Y-17840270D02*
X10648753Y-17764079D01*
X10648753Y-17764079D02*
X10639229Y-17745031D01*
X10639229Y-17745031D02*
X10629705Y-17735508D01*
X10629705Y-17735508D02*
X10610658Y-17725984D01*
X10610658Y-17725984D02*
X10572563Y-17725984D01*
X10572563Y-17725984D02*
X10553515Y-17735508D01*
X10553515Y-17735508D02*
X10543991Y-17745031D01*
X10543991Y-17745031D02*
X10534467Y-17764079D01*
X10534467Y-17764079D02*
X10534467Y-17811698D01*
X10534467Y-17811698D02*
X10543991Y-17830746D01*
X10543991Y-17830746D02*
X10553515Y-17840270D01*
X10553515Y-17840270D02*
X10572563Y-17849793D01*
X10572563Y-17849793D02*
X10610658Y-17849793D01*
X10610658Y-17849793D02*
X10629705Y-17840270D01*
X10629705Y-17840270D02*
X10639229Y-17830746D01*
X10639229Y-17830746D02*
X10648753Y-17811698D01*
X10829705Y-17725984D02*
X10734467Y-17725984D01*
X10734467Y-17725984D02*
X10724944Y-17821222D01*
X10724944Y-17821222D02*
X10734467Y-17811698D01*
X10734467Y-17811698D02*
X10753515Y-17802174D01*
X10753515Y-17802174D02*
X10801134Y-17802174D01*
X10801134Y-17802174D02*
X10820182Y-17811698D01*
X10820182Y-17811698D02*
X10829705Y-17821222D01*
X10829705Y-17821222D02*
X10839229Y-17840270D01*
X10839229Y-17840270D02*
X10839229Y-17887889D01*
X10839229Y-17887889D02*
X10829705Y-17906936D01*
X10829705Y-17906936D02*
X10820182Y-17916460D01*
X10820182Y-17916460D02*
X10801134Y-17925984D01*
X10801134Y-17925984D02*
X10753515Y-17925984D01*
X10753515Y-17925984D02*
X10734467Y-17916460D01*
X10734467Y-17916460D02*
X10724944Y-17906936D01*
X10963039Y-17725984D02*
X10982086Y-17725984D01*
X10982086Y-17725984D02*
X11001134Y-17735508D01*
X11001134Y-17735508D02*
X11010658Y-17745031D01*
X11010658Y-17745031D02*
X11020182Y-17764079D01*
X11020182Y-17764079D02*
X11029705Y-17802174D01*
X11029705Y-17802174D02*
X11029705Y-17849793D01*
X11029705Y-17849793D02*
X11020182Y-17887889D01*
X11020182Y-17887889D02*
X11010658Y-17906936D01*
X11010658Y-17906936D02*
X11001134Y-17916460D01*
X11001134Y-17916460D02*
X10982086Y-17925984D01*
X10982086Y-17925984D02*
X10963039Y-17925984D01*
X10963039Y-17925984D02*
X10943991Y-17916460D01*
X10943991Y-17916460D02*
X10934467Y-17906936D01*
X10934467Y-17906936D02*
X10924944Y-17887889D01*
X10924944Y-17887889D02*
X10915420Y-17849793D01*
X10915420Y-17849793D02*
X10915420Y-17802174D01*
X10915420Y-17802174D02*
X10924944Y-17764079D01*
X10924944Y-17764079D02*
X10934467Y-17745031D01*
X10934467Y-17745031D02*
X10943991Y-17735508D01*
X10943991Y-17735508D02*
X10963039Y-17725984D01*
X11115420Y-17925984D02*
X11115420Y-17792650D01*
X11115420Y-17811698D02*
X11124944Y-17802174D01*
X11124944Y-17802174D02*
X11143991Y-17792650D01*
X11143991Y-17792650D02*
X11172563Y-17792650D01*
X11172563Y-17792650D02*
X11191610Y-17802174D01*
X11191610Y-17802174D02*
X11201134Y-17821222D01*
X11201134Y-17821222D02*
X11201134Y-17925984D01*
X11201134Y-17821222D02*
X11210658Y-17802174D01*
X11210658Y-17802174D02*
X11229705Y-17792650D01*
X11229705Y-17792650D02*
X11258277Y-17792650D01*
X11258277Y-17792650D02*
X11277324Y-17802174D01*
X11277324Y-17802174D02*
X11286848Y-17821222D01*
X11286848Y-17821222D02*
X11286848Y-17925984D01*
X11382086Y-17925984D02*
X11382086Y-17792650D01*
X11382086Y-17811698D02*
X11391610Y-17802174D01*
X11391610Y-17802174D02*
X11410658Y-17792650D01*
X11410658Y-17792650D02*
X11439229Y-17792650D01*
X11439229Y-17792650D02*
X11458277Y-17802174D01*
X11458277Y-17802174D02*
X11467801Y-17821222D01*
X11467801Y-17821222D02*
X11467801Y-17925984D01*
X11467801Y-17821222D02*
X11477324Y-17802174D01*
X11477324Y-17802174D02*
X11496372Y-17792650D01*
X11496372Y-17792650D02*
X11524943Y-17792650D01*
X11524943Y-17792650D02*
X11543991Y-17802174D01*
X11543991Y-17802174D02*
X11553515Y-17821222D01*
X11553515Y-17821222D02*
X11553515Y-17925984D01*
X11943991Y-17716460D02*
X11772563Y-17973603D01*
X12201134Y-17725984D02*
X12220182Y-17725984D01*
X12220182Y-17725984D02*
X12239229Y-17735508D01*
X12239229Y-17735508D02*
X12248753Y-17745031D01*
X12248753Y-17745031D02*
X12258277Y-17764079D01*
X12258277Y-17764079D02*
X12267801Y-17802174D01*
X12267801Y-17802174D02*
X12267801Y-17849793D01*
X12267801Y-17849793D02*
X12258277Y-17887889D01*
X12258277Y-17887889D02*
X12248753Y-17906936D01*
X12248753Y-17906936D02*
X12239229Y-17916460D01*
X12239229Y-17916460D02*
X12220182Y-17925984D01*
X12220182Y-17925984D02*
X12201134Y-17925984D01*
X12201134Y-17925984D02*
X12182086Y-17916460D01*
X12182086Y-17916460D02*
X12172563Y-17906936D01*
X12172563Y-17906936D02*
X12163039Y-17887889D01*
X12163039Y-17887889D02*
X12153515Y-17849793D01*
X12153515Y-17849793D02*
X12153515Y-17802174D01*
X12153515Y-17802174D02*
X12163039Y-17764079D01*
X12163039Y-17764079D02*
X12172563Y-17745031D01*
X12172563Y-17745031D02*
X12182086Y-17735508D01*
X12182086Y-17735508D02*
X12201134Y-17725984D01*
X12353515Y-17906936D02*
X12363039Y-17916460D01*
X12363039Y-17916460D02*
X12353515Y-17925984D01*
X12353515Y-17925984D02*
X12343991Y-17916460D01*
X12343991Y-17916460D02*
X12353515Y-17906936D01*
X12353515Y-17906936D02*
X12353515Y-17925984D01*
X12486848Y-17725984D02*
X12505896Y-17725984D01*
X12505896Y-17725984D02*
X12524944Y-17735508D01*
X12524944Y-17735508D02*
X12534467Y-17745031D01*
X12534467Y-17745031D02*
X12543991Y-17764079D01*
X12543991Y-17764079D02*
X12553515Y-17802174D01*
X12553515Y-17802174D02*
X12553515Y-17849793D01*
X12553515Y-17849793D02*
X12543991Y-17887889D01*
X12543991Y-17887889D02*
X12534467Y-17906936D01*
X12534467Y-17906936D02*
X12524944Y-17916460D01*
X12524944Y-17916460D02*
X12505896Y-17925984D01*
X12505896Y-17925984D02*
X12486848Y-17925984D01*
X12486848Y-17925984D02*
X12467801Y-17916460D01*
X12467801Y-17916460D02*
X12458277Y-17906936D01*
X12458277Y-17906936D02*
X12448753Y-17887889D01*
X12448753Y-17887889D02*
X12439229Y-17849793D01*
X12439229Y-17849793D02*
X12439229Y-17802174D01*
X12439229Y-17802174D02*
X12448753Y-17764079D01*
X12448753Y-17764079D02*
X12458277Y-17745031D01*
X12458277Y-17745031D02*
X12467801Y-17735508D01*
X12467801Y-17735508D02*
X12486848Y-17725984D01*
X12620182Y-17725984D02*
X12743991Y-17725984D01*
X12743991Y-17725984D02*
X12677325Y-17802174D01*
X12677325Y-17802174D02*
X12705896Y-17802174D01*
X12705896Y-17802174D02*
X12724944Y-17811698D01*
X12724944Y-17811698D02*
X12734467Y-17821222D01*
X12734467Y-17821222D02*
X12743991Y-17840270D01*
X12743991Y-17840270D02*
X12743991Y-17887889D01*
X12743991Y-17887889D02*
X12734467Y-17906936D01*
X12734467Y-17906936D02*
X12724944Y-17916460D01*
X12724944Y-17916460D02*
X12705896Y-17925984D01*
X12705896Y-17925984D02*
X12648753Y-17925984D01*
X12648753Y-17925984D02*
X12629706Y-17916460D01*
X12629706Y-17916460D02*
X12620182Y-17906936D01*
X12810658Y-17725984D02*
X12943991Y-17725984D01*
X12943991Y-17725984D02*
X12858277Y-17925984D01*
X13105896Y-17792650D02*
X13105896Y-17925984D01*
X13058277Y-17716460D02*
X13010658Y-17859317D01*
X13010658Y-17859317D02*
X13134467Y-17859317D01*
X13201134Y-17725984D02*
X13201134Y-17764079D01*
X13277325Y-17725984D02*
X13277325Y-17764079D01*
X13572563Y-18002174D02*
X13563039Y-17992650D01*
X13563039Y-17992650D02*
X13543991Y-17964079D01*
X13543991Y-17964079D02*
X13534468Y-17945031D01*
X13534468Y-17945031D02*
X13524944Y-17916460D01*
X13524944Y-17916460D02*
X13515420Y-17868841D01*
X13515420Y-17868841D02*
X13515420Y-17830746D01*
X13515420Y-17830746D02*
X13524944Y-17783127D01*
X13524944Y-17783127D02*
X13534468Y-17754555D01*
X13534468Y-17754555D02*
X13543991Y-17735508D01*
X13543991Y-17735508D02*
X13563039Y-17706936D01*
X13563039Y-17706936D02*
X13572563Y-17697412D01*
X13753515Y-17925984D02*
X13639229Y-17925984D01*
X13696372Y-17925984D02*
X13696372Y-17725984D01*
X13696372Y-17725984D02*
X13677325Y-17754555D01*
X13677325Y-17754555D02*
X13658277Y-17773603D01*
X13658277Y-17773603D02*
X13639229Y-17783127D01*
X13867801Y-17811698D02*
X13848753Y-17802174D01*
X13848753Y-17802174D02*
X13839229Y-17792650D01*
X13839229Y-17792650D02*
X13829706Y-17773603D01*
X13829706Y-17773603D02*
X13829706Y-17764079D01*
X13829706Y-17764079D02*
X13839229Y-17745031D01*
X13839229Y-17745031D02*
X13848753Y-17735508D01*
X13848753Y-17735508D02*
X13867801Y-17725984D01*
X13867801Y-17725984D02*
X13905896Y-17725984D01*
X13905896Y-17725984D02*
X13924944Y-17735508D01*
X13924944Y-17735508D02*
X13934468Y-17745031D01*
X13934468Y-17745031D02*
X13943991Y-17764079D01*
X13943991Y-17764079D02*
X13943991Y-17773603D01*
X13943991Y-17773603D02*
X13934468Y-17792650D01*
X13934468Y-17792650D02*
X13924944Y-17802174D01*
X13924944Y-17802174D02*
X13905896Y-17811698D01*
X13905896Y-17811698D02*
X13867801Y-17811698D01*
X13867801Y-17811698D02*
X13848753Y-17821222D01*
X13848753Y-17821222D02*
X13839229Y-17830746D01*
X13839229Y-17830746D02*
X13829706Y-17849793D01*
X13829706Y-17849793D02*
X13829706Y-17887889D01*
X13829706Y-17887889D02*
X13839229Y-17906936D01*
X13839229Y-17906936D02*
X13848753Y-17916460D01*
X13848753Y-17916460D02*
X13867801Y-17925984D01*
X13867801Y-17925984D02*
X13905896Y-17925984D01*
X13905896Y-17925984D02*
X13924944Y-17916460D01*
X13924944Y-17916460D02*
X13934468Y-17906936D01*
X13934468Y-17906936D02*
X13943991Y-17887889D01*
X13943991Y-17887889D02*
X13943991Y-17849793D01*
X13943991Y-17849793D02*
X13934468Y-17830746D01*
X13934468Y-17830746D02*
X13924944Y-17821222D01*
X13924944Y-17821222D02*
X13905896Y-17811698D01*
X14182087Y-17925984D02*
X14182087Y-17725984D01*
X14267801Y-17925984D02*
X14267801Y-17821222D01*
X14267801Y-17821222D02*
X14258277Y-17802174D01*
X14258277Y-17802174D02*
X14239230Y-17792650D01*
X14239230Y-17792650D02*
X14210658Y-17792650D01*
X14210658Y-17792650D02*
X14191610Y-17802174D01*
X14191610Y-17802174D02*
X14182087Y-17811698D01*
X14391610Y-17925984D02*
X14372563Y-17916460D01*
X14372563Y-17916460D02*
X14363039Y-17906936D01*
X14363039Y-17906936D02*
X14353515Y-17887889D01*
X14353515Y-17887889D02*
X14353515Y-17830746D01*
X14353515Y-17830746D02*
X14363039Y-17811698D01*
X14363039Y-17811698D02*
X14372563Y-17802174D01*
X14372563Y-17802174D02*
X14391610Y-17792650D01*
X14391610Y-17792650D02*
X14420182Y-17792650D01*
X14420182Y-17792650D02*
X14439230Y-17802174D01*
X14439230Y-17802174D02*
X14448753Y-17811698D01*
X14448753Y-17811698D02*
X14458277Y-17830746D01*
X14458277Y-17830746D02*
X14458277Y-17887889D01*
X14458277Y-17887889D02*
X14448753Y-17906936D01*
X14448753Y-17906936D02*
X14439230Y-17916460D01*
X14439230Y-17916460D02*
X14420182Y-17925984D01*
X14420182Y-17925984D02*
X14391610Y-17925984D01*
X14572563Y-17925984D02*
X14553515Y-17916460D01*
X14553515Y-17916460D02*
X14543991Y-17897412D01*
X14543991Y-17897412D02*
X14543991Y-17725984D01*
X14724944Y-17916460D02*
X14705896Y-17925984D01*
X14705896Y-17925984D02*
X14667801Y-17925984D01*
X14667801Y-17925984D02*
X14648753Y-17916460D01*
X14648753Y-17916460D02*
X14639230Y-17897412D01*
X14639230Y-17897412D02*
X14639230Y-17821222D01*
X14639230Y-17821222D02*
X14648753Y-17802174D01*
X14648753Y-17802174D02*
X14667801Y-17792650D01*
X14667801Y-17792650D02*
X14705896Y-17792650D01*
X14705896Y-17792650D02*
X14724944Y-17802174D01*
X14724944Y-17802174D02*
X14734468Y-17821222D01*
X14734468Y-17821222D02*
X14734468Y-17840270D01*
X14734468Y-17840270D02*
X14639230Y-17859317D01*
X14810658Y-17916460D02*
X14829706Y-17925984D01*
X14829706Y-17925984D02*
X14867801Y-17925984D01*
X14867801Y-17925984D02*
X14886849Y-17916460D01*
X14886849Y-17916460D02*
X14896372Y-17897412D01*
X14896372Y-17897412D02*
X14896372Y-17887889D01*
X14896372Y-17887889D02*
X14886849Y-17868841D01*
X14886849Y-17868841D02*
X14867801Y-17859317D01*
X14867801Y-17859317D02*
X14839230Y-17859317D01*
X14839230Y-17859317D02*
X14820182Y-17849793D01*
X14820182Y-17849793D02*
X14810658Y-17830746D01*
X14810658Y-17830746D02*
X14810658Y-17821222D01*
X14810658Y-17821222D02*
X14820182Y-17802174D01*
X14820182Y-17802174D02*
X14839230Y-17792650D01*
X14839230Y-17792650D02*
X14867801Y-17792650D01*
X14867801Y-17792650D02*
X14886849Y-17802174D01*
X14963039Y-18002174D02*
X14972563Y-17992650D01*
X14972563Y-17992650D02*
X14991611Y-17964079D01*
X14991611Y-17964079D02*
X15001134Y-17945031D01*
X15001134Y-17945031D02*
X15010658Y-17916460D01*
X15010658Y-17916460D02*
X15020182Y-17868841D01*
X15020182Y-17868841D02*
X15020182Y-17830746D01*
X15020182Y-17830746D02*
X15010658Y-17783127D01*
X15010658Y-17783127D02*
X15001134Y-17754555D01*
X15001134Y-17754555D02*
X14991611Y-17735508D01*
X14991611Y-17735508D02*
X14972563Y-17706936D01*
X14972563Y-17706936D02*
X14963039Y-17697412D01*
D12*
X9947500Y-18148500D02*
X9997500Y-18098500D01*
X9947500Y-18048500D01*
X9897500Y-18098500D01*
X9947500Y-18148500D01*
D11*
X10363039Y-18189984D02*
X10248753Y-18189984D01*
X10305896Y-18189984D02*
X10305896Y-17989984D01*
X10305896Y-17989984D02*
X10286848Y-18018555D01*
X10286848Y-18018555D02*
X10267801Y-18037603D01*
X10267801Y-18037603D02*
X10248753Y-18047127D01*
X10448753Y-18170936D02*
X10458277Y-18180460D01*
X10458277Y-18180460D02*
X10448753Y-18189984D01*
X10448753Y-18189984D02*
X10439229Y-18180460D01*
X10439229Y-18180460D02*
X10448753Y-18170936D01*
X10448753Y-18170936D02*
X10448753Y-18189984D01*
X10582086Y-17989984D02*
X10601134Y-17989984D01*
X10601134Y-17989984D02*
X10620182Y-17999508D01*
X10620182Y-17999508D02*
X10629705Y-18009031D01*
X10629705Y-18009031D02*
X10639229Y-18028079D01*
X10639229Y-18028079D02*
X10648753Y-18066174D01*
X10648753Y-18066174D02*
X10648753Y-18113793D01*
X10648753Y-18113793D02*
X10639229Y-18151889D01*
X10639229Y-18151889D02*
X10629705Y-18170936D01*
X10629705Y-18170936D02*
X10620182Y-18180460D01*
X10620182Y-18180460D02*
X10601134Y-18189984D01*
X10601134Y-18189984D02*
X10582086Y-18189984D01*
X10582086Y-18189984D02*
X10563039Y-18180460D01*
X10563039Y-18180460D02*
X10553515Y-18170936D01*
X10553515Y-18170936D02*
X10543991Y-18151889D01*
X10543991Y-18151889D02*
X10534467Y-18113793D01*
X10534467Y-18113793D02*
X10534467Y-18066174D01*
X10534467Y-18066174D02*
X10543991Y-18028079D01*
X10543991Y-18028079D02*
X10553515Y-18009031D01*
X10553515Y-18009031D02*
X10563039Y-17999508D01*
X10563039Y-17999508D02*
X10582086Y-17989984D01*
X10772563Y-17989984D02*
X10791610Y-17989984D01*
X10791610Y-17989984D02*
X10810658Y-17999508D01*
X10810658Y-17999508D02*
X10820182Y-18009031D01*
X10820182Y-18009031D02*
X10829705Y-18028079D01*
X10829705Y-18028079D02*
X10839229Y-18066174D01*
X10839229Y-18066174D02*
X10839229Y-18113793D01*
X10839229Y-18113793D02*
X10829705Y-18151889D01*
X10829705Y-18151889D02*
X10820182Y-18170936D01*
X10820182Y-18170936D02*
X10810658Y-18180460D01*
X10810658Y-18180460D02*
X10791610Y-18189984D01*
X10791610Y-18189984D02*
X10772563Y-18189984D01*
X10772563Y-18189984D02*
X10753515Y-18180460D01*
X10753515Y-18180460D02*
X10743991Y-18170936D01*
X10743991Y-18170936D02*
X10734467Y-18151889D01*
X10734467Y-18151889D02*
X10724944Y-18113793D01*
X10724944Y-18113793D02*
X10724944Y-18066174D01*
X10724944Y-18066174D02*
X10734467Y-18028079D01*
X10734467Y-18028079D02*
X10743991Y-18009031D01*
X10743991Y-18009031D02*
X10753515Y-17999508D01*
X10753515Y-17999508D02*
X10772563Y-17989984D01*
X10963039Y-17989984D02*
X10982086Y-17989984D01*
X10982086Y-17989984D02*
X11001134Y-17999508D01*
X11001134Y-17999508D02*
X11010658Y-18009031D01*
X11010658Y-18009031D02*
X11020182Y-18028079D01*
X11020182Y-18028079D02*
X11029705Y-18066174D01*
X11029705Y-18066174D02*
X11029705Y-18113793D01*
X11029705Y-18113793D02*
X11020182Y-18151889D01*
X11020182Y-18151889D02*
X11010658Y-18170936D01*
X11010658Y-18170936D02*
X11001134Y-18180460D01*
X11001134Y-18180460D02*
X10982086Y-18189984D01*
X10982086Y-18189984D02*
X10963039Y-18189984D01*
X10963039Y-18189984D02*
X10943991Y-18180460D01*
X10943991Y-18180460D02*
X10934467Y-18170936D01*
X10934467Y-18170936D02*
X10924944Y-18151889D01*
X10924944Y-18151889D02*
X10915420Y-18113793D01*
X10915420Y-18113793D02*
X10915420Y-18066174D01*
X10915420Y-18066174D02*
X10924944Y-18028079D01*
X10924944Y-18028079D02*
X10934467Y-18009031D01*
X10934467Y-18009031D02*
X10943991Y-17999508D01*
X10943991Y-17999508D02*
X10963039Y-17989984D01*
X11115420Y-18189984D02*
X11115420Y-18056650D01*
X11115420Y-18075698D02*
X11124944Y-18066174D01*
X11124944Y-18066174D02*
X11143991Y-18056650D01*
X11143991Y-18056650D02*
X11172563Y-18056650D01*
X11172563Y-18056650D02*
X11191610Y-18066174D01*
X11191610Y-18066174D02*
X11201134Y-18085222D01*
X11201134Y-18085222D02*
X11201134Y-18189984D01*
X11201134Y-18085222D02*
X11210658Y-18066174D01*
X11210658Y-18066174D02*
X11229705Y-18056650D01*
X11229705Y-18056650D02*
X11258277Y-18056650D01*
X11258277Y-18056650D02*
X11277324Y-18066174D01*
X11277324Y-18066174D02*
X11286848Y-18085222D01*
X11286848Y-18085222D02*
X11286848Y-18189984D01*
X11382086Y-18189984D02*
X11382086Y-18056650D01*
X11382086Y-18075698D02*
X11391610Y-18066174D01*
X11391610Y-18066174D02*
X11410658Y-18056650D01*
X11410658Y-18056650D02*
X11439229Y-18056650D01*
X11439229Y-18056650D02*
X11458277Y-18066174D01*
X11458277Y-18066174D02*
X11467801Y-18085222D01*
X11467801Y-18085222D02*
X11467801Y-18189984D01*
X11467801Y-18085222D02*
X11477324Y-18066174D01*
X11477324Y-18066174D02*
X11496372Y-18056650D01*
X11496372Y-18056650D02*
X11524943Y-18056650D01*
X11524943Y-18056650D02*
X11543991Y-18066174D01*
X11543991Y-18066174D02*
X11553515Y-18085222D01*
X11553515Y-18085222D02*
X11553515Y-18189984D01*
X11943991Y-17980460D02*
X11772563Y-18237603D01*
X12201134Y-17989984D02*
X12220182Y-17989984D01*
X12220182Y-17989984D02*
X12239229Y-17999508D01*
X12239229Y-17999508D02*
X12248753Y-18009031D01*
X12248753Y-18009031D02*
X12258277Y-18028079D01*
X12258277Y-18028079D02*
X12267801Y-18066174D01*
X12267801Y-18066174D02*
X12267801Y-18113793D01*
X12267801Y-18113793D02*
X12258277Y-18151889D01*
X12258277Y-18151889D02*
X12248753Y-18170936D01*
X12248753Y-18170936D02*
X12239229Y-18180460D01*
X12239229Y-18180460D02*
X12220182Y-18189984D01*
X12220182Y-18189984D02*
X12201134Y-18189984D01*
X12201134Y-18189984D02*
X12182086Y-18180460D01*
X12182086Y-18180460D02*
X12172563Y-18170936D01*
X12172563Y-18170936D02*
X12163039Y-18151889D01*
X12163039Y-18151889D02*
X12153515Y-18113793D01*
X12153515Y-18113793D02*
X12153515Y-18066174D01*
X12153515Y-18066174D02*
X12163039Y-18028079D01*
X12163039Y-18028079D02*
X12172563Y-18009031D01*
X12172563Y-18009031D02*
X12182086Y-17999508D01*
X12182086Y-17999508D02*
X12201134Y-17989984D01*
X12353515Y-18170936D02*
X12363039Y-18180460D01*
X12363039Y-18180460D02*
X12353515Y-18189984D01*
X12353515Y-18189984D02*
X12343991Y-18180460D01*
X12343991Y-18180460D02*
X12353515Y-18170936D01*
X12353515Y-18170936D02*
X12353515Y-18189984D01*
X12486848Y-17989984D02*
X12505896Y-17989984D01*
X12505896Y-17989984D02*
X12524944Y-17999508D01*
X12524944Y-17999508D02*
X12534467Y-18009031D01*
X12534467Y-18009031D02*
X12543991Y-18028079D01*
X12543991Y-18028079D02*
X12553515Y-18066174D01*
X12553515Y-18066174D02*
X12553515Y-18113793D01*
X12553515Y-18113793D02*
X12543991Y-18151889D01*
X12543991Y-18151889D02*
X12534467Y-18170936D01*
X12534467Y-18170936D02*
X12524944Y-18180460D01*
X12524944Y-18180460D02*
X12505896Y-18189984D01*
X12505896Y-18189984D02*
X12486848Y-18189984D01*
X12486848Y-18189984D02*
X12467801Y-18180460D01*
X12467801Y-18180460D02*
X12458277Y-18170936D01*
X12458277Y-18170936D02*
X12448753Y-18151889D01*
X12448753Y-18151889D02*
X12439229Y-18113793D01*
X12439229Y-18113793D02*
X12439229Y-18066174D01*
X12439229Y-18066174D02*
X12448753Y-18028079D01*
X12448753Y-18028079D02*
X12458277Y-18009031D01*
X12458277Y-18009031D02*
X12467801Y-17999508D01*
X12467801Y-17999508D02*
X12486848Y-17989984D01*
X12620182Y-17989984D02*
X12743991Y-17989984D01*
X12743991Y-17989984D02*
X12677325Y-18066174D01*
X12677325Y-18066174D02*
X12705896Y-18066174D01*
X12705896Y-18066174D02*
X12724944Y-18075698D01*
X12724944Y-18075698D02*
X12734467Y-18085222D01*
X12734467Y-18085222D02*
X12743991Y-18104270D01*
X12743991Y-18104270D02*
X12743991Y-18151889D01*
X12743991Y-18151889D02*
X12734467Y-18170936D01*
X12734467Y-18170936D02*
X12724944Y-18180460D01*
X12724944Y-18180460D02*
X12705896Y-18189984D01*
X12705896Y-18189984D02*
X12648753Y-18189984D01*
X12648753Y-18189984D02*
X12629706Y-18180460D01*
X12629706Y-18180460D02*
X12620182Y-18170936D01*
X12839229Y-18189984D02*
X12877325Y-18189984D01*
X12877325Y-18189984D02*
X12896372Y-18180460D01*
X12896372Y-18180460D02*
X12905896Y-18170936D01*
X12905896Y-18170936D02*
X12924944Y-18142365D01*
X12924944Y-18142365D02*
X12934467Y-18104270D01*
X12934467Y-18104270D02*
X12934467Y-18028079D01*
X12934467Y-18028079D02*
X12924944Y-18009031D01*
X12924944Y-18009031D02*
X12915420Y-17999508D01*
X12915420Y-17999508D02*
X12896372Y-17989984D01*
X12896372Y-17989984D02*
X12858277Y-17989984D01*
X12858277Y-17989984D02*
X12839229Y-17999508D01*
X12839229Y-17999508D02*
X12829706Y-18009031D01*
X12829706Y-18009031D02*
X12820182Y-18028079D01*
X12820182Y-18028079D02*
X12820182Y-18075698D01*
X12820182Y-18075698D02*
X12829706Y-18094746D01*
X12829706Y-18094746D02*
X12839229Y-18104270D01*
X12839229Y-18104270D02*
X12858277Y-18113793D01*
X12858277Y-18113793D02*
X12896372Y-18113793D01*
X12896372Y-18113793D02*
X12915420Y-18104270D01*
X12915420Y-18104270D02*
X12924944Y-18094746D01*
X12924944Y-18094746D02*
X12934467Y-18075698D01*
X13105896Y-18056650D02*
X13105896Y-18189984D01*
X13058277Y-17980460D02*
X13010658Y-18123317D01*
X13010658Y-18123317D02*
X13134467Y-18123317D01*
X13201134Y-17989984D02*
X13201134Y-18028079D01*
X13277325Y-17989984D02*
X13277325Y-18028079D01*
X13572563Y-18266174D02*
X13563039Y-18256650D01*
X13563039Y-18256650D02*
X13543991Y-18228079D01*
X13543991Y-18228079D02*
X13534468Y-18209031D01*
X13534468Y-18209031D02*
X13524944Y-18180460D01*
X13524944Y-18180460D02*
X13515420Y-18132841D01*
X13515420Y-18132841D02*
X13515420Y-18094746D01*
X13515420Y-18094746D02*
X13524944Y-18047127D01*
X13524944Y-18047127D02*
X13534468Y-18018555D01*
X13534468Y-18018555D02*
X13543991Y-17999508D01*
X13543991Y-17999508D02*
X13563039Y-17970936D01*
X13563039Y-17970936D02*
X13572563Y-17961412D01*
X13753515Y-18189984D02*
X13639229Y-18189984D01*
X13696372Y-18189984D02*
X13696372Y-17989984D01*
X13696372Y-17989984D02*
X13677325Y-18018555D01*
X13677325Y-18018555D02*
X13658277Y-18037603D01*
X13658277Y-18037603D02*
X13639229Y-18047127D01*
X13829706Y-18009031D02*
X13839229Y-17999508D01*
X13839229Y-17999508D02*
X13858277Y-17989984D01*
X13858277Y-17989984D02*
X13905896Y-17989984D01*
X13905896Y-17989984D02*
X13924944Y-17999508D01*
X13924944Y-17999508D02*
X13934468Y-18009031D01*
X13934468Y-18009031D02*
X13943991Y-18028079D01*
X13943991Y-18028079D02*
X13943991Y-18047127D01*
X13943991Y-18047127D02*
X13934468Y-18075698D01*
X13934468Y-18075698D02*
X13820182Y-18189984D01*
X13820182Y-18189984D02*
X13943991Y-18189984D01*
X14182087Y-18189984D02*
X14182087Y-17989984D01*
X14267801Y-18189984D02*
X14267801Y-18085222D01*
X14267801Y-18085222D02*
X14258277Y-18066174D01*
X14258277Y-18066174D02*
X14239230Y-18056650D01*
X14239230Y-18056650D02*
X14210658Y-18056650D01*
X14210658Y-18056650D02*
X14191610Y-18066174D01*
X14191610Y-18066174D02*
X14182087Y-18075698D01*
X14391610Y-18189984D02*
X14372563Y-18180460D01*
X14372563Y-18180460D02*
X14363039Y-18170936D01*
X14363039Y-18170936D02*
X14353515Y-18151889D01*
X14353515Y-18151889D02*
X14353515Y-18094746D01*
X14353515Y-18094746D02*
X14363039Y-18075698D01*
X14363039Y-18075698D02*
X14372563Y-18066174D01*
X14372563Y-18066174D02*
X14391610Y-18056650D01*
X14391610Y-18056650D02*
X14420182Y-18056650D01*
X14420182Y-18056650D02*
X14439230Y-18066174D01*
X14439230Y-18066174D02*
X14448753Y-18075698D01*
X14448753Y-18075698D02*
X14458277Y-18094746D01*
X14458277Y-18094746D02*
X14458277Y-18151889D01*
X14458277Y-18151889D02*
X14448753Y-18170936D01*
X14448753Y-18170936D02*
X14439230Y-18180460D01*
X14439230Y-18180460D02*
X14420182Y-18189984D01*
X14420182Y-18189984D02*
X14391610Y-18189984D01*
X14572563Y-18189984D02*
X14553515Y-18180460D01*
X14553515Y-18180460D02*
X14543991Y-18161412D01*
X14543991Y-18161412D02*
X14543991Y-17989984D01*
X14724944Y-18180460D02*
X14705896Y-18189984D01*
X14705896Y-18189984D02*
X14667801Y-18189984D01*
X14667801Y-18189984D02*
X14648753Y-18180460D01*
X14648753Y-18180460D02*
X14639230Y-18161412D01*
X14639230Y-18161412D02*
X14639230Y-18085222D01*
X14639230Y-18085222D02*
X14648753Y-18066174D01*
X14648753Y-18066174D02*
X14667801Y-18056650D01*
X14667801Y-18056650D02*
X14705896Y-18056650D01*
X14705896Y-18056650D02*
X14724944Y-18066174D01*
X14724944Y-18066174D02*
X14734468Y-18085222D01*
X14734468Y-18085222D02*
X14734468Y-18104270D01*
X14734468Y-18104270D02*
X14639230Y-18123317D01*
X14810658Y-18180460D02*
X14829706Y-18189984D01*
X14829706Y-18189984D02*
X14867801Y-18189984D01*
X14867801Y-18189984D02*
X14886849Y-18180460D01*
X14886849Y-18180460D02*
X14896372Y-18161412D01*
X14896372Y-18161412D02*
X14896372Y-18151889D01*
X14896372Y-18151889D02*
X14886849Y-18132841D01*
X14886849Y-18132841D02*
X14867801Y-18123317D01*
X14867801Y-18123317D02*
X14839230Y-18123317D01*
X14839230Y-18123317D02*
X14820182Y-18113793D01*
X14820182Y-18113793D02*
X14810658Y-18094746D01*
X14810658Y-18094746D02*
X14810658Y-18085222D01*
X14810658Y-18085222D02*
X14820182Y-18066174D01*
X14820182Y-18066174D02*
X14839230Y-18056650D01*
X14839230Y-18056650D02*
X14867801Y-18056650D01*
X14867801Y-18056650D02*
X14886849Y-18066174D01*
X14963039Y-18266174D02*
X14972563Y-18256650D01*
X14972563Y-18256650D02*
X14991611Y-18228079D01*
X14991611Y-18228079D02*
X15001134Y-18209031D01*
X15001134Y-18209031D02*
X15010658Y-18180460D01*
X15010658Y-18180460D02*
X15020182Y-18132841D01*
X15020182Y-18132841D02*
X15020182Y-18094746D01*
X15020182Y-18094746D02*
X15010658Y-18047127D01*
X15010658Y-18047127D02*
X15001134Y-18018555D01*
X15001134Y-18018555D02*
X14991611Y-17999508D01*
X14991611Y-17999508D02*
X14972563Y-17970936D01*
X14972563Y-17970936D02*
X14963039Y-17961412D01*
M02*
