%TF.GenerationSoftware,KiCad,Pcbnew,9.0.1*%
%TF.CreationDate,2026-02-28T19:10:04+07:00*%
%TF.ProjectId,BMP_Bluepill,424d505f-426c-4756-9570-696c6c2e6b69,rev?*%
%TF.SameCoordinates,Original*%
%TF.FileFunction,Drillmap*%
%TF.FilePolarity,Positive*%
%FSLAX45Y45*%
G04 Gerber Fmt 4.5, Leading zero omitted, Abs format (unit mm)*
G04 Created by KiCad (PCBNEW 9.0.1) date 2026-02-28 19:10:04*
%MOMM*%
%LPD*%
G01*
G04 APERTURE LIST*
%ADD10C,0.050000*%
%ADD11C,0.200000*%
%ADD12C,0.100000*%
G04 APERTURE END LIST*
D10*
X5853000Y-9264000D02*
X10082000Y-9264000D01*
X10082000Y-15664000D01*
X5853000Y-15664000D01*
X5853000Y-9264000D01*
X6053000Y-11264000D02*
X9882000Y-11264000D01*
X9882000Y-11464000D01*
X6053000Y-11464000D01*
X6053000Y-11264000D01*
X6053000Y-13464000D02*
X9882000Y-13464000D01*
X9882000Y-13664000D01*
X6053000Y-13664000D01*
X6053000Y-13464000D01*
D11*
D12*
X6637000Y-10738000D02*
X6667000Y-10768000D01*
X6667000Y-10738000D02*
X6637000Y-10768000D01*
X6637000Y-12938000D02*
X6667000Y-12968000D01*
X6667000Y-12938000D02*
X6637000Y-12968000D01*
X6637000Y-15138000D02*
X6667000Y-15168000D01*
X6667000Y-15138000D02*
X6637000Y-15168000D01*
X6868750Y-10590250D02*
X6898750Y-10620250D01*
X6898750Y-10590250D02*
X6868750Y-10620250D01*
X6868750Y-12790250D02*
X6898750Y-12820250D01*
X6898750Y-12790250D02*
X6868750Y-12820250D01*
X6868750Y-14990250D02*
X6898750Y-15020250D01*
X6898750Y-14990250D02*
X6868750Y-15020250D01*
X7046000Y-9836000D02*
X7076000Y-9866000D01*
X7076000Y-9836000D02*
X7046000Y-9866000D01*
X7046000Y-9999250D02*
X7076000Y-10029250D01*
X7076000Y-9999250D02*
X7046000Y-10029250D01*
X7046000Y-12036000D02*
X7076000Y-12066000D01*
X7076000Y-12036000D02*
X7046000Y-12066000D01*
X7046000Y-12199250D02*
X7076000Y-12229250D01*
X7076000Y-12199250D02*
X7046000Y-12229250D01*
X7046000Y-14236000D02*
X7076000Y-14266000D01*
X7076000Y-14236000D02*
X7046000Y-14266000D01*
X7046000Y-14399250D02*
X7076000Y-14429250D01*
X7076000Y-14399250D02*
X7046000Y-14429250D01*
X7233000Y-9871000D02*
X7263000Y-9901000D01*
X7263000Y-9871000D02*
X7233000Y-9901000D01*
X7233000Y-12071000D02*
X7263000Y-12101000D01*
X7263000Y-12071000D02*
X7233000Y-12101000D01*
X7233000Y-14271000D02*
X7263000Y-14301000D01*
X7263000Y-14271000D02*
X7233000Y-14301000D01*
X7300000Y-10570750D02*
X7330000Y-10600750D01*
X7330000Y-10570750D02*
X7300000Y-10600750D01*
X7300000Y-10743250D02*
X7330000Y-10773250D01*
X7330000Y-10743250D02*
X7300000Y-10773250D01*
X7300000Y-12770750D02*
X7330000Y-12800750D01*
X7330000Y-12770750D02*
X7300000Y-12800750D01*
X7300000Y-12943250D02*
X7330000Y-12973250D01*
X7330000Y-12943250D02*
X7300000Y-12973250D01*
X7300000Y-14970750D02*
X7330000Y-15000750D01*
X7330000Y-14970750D02*
X7300000Y-15000750D01*
X7300000Y-15143250D02*
X7330000Y-15173250D01*
X7330000Y-15143250D02*
X7300000Y-15173250D01*
X7415750Y-10248000D02*
X7445750Y-10278000D01*
X7445750Y-10248000D02*
X7415750Y-10278000D01*
X7415750Y-12448000D02*
X7445750Y-12478000D01*
X7445750Y-12448000D02*
X7415750Y-12478000D01*
X7415750Y-14648000D02*
X7445750Y-14678000D01*
X7445750Y-14648000D02*
X7415750Y-14678000D01*
X7690500Y-9953000D02*
X7720500Y-9983000D01*
X7720500Y-9953000D02*
X7690500Y-9983000D01*
X7690500Y-12153000D02*
X7720500Y-12183000D01*
X7720500Y-12153000D02*
X7690500Y-12183000D01*
X7690500Y-14353000D02*
X7720500Y-14383000D01*
X7720500Y-14353000D02*
X7690500Y-14383000D01*
X7709000Y-11169000D02*
X7739000Y-11199000D01*
X7739000Y-11169000D02*
X7709000Y-11199000D01*
X7709000Y-13369000D02*
X7739000Y-13399000D01*
X7739000Y-13369000D02*
X7709000Y-13399000D01*
X7709000Y-15569000D02*
X7739000Y-15599000D01*
X7739000Y-15569000D02*
X7709000Y-15599000D01*
X7745710Y-10581500D02*
X7775710Y-10611500D01*
X7775710Y-10581500D02*
X7745710Y-10611500D01*
X7745710Y-12781500D02*
X7775710Y-12811500D01*
X7775710Y-12781500D02*
X7745710Y-12811500D01*
X7745710Y-14981500D02*
X7775710Y-15011500D01*
X7775710Y-14981500D02*
X7745710Y-15011500D01*
X7746000Y-10427000D02*
X7776000Y-10457000D01*
X7776000Y-10427000D02*
X7746000Y-10457000D01*
X7746000Y-12627000D02*
X7776000Y-12657000D01*
X7776000Y-12627000D02*
X7746000Y-12657000D01*
X7746000Y-14827000D02*
X7776000Y-14857000D01*
X7776000Y-14827000D02*
X7746000Y-14857000D01*
X7773000Y-10731500D02*
X7803000Y-10761500D01*
X7803000Y-10731500D02*
X7773000Y-10761500D01*
X7773000Y-12931500D02*
X7803000Y-12961500D01*
X7803000Y-12931500D02*
X7773000Y-12961500D01*
X7773000Y-15131500D02*
X7803000Y-15161500D01*
X7803000Y-15131500D02*
X7773000Y-15161500D01*
X7863000Y-9953000D02*
X7893000Y-9983000D01*
X7893000Y-9953000D02*
X7863000Y-9983000D01*
X7863000Y-12153000D02*
X7893000Y-12183000D01*
X7893000Y-12153000D02*
X7863000Y-12183000D01*
X7863000Y-14353000D02*
X7893000Y-14383000D01*
X7893000Y-14353000D02*
X7863000Y-14383000D01*
X8021000Y-9953000D02*
X8051000Y-9983000D01*
X8051000Y-9953000D02*
X8021000Y-9983000D01*
X8021000Y-12153000D02*
X8051000Y-12183000D01*
X8051000Y-12153000D02*
X8021000Y-12183000D01*
X8021000Y-14353000D02*
X8051000Y-14383000D01*
X8051000Y-14353000D02*
X8021000Y-14383000D01*
X8077000Y-11137000D02*
X8107000Y-11167000D01*
X8107000Y-11137000D02*
X8077000Y-11167000D01*
X8077000Y-13337000D02*
X8107000Y-13367000D01*
X8107000Y-13337000D02*
X8077000Y-13367000D01*
X8077000Y-15537000D02*
X8107000Y-15567000D01*
X8107000Y-15537000D02*
X8077000Y-15567000D01*
X8234500Y-11137000D02*
X8264500Y-11167000D01*
X8264500Y-11137000D02*
X8234500Y-11167000D01*
X8234500Y-13337000D02*
X8264500Y-13367000D01*
X8264500Y-13337000D02*
X8234500Y-13367000D01*
X8234500Y-15537000D02*
X8264500Y-15567000D01*
X8264500Y-15537000D02*
X8234500Y-15567000D01*
X8260000Y-10309000D02*
X8290000Y-10339000D01*
X8290000Y-10309000D02*
X8260000Y-10339000D01*
X8260000Y-12509000D02*
X8290000Y-12539000D01*
X8290000Y-12509000D02*
X8260000Y-12539000D01*
X8260000Y-14709000D02*
X8290000Y-14739000D01*
X8290000Y-14709000D02*
X8260000Y-14739000D01*
X8407000Y-11137000D02*
X8437000Y-11167000D01*
X8437000Y-11137000D02*
X8407000Y-11167000D01*
X8407000Y-13337000D02*
X8437000Y-13367000D01*
X8437000Y-13337000D02*
X8407000Y-13367000D01*
X8407000Y-15537000D02*
X8437000Y-15567000D01*
X8437000Y-15537000D02*
X8407000Y-15567000D01*
X8546743Y-10607596D02*
X8576743Y-10637596D01*
X8576743Y-10607596D02*
X8546743Y-10637596D01*
X8546743Y-12807596D02*
X8576743Y-12837596D01*
X8576743Y-12807596D02*
X8546743Y-12837596D01*
X8546743Y-15007596D02*
X8576743Y-15037596D01*
X8576743Y-15007596D02*
X8546743Y-15037596D01*
X8584250Y-10281000D02*
X8614250Y-10311000D01*
X8614250Y-10281000D02*
X8584250Y-10311000D01*
X8584250Y-12481000D02*
X8614250Y-12511000D01*
X8614250Y-12481000D02*
X8584250Y-12511000D01*
X8584250Y-14681000D02*
X8614250Y-14711000D01*
X8614250Y-14681000D02*
X8584250Y-14711000D01*
X8655000Y-9856000D02*
X8685000Y-9886000D01*
X8685000Y-9856000D02*
X8655000Y-9886000D01*
X8655000Y-12056000D02*
X8685000Y-12086000D01*
X8685000Y-12056000D02*
X8655000Y-12086000D01*
X8655000Y-14256000D02*
X8685000Y-14286000D01*
X8685000Y-14256000D02*
X8655000Y-14286000D01*
X8714000Y-10480000D02*
X8744000Y-10510000D01*
X8744000Y-10480000D02*
X8714000Y-10510000D01*
X8714000Y-12680000D02*
X8744000Y-12710000D01*
X8744000Y-12680000D02*
X8714000Y-12710000D01*
X8714000Y-14880000D02*
X8744000Y-14910000D01*
X8744000Y-14880000D02*
X8714000Y-14910000D01*
X8772000Y-9382000D02*
X8802000Y-9412000D01*
X8802000Y-9382000D02*
X8772000Y-9412000D01*
X8772000Y-11582000D02*
X8802000Y-11612000D01*
X8802000Y-11582000D02*
X8772000Y-11612000D01*
X8772000Y-13782000D02*
X8802000Y-13812000D01*
X8802000Y-13782000D02*
X8772000Y-13812000D01*
X8842750Y-10561000D02*
X8872750Y-10591000D01*
X8872750Y-10561000D02*
X8842750Y-10591000D01*
X8842750Y-10714000D02*
X8872750Y-10744000D01*
X8872750Y-10714000D02*
X8842750Y-10744000D01*
X8842750Y-12761000D02*
X8872750Y-12791000D01*
X8872750Y-12761000D02*
X8842750Y-12791000D01*
X8842750Y-12914000D02*
X8872750Y-12944000D01*
X8872750Y-12914000D02*
X8842750Y-12944000D01*
X8842750Y-14961000D02*
X8872750Y-14991000D01*
X8872750Y-14961000D02*
X8842750Y-14991000D01*
X8842750Y-15114000D02*
X8872750Y-15144000D01*
X8872750Y-15114000D02*
X8842750Y-15144000D01*
X8883500Y-9931500D02*
X8913500Y-9961500D01*
X8913500Y-9931500D02*
X8883500Y-9961500D01*
X8883500Y-12131500D02*
X8913500Y-12161500D01*
X8913500Y-12131500D02*
X8883500Y-12161500D01*
X8883500Y-14331500D02*
X8913500Y-14361500D01*
X8913500Y-14331500D02*
X8883500Y-14361500D01*
X9157000Y-10538000D02*
X9187000Y-10568000D01*
X9187000Y-10538000D02*
X9157000Y-10568000D01*
X9157000Y-12738000D02*
X9187000Y-12768000D01*
X9187000Y-12738000D02*
X9157000Y-12768000D01*
X9157000Y-14938000D02*
X9187000Y-14968000D01*
X9187000Y-14938000D02*
X9157000Y-14968000D01*
X9386000Y-10588000D02*
X9416000Y-10618000D01*
X9416000Y-10588000D02*
X9386000Y-10618000D01*
X9386000Y-12788000D02*
X9416000Y-12818000D01*
X9416000Y-12788000D02*
X9386000Y-12818000D01*
X9386000Y-14988000D02*
X9416000Y-15018000D01*
X9416000Y-14988000D02*
X9386000Y-15018000D01*
X9399000Y-10243000D02*
X9429000Y-10273000D01*
X9429000Y-10243000D02*
X9399000Y-10273000D01*
X9399000Y-12443000D02*
X9429000Y-12473000D01*
X9429000Y-12443000D02*
X9399000Y-12473000D01*
X9399000Y-14643000D02*
X9429000Y-14673000D01*
X9429000Y-14643000D02*
X9399000Y-14673000D01*
X9400000Y-10883000D02*
X9430000Y-10913000D01*
X9430000Y-10883000D02*
X9400000Y-10913000D01*
X9400000Y-13083000D02*
X9430000Y-13113000D01*
X9430000Y-13083000D02*
X9400000Y-13113000D01*
X9400000Y-15283000D02*
X9430000Y-15313000D01*
X9430000Y-15283000D02*
X9400000Y-15313000D01*
X9548750Y-10386000D02*
X9578750Y-10416000D01*
X9578750Y-10386000D02*
X9548750Y-10416000D01*
X9548750Y-10696000D02*
X9578750Y-10726000D01*
X9578750Y-10696000D02*
X9548750Y-10726000D01*
X9548750Y-12586000D02*
X9578750Y-12616000D01*
X9578750Y-12586000D02*
X9548750Y-12616000D01*
X9548750Y-12896000D02*
X9578750Y-12926000D01*
X9578750Y-12896000D02*
X9548750Y-12926000D01*
X9548750Y-14786000D02*
X9578750Y-14816000D01*
X9578750Y-14786000D02*
X9548750Y-14816000D01*
X9548750Y-15096000D02*
X9578750Y-15126000D01*
X9578750Y-15096000D02*
X9548750Y-15126000D01*
X9374500Y-10146000D02*
G75*
G02*
X9314500Y-10146000I-30000J0D01*
G01*
X9314500Y-10146000D02*
G75*
G02*
X9374500Y-10146000I30000J0D01*
G01*
X9289500Y-10176000D02*
X9399500Y-10176000D01*
X9399500Y-10116000D02*
G75*
G02*
X9399500Y-10176000I0J-30000D01*
G01*
X9399500Y-10116000D02*
X9289500Y-10116000D01*
X9289500Y-10116000D02*
G75*
G03*
X9289500Y-10176000I0J-30000D01*
G01*
X9374500Y-11010000D02*
G75*
G02*
X9314500Y-11010000I-30000J0D01*
G01*
X9314500Y-11010000D02*
G75*
G02*
X9374500Y-11010000I30000J0D01*
G01*
X9289500Y-11040000D02*
X9399500Y-11040000D01*
X9399500Y-10980000D02*
G75*
G02*
X9399500Y-11040000I0J-30000D01*
G01*
X9399500Y-10980000D02*
X9289500Y-10980000D01*
X9289500Y-10980000D02*
G75*
G03*
X9289500Y-11040000I0J-30000D01*
G01*
X9374500Y-12346000D02*
G75*
G02*
X9314500Y-12346000I-30000J0D01*
G01*
X9314500Y-12346000D02*
G75*
G02*
X9374500Y-12346000I30000J0D01*
G01*
X9289500Y-12376000D02*
X9399500Y-12376000D01*
X9399500Y-12316000D02*
G75*
G02*
X9399500Y-12376000I0J-30000D01*
G01*
X9399500Y-12316000D02*
X9289500Y-12316000D01*
X9289500Y-12316000D02*
G75*
G03*
X9289500Y-12376000I0J-30000D01*
G01*
X9374500Y-13210000D02*
G75*
G02*
X9314500Y-13210000I-30000J0D01*
G01*
X9314500Y-13210000D02*
G75*
G02*
X9374500Y-13210000I30000J0D01*
G01*
X9289500Y-13240000D02*
X9399500Y-13240000D01*
X9399500Y-13180000D02*
G75*
G02*
X9399500Y-13240000I0J-30000D01*
G01*
X9399500Y-13180000D02*
X9289500Y-13180000D01*
X9289500Y-13180000D02*
G75*
G03*
X9289500Y-13240000I0J-30000D01*
G01*
X9374500Y-14546000D02*
G75*
G02*
X9314500Y-14546000I-30000J0D01*
G01*
X9314500Y-14546000D02*
G75*
G02*
X9374500Y-14546000I30000J0D01*
G01*
X9289500Y-14576000D02*
X9399500Y-14576000D01*
X9399500Y-14516000D02*
G75*
G02*
X9399500Y-14576000I0J-30000D01*
G01*
X9399500Y-14516000D02*
X9289500Y-14516000D01*
X9289500Y-14516000D02*
G75*
G03*
X9289500Y-14576000I0J-30000D01*
G01*
X9374500Y-15410000D02*
G75*
G02*
X9314500Y-15410000I-30000J0D01*
G01*
X9314500Y-15410000D02*
G75*
G02*
X9374500Y-15410000I30000J0D01*
G01*
X9289500Y-15440000D02*
X9399500Y-15440000D01*
X9399500Y-15380000D02*
G75*
G02*
X9399500Y-15440000I0J-30000D01*
G01*
X9399500Y-15380000D02*
X9289500Y-15380000D01*
X9289500Y-15380000D02*
G75*
G03*
X9289500Y-15440000I0J-30000D01*
G01*
X9792500Y-10146000D02*
G75*
G02*
X9732500Y-10146000I-30000J0D01*
G01*
X9732500Y-10146000D02*
G75*
G02*
X9792500Y-10146000I30000J0D01*
G01*
X9722500Y-10176000D02*
X9802500Y-10176000D01*
X9802500Y-10116000D02*
G75*
G02*
X9802500Y-10176000I0J-30000D01*
G01*
X9802500Y-10116000D02*
X9722500Y-10116000D01*
X9722500Y-10116000D02*
G75*
G03*
X9722500Y-10176000I0J-30000D01*
G01*
X9792500Y-11010000D02*
G75*
G02*
X9732500Y-11010000I-30000J0D01*
G01*
X9732500Y-11010000D02*
G75*
G02*
X9792500Y-11010000I30000J0D01*
G01*
X9722500Y-11040000D02*
X9802500Y-11040000D01*
X9802500Y-10980000D02*
G75*
G02*
X9802500Y-11040000I0J-30000D01*
G01*
X9802500Y-10980000D02*
X9722500Y-10980000D01*
X9722500Y-10980000D02*
G75*
G03*
X9722500Y-11040000I0J-30000D01*
G01*
X9792500Y-12346000D02*
G75*
G02*
X9732500Y-12346000I-30000J0D01*
G01*
X9732500Y-12346000D02*
G75*
G02*
X9792500Y-12346000I30000J0D01*
G01*
X9722500Y-12376000D02*
X9802500Y-12376000D01*
X9802500Y-12316000D02*
G75*
G02*
X9802500Y-12376000I0J-30000D01*
G01*
X9802500Y-12316000D02*
X9722500Y-12316000D01*
X9722500Y-12316000D02*
G75*
G03*
X9722500Y-12376000I0J-30000D01*
G01*
X9792500Y-13210000D02*
G75*
G02*
X9732500Y-13210000I-30000J0D01*
G01*
X9732500Y-13210000D02*
G75*
G02*
X9792500Y-13210000I30000J0D01*
G01*
X9722500Y-13240000D02*
X9802500Y-13240000D01*
X9802500Y-13180000D02*
G75*
G02*
X9802500Y-13240000I0J-30000D01*
G01*
X9802500Y-13180000D02*
X9722500Y-13180000D01*
X9722500Y-13180000D02*
G75*
G03*
X9722500Y-13240000I0J-30000D01*
G01*
X9792500Y-14546000D02*
G75*
G02*
X9732500Y-14546000I-30000J0D01*
G01*
X9732500Y-14546000D02*
G75*
G02*
X9792500Y-14546000I30000J0D01*
G01*
X9722500Y-14576000D02*
X9802500Y-14576000D01*
X9802500Y-14516000D02*
G75*
G02*
X9802500Y-14576000I0J-30000D01*
G01*
X9802500Y-14516000D02*
X9722500Y-14516000D01*
X9722500Y-14516000D02*
G75*
G03*
X9722500Y-14576000I0J-30000D01*
G01*
X9792500Y-15410000D02*
G75*
G02*
X9732500Y-15410000I-30000J0D01*
G01*
X9732500Y-15410000D02*
G75*
G02*
X9792500Y-15410000I30000J0D01*
G01*
X9722500Y-15440000D02*
X9802500Y-15440000D01*
X9802500Y-15380000D02*
G75*
G02*
X9802500Y-15440000I0J-30000D01*
G01*
X9802500Y-15380000D02*
X9722500Y-15380000D01*
X9722500Y-15380000D02*
G75*
G03*
X9722500Y-15440000I0J-30000D01*
G01*
X6853000Y-9648000D02*
X6853000Y-9728000D01*
X6813000Y-9688000D02*
X6893000Y-9688000D01*
X6853000Y-10136000D02*
X6853000Y-10216000D01*
X6813000Y-10176000D02*
X6893000Y-10176000D01*
X6853000Y-11848000D02*
X6853000Y-11928000D01*
X6813000Y-11888000D02*
X6893000Y-11888000D01*
X6853000Y-12336000D02*
X6853000Y-12416000D01*
X6813000Y-12376000D02*
X6893000Y-12376000D01*
X6853000Y-14048000D02*
X6853000Y-14128000D01*
X6813000Y-14088000D02*
X6893000Y-14088000D01*
X6853000Y-14536000D02*
X6853000Y-14616000D01*
X6813000Y-14576000D02*
X6893000Y-14576000D01*
X6201088Y-9672588D02*
X6201088Y-9605412D01*
X6133912Y-9605412D01*
X6133912Y-9672588D01*
X6201088Y-9672588D01*
X6201088Y-9922588D02*
X6201088Y-9855412D01*
X6133912Y-9855412D01*
X6133912Y-9922588D01*
X6201088Y-9922588D01*
X6201088Y-10172588D02*
X6201088Y-10105412D01*
X6133912Y-10105412D01*
X6133912Y-10172588D01*
X6201088Y-10172588D01*
X6201088Y-10422588D02*
X6201088Y-10355412D01*
X6133912Y-10355412D01*
X6133912Y-10422588D01*
X6201088Y-10422588D01*
X6201088Y-10672588D02*
X6201088Y-10605412D01*
X6133912Y-10605412D01*
X6133912Y-10672588D01*
X6201088Y-10672588D01*
X6201088Y-10922588D02*
X6201088Y-10855412D01*
X6133912Y-10855412D01*
X6133912Y-10922588D01*
X6201088Y-10922588D01*
X6201088Y-11872588D02*
X6201088Y-11805412D01*
X6133912Y-11805412D01*
X6133912Y-11872588D01*
X6201088Y-11872588D01*
X6201088Y-12122588D02*
X6201088Y-12055412D01*
X6133912Y-12055412D01*
X6133912Y-12122588D01*
X6201088Y-12122588D01*
X6201088Y-12372588D02*
X6201088Y-12305412D01*
X6133912Y-12305412D01*
X6133912Y-12372588D01*
X6201088Y-12372588D01*
X6201088Y-12622588D02*
X6201088Y-12555412D01*
X6133912Y-12555412D01*
X6133912Y-12622588D01*
X6201088Y-12622588D01*
X6201088Y-12872588D02*
X6201088Y-12805412D01*
X6133912Y-12805412D01*
X6133912Y-12872588D01*
X6201088Y-12872588D01*
X6201088Y-13122588D02*
X6201088Y-13055412D01*
X6133912Y-13055412D01*
X6133912Y-13122588D01*
X6201088Y-13122588D01*
X6201088Y-14072588D02*
X6201088Y-14005412D01*
X6133912Y-14005412D01*
X6133912Y-14072588D01*
X6201088Y-14072588D01*
X6201088Y-14322588D02*
X6201088Y-14255412D01*
X6133912Y-14255412D01*
X6133912Y-14322588D01*
X6201088Y-14322588D01*
X6201088Y-14572588D02*
X6201088Y-14505412D01*
X6133912Y-14505412D01*
X6133912Y-14572588D01*
X6201088Y-14572588D01*
X6201088Y-14822588D02*
X6201088Y-14755412D01*
X6133912Y-14755412D01*
X6133912Y-14822588D01*
X6201088Y-14822588D01*
X6201088Y-15072588D02*
X6201088Y-15005412D01*
X6133912Y-15005412D01*
X6133912Y-15072588D01*
X6201088Y-15072588D01*
X6201088Y-15322588D02*
X6201088Y-15255412D01*
X6133912Y-15255412D01*
X6133912Y-15322588D01*
X6201088Y-15322588D01*
X7666000Y-9555000D02*
X7716000Y-9505000D01*
X7666000Y-9455000D01*
X7616000Y-9505000D01*
X7666000Y-9555000D01*
X7666000Y-11755000D02*
X7716000Y-11705000D01*
X7666000Y-11655000D01*
X7616000Y-11705000D01*
X7666000Y-11755000D01*
X7666000Y-13955000D02*
X7716000Y-13905000D01*
X7666000Y-13855000D01*
X7616000Y-13905000D01*
X7666000Y-13955000D01*
X7920000Y-9555000D02*
X7970000Y-9505000D01*
X7920000Y-9455000D01*
X7870000Y-9505000D01*
X7920000Y-9555000D01*
X7920000Y-11755000D02*
X7970000Y-11705000D01*
X7920000Y-11655000D01*
X7870000Y-11705000D01*
X7920000Y-11755000D01*
X7920000Y-13955000D02*
X7970000Y-13905000D01*
X7920000Y-13855000D01*
X7870000Y-13905000D01*
X7920000Y-13955000D01*
X8174000Y-9555000D02*
X8224000Y-9505000D01*
X8174000Y-9455000D01*
X8124000Y-9505000D01*
X8174000Y-9555000D01*
X8174000Y-11755000D02*
X8224000Y-11705000D01*
X8174000Y-11655000D01*
X8124000Y-11705000D01*
X8174000Y-11755000D01*
X8174000Y-13955000D02*
X8224000Y-13905000D01*
X8174000Y-13855000D01*
X8124000Y-13905000D01*
X8174000Y-13955000D01*
X8428000Y-9555000D02*
X8478000Y-9505000D01*
X8428000Y-9455000D01*
X8378000Y-9505000D01*
X8428000Y-9555000D01*
X8428000Y-11755000D02*
X8478000Y-11705000D01*
X8428000Y-11655000D01*
X8378000Y-11705000D01*
X8428000Y-11755000D01*
X8428000Y-13955000D02*
X8478000Y-13905000D01*
X8428000Y-13855000D01*
X8378000Y-13905000D01*
X8428000Y-13955000D01*
D11*
X6111277Y-15977984D02*
X6111277Y-15777984D01*
X6111277Y-15777984D02*
X6158896Y-15777984D01*
X6158896Y-15777984D02*
X6187467Y-15787508D01*
X6187467Y-15787508D02*
X6206515Y-15806555D01*
X6206515Y-15806555D02*
X6216039Y-15825603D01*
X6216039Y-15825603D02*
X6225562Y-15863698D01*
X6225562Y-15863698D02*
X6225562Y-15892269D01*
X6225562Y-15892269D02*
X6216039Y-15930365D01*
X6216039Y-15930365D02*
X6206515Y-15949412D01*
X6206515Y-15949412D02*
X6187467Y-15968460D01*
X6187467Y-15968460D02*
X6158896Y-15977984D01*
X6158896Y-15977984D02*
X6111277Y-15977984D01*
X6311277Y-15977984D02*
X6311277Y-15844650D01*
X6311277Y-15882746D02*
X6320801Y-15863698D01*
X6320801Y-15863698D02*
X6330324Y-15854174D01*
X6330324Y-15854174D02*
X6349372Y-15844650D01*
X6349372Y-15844650D02*
X6368420Y-15844650D01*
X6435086Y-15977984D02*
X6435086Y-15844650D01*
X6435086Y-15777984D02*
X6425562Y-15787508D01*
X6425562Y-15787508D02*
X6435086Y-15797031D01*
X6435086Y-15797031D02*
X6444610Y-15787508D01*
X6444610Y-15787508D02*
X6435086Y-15777984D01*
X6435086Y-15777984D02*
X6435086Y-15797031D01*
X6558896Y-15977984D02*
X6539848Y-15968460D01*
X6539848Y-15968460D02*
X6530324Y-15949412D01*
X6530324Y-15949412D02*
X6530324Y-15777984D01*
X6663658Y-15977984D02*
X6644610Y-15968460D01*
X6644610Y-15968460D02*
X6635086Y-15949412D01*
X6635086Y-15949412D02*
X6635086Y-15777984D01*
X6892229Y-15977984D02*
X6892229Y-15777984D01*
X6892229Y-15777984D02*
X6958896Y-15920841D01*
X6958896Y-15920841D02*
X7025562Y-15777984D01*
X7025562Y-15777984D02*
X7025562Y-15977984D01*
X7206515Y-15977984D02*
X7206515Y-15873222D01*
X7206515Y-15873222D02*
X7196991Y-15854174D01*
X7196991Y-15854174D02*
X7177943Y-15844650D01*
X7177943Y-15844650D02*
X7139848Y-15844650D01*
X7139848Y-15844650D02*
X7120801Y-15854174D01*
X7206515Y-15968460D02*
X7187467Y-15977984D01*
X7187467Y-15977984D02*
X7139848Y-15977984D01*
X7139848Y-15977984D02*
X7120801Y-15968460D01*
X7120801Y-15968460D02*
X7111277Y-15949412D01*
X7111277Y-15949412D02*
X7111277Y-15930365D01*
X7111277Y-15930365D02*
X7120801Y-15911317D01*
X7120801Y-15911317D02*
X7139848Y-15901793D01*
X7139848Y-15901793D02*
X7187467Y-15901793D01*
X7187467Y-15901793D02*
X7206515Y-15892269D01*
X7301753Y-15844650D02*
X7301753Y-16044650D01*
X7301753Y-15854174D02*
X7320801Y-15844650D01*
X7320801Y-15844650D02*
X7358896Y-15844650D01*
X7358896Y-15844650D02*
X7377943Y-15854174D01*
X7377943Y-15854174D02*
X7387467Y-15863698D01*
X7387467Y-15863698D02*
X7396991Y-15882746D01*
X7396991Y-15882746D02*
X7396991Y-15939888D01*
X7396991Y-15939888D02*
X7387467Y-15958936D01*
X7387467Y-15958936D02*
X7377943Y-15968460D01*
X7377943Y-15968460D02*
X7358896Y-15977984D01*
X7358896Y-15977984D02*
X7320801Y-15977984D01*
X7320801Y-15977984D02*
X7301753Y-15968460D01*
X7482705Y-15958936D02*
X7492229Y-15968460D01*
X7492229Y-15968460D02*
X7482705Y-15977984D01*
X7482705Y-15977984D02*
X7473182Y-15968460D01*
X7473182Y-15968460D02*
X7482705Y-15958936D01*
X7482705Y-15958936D02*
X7482705Y-15977984D01*
X7482705Y-15854174D02*
X7492229Y-15863698D01*
X7492229Y-15863698D02*
X7482705Y-15873222D01*
X7482705Y-15873222D02*
X7473182Y-15863698D01*
X7473182Y-15863698D02*
X7482705Y-15854174D01*
X7482705Y-15854174D02*
X7482705Y-15873222D01*
D12*
X5820500Y-16291500D02*
X5850500Y-16321500D01*
X5850500Y-16291500D02*
X5820500Y-16321500D01*
D11*
X6149372Y-16197984D02*
X6168420Y-16197984D01*
X6168420Y-16197984D02*
X6187467Y-16207508D01*
X6187467Y-16207508D02*
X6196991Y-16217031D01*
X6196991Y-16217031D02*
X6206515Y-16236079D01*
X6206515Y-16236079D02*
X6216039Y-16274174D01*
X6216039Y-16274174D02*
X6216039Y-16321793D01*
X6216039Y-16321793D02*
X6206515Y-16359888D01*
X6206515Y-16359888D02*
X6196991Y-16378936D01*
X6196991Y-16378936D02*
X6187467Y-16388460D01*
X6187467Y-16388460D02*
X6168420Y-16397984D01*
X6168420Y-16397984D02*
X6149372Y-16397984D01*
X6149372Y-16397984D02*
X6130324Y-16388460D01*
X6130324Y-16388460D02*
X6120801Y-16378936D01*
X6120801Y-16378936D02*
X6111277Y-16359888D01*
X6111277Y-16359888D02*
X6101753Y-16321793D01*
X6101753Y-16321793D02*
X6101753Y-16274174D01*
X6101753Y-16274174D02*
X6111277Y-16236079D01*
X6111277Y-16236079D02*
X6120801Y-16217031D01*
X6120801Y-16217031D02*
X6130324Y-16207508D01*
X6130324Y-16207508D02*
X6149372Y-16197984D01*
X6301753Y-16378936D02*
X6311277Y-16388460D01*
X6311277Y-16388460D02*
X6301753Y-16397984D01*
X6301753Y-16397984D02*
X6292229Y-16388460D01*
X6292229Y-16388460D02*
X6301753Y-16378936D01*
X6301753Y-16378936D02*
X6301753Y-16397984D01*
X6377943Y-16197984D02*
X6501753Y-16197984D01*
X6501753Y-16197984D02*
X6435086Y-16274174D01*
X6435086Y-16274174D02*
X6463658Y-16274174D01*
X6463658Y-16274174D02*
X6482705Y-16283698D01*
X6482705Y-16283698D02*
X6492229Y-16293222D01*
X6492229Y-16293222D02*
X6501753Y-16312269D01*
X6501753Y-16312269D02*
X6501753Y-16359888D01*
X6501753Y-16359888D02*
X6492229Y-16378936D01*
X6492229Y-16378936D02*
X6482705Y-16388460D01*
X6482705Y-16388460D02*
X6463658Y-16397984D01*
X6463658Y-16397984D02*
X6406515Y-16397984D01*
X6406515Y-16397984D02*
X6387467Y-16388460D01*
X6387467Y-16388460D02*
X6377943Y-16378936D01*
X6625562Y-16197984D02*
X6644610Y-16197984D01*
X6644610Y-16197984D02*
X6663658Y-16207508D01*
X6663658Y-16207508D02*
X6673182Y-16217031D01*
X6673182Y-16217031D02*
X6682705Y-16236079D01*
X6682705Y-16236079D02*
X6692229Y-16274174D01*
X6692229Y-16274174D02*
X6692229Y-16321793D01*
X6692229Y-16321793D02*
X6682705Y-16359888D01*
X6682705Y-16359888D02*
X6673182Y-16378936D01*
X6673182Y-16378936D02*
X6663658Y-16388460D01*
X6663658Y-16388460D02*
X6644610Y-16397984D01*
X6644610Y-16397984D02*
X6625562Y-16397984D01*
X6625562Y-16397984D02*
X6606515Y-16388460D01*
X6606515Y-16388460D02*
X6596991Y-16378936D01*
X6596991Y-16378936D02*
X6587467Y-16359888D01*
X6587467Y-16359888D02*
X6577943Y-16321793D01*
X6577943Y-16321793D02*
X6577943Y-16274174D01*
X6577943Y-16274174D02*
X6587467Y-16236079D01*
X6587467Y-16236079D02*
X6596991Y-16217031D01*
X6596991Y-16217031D02*
X6606515Y-16207508D01*
X6606515Y-16207508D02*
X6625562Y-16197984D01*
X6816039Y-16197984D02*
X6835086Y-16197984D01*
X6835086Y-16197984D02*
X6854134Y-16207508D01*
X6854134Y-16207508D02*
X6863658Y-16217031D01*
X6863658Y-16217031D02*
X6873182Y-16236079D01*
X6873182Y-16236079D02*
X6882705Y-16274174D01*
X6882705Y-16274174D02*
X6882705Y-16321793D01*
X6882705Y-16321793D02*
X6873182Y-16359888D01*
X6873182Y-16359888D02*
X6863658Y-16378936D01*
X6863658Y-16378936D02*
X6854134Y-16388460D01*
X6854134Y-16388460D02*
X6835086Y-16397984D01*
X6835086Y-16397984D02*
X6816039Y-16397984D01*
X6816039Y-16397984D02*
X6796991Y-16388460D01*
X6796991Y-16388460D02*
X6787467Y-16378936D01*
X6787467Y-16378936D02*
X6777943Y-16359888D01*
X6777943Y-16359888D02*
X6768420Y-16321793D01*
X6768420Y-16321793D02*
X6768420Y-16274174D01*
X6768420Y-16274174D02*
X6777943Y-16236079D01*
X6777943Y-16236079D02*
X6787467Y-16217031D01*
X6787467Y-16217031D02*
X6796991Y-16207508D01*
X6796991Y-16207508D02*
X6816039Y-16197984D01*
X6968420Y-16397984D02*
X6968420Y-16264650D01*
X6968420Y-16283698D02*
X6977943Y-16274174D01*
X6977943Y-16274174D02*
X6996991Y-16264650D01*
X6996991Y-16264650D02*
X7025563Y-16264650D01*
X7025563Y-16264650D02*
X7044610Y-16274174D01*
X7044610Y-16274174D02*
X7054134Y-16293222D01*
X7054134Y-16293222D02*
X7054134Y-16397984D01*
X7054134Y-16293222D02*
X7063658Y-16274174D01*
X7063658Y-16274174D02*
X7082705Y-16264650D01*
X7082705Y-16264650D02*
X7111277Y-16264650D01*
X7111277Y-16264650D02*
X7130324Y-16274174D01*
X7130324Y-16274174D02*
X7139848Y-16293222D01*
X7139848Y-16293222D02*
X7139848Y-16397984D01*
X7235086Y-16397984D02*
X7235086Y-16264650D01*
X7235086Y-16283698D02*
X7244610Y-16274174D01*
X7244610Y-16274174D02*
X7263658Y-16264650D01*
X7263658Y-16264650D02*
X7292229Y-16264650D01*
X7292229Y-16264650D02*
X7311277Y-16274174D01*
X7311277Y-16274174D02*
X7320801Y-16293222D01*
X7320801Y-16293222D02*
X7320801Y-16397984D01*
X7320801Y-16293222D02*
X7330324Y-16274174D01*
X7330324Y-16274174D02*
X7349372Y-16264650D01*
X7349372Y-16264650D02*
X7377943Y-16264650D01*
X7377943Y-16264650D02*
X7396991Y-16274174D01*
X7396991Y-16274174D02*
X7406515Y-16293222D01*
X7406515Y-16293222D02*
X7406515Y-16397984D01*
X7796991Y-16188460D02*
X7625563Y-16445603D01*
X8054134Y-16197984D02*
X8073182Y-16197984D01*
X8073182Y-16197984D02*
X8092229Y-16207508D01*
X8092229Y-16207508D02*
X8101753Y-16217031D01*
X8101753Y-16217031D02*
X8111277Y-16236079D01*
X8111277Y-16236079D02*
X8120801Y-16274174D01*
X8120801Y-16274174D02*
X8120801Y-16321793D01*
X8120801Y-16321793D02*
X8111277Y-16359888D01*
X8111277Y-16359888D02*
X8101753Y-16378936D01*
X8101753Y-16378936D02*
X8092229Y-16388460D01*
X8092229Y-16388460D02*
X8073182Y-16397984D01*
X8073182Y-16397984D02*
X8054134Y-16397984D01*
X8054134Y-16397984D02*
X8035086Y-16388460D01*
X8035086Y-16388460D02*
X8025563Y-16378936D01*
X8025563Y-16378936D02*
X8016039Y-16359888D01*
X8016039Y-16359888D02*
X8006515Y-16321793D01*
X8006515Y-16321793D02*
X8006515Y-16274174D01*
X8006515Y-16274174D02*
X8016039Y-16236079D01*
X8016039Y-16236079D02*
X8025563Y-16217031D01*
X8025563Y-16217031D02*
X8035086Y-16207508D01*
X8035086Y-16207508D02*
X8054134Y-16197984D01*
X8206515Y-16378936D02*
X8216039Y-16388460D01*
X8216039Y-16388460D02*
X8206515Y-16397984D01*
X8206515Y-16397984D02*
X8196991Y-16388460D01*
X8196991Y-16388460D02*
X8206515Y-16378936D01*
X8206515Y-16378936D02*
X8206515Y-16397984D01*
X8339848Y-16197984D02*
X8358896Y-16197984D01*
X8358896Y-16197984D02*
X8377944Y-16207508D01*
X8377944Y-16207508D02*
X8387467Y-16217031D01*
X8387467Y-16217031D02*
X8396991Y-16236079D01*
X8396991Y-16236079D02*
X8406515Y-16274174D01*
X8406515Y-16274174D02*
X8406515Y-16321793D01*
X8406515Y-16321793D02*
X8396991Y-16359888D01*
X8396991Y-16359888D02*
X8387467Y-16378936D01*
X8387467Y-16378936D02*
X8377944Y-16388460D01*
X8377944Y-16388460D02*
X8358896Y-16397984D01*
X8358896Y-16397984D02*
X8339848Y-16397984D01*
X8339848Y-16397984D02*
X8320801Y-16388460D01*
X8320801Y-16388460D02*
X8311277Y-16378936D01*
X8311277Y-16378936D02*
X8301753Y-16359888D01*
X8301753Y-16359888D02*
X8292229Y-16321793D01*
X8292229Y-16321793D02*
X8292229Y-16274174D01*
X8292229Y-16274174D02*
X8301753Y-16236079D01*
X8301753Y-16236079D02*
X8311277Y-16217031D01*
X8311277Y-16217031D02*
X8320801Y-16207508D01*
X8320801Y-16207508D02*
X8339848Y-16197984D01*
X8596991Y-16397984D02*
X8482706Y-16397984D01*
X8539848Y-16397984D02*
X8539848Y-16197984D01*
X8539848Y-16197984D02*
X8520801Y-16226555D01*
X8520801Y-16226555D02*
X8501753Y-16245603D01*
X8501753Y-16245603D02*
X8482706Y-16255127D01*
X8787468Y-16397984D02*
X8673182Y-16397984D01*
X8730325Y-16397984D02*
X8730325Y-16197984D01*
X8730325Y-16197984D02*
X8711277Y-16226555D01*
X8711277Y-16226555D02*
X8692229Y-16245603D01*
X8692229Y-16245603D02*
X8673182Y-16255127D01*
X8901753Y-16283698D02*
X8882706Y-16274174D01*
X8882706Y-16274174D02*
X8873182Y-16264650D01*
X8873182Y-16264650D02*
X8863658Y-16245603D01*
X8863658Y-16245603D02*
X8863658Y-16236079D01*
X8863658Y-16236079D02*
X8873182Y-16217031D01*
X8873182Y-16217031D02*
X8882706Y-16207508D01*
X8882706Y-16207508D02*
X8901753Y-16197984D01*
X8901753Y-16197984D02*
X8939849Y-16197984D01*
X8939849Y-16197984D02*
X8958896Y-16207508D01*
X8958896Y-16207508D02*
X8968420Y-16217031D01*
X8968420Y-16217031D02*
X8977944Y-16236079D01*
X8977944Y-16236079D02*
X8977944Y-16245603D01*
X8977944Y-16245603D02*
X8968420Y-16264650D01*
X8968420Y-16264650D02*
X8958896Y-16274174D01*
X8958896Y-16274174D02*
X8939849Y-16283698D01*
X8939849Y-16283698D02*
X8901753Y-16283698D01*
X8901753Y-16283698D02*
X8882706Y-16293222D01*
X8882706Y-16293222D02*
X8873182Y-16302746D01*
X8873182Y-16302746D02*
X8863658Y-16321793D01*
X8863658Y-16321793D02*
X8863658Y-16359888D01*
X8863658Y-16359888D02*
X8873182Y-16378936D01*
X8873182Y-16378936D02*
X8882706Y-16388460D01*
X8882706Y-16388460D02*
X8901753Y-16397984D01*
X8901753Y-16397984D02*
X8939849Y-16397984D01*
X8939849Y-16397984D02*
X8958896Y-16388460D01*
X8958896Y-16388460D02*
X8968420Y-16378936D01*
X8968420Y-16378936D02*
X8977944Y-16359888D01*
X8977944Y-16359888D02*
X8977944Y-16321793D01*
X8977944Y-16321793D02*
X8968420Y-16302746D01*
X8968420Y-16302746D02*
X8958896Y-16293222D01*
X8958896Y-16293222D02*
X8939849Y-16283698D01*
X9054134Y-16197984D02*
X9054134Y-16236079D01*
X9130325Y-16197984D02*
X9130325Y-16236079D01*
X9425563Y-16474174D02*
X9416039Y-16464650D01*
X9416039Y-16464650D02*
X9396991Y-16436079D01*
X9396991Y-16436079D02*
X9387468Y-16417031D01*
X9387468Y-16417031D02*
X9377944Y-16388460D01*
X9377944Y-16388460D02*
X9368420Y-16340841D01*
X9368420Y-16340841D02*
X9368420Y-16302746D01*
X9368420Y-16302746D02*
X9377944Y-16255127D01*
X9377944Y-16255127D02*
X9387468Y-16226555D01*
X9387468Y-16226555D02*
X9396991Y-16207508D01*
X9396991Y-16207508D02*
X9416039Y-16178936D01*
X9416039Y-16178936D02*
X9425563Y-16169412D01*
X9511277Y-16397984D02*
X9549372Y-16397984D01*
X9549372Y-16397984D02*
X9568420Y-16388460D01*
X9568420Y-16388460D02*
X9577944Y-16378936D01*
X9577944Y-16378936D02*
X9596991Y-16350365D01*
X9596991Y-16350365D02*
X9606515Y-16312269D01*
X9606515Y-16312269D02*
X9606515Y-16236079D01*
X9606515Y-16236079D02*
X9596991Y-16217031D01*
X9596991Y-16217031D02*
X9587468Y-16207508D01*
X9587468Y-16207508D02*
X9568420Y-16197984D01*
X9568420Y-16197984D02*
X9530325Y-16197984D01*
X9530325Y-16197984D02*
X9511277Y-16207508D01*
X9511277Y-16207508D02*
X9501753Y-16217031D01*
X9501753Y-16217031D02*
X9492230Y-16236079D01*
X9492230Y-16236079D02*
X9492230Y-16283698D01*
X9492230Y-16283698D02*
X9501753Y-16302746D01*
X9501753Y-16302746D02*
X9511277Y-16312269D01*
X9511277Y-16312269D02*
X9530325Y-16321793D01*
X9530325Y-16321793D02*
X9568420Y-16321793D01*
X9568420Y-16321793D02*
X9587468Y-16312269D01*
X9587468Y-16312269D02*
X9596991Y-16302746D01*
X9596991Y-16302746D02*
X9606515Y-16283698D01*
X9701753Y-16397984D02*
X9739849Y-16397984D01*
X9739849Y-16397984D02*
X9758896Y-16388460D01*
X9758896Y-16388460D02*
X9768420Y-16378936D01*
X9768420Y-16378936D02*
X9787468Y-16350365D01*
X9787468Y-16350365D02*
X9796991Y-16312269D01*
X9796991Y-16312269D02*
X9796991Y-16236079D01*
X9796991Y-16236079D02*
X9787468Y-16217031D01*
X9787468Y-16217031D02*
X9777944Y-16207508D01*
X9777944Y-16207508D02*
X9758896Y-16197984D01*
X9758896Y-16197984D02*
X9720801Y-16197984D01*
X9720801Y-16197984D02*
X9701753Y-16207508D01*
X9701753Y-16207508D02*
X9692230Y-16217031D01*
X9692230Y-16217031D02*
X9682706Y-16236079D01*
X9682706Y-16236079D02*
X9682706Y-16283698D01*
X9682706Y-16283698D02*
X9692230Y-16302746D01*
X9692230Y-16302746D02*
X9701753Y-16312269D01*
X9701753Y-16312269D02*
X9720801Y-16321793D01*
X9720801Y-16321793D02*
X9758896Y-16321793D01*
X9758896Y-16321793D02*
X9777944Y-16312269D01*
X9777944Y-16312269D02*
X9787468Y-16302746D01*
X9787468Y-16302746D02*
X9796991Y-16283698D01*
X10035087Y-16397984D02*
X10035087Y-16197984D01*
X10120801Y-16397984D02*
X10120801Y-16293222D01*
X10120801Y-16293222D02*
X10111277Y-16274174D01*
X10111277Y-16274174D02*
X10092230Y-16264650D01*
X10092230Y-16264650D02*
X10063658Y-16264650D01*
X10063658Y-16264650D02*
X10044611Y-16274174D01*
X10044611Y-16274174D02*
X10035087Y-16283698D01*
X10244611Y-16397984D02*
X10225563Y-16388460D01*
X10225563Y-16388460D02*
X10216039Y-16378936D01*
X10216039Y-16378936D02*
X10206515Y-16359888D01*
X10206515Y-16359888D02*
X10206515Y-16302746D01*
X10206515Y-16302746D02*
X10216039Y-16283698D01*
X10216039Y-16283698D02*
X10225563Y-16274174D01*
X10225563Y-16274174D02*
X10244611Y-16264650D01*
X10244611Y-16264650D02*
X10273182Y-16264650D01*
X10273182Y-16264650D02*
X10292230Y-16274174D01*
X10292230Y-16274174D02*
X10301753Y-16283698D01*
X10301753Y-16283698D02*
X10311277Y-16302746D01*
X10311277Y-16302746D02*
X10311277Y-16359888D01*
X10311277Y-16359888D02*
X10301753Y-16378936D01*
X10301753Y-16378936D02*
X10292230Y-16388460D01*
X10292230Y-16388460D02*
X10273182Y-16397984D01*
X10273182Y-16397984D02*
X10244611Y-16397984D01*
X10425563Y-16397984D02*
X10406515Y-16388460D01*
X10406515Y-16388460D02*
X10396992Y-16369412D01*
X10396992Y-16369412D02*
X10396992Y-16197984D01*
X10577944Y-16388460D02*
X10558896Y-16397984D01*
X10558896Y-16397984D02*
X10520801Y-16397984D01*
X10520801Y-16397984D02*
X10501753Y-16388460D01*
X10501753Y-16388460D02*
X10492230Y-16369412D01*
X10492230Y-16369412D02*
X10492230Y-16293222D01*
X10492230Y-16293222D02*
X10501753Y-16274174D01*
X10501753Y-16274174D02*
X10520801Y-16264650D01*
X10520801Y-16264650D02*
X10558896Y-16264650D01*
X10558896Y-16264650D02*
X10577944Y-16274174D01*
X10577944Y-16274174D02*
X10587468Y-16293222D01*
X10587468Y-16293222D02*
X10587468Y-16312269D01*
X10587468Y-16312269D02*
X10492230Y-16331317D01*
X10663658Y-16388460D02*
X10682706Y-16397984D01*
X10682706Y-16397984D02*
X10720801Y-16397984D01*
X10720801Y-16397984D02*
X10739849Y-16388460D01*
X10739849Y-16388460D02*
X10749373Y-16369412D01*
X10749373Y-16369412D02*
X10749373Y-16359888D01*
X10749373Y-16359888D02*
X10739849Y-16340841D01*
X10739849Y-16340841D02*
X10720801Y-16331317D01*
X10720801Y-16331317D02*
X10692230Y-16331317D01*
X10692230Y-16331317D02*
X10673182Y-16321793D01*
X10673182Y-16321793D02*
X10663658Y-16302746D01*
X10663658Y-16302746D02*
X10663658Y-16293222D01*
X10663658Y-16293222D02*
X10673182Y-16274174D01*
X10673182Y-16274174D02*
X10692230Y-16264650D01*
X10692230Y-16264650D02*
X10720801Y-16264650D01*
X10720801Y-16264650D02*
X10739849Y-16274174D01*
X10816039Y-16474174D02*
X10825563Y-16464650D01*
X10825563Y-16464650D02*
X10844611Y-16436079D01*
X10844611Y-16436079D02*
X10854134Y-16417031D01*
X10854134Y-16417031D02*
X10863658Y-16388460D01*
X10863658Y-16388460D02*
X10873182Y-16340841D01*
X10873182Y-16340841D02*
X10873182Y-16302746D01*
X10873182Y-16302746D02*
X10863658Y-16255127D01*
X10863658Y-16255127D02*
X10854134Y-16226555D01*
X10854134Y-16226555D02*
X10844611Y-16207508D01*
X10844611Y-16207508D02*
X10825563Y-16178936D01*
X10825563Y-16178936D02*
X10816039Y-16169412D01*
D12*
X5850500Y-16570500D02*
G75*
G02*
X5790500Y-16570500I-30000J0D01*
G01*
X5790500Y-16570500D02*
G75*
G02*
X5850500Y-16570500I30000J0D01*
G01*
D11*
X6149372Y-16461984D02*
X6168420Y-16461984D01*
X6168420Y-16461984D02*
X6187467Y-16471508D01*
X6187467Y-16471508D02*
X6196991Y-16481031D01*
X6196991Y-16481031D02*
X6206515Y-16500079D01*
X6206515Y-16500079D02*
X6216039Y-16538174D01*
X6216039Y-16538174D02*
X6216039Y-16585793D01*
X6216039Y-16585793D02*
X6206515Y-16623888D01*
X6206515Y-16623888D02*
X6196991Y-16642936D01*
X6196991Y-16642936D02*
X6187467Y-16652460D01*
X6187467Y-16652460D02*
X6168420Y-16661984D01*
X6168420Y-16661984D02*
X6149372Y-16661984D01*
X6149372Y-16661984D02*
X6130324Y-16652460D01*
X6130324Y-16652460D02*
X6120801Y-16642936D01*
X6120801Y-16642936D02*
X6111277Y-16623888D01*
X6111277Y-16623888D02*
X6101753Y-16585793D01*
X6101753Y-16585793D02*
X6101753Y-16538174D01*
X6101753Y-16538174D02*
X6111277Y-16500079D01*
X6111277Y-16500079D02*
X6120801Y-16481031D01*
X6120801Y-16481031D02*
X6130324Y-16471508D01*
X6130324Y-16471508D02*
X6149372Y-16461984D01*
X6301753Y-16642936D02*
X6311277Y-16652460D01*
X6311277Y-16652460D02*
X6301753Y-16661984D01*
X6301753Y-16661984D02*
X6292229Y-16652460D01*
X6292229Y-16652460D02*
X6301753Y-16642936D01*
X6301753Y-16642936D02*
X6301753Y-16661984D01*
X6482705Y-16461984D02*
X6444610Y-16461984D01*
X6444610Y-16461984D02*
X6425562Y-16471508D01*
X6425562Y-16471508D02*
X6416039Y-16481031D01*
X6416039Y-16481031D02*
X6396991Y-16509603D01*
X6396991Y-16509603D02*
X6387467Y-16547698D01*
X6387467Y-16547698D02*
X6387467Y-16623888D01*
X6387467Y-16623888D02*
X6396991Y-16642936D01*
X6396991Y-16642936D02*
X6406515Y-16652460D01*
X6406515Y-16652460D02*
X6425562Y-16661984D01*
X6425562Y-16661984D02*
X6463658Y-16661984D01*
X6463658Y-16661984D02*
X6482705Y-16652460D01*
X6482705Y-16652460D02*
X6492229Y-16642936D01*
X6492229Y-16642936D02*
X6501753Y-16623888D01*
X6501753Y-16623888D02*
X6501753Y-16576269D01*
X6501753Y-16576269D02*
X6492229Y-16557222D01*
X6492229Y-16557222D02*
X6482705Y-16547698D01*
X6482705Y-16547698D02*
X6463658Y-16538174D01*
X6463658Y-16538174D02*
X6425562Y-16538174D01*
X6425562Y-16538174D02*
X6406515Y-16547698D01*
X6406515Y-16547698D02*
X6396991Y-16557222D01*
X6396991Y-16557222D02*
X6387467Y-16576269D01*
X6625562Y-16461984D02*
X6644610Y-16461984D01*
X6644610Y-16461984D02*
X6663658Y-16471508D01*
X6663658Y-16471508D02*
X6673182Y-16481031D01*
X6673182Y-16481031D02*
X6682705Y-16500079D01*
X6682705Y-16500079D02*
X6692229Y-16538174D01*
X6692229Y-16538174D02*
X6692229Y-16585793D01*
X6692229Y-16585793D02*
X6682705Y-16623888D01*
X6682705Y-16623888D02*
X6673182Y-16642936D01*
X6673182Y-16642936D02*
X6663658Y-16652460D01*
X6663658Y-16652460D02*
X6644610Y-16661984D01*
X6644610Y-16661984D02*
X6625562Y-16661984D01*
X6625562Y-16661984D02*
X6606515Y-16652460D01*
X6606515Y-16652460D02*
X6596991Y-16642936D01*
X6596991Y-16642936D02*
X6587467Y-16623888D01*
X6587467Y-16623888D02*
X6577943Y-16585793D01*
X6577943Y-16585793D02*
X6577943Y-16538174D01*
X6577943Y-16538174D02*
X6587467Y-16500079D01*
X6587467Y-16500079D02*
X6596991Y-16481031D01*
X6596991Y-16481031D02*
X6606515Y-16471508D01*
X6606515Y-16471508D02*
X6625562Y-16461984D01*
X6816039Y-16461984D02*
X6835086Y-16461984D01*
X6835086Y-16461984D02*
X6854134Y-16471508D01*
X6854134Y-16471508D02*
X6863658Y-16481031D01*
X6863658Y-16481031D02*
X6873182Y-16500079D01*
X6873182Y-16500079D02*
X6882705Y-16538174D01*
X6882705Y-16538174D02*
X6882705Y-16585793D01*
X6882705Y-16585793D02*
X6873182Y-16623888D01*
X6873182Y-16623888D02*
X6863658Y-16642936D01*
X6863658Y-16642936D02*
X6854134Y-16652460D01*
X6854134Y-16652460D02*
X6835086Y-16661984D01*
X6835086Y-16661984D02*
X6816039Y-16661984D01*
X6816039Y-16661984D02*
X6796991Y-16652460D01*
X6796991Y-16652460D02*
X6787467Y-16642936D01*
X6787467Y-16642936D02*
X6777943Y-16623888D01*
X6777943Y-16623888D02*
X6768420Y-16585793D01*
X6768420Y-16585793D02*
X6768420Y-16538174D01*
X6768420Y-16538174D02*
X6777943Y-16500079D01*
X6777943Y-16500079D02*
X6787467Y-16481031D01*
X6787467Y-16481031D02*
X6796991Y-16471508D01*
X6796991Y-16471508D02*
X6816039Y-16461984D01*
X6968420Y-16661984D02*
X6968420Y-16528650D01*
X6968420Y-16547698D02*
X6977943Y-16538174D01*
X6977943Y-16538174D02*
X6996991Y-16528650D01*
X6996991Y-16528650D02*
X7025563Y-16528650D01*
X7025563Y-16528650D02*
X7044610Y-16538174D01*
X7044610Y-16538174D02*
X7054134Y-16557222D01*
X7054134Y-16557222D02*
X7054134Y-16661984D01*
X7054134Y-16557222D02*
X7063658Y-16538174D01*
X7063658Y-16538174D02*
X7082705Y-16528650D01*
X7082705Y-16528650D02*
X7111277Y-16528650D01*
X7111277Y-16528650D02*
X7130324Y-16538174D01*
X7130324Y-16538174D02*
X7139848Y-16557222D01*
X7139848Y-16557222D02*
X7139848Y-16661984D01*
X7235086Y-16661984D02*
X7235086Y-16528650D01*
X7235086Y-16547698D02*
X7244610Y-16538174D01*
X7244610Y-16538174D02*
X7263658Y-16528650D01*
X7263658Y-16528650D02*
X7292229Y-16528650D01*
X7292229Y-16528650D02*
X7311277Y-16538174D01*
X7311277Y-16538174D02*
X7320801Y-16557222D01*
X7320801Y-16557222D02*
X7320801Y-16661984D01*
X7320801Y-16557222D02*
X7330324Y-16538174D01*
X7330324Y-16538174D02*
X7349372Y-16528650D01*
X7349372Y-16528650D02*
X7377943Y-16528650D01*
X7377943Y-16528650D02*
X7396991Y-16538174D01*
X7396991Y-16538174D02*
X7406515Y-16557222D01*
X7406515Y-16557222D02*
X7406515Y-16661984D01*
X7796991Y-16452460D02*
X7625563Y-16709603D01*
X8054134Y-16461984D02*
X8073182Y-16461984D01*
X8073182Y-16461984D02*
X8092229Y-16471508D01*
X8092229Y-16471508D02*
X8101753Y-16481031D01*
X8101753Y-16481031D02*
X8111277Y-16500079D01*
X8111277Y-16500079D02*
X8120801Y-16538174D01*
X8120801Y-16538174D02*
X8120801Y-16585793D01*
X8120801Y-16585793D02*
X8111277Y-16623888D01*
X8111277Y-16623888D02*
X8101753Y-16642936D01*
X8101753Y-16642936D02*
X8092229Y-16652460D01*
X8092229Y-16652460D02*
X8073182Y-16661984D01*
X8073182Y-16661984D02*
X8054134Y-16661984D01*
X8054134Y-16661984D02*
X8035086Y-16652460D01*
X8035086Y-16652460D02*
X8025563Y-16642936D01*
X8025563Y-16642936D02*
X8016039Y-16623888D01*
X8016039Y-16623888D02*
X8006515Y-16585793D01*
X8006515Y-16585793D02*
X8006515Y-16538174D01*
X8006515Y-16538174D02*
X8016039Y-16500079D01*
X8016039Y-16500079D02*
X8025563Y-16481031D01*
X8025563Y-16481031D02*
X8035086Y-16471508D01*
X8035086Y-16471508D02*
X8054134Y-16461984D01*
X8206515Y-16642936D02*
X8216039Y-16652460D01*
X8216039Y-16652460D02*
X8206515Y-16661984D01*
X8206515Y-16661984D02*
X8196991Y-16652460D01*
X8196991Y-16652460D02*
X8206515Y-16642936D01*
X8206515Y-16642936D02*
X8206515Y-16661984D01*
X8339848Y-16461984D02*
X8358896Y-16461984D01*
X8358896Y-16461984D02*
X8377944Y-16471508D01*
X8377944Y-16471508D02*
X8387467Y-16481031D01*
X8387467Y-16481031D02*
X8396991Y-16500079D01*
X8396991Y-16500079D02*
X8406515Y-16538174D01*
X8406515Y-16538174D02*
X8406515Y-16585793D01*
X8406515Y-16585793D02*
X8396991Y-16623888D01*
X8396991Y-16623888D02*
X8387467Y-16642936D01*
X8387467Y-16642936D02*
X8377944Y-16652460D01*
X8377944Y-16652460D02*
X8358896Y-16661984D01*
X8358896Y-16661984D02*
X8339848Y-16661984D01*
X8339848Y-16661984D02*
X8320801Y-16652460D01*
X8320801Y-16652460D02*
X8311277Y-16642936D01*
X8311277Y-16642936D02*
X8301753Y-16623888D01*
X8301753Y-16623888D02*
X8292229Y-16585793D01*
X8292229Y-16585793D02*
X8292229Y-16538174D01*
X8292229Y-16538174D02*
X8301753Y-16500079D01*
X8301753Y-16500079D02*
X8311277Y-16481031D01*
X8311277Y-16481031D02*
X8320801Y-16471508D01*
X8320801Y-16471508D02*
X8339848Y-16461984D01*
X8482706Y-16481031D02*
X8492229Y-16471508D01*
X8492229Y-16471508D02*
X8511277Y-16461984D01*
X8511277Y-16461984D02*
X8558896Y-16461984D01*
X8558896Y-16461984D02*
X8577944Y-16471508D01*
X8577944Y-16471508D02*
X8587468Y-16481031D01*
X8587468Y-16481031D02*
X8596991Y-16500079D01*
X8596991Y-16500079D02*
X8596991Y-16519127D01*
X8596991Y-16519127D02*
X8587468Y-16547698D01*
X8587468Y-16547698D02*
X8473182Y-16661984D01*
X8473182Y-16661984D02*
X8596991Y-16661984D01*
X8663658Y-16461984D02*
X8787468Y-16461984D01*
X8787468Y-16461984D02*
X8720801Y-16538174D01*
X8720801Y-16538174D02*
X8749372Y-16538174D01*
X8749372Y-16538174D02*
X8768420Y-16547698D01*
X8768420Y-16547698D02*
X8777944Y-16557222D01*
X8777944Y-16557222D02*
X8787468Y-16576269D01*
X8787468Y-16576269D02*
X8787468Y-16623888D01*
X8787468Y-16623888D02*
X8777944Y-16642936D01*
X8777944Y-16642936D02*
X8768420Y-16652460D01*
X8768420Y-16652460D02*
X8749372Y-16661984D01*
X8749372Y-16661984D02*
X8692229Y-16661984D01*
X8692229Y-16661984D02*
X8673182Y-16652460D01*
X8673182Y-16652460D02*
X8663658Y-16642936D01*
X8958896Y-16461984D02*
X8920801Y-16461984D01*
X8920801Y-16461984D02*
X8901753Y-16471508D01*
X8901753Y-16471508D02*
X8892229Y-16481031D01*
X8892229Y-16481031D02*
X8873182Y-16509603D01*
X8873182Y-16509603D02*
X8863658Y-16547698D01*
X8863658Y-16547698D02*
X8863658Y-16623888D01*
X8863658Y-16623888D02*
X8873182Y-16642936D01*
X8873182Y-16642936D02*
X8882706Y-16652460D01*
X8882706Y-16652460D02*
X8901753Y-16661984D01*
X8901753Y-16661984D02*
X8939849Y-16661984D01*
X8939849Y-16661984D02*
X8958896Y-16652460D01*
X8958896Y-16652460D02*
X8968420Y-16642936D01*
X8968420Y-16642936D02*
X8977944Y-16623888D01*
X8977944Y-16623888D02*
X8977944Y-16576269D01*
X8977944Y-16576269D02*
X8968420Y-16557222D01*
X8968420Y-16557222D02*
X8958896Y-16547698D01*
X8958896Y-16547698D02*
X8939849Y-16538174D01*
X8939849Y-16538174D02*
X8901753Y-16538174D01*
X8901753Y-16538174D02*
X8882706Y-16547698D01*
X8882706Y-16547698D02*
X8873182Y-16557222D01*
X8873182Y-16557222D02*
X8863658Y-16576269D01*
X9054134Y-16461984D02*
X9054134Y-16500079D01*
X9130325Y-16461984D02*
X9130325Y-16500079D01*
X9425563Y-16738174D02*
X9416039Y-16728650D01*
X9416039Y-16728650D02*
X9396991Y-16700079D01*
X9396991Y-16700079D02*
X9387468Y-16681031D01*
X9387468Y-16681031D02*
X9377944Y-16652460D01*
X9377944Y-16652460D02*
X9368420Y-16604841D01*
X9368420Y-16604841D02*
X9368420Y-16566746D01*
X9368420Y-16566746D02*
X9377944Y-16519127D01*
X9377944Y-16519127D02*
X9387468Y-16490555D01*
X9387468Y-16490555D02*
X9396991Y-16471508D01*
X9396991Y-16471508D02*
X9416039Y-16442936D01*
X9416039Y-16442936D02*
X9425563Y-16433412D01*
X9539849Y-16461984D02*
X9558896Y-16461984D01*
X9558896Y-16461984D02*
X9577944Y-16471508D01*
X9577944Y-16471508D02*
X9587468Y-16481031D01*
X9587468Y-16481031D02*
X9596991Y-16500079D01*
X9596991Y-16500079D02*
X9606515Y-16538174D01*
X9606515Y-16538174D02*
X9606515Y-16585793D01*
X9606515Y-16585793D02*
X9596991Y-16623888D01*
X9596991Y-16623888D02*
X9587468Y-16642936D01*
X9587468Y-16642936D02*
X9577944Y-16652460D01*
X9577944Y-16652460D02*
X9558896Y-16661984D01*
X9558896Y-16661984D02*
X9539849Y-16661984D01*
X9539849Y-16661984D02*
X9520801Y-16652460D01*
X9520801Y-16652460D02*
X9511277Y-16642936D01*
X9511277Y-16642936D02*
X9501753Y-16623888D01*
X9501753Y-16623888D02*
X9492230Y-16585793D01*
X9492230Y-16585793D02*
X9492230Y-16538174D01*
X9492230Y-16538174D02*
X9501753Y-16500079D01*
X9501753Y-16500079D02*
X9511277Y-16481031D01*
X9511277Y-16481031D02*
X9520801Y-16471508D01*
X9520801Y-16471508D02*
X9539849Y-16461984D01*
X9844611Y-16661984D02*
X9844611Y-16461984D01*
X9930325Y-16661984D02*
X9930325Y-16557222D01*
X9930325Y-16557222D02*
X9920801Y-16538174D01*
X9920801Y-16538174D02*
X9901753Y-16528650D01*
X9901753Y-16528650D02*
X9873182Y-16528650D01*
X9873182Y-16528650D02*
X9854134Y-16538174D01*
X9854134Y-16538174D02*
X9844611Y-16547698D01*
X10054134Y-16661984D02*
X10035087Y-16652460D01*
X10035087Y-16652460D02*
X10025563Y-16642936D01*
X10025563Y-16642936D02*
X10016039Y-16623888D01*
X10016039Y-16623888D02*
X10016039Y-16566746D01*
X10016039Y-16566746D02*
X10025563Y-16547698D01*
X10025563Y-16547698D02*
X10035087Y-16538174D01*
X10035087Y-16538174D02*
X10054134Y-16528650D01*
X10054134Y-16528650D02*
X10082706Y-16528650D01*
X10082706Y-16528650D02*
X10101753Y-16538174D01*
X10101753Y-16538174D02*
X10111277Y-16547698D01*
X10111277Y-16547698D02*
X10120801Y-16566746D01*
X10120801Y-16566746D02*
X10120801Y-16623888D01*
X10120801Y-16623888D02*
X10111277Y-16642936D01*
X10111277Y-16642936D02*
X10101753Y-16652460D01*
X10101753Y-16652460D02*
X10082706Y-16661984D01*
X10082706Y-16661984D02*
X10054134Y-16661984D01*
X10235087Y-16661984D02*
X10216039Y-16652460D01*
X10216039Y-16652460D02*
X10206515Y-16633412D01*
X10206515Y-16633412D02*
X10206515Y-16461984D01*
X10387468Y-16652460D02*
X10368420Y-16661984D01*
X10368420Y-16661984D02*
X10330325Y-16661984D01*
X10330325Y-16661984D02*
X10311277Y-16652460D01*
X10311277Y-16652460D02*
X10301753Y-16633412D01*
X10301753Y-16633412D02*
X10301753Y-16557222D01*
X10301753Y-16557222D02*
X10311277Y-16538174D01*
X10311277Y-16538174D02*
X10330325Y-16528650D01*
X10330325Y-16528650D02*
X10368420Y-16528650D01*
X10368420Y-16528650D02*
X10387468Y-16538174D01*
X10387468Y-16538174D02*
X10396992Y-16557222D01*
X10396992Y-16557222D02*
X10396992Y-16576269D01*
X10396992Y-16576269D02*
X10301753Y-16595317D01*
X10473182Y-16652460D02*
X10492230Y-16661984D01*
X10492230Y-16661984D02*
X10530325Y-16661984D01*
X10530325Y-16661984D02*
X10549373Y-16652460D01*
X10549373Y-16652460D02*
X10558896Y-16633412D01*
X10558896Y-16633412D02*
X10558896Y-16623888D01*
X10558896Y-16623888D02*
X10549373Y-16604841D01*
X10549373Y-16604841D02*
X10530325Y-16595317D01*
X10530325Y-16595317D02*
X10501753Y-16595317D01*
X10501753Y-16595317D02*
X10482706Y-16585793D01*
X10482706Y-16585793D02*
X10473182Y-16566746D01*
X10473182Y-16566746D02*
X10473182Y-16557222D01*
X10473182Y-16557222D02*
X10482706Y-16538174D01*
X10482706Y-16538174D02*
X10501753Y-16528650D01*
X10501753Y-16528650D02*
X10530325Y-16528650D01*
X10530325Y-16528650D02*
X10549373Y-16538174D01*
X10796992Y-16585793D02*
X10949373Y-16585793D01*
X10873182Y-16661984D02*
X10873182Y-16509603D01*
X11301753Y-16661984D02*
X11187468Y-16661984D01*
X11244611Y-16661984D02*
X11244611Y-16461984D01*
X11244611Y-16461984D02*
X11225563Y-16490555D01*
X11225563Y-16490555D02*
X11206515Y-16509603D01*
X11206515Y-16509603D02*
X11187468Y-16519127D01*
X11377944Y-16481031D02*
X11387468Y-16471508D01*
X11387468Y-16471508D02*
X11406515Y-16461984D01*
X11406515Y-16461984D02*
X11454134Y-16461984D01*
X11454134Y-16461984D02*
X11473182Y-16471508D01*
X11473182Y-16471508D02*
X11482706Y-16481031D01*
X11482706Y-16481031D02*
X11492230Y-16500079D01*
X11492230Y-16500079D02*
X11492230Y-16519127D01*
X11492230Y-16519127D02*
X11482706Y-16547698D01*
X11482706Y-16547698D02*
X11368420Y-16661984D01*
X11368420Y-16661984D02*
X11492230Y-16661984D01*
X11720801Y-16652460D02*
X11739849Y-16661984D01*
X11739849Y-16661984D02*
X11777944Y-16661984D01*
X11777944Y-16661984D02*
X11796992Y-16652460D01*
X11796992Y-16652460D02*
X11806515Y-16633412D01*
X11806515Y-16633412D02*
X11806515Y-16623888D01*
X11806515Y-16623888D02*
X11796992Y-16604841D01*
X11796992Y-16604841D02*
X11777944Y-16595317D01*
X11777944Y-16595317D02*
X11749373Y-16595317D01*
X11749373Y-16595317D02*
X11730325Y-16585793D01*
X11730325Y-16585793D02*
X11720801Y-16566746D01*
X11720801Y-16566746D02*
X11720801Y-16557222D01*
X11720801Y-16557222D02*
X11730325Y-16538174D01*
X11730325Y-16538174D02*
X11749373Y-16528650D01*
X11749373Y-16528650D02*
X11777944Y-16528650D01*
X11777944Y-16528650D02*
X11796992Y-16538174D01*
X11920801Y-16661984D02*
X11901754Y-16652460D01*
X11901754Y-16652460D02*
X11892230Y-16633412D01*
X11892230Y-16633412D02*
X11892230Y-16461984D01*
X12025563Y-16661984D02*
X12006515Y-16652460D01*
X12006515Y-16652460D02*
X11996992Y-16642936D01*
X11996992Y-16642936D02*
X11987468Y-16623888D01*
X11987468Y-16623888D02*
X11987468Y-16566746D01*
X11987468Y-16566746D02*
X11996992Y-16547698D01*
X11996992Y-16547698D02*
X12006515Y-16538174D01*
X12006515Y-16538174D02*
X12025563Y-16528650D01*
X12025563Y-16528650D02*
X12054135Y-16528650D01*
X12054135Y-16528650D02*
X12073182Y-16538174D01*
X12073182Y-16538174D02*
X12082706Y-16547698D01*
X12082706Y-16547698D02*
X12092230Y-16566746D01*
X12092230Y-16566746D02*
X12092230Y-16623888D01*
X12092230Y-16623888D02*
X12082706Y-16642936D01*
X12082706Y-16642936D02*
X12073182Y-16652460D01*
X12073182Y-16652460D02*
X12054135Y-16661984D01*
X12054135Y-16661984D02*
X12025563Y-16661984D01*
X12149373Y-16528650D02*
X12225563Y-16528650D01*
X12177944Y-16461984D02*
X12177944Y-16633412D01*
X12177944Y-16633412D02*
X12187468Y-16652460D01*
X12187468Y-16652460D02*
X12206515Y-16661984D01*
X12206515Y-16661984D02*
X12225563Y-16661984D01*
X12282706Y-16652460D02*
X12301754Y-16661984D01*
X12301754Y-16661984D02*
X12339849Y-16661984D01*
X12339849Y-16661984D02*
X12358896Y-16652460D01*
X12358896Y-16652460D02*
X12368420Y-16633412D01*
X12368420Y-16633412D02*
X12368420Y-16623888D01*
X12368420Y-16623888D02*
X12358896Y-16604841D01*
X12358896Y-16604841D02*
X12339849Y-16595317D01*
X12339849Y-16595317D02*
X12311277Y-16595317D01*
X12311277Y-16595317D02*
X12292230Y-16585793D01*
X12292230Y-16585793D02*
X12282706Y-16566746D01*
X12282706Y-16566746D02*
X12282706Y-16557222D01*
X12282706Y-16557222D02*
X12292230Y-16538174D01*
X12292230Y-16538174D02*
X12311277Y-16528650D01*
X12311277Y-16528650D02*
X12339849Y-16528650D01*
X12339849Y-16528650D02*
X12358896Y-16538174D01*
X12435087Y-16738174D02*
X12444611Y-16728650D01*
X12444611Y-16728650D02*
X12463658Y-16700079D01*
X12463658Y-16700079D02*
X12473182Y-16681031D01*
X12473182Y-16681031D02*
X12482706Y-16652460D01*
X12482706Y-16652460D02*
X12492230Y-16604841D01*
X12492230Y-16604841D02*
X12492230Y-16566746D01*
X12492230Y-16566746D02*
X12482706Y-16519127D01*
X12482706Y-16519127D02*
X12473182Y-16490555D01*
X12473182Y-16490555D02*
X12463658Y-16471508D01*
X12463658Y-16471508D02*
X12444611Y-16442936D01*
X12444611Y-16442936D02*
X12435087Y-16433412D01*
D12*
X5810500Y-16794500D02*
X5810500Y-16874500D01*
X5770500Y-16834500D02*
X5850500Y-16834500D01*
D11*
X6149372Y-16725984D02*
X6168420Y-16725984D01*
X6168420Y-16725984D02*
X6187467Y-16735508D01*
X6187467Y-16735508D02*
X6196991Y-16745031D01*
X6196991Y-16745031D02*
X6206515Y-16764079D01*
X6206515Y-16764079D02*
X6216039Y-16802174D01*
X6216039Y-16802174D02*
X6216039Y-16849793D01*
X6216039Y-16849793D02*
X6206515Y-16887889D01*
X6206515Y-16887889D02*
X6196991Y-16906936D01*
X6196991Y-16906936D02*
X6187467Y-16916460D01*
X6187467Y-16916460D02*
X6168420Y-16925984D01*
X6168420Y-16925984D02*
X6149372Y-16925984D01*
X6149372Y-16925984D02*
X6130324Y-16916460D01*
X6130324Y-16916460D02*
X6120801Y-16906936D01*
X6120801Y-16906936D02*
X6111277Y-16887889D01*
X6111277Y-16887889D02*
X6101753Y-16849793D01*
X6101753Y-16849793D02*
X6101753Y-16802174D01*
X6101753Y-16802174D02*
X6111277Y-16764079D01*
X6111277Y-16764079D02*
X6120801Y-16745031D01*
X6120801Y-16745031D02*
X6130324Y-16735508D01*
X6130324Y-16735508D02*
X6149372Y-16725984D01*
X6301753Y-16906936D02*
X6311277Y-16916460D01*
X6311277Y-16916460D02*
X6301753Y-16925984D01*
X6301753Y-16925984D02*
X6292229Y-16916460D01*
X6292229Y-16916460D02*
X6301753Y-16906936D01*
X6301753Y-16906936D02*
X6301753Y-16925984D01*
X6425562Y-16811698D02*
X6406515Y-16802174D01*
X6406515Y-16802174D02*
X6396991Y-16792650D01*
X6396991Y-16792650D02*
X6387467Y-16773603D01*
X6387467Y-16773603D02*
X6387467Y-16764079D01*
X6387467Y-16764079D02*
X6396991Y-16745031D01*
X6396991Y-16745031D02*
X6406515Y-16735508D01*
X6406515Y-16735508D02*
X6425562Y-16725984D01*
X6425562Y-16725984D02*
X6463658Y-16725984D01*
X6463658Y-16725984D02*
X6482705Y-16735508D01*
X6482705Y-16735508D02*
X6492229Y-16745031D01*
X6492229Y-16745031D02*
X6501753Y-16764079D01*
X6501753Y-16764079D02*
X6501753Y-16773603D01*
X6501753Y-16773603D02*
X6492229Y-16792650D01*
X6492229Y-16792650D02*
X6482705Y-16802174D01*
X6482705Y-16802174D02*
X6463658Y-16811698D01*
X6463658Y-16811698D02*
X6425562Y-16811698D01*
X6425562Y-16811698D02*
X6406515Y-16821222D01*
X6406515Y-16821222D02*
X6396991Y-16830746D01*
X6396991Y-16830746D02*
X6387467Y-16849793D01*
X6387467Y-16849793D02*
X6387467Y-16887889D01*
X6387467Y-16887889D02*
X6396991Y-16906936D01*
X6396991Y-16906936D02*
X6406515Y-16916460D01*
X6406515Y-16916460D02*
X6425562Y-16925984D01*
X6425562Y-16925984D02*
X6463658Y-16925984D01*
X6463658Y-16925984D02*
X6482705Y-16916460D01*
X6482705Y-16916460D02*
X6492229Y-16906936D01*
X6492229Y-16906936D02*
X6501753Y-16887889D01*
X6501753Y-16887889D02*
X6501753Y-16849793D01*
X6501753Y-16849793D02*
X6492229Y-16830746D01*
X6492229Y-16830746D02*
X6482705Y-16821222D01*
X6482705Y-16821222D02*
X6463658Y-16811698D01*
X6625562Y-16725984D02*
X6644610Y-16725984D01*
X6644610Y-16725984D02*
X6663658Y-16735508D01*
X6663658Y-16735508D02*
X6673182Y-16745031D01*
X6673182Y-16745031D02*
X6682705Y-16764079D01*
X6682705Y-16764079D02*
X6692229Y-16802174D01*
X6692229Y-16802174D02*
X6692229Y-16849793D01*
X6692229Y-16849793D02*
X6682705Y-16887889D01*
X6682705Y-16887889D02*
X6673182Y-16906936D01*
X6673182Y-16906936D02*
X6663658Y-16916460D01*
X6663658Y-16916460D02*
X6644610Y-16925984D01*
X6644610Y-16925984D02*
X6625562Y-16925984D01*
X6625562Y-16925984D02*
X6606515Y-16916460D01*
X6606515Y-16916460D02*
X6596991Y-16906936D01*
X6596991Y-16906936D02*
X6587467Y-16887889D01*
X6587467Y-16887889D02*
X6577943Y-16849793D01*
X6577943Y-16849793D02*
X6577943Y-16802174D01*
X6577943Y-16802174D02*
X6587467Y-16764079D01*
X6587467Y-16764079D02*
X6596991Y-16745031D01*
X6596991Y-16745031D02*
X6606515Y-16735508D01*
X6606515Y-16735508D02*
X6625562Y-16725984D01*
X6816039Y-16725984D02*
X6835086Y-16725984D01*
X6835086Y-16725984D02*
X6854134Y-16735508D01*
X6854134Y-16735508D02*
X6863658Y-16745031D01*
X6863658Y-16745031D02*
X6873182Y-16764079D01*
X6873182Y-16764079D02*
X6882705Y-16802174D01*
X6882705Y-16802174D02*
X6882705Y-16849793D01*
X6882705Y-16849793D02*
X6873182Y-16887889D01*
X6873182Y-16887889D02*
X6863658Y-16906936D01*
X6863658Y-16906936D02*
X6854134Y-16916460D01*
X6854134Y-16916460D02*
X6835086Y-16925984D01*
X6835086Y-16925984D02*
X6816039Y-16925984D01*
X6816039Y-16925984D02*
X6796991Y-16916460D01*
X6796991Y-16916460D02*
X6787467Y-16906936D01*
X6787467Y-16906936D02*
X6777943Y-16887889D01*
X6777943Y-16887889D02*
X6768420Y-16849793D01*
X6768420Y-16849793D02*
X6768420Y-16802174D01*
X6768420Y-16802174D02*
X6777943Y-16764079D01*
X6777943Y-16764079D02*
X6787467Y-16745031D01*
X6787467Y-16745031D02*
X6796991Y-16735508D01*
X6796991Y-16735508D02*
X6816039Y-16725984D01*
X6968420Y-16925984D02*
X6968420Y-16792650D01*
X6968420Y-16811698D02*
X6977943Y-16802174D01*
X6977943Y-16802174D02*
X6996991Y-16792650D01*
X6996991Y-16792650D02*
X7025563Y-16792650D01*
X7025563Y-16792650D02*
X7044610Y-16802174D01*
X7044610Y-16802174D02*
X7054134Y-16821222D01*
X7054134Y-16821222D02*
X7054134Y-16925984D01*
X7054134Y-16821222D02*
X7063658Y-16802174D01*
X7063658Y-16802174D02*
X7082705Y-16792650D01*
X7082705Y-16792650D02*
X7111277Y-16792650D01*
X7111277Y-16792650D02*
X7130324Y-16802174D01*
X7130324Y-16802174D02*
X7139848Y-16821222D01*
X7139848Y-16821222D02*
X7139848Y-16925984D01*
X7235086Y-16925984D02*
X7235086Y-16792650D01*
X7235086Y-16811698D02*
X7244610Y-16802174D01*
X7244610Y-16802174D02*
X7263658Y-16792650D01*
X7263658Y-16792650D02*
X7292229Y-16792650D01*
X7292229Y-16792650D02*
X7311277Y-16802174D01*
X7311277Y-16802174D02*
X7320801Y-16821222D01*
X7320801Y-16821222D02*
X7320801Y-16925984D01*
X7320801Y-16821222D02*
X7330324Y-16802174D01*
X7330324Y-16802174D02*
X7349372Y-16792650D01*
X7349372Y-16792650D02*
X7377943Y-16792650D01*
X7377943Y-16792650D02*
X7396991Y-16802174D01*
X7396991Y-16802174D02*
X7406515Y-16821222D01*
X7406515Y-16821222D02*
X7406515Y-16925984D01*
X7796991Y-16716460D02*
X7625563Y-16973603D01*
X8054134Y-16725984D02*
X8073182Y-16725984D01*
X8073182Y-16725984D02*
X8092229Y-16735508D01*
X8092229Y-16735508D02*
X8101753Y-16745031D01*
X8101753Y-16745031D02*
X8111277Y-16764079D01*
X8111277Y-16764079D02*
X8120801Y-16802174D01*
X8120801Y-16802174D02*
X8120801Y-16849793D01*
X8120801Y-16849793D02*
X8111277Y-16887889D01*
X8111277Y-16887889D02*
X8101753Y-16906936D01*
X8101753Y-16906936D02*
X8092229Y-16916460D01*
X8092229Y-16916460D02*
X8073182Y-16925984D01*
X8073182Y-16925984D02*
X8054134Y-16925984D01*
X8054134Y-16925984D02*
X8035086Y-16916460D01*
X8035086Y-16916460D02*
X8025563Y-16906936D01*
X8025563Y-16906936D02*
X8016039Y-16887889D01*
X8016039Y-16887889D02*
X8006515Y-16849793D01*
X8006515Y-16849793D02*
X8006515Y-16802174D01*
X8006515Y-16802174D02*
X8016039Y-16764079D01*
X8016039Y-16764079D02*
X8025563Y-16745031D01*
X8025563Y-16745031D02*
X8035086Y-16735508D01*
X8035086Y-16735508D02*
X8054134Y-16725984D01*
X8206515Y-16906936D02*
X8216039Y-16916460D01*
X8216039Y-16916460D02*
X8206515Y-16925984D01*
X8206515Y-16925984D02*
X8196991Y-16916460D01*
X8196991Y-16916460D02*
X8206515Y-16906936D01*
X8206515Y-16906936D02*
X8206515Y-16925984D01*
X8339848Y-16725984D02*
X8358896Y-16725984D01*
X8358896Y-16725984D02*
X8377944Y-16735508D01*
X8377944Y-16735508D02*
X8387467Y-16745031D01*
X8387467Y-16745031D02*
X8396991Y-16764079D01*
X8396991Y-16764079D02*
X8406515Y-16802174D01*
X8406515Y-16802174D02*
X8406515Y-16849793D01*
X8406515Y-16849793D02*
X8396991Y-16887889D01*
X8396991Y-16887889D02*
X8387467Y-16906936D01*
X8387467Y-16906936D02*
X8377944Y-16916460D01*
X8377944Y-16916460D02*
X8358896Y-16925984D01*
X8358896Y-16925984D02*
X8339848Y-16925984D01*
X8339848Y-16925984D02*
X8320801Y-16916460D01*
X8320801Y-16916460D02*
X8311277Y-16906936D01*
X8311277Y-16906936D02*
X8301753Y-16887889D01*
X8301753Y-16887889D02*
X8292229Y-16849793D01*
X8292229Y-16849793D02*
X8292229Y-16802174D01*
X8292229Y-16802174D02*
X8301753Y-16764079D01*
X8301753Y-16764079D02*
X8311277Y-16745031D01*
X8311277Y-16745031D02*
X8320801Y-16735508D01*
X8320801Y-16735508D02*
X8339848Y-16725984D01*
X8473182Y-16725984D02*
X8596991Y-16725984D01*
X8596991Y-16725984D02*
X8530325Y-16802174D01*
X8530325Y-16802174D02*
X8558896Y-16802174D01*
X8558896Y-16802174D02*
X8577944Y-16811698D01*
X8577944Y-16811698D02*
X8587468Y-16821222D01*
X8587468Y-16821222D02*
X8596991Y-16840270D01*
X8596991Y-16840270D02*
X8596991Y-16887889D01*
X8596991Y-16887889D02*
X8587468Y-16906936D01*
X8587468Y-16906936D02*
X8577944Y-16916460D01*
X8577944Y-16916460D02*
X8558896Y-16925984D01*
X8558896Y-16925984D02*
X8501753Y-16925984D01*
X8501753Y-16925984D02*
X8482706Y-16916460D01*
X8482706Y-16916460D02*
X8473182Y-16906936D01*
X8787468Y-16925984D02*
X8673182Y-16925984D01*
X8730325Y-16925984D02*
X8730325Y-16725984D01*
X8730325Y-16725984D02*
X8711277Y-16754555D01*
X8711277Y-16754555D02*
X8692229Y-16773603D01*
X8692229Y-16773603D02*
X8673182Y-16783127D01*
X8968420Y-16725984D02*
X8873182Y-16725984D01*
X8873182Y-16725984D02*
X8863658Y-16821222D01*
X8863658Y-16821222D02*
X8873182Y-16811698D01*
X8873182Y-16811698D02*
X8892229Y-16802174D01*
X8892229Y-16802174D02*
X8939849Y-16802174D01*
X8939849Y-16802174D02*
X8958896Y-16811698D01*
X8958896Y-16811698D02*
X8968420Y-16821222D01*
X8968420Y-16821222D02*
X8977944Y-16840270D01*
X8977944Y-16840270D02*
X8977944Y-16887889D01*
X8977944Y-16887889D02*
X8968420Y-16906936D01*
X8968420Y-16906936D02*
X8958896Y-16916460D01*
X8958896Y-16916460D02*
X8939849Y-16925984D01*
X8939849Y-16925984D02*
X8892229Y-16925984D01*
X8892229Y-16925984D02*
X8873182Y-16916460D01*
X8873182Y-16916460D02*
X8863658Y-16906936D01*
X9054134Y-16725984D02*
X9054134Y-16764079D01*
X9130325Y-16725984D02*
X9130325Y-16764079D01*
X9425563Y-17002174D02*
X9416039Y-16992650D01*
X9416039Y-16992650D02*
X9396991Y-16964079D01*
X9396991Y-16964079D02*
X9387468Y-16945031D01*
X9387468Y-16945031D02*
X9377944Y-16916460D01*
X9377944Y-16916460D02*
X9368420Y-16868841D01*
X9368420Y-16868841D02*
X9368420Y-16830746D01*
X9368420Y-16830746D02*
X9377944Y-16783127D01*
X9377944Y-16783127D02*
X9387468Y-16754555D01*
X9387468Y-16754555D02*
X9396991Y-16735508D01*
X9396991Y-16735508D02*
X9416039Y-16706936D01*
X9416039Y-16706936D02*
X9425563Y-16697412D01*
X9587468Y-16725984D02*
X9549372Y-16725984D01*
X9549372Y-16725984D02*
X9530325Y-16735508D01*
X9530325Y-16735508D02*
X9520801Y-16745031D01*
X9520801Y-16745031D02*
X9501753Y-16773603D01*
X9501753Y-16773603D02*
X9492230Y-16811698D01*
X9492230Y-16811698D02*
X9492230Y-16887889D01*
X9492230Y-16887889D02*
X9501753Y-16906936D01*
X9501753Y-16906936D02*
X9511277Y-16916460D01*
X9511277Y-16916460D02*
X9530325Y-16925984D01*
X9530325Y-16925984D02*
X9568420Y-16925984D01*
X9568420Y-16925984D02*
X9587468Y-16916460D01*
X9587468Y-16916460D02*
X9596991Y-16906936D01*
X9596991Y-16906936D02*
X9606515Y-16887889D01*
X9606515Y-16887889D02*
X9606515Y-16840270D01*
X9606515Y-16840270D02*
X9596991Y-16821222D01*
X9596991Y-16821222D02*
X9587468Y-16811698D01*
X9587468Y-16811698D02*
X9568420Y-16802174D01*
X9568420Y-16802174D02*
X9530325Y-16802174D01*
X9530325Y-16802174D02*
X9511277Y-16811698D01*
X9511277Y-16811698D02*
X9501753Y-16821222D01*
X9501753Y-16821222D02*
X9492230Y-16840270D01*
X9844611Y-16925984D02*
X9844611Y-16725984D01*
X9930325Y-16925984D02*
X9930325Y-16821222D01*
X9930325Y-16821222D02*
X9920801Y-16802174D01*
X9920801Y-16802174D02*
X9901753Y-16792650D01*
X9901753Y-16792650D02*
X9873182Y-16792650D01*
X9873182Y-16792650D02*
X9854134Y-16802174D01*
X9854134Y-16802174D02*
X9844611Y-16811698D01*
X10054134Y-16925984D02*
X10035087Y-16916460D01*
X10035087Y-16916460D02*
X10025563Y-16906936D01*
X10025563Y-16906936D02*
X10016039Y-16887889D01*
X10016039Y-16887889D02*
X10016039Y-16830746D01*
X10016039Y-16830746D02*
X10025563Y-16811698D01*
X10025563Y-16811698D02*
X10035087Y-16802174D01*
X10035087Y-16802174D02*
X10054134Y-16792650D01*
X10054134Y-16792650D02*
X10082706Y-16792650D01*
X10082706Y-16792650D02*
X10101753Y-16802174D01*
X10101753Y-16802174D02*
X10111277Y-16811698D01*
X10111277Y-16811698D02*
X10120801Y-16830746D01*
X10120801Y-16830746D02*
X10120801Y-16887889D01*
X10120801Y-16887889D02*
X10111277Y-16906936D01*
X10111277Y-16906936D02*
X10101753Y-16916460D01*
X10101753Y-16916460D02*
X10082706Y-16925984D01*
X10082706Y-16925984D02*
X10054134Y-16925984D01*
X10235087Y-16925984D02*
X10216039Y-16916460D01*
X10216039Y-16916460D02*
X10206515Y-16897412D01*
X10206515Y-16897412D02*
X10206515Y-16725984D01*
X10387468Y-16916460D02*
X10368420Y-16925984D01*
X10368420Y-16925984D02*
X10330325Y-16925984D01*
X10330325Y-16925984D02*
X10311277Y-16916460D01*
X10311277Y-16916460D02*
X10301753Y-16897412D01*
X10301753Y-16897412D02*
X10301753Y-16821222D01*
X10301753Y-16821222D02*
X10311277Y-16802174D01*
X10311277Y-16802174D02*
X10330325Y-16792650D01*
X10330325Y-16792650D02*
X10368420Y-16792650D01*
X10368420Y-16792650D02*
X10387468Y-16802174D01*
X10387468Y-16802174D02*
X10396992Y-16821222D01*
X10396992Y-16821222D02*
X10396992Y-16840270D01*
X10396992Y-16840270D02*
X10301753Y-16859317D01*
X10473182Y-16916460D02*
X10492230Y-16925984D01*
X10492230Y-16925984D02*
X10530325Y-16925984D01*
X10530325Y-16925984D02*
X10549373Y-16916460D01*
X10549373Y-16916460D02*
X10558896Y-16897412D01*
X10558896Y-16897412D02*
X10558896Y-16887889D01*
X10558896Y-16887889D02*
X10549373Y-16868841D01*
X10549373Y-16868841D02*
X10530325Y-16859317D01*
X10530325Y-16859317D02*
X10501753Y-16859317D01*
X10501753Y-16859317D02*
X10482706Y-16849793D01*
X10482706Y-16849793D02*
X10473182Y-16830746D01*
X10473182Y-16830746D02*
X10473182Y-16821222D01*
X10473182Y-16821222D02*
X10482706Y-16802174D01*
X10482706Y-16802174D02*
X10501753Y-16792650D01*
X10501753Y-16792650D02*
X10530325Y-16792650D01*
X10530325Y-16792650D02*
X10549373Y-16802174D01*
X10625563Y-17002174D02*
X10635087Y-16992650D01*
X10635087Y-16992650D02*
X10654134Y-16964079D01*
X10654134Y-16964079D02*
X10663658Y-16945031D01*
X10663658Y-16945031D02*
X10673182Y-16916460D01*
X10673182Y-16916460D02*
X10682706Y-16868841D01*
X10682706Y-16868841D02*
X10682706Y-16830746D01*
X10682706Y-16830746D02*
X10673182Y-16783127D01*
X10673182Y-16783127D02*
X10663658Y-16754555D01*
X10663658Y-16754555D02*
X10654134Y-16735508D01*
X10654134Y-16735508D02*
X10635087Y-16706936D01*
X10635087Y-16706936D02*
X10625563Y-16697412D01*
D12*
X5836588Y-17132088D02*
X5836588Y-17064912D01*
X5769412Y-17064912D01*
X5769412Y-17132088D01*
X5836588Y-17132088D01*
D11*
X6149372Y-16989984D02*
X6168420Y-16989984D01*
X6168420Y-16989984D02*
X6187467Y-16999508D01*
X6187467Y-16999508D02*
X6196991Y-17009031D01*
X6196991Y-17009031D02*
X6206515Y-17028079D01*
X6206515Y-17028079D02*
X6216039Y-17066174D01*
X6216039Y-17066174D02*
X6216039Y-17113793D01*
X6216039Y-17113793D02*
X6206515Y-17151889D01*
X6206515Y-17151889D02*
X6196991Y-17170936D01*
X6196991Y-17170936D02*
X6187467Y-17180460D01*
X6187467Y-17180460D02*
X6168420Y-17189984D01*
X6168420Y-17189984D02*
X6149372Y-17189984D01*
X6149372Y-17189984D02*
X6130324Y-17180460D01*
X6130324Y-17180460D02*
X6120801Y-17170936D01*
X6120801Y-17170936D02*
X6111277Y-17151889D01*
X6111277Y-17151889D02*
X6101753Y-17113793D01*
X6101753Y-17113793D02*
X6101753Y-17066174D01*
X6101753Y-17066174D02*
X6111277Y-17028079D01*
X6111277Y-17028079D02*
X6120801Y-17009031D01*
X6120801Y-17009031D02*
X6130324Y-16999508D01*
X6130324Y-16999508D02*
X6149372Y-16989984D01*
X6301753Y-17170936D02*
X6311277Y-17180460D01*
X6311277Y-17180460D02*
X6301753Y-17189984D01*
X6301753Y-17189984D02*
X6292229Y-17180460D01*
X6292229Y-17180460D02*
X6301753Y-17170936D01*
X6301753Y-17170936D02*
X6301753Y-17189984D01*
X6406515Y-17189984D02*
X6444610Y-17189984D01*
X6444610Y-17189984D02*
X6463658Y-17180460D01*
X6463658Y-17180460D02*
X6473182Y-17170936D01*
X6473182Y-17170936D02*
X6492229Y-17142365D01*
X6492229Y-17142365D02*
X6501753Y-17104270D01*
X6501753Y-17104270D02*
X6501753Y-17028079D01*
X6501753Y-17028079D02*
X6492229Y-17009031D01*
X6492229Y-17009031D02*
X6482705Y-16999508D01*
X6482705Y-16999508D02*
X6463658Y-16989984D01*
X6463658Y-16989984D02*
X6425562Y-16989984D01*
X6425562Y-16989984D02*
X6406515Y-16999508D01*
X6406515Y-16999508D02*
X6396991Y-17009031D01*
X6396991Y-17009031D02*
X6387467Y-17028079D01*
X6387467Y-17028079D02*
X6387467Y-17075698D01*
X6387467Y-17075698D02*
X6396991Y-17094746D01*
X6396991Y-17094746D02*
X6406515Y-17104270D01*
X6406515Y-17104270D02*
X6425562Y-17113793D01*
X6425562Y-17113793D02*
X6463658Y-17113793D01*
X6463658Y-17113793D02*
X6482705Y-17104270D01*
X6482705Y-17104270D02*
X6492229Y-17094746D01*
X6492229Y-17094746D02*
X6501753Y-17075698D01*
X6682705Y-16989984D02*
X6587467Y-16989984D01*
X6587467Y-16989984D02*
X6577943Y-17085222D01*
X6577943Y-17085222D02*
X6587467Y-17075698D01*
X6587467Y-17075698D02*
X6606515Y-17066174D01*
X6606515Y-17066174D02*
X6654134Y-17066174D01*
X6654134Y-17066174D02*
X6673182Y-17075698D01*
X6673182Y-17075698D02*
X6682705Y-17085222D01*
X6682705Y-17085222D02*
X6692229Y-17104270D01*
X6692229Y-17104270D02*
X6692229Y-17151889D01*
X6692229Y-17151889D02*
X6682705Y-17170936D01*
X6682705Y-17170936D02*
X6673182Y-17180460D01*
X6673182Y-17180460D02*
X6654134Y-17189984D01*
X6654134Y-17189984D02*
X6606515Y-17189984D01*
X6606515Y-17189984D02*
X6587467Y-17180460D01*
X6587467Y-17180460D02*
X6577943Y-17170936D01*
X6816039Y-16989984D02*
X6835086Y-16989984D01*
X6835086Y-16989984D02*
X6854134Y-16999508D01*
X6854134Y-16999508D02*
X6863658Y-17009031D01*
X6863658Y-17009031D02*
X6873182Y-17028079D01*
X6873182Y-17028079D02*
X6882705Y-17066174D01*
X6882705Y-17066174D02*
X6882705Y-17113793D01*
X6882705Y-17113793D02*
X6873182Y-17151889D01*
X6873182Y-17151889D02*
X6863658Y-17170936D01*
X6863658Y-17170936D02*
X6854134Y-17180460D01*
X6854134Y-17180460D02*
X6835086Y-17189984D01*
X6835086Y-17189984D02*
X6816039Y-17189984D01*
X6816039Y-17189984D02*
X6796991Y-17180460D01*
X6796991Y-17180460D02*
X6787467Y-17170936D01*
X6787467Y-17170936D02*
X6777943Y-17151889D01*
X6777943Y-17151889D02*
X6768420Y-17113793D01*
X6768420Y-17113793D02*
X6768420Y-17066174D01*
X6768420Y-17066174D02*
X6777943Y-17028079D01*
X6777943Y-17028079D02*
X6787467Y-17009031D01*
X6787467Y-17009031D02*
X6796991Y-16999508D01*
X6796991Y-16999508D02*
X6816039Y-16989984D01*
X6968420Y-17189984D02*
X6968420Y-17056650D01*
X6968420Y-17075698D02*
X6977943Y-17066174D01*
X6977943Y-17066174D02*
X6996991Y-17056650D01*
X6996991Y-17056650D02*
X7025563Y-17056650D01*
X7025563Y-17056650D02*
X7044610Y-17066174D01*
X7044610Y-17066174D02*
X7054134Y-17085222D01*
X7054134Y-17085222D02*
X7054134Y-17189984D01*
X7054134Y-17085222D02*
X7063658Y-17066174D01*
X7063658Y-17066174D02*
X7082705Y-17056650D01*
X7082705Y-17056650D02*
X7111277Y-17056650D01*
X7111277Y-17056650D02*
X7130324Y-17066174D01*
X7130324Y-17066174D02*
X7139848Y-17085222D01*
X7139848Y-17085222D02*
X7139848Y-17189984D01*
X7235086Y-17189984D02*
X7235086Y-17056650D01*
X7235086Y-17075698D02*
X7244610Y-17066174D01*
X7244610Y-17066174D02*
X7263658Y-17056650D01*
X7263658Y-17056650D02*
X7292229Y-17056650D01*
X7292229Y-17056650D02*
X7311277Y-17066174D01*
X7311277Y-17066174D02*
X7320801Y-17085222D01*
X7320801Y-17085222D02*
X7320801Y-17189984D01*
X7320801Y-17085222D02*
X7330324Y-17066174D01*
X7330324Y-17066174D02*
X7349372Y-17056650D01*
X7349372Y-17056650D02*
X7377943Y-17056650D01*
X7377943Y-17056650D02*
X7396991Y-17066174D01*
X7396991Y-17066174D02*
X7406515Y-17085222D01*
X7406515Y-17085222D02*
X7406515Y-17189984D01*
X7796991Y-16980460D02*
X7625563Y-17237603D01*
X8054134Y-16989984D02*
X8073182Y-16989984D01*
X8073182Y-16989984D02*
X8092229Y-16999508D01*
X8092229Y-16999508D02*
X8101753Y-17009031D01*
X8101753Y-17009031D02*
X8111277Y-17028079D01*
X8111277Y-17028079D02*
X8120801Y-17066174D01*
X8120801Y-17066174D02*
X8120801Y-17113793D01*
X8120801Y-17113793D02*
X8111277Y-17151889D01*
X8111277Y-17151889D02*
X8101753Y-17170936D01*
X8101753Y-17170936D02*
X8092229Y-17180460D01*
X8092229Y-17180460D02*
X8073182Y-17189984D01*
X8073182Y-17189984D02*
X8054134Y-17189984D01*
X8054134Y-17189984D02*
X8035086Y-17180460D01*
X8035086Y-17180460D02*
X8025563Y-17170936D01*
X8025563Y-17170936D02*
X8016039Y-17151889D01*
X8016039Y-17151889D02*
X8006515Y-17113793D01*
X8006515Y-17113793D02*
X8006515Y-17066174D01*
X8006515Y-17066174D02*
X8016039Y-17028079D01*
X8016039Y-17028079D02*
X8025563Y-17009031D01*
X8025563Y-17009031D02*
X8035086Y-16999508D01*
X8035086Y-16999508D02*
X8054134Y-16989984D01*
X8206515Y-17170936D02*
X8216039Y-17180460D01*
X8216039Y-17180460D02*
X8206515Y-17189984D01*
X8206515Y-17189984D02*
X8196991Y-17180460D01*
X8196991Y-17180460D02*
X8206515Y-17170936D01*
X8206515Y-17170936D02*
X8206515Y-17189984D01*
X8339848Y-16989984D02*
X8358896Y-16989984D01*
X8358896Y-16989984D02*
X8377944Y-16999508D01*
X8377944Y-16999508D02*
X8387467Y-17009031D01*
X8387467Y-17009031D02*
X8396991Y-17028079D01*
X8396991Y-17028079D02*
X8406515Y-17066174D01*
X8406515Y-17066174D02*
X8406515Y-17113793D01*
X8406515Y-17113793D02*
X8396991Y-17151889D01*
X8396991Y-17151889D02*
X8387467Y-17170936D01*
X8387467Y-17170936D02*
X8377944Y-17180460D01*
X8377944Y-17180460D02*
X8358896Y-17189984D01*
X8358896Y-17189984D02*
X8339848Y-17189984D01*
X8339848Y-17189984D02*
X8320801Y-17180460D01*
X8320801Y-17180460D02*
X8311277Y-17170936D01*
X8311277Y-17170936D02*
X8301753Y-17151889D01*
X8301753Y-17151889D02*
X8292229Y-17113793D01*
X8292229Y-17113793D02*
X8292229Y-17066174D01*
X8292229Y-17066174D02*
X8301753Y-17028079D01*
X8301753Y-17028079D02*
X8311277Y-17009031D01*
X8311277Y-17009031D02*
X8320801Y-16999508D01*
X8320801Y-16999508D02*
X8339848Y-16989984D01*
X8473182Y-16989984D02*
X8596991Y-16989984D01*
X8596991Y-16989984D02*
X8530325Y-17066174D01*
X8530325Y-17066174D02*
X8558896Y-17066174D01*
X8558896Y-17066174D02*
X8577944Y-17075698D01*
X8577944Y-17075698D02*
X8587468Y-17085222D01*
X8587468Y-17085222D02*
X8596991Y-17104270D01*
X8596991Y-17104270D02*
X8596991Y-17151889D01*
X8596991Y-17151889D02*
X8587468Y-17170936D01*
X8587468Y-17170936D02*
X8577944Y-17180460D01*
X8577944Y-17180460D02*
X8558896Y-17189984D01*
X8558896Y-17189984D02*
X8501753Y-17189984D01*
X8501753Y-17189984D02*
X8482706Y-17180460D01*
X8482706Y-17180460D02*
X8473182Y-17170936D01*
X8663658Y-16989984D02*
X8796991Y-16989984D01*
X8796991Y-16989984D02*
X8711277Y-17189984D01*
X8958896Y-17056650D02*
X8958896Y-17189984D01*
X8911277Y-16980460D02*
X8863658Y-17123317D01*
X8863658Y-17123317D02*
X8987468Y-17123317D01*
X9054134Y-16989984D02*
X9054134Y-17028079D01*
X9130325Y-16989984D02*
X9130325Y-17028079D01*
X9425563Y-17266174D02*
X9416039Y-17256650D01*
X9416039Y-17256650D02*
X9396991Y-17228079D01*
X9396991Y-17228079D02*
X9387468Y-17209031D01*
X9387468Y-17209031D02*
X9377944Y-17180460D01*
X9377944Y-17180460D02*
X9368420Y-17132841D01*
X9368420Y-17132841D02*
X9368420Y-17094746D01*
X9368420Y-17094746D02*
X9377944Y-17047127D01*
X9377944Y-17047127D02*
X9387468Y-17018555D01*
X9387468Y-17018555D02*
X9396991Y-16999508D01*
X9396991Y-16999508D02*
X9416039Y-16970936D01*
X9416039Y-16970936D02*
X9425563Y-16961412D01*
X9606515Y-17189984D02*
X9492230Y-17189984D01*
X9549372Y-17189984D02*
X9549372Y-16989984D01*
X9549372Y-16989984D02*
X9530325Y-17018555D01*
X9530325Y-17018555D02*
X9511277Y-17037603D01*
X9511277Y-17037603D02*
X9492230Y-17047127D01*
X9720801Y-17075698D02*
X9701753Y-17066174D01*
X9701753Y-17066174D02*
X9692230Y-17056650D01*
X9692230Y-17056650D02*
X9682706Y-17037603D01*
X9682706Y-17037603D02*
X9682706Y-17028079D01*
X9682706Y-17028079D02*
X9692230Y-17009031D01*
X9692230Y-17009031D02*
X9701753Y-16999508D01*
X9701753Y-16999508D02*
X9720801Y-16989984D01*
X9720801Y-16989984D02*
X9758896Y-16989984D01*
X9758896Y-16989984D02*
X9777944Y-16999508D01*
X9777944Y-16999508D02*
X9787468Y-17009031D01*
X9787468Y-17009031D02*
X9796991Y-17028079D01*
X9796991Y-17028079D02*
X9796991Y-17037603D01*
X9796991Y-17037603D02*
X9787468Y-17056650D01*
X9787468Y-17056650D02*
X9777944Y-17066174D01*
X9777944Y-17066174D02*
X9758896Y-17075698D01*
X9758896Y-17075698D02*
X9720801Y-17075698D01*
X9720801Y-17075698D02*
X9701753Y-17085222D01*
X9701753Y-17085222D02*
X9692230Y-17094746D01*
X9692230Y-17094746D02*
X9682706Y-17113793D01*
X9682706Y-17113793D02*
X9682706Y-17151889D01*
X9682706Y-17151889D02*
X9692230Y-17170936D01*
X9692230Y-17170936D02*
X9701753Y-17180460D01*
X9701753Y-17180460D02*
X9720801Y-17189984D01*
X9720801Y-17189984D02*
X9758896Y-17189984D01*
X9758896Y-17189984D02*
X9777944Y-17180460D01*
X9777944Y-17180460D02*
X9787468Y-17170936D01*
X9787468Y-17170936D02*
X9796991Y-17151889D01*
X9796991Y-17151889D02*
X9796991Y-17113793D01*
X9796991Y-17113793D02*
X9787468Y-17094746D01*
X9787468Y-17094746D02*
X9777944Y-17085222D01*
X9777944Y-17085222D02*
X9758896Y-17075698D01*
X10035087Y-17189984D02*
X10035087Y-16989984D01*
X10120801Y-17189984D02*
X10120801Y-17085222D01*
X10120801Y-17085222D02*
X10111277Y-17066174D01*
X10111277Y-17066174D02*
X10092230Y-17056650D01*
X10092230Y-17056650D02*
X10063658Y-17056650D01*
X10063658Y-17056650D02*
X10044611Y-17066174D01*
X10044611Y-17066174D02*
X10035087Y-17075698D01*
X10244611Y-17189984D02*
X10225563Y-17180460D01*
X10225563Y-17180460D02*
X10216039Y-17170936D01*
X10216039Y-17170936D02*
X10206515Y-17151889D01*
X10206515Y-17151889D02*
X10206515Y-17094746D01*
X10206515Y-17094746D02*
X10216039Y-17075698D01*
X10216039Y-17075698D02*
X10225563Y-17066174D01*
X10225563Y-17066174D02*
X10244611Y-17056650D01*
X10244611Y-17056650D02*
X10273182Y-17056650D01*
X10273182Y-17056650D02*
X10292230Y-17066174D01*
X10292230Y-17066174D02*
X10301753Y-17075698D01*
X10301753Y-17075698D02*
X10311277Y-17094746D01*
X10311277Y-17094746D02*
X10311277Y-17151889D01*
X10311277Y-17151889D02*
X10301753Y-17170936D01*
X10301753Y-17170936D02*
X10292230Y-17180460D01*
X10292230Y-17180460D02*
X10273182Y-17189984D01*
X10273182Y-17189984D02*
X10244611Y-17189984D01*
X10425563Y-17189984D02*
X10406515Y-17180460D01*
X10406515Y-17180460D02*
X10396992Y-17161412D01*
X10396992Y-17161412D02*
X10396992Y-16989984D01*
X10577944Y-17180460D02*
X10558896Y-17189984D01*
X10558896Y-17189984D02*
X10520801Y-17189984D01*
X10520801Y-17189984D02*
X10501753Y-17180460D01*
X10501753Y-17180460D02*
X10492230Y-17161412D01*
X10492230Y-17161412D02*
X10492230Y-17085222D01*
X10492230Y-17085222D02*
X10501753Y-17066174D01*
X10501753Y-17066174D02*
X10520801Y-17056650D01*
X10520801Y-17056650D02*
X10558896Y-17056650D01*
X10558896Y-17056650D02*
X10577944Y-17066174D01*
X10577944Y-17066174D02*
X10587468Y-17085222D01*
X10587468Y-17085222D02*
X10587468Y-17104270D01*
X10587468Y-17104270D02*
X10492230Y-17123317D01*
X10663658Y-17180460D02*
X10682706Y-17189984D01*
X10682706Y-17189984D02*
X10720801Y-17189984D01*
X10720801Y-17189984D02*
X10739849Y-17180460D01*
X10739849Y-17180460D02*
X10749373Y-17161412D01*
X10749373Y-17161412D02*
X10749373Y-17151889D01*
X10749373Y-17151889D02*
X10739849Y-17132841D01*
X10739849Y-17132841D02*
X10720801Y-17123317D01*
X10720801Y-17123317D02*
X10692230Y-17123317D01*
X10692230Y-17123317D02*
X10673182Y-17113793D01*
X10673182Y-17113793D02*
X10663658Y-17094746D01*
X10663658Y-17094746D02*
X10663658Y-17085222D01*
X10663658Y-17085222D02*
X10673182Y-17066174D01*
X10673182Y-17066174D02*
X10692230Y-17056650D01*
X10692230Y-17056650D02*
X10720801Y-17056650D01*
X10720801Y-17056650D02*
X10739849Y-17066174D01*
X10816039Y-17266174D02*
X10825563Y-17256650D01*
X10825563Y-17256650D02*
X10844611Y-17228079D01*
X10844611Y-17228079D02*
X10854134Y-17209031D01*
X10854134Y-17209031D02*
X10863658Y-17180460D01*
X10863658Y-17180460D02*
X10873182Y-17132841D01*
X10873182Y-17132841D02*
X10873182Y-17094746D01*
X10873182Y-17094746D02*
X10863658Y-17047127D01*
X10863658Y-17047127D02*
X10854134Y-17018555D01*
X10854134Y-17018555D02*
X10844611Y-16999508D01*
X10844611Y-16999508D02*
X10825563Y-16970936D01*
X10825563Y-16970936D02*
X10816039Y-16961412D01*
D12*
X5800500Y-17412500D02*
X5850500Y-17362500D01*
X5800500Y-17312500D01*
X5750500Y-17362500D01*
X5800500Y-17412500D01*
D11*
X6216039Y-17453984D02*
X6101753Y-17453984D01*
X6158896Y-17453984D02*
X6158896Y-17253984D01*
X6158896Y-17253984D02*
X6139848Y-17282555D01*
X6139848Y-17282555D02*
X6120801Y-17301603D01*
X6120801Y-17301603D02*
X6101753Y-17311127D01*
X6301753Y-17434936D02*
X6311277Y-17444460D01*
X6311277Y-17444460D02*
X6301753Y-17453984D01*
X6301753Y-17453984D02*
X6292229Y-17444460D01*
X6292229Y-17444460D02*
X6301753Y-17434936D01*
X6301753Y-17434936D02*
X6301753Y-17453984D01*
X6435086Y-17253984D02*
X6454134Y-17253984D01*
X6454134Y-17253984D02*
X6473182Y-17263508D01*
X6473182Y-17263508D02*
X6482705Y-17273031D01*
X6482705Y-17273031D02*
X6492229Y-17292079D01*
X6492229Y-17292079D02*
X6501753Y-17330174D01*
X6501753Y-17330174D02*
X6501753Y-17377793D01*
X6501753Y-17377793D02*
X6492229Y-17415889D01*
X6492229Y-17415889D02*
X6482705Y-17434936D01*
X6482705Y-17434936D02*
X6473182Y-17444460D01*
X6473182Y-17444460D02*
X6454134Y-17453984D01*
X6454134Y-17453984D02*
X6435086Y-17453984D01*
X6435086Y-17453984D02*
X6416039Y-17444460D01*
X6416039Y-17444460D02*
X6406515Y-17434936D01*
X6406515Y-17434936D02*
X6396991Y-17415889D01*
X6396991Y-17415889D02*
X6387467Y-17377793D01*
X6387467Y-17377793D02*
X6387467Y-17330174D01*
X6387467Y-17330174D02*
X6396991Y-17292079D01*
X6396991Y-17292079D02*
X6406515Y-17273031D01*
X6406515Y-17273031D02*
X6416039Y-17263508D01*
X6416039Y-17263508D02*
X6435086Y-17253984D01*
X6625562Y-17253984D02*
X6644610Y-17253984D01*
X6644610Y-17253984D02*
X6663658Y-17263508D01*
X6663658Y-17263508D02*
X6673182Y-17273031D01*
X6673182Y-17273031D02*
X6682705Y-17292079D01*
X6682705Y-17292079D02*
X6692229Y-17330174D01*
X6692229Y-17330174D02*
X6692229Y-17377793D01*
X6692229Y-17377793D02*
X6682705Y-17415889D01*
X6682705Y-17415889D02*
X6673182Y-17434936D01*
X6673182Y-17434936D02*
X6663658Y-17444460D01*
X6663658Y-17444460D02*
X6644610Y-17453984D01*
X6644610Y-17453984D02*
X6625562Y-17453984D01*
X6625562Y-17453984D02*
X6606515Y-17444460D01*
X6606515Y-17444460D02*
X6596991Y-17434936D01*
X6596991Y-17434936D02*
X6587467Y-17415889D01*
X6587467Y-17415889D02*
X6577943Y-17377793D01*
X6577943Y-17377793D02*
X6577943Y-17330174D01*
X6577943Y-17330174D02*
X6587467Y-17292079D01*
X6587467Y-17292079D02*
X6596991Y-17273031D01*
X6596991Y-17273031D02*
X6606515Y-17263508D01*
X6606515Y-17263508D02*
X6625562Y-17253984D01*
X6816039Y-17253984D02*
X6835086Y-17253984D01*
X6835086Y-17253984D02*
X6854134Y-17263508D01*
X6854134Y-17263508D02*
X6863658Y-17273031D01*
X6863658Y-17273031D02*
X6873182Y-17292079D01*
X6873182Y-17292079D02*
X6882705Y-17330174D01*
X6882705Y-17330174D02*
X6882705Y-17377793D01*
X6882705Y-17377793D02*
X6873182Y-17415889D01*
X6873182Y-17415889D02*
X6863658Y-17434936D01*
X6863658Y-17434936D02*
X6854134Y-17444460D01*
X6854134Y-17444460D02*
X6835086Y-17453984D01*
X6835086Y-17453984D02*
X6816039Y-17453984D01*
X6816039Y-17453984D02*
X6796991Y-17444460D01*
X6796991Y-17444460D02*
X6787467Y-17434936D01*
X6787467Y-17434936D02*
X6777943Y-17415889D01*
X6777943Y-17415889D02*
X6768420Y-17377793D01*
X6768420Y-17377793D02*
X6768420Y-17330174D01*
X6768420Y-17330174D02*
X6777943Y-17292079D01*
X6777943Y-17292079D02*
X6787467Y-17273031D01*
X6787467Y-17273031D02*
X6796991Y-17263508D01*
X6796991Y-17263508D02*
X6816039Y-17253984D01*
X6968420Y-17453984D02*
X6968420Y-17320650D01*
X6968420Y-17339698D02*
X6977943Y-17330174D01*
X6977943Y-17330174D02*
X6996991Y-17320650D01*
X6996991Y-17320650D02*
X7025563Y-17320650D01*
X7025563Y-17320650D02*
X7044610Y-17330174D01*
X7044610Y-17330174D02*
X7054134Y-17349222D01*
X7054134Y-17349222D02*
X7054134Y-17453984D01*
X7054134Y-17349222D02*
X7063658Y-17330174D01*
X7063658Y-17330174D02*
X7082705Y-17320650D01*
X7082705Y-17320650D02*
X7111277Y-17320650D01*
X7111277Y-17320650D02*
X7130324Y-17330174D01*
X7130324Y-17330174D02*
X7139848Y-17349222D01*
X7139848Y-17349222D02*
X7139848Y-17453984D01*
X7235086Y-17453984D02*
X7235086Y-17320650D01*
X7235086Y-17339698D02*
X7244610Y-17330174D01*
X7244610Y-17330174D02*
X7263658Y-17320650D01*
X7263658Y-17320650D02*
X7292229Y-17320650D01*
X7292229Y-17320650D02*
X7311277Y-17330174D01*
X7311277Y-17330174D02*
X7320801Y-17349222D01*
X7320801Y-17349222D02*
X7320801Y-17453984D01*
X7320801Y-17349222D02*
X7330324Y-17330174D01*
X7330324Y-17330174D02*
X7349372Y-17320650D01*
X7349372Y-17320650D02*
X7377943Y-17320650D01*
X7377943Y-17320650D02*
X7396991Y-17330174D01*
X7396991Y-17330174D02*
X7406515Y-17349222D01*
X7406515Y-17349222D02*
X7406515Y-17453984D01*
X7796991Y-17244460D02*
X7625563Y-17501603D01*
X8054134Y-17253984D02*
X8073182Y-17253984D01*
X8073182Y-17253984D02*
X8092229Y-17263508D01*
X8092229Y-17263508D02*
X8101753Y-17273031D01*
X8101753Y-17273031D02*
X8111277Y-17292079D01*
X8111277Y-17292079D02*
X8120801Y-17330174D01*
X8120801Y-17330174D02*
X8120801Y-17377793D01*
X8120801Y-17377793D02*
X8111277Y-17415889D01*
X8111277Y-17415889D02*
X8101753Y-17434936D01*
X8101753Y-17434936D02*
X8092229Y-17444460D01*
X8092229Y-17444460D02*
X8073182Y-17453984D01*
X8073182Y-17453984D02*
X8054134Y-17453984D01*
X8054134Y-17453984D02*
X8035086Y-17444460D01*
X8035086Y-17444460D02*
X8025563Y-17434936D01*
X8025563Y-17434936D02*
X8016039Y-17415889D01*
X8016039Y-17415889D02*
X8006515Y-17377793D01*
X8006515Y-17377793D02*
X8006515Y-17330174D01*
X8006515Y-17330174D02*
X8016039Y-17292079D01*
X8016039Y-17292079D02*
X8025563Y-17273031D01*
X8025563Y-17273031D02*
X8035086Y-17263508D01*
X8035086Y-17263508D02*
X8054134Y-17253984D01*
X8206515Y-17434936D02*
X8216039Y-17444460D01*
X8216039Y-17444460D02*
X8206515Y-17453984D01*
X8206515Y-17453984D02*
X8196991Y-17444460D01*
X8196991Y-17444460D02*
X8206515Y-17434936D01*
X8206515Y-17434936D02*
X8206515Y-17453984D01*
X8339848Y-17253984D02*
X8358896Y-17253984D01*
X8358896Y-17253984D02*
X8377944Y-17263508D01*
X8377944Y-17263508D02*
X8387467Y-17273031D01*
X8387467Y-17273031D02*
X8396991Y-17292079D01*
X8396991Y-17292079D02*
X8406515Y-17330174D01*
X8406515Y-17330174D02*
X8406515Y-17377793D01*
X8406515Y-17377793D02*
X8396991Y-17415889D01*
X8396991Y-17415889D02*
X8387467Y-17434936D01*
X8387467Y-17434936D02*
X8377944Y-17444460D01*
X8377944Y-17444460D02*
X8358896Y-17453984D01*
X8358896Y-17453984D02*
X8339848Y-17453984D01*
X8339848Y-17453984D02*
X8320801Y-17444460D01*
X8320801Y-17444460D02*
X8311277Y-17434936D01*
X8311277Y-17434936D02*
X8301753Y-17415889D01*
X8301753Y-17415889D02*
X8292229Y-17377793D01*
X8292229Y-17377793D02*
X8292229Y-17330174D01*
X8292229Y-17330174D02*
X8301753Y-17292079D01*
X8301753Y-17292079D02*
X8311277Y-17273031D01*
X8311277Y-17273031D02*
X8320801Y-17263508D01*
X8320801Y-17263508D02*
X8339848Y-17253984D01*
X8473182Y-17253984D02*
X8596991Y-17253984D01*
X8596991Y-17253984D02*
X8530325Y-17330174D01*
X8530325Y-17330174D02*
X8558896Y-17330174D01*
X8558896Y-17330174D02*
X8577944Y-17339698D01*
X8577944Y-17339698D02*
X8587468Y-17349222D01*
X8587468Y-17349222D02*
X8596991Y-17368270D01*
X8596991Y-17368270D02*
X8596991Y-17415889D01*
X8596991Y-17415889D02*
X8587468Y-17434936D01*
X8587468Y-17434936D02*
X8577944Y-17444460D01*
X8577944Y-17444460D02*
X8558896Y-17453984D01*
X8558896Y-17453984D02*
X8501753Y-17453984D01*
X8501753Y-17453984D02*
X8482706Y-17444460D01*
X8482706Y-17444460D02*
X8473182Y-17434936D01*
X8692229Y-17453984D02*
X8730325Y-17453984D01*
X8730325Y-17453984D02*
X8749372Y-17444460D01*
X8749372Y-17444460D02*
X8758896Y-17434936D01*
X8758896Y-17434936D02*
X8777944Y-17406365D01*
X8777944Y-17406365D02*
X8787468Y-17368270D01*
X8787468Y-17368270D02*
X8787468Y-17292079D01*
X8787468Y-17292079D02*
X8777944Y-17273031D01*
X8777944Y-17273031D02*
X8768420Y-17263508D01*
X8768420Y-17263508D02*
X8749372Y-17253984D01*
X8749372Y-17253984D02*
X8711277Y-17253984D01*
X8711277Y-17253984D02*
X8692229Y-17263508D01*
X8692229Y-17263508D02*
X8682706Y-17273031D01*
X8682706Y-17273031D02*
X8673182Y-17292079D01*
X8673182Y-17292079D02*
X8673182Y-17339698D01*
X8673182Y-17339698D02*
X8682706Y-17358746D01*
X8682706Y-17358746D02*
X8692229Y-17368270D01*
X8692229Y-17368270D02*
X8711277Y-17377793D01*
X8711277Y-17377793D02*
X8749372Y-17377793D01*
X8749372Y-17377793D02*
X8768420Y-17368270D01*
X8768420Y-17368270D02*
X8777944Y-17358746D01*
X8777944Y-17358746D02*
X8787468Y-17339698D01*
X8958896Y-17320650D02*
X8958896Y-17453984D01*
X8911277Y-17244460D02*
X8863658Y-17387317D01*
X8863658Y-17387317D02*
X8987468Y-17387317D01*
X9054134Y-17253984D02*
X9054134Y-17292079D01*
X9130325Y-17253984D02*
X9130325Y-17292079D01*
X9425563Y-17530174D02*
X9416039Y-17520650D01*
X9416039Y-17520650D02*
X9396991Y-17492079D01*
X9396991Y-17492079D02*
X9387468Y-17473031D01*
X9387468Y-17473031D02*
X9377944Y-17444460D01*
X9377944Y-17444460D02*
X9368420Y-17396841D01*
X9368420Y-17396841D02*
X9368420Y-17358746D01*
X9368420Y-17358746D02*
X9377944Y-17311127D01*
X9377944Y-17311127D02*
X9387468Y-17282555D01*
X9387468Y-17282555D02*
X9396991Y-17263508D01*
X9396991Y-17263508D02*
X9416039Y-17234936D01*
X9416039Y-17234936D02*
X9425563Y-17225412D01*
X9606515Y-17453984D02*
X9492230Y-17453984D01*
X9549372Y-17453984D02*
X9549372Y-17253984D01*
X9549372Y-17253984D02*
X9530325Y-17282555D01*
X9530325Y-17282555D02*
X9511277Y-17301603D01*
X9511277Y-17301603D02*
X9492230Y-17311127D01*
X9682706Y-17273031D02*
X9692230Y-17263508D01*
X9692230Y-17263508D02*
X9711277Y-17253984D01*
X9711277Y-17253984D02*
X9758896Y-17253984D01*
X9758896Y-17253984D02*
X9777944Y-17263508D01*
X9777944Y-17263508D02*
X9787468Y-17273031D01*
X9787468Y-17273031D02*
X9796991Y-17292079D01*
X9796991Y-17292079D02*
X9796991Y-17311127D01*
X9796991Y-17311127D02*
X9787468Y-17339698D01*
X9787468Y-17339698D02*
X9673182Y-17453984D01*
X9673182Y-17453984D02*
X9796991Y-17453984D01*
X10035087Y-17453984D02*
X10035087Y-17253984D01*
X10120801Y-17453984D02*
X10120801Y-17349222D01*
X10120801Y-17349222D02*
X10111277Y-17330174D01*
X10111277Y-17330174D02*
X10092230Y-17320650D01*
X10092230Y-17320650D02*
X10063658Y-17320650D01*
X10063658Y-17320650D02*
X10044611Y-17330174D01*
X10044611Y-17330174D02*
X10035087Y-17339698D01*
X10244611Y-17453984D02*
X10225563Y-17444460D01*
X10225563Y-17444460D02*
X10216039Y-17434936D01*
X10216039Y-17434936D02*
X10206515Y-17415889D01*
X10206515Y-17415889D02*
X10206515Y-17358746D01*
X10206515Y-17358746D02*
X10216039Y-17339698D01*
X10216039Y-17339698D02*
X10225563Y-17330174D01*
X10225563Y-17330174D02*
X10244611Y-17320650D01*
X10244611Y-17320650D02*
X10273182Y-17320650D01*
X10273182Y-17320650D02*
X10292230Y-17330174D01*
X10292230Y-17330174D02*
X10301753Y-17339698D01*
X10301753Y-17339698D02*
X10311277Y-17358746D01*
X10311277Y-17358746D02*
X10311277Y-17415889D01*
X10311277Y-17415889D02*
X10301753Y-17434936D01*
X10301753Y-17434936D02*
X10292230Y-17444460D01*
X10292230Y-17444460D02*
X10273182Y-17453984D01*
X10273182Y-17453984D02*
X10244611Y-17453984D01*
X10425563Y-17453984D02*
X10406515Y-17444460D01*
X10406515Y-17444460D02*
X10396992Y-17425412D01*
X10396992Y-17425412D02*
X10396992Y-17253984D01*
X10577944Y-17444460D02*
X10558896Y-17453984D01*
X10558896Y-17453984D02*
X10520801Y-17453984D01*
X10520801Y-17453984D02*
X10501753Y-17444460D01*
X10501753Y-17444460D02*
X10492230Y-17425412D01*
X10492230Y-17425412D02*
X10492230Y-17349222D01*
X10492230Y-17349222D02*
X10501753Y-17330174D01*
X10501753Y-17330174D02*
X10520801Y-17320650D01*
X10520801Y-17320650D02*
X10558896Y-17320650D01*
X10558896Y-17320650D02*
X10577944Y-17330174D01*
X10577944Y-17330174D02*
X10587468Y-17349222D01*
X10587468Y-17349222D02*
X10587468Y-17368270D01*
X10587468Y-17368270D02*
X10492230Y-17387317D01*
X10663658Y-17444460D02*
X10682706Y-17453984D01*
X10682706Y-17453984D02*
X10720801Y-17453984D01*
X10720801Y-17453984D02*
X10739849Y-17444460D01*
X10739849Y-17444460D02*
X10749373Y-17425412D01*
X10749373Y-17425412D02*
X10749373Y-17415889D01*
X10749373Y-17415889D02*
X10739849Y-17396841D01*
X10739849Y-17396841D02*
X10720801Y-17387317D01*
X10720801Y-17387317D02*
X10692230Y-17387317D01*
X10692230Y-17387317D02*
X10673182Y-17377793D01*
X10673182Y-17377793D02*
X10663658Y-17358746D01*
X10663658Y-17358746D02*
X10663658Y-17349222D01*
X10663658Y-17349222D02*
X10673182Y-17330174D01*
X10673182Y-17330174D02*
X10692230Y-17320650D01*
X10692230Y-17320650D02*
X10720801Y-17320650D01*
X10720801Y-17320650D02*
X10739849Y-17330174D01*
X10816039Y-17530174D02*
X10825563Y-17520650D01*
X10825563Y-17520650D02*
X10844611Y-17492079D01*
X10844611Y-17492079D02*
X10854134Y-17473031D01*
X10854134Y-17473031D02*
X10863658Y-17444460D01*
X10863658Y-17444460D02*
X10873182Y-17396841D01*
X10873182Y-17396841D02*
X10873182Y-17358746D01*
X10873182Y-17358746D02*
X10863658Y-17311127D01*
X10863658Y-17311127D02*
X10854134Y-17282555D01*
X10854134Y-17282555D02*
X10844611Y-17263508D01*
X10844611Y-17263508D02*
X10825563Y-17234936D01*
X10825563Y-17234936D02*
X10816039Y-17225412D01*
M02*
