%TF.GenerationSoftware,KiCad,Pcbnew,9.0.1*%
%TF.CreationDate,2026-03-03T23:36:01+07:00*%
%TF.ProjectId,BMP_Bluepill,424d505f-426c-4756-9570-696c6c2e6b69,rev?*%
%TF.SameCoordinates,Original*%
%TF.FileFunction,Plated,1,2,PTH,Mixed*%
%TF.FilePolarity,Positive*%
%FSLAX46Y46*%
G04 Gerber Fmt 4.6, Leading zero omitted, Abs format (unit mm)*
G04 Created by KiCad (PCBNEW 9.0.1) date 2026-03-03 23:36:01*
%MOMM*%
%LPD*%
G01*
G04 APERTURE LIST*
%TA.AperFunction,ViaDrill*%
%ADD10C,0.300000*%
%TD*%
G04 aperture for slot hole*
%TA.AperFunction,ComponentDrill*%
%ADD11C,0.600000*%
%TD*%
%TA.AperFunction,ComponentDrill*%
%ADD12C,0.800000*%
%TD*%
%TA.AperFunction,ComponentDrill*%
%ADD13C,0.950000*%
%TD*%
%TA.AperFunction,ComponentDrill*%
%ADD14C,1.000000*%
%TD*%
G04 APERTURE END LIST*
D10*
X107990000Y-114890000D03*
X107990000Y-136890000D03*
X107990000Y-158890000D03*
X110307500Y-113412500D03*
X110307500Y-135412500D03*
X110307500Y-157412500D03*
X112080000Y-105870000D03*
X112080000Y-107502497D03*
X112080000Y-127870000D03*
X112080000Y-129502497D03*
X112080000Y-149870000D03*
X112080000Y-151502497D03*
X113950000Y-106220000D03*
X113950000Y-128220000D03*
X113950000Y-150220000D03*
X114620000Y-113217499D03*
X114620000Y-114942501D03*
X114620000Y-135217499D03*
X114620000Y-136942501D03*
X114620000Y-157217499D03*
X114620000Y-158942501D03*
X115777499Y-109990000D03*
X115777499Y-131990000D03*
X115777499Y-153990000D03*
X118524998Y-107040000D03*
X118524998Y-129040000D03*
X118524998Y-151040000D03*
X118710000Y-119200000D03*
X118710000Y-141200000D03*
X118710000Y-163200000D03*
X119077101Y-113325000D03*
X119077101Y-135325000D03*
X119077101Y-157325000D03*
X119080000Y-111780000D03*
X119080000Y-133780000D03*
X119080000Y-155780000D03*
X119350000Y-114824999D03*
X119350000Y-136824999D03*
X119350000Y-158824999D03*
X120250000Y-107040000D03*
X120250000Y-129040000D03*
X120250000Y-151040000D03*
X121830000Y-107040000D03*
X121830000Y-129040000D03*
X121830000Y-151040000D03*
X122390000Y-118880000D03*
X122390000Y-140880000D03*
X122390000Y-162880000D03*
X123965000Y-118880000D03*
X123965000Y-140880000D03*
X123965000Y-162880000D03*
X124220000Y-110600000D03*
X124220000Y-132600000D03*
X124220000Y-154600000D03*
X125690002Y-118880000D03*
X125690002Y-140880000D03*
X125690002Y-162880000D03*
X127087434Y-113585961D03*
X127087434Y-135585961D03*
X127087434Y-157585961D03*
X127462501Y-110320000D03*
X127462501Y-132320000D03*
X127462501Y-154320000D03*
X128170000Y-106070000D03*
X128170000Y-128070000D03*
X128170000Y-150070000D03*
X128760000Y-112310000D03*
X128760000Y-134310000D03*
X128760000Y-156310000D03*
X129340000Y-101330000D03*
X129340000Y-123330000D03*
X129340000Y-145330000D03*
X130047500Y-113120000D03*
X130047500Y-114650000D03*
X130047500Y-135120000D03*
X130047500Y-136650000D03*
X130047500Y-157120000D03*
X130047500Y-158650000D03*
X130454998Y-106825002D03*
X130454998Y-128825002D03*
X130454998Y-150825002D03*
X133190000Y-112890000D03*
X133190000Y-134890000D03*
X133190000Y-156890000D03*
X135480000Y-113390000D03*
X135480000Y-135390000D03*
X135480000Y-157390000D03*
X135610000Y-109940000D03*
X135610000Y-131940000D03*
X135610000Y-153940000D03*
X135620000Y-116340000D03*
X135620000Y-138340000D03*
X135620000Y-160340000D03*
X137107500Y-111370000D03*
X137107500Y-114470000D03*
X137107500Y-133370000D03*
X137107500Y-136470000D03*
X137107500Y-155370000D03*
X137107500Y-158470000D03*
D11*
%TO.C,J2*%
X135465000Y-108820000D02*
X134365000Y-108820000D01*
X135465000Y-117460000D02*
X134365000Y-117460000D01*
X135465000Y-130820000D02*
X134365000Y-130820000D01*
X135465000Y-139460000D02*
X134365000Y-139460000D01*
X135465000Y-152820000D02*
X134365000Y-152820000D01*
X135465000Y-161460000D02*
X134365000Y-161460000D01*
X139495000Y-108820000D02*
X138695000Y-108820000D01*
X139495000Y-117460000D02*
X138695000Y-117460000D01*
X139495000Y-130820000D02*
X138695000Y-130820000D01*
X139495000Y-139460000D02*
X138695000Y-139460000D01*
X139495000Y-152820000D02*
X138695000Y-152820000D01*
X139495000Y-161460000D02*
X138695000Y-161460000D01*
D12*
%TO.C,Y1*%
X110000000Y-104240000D03*
X110000000Y-109120000D03*
X110000000Y-126240000D03*
X110000000Y-131120000D03*
X110000000Y-148240000D03*
X110000000Y-153120000D03*
D13*
%TO.C,J1*%
X103145000Y-103750000D03*
X103145000Y-106250000D03*
X103145000Y-108750000D03*
X103145000Y-111250000D03*
X103145000Y-113750000D03*
X103145000Y-116250000D03*
X103145000Y-125750000D03*
X103145000Y-128250000D03*
X103145000Y-130750000D03*
X103145000Y-133250000D03*
X103145000Y-135750000D03*
X103145000Y-138250000D03*
X103145000Y-147750000D03*
X103145000Y-150250000D03*
X103145000Y-152750000D03*
X103145000Y-155250000D03*
X103145000Y-157750000D03*
X103145000Y-160250000D03*
D14*
%TO.C,J3*%
X118130001Y-102410000D03*
X118130001Y-124410000D03*
X118130001Y-146410000D03*
X120670001Y-102410000D03*
X120670001Y-124410000D03*
X120670001Y-146410000D03*
X123210000Y-102410000D03*
X123210000Y-124410000D03*
X123210000Y-146410000D03*
X125750001Y-102410000D03*
X125750001Y-124410000D03*
X125750001Y-146410000D03*
M02*
